<svg width="278" height="86" viewBox="0 0 278 86" fill="none" xmlns="http://www.w3.org/2000/svg">
<path d="M10.08 21.472C10.8 21.544 11.376 22.12 11.304 22.84C11.088 24.136 10.728 25.864 10.512 27.232C10.008 29.896 9.864 31.336 9.504 34.072C9.072 37.528 3.96 71.8 3.888 74.824C3.816 76.768 4.104 77.128 6.192 77.056C7.272 77.056 8.352 76.984 9.432 76.984C10.224 76.984 10.944 77.056 11.736 77.056C12.24 77.128 12.6 77.56 12.528 78.136C12.528 78.568 12.096 79 11.52 79C11.232 79 11.016 79 10.728 78.928C9.36 78.856 7.92 78.856 6.48 79C5.472 79 4.464 78.928 3.528 78.856C3.312 78.856 3.168 78.784 3.024 78.712C2.52 78.568 2.088 78.064 2.088 77.632C2.16 75.976 2.16 74.32 2.304 72.664L8.28 29.608C8.496 28.24 8.496 28.168 8.64 26.728C9.288 22.192 9.648 23.704 5.976 23.272C5.04 23.128 2.304 23.128 1.944 23.056C1.656 22.984 1.44 22.408 1.44 22.12C1.512 21.832 1.872 21.472 2.16 21.472H3.096C4.104 21.616 8.856 21.4 10.08 21.472ZM31.3172 49.12C31.3172 45.736 31.3892 40.984 31.3892 36.232C31.3892 34.648 31.3892 25 31.3172 22.984C31.3172 22.264 31.8212 21.76 32.5412 21.616C32.9012 21.616 33.1892 21.544 33.5492 21.544C35.2052 21.472 36.8612 21.472 38.5172 21.4C38.9492 21.4 39.3812 21.4 39.8132 21.472C40.2452 21.472 40.6052 21.904 40.6052 22.264C40.5332 22.624 40.1732 23.128 39.8852 23.2L38.8772 23.344H35.1332C34.7012 23.344 34.2692 23.416 33.9092 23.488C33.6212 23.488 33.2612 23.848 33.2612 24.136C33.1892 24.784 33.0452 25.936 33.1172 26.584C33.2612 29.608 33.0452 32.632 33.0452 35.584C33.0452 36.592 32.9732 38.248 33.0452 39.256C33.0452 39.616 33.4772 40.048 33.8372 40.048C34.7012 40.192 37.6532 40.48 38.2292 40.408C38.4452 40.408 38.8052 40.84 38.8052 41.128C38.7332 41.632 38.3732 42.136 37.9412 42.208C36.7172 42.352 35.2772 41.848 34.0532 41.992C33.3332 42.136 32.9732 42.208 32.9012 43.288C32.8292 45.304 32.9732 46.672 32.9732 48.616C32.9012 50.056 32.8292 51.496 32.8292 52.864C32.7572 56.176 32.6132 59.416 32.6852 62.656C32.6852 66.832 32.8292 71.008 32.9012 75.184C32.9012 75.616 32.9732 75.976 33.1172 76.408C33.1172 76.624 36.8612 76.624 38.0132 76.84C38.3732 76.912 38.7332 77.272 38.8052 77.704C38.8772 78.208 38.4452 78.784 38.0132 78.784C37.2212 78.784 36.5012 78.784 35.7092 78.712C34.4852 78.496 33.3332 79 32.0372 78.928C31.5332 78.928 31.0292 78.352 31.0292 77.704C31.0292 76.336 31.1012 74.896 31.1012 73.456V71.224C31.1012 68.632 30.9572 66.04 30.9572 63.52C30.9572 62.44 31.1012 61.288 31.1012 60.208L31.3172 49.12ZM59.2476 57.472C59.3196 60.28 59.5356 68.92 59.5356 70.216C59.6076 71.512 59.7516 72.736 59.8956 73.96C59.9676 74.968 60.1116 75.832 60.1836 76.768C60.2556 77.2 60.1836 77.704 60.1836 78.064C60.1116 78.424 59.6796 78.784 59.2476 78.784C58.8156 78.856 58.5996 78.712 58.3836 78.352C58.2396 78.208 58.0956 77.92 58.0956 77.704C58.0236 77.128 58.0236 76.696 58.0236 76.12C57.9516 73.888 57.5916 55.456 57.5916 52.216V49.912C57.5916 46.384 58.0236 26.8 57.9516 23.2C57.9516 22.696 58.0236 22.336 58.0956 21.904C58.1676 21.688 58.6716 21.4 58.8876 21.544C61.1916 22.768 63.2796 24.208 64.7196 26.44C65.9436 28.168 66.7356 30.184 66.5196 32.344C66.3036 34.432 65.5116 36.376 64.3596 37.96C63.7116 38.68 63.2076 39.544 62.4876 40.192C61.2636 41.2 61.4796 41.488 61.7676 42.64C62.5596 45.016 63.2076 47.464 63.8556 49.912C64.5756 52.576 65.2956 55.24 66.0876 57.76C67.2396 61.72 68.2476 65.752 69.3996 69.784C69.9036 71.656 70.4076 73.384 70.8396 75.184C70.9836 75.832 71.1276 76.48 71.3436 77.2C71.4156 77.488 71.4156 77.704 71.4156 77.992C71.4156 78.352 70.9836 78.784 70.6236 78.856C70.1196 79 69.5436 78.712 69.3996 78.28L69.1836 77.2C68.6796 73.744 62.8476 53.584 62.5596 52.144C61.9836 49.696 61.2636 47.248 60.3996 44.8C60.3276 44.584 60.1836 44.368 60.0396 44.152C59.9676 44.008 59.8236 43.936 59.6796 43.936C59.5356 43.936 59.3916 44.152 59.3916 44.224C59.3196 45.304 59.2476 46.456 59.2476 47.536V53.872C59.3196 55.168 59.2476 56.32 59.2476 57.472ZM64.5036 30.976C64.4316 30.832 64.4316 30.328 64.2876 29.896C63.6396 27.736 62.3436 26.152 60.5436 24.928C60.3276 24.784 59.9676 24.928 59.8956 25.216C59.8956 25.432 59.7516 25.648 59.7516 25.864C59.7516 27.592 59.5356 29.248 59.5356 30.904C59.6076 32.92 59.3916 34.864 59.3196 36.808C59.3196 37.528 59.3916 38.248 59.3916 39.04C59.4636 39.328 59.8956 39.544 60.1836 39.472C60.9756 39.184 61.5516 38.608 62.0556 37.888C62.6316 37.24 63.0636 36.52 63.4236 35.728C64.0716 34.36 64.5756 32.992 64.5036 30.976ZM102.248 39.904C102.176 38.392 102.176 36.664 102.248 34.936C102.248 32.056 101.6 28.24 101.168 25.504C101.024 24.28 100.448 23.2 99.2964 21.976C98.6484 21.4 97.9284 21.112 96.9924 21.04C95.8404 20.896 94.8324 21.328 94.1124 22.264C93.0324 23.92 92.3844 25.36 91.8804 27.232C91.4484 28.816 91.0884 30.4 90.7284 31.984L90.5844 32.704C90.0084 35.656 89.5044 39.112 89.3604 42.568C89.2884 45.736 89.2884 48.76 89.2884 52C89.2164 54.376 89.8644 59.704 90.2244 62.872C90.3684 64.096 90.4404 64.96 90.5124 65.248C90.5844 66.832 91.0164 69.208 91.3764 71.152C91.5924 72.16 91.6644 73.168 92.0244 74.176C92.3124 75.112 92.8164 75.976 93.6084 76.624C94.6884 77.488 95.6244 77.92 96.4164 77.92H96.8484C98.3604 77.632 99.4404 75.976 99.8724 74.68C100.592 72.232 100.808 69.784 101.096 67.264C101.384 64.672 101.6 62.08 101.6 59.488C101.672 59.272 101.672 58.912 101.672 58.408C101.816 54.952 102.248 45.88 102.32 42.28C102.32 41.632 102.248 40.768 102.248 39.904ZM98.0724 73.528C97.8564 74.176 97.6404 74.752 97.2084 75.256C96.9204 75.616 96.4164 75.76 95.9844 75.688C95.6964 75.544 95.4084 75.4 95.1204 75.184C94.5444 74.752 94.1124 74.104 93.8964 73.384C93.5364 72.376 93.2484 71.368 93.0324 70.36C92.3844 67.192 91.7364 63.376 91.3764 59.632C91.1604 56.896 90.9444 53.656 90.9444 50.2C90.9444 48.328 91.0164 46.384 91.1604 44.584C91.2324 43.072 91.3044 41.56 91.3044 40.048C91.3764 39.328 91.5204 38.608 91.5924 37.888C91.6644 37.528 91.7364 37.168 91.7364 36.808L92.2404 33.928L92.6724 30.976C93.0324 29.032 93.9684 26.368 94.6884 24.712C94.9044 24.28 95.1924 23.92 95.4804 23.632C95.5524 23.488 95.6244 23.416 95.6964 23.344C96.4884 22.408 97.4964 23.272 98.0724 23.992C98.9364 24.928 99.3684 25.936 99.6564 27.088C100.16 29.608 100.52 33.208 100.52 36.304C100.52 39.544 99.9444 69.28 98.0724 73.528ZM120.225 49.84V42.064V30.328C120.225 28.024 120.441 25.792 120.153 23.56C120.153 23.2 120.225 22.912 120.297 22.552C120.441 22.048 121.233 21.616 121.665 21.76C122.169 21.904 122.673 22.048 123.105 22.264C123.537 22.48 127.497 24.352 129.225 27.16C130.449 29.032 131.169 31.336 131.601 33.64C131.889 35.296 132.105 36.952 132.105 38.608C132.177 40.264 132.249 41.92 132.393 43.576C132.537 45.52 132.177 47.464 132.105 49.408C132.105 51.28 131.889 53.224 131.673 55.096C131.457 58.408 130.809 61.576 130.305 64.816C130.089 66.04 129.657 67.264 129.297 68.416C129.153 68.92 128.937 69.352 128.793 69.856C127.857 73.312 125.841 75.976 123.105 78.208C121.593 79.36 121.233 79.36 120.081 77.848C119.721 77.272 119.577 76.768 119.649 76.192C119.721 74.32 119.865 72.52 119.937 70.648C120.225 65.176 120.153 59.632 120.153 54.088V49.84H120.225ZM122.601 24.568C122.601 24.568 122.169 25.144 122.169 25.648C122.097 28.816 121.953 32.128 121.953 35.296C121.953 38.536 121.953 41.704 122.025 44.872C122.097 47.896 121.881 50.848 121.881 53.872C121.953 56.968 122.097 60.064 121.953 63.16C121.737 66.472 121.953 69.856 121.665 73.168C121.593 73.888 121.665 74.68 121.737 75.4C121.737 75.832 122.313 76.12 122.673 75.832C123.105 75.544 123.537 75.256 123.825 74.896C124.689 74.032 125.625 73.096 126.129 71.944C126.705 70.648 127.281 69.352 127.713 67.984C128.793 64.816 129.225 61.504 129.729 58.192C130.089 55.816 130.305 53.368 130.449 50.992C130.593 48.112 130.809 45.304 130.665 42.496C130.593 41.56 130.593 40.624 130.593 39.688C130.449 37.384 130.161 35.08 129.585 32.776C129.009 30.4 127.929 28.096 126.273 26.224C125.337 25.072 124.185 24.352 122.601 24.568ZM163.463 39.904C163.391 38.392 163.391 36.664 163.463 34.936C163.463 32.056 162.815 28.24 162.383 25.504C162.239 24.28 161.663 23.2 160.511 21.976C159.863 21.4 159.143 21.112 158.207 21.04C157.055 20.896 156.047 21.328 155.327 22.264C154.247 23.92 153.599 25.36 153.095 27.232C152.663 28.816 152.303 30.4 151.943 31.984L151.799 32.704C151.223 35.656 150.719 39.112 150.575 42.568C150.503 45.736 150.503 48.76 150.503 52C150.431 54.376 151.079 59.704 151.438 62.872C151.583 64.096 151.655 64.96 151.727 65.248C151.799 66.832 152.231 69.208 152.591 71.152C152.807 72.16 152.879 73.168 153.239 74.176C153.527 75.112 154.031 75.976 154.823 76.624C155.903 77.488 156.839 77.92 157.631 77.92H158.062C159.575 77.632 160.655 75.976 161.087 74.68C161.807 72.232 162.023 69.784 162.311 67.264C162.599 64.672 162.815 62.08 162.815 59.488C162.887 59.272 162.887 58.912 162.887 58.408C163.031 54.952 163.463 45.88 163.535 42.28C163.535 41.632 163.463 40.768 163.463 39.904ZM159.287 73.528C159.071 74.176 158.855 74.752 158.423 75.256C158.135 75.616 157.631 75.76 157.199 75.688C156.911 75.544 156.623 75.4 156.335 75.184C155.759 74.752 155.327 74.104 155.111 73.384C154.751 72.376 154.463 71.368 154.247 70.36C153.599 67.192 152.951 63.376 152.591 59.632C152.375 56.896 152.159 53.656 152.159 50.2C152.159 48.328 152.231 46.384 152.375 44.584C152.447 43.072 152.519 41.56 152.519 40.048C152.591 39.328 152.735 38.608 152.807 37.888C152.879 37.528 152.951 37.168 152.951 36.808L153.455 33.928L153.887 30.976C154.247 29.032 155.183 26.368 155.903 24.712C156.119 24.28 156.407 23.92 156.695 23.632C156.767 23.488 156.839 23.416 156.911 23.344C157.703 22.408 158.711 23.272 159.287 23.992C160.151 24.928 160.583 25.936 160.871 27.088C161.375 29.608 161.735 33.208 161.735 36.304C161.735 39.544 161.159 69.28 159.287 73.528ZM186.695 31.984C186.695 30.04 186.623 28.168 186.551 26.224C186.551 25.72 186.479 25.216 186.479 24.712C186.335 23.92 185.831 23.416 185.111 23.344L182.231 23.128C181.943 23.128 181.583 22.984 181.295 22.84C181.007 22.768 180.863 22.552 180.863 22.264C180.935 21.976 181.007 21.688 181.295 21.616C181.583 21.544 181.943 21.4 182.303 21.4C183.167 21.4 184.031 21.544 184.895 21.616C187.199 21.76 189.575 21.616 191.879 21.544C192.311 21.544 192.743 21.616 193.175 21.616C193.463 21.688 193.823 22.048 193.823 22.336C193.751 22.624 193.679 22.912 193.535 23.056C193.247 23.416 192.815 23.488 192.383 23.488C191.663 23.488 191.015 23.416 190.295 23.416C189.863 23.416 189.431 23.488 188.999 23.632C188.783 23.704 188.711 23.992 188.567 24.208C188.495 24.208 188.495 24.352 188.495 24.424C188.495 29.176 188.855 44.8 188.927 46.312C189.071 49.84 189.503 66.04 189.575 69.712C189.647 72.088 189.791 74.536 189.863 76.984C189.863 77.416 189.863 77.848 189.791 78.28C189.719 78.64 189.287 78.928 188.855 79C188.423 79 187.919 78.64 187.847 78.28C187.775 77.92 187.775 77.56 187.775 77.272C187.703 72.52 187.703 67.84 187.631 63.16C187.631 59.272 186.695 34.864 186.695 31.984ZM216.916 31.984C216.916 30.04 216.844 28.168 216.772 26.224C216.772 25.72 216.7 25.216 216.7 24.712C216.556 23.92 216.052 23.416 215.332 23.344L212.452 23.128C212.164 23.128 211.804 22.984 211.516 22.84C211.228 22.768 211.084 22.552 211.084 22.264C211.156 21.976 211.228 21.688 211.516 21.616C211.804 21.544 212.164 21.4 212.524 21.4C213.388 21.4 214.252 21.544 215.116 21.616C217.42 21.76 219.796 21.616 222.1 21.544C222.532 21.544 222.964 21.616 223.396 21.616C223.684 21.688 224.044 22.048 224.044 22.336C223.972 22.624 223.9 22.912 223.756 23.056C223.468 23.416 223.036 23.488 222.604 23.488C221.884 23.488 221.236 23.416 220.516 23.416C220.084 23.416 219.652 23.488 219.22 23.632C219.004 23.704 218.932 23.992 218.788 24.208C218.716 24.208 218.716 24.352 218.716 24.424C218.716 29.176 219.076 44.8 219.148 46.312C219.292 49.84 219.724 66.04 219.796 69.712C219.868 72.088 220.012 74.536 220.084 76.984C220.084 77.416 220.084 77.848 220.012 78.28C219.94 78.64 219.508 78.928 219.076 79C218.644 79 218.14 78.64 218.068 78.28C217.996 77.92 217.996 77.56 217.996 77.272C217.924 72.52 217.924 67.84 217.852 63.16C217.852 59.272 216.916 34.864 216.916 31.984ZM243.248 31.264C243.176 34.216 242.888 46.816 242.96 50.128C242.96 53.512 242.888 56.824 242.888 60.208C242.888 61.504 242.96 62.872 243.032 64.24C243.32 67.984 243.32 73.672 243.392 77.416C243.392 77.776 243.32 78.064 243.32 78.424C243.248 78.568 242.744 78.928 242.456 78.928C242.168 79 241.736 78.712 241.664 78.496C241.592 78.352 241.52 78.208 241.52 78.064C241.448 77.632 241.448 77.128 241.448 76.768C241.448 74.032 241.304 61.72 241.376 59.848C241.376 58.048 241.304 45.232 241.376 43.432C241.448 39.76 241.376 35.8 241.376 32.128C241.448 29.32 241.304 25.72 241.304 22.912V21.976C241.376 21.688 241.736 21.4 242.024 21.4C242.384 21.4 242.744 21.616 242.816 21.832C242.888 22.264 243.032 22.624 243.032 23.056C243.176 24.712 243.248 27.16 243.248 28.744V31.264ZM263.126 57.472C263.198 60.28 263.414 68.92 263.414 70.216C263.486 71.512 263.63 72.736 263.774 73.96C263.846 74.968 263.99 75.832 264.062 76.768C264.134 77.2 264.062 77.704 264.062 78.064C263.99 78.424 263.558 78.784 263.126 78.784C262.694 78.856 262.478 78.712 262.262 78.352C262.118 78.208 261.974 77.92 261.974 77.704C261.902 77.128 261.902 76.696 261.902 76.12C261.83 73.888 261.47 55.456 261.47 52.216V49.912C261.47 46.384 261.902 26.8 261.83 23.2C261.83 22.696 261.902 22.336 261.974 21.904C262.046 21.688 262.55 21.4 262.766 21.544C265.07 22.768 267.158 24.208 268.598 26.44C269.822 28.168 270.614 30.184 270.398 32.344C270.182 34.432 269.39 36.376 268.238 37.96C267.59 38.68 267.086 39.544 266.366 40.192C265.142 41.2 265.358 41.488 265.646 42.64C266.438 45.016 267.086 47.464 267.734 49.912C268.454 52.576 269.174 55.24 269.966 57.76C271.118 61.72 272.126 65.752 273.278 69.784C273.782 71.656 274.286 73.384 274.718 75.184C274.862 75.832 275.006 76.48 275.222 77.2C275.294 77.488 275.294 77.704 275.294 77.992C275.294 78.352 274.862 78.784 274.502 78.856C273.998 79 273.422 78.712 273.278 78.28L273.062 77.2C272.558 73.744 266.726 53.584 266.438 52.144C265.862 49.696 265.142 47.248 264.278 44.8C264.206 44.584 264.062 44.368 263.918 44.152C263.846 44.008 263.702 43.936 263.558 43.936C263.414 43.936 263.27 44.152 263.27 44.224C263.198 45.304 263.126 46.456 263.126 47.536V53.872C263.198 55.168 263.126 56.32 263.126 57.472ZM268.382 30.976C268.31 30.832 268.31 30.328 268.166 29.896C267.518 27.736 266.222 26.152 264.422 24.928C264.206 24.784 263.846 24.928 263.774 25.216C263.774 25.432 263.63 25.648 263.63 25.864C263.63 27.592 263.414 29.248 263.414 30.904C263.486 32.92 263.27 34.864 263.198 36.808C263.198 37.528 263.27 38.248 263.27 39.04C263.342 39.328 263.774 39.544 264.062 39.472C264.854 39.184 265.43 38.608 265.934 37.888C266.51 37.24 266.942 36.52 267.302 35.728C267.95 34.36 268.454 32.992 268.382 30.976Z" fill="#3D5330"/>
<path d="M162.858 13.9998C162.758 14.1998 162.758 14.5998 162.558 14.7998C161.658 16.1998 160.458 17.2998 159.058 18.1998C158.758 18.3998 158.458 18.4998 158.158 18.1998C157.858 17.8998 158.058 17.5998 158.158 17.2998C158.858 15.8998 159.658 14.5998 160.658 13.4998C160.958 13.0998 161.358 12.8998 161.758 12.7998C162.358 12.6998 162.858 13.1998 162.858 13.9998Z" fill="#3D5330"/>
<path d="M163.258 11.8997C163.458 11.7997 163.758 11.3997 163.958 11.5997C164.158 11.8997 164.558 12.1997 164.658 12.4997C164.758 12.7997 164.358 12.9997 163.958 12.8997C163.558 12.7997 163.458 12.2997 163.258 11.8997Z" fill="#3D5330"/>
<path d="M163.258 11.9C163.058 11.9 162.558 12.5 162.558 11.8C162.558 11.4 162.758 11 163.258 11C163.558 11.3 163.258 11.6 163.258 11.9Z" fill="#3D5330"/>
</svg>
