<svg width="347" height="378" viewBox="0 0 347 378" fill="none" xmlns="http://www.w3.org/2000/svg">
<path d="M57.9669 228.541C57.9603 228.491 57.9585 228.512 57.9613 228.602C57.965 228.694 57.9309 228.536 57.8589 228.128C57.7861 227.722 57.7001 227.554 57.601 227.625C57.501 227.696 57.4641 227.73 57.4903 227.729C57.5155 227.729 57.524 227.73 57.5155 227.731C57.5062 227.732 57.4379 227.801 57.3109 227.938C57.1838 228.075 57.1268 228.137 57.1399 228.123C57.153 228.109 57.1557 228.106 57.1483 228.116C57.1417 228.125 57.06 228.225 56.903 228.416C56.746 228.608 56.6605 228.711 56.6465 228.727C56.6334 228.744 56.6343 228.751 56.6493 228.748C56.6652 228.744 56.661 228.753 56.6367 228.773C56.6133 228.794 56.5867 228.888 56.5568 229.055C56.5269 229.223 56.4297 229.37 56.2652 229.496C56.1007 229.622 56.012 230.084 55.9989 230.881C55.9858 231.679 56.0115 232.322 56.076 232.81C56.1395 233.297 56.2283 233.645 56.3423 233.853C56.4554 234.061 56.5157 234.164 56.5231 234.162C56.5297 234.16 56.5287 234.171 56.5203 234.195C56.511 234.218 56.6362 234.419 56.896 234.799C57.1567 235.178 57.3454 235.424 57.4622 235.535C57.579 235.645 57.6828 235.741 57.7734 235.823C57.8641 235.906 58.043 236.053 58.3103 236.266C58.5766 236.479 58.7158 236.587 58.728 236.591C58.7392 236.593 58.7551 236.607 58.7756 236.631C58.7971 236.654 58.7649 236.631 58.6789 236.56C58.593 236.489 58.8915 236.849 59.5746 237.64C60.2568 238.43 60.7791 239.052 61.1417 239.506C61.5042 239.959 61.8524 240.34 62.186 240.65C62.5205 240.958 62.9157 241.301 63.3718 241.679C63.8287 242.057 64.3273 242.381 64.8674 242.653C65.4075 242.925 65.9032 243.166 66.3546 243.377C66.805 243.589 67.3128 243.843 67.8782 244.138C68.4426 244.434 68.9033 244.636 69.2603 244.744C69.6172 244.851 69.8975 244.965 70.1012 245.085C70.304 245.206 70.4064 245.263 70.4082 245.256C70.4101 245.248 70.3984 245.242 70.3732 245.236C70.3489 245.23 70.3606 245.235 70.4082 245.253C70.4559 245.271 70.4521 245.267 70.397 245.243C70.3419 245.219 70.4152 245.25 70.6171 245.335C70.818 245.421 70.9694 245.488 71.0712 245.537C71.1722 245.586 71.2861 245.642 71.4132 245.703C71.5403 245.766 71.6856 245.835 71.8492 245.912C72.0127 245.989 72.093 246.028 72.0902 246.029C72.0865 246.031 72.08 246.028 72.0706 246.021C72.0613 246.013 72.0655 246.008 72.0832 246.004C72.101 246 72.344 246.107 72.8121 246.323C73.2812 246.538 73.4821 246.634 73.4148 246.611C73.3485 246.589 73.8284 246.775 74.8544 247.169C75.8814 247.563 76.7326 247.879 77.4082 248.118C78.0829 248.355 78.6151 248.587 79.0048 248.813C79.3944 249.037 79.7355 249.173 80.028 249.221C80.3205 249.269 80.6106 249.332 80.8984 249.411C81.1872 249.492 81.2694 249.522 81.1451 249.502C81.0208 249.484 81.4283 249.595 82.3674 249.835C83.3056 250.077 84.2363 250.293 85.1596 250.483C86.0819 250.673 86.7136 250.836 87.0546 250.972C87.3948 251.108 88.2264 251.281 89.5496 251.493C90.8719 251.705 92.0414 251.845 93.0581 251.911C94.0738 251.977 94.8831 252.048 95.4858 252.122C96.0885 252.196 96.5174 252.227 96.7725 252.216C97.0276 252.206 97.5902 252.261 98.4602 252.381C99.3311 252.502 100.062 252.626 100.652 252.754C101.244 252.882 101.823 253.021 102.389 253.171C102.956 253.322 103.401 253.432 103.723 253.501C104.046 253.569 104.455 253.634 104.951 253.694C105.448 253.754 105.952 253.823 106.464 253.901C106.976 253.98 107.399 254.065 107.732 254.157C108.067 254.25 109.081 254.367 110.774 254.51C112.466 254.652 113.686 254.742 114.434 254.78C115.18 254.817 116.277 254.928 117.724 255.113C119.169 255.298 120.454 255.441 121.578 255.542C122.703 255.643 124.213 255.768 126.108 255.917C128.004 256.067 129.55 256.221 130.744 256.38C131.938 256.539 133.161 256.638 134.412 256.676C135.664 256.715 137.042 256.812 138.544 256.969C140.048 257.124 141.162 257.261 141.887 257.377C142.611 257.493 143.254 257.622 143.816 257.766C144.377 257.91 145.092 258.049 145.963 258.183C146.833 258.317 147.753 258.43 148.723 258.521C149.693 258.613 150.551 258.678 151.295 258.719C152.04 258.76 152.59 258.78 152.944 258.78C153.299 258.78 153.678 258.785 154.082 258.794C154.486 258.803 154.825 258.802 155.099 258.789C155.374 258.775 155.569 258.767 155.683 258.765C155.797 258.762 156.033 258.753 156.392 258.737C156.751 258.721 156.925 258.714 156.915 258.717C156.904 258.721 156.913 258.721 156.941 258.719C156.968 258.717 157.003 258.716 157.044 258.717C157.085 258.717 157.191 258.729 157.362 258.754C157.533 258.778 158.08 258.75 159.003 258.67C159.926 258.588 160.707 258.482 161.347 258.349C161.987 258.217 162.432 258.129 162.683 258.085C162.933 258.041 163.156 257.982 163.353 257.907C163.55 257.832 163.642 257.798 163.629 257.807C163.616 257.815 163.604 257.817 163.594 257.812C163.583 257.808 163.607 257.802 163.665 257.795C163.722 257.788 163.882 257.657 164.146 257.404C164.41 257.149 164.534 257.008 164.519 256.981C164.504 256.953 164.491 256.92 164.48 256.882C164.468 256.845 164.465 256.804 164.468 256.76C164.471 256.716 164.411 256.608 164.288 256.436C164.165 256.262 164.058 256.156 163.965 256.116C163.873 256.075 163.821 256.057 163.81 256.061C163.799 256.064 163.667 255.982 163.412 255.816C163.156 255.65 163.018 255.548 162.995 255.509C162.973 255.469 162.92 255.413 162.835 255.341C162.751 255.269 162.546 255.048 162.219 254.678C161.892 254.308 161.792 254.203 161.919 254.363C162.046 254.523 161.893 254.402 161.459 253.999C161.026 253.596 160.717 253.261 160.53 252.993C160.343 252.726 160.172 252.477 160.017 252.245C159.862 252.014 159.831 251.93 159.924 251.992C160.018 252.055 159.832 251.729 159.366 251.016C158.901 250.301 158.507 249.739 158.183 249.329C157.86 248.919 157.65 248.682 157.552 248.617C157.454 248.553 157.323 248.44 157.159 248.278C156.993 248.116 156.853 247.996 156.738 247.919C156.624 247.841 156.495 247.732 156.35 247.593C156.206 247.454 156.121 247.364 156.096 247.323C156.071 247.282 156.069 247.27 156.09 247.287C156.112 247.303 156.105 247.309 156.069 247.303C156.034 247.299 156.04 247.303 156.086 247.315C156.134 247.327 156.123 247.31 156.054 247.266C155.985 247.221 155.433 246.903 154.397 246.312C153.362 245.721 152.464 245.197 151.703 244.737C150.942 244.277 150.397 243.941 150.07 243.728C149.742 243.516 149.509 243.386 149.371 243.339C149.233 243.293 149.076 243.236 148.9 243.169C148.724 243.101 148.523 243.021 148.297 242.93C148.072 242.838 147.935 242.768 147.886 242.718C147.838 242.668 147.753 242.598 147.631 242.507C147.51 242.416 147.428 242.346 147.385 242.299C147.342 242.251 147.318 242.228 147.315 242.229C147.312 242.231 147.342 242.217 147.404 242.188C147.468 242.16 146.539 241.61 144.618 240.538C142.696 239.465 141.183 238.57 140.076 237.852C138.97 237.133 138.028 236.509 137.25 235.981C136.472 235.453 135.588 234.829 134.6 234.108C133.61 233.387 132.314 232.644 130.712 231.88C129.109 231.115 127.937 230.574 127.196 230.257C126.456 229.939 125.711 229.581 124.962 229.184C124.212 228.788 123.634 228.439 123.227 228.138C122.819 227.838 122.319 227.468 121.725 227.027C121.132 226.589 120.299 226.044 119.228 225.392C118.156 224.741 117.187 224.128 116.32 223.552C115.453 222.975 114.603 222.551 113.769 222.279C112.937 222.006 112.193 221.755 111.538 221.523C110.882 221.293 110.36 221.112 109.972 220.979C109.584 220.847 109.318 220.762 109.173 220.725C109.029 220.687 108.967 220.67 108.987 220.672C109.006 220.673 108.904 220.616 108.678 220.499C108.452 220.382 107.894 220.041 107.002 219.477C106.112 218.913 105.517 218.545 105.219 218.372C104.922 218.2 104.347 217.895 103.495 217.459C102.643 217.023 101.883 216.664 101.216 216.382C100.549 216.099 99.9231 215.844 99.339 215.615C98.755 215.387 98.298 215.217 97.9682 215.107C97.6383 214.996 97.5075 214.964 97.5757 215.009C97.6439 215.055 97.2827 214.906 96.4922 214.561C95.7016 214.216 94.7471 213.829 93.6285 213.399C92.5109 212.97 91.655 212.648 91.0607 212.433C90.4663 212.219 90.0146 212.046 89.7053 211.917C89.395 211.786 89.1142 211.667 88.8628 211.56C88.6105 211.453 88.4675 211.389 88.4339 211.367C88.4003 211.347 88.3718 211.334 88.3484 211.328C88.325 211.321 88.2073 211.256 87.9952 211.131C87.7831 211.007 87.6569 210.938 87.6167 210.925C87.5756 210.913 87.571 210.923 87.6027 210.956C87.6354 210.989 87.5415 210.901 87.321 210.694C87.0995 210.487 86.3482 210.274 85.067 210.055C83.785 209.837 82.8033 209.695 82.1221 209.629C81.44 209.561 80.9433 209.524 80.6321 209.515C80.32 209.506 80.0168 209.519 79.7224 209.554C79.4281 209.59 79.2809 209.606 79.2809 209.602C79.2809 209.599 79.0515 209.59 78.5927 209.575C78.1339 209.559 77.7218 209.544 77.3564 209.529C76.991 209.513 76.8448 209.504 76.9177 209.5C76.9896 209.496 76.8382 209.505 76.4635 209.528C76.0878 209.55 75.7318 209.567 75.3954 209.577C75.059 209.587 74.7628 209.603 74.5067 209.624C74.2498 209.646 73.9863 209.671 73.7162 209.701C73.4461 209.731 73.234 209.754 73.0798 209.771C72.9256 209.788 72.7318 209.803 72.4982 209.817C72.2655 209.831 72.2384 209.826 72.4168 209.802C72.5953 209.778 72.1421 209.815 71.0572 209.915C69.9723 210.016 69.0673 210.165 68.3422 210.361C67.6161 210.558 67.018 210.8 66.548 211.087C66.077 211.376 65.7444 211.557 65.55 211.633C65.3556 211.708 65.1636 211.804 64.9739 211.92C64.7842 212.036 64.6417 212.121 64.5464 212.176C64.4511 212.229 64.3833 212.267 64.3431 212.292C64.3029 212.317 64.2754 212.335 64.2604 212.345C64.2445 212.354 64.139 212.446 63.9437 212.619C63.7474 212.792 63.6175 212.903 63.554 212.951C63.4895 212.997 63.3862 213.082 63.2442 213.207C63.1031 213.33 63.0115 213.42 62.9695 213.476C62.9265 213.533 62.941 213.511 63.0129 213.409C63.0858 213.308 62.919 213.522 62.5125 214.051C62.107 214.58 61.7926 215.007 61.5692 215.331C61.3459 215.656 61.1417 215.932 60.9567 216.159C60.7716 216.388 60.6249 216.617 60.5165 216.847C60.4072 217.079 60.3451 217.218 60.3301 217.266C60.3152 217.313 59.9989 217.894 59.3812 219.007C58.7635 220.12 58.3084 221.024 58.0159 221.719C57.7235 222.414 57.5282 222.966 57.43 223.374C57.331 223.782 57.2567 224.082 57.2072 224.272C57.1576 224.461 57.1273 224.604 57.1161 224.7C57.1048 224.795 57.1053 224.811 57.1174 224.749C57.1286 224.685 57.1081 224.777 57.0558 225.023C57.0044 225.268 56.9553 225.54 56.9086 225.837C56.8628 226.135 56.8119 226.381 56.7558 226.577C56.7007 226.773 56.6866 226.862 56.7137 226.844C56.7408 226.826 56.7343 226.951 56.6941 227.22C56.6549 227.49 56.6217 227.617 56.5946 227.601C56.5675 227.585 56.5255 227.82 56.4685 228.306C56.4115 228.791 56.4231 229.26 56.5035 229.713C56.5848 230.166 56.6222 230.505 56.6156 230.728C56.6081 230.952 56.6245 231.129 56.6647 231.259C56.7049 231.387 56.7689 231.526 56.8567 231.675C56.9455 231.825 56.9843 231.896 56.9731 231.889C56.9618 231.884 56.9983 231.939 57.0824 232.054C57.1665 232.171 57.2422 232.278 57.3095 232.375C57.3768 232.472 57.4038 232.515 57.3908 232.503C57.3777 232.491 57.3744 232.482 57.381 232.474C57.3875 232.467 57.3926 232.479 57.3964 232.512C57.4001 232.544 57.3875 232.625 57.3586 232.755C57.3296 232.887 57.2898 232.977 57.2394 233.025" stroke="#3D5330" stroke-width="4" stroke-linecap="round" stroke-linejoin="round"/>
<path d="M54.7528 226.924C54.7836 226.915 54.8214 226.903 54.8663 226.889C54.9121 226.875 54.8243 226.922 54.6028 227.03C54.3813 227.138 54.2841 227.197 54.3112 227.205C54.3383 227.212 54.3528 227.211 54.3547 227.199C54.3566 227.188 54.3453 227.195 54.321 227.219C54.2958 227.244 54.2094 227.316 54.0617 227.433C53.9131 227.551 53.8309 227.619 53.815 227.636C53.7992 227.652 53.816 227.637 53.8655 227.591C53.916 227.545 53.8482 227.624 53.6622 227.826C53.4763 228.029 53.2436 228.258 52.9642 228.513C52.6848 228.767 52.4372 229 52.2213 229.212C52.0045 229.423 51.8601 229.554 51.7882 229.607C51.7162 229.66 51.6653 229.708 51.6354 229.752C51.6065 229.795 51.4691 229.93 51.2233 230.156C50.9785 230.383 50.5561 230.75 49.9562 231.259C49.3563 231.767 48.7732 232.26 48.2069 232.737C47.6406 233.215 47.1075 233.618 46.6076 233.944C46.1076 234.271 45.6091 234.59 45.112 234.901C44.6158 235.21 44.0359 235.534 43.3725 235.872C42.7099 236.209 41.6858 236.637 40.3 237.156C38.9151 237.675 36.7626 238.186 33.8424 238.687C30.9213 239.189 28.202 239.494 25.6846 239.602C23.1672 239.71 21.3324 239.758 20.1802 239.745C19.0271 239.732 18.2771 239.698 17.9305 239.644C17.5838 239.591 16.9512 239.488 16.0326 239.336C15.115 239.184 14.4529 239.116 14.0464 239.131C13.6399 239.146 12.7386 239.012 11.3426 238.728C9.94741 238.443 8.90127 238.125 8.20417 237.772C7.50799 237.42 7.13705 237.218 7.09126 237.167C7.04547 237.115 7.54537 236.698 8.59103 235.916C9.63576 235.134 10.4259 234.48 10.9613 233.955C11.4967 233.43 12.0173 232.906 12.5228 232.382C13.0274 231.857 13.4498 231.427 13.7899 231.092C14.1291 230.758 14.4178 230.477 14.6561 230.25C14.8944 230.023 15.2378 229.707 15.6864 229.302C16.1359 228.896 16.8269 228.383 17.7595 227.762C18.693 227.141 19.406 226.653 19.8985 226.299C20.39 225.944 21.4548 225.216 23.0929 224.112C24.7301 223.01 26.5289 222.095 28.4894 221.368C30.4489 220.64 31.8749 220.126 32.7673 219.828C33.6597 219.529 34.6339 219.3 35.6898 219.141C36.7458 218.983 38.1321 218.933 39.8487 218.992C41.5662 219.05 43.0688 219.144 44.3565 219.273C45.6451 219.401 46.7762 219.518 47.7499 219.622C48.7237 219.727 49.8843 220.028 51.2317 220.526C52.5792 221.024 53.6155 221.58 54.3407 222.195C55.0649 222.809 55.4078 223.102 55.3695 223.074C55.3312 223.046 55.2728 223 55.1943 222.939C55.1167 222.876 55.0452 222.811 54.9798 222.743C54.9154 222.675 54.842 222.615 54.7598 222.563" stroke="#3D5330" stroke-width="4" stroke-linecap="round" stroke-linejoin="round"/>
<path d="M54.0337 222.357C53.9833 222.406 53.9449 222.443 53.9188 222.468C53.8936 222.492 53.9323 222.536 54.0351 222.599C54.1389 222.662 54.1767 222.687 54.1487 222.672C54.1216 222.657 54.1113 222.651 54.1178 222.654C54.1244 222.657 54.015 222.617 53.7898 222.533C53.5655 222.449 53.4721 222.415 53.5095 222.43C53.5478 222.445 53.4693 222.418 53.274 222.35C53.0787 222.282 52.6774 222.056 52.07 221.672C51.4635 221.288 50.6445 220.858 49.6128 220.381C48.5802 219.903 47.3982 219.341 46.0666 218.694C44.734 218.046 43.4253 217.458 42.1404 216.931C40.8546 216.405 39.6744 215.889 38.5997 215.383C37.5242 214.877 36.1029 213.409 34.3358 210.981C32.5678 208.552 31.1017 206.573 29.9373 205.045C28.7721 203.517 27.619 201.426 26.478 198.774C25.337 196.122 24.1717 193.61 22.9821 191.237C21.7917 188.863 20.8301 187.145 20.0975 186.082C19.3658 185.018 18.7864 184.158 18.3594 183.502C17.9323 182.845 17.6936 181.848 17.6431 180.51C17.5917 179.172 17.5188 178.213 17.4245 177.635C17.3292 177.057 17.2759 176.784 17.2647 176.817C17.2535 176.85 17.1894 177.205 17.0726 177.883C16.9568 178.561 16.8694 178.964 16.8105 179.093" stroke="#3D5330" stroke-width="4" stroke-linecap="round" stroke-linejoin="round"/>
<path d="M56.3887 222.16C56.4962 222.079 56.5802 221.642 56.641 220.849C56.7017 220.057 56.7186 219.397 56.6915 218.869C56.6653 218.34 56.634 217.998 56.5975 217.842C56.5611 217.685 56.5181 217.246 56.4686 216.524C56.42 215.803 56.2855 214.708 56.0649 213.24C55.8453 211.771 55.6743 210.618 55.5519 209.778C55.4295 208.939 55.1576 207.952 54.7361 206.816C54.3138 205.68 53.7395 204.399 53.0135 202.972C52.2874 201.545 51.6482 200.408 51.0959 199.561C50.5446 198.713 49.6405 197.671 48.3837 196.436C47.1268 195.2 45.9709 193.832 44.9159 192.33C43.8609 190.829 43.0764 189.641 42.5625 188.767C42.0495 187.891 41.1963 187.046 40.003 186.231C38.8106 185.416 37.7865 184.787 36.9305 184.344C36.0755 183.901 35.1013 183.508 34.008 183.165C32.9137 182.821 31.948 182.509 31.1107 182.23C30.2744 181.951 29.6469 181.742 29.2283 181.601C28.8105 181.46 28.2171 181.24 27.4481 180.939C26.68 180.638 25.9628 180.43 25.2965 180.315C24.6293 180.201 23.9747 180.099 23.3327 180.01C22.6908 179.921 22.3315 179.897 22.2549 179.939C22.1782 179.98 21.9114 179.982 21.4545 179.945C20.9985 179.907 20.7037 179.865 20.57 179.817C20.4364 179.77 20.2271 179.716 19.9421 179.657C19.6571 179.597 19.4898 179.555 19.4403 179.532C19.3907 179.509 19.4075 179.507 19.4907 179.525C19.5748 179.544 19.5085 179.535 19.2917 179.5C19.0749 179.465 18.838 179.42 18.581 179.363C18.3241 179.305 18.0241 179.191 17.6812 179.021" stroke="#3D5330" stroke-width="4" stroke-linecap="round" stroke-linejoin="round"/>
<path d="M68.7388 239.667C68.7668 239.586 68.7846 239.689 68.792 239.977C68.7986 240.264 68.8374 240.389 68.9084 240.353C68.9794 240.316 69.0107 240.472 69.0023 240.819C68.9948 241.166 69.0009 241.344 69.0205 241.354C69.0401 241.366 69.0799 241.386 69.1397 241.417C69.1985 241.449 69.2228 241.475 69.2125 241.494C69.2022 241.514 69.192 241.533 69.1817 241.553C69.1714 241.573 69.1934 241.585 69.2476 241.589C69.3018 241.594 69.3083 241.606 69.2672 241.626C69.2261 241.646 69.2289 241.656 69.2756 241.656C69.3214 241.656 69.4083 241.628 69.5363 241.571C69.6634 241.515 69.7433 241.479 69.776 241.462C69.8078 241.445 69.8157 241.44 69.7998 241.445C69.7839 241.45 69.7774 241.452 69.7802 241.451C69.7821 241.451 69.7709 241.467 69.7466 241.5C69.7223 241.533 69.7251 241.532 69.755 241.497C69.784 241.462 69.854 241.369 69.9652 241.219C70.0764 241.069 70.1806 240.924 70.2778 240.784C70.3741 240.644 70.4198 240.553 70.4152 240.511C70.4096 240.47 70.4073 240.496 70.4082 240.589C70.4082 240.684 70.5259 240.442 70.7614 239.866C70.9959 239.29 71.1609 238.769 71.2562 238.305C71.3524 237.84 71.4538 237.419 71.5604 237.042C71.6678 236.665 71.7697 236.324 71.8659 236.02C71.9622 235.715 72.0094 235.544 72.0075 235.509C72.0047 235.473 72.0056 235.47 72.0103 235.502C72.015 235.535 72.0374 235.357 72.0776 234.97C72.1178 234.584 72.5677 233.236 73.4274 230.927" stroke="#3D5330" stroke-width="4" stroke-linecap="round" stroke-linejoin="round"/>
<path d="M99.1622 231.321C99.0435 231.495 98.923 231.69 98.8006 231.906C98.6781 232.122 98.6212 232.231 98.6296 232.232C98.6371 232.233 98.638 232.227 98.6324 232.215C98.6277 232.204 98.6184 232.223 98.6043 232.271C98.5913 232.32 98.5758 232.373 98.5581 232.428C98.5403 232.483 98.5333 232.499 98.5371 232.478C98.5417 232.457 98.5132 232.503 98.4515 232.618C98.3908 232.733 98.3852 232.722 98.4347 232.587C98.4843 232.452 98.6403 231.924 98.9029 231.004C99.1655 230.084 99.3538 229.342 99.4678 228.778C99.5827 228.214 99.6916 227.806 99.7944 227.554C99.8962 227.303 100.02 227.035 100.164 226.75C100.309 226.466 100.527 225.906 100.816 225.072C101.107 224.238 101.369 223.518 101.603 222.912C101.837 222.307 102.039 221.857 102.209 221.562C102.38 221.267 102.456 221.13 102.438 221.153C102.42 221.175 102.422 221.148 102.444 221.071C102.464 220.995 102.493 220.895 102.529 220.772C102.565 220.649 102.581 220.604 102.575 220.636C102.57 220.67 102.571 220.672 102.578 220.642C102.587 220.613 102.581 220.628 102.561 220.687C102.542 220.746 102.543 220.741 102.565 220.67C102.588 220.6 102.637 220.463 102.711 220.26C102.786 220.058 102.787 220.059 102.713 220.264C102.639 220.47 102.529 220.77 102.383 221.162C102.237 221.555 102.054 222.082 101.837 222.743C101.619 223.404 101.51 223.728 101.509 223.714C101.507 223.7 101.307 224.447 100.909 225.957C100.512 227.466 100.149 228.791 99.821 229.931C99.4939 231.071 99.0814 232.585 98.5833 234.471" stroke="#3D5330" stroke-width="4" stroke-linecap="round" stroke-linejoin="round"/>
<path d="M71.1512 241.943C70.8624 242.329 70.6325 242.655 70.4615 242.922C70.2914 243.188 70.141 243.361 70.0101 243.438C69.8793 243.516 69.7663 243.607 69.671 243.709C69.5766 243.812 69.5812 243.805 69.685 243.69C69.7887 243.574 69.8447 243.506 69.8532 243.485C69.8606 243.465 69.8695 243.448 69.8798 243.434C69.8892 243.42 69.8789 243.442 69.849 243.502C69.82 243.561 69.9373 243.322 70.2008 242.786C70.4653 242.251 70.6811 241.806 70.8484 241.452C71.0147 241.098 71.1278 240.79 71.1876 240.528C71.2474 240.266 71.3016 240.033 71.3502 239.828C71.3997 239.623 71.4628 239.424 71.5394 239.233C71.616 239.043 71.7324 238.297 71.8884 236.994C72.0454 235.69 72.1384 234.979 72.1673 234.859" stroke="#3D5330" stroke-width="4" stroke-linecap="round" stroke-linejoin="round"/>
<path d="M117.474 250.304C117.469 250.397 117.487 250.378 117.529 250.247C117.57 250.116 117.537 250.302 117.429 250.803C117.321 251.305 117.263 251.457 117.257 251.259C117.251 251.061 117.541 250.283 118.125 248.925C118.709 247.567 119.174 246.644 119.519 246.155C119.865 245.668 120.133 245.19 120.324 244.723C120.514 244.257 120.9 243.413 121.482 242.191" stroke="#3D5330" stroke-width="4" stroke-linecap="round" stroke-linejoin="round"/>
<path d="M117.037 253.244C116.967 253.262 116.855 253.422 116.7 253.725C116.544 254.027 116.491 254.067 116.54 253.843C116.59 253.62 116.614 253.524 116.613 253.556C116.611 253.588 116.612 253.598 116.615 253.587C116.618 253.576 116.623 253.579 116.627 253.597C116.632 253.615 116.654 253.541 116.693 253.374C116.732 253.208 117.15 252.122 117.946 250.115C118.742 248.109 119.396 246.475 119.907 245.213C120.417 243.95 120.724 243.006 120.827 242.382C120.929 241.757 120.98 241.389 120.979 241.279" stroke="#3D5330" stroke-width="4" stroke-linecap="round" stroke-linejoin="round"/>
<path d="M119.791 244.935C119.773 244.76 119.764 245.049 119.764 245.801C119.764 246.554 119.716 247.667 119.621 249.142C119.526 250.615 119.43 251.715 119.334 252.441C119.237 253.167 119.158 253.609 119.098 253.767C119.039 253.926 119.012 254.077 119.016 254.222C119.02 254.365 118.875 254.474 118.58 254.548C118.284 254.621 118.1 254.647 118.027 254.626" stroke="#3D5330" stroke-width="4" stroke-linecap="round" stroke-linejoin="round"/>
<path d="M297.435 192.786C297.456 192.85 297.492 192.91 297.544 192.964C297.597 193.019 297.657 193.023 297.725 192.976C297.794 192.93 297.823 192.907 297.814 192.909C297.804 192.91 297.803 192.899 297.809 192.877C297.817 192.856 297.816 192.867 297.807 192.912C297.797 192.958 297.835 192.872 297.92 192.653C298.005 192.434 298.069 192.253 298.112 192.109C298.155 191.966 298.185 191.897 298.2 191.901C298.216 191.905 298.245 191.855 298.287 191.748C298.329 191.642 298.406 191.467 298.516 191.224C298.627 190.981 298.618 190.566 298.489 189.977C298.36 189.389 298.233 188.964 298.108 188.702C297.982 188.439 297.847 188.144 297.703 187.816C297.558 187.488 297.408 187.2 297.253 186.952C297.098 186.703 296.98 186.502 296.898 186.348C296.817 186.194 296.724 186.033 296.618 185.864C296.512 185.696 296.442 185.597 296.406 185.566C296.372 185.536 296.39 185.545 296.462 185.594C296.534 185.643 296.449 185.525 296.207 185.239C295.964 184.953 295.773 184.728 295.633 184.563C295.491 184.399 295.377 184.261 295.289 184.15C295.2 184.039 295.137 183.979 295.099 183.97C295.061 183.962 294.875 183.879 294.541 183.721C294.205 183.563 294.074 183.493 294.148 183.51C294.221 183.527 294.109 183.512 293.812 183.466C293.515 183.42 293.195 183.236 292.854 182.914C292.514 182.592 292.24 182.418 292.033 182.391C291.825 182.364 291.724 182.353 291.732 182.36C291.738 182.367 291.651 182.374 291.47 182.379C291.288 182.385 290.974 182.259 290.526 182.002C290.08 181.745 289.786 181.607 289.646 181.588C289.506 181.57 289.376 181.552 289.258 181.533C289.138 181.515 289.011 181.484 288.875 181.441C288.74 181.397 288.681 181.376 288.7 181.377C288.718 181.377 288.73 181.388 288.733 181.412C288.736 181.435 288.655 181.367 288.49 181.209C288.323 181.05 288.106 180.895 287.838 180.744C287.571 180.593 287.344 180.484 287.159 180.416C286.975 180.348 286.893 180.318 286.913 180.328C286.931 180.338 286.954 180.328 286.98 180.298C287.005 180.268 286.769 180.249 286.272 180.241C285.775 180.233 285.247 180.215 284.687 180.186C284.128 180.156 283.733 180.118 283.501 180.072C283.269 180.024 283.095 180.012 282.98 180.037C282.863 180.062 282.81 180.077 282.821 180.081C282.832 180.086 282.725 180.151 282.5 180.276C282.274 180.401 281.504 180.589 280.19 180.84C278.876 181.09 277.742 181.289 276.787 181.437C275.833 181.584 275.107 181.761 274.61 181.967C274.113 182.173 273.77 182.364 273.583 182.539C273.395 182.715 273.222 182.888 273.064 183.056C272.906 183.226 272.849 183.281 272.892 183.222C272.935 183.161 272.858 183.209 272.663 183.366C272.468 183.521 272.226 183.749 271.937 184.05C271.649 184.35 271.538 184.465 271.602 184.396C271.667 184.327 271.587 184.399 271.362 184.612C271.138 184.825 270.895 185.049 270.634 185.286C270.372 185.524 270.148 185.765 269.961 186.011C269.775 186.257 269.612 186.479 269.471 186.678C269.332 186.877 269.165 187.063 268.971 187.236C268.778 187.408 268.636 187.479 268.546 187.45C268.456 187.421 268.347 187.375 268.22 187.313C268.093 187.25 267.99 187.294 267.911 187.446C267.833 187.597 267.62 187.953 267.274 188.514C267.168 189.107 266.745 189.755 266.004 190.459C265.263 191.163 264.767 191.705 264.518 192.087C264.268 192.467 264.095 192.771 263.996 192.997C263.898 193.223 263.803 193.406 263.711 193.547C263.617 193.689 263.534 193.835 263.461 193.985C263.388 194.135 263.261 194.437 263.08 194.891C262.898 195.345 262.755 196.095 262.648 197.139C262.542 198.183 262.48 198.998 262.464 199.583C262.448 200.167 262.4 200.519 262.322 200.639C262.241 200.758 262.186 200.999 262.155 201.362C262.124 201.724 262.11 201.937 262.113 202.002C262.115 202.068 262.12 202.083 262.127 202.047C262.131 202.012 262.106 202.087 262.05 202.274C261.992 202.46 261.945 202.806 261.909 203.312C261.873 203.818 261.873 204.216 261.911 204.506C261.947 204.795 261.972 205.041 261.985 205.242C261.998 205.443 261.997 205.545 261.981 205.547C261.965 205.55 261.914 205.879 261.827 206.534C261.741 207.191 261.737 208.291 261.815 209.835C261.894 211.38 262.058 213.035 262.309 214.798C262.557 216.562 262.915 218.398 263.383 220.305C263.85 222.212 264.346 223.964 264.873 225.561C265.427 227.16 265.839 228.284 266.109 228.934C266.379 229.583 266.75 230.503 267.222 231.695C267.695 232.887 268.204 233.985 268.75 234.992C269.295 235.998 269.743 236.726 270.092 237.176C270.443 237.627 270.682 237.923 270.811 238.065C270.953 238.205 271.375 238.61 272.077 239.279C272.792 239.945 273.35 240.459 273.751 240.819C274.152 241.18 274.365 241.402 274.39 241.485C274.415 241.569 274.749 241.945 275.392 242.615C276.035 243.283 276.621 243.826 277.148 244.241C277.676 244.657 278.091 244.91 278.392 245C278.694 245.09 279.061 245.19 279.494 245.3C279.925 245.409 280.588 245.502 281.483 245.577C282.378 245.654 283.073 245.663 283.57 245.604C284.066 245.545 284.455 245.507 284.736 245.489C285.017 245.471 285.235 245.474 285.389 245.497C285.542 245.521 286.25 245.404 287.513 245.148C288.774 244.891 290.095 244.428 291.475 243.758C292.855 243.087 294.179 242.27 295.446 241.307C296.713 240.343 297.366 239.83 297.404 239.768C297.444 239.707 297.273 239.842 296.894 240.174C296.515 240.505 296.31 240.661 296.28 240.641C296.25 240.621 296.22 240.601 296.19 240.581C296.161 240.561 296.294 240.693 296.59 240.978C296.886 241.264 296.934 241.327 296.734 241.167C296.534 241.007 296.73 241.086 297.322 241.405C297.914 241.724 298.408 241.987 298.803 242.195C299.198 242.404 299.485 242.599 299.664 242.78C299.842 242.961 300.103 243.187 300.445 243.458C300.788 243.73 301.114 243.974 301.424 244.19C301.735 244.404 301.97 244.565 302.129 244.674C302.287 244.782 302.47 244.902 302.679 245.033C302.887 245.165 302.984 245.229 302.969 245.227C302.954 245.226 302.971 245.245 303.021 245.285C303.071 245.324 303.226 245.421 303.485 245.576C303.745 245.731 303.862 245.792 303.838 245.76C303.815 245.73 303.974 245.814 304.316 246.014C304.659 246.214 304.96 246.458 305.219 246.747C305.477 247.034 305.951 247.303 306.639 247.555C307.326 247.807 307.889 247.958 308.326 248.01C308.763 248.061 309.057 248.082 309.211 248.074C309.365 248.066 309.556 248.058 309.785 248.05C310.014 248.043 310.103 248.036 310.05 248.029C309.999 248.022 310.002 248.018 310.059 248.018C310.116 248.018 310.141 248.016 310.136 248.011C310.131 248.007 310.1 248.006 310.042 248.007C309.985 248.007 310.184 248.005 310.639 248C311.094 247.995 311.607 247.954 312.178 247.875C312.749 247.797 313.165 247.725 313.426 247.66C313.686 247.595 313.869 247.557 313.974 247.548C314.077 247.539 314.12 247.527 314.103 247.513C314.085 247.5 314.057 247.513 314.02 247.551C313.983 247.59 314.347 247.5 315.112 247.282C315.876 247.063 316.515 246.829 317.029 246.58C317.544 246.33 317.914 246.133 318.138 245.988C318.361 245.843 318.487 245.764 318.515 245.752C318.543 245.741 318.531 245.73 318.477 245.719C318.425 245.708 318.64 245.621 319.122 245.457C319.604 245.294 320.533 244.616 321.909 243.425C323.284 242.234 324.31 241.287 324.987 240.584C325.663 239.882 326.236 239.192 326.704 238.514C327.172 237.836 327.937 236.678 329 235.039C330.061 233.401 330.825 232.231 331.29 231.53C331.756 230.828 332.204 230.098 332.634 229.341C333.064 228.584 333.382 227.973 333.589 227.51C333.795 227.047 333.933 226.7 334.001 226.468C334.07 226.235 334.158 226 334.266 225.763C334.373 225.524 334.444 225.363 334.479 225.28C334.513 225.197 334.52 225.172 334.5 225.203C334.479 225.235 334.505 225.166 334.576 224.998C334.648 224.83 335.034 223.911 335.735 222.242C336.435 220.573 336.974 219.166 337.354 218.021C337.733 216.876 337.973 216.054 338.074 215.556C338.175 215.058 338.298 214.558 338.441 214.055C338.586 213.552 338.738 212.661 338.897 211.382C339.057 210.104 339.143 208.48 339.156 206.512C339.17 204.543 339.121 203.036 339.009 201.988C338.897 200.941 338.796 200.14 338.706 199.584C338.617 199.029 338.518 198.594 338.411 198.279C338.303 197.964 338.209 197.668 338.129 197.392C338.048 197.116 337.899 196.654 337.68 196.005C337.463 195.356 337.227 194.55 336.974 193.586C336.722 192.622 336.513 191.828 336.347 191.203C336.182 190.578 335.654 189.694 334.763 188.551C333.874 187.407 333.179 186.539 332.679 185.944C332.179 185.348 331.718 184.846 331.296 184.438C330.874 184.031 330.538 183.716 330.286 183.494C330.036 183.272 329.847 183.11 329.72 183.008C329.593 182.904 329.478 182.807 329.375 182.715C329.273 182.624 329.229 182.583 329.244 182.594C329.259 182.605 329.286 182.619 329.323 182.637C329.362 182.656 329.169 182.567 328.745 182.372C328.32 182.177 327.808 181.935 327.207 181.648C326.607 181.361 325.956 181.134 325.253 180.967C324.549 180.8 323.74 180.784 322.825 180.921C321.91 181.057 321.004 181.132 320.105 181.147C319.207 181.161 318.547 181.17 318.127 181.174C317.707 181.177 316.705 181.594 315.12 182.426C313.536 183.258 312.22 183.94 311.17 184.473C310.122 185.007 309.24 185.484 308.524 185.904C307.808 186.326 307.061 186.734 306.284 187.128C305.506 187.523 304.604 187.918 303.577 188.316C302.551 188.713 301.778 189.01 301.256 189.207C300.735 189.404 300.457 189.542 300.424 189.622C300.39 189.702 300.312 189.797 300.191 189.905C300.068 190.014 299.888 190.166 299.65 190.361C299.411 190.556 299.223 190.752 299.088 190.948C298.952 191.146 298.905 191.23 298.947 191.2C298.99 191.17 298.976 191.286 298.905 191.548C298.835 191.81 298.811 191.93 298.831 191.908C298.851 191.885 298.902 191.852 298.985 191.807C299.068 191.761 299.147 191.727 299.222 191.705" stroke="#3D5330" stroke-width="4" stroke-linecap="round" stroke-linejoin="round"/>
<path d="M300.721 186.053C300.577 186.306 300.474 186.478 300.414 186.569C300.352 186.66 300.349 186.681 300.405 186.634C300.462 186.586 300.493 186.559 300.498 186.554C300.503 186.549 300.517 186.539 300.54 186.524C300.562 186.51 300.602 186.46 300.66 186.375C300.717 186.289 300.787 186.143 300.869 185.937C300.951 185.73 300.989 185.615 300.983 185.593C300.977 185.571 300.977 185.597 300.983 185.67C300.987 185.744 301.042 185.075 301.145 183.664C301.249 182.253 301.291 180.621 301.271 178.767C301.253 176.913 301.149 175.126 300.96 173.404C300.771 171.684 300.661 170.136 300.631 168.759C300.6 167.384 300.732 166.378 301.028 165.741C301.323 165.104 301.5 164.705 301.56 164.545C301.621 164.384 301.563 164.746 301.388 165.63C301.211 166.514 301.03 167.784 300.844 169.439C300.658 171.095 300.521 172.496 300.433 173.641C300.345 174.787 300.264 175.981 300.189 177.223C300.115 178.465 300.072 179.58 300.06 180.567C300.049 181.555 300.048 182.394 300.056 183.084C300.065 183.774 300.09 184.301 300.133 184.664C300.175 185.029 300.236 185.336 300.316 185.586C300.394 185.836 300.424 185.917 300.407 185.829C300.389 185.742 300.423 185.866 300.509 186.203C300.595 186.539 300.671 186.851 300.737 187.139C300.804 187.426 300.827 187.525 300.808 187.435C300.787 187.346 300.843 187.022 300.974 186.466C301.106 185.909 301.19 185.555 301.225 185.403" stroke="#3D5330" stroke-width="4" stroke-linecap="round" stroke-linejoin="round"/>
<path d="M302.56 172.849C302.25 173.092 302.107 173.218 302.131 173.225C302.155 173.232 302.131 173.256 302.059 173.298C301.987 173.341 301.878 173.518 301.734 173.83C301.589 174.142 301.474 174.48 301.389 174.842C301.303 175.205 301.381 175.582 301.621 175.973C301.86 176.362 302.073 176.505 302.258 176.402C302.444 176.297 302.526 176.246 302.502 176.247C302.478 176.247 302.543 176.162 302.697 175.989C302.851 175.818 302.922 175.734 302.91 175.739C302.899 175.743 302.961 175.647 303.095 175.451C303.23 175.254 303.418 175.025 303.659 174.764C303.9 174.503 304.244 174.044 304.69 173.386C305.138 172.729 305.727 171.828 306.457 170.684C307.186 169.541 307.741 168.693 308.122 168.14C308.503 167.587 308.75 167.216 308.863 167.026C308.977 166.836 309.324 166.243 309.905 165.247C310.486 164.251 311.575 163.337 313.171 162.505C314.766 161.674 316.437 160.982 318.184 160.431C319.932 159.88 321.54 159.463 323.009 159.179C324.478 158.896 325.999 158.763 327.573 158.782C329.146 158.801 330.555 158.887 331.8 159.041C333.045 159.195 334.017 159.36 334.716 159.537C335.415 159.714 335.96 159.927 336.352 160.178C336.743 160.429 336.73 160.408 336.311 160.116C335.891 159.824 335.711 159.711 335.77 159.775C335.829 159.839 335.428 159.833 334.567 159.756C333.708 159.679 333.198 159.63 333.038 159.609" stroke="#3D5330" stroke-width="4" stroke-linecap="round" stroke-linejoin="round"/>
<path d="M301.44 176.301C301.376 176.249 301.293 176.21 301.19 176.183C301.088 176.156 301.035 176.165 301.03 176.208C301.026 176.253 301.198 176.389 301.548 176.617C301.896 176.844 302.198 176.946 302.454 176.923C302.71 176.9 302.766 176.899 302.624 176.922C302.498 176.947 303.594 176.833 305.912 176.579C308.248 176.327 310.241 176.171 311.892 176.111C313.543 176.05 315.66 175.693 318.243 175.041C320.825 174.387 322.775 173.849 324.094 173.428C325.413 173.006 326.312 172.738 326.791 172.622C327.27 172.506 328.108 172.299 329.305 172.002C330.503 171.706 331.468 171.353 332.198 170.945C332.929 170.538 333.603 170.079 334.221 169.569C334.84 169.06 335.386 168.513 335.86 167.929C336.333 167.345 336.668 166.908 336.863 166.62C337.059 166.331 337.179 166.101 337.221 165.929C337.262 165.758 337.31 165.523 337.366 165.224C337.422 164.926 337.468 164.688 337.504 164.511C337.54 164.333 337.551 163.98 337.537 163.452C337.523 162.923 337.518 162.596 337.522 162.472C337.526 162.347 337.519 162.155 337.502 161.897C337.486 161.637 337.449 161.398 337.389 161.179C337.329 160.96 337.285 160.768 337.258 160.603C337.23 160.437 337.223 160.36 337.237 160.372C337.25 160.385 337.254 160.388 337.247 160.382C337.24 160.376 337.249 160.268 337.277 160.059C337.304 159.849 337.316 159.754 337.313 159.773C337.309 159.794 337.309 159.81 337.313 159.821C337.316 159.831 337.303 159.841 337.275 159.85C337.247 159.859 337.477 159.788 337.963 159.638" stroke="#3D5330" stroke-width="4" stroke-linecap="round" stroke-linejoin="round"/>
<path d="M235.859 93.2999C235.885 93.3754 235.901 93.4122 235.905 93.4104C235.91 93.4094 235.98 93.4047 236.116 93.3964C236.251 93.388 236.324 93.3614 236.334 93.3166C236.344 93.2709 236.349 93.2486 236.348 93.2495C236.347 93.2495 236.348 93.2542 236.35 93.2635C236.351 93.2719 236.361 93.2113 236.379 93.0817C236.396 92.9521 236.424 92.7744 236.463 92.5488C236.503 92.3222 236.529 92.1384 236.539 91.9976C236.549 91.8568 236.568 91.7156 236.595 91.5738C236.622 91.4312 236.634 91.2414 236.63 91.0046C236.626 90.7686 236.632 90.1671 236.647 89.2001C236.661 88.2332 236.629 87.35 236.551 86.5509C236.474 85.7517 236.395 85.1285 236.315 84.6809C236.235 84.2333 236.2 83.809 236.208 83.408C236.217 83.0061 236.184 82.6275 236.107 82.2722C235.959 82.0577 235.772 81.8703 235.544 81.7099C235.316 81.5496 235.109 81.3709 234.923 81.1741C234.737 80.9774 234.26 80.8325 233.492 80.7393C232.722 80.646 232.049 80.5801 231.47 80.5419C230.891 80.5046 230.167 80.4544 229.299 80.3909C228.429 80.3266 226.493 80.2179 223.492 80.065C220.486 79.9093 218.211 79.7872 216.669 79.6986C215.127 79.6091 213.687 79.5814 212.35 79.6159C211.014 79.6495 209.736 79.691 208.518 79.7404C207.3 79.7898 206.382 79.8136 205.763 79.8118C205.144 79.809 204.441 79.8137 203.655 79.8258C202.869 79.837 201.703 79.8808 200.155 79.9573C198.607 80.0337 197.337 80.0971 196.344 80.1475C195.351 80.1978 194.42 80.2435 193.552 80.2846C192.683 80.3256 191.734 80.3588 190.707 80.3839C189.679 80.4101 188.724 80.4626 187.841 80.5419C186.959 80.6211 186.229 80.7494 185.651 80.9266C185.072 81.1037 184.341 81.2749 183.456 81.44C182.571 81.605 181.498 81.6157 180.237 81.4721C178.979 81.3863 177.626 81.3057 176.181 81.2302C174.734 81.1537 173.646 81.1094 172.916 81.0973C172.186 81.0852 171.606 81.0782 171.177 81.0763C170.748 81.0744 170.08 81.074 169.174 81.0749C168.268 81.0759 166.743 81.0893 164.597 81.1154C162.453 81.1415 160.731 81.1349 159.431 81.0958C158.132 81.0557 157.188 81.0427 156.598 81.0567C156.008 81.0697 155.541 81.094 155.196 81.1294C154.852 81.1658 154.595 81.1966 154.424 81.2218C154.253 81.247 154.102 81.2678 153.971 81.2846C153.84 81.3005 153.736 81.3141 153.659 81.3253C153.581 81.3374 153.502 81.3504 153.42 81.3644C153.338 81.3793 153.261 81.3948 153.188 81.4106C153.116 81.4265 152.998 81.4582 152.834 81.5057C152.671 81.5533 152.543 81.6041 152.452 81.6582C152.36 81.7114 152.262 81.7575 152.156 81.7967C152.05 81.8358 152.009 81.8526 152.031 81.8471C152.055 81.8415 152.044 81.8451 152 81.8581C151.956 81.8712 151.916 81.8861 151.88 81.9029C151.843 81.9206 151.793 81.9463 151.728 81.9799C151.664 82.0135 151.61 82.0441 151.567 82.0721C151.524 82.1001 151.464 82.1286 151.385 82.1575C151.307 82.1864 151.228 82.2134 151.145 82.2386C151.062 82.2637 151.037 82.2661 151.07 82.2456C151.103 82.226 150.882 82.3645 150.407 82.661C149.931 82.9585 149.457 83.352 148.985 83.8415C148.514 84.3301 148.158 84.7307 147.917 85.043C147.677 85.3545 147.418 85.6767 147.141 86.0096C146.863 86.3416 146.645 86.6587 146.486 86.9608C146.328 87.262 146.225 87.5165 146.175 87.7244C146.125 87.9333 146.112 88.103 146.136 88.2336C146.158 88.3641 146.163 88.4943 146.151 88.6239C146.14 88.7535 146.162 89.0556 146.218 89.5302C146.274 90.0058 146.336 90.3703 146.403 90.624C146.472 90.8776 146.615 91.2424 146.832 91.7179C147.05 92.1935 147.183 92.5706 147.232 92.8495C147.28 93.1273 147.347 93.4607 147.432 93.8495C147.516 94.2384 147.575 94.5414 147.607 94.7587C147.641 94.976 147.668 95.1294 147.689 95.2189C147.709 95.3075 147.727 95.3802 147.741 95.4371C147.754 95.494 147.774 95.541 147.802 95.5783C147.83 95.6147 147.85 95.6427 147.863 95.6623C147.875 95.6828 147.93 95.7439 148.028 95.8455C148.126 95.9471 148.224 96.0246 148.321 96.0777C148.417 96.1318 148.496 96.1709 148.556 96.1952C148.616 96.2185 148.662 96.2385 148.695 96.2553C148.727 96.2721 148.749 96.2806 148.761 96.2806C148.773 96.2806 149.215 96.3575 150.087 96.5114C150.96 96.6653 151.694 96.8059 152.289 96.9337C152.883 97.0614 153.346 97.1388 153.678 97.1659C154.009 97.1929 154.704 97.2363 155.762 97.296C156.821 97.3557 157.76 97.3901 158.58 97.3994C159.4 97.4088 160.301 97.4134 161.281 97.4134C162.261 97.4134 163.31 97.4787 164.426 97.6093C165.543 97.7398 166.532 97.807 167.392 97.8108C168.254 97.8136 168.925 97.827 169.407 97.8512C169.888 97.8755 170.98 97.9786 172.684 98.1605C174.388 98.3414 175.755 98.4607 176.785 98.5185C177.815 98.5763 178.575 98.6052 179.066 98.6052C179.556 98.6052 179.986 98.6099 180.356 98.6192C180.727 98.6276 181.274 98.6319 181.999 98.6319C182.724 98.6328 183.766 98.6313 185.125 98.6276C186.484 98.6239 187.553 98.6183 188.332 98.6109C189.11 98.6034 189.768 98.5885 190.304 98.5661C190.842 98.5438 192.171 98.4779 194.293 98.3688C196.416 98.2606 198.068 98.1683 199.251 98.0918C200.435 98.0163 201.515 98.0154 202.491 98.0891C203.467 98.1627 204.472 98.1963 205.505 98.1898C206.54 98.1833 207.436 98.1893 208.193 98.2079C208.95 98.2275 209.995 98.2336 211.327 98.2262C212.657 98.2197 213.7 98.2061 214.455 98.1856C215.211 98.165 215.919 98.098 216.579 97.9842C217.239 97.8705 217.766 97.7935 218.157 97.7534C218.55 97.7124 218.877 97.6494 219.14 97.5646C219.402 97.4797 219.925 97.4051 220.708 97.3407C221.491 97.2764 222.495 97.2302 223.719 97.2022C224.942 97.1743 225.874 97.1328 226.515 97.0778C227.156 97.0237 227.808 97.0051 228.471 97.0219C229.132 97.0387 229.618 97.0508 229.928 97.0583C230.209 97.1133 230.455 97.118 230.667 97.0723C230.869 97.0434 231.366 97.0036 232.159 96.9533C232.942 96.9207 233.532 96.9375 233.93 97.0037C234.325 97.068 234.61 97.089 234.785 97.0667C234.962 97.0434 235.16 96.9817 235.378 96.8819C235.597 96.7812 235.727 96.7248 235.768 96.7127C235.81 96.7006 235.869 96.6619 235.946 96.5966C236.024 96.5304 236.071 96.4945 236.088 96.4889C236.103 96.4823 236.141 96.4647 236.2 96.4358C236.258 96.4069 236.286 96.3939 236.284 96.3967C236.283 96.3995 236.283 96.398 236.284 96.3924C236.286 96.3868 236.287 96.3896 236.287 96.4008C236.287 96.412 236.337 96.3868 236.439 96.3253C236.542 96.2647 236.588 96.2306 236.577 96.2232C236.566 96.2157 236.557 96.2213 236.55 96.2399C236.543 96.2576 236.58 96.2021 236.662 96.0734C236.744 95.9438 236.8 95.8236 236.83 95.7127C236.861 95.6008 236.878 95.5159 236.879 95.4581C236.881 95.4003 236.885 95.3601 236.889 95.3377C236.893 95.3153 236.9 95.2977 236.91 95.2846C236.922 95.2706 236.94 95.1522 236.965 94.9293C236.989 94.7064 237.01 94.4943 237.028 94.2929C237.046 94.0915 237.064 93.9124 237.083 93.7558C237.101 93.5991 237.091 93.3902 237.05 93.1291C237.01 92.8671 236.949 92.5398 236.867 92.1472C236.785 91.7546 236.698 91.4632 236.606 91.273C236.515 91.0818 236.463 90.9737 236.451 90.9486" stroke="#3D5330" stroke-width="4" stroke-linecap="round" stroke-linejoin="round"/>
<path d="M230.576 98.9827C230.617 99.1683 230.596 99.0479 230.512 98.6218C230.428 98.1947 230.393 97.9588 230.407 97.914C230.421 97.8684 230.678 98.0908 231.178 98.5813C231.678 99.0718 232.165 99.5259 232.637 99.9437C233.109 100.361 233.641 100.919 234.233 101.616C234.826 102.314 235.293 102.898 235.636 103.368C235.978 103.837 236.503 104.421 237.209 105.12C237.916 105.819 238.519 106.49 239.02 107.135C239.52 107.779 239.891 108.352 240.134 108.855C240.377 109.357 240.754 109.973 241.266 110.704C241.777 111.434 242.271 112.035 242.749 112.506C243.225 112.977 243.67 113.537 244.083 114.187C244.495 114.837 244.843 115.396 245.127 115.865C245.412 116.335 245.731 116.772 246.083 117.175C246.435 117.576 246.691 117.878 246.854 118.081C247.017 118.284 247.045 118.386 246.938 118.386C246.832 118.387 246.782 118.383 246.788 118.375C246.795 118.366 246.793 118.368 246.783 118.38C246.772 118.392 246.678 118.345 246.501 118.238C246.323 118.13 246.092 117.983 245.807 117.799C245.522 117.613 245.27 117.447 245.05 117.301C244.831 117.153 244.626 116.992 244.436 116.818C244.246 116.644 243.86 116.466 243.277 116.285C242.695 116.103 242.241 115.971 241.916 115.888C241.591 115.806 241.227 115.78 240.825 115.811C240.424 115.842 240.132 115.883 239.951 115.935C239.769 115.987 239.603 116.046 239.452 116.113C239.3 116.179 238.843 116.327 238.078 116.556C237.314 116.786 236.742 116.948 236.364 117.043C235.985 117.138 235.687 117.238 235.468 117.341C235.249 117.444 234.979 117.597 234.661 117.801C234.343 118.006 234.105 118.155 233.947 118.249C233.79 118.344 233.345 118.516 232.612 118.766C231.878 119.017 231.259 119.259 230.754 119.492C230.25 119.725 229.887 119.907 229.665 120.038C229.444 120.168 229.018 120.294 228.388 120.416C227.759 120.537 227.207 120.537 226.731 120.416C226.235 120.32 225.82 120.25 225.487 120.207C225.152 120.165 224.888 120.127 224.695 120.094C224.5 120.059 224.195 119.917 223.778 119.667C223.36 119.417 223.044 119.174 222.829 118.937C222.614 118.699 222.459 118.53 222.364 118.428C222.269 118.326 222.132 118.188 221.955 118.013C221.776 117.836 221.641 117.703 221.548 117.612C221.455 117.522 221.374 117.426 221.304 117.324C221.235 117.223 220.979 116.951 220.536 116.51C220.092 116.069 219.703 115.694 219.37 115.384C219.035 115.076 218.502 114.698 217.769 114.253C217.036 113.808 216.461 113.49 216.046 113.297C215.632 113.105 215.337 112.962 215.162 112.867C214.988 112.772 214.633 112.629 214.095 112.44C213.559 112.252 212.876 112.145 212.047 112.12C211.22 112.094 210.569 112.094 210.095 112.117C209.621 112.139 209.043 112.272 208.361 112.514C207.678 112.756 207.023 113.008 206.397 113.272C205.771 113.536 205.321 113.725 205.047 113.84C204.775 113.955 204.454 114.114 204.086 114.318C203.717 114.524 203.224 114.831 202.607 115.24C201.99 115.65 201.515 115.978 201.18 116.223C200.845 116.469 200.607 116.658 200.467 116.79C200.327 116.922 200.227 117.019 200.167 117.078C200.107 117.138 199.971 117.266 199.76 117.463C199.549 117.659 199.396 117.801 199.302 117.888C199.208 117.975 199.102 118.062 198.985 118.148C198.869 118.235 198.718 118.354 198.531 118.505C198.344 118.657 198.11 118.821 197.827 118.997C197.545 119.173 197.158 119.335 196.665 119.483C196.172 119.63 195.8 119.721 195.548 119.757C195.297 119.792 194.878 119.847 194.291 119.92C193.703 119.994 192.909 119.934 191.908 119.741C190.906 119.548 190.052 119.355 189.344 119.162C188.637 118.968 187.866 118.638 187.033 118.172C186.199 117.705 185.528 117.309 185.017 116.986C184.507 116.663 184.036 116.266 183.603 115.796C183.17 115.324 182.649 114.799 182.04 114.22C181.431 113.642 180.918 113.192 180.502 112.871C180.087 112.549 179.736 112.292 179.45 112.099C179.164 111.906 178.776 111.734 178.285 111.584C177.793 111.434 177.163 111.318 176.394 111.237C175.624 111.157 175.015 111.113 174.566 111.104C174.118 111.097 173.509 111.143 172.739 111.243C171.969 111.342 171.322 111.433 170.796 111.514C170.271 111.594 169.628 111.81 168.868 112.16C168.11 112.512 167.57 112.766 167.25 112.924C166.929 113.081 166.469 113.395 165.87 113.865C165.271 114.335 164.703 114.813 164.164 115.298C163.626 115.781 163.186 116.239 162.844 116.671C162.502 117.104 162.107 117.444 161.66 117.691C161.212 117.939 160.696 118.103 160.111 118.183C159.527 118.263 159.039 118.343 158.647 118.422C158.256 118.501 157.612 118.556 156.716 118.587C155.821 118.619 154.909 118.56 153.981 118.411C153.053 118.262 152.255 118.102 151.586 117.931C150.917 117.761 150.22 117.554 149.494 117.31C148.768 117.067 147.921 116.828 146.952 116.593C145.983 116.358 145.246 116.173 144.741 116.039C144.236 115.905 143.636 115.854 142.942 115.888C142.248 115.921 141.596 115.962 140.986 116.011C140.375 116.059 139.9 116.114 139.562 116.176C139.223 116.238 138.976 116.29 138.821 116.334C138.665 116.378 138.524 116.412 138.396 116.436C138.269 116.46 138.054 116.489 137.751 116.523C137.447 116.556 137.281 116.564 137.253 116.545C137.225 116.527 137.441 116.254 137.9 115.727C138.358 115.2 138.751 114.757 139.078 114.397C139.405 114.036 139.681 113.725 139.907 113.465C140.132 113.205 140.3 113.002 140.411 112.855C140.523 112.708 140.67 112.468 140.853 112.136C141.036 111.804 141.25 111.359 141.494 110.799C141.736 110.24 142.089 109.67 142.55 109.09C143.012 108.51 143.504 107.956 144.026 107.43C144.549 106.904 144.968 106.453 145.284 106.077C145.6 105.701 145.957 105.253 146.356 104.733C146.754 104.212 147.104 103.772 147.406 103.414C147.708 103.056 147.96 102.762 148.164 102.534C148.369 102.307 148.502 102.144 148.565 102.047C148.629 101.951 148.677 101.877 148.711 101.825C148.745 101.774 148.948 101.549 149.319 101.151C149.69 100.752 150.064 100.416 150.442 100.14C150.819 99.8635 151.185 99.7217 151.539 99.7142C151.893 99.7077 152.099 99.6994 152.159 99.6891" stroke="#3D5330" stroke-width="4" stroke-linecap="round" stroke-linejoin="round"/>
<path d="M151.378 122.536C151.341 122.587 151.337 122.589 151.367 122.545C151.398 122.5 151.401 122.5 151.378 122.546C151.355 122.592 151.377 122.557 151.445 122.441C151.513 122.324 151.581 122.208 151.649 122.093C151.715 121.976 151.769 121.886 151.811 121.823C151.853 121.758 151.87 121.715 151.862 121.694C151.853 121.673 151.622 121.858 151.168 122.249C150.714 122.641 150.104 123.106 149.34 123.644C148.576 124.181 147.916 124.615 147.361 124.946C146.806 125.277 146.437 125.495 146.255 125.599C146.08 125.706 145.894 125.849 145.696 126.029C145.497 126.209 145.331 126.369 145.198 126.509C145.073 126.651 144.999 126.786 144.976 126.914C144.964 127.047 144.859 127.202 144.661 127.38C144.462 127.558 144.318 127.718 144.228 127.861C144.138 128.005 144.038 128.181 143.928 128.39C143.819 128.599 143.704 128.82 143.583 129.053C143.464 129.285 143.33 129.695 143.184 130.282C143.038 130.869 142.882 131.388 142.717 131.841C142.551 132.294 142.192 133.801 141.642 136.361C141.091 138.924 140.643 142.37 140.299 146.699C139.953 151.035 139.722 154.337 139.607 156.604C139.49 158.871 139.427 160.719 139.419 162.15C139.409 163.58 139.436 164.922 139.497 166.177C139.56 167.431 139.601 168.698 139.619 169.977C139.638 171.256 139.649 172.557 139.651 173.878C139.653 175.2 139.663 176.236 139.681 176.983C139.698 177.731 139.756 178.857 139.856 180.36C139.956 181.863 140.042 183.093 140.113 184.05C140.184 185.006 140.213 186.049 140.201 187.179C140.189 188.31 140.181 189.292 140.179 190.124C140.177 190.957 140.183 191.688 140.198 192.316C140.212 192.944 140.192 193.607 140.136 194.305C140.08 195.004 140.067 196.798 140.096 199.688C140.126 202.577 140.258 205.443 140.493 208.286C140.728 211.129 140.941 213.139 141.13 214.316C141.321 215.492 141.436 216.056 141.476 216.008C141.517 215.96 141.575 215.705 141.652 215.24C141.727 214.776 141.766 214.451 141.767 214.265" stroke="#3D5330" stroke-width="4" stroke-linecap="round" stroke-linejoin="round"/>
<path d="M233.759 120.696C233.555 120.634 233.457 120.607 233.466 120.617C233.477 120.626 233.471 120.631 233.45 120.631C233.428 120.631 233.407 120.62 233.385 120.599C233.364 120.577 233.335 120.574 233.3 120.59C233.264 120.606 233.223 120.689 233.178 120.841C233.132 120.991 233.117 121.075 233.133 121.092C233.15 121.11 233.154 121.108 233.147 121.087C233.138 121.066 233.115 121.083 233.078 121.138C233.04 121.193 233.33 121.566 233.949 122.258C234.568 122.948 235.433 123.787 236.543 124.774C237.653 125.759 238.38 126.447 238.723 126.836C239.066 127.225 239.579 127.9 240.262 128.861C240.944 129.821 241.498 130.628 241.924 131.281C242.35 131.932 242.693 132.515 242.952 133.029C243.21 133.543 243.466 134.237 243.717 135.112C243.967 135.987 244.169 137.628 244.322 140.034C244.476 142.44 244.549 144.725 244.542 146.889C244.536 149.053 244.478 150.82 244.369 152.19C244.26 153.561 244.199 154.582 244.184 155.254C244.168 155.925 244.091 158.245 243.954 162.212C243.816 166.179 243.739 169.182 243.721 171.22C243.703 173.258 243.708 174.77 243.737 175.758C243.764 176.745 243.793 177.448 243.823 177.867C243.853 178.286 243.863 178.867 243.853 179.61C243.843 180.353 243.822 181.492 243.793 183.027C243.763 184.562 243.744 186.24 243.737 188.062C243.729 189.883 243.723 191.309 243.72 192.34C243.716 193.371 243.695 194.271 243.658 195.039C243.621 195.809 243.527 196.665 243.378 197.609C243.228 198.552 243.163 199.398 243.183 200.146C243.202 200.894 243.201 202.01 243.177 203.493C243.154 204.978 243.131 206.1 243.109 206.86C243.086 207.62 243.075 207.976 243.076 207.929C243.077 207.881 243.072 207.833 243.061 207.785C243.05 207.736 243.033 207.68 243.012 207.615" stroke="#3D5330" stroke-width="4" stroke-linecap="round" stroke-linejoin="round"/>
<path d="M242.496 206.172C242.488 206.188 242.488 206.201 242.498 206.211C242.507 206.221 242.548 206.294 242.622 206.429C242.697 206.564 242.744 206.645 242.764 206.674C242.784 206.703 242.798 206.722 242.806 206.73C242.812 206.738 242.807 206.747 242.791 206.755C242.774 206.764 242.769 206.737 242.776 206.675C242.784 206.614 242.914 206.797 243.166 207.225C243.419 207.653 243.567 208.039 243.608 208.382C243.649 208.726 243.666 208.971 243.66 209.118C243.653 209.264 243.637 209.418 243.611 209.579C243.585 209.741 243.572 209.823 243.571 209.825C243.569 209.827 243.569 209.851 243.57 209.897C243.571 209.943 243.564 210.037 243.549 210.178C243.535 210.319 243.519 210.459 243.501 210.6C243.483 210.74 243.472 210.883 243.467 211.03C243.462 211.176 243.457 211.271 243.454 211.314C243.45 211.357 243.447 211.374 243.445 211.367C243.442 211.358 243.445 211.369 243.452 211.399C243.459 211.429 243.43 211.592 243.365 211.89C243.301 212.188 243.223 212.537 243.133 212.936C243.041 213.335 242.974 213.647 242.931 213.872C242.888 214.098 242.85 214.244 242.819 214.311C242.788 214.379 242.757 214.458 242.727 214.546C242.698 214.635 242.67 214.749 242.646 214.888C242.623 215.026 242.589 215.16 242.545 215.289C242.502 215.418 242.462 215.581 242.425 215.778C242.387 215.976 242.362 216.098 242.348 216.145C242.334 216.192 242.312 216.242 242.283 216.296C242.255 216.35 242.244 216.37 242.251 216.355C242.258 216.341 242.262 216.322 242.262 216.297C242.263 216.274 242.206 216.471 242.09 216.888C241.974 217.305 241.722 217.812 241.333 218.407C240.944 219.003 240.601 219.455 240.302 219.765C240.005 220.074 239.681 220.366 239.33 220.639C238.978 220.912 238.516 221.204 237.942 221.513C237.368 221.823 236.863 222.084 236.425 222.297C235.989 222.51 235.605 222.664 235.272 222.757C234.938 222.85 234.708 222.908 234.581 222.932C234.454 222.955 234.333 222.968 234.219 222.972C234.104 222.977 234.054 222.981 234.068 222.983C234.081 222.986 234.091 222.987 234.097 222.986C234.104 222.985 234.108 222.986 234.11 222.989C234.111 222.991 234.112 222.992 234.113 222.993C234.115 222.993 234.115 222.995 234.115 222.997C234.116 222.999 234.116 222.999 234.113 222.997C234.109 222.995 234.103 222.994 234.096 222.996C234.088 222.997 234.081 222.997 234.073 222.997C234.065 222.997 233.977 222.982 233.81 222.951C233.644 222.92 233.486 222.89 233.336 222.863C233.188 222.835 233.116 222.825 233.122 222.834C233.127 222.841 233.138 222.845 233.153 222.846C233.167 222.846 233.168 222.845 233.157 222.844C233.146 222.842 233.104 222.837 233.029 222.83C232.955 222.822 232.879 222.814 232.801 222.804C232.721 222.794 232.659 222.78 232.614 222.762" stroke="#3D5330" stroke-width="4" stroke-linecap="round" stroke-linejoin="round"/>
<path d="M233.407 223.401C233.421 223.397 233.413 223.395 233.382 223.393C233.352 223.391 233.422 223.423 233.591 223.49C233.759 223.558 233.921 223.595 234.076 223.604C234.23 223.612 234.357 223.622 234.456 223.635C234.554 223.647 234.59 223.651 234.564 223.649C234.537 223.645 234.526 223.643 234.532 223.643C234.537 223.644 234.542 223.649 234.546 223.658C234.549 223.667 234.541 223.654 234.522 223.621C234.503 223.586 234.303 223.554 233.92 223.525C233.539 223.497 233.183 223.511 232.852 223.57C232.521 223.63 232.19 223.689 231.861 223.747C231.532 223.805 231.208 223.852 230.891 223.886C230.574 223.922 230.277 223.959 230 223.998C229.723 224.038 229.237 224.101 228.542 224.187C227.847 224.273 227.267 224.331 226.803 224.362C226.339 224.393 225.844 224.442 225.318 224.51C224.792 224.577 224.24 224.611 223.663 224.611C223.086 224.61 222.66 224.597 222.383 224.572C222.108 224.547 221.77 224.546 221.371 224.57C220.972 224.595 219.727 224.617 217.637 224.636C215.546 224.657 213.937 224.66 212.811 224.647C211.685 224.634 210.831 224.633 210.247 224.645C209.663 224.656 208.777 224.673 207.59 224.695C206.402 224.717 205.126 224.751 203.76 224.797C202.394 224.842 201.397 224.838 200.769 224.786C200.141 224.734 199.606 224.747 199.163 224.822C198.721 224.897 198.05 224.949 197.151 224.98C196.252 225.011 195.549 225.042 195.043 225.074C194.538 225.105 193.862 225.161 193.015 225.242C192.168 225.324 191.474 225.388 190.931 225.435C190.387 225.481 189.95 225.508 189.62 225.516C189.29 225.524 189.058 225.525 188.924 225.519C188.789 225.512 188.248 225.478 187.299 225.415C186.351 225.353 185.233 225.306 183.943 225.275C182.656 225.197 181.524 225.16 180.548 225.165C179.574 225.124 178.793 225.096 178.206 225.081C177.619 225.066 177.238 225.068 177.065 225.088C176.892 225.108 176.335 225.124 175.392 225.138C174.449 225.152 173.542 225.153 172.671 225.14C171.799 225.127 171.033 225.125 170.374 225.134C169.714 225.142 169.149 225.146 168.679 225.145C168.208 225.143 167.754 225.155 167.318 225.179C166.883 225.204 166.382 225.196 165.815 225.155C165.249 225.114 164.76 225.104 164.348 225.126C163.936 225.147 163.367 225.179 162.641 225.221C161.914 225.264 161.226 225.225 160.579 225.103C159.931 224.981 159.384 224.912 158.937 224.895C158.492 224.877 158.036 224.85 157.572 224.812C157.109 224.776 156.687 224.749 156.306 224.73C155.926 224.711 155.291 224.714 154.401 224.74C153.513 224.765 152.725 224.818 152.04 224.9C151.355 224.983 150.841 225.038 150.498 225.066C150.155 225.093 149.948 225.103 149.878 225.098C149.808 225.092 149.608 225.127 149.277 225.203C148.946 225.277 148.586 225.32 148.198 225.33C147.809 225.339 147.546 225.351 147.408 225.366C147.271 225.38 147.115 225.381 146.94 225.368C146.766 225.355 146.598 225.329 146.434 225.288C146.271 225.247 146.145 225.226 146.057 225.226C145.97 225.225 145.902 225.215 145.851 225.194C145.801 225.173 145.736 225.153 145.656 225.134C145.58 225.113 145.512 225.086 145.453 225.056C145.395 225.021 145.359 224.994 145.344 224.975" stroke="#3D5330" stroke-width="4" stroke-linecap="round" stroke-linejoin="round"/>
<path d="M150.31 223.873C150.226 224.263 150.185 224.429 150.189 224.37C150.194 224.311 150.187 224.318 150.168 224.39C150.15 224.461 150.056 224.536 149.886 224.618C149.716 224.699 149.582 224.739 149.484 224.738C149.386 224.738 149.336 224.731 149.334 224.717C149.332 224.703 149.237 224.686 149.05 224.665C148.862 224.645 148.471 224.522 147.876 224.297C147.282 224.073 146.687 223.75 146.092 223.331C145.497 222.911 145.046 222.6 144.741 222.396C144.435 222.192 144.037 221.896 143.545 221.508C143.054 221.12 142.631 220.759 142.278 220.426C141.926 220.091 141.647 219.764 141.443 219.445C141.238 219.125 141.113 218.868 141.068 218.673C141.025 218.479 141.003 218.348 141.003 218.281C141.003 218.214 141.002 218.173 141.001 218.157C141 218.141 140.99 218.057 140.97 217.904C140.95 217.752 140.955 217.68 140.986 217.688C141.016 217.698 141.012 217.442 140.976 216.92C140.94 216.399 140.891 215.987 140.827 215.683C140.764 215.379 140.714 215.171 140.679 215.056C140.643 214.941 140.619 214.861 140.606 214.815C140.592 214.771 140.588 214.758 140.595 214.777C140.6 214.798 140.577 214.756 140.525 214.65C140.478 214.539 140.421 214.435 140.355 214.337" stroke="#3D5330" stroke-width="4" stroke-linecap="round" stroke-linejoin="round"/>
<path d="M220.714 126.877C220.793 126.908 220.798 126.773 220.728 126.472C220.658 126.172 220.621 126.075 220.617 126.181C220.612 126.289 220.61 126.337 220.611 126.325C220.611 126.315 220.615 126.318 220.623 126.332C220.63 126.346 220.624 126.364 220.606 126.386C220.587 126.407 220.596 126.558 220.632 126.837C220.67 127.117 220.729 127.353 220.809 127.544C220.89 127.735 220.97 127.895 221.049 128.025C221.128 128.154 221.197 128.26 221.255 128.341C221.312 128.422 221.366 128.5 221.419 128.575C221.471 128.648 221.629 128.819 221.894 129.087C222.159 129.353 222.42 129.584 222.677 129.779C222.934 129.973 223.19 130.155 223.445 130.324C223.702 130.493 223.892 130.615 224.016 130.691C224.141 130.767 224.405 130.913 224.807 131.129C225.208 131.345 225.747 131.796 226.423 132.483C227.098 133.17 227.687 133.848 228.19 134.518C228.692 135.187 229.097 135.699 229.404 136.054C229.712 136.408 229.947 137.155 230.111 138.294C230.274 139.433 230.376 140.277 230.417 140.826C230.459 141.375 230.49 141.81 230.513 142.13C230.536 142.45 230.561 142.855 230.588 143.345C230.616 143.836 230.621 144.782 230.605 146.183C230.589 147.585 230.61 148.839 230.668 149.944C230.725 151.05 230.785 151.878 230.846 152.426C230.909 152.974 230.963 153.412 231.008 153.741C231.052 154.069 231.097 154.516 231.142 155.082C231.188 155.649 231.22 156.118 231.239 156.488C231.258 156.858 231.323 157.666 231.434 158.912C231.544 160.157 231.569 161.317 231.508 162.392C231.447 163.467 231.416 164.007 231.413 164.012C231.41 164.015 231.408 164.016 231.406 164.014C231.404 164.012 231.405 164.01 231.41 164.01C231.414 164.011 231.448 164.005 231.512 163.991C231.577 163.977 231.67 163.959 231.791 163.937" stroke="#3D5330" stroke-width="4" stroke-linecap="round" stroke-linejoin="round"/>
<path d="M232.081 171.697C232.1 171.687 232.087 171.615 232.044 171.481C232.595 171.302 232.752 171.194 232.514 171.155C232.273 171.061 232.167 171.04 232.196 171.092C232.224 171.147 232.234 171.171 232.224 171.164C232.215 171.158 232.215 171.166 232.224 171.188C232.234 171.212 232.231 171.205 232.217 171.169C232.202 171.131 232.186 171.674 232.167 172.795C232.147 173.917 232.189 174.996 232.292 176.033C232.393 177.072 232.37 177.545 232.22 177.453C232.07 177.364 232.022 177.331 232.077 177.354C232.131 177.378 232.144 177.375 232.114 177.344C232.083 177.312 232.079 177.28 232.101 177.246C232.123 177.212 232.016 177.037 231.779 176.722C231.666 176.427 231.6 176.219 231.582 176.099C231.564 175.98 231.55 175.887 231.54 175.819C231.53 175.752 231.521 175.653 231.512 175.523C231.503 175.392 231.481 175.237 231.448 175.057C231.414 174.878 231.382 174.707 231.351 174.545C231.32 174.383 231.302 174.285 231.298 174.252C231.294 174.219 231.293 174.2 231.294 174.196C231.295 174.19 231.298 174.18 231.303 174.165C231.31 174.15 231.314 174.132 231.315 174.11C231.317 174.089 231.317 174.078 231.316 174.079C231.315 174.079 231.314 174.075 231.313 174.067C231.311 174.059 231.308 174.044 231.303 174.021C231.3 173.997 231.291 173.915 231.277 173.773C231.262 173.631 231.252 173.539 231.246 173.498C231.239 173.456 231.237 173.442 231.239 173.457C231.241 173.472 231.242 173.477 231.243 173.471C231.244 173.466 231.241 173.475 231.233 173.498C231.227 173.52 231.254 173.462 231.315 173.323C231.376 173.184 231.417 173.101 231.437 173.074" stroke="#3D5330" stroke-width="4" stroke-linecap="round" stroke-linejoin="round"/>
<path d="M153.229 120.863C153.114 120.892 152.225 121.335 150.562 122.191C148.899 123.047 147.971 123.43 147.778 123.34" stroke="#3D5330" stroke-width="4" stroke-linecap="round" stroke-linejoin="round"/>
<path d="M236.359 125.688C236.406 125.625 236.342 125.1 236.166 124.113C235.991 123.126 235.549 122.403 234.838 121.942C234.128 121.482 233.674 121.205 233.475 121.111" stroke="#3D5330" stroke-width="4" stroke-linecap="round" stroke-linejoin="round"/>
<path d="M232.047 174.637C231.898 174.743 231.783 175.447 231.7 176.749C231.618 178.052 231.532 178.799 231.442 178.991" stroke="#3D5330" stroke-width="4" stroke-linecap="round" stroke-linejoin="round"/>
<path d="M36.5657 276.892C36.6246 276.999 36.6834 277.106 36.7423 277.213C36.7171 277.238 36.7077 277.244 36.7143 277.23C36.7199 277.216 36.7274 277.198 36.7367 277.178C36.7461 277.157 36.7484 277.146 36.7437 277.144C36.7391 277.142 36.7325 277.151 36.7241 277.171C36.7157 277.19 36.6848 277.275 36.6316 277.425C36.5774 277.575 36.5264 277.741 36.4788 277.922C36.4311 278.102 36.4288 278.215 36.4718 278.262C36.5157 278.309 36.4872 278.27 36.3863 278.144C36.2863 278.019 36.3512 278.216 36.5811 278.735C36.8119 279.252 37.1035 279.775 37.4558 280.302C37.809 280.831 38.0094 281.14 38.0571 281.228C38.1047 281.317 38.1711 281.435 38.2561 281.582C38.3412 281.73 38.4304 281.898 38.5239 282.086C38.6173 282.274 38.7355 282.54 38.8785 282.883C39.0214 283.226 39.199 284.022 39.4111 285.274C39.6242 286.524 40.3927 288.311 41.7169 290.635C43.041 292.96 44.0708 294.705 44.8062 295.872C45.5426 297.038 46.0714 297.811 46.3929 298.189C46.7143 298.567 46.8443 298.731 46.7826 298.681C46.72 298.63 46.9811 298.885 47.5661 299.447C48.152 300.008 49.1131 301.243 50.4494 303.151C51.7857 305.059 53.2682 307.335 54.8969 309.979C56.5248 312.624 57.7783 314.564 58.6576 315.798C59.537 317.034 60.2518 317.993 60.8022 318.675C61.3517 319.359 61.7848 319.892 62.1016 320.274C62.4184 320.656 63.0197 321.303 63.9056 322.217C64.7905 323.131 66.0945 324.177 67.8177 325.356C69.5408 326.534 70.8093 327.459 71.6232 328.134C72.4362 328.807 73.2011 329.226 73.9178 329.391C74.6355 329.556 75.1789 329.691 75.548 329.795C75.9171 329.9 76.3558 330.15 76.8642 330.545C77.3725 330.941 77.6785 331.262 77.7823 331.509C77.886 331.755 78.3458 332.218 79.1615 332.899C79.9773 333.579 80.6431 334.048 81.1589 334.306C81.6757 334.564 82.0616 334.83 82.3168 335.106C82.5728 335.382 83.1802 335.912 84.1389 336.699C85.0977 337.486 86.5045 338.39 88.3594 339.409C90.2152 340.427 91.9561 341.27 93.5821 341.938C95.209 342.606 97.0891 343.694 99.2225 345.203C101.356 346.71 103.032 347.894 104.252 348.754C105.471 349.614 107.005 350.094 108.853 350.196C110.701 350.296 112.899 351.003 115.448 352.315C117.998 353.627 120.192 354.806 122.031 355.851C123.871 356.896 125.227 357.641 126.101 358.086C126.974 358.531 127.716 358.91 128.327 359.225C128.938 359.538 129.685 359.887 130.568 360.271C131.451 360.654 132.068 360.931 132.417 361.1C132.767 361.27 133.204 361.374 133.729 361.414C134.29 361.445 134.971 361.647 135.771 362.018C136.61 362.384 139.15 363.265 143.392 364.663C147.636 366.061 151.389 367.072 154.652 367.696C158.703 367.918 162.345 368.404 165.578 369.156C169.073 369.686 172.618 369.934 176.211 369.899C179.805 369.863 182.555 369.909 184.459 370.036C186.363 370.161 187.736 370.16 188.58 370.031C189.423 369.902 190.165 369.828 190.806 369.809C191.446 369.79 192.108 369.774 192.792 369.759C193.477 369.744 194.176 369.821 194.889 369.989C195.602 370.159 198.676 369.799 204.111 368.908C209.546 368.017 214.09 367.322 217.741 366.823C221.392 366.324 224.496 365.705 227.051 364.965C229.605 364.227 231.613 363.688 233.075 363.351C234.537 363.014 236.688 362.359 239.527 361.386C242.367 360.412 244.761 359.469 246.711 358.557C248.661 357.645 250.539 356.639 252.344 355.54C254.149 354.442 257.517 352.286 262.446 349.074C267.375 345.862 271.151 343.367 273.774 341.587C276.397 339.808 278.286 338.464 279.44 337.557C280.595 336.651 281.446 335.997 281.994 335.596C282.542 335.195 283.296 334.404 284.255 333.224C285.214 332.044 285.871 331.293 286.226 330.969C286.581 330.644 287.865 329.726 290.079 328.215C292.292 326.702 294.831 324.259 297.698 320.885C300.564 317.512 302.606 314.84 303.822 312.871C305.04 310.9 306.307 308.702 307.622 306.276C308.938 303.85 309.969 302.101 310.716 301.028C311.463 299.954 312.159 298.962 312.803 298.05C313.446 297.138 314.111 295.375 314.799 292.763C316.805 294.142 318.422 287.904 319.65 274.05C319.67 274.551 319.681 274.824 319.682 274.869C319.669 274.876 319.695 274.898 319.76 274.934C319.824 274.971 319.88 273.762 319.926 271.307L320.009 271.304C320.095 271.753 320.147 272.389 320.166 273.211C320.154 272.901 320.106 271.683 320.023 269.555C320.019 269.471 320.033 269.838 320.065 270.655C320.098 271.474 320.131 272.326 320.166 273.211" stroke="#3D5330" stroke-width="4" stroke-linecap="round" stroke-linejoin="round"/>
<path d="M315.836 90.3723C315.772 90.2716 315.707 90.1704 315.643 90.0688C315.666 90.0436 315.675 90.038 315.67 90.052C315.665 90.066 315.659 90.0832 315.651 90.1038C315.644 90.1243 315.642 90.1355 315.646 90.1374C315.65 90.1383 315.656 90.129 315.664 90.1094C315.671 90.0907 315.696 90.0059 315.74 89.8548C315.783 89.7047 315.822 89.5401 315.857 89.361C315.892 89.182 315.887 89.0705 315.842 89.0267C315.797 88.9838 315.828 89.0206 315.933 89.1372C316.039 89.2528 315.963 89.065 315.706 88.5736C315.448 88.0812 315.131 87.5879 314.754 87.0937C314.377 86.5995 314.162 86.3104 314.109 86.2265C314.057 86.1426 313.985 86.0311 313.892 85.8922C313.8 85.7532 313.702 85.5948 313.599 85.4167C313.496 85.2395 313.365 84.9877 313.204 84.6613C313.043 84.334 312.82 83.5655 312.534 82.3561C312.248 81.1466 311.386 79.4473 309.948 77.2578C308.51 75.0683 307.394 73.4261 306.602 72.3313C305.811 71.2366 305.246 70.5145 304.909 70.1648C304.571 69.8142 304.434 69.6617 304.498 69.7074C304.562 69.753 304.29 69.5195 303.684 69.0066C303.076 68.4947 302.061 67.3478 300.636 65.5658C299.211 63.7838 297.621 61.6502 295.865 59.1651C294.109 56.6809 292.763 54.8632 291.827 53.7115C290.891 52.559 290.133 51.6656 289.553 51.0315C288.973 50.3974 288.516 49.9036 288.182 49.5501C287.849 49.1967 287.221 48.6005 286.3 47.7613C285.378 46.923 284.038 45.9815 282.28 44.9372C280.523 43.8918 279.226 43.0652 278.389 42.4573C277.552 41.8483 276.778 41.4855 276.068 41.3689C275.357 41.2514 274.817 41.1532 274.45 41.0739C274.083 40.9956 273.639 40.7788 273.117 40.4235C272.595 40.0683 272.275 39.773 272.158 39.5381C272.043 39.304 271.565 38.8797 270.725 38.2652C269.885 37.6506 269.206 37.2333 268.685 37.0133C268.165 36.7932 267.771 36.5564 267.503 36.3028C267.237 36.0501 266.611 35.5685 265.624 34.858C264.638 34.1474 263.207 33.3515 261.33 32.4703C259.454 31.59 257.7 30.8738 256.069 30.3218C254.437 29.7698 252.532 28.8224 250.354 27.4796C248.175 26.1377 246.462 25.0844 245.217 24.3198C243.971 23.5552 242.442 23.1804 240.63 23.1953C238.818 23.2102 236.626 22.6553 234.052 21.5307C231.48 20.4061 229.262 19.3898 227.398 18.4815C225.535 17.5733 224.163 16.9288 223.282 16.5484C222.4 16.1679 221.651 15.8429 221.035 15.5734C220.418 15.3049 219.666 15.0103 218.779 14.6895C217.894 14.3696 217.274 14.1374 216.921 13.9928C216.569 13.8483 216.135 13.7738 215.62 13.7692C215.069 13.772 214.39 13.6167 213.585 13.3034C212.743 12.9985 210.205 12.294 205.972 11.1899C201.739 10.0858 198.008 9.32993 194.78 8.92243C190.791 8.96439 187.198 8.71508 184.001 8.17423C180.557 7.86931 177.08 7.84506 173.569 8.10149C170.059 8.35793 167.369 8.48324 165.5 8.47764C163.632 8.47205 162.29 8.55839 161.473 8.73649C160.657 8.91553 159.937 9.034 159.311 9.09181C158.686 9.14962 158.04 9.20687 157.372 9.26375C156.704 9.32063 156.017 9.2885 155.31 9.16728C154.602 9.04605 151.62 9.58885 146.363 10.7955C141.105 12.0021 136.708 12.9621 133.17 13.6754C129.632 14.3888 126.638 15.1856 124.187 16.0659C121.736 16.9471 119.806 17.5975 118.398 18.0171C116.989 18.4367 114.927 19.2097 112.212 20.3362C109.498 21.4635 107.217 22.5336 105.368 23.5463C103.518 24.559 101.746 25.6579 100.05 26.8431C98.3535 28.0283 95.196 30.3427 90.577 33.7864C85.958 37.231 82.422 39.904 79.969 41.8054C77.5161 43.7076 75.7537 45.1376 74.6819 46.0953C73.6091 47.053 72.8176 47.7449 72.3074 48.171C71.7963 48.5963 71.109 49.415 70.2456 50.6272C69.3812 51.8404 68.7854 52.6163 68.4584 52.9548C68.1313 53.2933 66.9329 54.27 64.863 55.8851C62.7942 57.4992 60.4637 60.044 57.8715 63.5194C55.2793 66.9939 53.4496 69.7316 52.3824 71.7327C51.3153 73.7329 50.214 75.9593 49.0787 78.4117C47.9433 80.8642 47.0439 82.6377 46.3805 83.7324C45.7161 84.8281 45.0979 85.8418 44.526 86.7734C43.9541 87.704 43.4131 89.4678 42.9028 92.0648C40.8564 90.8404 39.6631 97.0369 39.323 110.654C39.2725 110.165 39.2449 109.899 39.2402 109.855C39.2533 109.847 39.2271 109.827 39.1617 109.797C39.0954 109.765 39.116 110.95 39.2234 113.352L39.1435 113.36C39.0314 112.927 38.9407 112.309 38.8716 111.507C38.9024 111.808 39.0249 112.996 39.2389 115.07C39.2473 115.152 39.2103 114.794 39.1281 113.997C39.0459 113.199 38.9604 112.369 38.8716 111.507" stroke="#3D5330" stroke-width="4" stroke-linecap="round" stroke-linejoin="round"/>
<path d="M319.284 268.946C319.19 268.965 318.962 268.934 318.602 268.854C318.242 268.773 317.977 268.688 317.806 268.6C317.634 268.513 317.553 268.483 317.565 268.51C317.576 268.538 317.596 268.537 317.625 268.508C317.653 268.479 317.43 268.522 316.958 268.637C316.485 268.752 316.083 268.834 315.752 268.885C315.421 268.935 315.108 268.972 314.813 268.996C314.518 269.021 314.336 269.031 314.269 269.024C314.201 269.018 314.171 269.012 314.179 269.008C314.188 269.003 314.196 268.999 314.205 268.995C314.214 268.991 313.745 269.017 312.797 269.073C311.85 269.128 310.922 269.127 310.015 269.069C309.108 269.011 308.416 268.94 307.939 268.855C307.464 268.771 306.79 268.744 305.918 268.773C305.047 268.801 304.385 268.851 303.933 268.922C303.481 268.992 303.108 269.063 302.815 269.134C302.521 269.203 302.376 269.252 302.38 269.278C302.383 269.303 302.399 269.305 302.428 269.283C302.457 269.262 302.287 269.272 301.919 269.314C301.551 269.355 300.972 269.382 300.184 269.394C300.483 269.533 300.704 269.586 300.848 269.553C300.991 269.522 301.538 269.568 302.489 269.692C303.442 269.816 304.474 269.932 305.587 270.04C306.699 270.149 307.652 270.199 308.447 270.189C309.241 270.18 310.072 270.183 310.942 270.199C311.811 270.216 312.733 270.224 313.707 270.223C314.68 270.222 315.62 270.22 316.529 270.216C317.436 270.211 318.296 270.167 319.109 270.083C319.922 269.998 320.731 269.94 321.537 269.907C322.342 269.875 323.044 270.02 323.642 270.341C323.677 270.23 323.877 271.108 324.242 272.976C324.608 274.843 324.881 276.365 325.064 277.543C325.247 278.719 325.349 279.385 325.37 279.539C325.393 279.693 325.461 280.323 325.575 281.43C325.689 282.538 325.778 283.856 325.841 285.387C325.905 286.917 325.97 288.319 326.036 289.593C326.103 290.867 326.213 292.029 326.369 293.08C326.524 294.13 326.726 295.113 326.975 296.03C327.226 296.946 327.352 297.515 327.352 297.736C327.354 297.957 327.353 298.164 327.35 298.357C327.346 298.55 327.346 298.699 327.351 298.805C327.356 298.91 327.362 298.945 327.369 298.91C327.377 298.874 327.349 298.954 327.287 299.149C327.223 299.344 327.215 299.671 327.261 300.132C327.308 300.593 327.327 300.967 327.319 301.254C327.31 301.542 327.309 301.724 327.315 301.801C327.321 301.877 327.317 301.788 327.301 301.533C327.284 301.276 327.228 302.467 327.132 305.106C326.807 304.532 326.681 304.325 326.753 304.486C326.19 304.042 325.886 302.164 325.841 298.854C325.797 295.544 325.812 292.569 325.889 289.928C325.966 287.289 326.037 285.408 326.104 284.287C326.171 283.166 326.2 282.185 326.192 281.344C326.183 280.506 326.191 279.848 326.216 279.369C326.24 278.892 326.262 278.611 326.282 278.528C326.302 278.444 326.289 278.341 326.242 278.22C326.196 278.1 326.16 277.969 326.134 277.828C326.108 277.687 326.093 277.567 326.088 277.466C326.084 277.365 326.094 277.391 326.12 277.543C326.147 277.695 326.075 277.171 325.906 275.97C325.737 274.771 325.582 273.808 325.442 273.079C325.302 272.351 325.213 271.855 325.177 271.591C325.141 271.327 325.108 271.169 325.08 271.116C325.052 271.061 325.032 271.042 325.019 271.057C325.007 271.072 324.924 270.752 324.772 270.099C324.621 269.446 324.547 268.943 324.551 268.591C324.554 268.239 324.584 267.991 324.64 267.845C324.695 267.699 324.723 267.603 324.724 267.559" stroke="#3D5330" stroke-width="4" stroke-linecap="round" stroke-linejoin="round"/>
<path d="M40.14 113.75C39.4373 113.61 39.1378 113.556 39.2416 113.588C39.3462 113.619 39.3789 113.621 39.3397 113.592C39.3004 113.563 39.1337 113.562 38.8393 113.59C38.5449 113.618 38.401 113.643 38.4076 113.663C38.4141 113.683 38.3576 113.72 38.238 113.775C38.1183 113.829 38.0142 113.886 37.9254 113.947C37.8375 114.008 37.7988 114.042 37.809 114.051C37.8193 114.059 37.8193 114.067 37.809 114.074C37.7988 114.083 37.7847 114.102 37.767 114.132C37.7492 114.162 37.7777 114.126 37.8525 114.024C37.9273 113.923 37.775 114.124 37.3956 114.625C37.5357 114.76 37.595 114.851 37.5736 114.9C37.5212 115.123 38.8042 115.089 41.4226 114.798C44.0409 114.507 46.3009 114.216 48.2025 113.926C50.1042 113.636 51.4806 113.446 52.3319 113.355C53.1822 113.266 53.7944 113.167 54.1681 113.059C54.5419 112.952 54.8647 112.849 55.1367 112.75C55.4086 112.65 55.5418 112.6 55.5362 112.599C55.5315 112.598 55.5796 112.594 55.6805 112.586C55.7815 112.579 55.8058 112.574 55.7534 112.572C55.702 112.57 56.0286 112.434 56.7332 112.164C57.4387 111.893 58.0186 111.776 58.4727 111.811C58.9268 111.847 59.5058 111.864 60.2094 111.864C60.914 111.863 61.6452 111.87 62.403 111.885C62.6133 111.988 61.4746 112.251 58.9871 112.676C56.4987 113.099 54.2037 113.317 52.1021 113.329C50.0005 113.341 48.4525 113.307 47.4582 113.228C46.464 113.15 45.7351 113.075 45.2716 113.004C44.8081 112.933 44.3278 112.844 43.8307 112.736C43.3336 112.628 42.8873 112.539 42.4921 112.471C42.0968 112.403 41.7758 112.351 41.5291 112.313C41.2815 112.275 41.211 112.259 41.3175 112.266C41.4249 112.272 41.3039 112.263 40.9544 112.236C40.605 112.21 40.1957 112.24 39.7266 112.326C39.2584 112.413 38.7473 112.561 38.1931 112.771C38.0445 112.981 37.9819 113.117 38.0053 113.178C37.8838 113.125 37.6824 113.425 37.4012 114.08C36.9928 114.129 36.7952 114.172 36.8082 114.209C36.8157 114.188 36.6629 114.232 36.3499 114.34C36.305 114.294 36.1546 114.201 35.8985 114.062C35.7443 114.301 35.7873 113.922 36.0275 112.925C36.2667 111.928 36.3882 111.293 36.392 111.02" stroke="#3D5330" stroke-width="4" stroke-linecap="round" stroke-linejoin="round"/>
<path d="M39.8501 111.471C39.4847 111.712 39.1904 111.916 38.967 112.082C38.7437 112.249 38.2386 112.532 37.4518 112.931C36.665 113.33 36.1099 113.626 35.7866 113.819C35.4642 114.012 35.2797 114.119 35.233 114.14C35.1853 114.161 35.1759 114.165 35.2049 114.152C35.2339 114.139 35.2292 114.151 35.1909 114.187C35.1517 114.224 35.1577 114.198 35.2091 114.109C35.2596 114.02 34.8919 114.406 34.106 115.267C33.6416 115.469 33.4112 114.383 33.415 112.008C33.4187 109.633 33.2729 106.553 32.9776 102.767C32.6823 98.9807 32.4492 96.1824 32.2782 94.3715C32.1081 92.5615 32.0179 91.1894 32.0076 90.255C31.9983 89.3206 31.9665 88.5881 31.9123 88.0575C31.8581 87.5269 31.8044 87.0192 31.7512 86.5343C31.6979 86.0503 31.6101 85.4516 31.4877 84.7383C31.3643 84.0249 31.2811 83.4468 31.2381 83.0038C31.1952 82.5609 31.155 82.2174 31.1176 81.973C31.0802 81.7287 31.0653 81.538 31.0727 81.4009C31.0793 81.2638 31.0587 81.0858 31.011 80.8666C30.9625 80.6466 30.9288 80.4428 30.9101 80.2554C30.8905 80.067 30.884 79.9668 30.8905 79.9547C30.897 79.9426 30.8994 79.8973 30.8975 79.8189C30.8956 79.7406 30.7518 79.081 30.4658 77.8398C30.5452 77.9751 30.6625 78.1922 30.8176 78.4916C30.9727 78.7909 31.1699 79.2493 31.4092 79.8666C31.6474 80.4839 31.8619 81.1813 32.0525 81.959C32.2422 82.7367 32.4609 84.3182 32.7085 86.7035C32.9561 89.0888 33.1341 90.9987 33.2425 92.4328C33.3509 93.867 33.5575 95.5255 33.8621 97.4082C34.1667 99.2899 34.4181 101.073 34.6162 102.758C34.8143 104.444 34.9124 106.055 34.9106 107.589C34.9087 109.124 34.9185 110.218 34.94 110.871C34.9615 111.524 34.9876 111.959 35.0185 112.176C35.0493 112.393 35.089 112.619 35.1376 112.853C35.1862 113.086 35.2035 113.173 35.1895 113.115C35.1764 113.057 35.1722 113.157 35.1769 113.415C35.2236 113.37 35.2699 113.326 35.3156 113.281" stroke="#3D5330" stroke-width="4" stroke-linecap="round" stroke-linejoin="round"/>
</svg>
