<svg width="518" height="360" viewBox="0 0 518 360" fill="none" xmlns="http://www.w3.org/2000/svg">
<path d="M368.889 198.714C368.867 199.289 368.858 199.539 368.861 199.464C368.856 199.588 368.849 199.774 368.839 200.024C369.433 199.516 369.701 199.288 369.645 199.34C369.59 199.391 369.598 199.384 369.67 199.319C369.742 199.255 369.834 199.158 369.945 199.029C370.057 198.901 370.197 198.737 370.366 198.537C370.535 198.337 370.601 198.266 370.563 198.324C370.526 198.383 370.709 198.15 371.112 197.627C371.517 197.104 371.812 196.656 371.998 196.282C372.184 195.908 372.225 195.796 372.121 195.946C372.018 196.096 372.156 195.922 372.534 195.423C372.914 194.924 373.102 194.648 373.099 194.597C373.096 194.547 373.22 194.402 373.473 194.162C373.725 193.921 373.96 193.717 374.177 193.549C374.395 193.38 374.507 193.305 374.514 193.322C374.522 193.341 374.72 193.259 375.109 193.075C375.199 192.848 375.417 192.461 375.763 191.913C376.108 191.365 376.24 191.133 376.16 191.216C376.079 191.3 376.129 191.2 376.312 190.916C376.494 190.632 376.665 190.382 376.823 190.166C376.981 189.952 377.075 189.842 377.105 189.838C377.136 189.833 377.125 189.856 377.07 189.907C377.016 189.958 377.101 189.859 377.325 189.61C377.549 189.36 377.779 189.102 378.015 188.836C378.253 188.571 378.396 188.387 378.445 188.286C378.495 188.185 378.553 188.076 378.619 187.96C378.685 187.843 378.969 187.331 379.472 186.422C379.974 185.513 380.212 185.055 380.185 185.049C380.157 185.043 380.166 185.018 380.213 184.974C380.261 184.931 380.247 184.951 380.171 185.034C380.095 185.118 380.218 184.756 380.542 183.949C380.865 183.141 381.288 182.268 381.81 181.327C382.333 180.388 382.577 179.95 382.542 180.017C382.508 180.083 382.521 179.939 382.583 179.585C382.644 179.23 382.678 179.057 382.685 179.064C382.69 179.07 382.694 179.076 382.697 179.08C382.7 179.083 382.877 178.286 383.226 176.689C383.576 175.094 384.011 173.357 384.53 171.478C385.05 169.601 385.407 168.192 385.603 167.253C385.801 166.313 385.891 165.742 385.876 165.539C385.861 165.335 385.865 165.024 385.887 164.606C385.908 164.187 385.922 163.837 385.931 163.556C385.938 163.276 385.942 163.001 385.945 162.734C385.946 162.467 385.941 162.49 385.931 162.802C385.92 163.114 385.991 162.629 386.143 161.348C386.294 160.067 386.351 158.906 386.312 157.865C386.274 156.825 386.225 155.787 386.165 154.752C386.106 153.719 386.099 152.967 386.145 152.495C386.19 152.023 386.206 151.735 386.195 151.633C386.184 151.53 386.186 151.365 386.201 151.138C386.216 150.91 386.245 150.467 386.29 149.81C386.334 149.152 386.287 148.294 386.149 147.235C386.011 146.175 385.895 145.467 385.802 145.108C385.708 144.749 385.573 144.428 385.397 144.146C385.222 143.864 385.146 143.702 385.17 143.66C385.193 143.616 385.203 143.506 385.198 143.33C385.195 143.153 385.034 142.81 384.715 142.301C384.397 141.79 384.167 141.464 384.025 141.321C383.882 141.178 383.763 141.004 383.667 140.798C383.571 140.591 383.503 140.435 383.464 140.33C383.424 140.226 383.337 139.989 383.202 139.619C383.067 139.249 382.955 139.043 382.866 139C382.777 138.958 382.759 138.956 382.81 138.991C382.86 139.026 382.733 138.902 382.43 138.616C382.127 138.332 381.921 138.031 381.812 137.713C381.702 137.394 381.626 137.128 381.583 136.914C381.541 136.701 381.084 136.23 380.213 135.5C379.342 134.771 378.596 133.866 377.975 132.786C377.354 131.705 376.838 130.906 376.426 130.385C376.014 129.863 375.637 129.465 375.295 129.192C374.953 128.919 374.634 128.522 374.339 128C374.043 127.479 373.804 127.064 373.621 126.754C373.438 126.446 373.241 126.118 373.032 125.77C372.822 125.421 372.67 125.179 372.576 125.044C372.481 124.908 372.38 124.819 372.273 124.776C372.164 124.734 372.213 124.807 372.418 124.992C372.624 125.18 372.025 124.145 370.623 121.888C369.219 119.63 367.873 117.852 366.585 116.554C365.298 115.256 364.431 114.402 363.982 113.992C363.534 113.581 362.773 113.077 361.698 112.479C360.624 111.881 359.855 111.374 359.39 110.959C358.924 110.543 358.563 110.227 358.304 110.009C358.045 109.791 357.781 109.603 357.511 109.446C357.241 109.29 357.038 109.179 356.902 109.115C356.767 109.051 356.505 108.948 356.116 108.804C355.726 108.66 355.536 108.583 355.548 108.573C355.559 108.562 355.561 108.555 355.552 108.555C355.544 108.555 355.571 108.567 355.634 108.591C355.695 108.615 355.418 108.483 354.803 108.195C354.189 107.905 353.638 107.664 353.15 107.47C352.661 107.276 352.32 107.156 352.128 107.11C351.935 107.064 351.857 107.047 351.892 107.06C351.927 107.074 351.946 107.079 351.95 107.076C351.953 107.073 351.968 107.068 351.994 107.063C352.019 107.058 351.709 106.852 351.063 106.446C350.417 106.039 349.896 105.739 349.497 105.546C349.098 105.354 348.773 105.205 348.523 105.102C348.273 104.998 348.039 104.947 347.82 104.949C347.601 104.95 347.377 104.917 347.148 104.849C346.917 104.781 346.692 104.719 346.472 104.661C346.251 104.604 346.124 104.566 346.09 104.546C346.058 104.526 346.085 104.525 346.172 104.541C346.258 104.559 345.869 104.433 345.005 104.165C344.139 103.898 343.21 103.646 342.217 103.408C341.223 103.171 340.517 103.031 340.099 102.99C339.68 102.948 339.359 102.926 339.137 102.922C338.914 102.919 338.641 102.931 338.317 102.957C337.994 102.983 337.723 102.931 337.504 102.8C337.284 102.671 335.903 102.609 333.362 102.613C330.819 102.618 328.779 102.724 327.241 102.935C325.702 103.146 324.644 103.335 324.067 103.499C323.489 103.663 322.943 103.83 322.429 104.001C321.915 104.171 321.438 104.255 320.999 104.251C320.56 104.248 319.835 104.5 318.822 105.008C317.809 105.519 316.864 106.007 315.986 106.473C315.108 106.938 314.458 107.286 314.037 107.516C313.615 107.747 313.305 107.89 313.108 107.947C312.912 108.005 312.676 108.063 312.401 108.123C312.125 108.181 311.821 108.261 311.487 108.363C311.152 108.465 310.875 108.56 310.655 108.646C310.436 108.733 310.291 108.799 310.222 108.846C310.152 108.892 310.051 108.967 309.918 109.071C309.787 109.174 308.896 109.466 307.245 109.946C305.594 110.427 304.305 110.867 303.376 111.268C302.465 111.675 301.855 112.08 301.548 112.482C301.257 112.891 301.049 113.269 300.925 113.615C300.801 113.962 300.654 114.205 300.484 114.343C300.314 114.482 299.937 114.851 299.352 115.451C298.767 116.051 298.281 116.672 297.895 117.315C297.509 117.96 297.255 118.419 297.132 118.691C297.009 118.964 296.809 119.441 296.531 120.12C296.254 120.8 295.881 121.556 295.414 122.389C294.948 123.222 294.706 123.696 294.688 123.811C294.672 123.925 294.418 124.297 293.928 124.928C293.438 125.56 293.004 126.122 292.625 126.613C292.247 127.103 291.909 127.798 291.613 128.697C291.318 129.595 291.015 130.286 290.704 130.77C290.392 131.255 289.863 132.545 289.115 134.637C288.367 136.73 287.663 139.014 287.002 141.487C286.34 143.96 285.777 146.274 285.311 148.429C284.845 150.583 284.391 152.422 283.95 153.946C283.508 155.469 283.175 156.976 282.953 158.466C282.732 159.957 282.949 161.889 283.604 164.263C284.26 166.637 284.768 168.505 285.128 169.865C285.487 171.227 285.703 172.289 285.775 173.051C285.847 173.815 286.071 175.081 286.446 176.85C286.821 178.62 287.141 180.063 287.408 181.178C287.675 182.293 287.874 183.094 288.004 183.582C288.134 184.068 288.278 184.573 288.436 185.097C288.595 185.621 288.728 185.993 288.835 186.213C288.942 186.432 289.095 186.731 289.293 187.111C289.49 187.492 289.624 187.769 289.694 187.941C289.764 188.113 289.877 188.359 290.033 188.681C290.19 189.003 290.307 189.225 290.385 189.344C290.462 189.464 290.427 189.424 290.28 189.225C290.133 189.027 290.478 189.503 291.314 190.652C292.151 191.802 293.164 193.139 294.355 194.661C295.545 196.184 296.617 197.399 297.57 198.305C298.523 199.212 299.227 199.904 299.683 200.382C300.14 200.859 300.467 201.138 300.664 201.218C300.862 201.299 301.048 201.542 301.221 201.948C301.393 202.354 301.915 202.857 302.788 203.458C303.66 204.059 304.41 204.489 305.038 204.751C305.665 205.012 306.256 205.334 306.81 205.714C307.365 206.093 307.971 206.419 308.628 206.692C309.285 206.964 309.909 207.216 310.5 207.45C311.09 207.684 312.077 208.094 313.46 208.679C314.841 209.265 316.135 209.733 317.339 210.084C318.543 210.435 319.429 210.687 320 210.839C320.569 210.991 320.934 211.084 321.095 211.117C321.255 211.149 321.4 211.188 321.528 211.234C321.657 211.281 321.843 211.325 322.083 211.367C322.324 211.408 322.494 211.426 322.592 211.42C322.69 211.414 323.535 211.608 325.127 212.003C326.721 212.398 328.482 212.586 330.41 212.57C332.339 212.553 333.826 212.461 334.87 212.292C335.915 212.122 336.637 211.992 337.038 211.901C337.438 211.811 337.798 211.738 338.116 211.682C338.435 211.627 338.529 211.61 338.399 211.631C338.268 211.651 338.658 211.603 339.569 211.486C340.479 211.369 342.345 210.923 345.167 210.148C347.989 209.373 350.08 208.738 351.44 208.245C352.8 207.752 353.742 207.472 354.265 207.403C354.789 207.333 355.472 207.176 356.314 206.931C357.157 206.686 357.785 206.533 358.198 206.471C358.611 206.409 359.507 206.115 360.888 205.589C362.27 205.062 363.273 204.629 363.896 204.29C364.52 203.951 364.975 203.659 365.262 203.415C365.55 203.171 365.716 203.038 365.761 203.014C365.806 202.99 365.889 202.913 366.011 202.783C366.133 202.652 366.349 202.445 366.659 202.161C366.967 201.877 367.117 201.734 367.106 201.732C367.096 201.73 367.089 201.732 367.087 201.737C367.084 201.742 367.083 201.743 367.084 201.74C367.084 201.736 367.262 201.543 367.618 201.16C367.973 200.778 368.156 200.59 368.165 200.596C368.175 200.602 368.162 200.619 368.124 200.646C368.088 200.672 368.079 200.678 368.096 200.664C368.113 200.65 368.199 200.582 368.354 200.46C368.51 200.339 368.918 199.807 369.579 198.865C370.24 197.923 370.806 197.158 371.275 196.57C371.744 195.981 371.947 195.726 371.883 195.807C371.82 195.886 372.005 195.749 372.439 195.396C372.874 195.042 373.108 194.827 373.143 194.751C373.178 194.675 373.197 194.623 373.199 194.596C373.2 194.569 373.165 194.6 373.094 194.688C373.024 194.777 373.487 194.134 374.483 192.76C375.48 191.386 376.273 190.068 376.861 188.806C377.449 187.545 377.78 186.678 377.853 186.206C377.927 185.734 377.924 185.435 377.845 185.307" stroke="#3D5330" stroke-width="4" stroke-linecap="round" stroke-linejoin="round"/>
<path d="M458.544 242.704C458.485 242.577 458.427 242.449 458.37 242.322C457.643 242.188 457.354 242.114 457.503 242.102C456.621 241.744 456.244 241.586 456.371 241.627C456.497 241.668 456.487 241.682 456.34 241.672C456.194 241.663 456.085 241.658 456.014 241.657C455.943 241.655 455.65 241.432 455.133 240.989C454.616 240.546 453.56 240.398 451.964 240.543C450.37 240.688 449.21 240.942 448.484 241.305C447.759 241.67 447.199 241.96 446.802 242.176C446.406 242.391 446.122 242.549 445.951 242.649C445.779 242.749 445.705 242.786 445.729 242.76C445.754 242.734 445.727 242.747 445.648 242.799C445.568 242.851 445.285 243.032 444.798 243.34C444.31 243.648 444.069 243.795 444.074 243.782C444.079 243.769 444.065 243.781 444.03 243.816C443.995 243.852 443.984 243.879 443.999 243.895C444.014 243.91 443.76 244.063 443.237 244.354C442.716 244.645 442.034 245.245 441.191 246.155C440.349 247.067 439.775 247.869 439.472 248.563C439.168 249.258 438.972 249.731 438.885 249.982C438.798 250.233 438.745 250.411 438.726 250.516C438.706 250.623 438.687 250.675 438.67 250.674C438.651 250.674 438.535 250.998 438.322 251.646C438.109 252.295 437.968 252.593 437.9 252.541C437.685 253.383 437.577 253.754 437.576 253.654C437.486 254.111 437.406 254.306 437.335 254.238C437.335 254.012 437.337 253.977 437.341 254.134C437.346 254.291 437.35 254.292 437.356 254.137C437.361 253.981 437.351 253.944 437.326 254.023C437.301 254.1 437.285 254.135 437.279 254.127C437.272 254.119 437.291 254.108 437.338 254.093C437.384 254.079 437.382 254.061 437.332 254.04C437.282 254.02 437.26 254.027 437.266 254.059C437.273 254.091 437.277 254.115 437.279 254.132C437.282 254.15 437.213 254.677 437.071 255.714C436.929 256.75 436.875 257.263 436.908 257.253C436.698 258.033 436.612 258.358 436.652 258.229C436.692 258.1 436.706 258.061 436.694 258.112C436.682 258.163 436.669 258.428 436.655 258.907C436.64 259.387 436.632 259.613 436.631 259.586C436.666 260.012 436.72 260.211 436.796 260.185C436.758 260.324 436.759 260.639 436.799 261.129C436.839 261.619 436.908 262.07 437.004 262.483C437.1 262.895 437.227 263.348 437.387 263.843C437.547 264.338 437.623 264.551 437.612 264.482C437.602 264.414 437.635 264.423 437.711 264.511C437.786 264.599 437.835 264.636 437.859 264.621C437.883 264.608 437.94 264.931 438.03 265.592C438.118 266.251 438.469 267.052 439.083 267.995C439.696 268.938 440.381 269.813 441.138 270.621C441.894 271.427 442.257 271.792 442.228 271.717C442.198 271.642 442.356 271.713 442.704 271.928C443.052 272.144 443.073 272.196 442.766 272.085C442.46 271.974 442.715 272.171 443.533 272.675C444.352 273.179 445.044 273.552 445.612 273.794C446.178 274.035 446.869 274.257 447.684 274.459C448.5 274.661 449.161 274.833 449.666 274.975C450.171 275.116 450.526 275.195 450.73 275.21C450.934 275.224 451.443 275.276 452.255 275.367C453.068 275.458 453.545 275.506 453.687 275.513C453.828 275.518 454.319 275.581 455.159 275.703C455.998 275.824 456.889 275.84 457.83 275.751C458.772 275.662 459.501 275.574 460.019 275.487C460.536 275.4 460.882 275.334 461.056 275.291C461.229 275.246 461.331 275.222 461.361 275.219C461.391 275.216 461.456 275.201 461.556 275.175C461.656 275.149 461.554 275.163 461.25 275.217C460.945 275.272 462.467 274.7 465.814 273.505C465.968 273.315 466.076 273.212 466.138 273.196C466.2 273.18 466.228 273.174 466.223 273.179C466.216 273.186 466.229 273.175 466.262 273.148C466.294 273.121 466.313 273.108 466.32 273.109C466.327 273.109 466.516 272.947 466.886 272.622C467.256 272.297 467.5 272.082 467.616 271.976C467.733 271.87 467.819 271.778 467.874 271.699C467.93 271.619 467.994 271.567 468.067 271.542C468.139 271.516 468.513 271.173 469.19 270.512C469.867 269.852 470.529 268.941 471.177 267.781C471.823 266.621 472.216 265.785 472.354 265.273C472.493 264.761 472.638 264.306 472.788 263.907C472.938 263.509 473.012 263.097 473.01 262.67C473.008 262.243 473.014 262.153 473.029 262.4C473.043 262.645 473.159 262.252 473.374 261.218C473.59 260.184 473.667 259.361 473.606 258.751C473.544 258.14 473.513 257.612 473.51 257.168C473.507 256.725 473.514 256.395 473.529 256.178C473.544 255.959 473.543 255.832 473.528 255.798C473.513 255.765 473.517 255.763 473.54 255.79C473.563 255.817 473.516 255.507 473.398 254.861C473.28 254.215 473.171 253.658 473.071 253.191C472.971 252.726 472.81 252.253 472.588 251.771C472.365 251.29 472.22 250.95 472.151 250.751C472.082 250.553 471.874 250.182 471.525 249.638C471.176 249.094 470.91 248.689 470.726 248.421C470.543 248.154 470.367 247.895 470.199 247.645C470.031 247.394 469.966 247.3 470.005 247.366C470.045 247.431 470.052 247.447 470.027 247.413C470.001 247.379 470.012 247.39 470.06 247.446C470.108 247.502 470.095 247.486 470.021 247.397C469.947 247.309 469.749 247.112 469.428 246.805C469.106 246.499 468.883 246.285 468.761 246.164C468.64 246.045 468.585 245.999 468.596 246.029C468.606 246.058 468.612 246.084 468.613 246.107C468.615 246.131 468.633 246.108 468.668 246.039C468.702 245.971 468.428 245.733 467.846 245.326C467.264 244.92 466.903 244.687 466.762 244.629C466.621 244.57 466.559 244.544 466.574 244.548C466.59 244.553 466.433 244.495 466.102 244.375C465.771 244.255 465.318 244.092 464.741 243.885C464.166 243.678 463.866 243.562 463.842 243.535C463.818 243.507 463.599 243.448 463.186 243.358C462.773 243.269 462.558 243.224 462.54 243.224C462.522 243.224 462.537 243.234 462.586 243.255C462.635 243.276 462.461 243.233 462.063 243.126C461.666 243.019 461.274 242.953 460.887 242.927C460.501 242.901 460.36 242.883 460.464 242.872C460.57 242.863 460.608 242.862 460.58 242.871C460.551 242.88 460.548 242.883 460.571 242.88C460.594 242.876 460.58 242.849 460.529 242.8C460.478 242.752 460.304 242.717 460.009 242.697C459.715 242.679 459.444 242.668 459.196 242.665C458.949 242.663 458.572 242.668 458.067 242.681C457.562 242.695 457.436 242.69 457.688 242.666C457.941 242.642 457.635 242.642 456.768 242.666C455.902 242.689 454.879 242.671 453.699 242.613C453.644 242.423 453.618 242.267 453.622 242.143" stroke="#3D5330" stroke-width="4" stroke-linecap="round" stroke-linejoin="round"/>
<path d="M415.857 251.516C415.862 251.391 415.867 251.265 415.871 251.14C415.996 251.146 416.121 251.151 416.246 251.156C416.248 251.094 416.251 251.031 416.254 250.969C416.964 251.235 417.015 252.503 416.407 254.771C415.799 257.039 415.462 258.967 415.397 260.553C415.331 262.14 415.506 263.961 415.922 266.016C416.338 268.072 416.87 270.05 417.518 271.949C417.523 271.824 417.528 271.7 417.532 271.576C417.537 271.451 417.542 271.325 417.548 271.2" stroke="#3D5330" stroke-width="4" stroke-linecap="round" stroke-linejoin="round"/>
<path d="M426.292 231.784C425.93 231.881 425.775 231.916 425.826 231.888C425.877 231.859 425.901 231.849 425.898 231.86C425.895 231.87 425.883 231.871 425.863 231.861C425.845 231.852 425.767 231.669 425.63 231.311C425.555 231.388 425.549 231.391 425.613 231.319C425.677 231.248 425.879 231.037 426.22 230.685C426.561 230.332 426.842 229.996 427.062 229.677C427.281 229.357 427.473 229.12 427.639 228.966C427.806 228.811 427.83 228.77 427.712 228.845C427.594 228.921 427.867 228.712 428.53 228.217C429.195 227.724 429.835 227.257 430.45 226.817C431.065 226.379 431.466 226.074 431.651 225.902C431.885 225.732 432.27 225.52 432.806 225.267C433.342 225.014 433.992 224.723 434.756 224.394C435.52 224.065 436.124 223.818 436.571 223.652C437.016 223.487 437.339 223.369 437.541 223.297C437.742 223.225 437.924 223.163 438.087 223.109C438.249 223.057 438.403 223.006 438.548 222.956C438.693 222.906 438.772 222.879 438.784 222.874C438.796 222.867 438.817 222.87 438.848 222.881C438.88 222.893 439.138 222.806 439.624 222.62C440.111 222.435 440.624 222.15 441.163 221.766C441.265 221.835 441.371 221.921 441.483 222.025C441.832 221.808 441.986 221.671 441.946 221.617C442.381 221.298 442.613 221.131 442.64 221.114C442.666 221.098 442.665 221.091 442.637 221.095C442.898 220.986 443.025 220.962 443.019 221.023" stroke="#3D5330" stroke-width="4" stroke-linecap="round" stroke-linejoin="round"/>
<path d="M464.319 222.916C464.326 222.893 464.328 222.881 464.324 222.88C464.319 222.879 464.244 222.799 464.097 222.638C463.951 222.477 463.796 222.314 463.634 222.149C463.472 221.986 463.414 221.926 463.459 221.972C463.503 222.018 463.548 222.059 463.593 222.096C463.637 222.131 463.484 221.997 463.135 221.694C463.514 222.058 463.665 222.181 463.587 222.063C463.81 222.117 464.328 222.244 465.142 222.444C465.954 222.643 466.693 222.84 467.36 223.033C468.025 223.227 468.566 223.39 468.984 223.522C469.402 223.655 469.694 223.759 469.86 223.836C470.025 223.913 470.092 223.949 470.06 223.941C470.026 223.932 470.16 224.02 470.462 224.205C470.763 224.389 470.959 224.514 471.05 224.581C471.14 224.648 471.369 224.828 471.737 225.121C472.105 225.412 472.48 225.748 472.861 226.129C473.243 226.508 473.529 226.761 473.719 226.889C473.908 227.018 474.056 227.123 474.163 227.207C474.269 227.29 474.353 227.354 474.415 227.398C474.476 227.441 474.795 227.754 475.372 228.335C475.949 228.918 476.284 229.237 476.379 229.296C476.474 229.354 476.73 229.642 477.146 230.159C477.561 230.675 477.998 231.277 478.458 231.965C478.539 231.821 478.619 231.678 478.699 231.537" stroke="#3D5330" stroke-width="4" stroke-linecap="round" stroke-linejoin="round"/>
<path d="M489.069 251.267C489.821 251.093 490.081 251.045 489.849 251.121C490.089 251.136 490.182 251.14 490.128 251.133C490.074 251.126 490.194 251.17 490.488 251.266C490.782 251.363 490.893 251.398 490.822 251.373C490.75 251.348 490.71 251.338 490.7 251.342C490.692 251.346 490.793 251.362 491.002 251.389C491.002 251.388 491.021 251.444 491.059 251.556C491.097 251.669 491.151 251.83 491.221 252.039C491.292 252.248 491.32 252.33 491.306 252.286C491.29 252.241 491.292 252.245 491.31 252.297C491.328 252.348 491.357 252.453 491.398 252.612C491.439 252.771 491.464 252.858 491.475 252.873C491.485 252.889 491.546 253.008 491.656 253.231C491.768 253.453 491.839 253.495 491.87 253.356C491.903 253.218 492.019 253.763 492.218 254.992C492.417 256.22 492.541 257.265 492.588 258.124C492.636 258.983 492.606 259.67 492.496 260.185C492.388 260.698 492.261 261.662 492.115 263.076C491.97 264.489 491.83 265.738 491.697 266.823C491.562 267.908 491.383 268.828 491.159 269.584C491.055 269.482 490.997 269.423 490.984 269.41" stroke="#3D5330" stroke-width="4" stroke-linecap="round" stroke-linejoin="round"/>
<path d="M461.042 298.207C461.108 298.286 461.142 298.323 461.145 298.319C461.148 298.316 461.159 298.314 461.178 298.313C461.196 298.313 461.198 298.311 461.186 298.308C461.173 298.306 461.225 298.333 461.341 298.388C461.456 298.442 461.64 298.475 461.89 298.485C462.14 298.495 462.398 298.49 462.663 298.474C462.926 298.458 463.146 298.421 463.323 298.362C463.499 298.302 463.519 298.279 463.384 298.293C463.247 298.307 463.487 298.236 464.105 298.078C464.722 297.921 465.339 297.813 465.954 297.755C466.569 297.698 466.992 297.629 467.224 297.549C467.457 297.468 467.658 297.349 467.828 297.194C467.997 297.039 468.077 296.971 468.067 296.99C468.058 297.007 468.292 296.978 468.771 296.902C469.249 296.825 469.69 296.717 470.096 296.578C470.502 296.439 470.873 296.32 471.211 296.221C471.549 296.121 471.744 296.037 471.795 295.97C471.847 295.903 472.149 295.709 472.7 295.391C473.253 295.073 473.73 294.77 474.132 294.48C474.533 294.192 474.772 293.988 474.847 293.871C474.922 293.753 474.973 293.684 475 293.664C475.026 293.645 475.062 293.626 475.108 293.605C475.153 293.585 475.177 293.563 475.181 293.537C475.184 293.512 475.197 293.487 475.217 293.464C475.238 293.441 475.242 293.419 475.23 293.398C475.217 293.378 475.334 293.294 475.58 293.146C475.825 292.998 476.056 292.873 476.272 292.771C476.488 292.667 476.609 292.611 476.635 292.602C476.661 292.592 476.646 292.6 476.589 292.626C476.532 292.652 476.633 292.625 476.891 292.547C477.15 292.47 477.354 292.392 477.504 292.314C477.654 292.236 477.756 292.174 477.808 292.128C477.859 292.081 478.003 291.946 478.24 291.721" stroke="#3D5330" stroke-width="4" stroke-linecap="round" stroke-linejoin="round"/>
<path d="M426.184 288.307C426.217 288.405 426.234 288.453 426.234 288.453C426.234 288.453 426.253 288.476 426.292 288.522C426.331 288.567 426.343 288.627 426.33 288.702C426.316 288.776 426.418 288.972 426.636 289.289C426.854 289.606 427.177 289.965 427.606 290.367C428.034 290.769 428.404 291.016 428.718 291.105C429.031 291.195 429.195 291.243 429.209 291.25C429.223 291.256 429.243 291.262 429.269 291.266C429.295 291.269 429.456 291.311 429.751 291.39C430.046 291.47 430.204 291.519 430.225 291.538C430.245 291.557 430.308 291.595 430.411 291.652C430.513 291.71 431.009 291.909 431.898 292.25C432.787 292.592 433.416 292.756 433.786 292.741C434.156 292.726 436.455 293.247 440.683 294.302C440.572 294.182 440.739 294.146 441.185 294.191L441.203 294.242C441.238 294.231 441.374 294.25 441.609 294.299" stroke="#3D5330" stroke-width="4" stroke-linecap="round" stroke-linejoin="round"/>
<path d="M438.939 295.545C438.961 295.537 438.872 295.386 438.671 295.094C438.717 295.411 438.731 295.568 438.714 295.563C438.713 294.98 438.851 300.804 439.128 313.036C439.169 313.055 439.262 313.101 439.406 313.173" stroke="#3D5330" stroke-width="4" stroke-linecap="round" stroke-linejoin="round"/>
<path d="M463.775 298.752C463.619 298.779 463.318 298.764 462.872 298.709C462.886 298.865 462.871 298.86 462.827 298.694C462.782 298.525 462.685 298.783 462.537 299.467C462.389 300.151 462.352 300.854 462.426 301.578C462.499 302.303 462.523 302.807 462.498 303.091C462.472 303.375 462.453 303.452 462.44 303.323C462.428 303.194 462.455 303.342 462.522 303.767C462.588 304.192 462.613 305.323 462.595 307.161C462.576 308.999 462.509 310.447 462.394 311.507C462.277 312.565 462.228 313.31 462.246 313.741C462.264 314.172 462.271 314.488 462.268 314.689C462.264 314.889 462.266 314.969 462.273 314.929C462.28 314.888 462.298 314.88 462.325 314.905C462.352 314.929 462.334 314.973 462.27 315.036C462.205 315.102 462.053 315.196 461.813 315.319C461.574 315.443 461.438 315.511 461.403 315.524" stroke="#3D5330" stroke-width="4" stroke-linecap="round" stroke-linejoin="round"/>
<path d="M437.795 309.085C437.497 309.255 437.419 310.027 437.561 311.401C437.703 312.776 437.772 313.848 437.77 314.616C437.768 315.385 437.848 315.912 438.008 316.197C438.168 316.481 438.295 316.675 438.391 316.779C438.487 316.883 438.537 316.924 438.542 316.905C438.546 316.886 438.52 316.874 438.465 316.869C438.409 316.864 438.545 316.89 438.873 316.945C439.203 317 440.175 317.056 441.79 317.112C443.407 317.166 444.867 317.156 446.17 317.081C447.474 317.006 448.397 316.952 448.939 316.92C449.48 316.888 450.121 316.876 450.862 316.884C451.602 316.891 451.986 316.889 452.013 316.878C452.041 316.865 452.495 316.814 453.375 316.725C454.255 316.634 454.965 316.551 455.508 316.476C456.049 316.402 456.424 316.368 456.634 316.373C456.844 316.378 457.203 316.188 457.71 315.803C458.217 315.418 458.766 315.096 459.359 314.837C459.951 314.577 460.288 314.433 460.369 314.406" stroke="#3D5330" stroke-width="4" stroke-linecap="round" stroke-linejoin="round"/>
<path d="M479.142 291.763C478.726 291.635 478.55 291.639 478.615 291.777C478.679 291.914 478.71 291.971 478.707 291.947C478.704 291.923 478.702 291.918 478.701 291.931C478.7 291.945 478.743 291.991 478.832 292.069C478.922 292.147 479.009 292.226 479.093 292.304C479.178 292.38 479.193 292.417 479.139 292.416C479.084 292.415 479.246 292.503 479.622 292.681C479.998 292.86 480.846 293.419 482.166 294.358C483.484 295.298 484.471 296.112 485.128 296.801C485.784 297.488 486.3 298.04 486.675 298.457C487.051 298.875 487.335 299.211 487.528 299.465C487.722 299.719 487.87 299.895 487.972 299.993C488.073 300.09 488.118 300.131 488.107 300.116C488.095 300.101 488.083 300.105 488.069 300.13C488.057 300.155 488.51 300.468 489.428 301.068C489.776 300.866 489.895 300.78 489.785 300.812C489.886 300.695 489.947 300.661 489.967 300.71C489.986 300.759 490.063 300.38 490.198 299.574C490.227 299.564 490.262 299.552 490.301 299.54" stroke="#3D5330" stroke-width="4" stroke-linecap="round" stroke-linejoin="round"/>
<path d="M489.774 300.95C489.74 301 489.834 301.278 490.056 301.782C490.646 301.989 491.579 301.361 492.855 299.897C494.13 298.433 495.077 297.299 495.695 296.497C496.314 295.693 496.844 295.093 497.286 294.695C497.728 294.297 498.29 293.843 498.971 293.331C499.651 292.82 500.352 291.939 501.073 290.69C501.794 289.442 502.37 288.346 502.8 287.401C503.23 286.456 503.471 285.767 503.523 285.333C503.574 284.899 503.612 284.55 503.637 284.29C503.661 284.03 503.676 283.947 503.681 284.042C503.687 284.137 503.685 284.059 503.673 283.808C503.663 283.556 503.656 283.314 503.654 283.084C503.651 282.853 503.645 282.675 503.636 282.548C503.625 282.422 503.608 282.325 503.585 282.256" stroke="#3D5330" stroke-width="4" stroke-linecap="round" stroke-linejoin="round"/>
<path d="M490.669 271.909C490.843 271.961 490.942 271.989 490.966 271.992C490.989 271.997 491.107 272.001 491.32 272.008C491.533 272.015 491.63 272.025 491.609 272.039C491.588 272.052 491.565 272.034 491.54 271.984C491.515 271.933 492.346 272.184 494.034 272.736C495.722 273.288 497.119 273.824 498.226 274.345C499.331 274.866 500.257 275.443 501.002 276.076C501.748 276.711 502.35 277.227 502.808 277.624C503.266 278.021 503.634 278.344 503.91 278.594C504.187 278.844 504.387 279.007 504.51 279.083C504.633 279.159 504.696 279.209 504.7 279.233C504.705 279.258 504.698 279.257 504.68 279.23C504.662 279.203 504.666 279.203 504.691 279.23C504.716 279.258 504.698 279.248 504.636 279.2C504.575 279.152 504.816 279.368 505.359 279.847" stroke="#3D5330" stroke-width="4" stroke-linecap="round" stroke-linejoin="round"/>
<path d="M492.467 250.008C492.444 250.054 492.34 250.127 492.155 250.228C492.419 250.333 492.546 250.379 492.537 250.367C492.528 250.357 492.549 250.352 492.603 250.351C492.656 250.349 492.659 250.36 492.614 250.382C492.569 250.404 493.466 250.328 495.304 250.155C497.142 249.982 498.675 249.819 499.905 249.666C501.134 249.513 501.986 249.352 502.461 249.185C502.934 249.017 503.33 248.931 503.648 248.925C503.966 248.921 504.27 248.914 504.561 248.903C504.852 248.894 504.989 248.889 504.971 248.888C504.955 248.887 504.955 248.887 504.971 248.888C504.988 248.889 504.989 248.888 504.974 248.885C504.961 248.883 504.968 248.883 504.996 248.886C505.025 248.889 505.008 248.887 504.945 248.88C504.88 248.874 504.849 248.87 504.851 248.869C504.854 248.867 504.882 248.87 504.935 248.877C504.988 248.885 505.031 248.886 505.064 248.883C505.096 248.88 505.089 248.88 505.042 248.883C504.995 248.885 505.091 248.899 505.329 248.924C505.568 248.949 505.785 248.958 505.98 248.951C506.176 248.943 506.347 248.912 506.492 248.858C506.637 248.805 506.744 248.748 506.812 248.687" stroke="#3D5330" stroke-width="4" stroke-linecap="round" stroke-linejoin="round"/>
<path d="M479.503 229.336C479.492 229.456 479.492 229.611 479.503 229.799C479.788 229.897 479.937 229.944 479.949 229.941C479.962 229.937 479.968 229.936 479.968 229.937C479.967 229.939 480.054 229.964 480.229 230.014C480.403 230.067 480.501 230.062 480.523 229.999C480.545 229.938 480.499 229.937 480.384 229.996C480.27 230.054 480.68 230.045 481.613 229.968C482.548 229.89 483.426 229.632 484.248 229.194C485.069 228.757 485.723 228.327 486.209 227.906C486.695 227.484 486.929 227.295 486.912 227.338C486.893 227.379 487.483 227.067 488.681 226.403C489.878 225.741 490.726 225.24 491.226 224.9C491.725 224.562 492.13 224.303 492.441 224.124C492.751 223.944 492.959 223.833 493.064 223.789C493.168 223.747 493.215 223.731 493.203 223.743C493.192 223.753 493.247 223.708 493.37 223.608C493.493 223.507 493.925 223.38 494.666 223.226C494.967 223.613 495.102 223.671 495.071 223.399C495.117 223.382 495.232 223.343 495.416 223.281C495.429 223.316 495.441 223.351 495.452 223.385" stroke="#3D5330" stroke-width="4" stroke-linecap="round" stroke-linejoin="round"/>
<path d="M495.781 221.269C495.8 221.327 495.819 221.385 495.839 221.443C495.672 221.61 495.615 221.706 495.667 221.732C495.627 221.998 495.633 222.131 495.686 222.131C495.841 222.431 495.928 222.575 495.947 222.563C495.822 222.488 495.849 222.529 496.028 222.684C496.206 222.838 496.425 223.02 496.685 223.228C496.946 223.434 497.228 223.677 497.531 223.956C497.835 224.236 498.019 224.407 498.084 224.47C498.148 224.532 498.171 224.565 498.151 224.567C498.131 224.569 498.119 224.564 498.113 224.552C498.109 224.541 498.431 224.816 499.08 225.376C499.73 225.937 500.567 227.167 501.592 229.068C502.617 230.968 503.524 232.814 504.311 234.606C505.098 236.397 505.633 237.636 505.914 238.323C506.196 239.01 506.552 239.863 506.983 240.883C507.414 241.903 507.845 243.812 508.275 246.611C508.205 246.52 508.129 246.381 508.048 246.195C507.967 246.011 507.902 245.849 507.855 245.711" stroke="#3D5330" stroke-width="4" stroke-linecap="round" stroke-linejoin="round"/>
<path d="M464.874 209.459C464.836 209.235 464.792 208.876 464.743 208.384C464.761 208.344 464.752 208.335 464.716 208.355C464.682 208.376 464.614 208.432 464.511 208.524C464.41 208.615 464.323 208.719 464.25 208.835C464.177 208.951 464.135 208.963 464.123 208.873C464.112 208.782 464.093 209.15 464.065 209.976C464.038 210.802 464.054 211.641 464.111 212.495C464.168 213.349 464.213 214.043 464.244 214.577C464.275 215.111 464.292 215.567 464.294 215.945C464.296 216.322 464.27 216.735 464.216 217.185C464.161 217.635 464.135 217.925 464.137 218.053C464.141 218.18 463.983 219.155 463.665 220.976C463.745 220.599 463.817 219.562 463.881 217.864C463.943 216.167 463.98 215.277 463.992 215.196" stroke="#3D5330" stroke-width="4" stroke-linecap="round" stroke-linejoin="round"/>
<path d="M435.875 209.339C436.301 208.784 436.451 208.599 436.323 208.783C436.525 208.487 436.623 208.338 436.618 208.337C436.622 208.417 436.954 207.951 437.614 206.94C438.057 207.601 438.21 209.172 438.074 211.655C437.936 214.138 438.281 217.889 439.109 222.907C439.062 222.78 439.018 222.653 438.975 222.526" stroke="#3D5330" stroke-width="4" stroke-linecap="round" stroke-linejoin="round"/>
<path d="M438.307 207.425C438.589 207.344 438.723 207.311 438.709 207.325C438.696 207.339 438.714 207.342 438.764 207.334C438.813 207.326 438.816 207.319 438.772 207.314C438.743 207.309 438.775 207.313 438.87 207.326C438.979 207.342 439.48 207.285 440.375 207.155C441.335 207.026 442.321 206.589 443.335 205.841C444.348 205.092 445.332 204.501 446.286 204.07C447.24 203.639 448.066 203.384 448.766 203.305C449.465 203.224 450.022 203.271 450.435 203.445C450.848 203.618 451.34 203.722 451.91 203.758C452.48 203.793 453.554 204.069 455.129 204.586C456.705 205.103 458.172 205.704 459.531 206.387C460.89 207.071 461.825 207.582 462.336 207.918C462.848 208.255 463.451 208.725 464.146 209.327C464.841 209.929 466.186 211.749 468.18 214.787" stroke="#3D5330" stroke-width="4" stroke-linecap="round" stroke-linejoin="round"/>
<path d="M408.225 222.638C408.222 222.462 408.305 222.858 408.472 223.827C408.395 223.572 408.284 223.3 408.14 223.013C408.237 223.493 408.278 223.673 408.264 223.551C408.258 223.686 408.249 223.747 408.236 223.733C408.221 223.72 408.224 223.739 408.245 223.79C408.267 223.84 408.315 223.922 408.389 224.035C408.463 224.15 408.498 224.198 408.494 224.182C408.489 224.165 408.493 224.176 408.503 224.215C408.513 224.254 408.633 224.432 408.863 224.749C409.092 225.065 409.316 225.301 409.534 225.454C409.752 225.607 409.904 225.72 409.991 225.793C410.077 225.866 410.169 225.946 410.266 226.035C410.364 226.123 410.605 226.296 410.989 226.557C411.372 226.817 411.639 227.061 411.788 227.288C411.936 227.515 413.085 228.143 415.234 229.171C417.382 230.2 419.314 231.14 421.028 231.991C422.742 232.843 424.355 233.415 425.866 233.709C425.939 233.715 425.926 233.509 425.826 233.09C425.727 232.67 425.661 232.414 425.63 232.323" stroke="#3D5330" stroke-width="4" stroke-linecap="round" stroke-linejoin="round"/>
<path d="M398.581 243.463C398.557 243.393 398.51 243.255 398.44 243.048C398.21 242.999 398.75 243.031 400.061 243.144C401.372 243.258 402.57 243.471 403.654 243.786C404.74 244.101 405.533 244.35 406.033 244.535C406.535 244.719 407.003 244.915 407.437 245.122C407.973 245.327 408.649 245.703 409.467 246.247C410.283 246.793 411.046 247.366 411.755 247.965C412.465 248.563 413.19 249.15 413.933 249.727" stroke="#3D5330" stroke-width="4" stroke-linecap="round" stroke-linejoin="round"/>
<path d="M399.641 243.661C399.301 243.462 399.13 243.232 399.128 242.97C399.127 242.71 399.143 242.634 399.175 242.744C399.207 242.854 399.17 242.637 399.062 242.093C398.955 241.551 399.405 240.225 400.412 238.117C401.42 236.008 402.353 234.177 403.211 232.621C404.069 231.066 404.715 229.848 405.149 228.967C405.583 228.084 406.251 227.332 407.153 226.711C408.056 226.088 408.729 225.646 409.172 225.385C409.614 225.124 409.961 224.985 410.211 224.968C410.461 224.952 410.77 224.917 411.137 224.86" stroke="#3D5330" stroke-width="4" stroke-linecap="round" stroke-linejoin="round"/>
<path d="M403.253 273.693C403.05 273.556 402.478 273.569 401.536 273.73C400.595 273.892 399.634 274.255 398.651 274.82C398.817 275.149 400.027 275.049 402.282 274.522C404.538 273.995 406.511 273.526 408.201 273.115C409.892 272.703 411.415 272.393 412.77 272.184C414.126 271.974 415.06 271.837 415.572 271.771C416.083 271.705 416.483 271.622 416.773 271.522C417.062 271.423 417.207 271.373 417.208 271.37C417.209 271.368 417.241 271.357 417.304 271.338C417.365 271.319 417.527 271.334 417.789 271.385C418.05 271.435 418.18 271.466 418.178 271.477C418.176 271.488 418.159 271.489 418.128 271.48C418.232 271.522 418.337 271.621 418.443 271.779" stroke="#3D5330" stroke-width="4" stroke-linecap="round" stroke-linejoin="round"/>
<path d="M397.805 277.572C397.607 277.266 397.494 277.124 397.467 277.145C397.521 277.287 397.289 276.903 396.77 275.993C396.892 275.898 396.94 275.825 396.914 275.774C396.887 275.722 397.096 275.806 397.539 276.027C397.983 276.249 398.279 276.492 398.425 276.758C398.572 277.025 398.684 277.255 398.761 277.448C398.839 277.642 398.933 277.9 399.042 278.222C399.151 278.544 399.213 278.684 399.23 278.642C399.247 278.601 399.537 279.66 400.1 281.821C400.663 283.98 401.257 285.917 401.882 287.632C402.506 289.345 403.236 290.898 404.072 292.291C404.906 293.684 405.642 294.74 406.279 295.457C406.915 296.176 407.406 296.637 407.752 296.84C408.098 297.044 408.332 297.176 408.453 297.237C408.574 297.297 408.621 297.321 408.594 297.308C408.567 297.295 408.546 297.29 408.533 297.293C408.52 297.296 408.713 297.349 409.112 297.451" stroke="#3D5330" stroke-width="4" stroke-linecap="round" stroke-linejoin="round"/>
<path d="M411.012 298.508C410.966 298.524 410.805 298.579 410.527 298.672C410.953 298.418 411.164 298.303 411.161 298.325C411.158 298.348 411.174 298.345 411.211 298.317C411.247 298.29 411.244 298.286 411.2 298.306C411.156 298.326 411.868 298.115 413.335 297.672C414.801 297.229 419.195 294.932 426.517 290.779L426.481 290.675C426.593 290.562 426.651 290.504 426.655 290.501" stroke="#3D5330" stroke-width="4" stroke-linecap="round" stroke-linejoin="round"/>
<path d="M399.965 286.606C399.723 286.087 399.601 285.839 399.598 285.862C399.478 285.583 399.168 284.77 398.67 283.423C398.17 282.077 397.828 280.886 397.644 279.849C397.459 278.814 397.478 278.098 397.7 277.702C397.923 277.307 398.066 277.087 398.127 277.04" stroke="#3D5330" stroke-width="4" stroke-linecap="round" stroke-linejoin="round"/>
<path d="M308.707 240.542C308.595 240.585 308.483 240.627 308.371 240.67" stroke="#3D5330" stroke-width="4" stroke-linecap="round" stroke-linejoin="round"/>
<path d="M305.002 243.15C305.385 243.165 305.336 243.168 304.855 243.16C304.373 243.151 303.885 243.142 303.391 243.131C302.896 243.12 302.44 243.056 302.021 242.941C302.459 242.809 302.763 242.723 302.934 242.683C303.106 242.642 303.168 242.672 303.119 242.77C303.838 243.024 304.119 243.121 303.962 243.063C304.153 243.231 304.435 243.418 304.81 243.622C305.184 243.827 305.288 243.877 305.121 243.771C304.954 243.664 304.994 243.691 305.241 243.852C305.487 244.012 306.729 244.568 308.966 245.519C311.203 246.47 313.247 247.241 315.098 247.832C316.949 248.422 318.891 248.931 320.923 249.362C322.955 249.793 324.496 250.16 325.547 250.463C326.599 250.766 327.265 251.016 327.545 251.213C327.824 251.409 328.107 251.563 328.394 251.676C328.682 251.787 328.957 251.823 329.218 251.783C329.48 251.744 329.846 251.856 330.315 252.121C330.784 252.386 332.099 252.616 334.26 252.81C336.421 253.003 338.278 253.097 339.83 253.09C341.383 253.082 342.425 253.017 342.956 252.893C343.487 252.768 343.99 252.649 344.467 252.538C344.942 252.426 345.539 252.302 346.256 252.163C346.975 252.024 347.542 251.894 347.958 251.774C348.374 251.654 348.833 251.499 349.335 251.308C349.835 251.117 350.15 251.014 350.278 250.996C350.406 250.979 350.542 250.939 350.685 250.875C350.828 250.812 350.963 250.754 351.09 250.702C351.218 250.65 351.515 250.536 351.98 250.36C352.444 250.184 352.734 250.093 352.851 250.088C352.968 250.084 353.188 249.968 353.51 249.739C353.831 249.511 354.875 249.115 356.643 248.549C358.41 247.984 360.641 247.254 363.338 246.363C363.328 246.266 363.477 246.082 363.785 245.811" stroke="#3D5330" stroke-width="4" stroke-linecap="round" stroke-linejoin="round"/>
<path d="M356.651 248.762C356.603 248.76 356.555 248.758 356.508 248.757C356.344 248.551 356.512 247.861 357.014 246.689C357.729 246.699 358.303 246.548 358.736 246.237C359.168 245.926 359.437 245.758 359.545 245.735C359.652 245.713 359.787 245.672 359.95 245.611C360.111 245.55 360.289 245.468 360.483 245.365C360.678 245.261 360.853 245.163 361.007 245.071C361.162 244.979 361.231 244.946 361.215 244.971C361.2 244.995 361.388 244.878 361.78 244.621C362.172 244.363 362.927 243.949 364.045 243.379C364.211 243.334 364.231 243.341 364.106 243.4C363.981 243.461 364.104 243.502 364.475 243.522C364.847 243.543 365.418 243.455 366.188 243.257C366.958 243.059 367.553 242.911 367.974 242.813C368.396 242.715 368.828 242.417 369.271 241.919C369.879 242.409 370.513 242.386 371.172 241.849C372.092 242.045 372.36 242.146 371.977 242.154C371.595 242.16 371.888 242.094 372.856 241.955C373.824 241.817 374.65 241.72 375.333 241.666C376.015 241.613 376.568 241.569 376.992 241.533C377.416 241.499 377.58 241.476 377.485 241.463C377.39 241.449 377.51 241.508 377.843 241.642C378.178 241.776 378.479 241.964 378.746 242.205C379.014 242.447 379.198 242.608 379.298 242.688C379.398 242.769 379.395 242.761 379.287 242.666C379.181 242.57 379.297 242.656 379.636 242.923C379.975 243.189 380.489 243.661 381.177 244.339C381.864 245.019 382.476 245.63 383.013 246.173C383.549 246.717 383.931 247.103 384.16 247.332C384.387 247.561 384.532 247.692 384.593 247.724C384.655 247.757 384.812 247.878 385.064 248.086C385.315 248.295 385.496 248.444 385.607 248.534C385.716 248.623 385.73 248.64 385.649 248.584C385.86 248.943 385.965 249.089 385.965 249.021C385.975 249.033 386.069 249.169 386.245 249.431C386.422 249.691 386.506 249.799 386.497 249.753C386.488 249.707 386.488 249.689 386.498 249.699C386.508 249.71 386.659 249.882 386.952 250.217C387.245 250.551 387.384 250.686 387.37 250.621C387.355 250.555 387.344 250.522 387.337 250.521C387.33 250.52 387.354 250.553 387.41 250.621C387.467 250.688 387.572 250.76 387.725 250.837C387.879 250.913 388.142 251.033 388.515 251.196C388.888 251.359 389.098 251.465 389.144 251.514" stroke="#3D5330" stroke-width="4" stroke-linecap="round" stroke-linejoin="round"/>
<path d="M307.791 244.443C307.725 244.37 307.492 244.073 307.092 243.551C306.69 243.03 305.592 242.586 303.799 242.217C302.004 241.848 300.219 241.817 298.443 242.125C296.667 242.431 295.298 242.563 294.338 242.523C293.379 242.482 292.455 242.442 291.568 242.4C290.679 242.359 289.86 242.449 289.109 242.669C288.358 242.888 287.376 243.512 286.163 244.542C284.949 245.572 283.95 246.377 283.164 246.956C282.378 247.536 281.713 248.065 281.168 248.545C280.624 249.026 280.044 249.432 279.427 249.763C278.81 250.092 277.857 250.618 276.57 251.343C275.282 252.069 274.372 252.636 273.842 253.041C273.31 253.446 272.873 253.917 272.532 254.455C272.191 254.991 271.804 255.476 271.37 255.91C270.935 256.343 270.606 256.694 270.381 256.964C270.157 257.234 269.687 257.828 268.97 258.747C268.253 259.664 267.346 260.969 266.249 262.664C265.151 264.359 264.239 265.741 263.511 266.81C262.782 267.878 261.687 269.372 260.226 271.294C258.764 273.217 257.685 274.798 256.988 276.035C256.291 277.272 255.843 278.111 255.643 278.552C255.442 278.995 255.215 279.462 254.964 279.954C254.712 280.446 254.458 280.983 254.204 281.565C253.953 282.149 253.678 282.678 253.378 283.155C253.082 283.634 252.222 286.027 250.798 290.334C249.374 294.643 248.093 298.675 246.955 302.432C245.814 306.193 245.029 309.402 244.601 312.059C244.172 314.716 243.881 317.33 243.726 319.9C243.572 322.475 243.426 324.479 243.29 325.912C243.153 327.346 242.999 328.858 242.827 330.448C242.656 332.037 242.535 333.852 242.464 335.891C242.393 337.928 242.288 339.832 242.149 341.602C242.01 343.372 241.87 344.846 241.732 346.022C241.593 347.197 241.712 348.244 242.088 349.164" stroke="#3D5330" stroke-width="4" stroke-linecap="round" stroke-linejoin="round"/>
<path d="M247.074 344.124C246.414 344.349 246.189 344.435 246.4 344.383C246.265 344.136 246.224 344.303 246.278 344.883C246.332 345.463 246.546 345.917 246.92 346.244C247.292 346.571 247.545 346.785 247.68 346.886C247.815 346.987 248.297 347.363 249.125 348.014C249.954 348.664 250.93 349.17 252.053 349.532C253.177 349.893 253.948 350.043 254.367 349.981C254.786 349.919 255.323 349.929 255.977 350.011C256.629 350.092 258.293 350.12 260.968 350.093C263.643 350.065 266.294 350.009 268.921 349.926C271.549 349.843 273.53 349.807 274.863 349.817C276.196 349.828 277.884 349.868 279.927 349.936C281.979 350.007 285.038 349.894 289.101 349.596C293.165 349.297 296.559 349.131 299.282 349.099C302.004 349.067 304.477 349.129 306.701 349.283C308.924 349.437 311.987 349.543 315.888 349.599C319.789 349.654 323.232 349.744 326.217 349.869C329.202 349.996 331.288 349.973 332.472 349.799C333.656 349.625 335.576 349.41 338.232 349.155C340.888 348.9 343.875 348.868 347.192 349.061C350.508 349.254 353.079 349.414 354.904 349.543C356.73 349.67 358.741 349.587 360.939 349.295C363.136 349.005 365.3 348.849 367.43 348.828C369.561 348.81 371.458 348.846 373.121 348.938C374.785 349.03 375.943 349.099 376.595 349.141C377.248 349.184 377.842 349.192 378.377 349.166C378.912 349.141 380.706 349.059 383.758 348.919C386.81 348.78 389.495 348.632 391.814 348.477C394.135 348.322 395.924 348.067 397.183 347.711C398.441 347.356 399.527 347.115 400.438 346.987C401.349 346.859 402.197 346.759 402.98 346.685C403.764 346.612 404.239 346.573 404.403 346.568C404.568 346.564 404.986 346.534 405.658 346.48C406.33 346.425 406.817 346.406 407.119 346.425C407.42 346.443 407.888 346.461 408.521 346.48C409.154 346.498 409.815 346.498 410.504 346.482C411.193 346.464 411.841 346.452 412.448 346.446C413.055 346.439 413.508 346.428 413.808 346.411C414.106 346.394 414.505 346.394 415.006 346.411C415.507 346.429 416.05 346.295 416.636 346.011C417.222 345.726 417.573 345.557 417.689 345.502C417.804 345.446 417.855 345.418 417.84 345.42C417.826 345.422 417.831 345.426 417.856 345.43C417.881 345.433 417.865 345.434 417.809 345.433C417.754 345.432 417.737 345.432 417.759 345.433C417.782 345.434 418.173 345.347 418.931 345.172C419.69 344.996 420.01 344.927 419.89 344.964C419.881 344.964 419.872 344.967 419.863 344.972C419.853 344.979 420.227 344.942 420.986 344.864" stroke="#3D5330" stroke-width="4" stroke-linecap="round" stroke-linejoin="round"/>
<path d="M414.87 342.857C415.624 342.809 415.984 342.785 415.952 342.788C415.92 342.79 415.967 342.788 416.094 342.781C416.223 342.775 416.464 342.765 416.817 342.75C417.171 342.736 417.654 342.654 418.269 342.504C418.883 342.354 419.149 342.292 419.068 342.319C418.988 342.346 418.961 342.343 418.987 342.31C419.014 342.276 419.227 342.178 419.625 342.018C420.024 341.856 420.24 341.78 420.273 341.79C420.306 341.797 420.261 341.827 420.136 341.879C420.013 341.931 420.017 341.931 420.146 341.879C420.276 341.828 420.27 341.834 420.127 341.897C419.984 341.961 419.948 341.978 420.019 341.947C420.09 341.917 420.613 341.744 421.588 341.429C422.563 341.113 423.015 340.963 422.944 340.98C423.46 340.883 423.406 340.804 422.783 340.741C422.162 340.679 424.763 340.674 430.586 340.728C430.704 341.548 430.691 341.039 430.548 339.202C430.404 337.363 430.203 335.818 429.944 334.566C429.685 333.314 429.504 332.512 429.402 332.162C429.298 331.813 429.212 331.546 429.142 331.359C429.071 331.174 429.068 331.181 429.133 331.38C429.198 331.579 429.049 331.177 428.685 330.175C428.321 329.174 428.053 328.33 427.881 327.643C427.709 326.957 427.524 326.324 427.326 325.745C427.129 325.165 427.003 324.807 426.949 324.67C426.894 324.532 426.865 324.472 426.863 324.493C426.862 324.514 426.858 324.475 426.852 324.376C426.846 324.276 426.73 323.997 426.505 323.54C426.278 323.083 426.175 322.876 426.195 322.92C426.215 322.965 426.205 322.941 426.167 322.85C426.129 322.757 426.133 322.733 426.178 322.776C426.223 322.82 426.22 322.817 426.17 322.767C426.12 322.717 425.881 322.22 425.455 321.275C425.029 320.33 424.804 319.857 424.778 319.856C424.663 319.351 424.544 319.079 424.421 319.04C424.455 318.916 424.442 318.818 424.38 318.745C424.318 318.671 424.124 318.282 423.8 317.578C423.476 316.874 423.252 316.4 423.13 316.155C423.009 315.911 422.95 315.784 422.951 315.775C422.952 315.764 422.789 315.499 422.463 314.979C422.136 314.459 421.795 313.912 421.438 313.337C421.081 312.761 420.952 312.55 421.05 312.705C420.612 312.246 420.422 312.055 420.481 312.132C420.1 311.278 419.924 310.909 419.953 311.024C419.843 310.879 419.652 310.662 419.379 310.376C418.885 309.716 419.35 309.925 420.775 311.005C422.2 312.087 423.031 312.683 423.267 312.795" stroke="#3D5330" stroke-width="4" stroke-linecap="round" stroke-linejoin="round"/>
<path d="M384.57 248.85C384.665 248.935 384.733 248.979 384.775 248.981C384.818 248.983 384.826 249.004 384.801 249.045C384.777 249.087 384.944 249.12 385.3 249.145C385.657 249.17 386.385 249.281 387.484 249.478C388.583 249.675 389.7 250.362 390.835 251.538C391.969 252.714 392.711 253.674 393.061 254.415C393.411 255.157 393.676 255.774 393.854 256.267C394.033 256.761 394.134 257.103 394.157 257.293C394.18 257.484 394.236 257.752 394.325 258.097C394.413 258.442 394.541 258.858 394.708 259.346C394.874 259.834 395.018 260.225 395.14 260.518C395.261 260.811 395.344 261.027 395.39 261.165C395.436 261.303 395.528 261.574 395.667 261.979C395.807 262.386 395.836 262.532 395.756 262.416C395.676 262.3 395.903 262.586 396.436 263.273C396.971 263.961 397.279 264.34 397.361 264.411" stroke="#3D5330" stroke-width="4" stroke-linecap="round" stroke-linejoin="round"/>
<path d="M248.191 349.744C248.232 350.388 248.25 350.691 248.247 350.653C248.329 351.947 248.356 352.378 248.329 351.944C247.894 351.857 247.753 351.867 247.908 351.976C248.063 352.084 248.104 352.127 248.03 352.104C247.955 352.081 247.712 351.952 247.301 351.716C246.889 351.481 246.591 351.292 246.408 351.152C246.223 351.012 246.214 351.047 246.379 351.255C246.545 351.464 246.268 351.025 245.549 349.941C244.828 348.856 244.275 347.671 243.889 346.383C243.504 345.095 243.262 344.166 243.162 343.597C243.063 343.027 243.159 342.502 243.45 342.022C243.742 341.541 243.972 341.23 244.141 341.092" stroke="#3D5330" stroke-width="4" stroke-linecap="round" stroke-linejoin="round"/>
<path d="M395.322 256.242C395.139 256.958 395.029 257.231 394.992 257.062C394.612 257.738 394.502 258.012 394.664 257.883C394.402 258.034 394.255 258.119 394.223 258.137C395.301 258.108 395.942 258.059 396.147 257.989C396.351 257.92 396.54 257.84 396.713 257.753" stroke="#3D5330" stroke-width="4" stroke-linecap="round" stroke-linejoin="round"/>
<path d="M394.983 262.962C394.987 263.039 394.992 263.115 394.997 263.19C394.85 263.275 394.703 263.361 394.556 263.446C394.15 262.263 394.016 261.751 394.154 261.91C394.439 260.655 395.074 259.621 396.061 258.807C397.047 257.995 397.584 257.471 397.67 257.236" stroke="#3D5330" stroke-width="4" stroke-linecap="round" stroke-linejoin="round"/>
<path d="M74.057 20.4447C74.1269 20.5062 73.8432 20.2941 73.2061 19.8076C73.571 19.8357 73.7999 19.8809 73.8928 19.9434C73.9856 20.007 74.1076 20.0607 74.2588 20.1044C74.409 20.1482 74.3766 20.1829 74.1618 20.2089C73.9459 20.236 74.5138 20.4109 75.8653 20.7339C77.2158 21.0557 78.1596 21.2625 78.6966 21.3542C79.2347 21.4469 80.3771 21.578 82.1239 21.7478C83.8707 21.9187 86.2348 21.7756 89.2163 21.3183C92.1978 20.8599 94.4848 20.5614 96.0772 20.4218C97.6686 20.2801 98.8381 20.0435 99.5858 19.7122C100.334 19.3799 101.627 19.0663 103.467 18.7715C105.305 18.4767 107.184 18.4131 109.104 18.5808C111.024 18.7485 112.457 18.8379 113.403 18.8493C114.349 18.8608 115.129 18.9096 115.745 18.9951C116.36 19.0794 116.989 19.1708 117.633 19.2697C118.275 19.3687 118.973 19.4452 119.726 19.4994C120.479 19.5525 121.154 19.675 121.753 19.8656C122.353 20.0562 122.8 20.0934 123.094 19.9778C123.387 19.8632 123.857 19.8897 124.505 20.0563C125.153 20.2241 125.69 20.2542 126.116 20.1479C126.542 20.0416 127.004 19.9299 127.5 19.8122C127.998 19.6934 128.455 19.7129 128.874 19.8702C129.293 20.0275 129.901 20.0746 130.697 20.0121C131.494 19.9506 132.108 19.9735 132.54 20.0808C132.973 20.187 133.506 20.2074 134.139 20.1418C134.772 20.0762 135.403 20.0832 136.033 20.1624C136.662 20.2405 137.743 20.3399 139.277 20.4607C140.811 20.5816 142.082 20.7341 143.09 20.9185C144.097 21.1029 144.782 21.2479 145.145 21.3542C145.508 21.4604 146.495 21.4441 148.108 21.3046C149.719 21.1639 151.753 20.9905 154.21 20.7842C156.668 20.578 158.418 20.4116 159.461 20.2845C160.504 20.1563 161.489 19.9778 162.416 19.7496C163.343 19.5225 164.103 19.4285 164.695 19.4681C165.289 19.5077 165.823 19.5765 166.299 19.6733C166.774 19.7702 167.16 19.8377 167.458 19.8763C167.754 19.9148 167.895 19.9415 167.882 19.9572C167.867 19.9717 167.969 19.9654 168.188 19.9373C168.406 19.9082 170.126 19.8897 173.349 19.8824C176.571 19.8761 178.836 20.0068 180.142 20.2746C181.45 20.5433 183.54 20.528 186.412 20.228C189.284 19.927 191.906 19.7858 194.279 19.8046C196.65 19.8233 198.867 19.8005 200.93 19.7359C202.993 19.6713 204.487 19.4152 205.415 18.9684C206.342 18.5225 206.876 18.213 207.016 18.0391" stroke="#3D5330" stroke-width="4" stroke-linecap="round" stroke-linejoin="round"/>
<path d="M74.7968 100.503C74.7291 100.788 74.6493 101.12 74.5575 101.501C74.5627 101.367 74.5679 101.233 74.5731 101.098C74.4324 101.386 74.2676 101.581 74.0789 101.684C74.0194 101.48 73.96 101.276 73.9005 101.073C73.8286 101.204 73.7566 101.336 73.6846 101.467C73.7201 101.232 73.6481 100.76 73.4688 100.049C73.4636 100.183 73.4537 100.452 73.4391 100.855C73.4589 100.812 73.4417 100.849 73.3874 100.966C73.3332 101.082 73.6414 100.474 74.3119 99.1406C74.4579 99.1021 74.3541 99.0969 74.0006 99.1261C73.6461 99.1532 74.0981 99.2443 75.3568 99.3985C76.6145 99.5526 77.9885 99.7713 79.4787 100.055C80.9387 100.178 83.9248 100.86 88.4372 102.103C88.8137 101.647 89.1985 101.192 89.5917 100.739C90.3373 102.319 92.35 103.179 95.6297 103.317C98.9084 103.456 101.374 103.472 103.026 103.364C104.676 103.256 105.917 103.17 106.748 103.105C107.58 103.039 108.488 103.136 109.473 103.396C110.459 103.655 112.045 103.582 114.232 103.178C116.42 102.774 118.527 102.557 120.553 102.527C122.58 102.496 124.415 102.552 126.056 102.694C127.698 102.835 128.933 102.94 129.764 103.007C130.594 103.074 131.278 102.822 131.817 102.251C132.357 101.679 132.754 101.24 133.011 100.933C133.267 100.624 134.231 100.924 135.902 101.832C137.572 102.739 139.475 103.335 141.608 103.62C143.743 103.905 146.197 103.858 148.971 103.477C151.746 103.096 155.169 103.003 159.241 103.197C163.313 103.391 166.716 103.582 169.449 103.769C172.183 103.956 174.287 104.088 175.761 104.165C177.234 104.244 178.277 104.212 178.888 104.07C179.499 103.929 180.146 103.773 180.831 103.599C181.515 103.425 181.988 103.307 182.249 103.247C182.511 103.186 182.639 103.157 182.633 103.159C182.626 103.16 182.665 103.097 182.75 102.968C182.834 102.839 183.393 102.712 184.427 102.585C185.46 102.458 186.49 102.353 187.515 102.27C188.539 102.19 189.225 102.23 189.573 102.391C189.921 102.551 190.944 102.876 192.641 103.364C194.337 103.852 195.612 104.214 196.464 104.45C197.315 104.686 198.01 104.855 198.549 104.958C199.088 105.061 199.748 105.182 200.528 105.321C201.308 105.459 202.077 105.601 202.835 105.746C203.609 104.736 204.094 102.581 204.291 99.281L204.493 99.2886C204.614 100.668 204.761 101.827 204.933 102.767" stroke="#3D5330" stroke-width="4" stroke-linecap="round" stroke-linejoin="round"/>
<path d="M76.7773 189.221C79.0852 188.947 79.7771 188.912 78.8532 189.116C77.9188 189.124 77.5407 189.137 77.7191 189.157C77.8974 189.172 78.2686 189.172 78.8328 189.155C79.396 189.097 80.5108 188.964 82.1772 188.757C83.8447 188.535 86.2031 188.574 89.2524 188.875C92.3142 189.177 94.6262 189.375 96.1883 189.468C97.7505 189.561 99.3299 189.453 100.926 189.146C102.522 188.838 104.608 188.523 107.184 188.202C109.759 187.88 112.371 187.922 115.019 188.326C117.666 188.729 119.749 189.036 121.268 189.248C123.035 189.444 125.314 189.369 128.106 189.022C131.069 188.659 133.454 188.559 135.261 188.723C137.066 188.885 139.165 189.019 141.558 189.125C143.951 189.232 145.809 189.185 147.133 188.984C148.457 188.781 150.684 188.57 153.816 188.35C156.949 188.132 159.549 188.064 161.618 188.146C163.688 188.229 166.046 188.324 168.692 188.429C171.339 188.534 173.151 188.514 174.129 188.369C175.108 188.225 175.709 188.159 175.935 188.174" stroke="#3D5330" stroke-width="4" stroke-linecap="round" stroke-linejoin="round"/>
<path d="M13.3183 175.586C13.2661 175.468 13.1306 175.257 12.9116 174.954C12.6926 174.652 12.0523 173.445 10.9906 171.332C10.877 171.533 10.8269 171.624 10.8405 171.607C10.8541 171.59 10.8535 171.57 10.8389 171.547C10.8243 171.524 10.7128 171.781 10.5042 172.318C10.2946 172.853 10.256 180.156 10.3884 194.225C10.4896 194.112 10.4474 193.586 10.2617 192.648C10.0772 191.709 10.0667 189.733 10.2304 186.72C10.3931 183.706 10.4656 181.338 10.4479 179.615C10.4291 177.891 10.5131 176.611 10.6997 175.776C10.8864 174.941 11.1293 174.395 11.4286 174.135C11.729 173.876 12.009 173.705 12.2687 173.624C12.5283 173.542 12.6717 173.494 12.6988 173.481C12.7259 173.466 12.9762 173.451 13.4497 173.436C13.9221 173.423 16.1574 173.725 20.1557 174.344C24.1529 174.964 28.8129 175.71 34.1355 176.58C34.1679 176.825 34.3451 177.324 34.6674 178.077C34.9896 178.832 34.7289 184.646 33.8852 195.52C33.2846 195.829 32.8523 196.006 32.5885 196.051C32.3246 196.097 31.7563 196.185 30.8834 196.315C30.0116 196.444 29.2242 196.518 28.5214 196.536C27.8185 196.552 27.2689 196.584 26.8726 196.631C26.4774 196.679 25.9982 196.739 25.4351 196.81C24.8719 196.883 24.4486 196.915 24.1649 196.906C23.8823 196.896 23.7483 196.897 23.7629 196.907C23.7764 196.919 23.7561 196.914 23.7019 196.891C23.6476 196.869 23.4798 196.89 23.1982 196.955C22.9177 197.019 22.2288 197.066 21.1318 197.097C20.0357 197.126 19.1832 197.095 18.5742 197.004C17.9663 196.914 17.4589 196.771 17.0522 196.576C16.6455 196.381 16.4077 196.269 16.3389 196.238C16.27 196.206 16.2377 196.188 16.2419 196.183C16.245 196.176 16.2894 196.19 16.3749 196.223C16.4604 196.256 15.7758 195.908 14.321 195.179C14.4378 194.569 14.5155 194.304 14.5541 194.383C14.5509 194.464 15.004 192.911 15.9134 189.725C16.8217 186.538 17.4396 183.928 17.767 181.895C18.0945 179.861 18.3704 178.094 18.5946 176.594C19.7188 177.244 20.6933 182.859 21.5182 193.437C21.4733 192.686 21.5833 190.658 21.8482 187.353C22.1131 184.045 23.2712 180.746 25.3225 177.454C25.408 177.353 25.8413 177.412 26.6224 177.632C27.4034 177.852 28.0521 178.226 28.5683 178.754C29.0834 179.282 29.4693 179.702 29.7259 180.013C29.9814 180.325 30.1675 180.618 30.2843 180.894C30.4001 181.17 30.4308 181.217 30.3766 181.032C30.3224 180.848 30.4293 181.074 30.6973 181.711C30.9663 182.349 31.2787 183.368 31.6343 184.768C31.9888 186.169 32.1671 187.386 32.1692 188.419C32.4664 189.408 32.2375 189.949 31.4825 190.043C31.0226 190.092 30.6894 190.148 30.4829 190.21C30.2765 190.273 29.9673 190.275 29.5553 190.215C29.1434 190.157 28.6715 190.021 28.1397 189.807C27.6089 189.595 27.4154 189.448 27.5593 189.367C27.3435 190.06 27.2282 188.083 27.2136 183.44C26.833 183.462 27.1328 184.284 28.1131 185.904C29.0934 187.525 29.6273 188.37 29.7149 188.44" stroke="#3D5330" stroke-width="4" stroke-linecap="round" stroke-linejoin="round"/>
<path d="M12.281 13.935C12.2956 13.5422 12.3018 13.3724 12.2997 13.4245C12.2664 12.7839 12.2351 12.4907 12.2059 12.5448C12.136 12.0031 12.087 11.7954 12.0589 11.9215C11.7241 11.6371 11.6005 11.5042 11.6881 11.524C11.6339 11.4782 11.4003 11.2561 10.9873 10.8572C10.6943 10.4551 10.9175 11.4882 11.6569 13.9571C12.3962 16.427 12.7164 20.715 12.6173 26.8215C13.3963 26.885 13.6518 26.9159 13.3838 26.9138C14.0616 27.0232 14.3229 27.0764 14.1675 27.0732C14.4689 27.3128 15.4705 27.4673 17.1725 27.5371C19.0225 27.6455 20.9752 27.7429 23.0306 27.8293C25.085 27.9158 26.6738 28.0028 27.7969 28.0903C28.9201 28.1778 29.7371 28.1511 30.2481 28.0094C30.7591 27.8677 31.1022 27.7574 31.2774 27.6783C31.4526 27.5991 31.5851 27.4903 31.6748 27.3517C31.7655 27.2142 31.8646 26.989 31.972 26.6765C32.0804 26.3619 32.1179 26.2407 32.0846 26.3126C32.0502 26.3844 32.0309 26.3288 32.0267 26.1455C32.0225 25.9621 32.0126 25.8268 31.997 25.7403C31.9813 25.6539 32.023 25.6786 32.1221 25.8151C32.2212 25.9516 32.0627 25.6112 31.6466 24.7935C31.2315 23.9768 30.8973 23.3177 30.6439 22.8166C30.3895 22.3156 30.269 22.086 30.2825 22.1277C30.295 22.1704 30.2163 21.8254 30.0463 21.0931C29.8753 20.3608 29.7523 19.8008 29.6772 19.4123C29.6021 19.0227 29.5239 18.6211 29.4425 18.2076C29.4206 17.8107 29.6313 17.3085 30.0745 16.7022C30.5177 15.8939 30.7961 15.3507 30.9098 15.0725C31.0203 14.7829 31.0704 14.6384 31.06 14.6384C31.0496 14.6384 31.0251 14.6593 30.9865 14.701C30.9479 14.7426 30.9447 14.7446 30.9771 14.7071C31.0084 14.6696 31.0422 14.6373 31.0787 14.6102C31.1142 14.5831 31.1351 14.4638 31.1413 14.2524C31.1476 14.0388 30.914 13.6824 30.4405 13.1834C29.9671 12.6824 29.7955 12.439 29.9259 12.4525C30.0542 12.4619 30.0662 12.5214 29.9619 12.6318C28.9879 12.311 28.6807 12.2172 29.0405 12.3495C28.9091 11.9495 28.8382 11.7323 28.8278 11.6979C28.8174 11.6646 28.7663 11.6189 28.6745 11.5606C28.5827 11.5012 28.5806 11.5032 28.6682 11.5667C28.7558 11.6303 29.2204 11.3922 30.062 10.8526C32.8151 9.20564 32.8083 8.90682 30.0416 9.95685C29.2407 10.1787 28.6453 10.2672 28.2553 10.2224C27.8642 10.1536 27.6515 10.1663 27.6171 10.259C27.5816 10.3475 27.6322 10.2887 27.7688 10.0835C27.9033 9.821 27.5467 9.66602 26.6988 9.6181C25.8447 9.56184 24.599 9.71828 22.9618 10.0881C21.312 10.1985 20.2739 10.2821 19.8473 10.3383C19.4187 10.3977 19.133 10.4366 18.9901 10.4543C18.8942 10.4814 18.8154 10.5096 18.7539 10.5398C18.6913 10.571 18.3263 10.6237 17.6589 10.6977C16.9915 10.7727 16.4685 10.815 16.09 10.8243C15.7114 10.8348 15.3892 10.8348 15.1233 10.8243C14.8584 10.8129 14.6988 10.8039 14.6446 10.7976C14.5914 10.7924 14.4579 10.8014 14.2441 10.8243C14.0314 10.8483 13.7999 10.8816 13.5496 10.9243C13.2983 10.966 13.061 11.0082 12.8378 11.0509C12.6136 11.0937 12.4713 11.1184 12.4108 11.1257C12.3493 11.133 12.2111 11.1449 11.9963 11.1616C11.7814 11.1782 11.5906 11.1882 11.4238 11.1913C11.2579 11.1945 11.1667 11.194 11.15 11.1898C11.1333 11.1856 11.1625 11.1856 11.2376 11.1898C11.3117 11.194 10.9117 11.1797 10.0378 11.1463C10.0973 11.7651 10.1306 12.0214 10.1379 11.9162C10.1171 11.9537 10.3189 12.5396 10.7433 13.674C11.1677 14.8084 11.5312 15.9566 11.8336 17.1181C12.136 18.2806 12.3441 19.4088 12.4578 20.5026C12.5725 21.5974 12.6601 22.5777 12.7205 23.4423C12.7821 24.3079 12.9343 26.008 13.1773 28.5435C13.2232 28.3008 13.0662 28.679 12.7065 29.678C13.0016 30.0926 13.1585 30.2765 13.1773 30.2296C13.6309 30.315 13.8426 30.3658 13.8124 30.3815C14.0856 30.4544 14.4663 30.4996 14.9543 30.5173C15.4424 30.535 16.2892 30.5578 17.4947 30.5859C18.6992 30.6151 19.5778 30.6032 20.1305 30.5501C20.6821 30.4959 21.2917 30.3676 21.9591 30.1655C22.6276 29.9634 23.1855 29.3617 23.6328 28.3596C24.0802 27.3564 24.3357 26.7773 24.3994 26.6231" stroke="#3D5330" stroke-width="4" stroke-linecap="round" stroke-linejoin="round"/>
<path d="M23.4609 12.959C23.0501 13.1038 22.8843 13.1208 22.9635 13.0093C23.0428 12.8979 22.8853 13.0356 22.4911 13.4221C22.0959 13.8086 21.9107 13.9706 21.9358 13.9081C21.9608 13.8446 21.9504 13.8737 21.9045 13.9966C21.8586 14.1185 21.8059 14.3921 21.7465 14.816C21.686 15.239 21.6651 15.8023 21.6839 16.5075C21.7027 17.2128 21.7267 17.7059 21.7559 17.9862C21.7851 18.2653 21.806 18.5129 21.8185 18.7285C21.831 18.9452 21.8279 19.1876 21.8091 19.4564C21.7914 19.7262 21.7799 19.9563 21.7747 20.1469C21.7705 20.3375 21.7632 20.4891 21.7527 20.6016C21.7423 20.7152 21.747 20.8896 21.7668 21.125C21.7856 21.3615 21.5854 22.6498 21.1662 24.9894C21.2642 24.7905 20.8429 21.2757 19.9023 14.4452C19.1295 14.3244 19.2666 18.2473 20.3137 26.2132C19.8058 25.5132 19.5904 25.2025 19.6676 25.2816C19.7448 25.3598 19.7494 25.3394 19.6817 25.2206C19.6149 25.1008 19.5425 24.8742 19.4643 24.5408C19.3871 24.2085 19.3255 23.8011 19.2797 23.3178C19.2338 22.8344 19.2166 22.4637 19.2281 22.2054C19.2406 21.947 19.2651 21.7053 19.3016 21.4813C19.337 21.2584 19.4205 20.7137 19.5519 19.847C19.6833 18.9814 20.1087 18.0908 20.8283 17.1751C21.5468 16.2584 21.9796 15.7381 22.1266 15.6141" stroke="#3D5330" stroke-width="4" stroke-linecap="round" stroke-linejoin="round"/>
<path d="M19.7974 28.5391C20.178 29.0474 20.3558 29.2461 20.3308 29.1357C20.0075 29.0024 20.6181 29.2694 22.1626 29.9361C23.707 30.6007 25.0715 31.0331 26.2562 31.2331C27.4419 31.4321 28.4644 31.272 29.3237 30.7532C30.1841 30.2344 30.6659 29.9341 30.7691 29.8529" stroke="#3D5330" stroke-width="4" stroke-linecap="round" stroke-linejoin="round"/>
<path d="M16.1869 100.935C16.0232 100.828 15.7828 100.46 15.4658 99.832C15.1488 99.2039 14.8 97.8432 14.4193 95.7494C14.4078 96.3734 14.6602 98.0168 15.1764 100.68C15.6926 103.345 15.4486 107.462 14.4443 113.03C14.1419 112.766 14.0778 111.416 14.2519 108.981C14.4271 106.546 14.4803 104.225 14.4115 102.016C14.3416 99.808 14.1195 97.2555 13.7451 94.3585C13.8046 94.1554 14.022 94.5071 14.3974 95.4144C14.7739 96.3207 15.0299 97.3049 15.1655 98.3664C15.301 99.4289 15.3563 100.285 15.3313 100.935C15.3052 101.584 15.2974 101.885 15.3078 101.839C15.3182 101.793 15.3068 101.942 15.2734 102.286C15.24 102.631 15.1942 102.968 15.1358 103.298C15.0784 103.627 15.0789 103.932 15.1373 104.212C15.1967 104.492 15.2093 104.745 15.1749 104.971C15.1404 105.198 15.1874 105.72 15.3156 106.535C15.4439 107.351 15.4632 108.859 15.3735 111.059C15.2379 111.054 15.0528 111.047 14.8182 111.038C14.9475 111.038 15.1806 111.019 15.5174 110.978C15.8543 110.938 16.0065 110.923 15.9742 110.937C15.9408 110.951 15.9393 110.948 15.9695 110.928C15.9987 110.909 16.3434 110.902 17.0035 110.907C17.6647 110.911 19.3749 111.003 22.1343 111.18C24.8947 111.357 28.1984 111.2 32.0455 110.71C31.7222 111.103 31.3243 111.009 30.8519 110.427C30.3795 109.845 30.0275 109.256 29.796 108.659C29.5635 108.062 29.4154 107.617 29.3518 107.323C29.2882 107.028 29.2428 106.823 29.2157 106.707C29.1886 106.591 29.163 106.423 29.1391 106.201C29.1151 105.98 29.1072 105.863 29.1156 105.85C29.1229 105.835 29.127 105.78 29.1281 105.685C29.1281 105.59 29.1375 105.535 29.1562 105.52C29.175 105.504 29.1614 105.445 29.1156 105.343C29.0697 105.242 28.9216 104.384 28.6713 102.768C28.421 101.153 28.2881 99.9342 28.2724 99.1103C28.2578 98.2863 28.2625 97.7256 28.2865 97.4287C28.3115 97.1307 28.3235 96.9406 28.3225 96.8572C28.3215 96.7728 28.322 96.7354 28.3241 96.7458C28.3262 96.7562 28.3309 96.732 28.3382 96.6726C28.3455 96.6132 28.3772 96.415 28.4335 96.0775C28.4909 95.7389 28.5196 95.5222 28.5196 95.4274C28.5186 95.3316 28.5139 95.2908 28.5055 95.3053C28.4961 95.3199 28.3887 95.2439 28.1833 95.0772C27.9779 94.9116 27.9028 94.8474 27.958 94.8849C28.0133 94.9224 28.0227 94.9691 27.9862 95.0253C27.2228 94.9243 26.8953 94.927 27.0038 95.0322C26.8672 95.0791 26.7494 95.1114 26.6503 95.1291C26.5523 95.1478 26.3818 95.1979 26.1388 95.2802C25.8969 95.3625 25.6815 95.439 25.4928 95.5098C25.304 95.5817 25.1402 95.6211 25.0015 95.6273C24.8618 95.6325 24.7883 95.7047 24.781 95.8432C24.7747 95.9818 24.1318 96.076 22.8523 96.1271C21.5737 96.1791 20.4203 96.1136 19.3921 95.9302C18.3638 95.7469 16.7219 95.2749 14.4662 94.5134C14.6957 94.4634 14.7671 94.4505 14.6805 94.4745C14.594 94.4995 15.0289 94.6484 15.9852 94.9223C16.9414 95.1963 17.8967 95.3292 18.8509 95.3198C19.8051 95.3105 21.0194 95.0573 22.494 94.5615C21.8058 94.0771 21.568 99.2028 21.7807 109.937C22.6765 109.843 23.0546 109.793 22.9148 109.789C22.7751 109.784 22.7271 109.761 22.7709 109.72" stroke="#3D5330" stroke-width="4" stroke-linecap="round" stroke-linejoin="round"/>
<path d="M10.4664 95.2134C10.0514 94.8352 9.8006 94.5828 9.71405 94.4557C9.62853 94.3286 9.55604 94.1914 9.4966 94.0445C9.43716 93.8987 9.38138 93.7089 9.32923 93.4746C9.27709 93.2402 9.26407 93.1775 9.29014 93.2869C9.31621 93.3963 9.3626 93.018 9.42934 92.1523C10.2886 92.7888 10.6557 93.1353 10.5306 93.1915C10.4055 93.2436 10.3888 93.3762 10.4805 93.5898C10.5723 93.8023 10.602 93.9466 10.5697 94.0216C10.5363 94.0966 10.5306 94.2183 10.5525 94.3871C10.5733 94.5548 10.5681 94.9653 10.5369 95.6185C10.5056 96.2706 10.5107 97.4493 10.5525 99.1556C10.5942 100.862 10.6422 102.468 10.6964 103.973C10.7506 105.479 10.7647 106.65 10.7386 107.484C10.7136 108.32 10.6166 109.041 10.4477 109.649" stroke="#3D5330" stroke-width="4" stroke-linecap="round" stroke-linejoin="round"/>
<path d="M10.6948 93.7318C10.7428 93.7027 10.7387 93.6234 10.6823 93.4953C10.626 93.3672 10.5024 93.0572 10.3116 92.5645C10.3137 92.6218 10.3059 92.6108 10.2882 92.5317C10.2704 92.4535 10.2735 92.6442 10.2975 93.1047C10.3215 93.5651 10.5614 95.014 11.0171 97.4505C11.4718 99.886 11.8138 101.955 12.0432 103.657C12.2737 105.359 12.4385 107.088 12.5376 108.845C12.6366 110.6 12.4077 112.631 11.8509 114.937C11.6631 114.417 11.5521 114.157 11.5176 114.156C10.9337 114.739 11.3028 111.966 12.6252 105.837C12.596 105.784 12.6074 105.796 12.6596 105.873C12.7128 105.949 12.8009 106.072 12.924 106.243C13.048 106.415 13.1675 106.594 13.2822 106.781C13.3969 106.968 13.4245 107.066 13.365 107.073C13.3046 107.08 13.3056 107.045 13.3682 106.968C13.4297 106.891 13.4636 107.487 13.4699 108.755C13.4772 110.024 13.6195 111.379 13.8969 112.818C13.3577 112.787 13.8651 112.87 15.419 113.065C16.9738 113.261 18.3405 113.284 19.5189 113.134C20.6984 112.983 22.0869 112.715 23.6845 112.331C25.2822 111.946 26.4741 111.725 27.2604 111.667C28.0467 111.607 28.7027 111.574 29.2283 111.565C29.7539 111.556 30.4353 111.629 31.2727 111.785C32.1112 111.94 32.8746 111.759 33.5629 111.24" stroke="#3D5330" stroke-width="4" stroke-linecap="round" stroke-linejoin="round"/>
<path d="M30.0404 92.7166C29.9935 92.7468 29.9825 92.7545 30.0076 92.741C30.0326 92.7274 30.0717 92.7002 30.1249 92.6586C30.1791 92.6159 30.1875 92.5979 30.1499 92.6052C30.1124 92.6135 30.1056 92.6026 30.1296 92.5724C30.1546 92.5421 29.9294 92.8473 29.4538 93.4879C28.9783 94.1296 28.8448 94.4641 29.0534 94.4912C28.9981 95.1819 29.2781 96.4364 29.8934 98.2542C30.5076 100.073 30.9633 101.963 31.2605 103.925C31.5578 105.886 31.7158 108.258 31.7345 111.041" stroke="#3D5330" stroke-width="4" stroke-linecap="round" stroke-linejoin="round"/>
<path d="M13.0162 95.568C12.5605 95.5524 12.3697 95.5242 12.4437 95.4826C12.28 95.3628 12.2263 95.3382 12.2826 95.4101C12.3389 95.483 12.3368 95.5019 12.2764 95.4665C12.2159 95.4301 12.0751 95.2775 11.854 95.0087C11.6319 94.7389 11.4822 94.5546 11.4051 94.4556C11.3279 94.3556 11.2262 94.1906 11.1 93.9604C10.9728 93.7302 10.8826 93.5616 10.8294 93.4553C10.7762 93.3501 10.7669 93.4019 10.8013 93.6102C10.8367 93.8207 10.7251 93.2323 10.4665 91.8447C10.0858 92.3916 10.0619 93.642 10.3945 95.5962C10.7262 97.5505 11.05 99.1453 11.366 100.381C11.683 101.617 11.9129 103.557 12.0558 106.198C12.0985 106.199 12.1413 106.201 12.184 106.203C12.0047 106.189 11.9082 105.883 11.8947 105.283C11.8821 104.683 11.8535 103.762 11.8086 102.522C11.7638 101.281 11.6522 100.339 11.4739 99.6949C11.2966 99.0501 11.1871 98.6784 11.1454 98.5794C11.1047 98.4805 11.0286 98.3038 10.917 98.0507C10.8044 97.7976 10.7288 97.5347 10.6902 97.2618C10.6516 96.9899 10.6162 96.7878 10.5838 96.6545C10.5515 96.5201 10.4285 96.1714 10.2147 95.61C9.99985 95.0485 9.87574 94.6996 9.84237 94.5632C9.80795 94.4267 9.80427 94.2001 9.83139 93.8834C9.8585 93.5677 9.87259 93.4098 9.87363 93.4088C9.87363 93.4078 9.86841 93.4078 9.85798 93.4088C9.84859 93.4098 9.8945 93.3319 9.99565 93.1746C10.0968 93.0183 10.2564 92.8954 10.4743 92.8068C10.6923 92.7183 10.7846 92.6892 10.7512 92.7183C10.7178 92.7475 10.8273 92.7224 11.0797 92.6443C11.331 92.5662 13.1164 92.5562 16.4357 92.6146C19.7551 92.6729 22.2475 92.7655 23.9129 92.8915C25.5783 93.0155 27.1473 92.9917 28.6198 92.8198C30.2852 92.5354 31.5919 92.2978 32.5398 92.1072C32.618 92.501 32.6394 92.6938 32.604 92.6855C32.6019 92.6084 32.6207 92.7624 32.6603 93.1479C32.6999 93.5323 32.7124 93.7152 32.6978 93.6964C32.6832 93.6777 32.7338 93.837 32.8495 94.1756C33.1259 94.4673 33.1562 95.7512 32.9403 98.0263C32.9726 100.235 33.0112 102.253 33.0561 104.083C33.0999 105.912 33.2709 107.5 33.5691 108.848C33.8674 110.198 34.3216 111.354 34.9316 112.316" stroke="#3D5330" stroke-width="4" stroke-linecap="round" stroke-linejoin="round"/>
<path d="M178.654 190.731C178.614 190.715 178.554 190.669 178.476 190.593C178.399 190.518 178.333 190.474 178.279 190.46C178.226 190.448 178.302 190.474 178.507 190.539C178.712 190.605 177.841 190.164 175.896 189.218C177.21 188.555 177.534 188.392 176.866 188.729C177.744 188.605 179.193 188.769 181.213 189.22C183.233 189.671 184.784 190.019 185.864 190.265C186.944 190.511 187.831 190.605 188.525 190.547C189.218 190.487 189.703 190.477 189.978 190.517C190.253 190.556 190.687 190.557 191.279 190.518C191.873 190.481 192.558 190.441 193.335 190.399C194.113 190.358 194.755 190.305 195.262 190.24C195.769 190.175 196.291 190.081 196.828 189.955C197.365 189.828 197.64 189.782 197.652 189.82C197.664 189.857 197.639 189.863 197.579 189.837C197.518 189.811 197.814 189.776 198.466 189.731C199.117 189.686 199.576 189.666 199.841 189.672C200.105 189.677 200.209 189.678 200.154 189.676C200.098 189.675 200.098 189.685 200.152 189.706C200.206 189.726 200.194 189.726 200.116 189.707C200.037 189.69 200.636 189.787 201.915 189.998C201.894 190.078 201.98 190.091 202.173 190.037C202.365 189.984 201.819 189.83 200.535 189.575C199.251 189.317 198.165 189.249 197.275 189.369C196.385 189.488 195.942 189.568 195.949 189.609C195.954 189.651 195.727 189.673 195.268 189.676C194.808 189.679 194.792 189.739 195.218 189.855C195.644 189.97 194.33 189.909 191.278 189.67C188.226 189.433 186.665 189.278 186.598 189.205" stroke="#3D5330" stroke-width="4" stroke-linecap="round" stroke-linejoin="round"/>
<path d="M195.621 190.743C195.944 190.762 198.781 189.581 204.133 187.199" stroke="#3D5330" stroke-width="4" stroke-linecap="round" stroke-linejoin="round"/>
<path d="M195.167 189.74C195.686 189.935 195.936 190.022 195.915 190.002C195.893 189.983 195.975 189.967 196.162 189.954C196.35 189.942 196.335 189.961 196.118 190.012C195.902 190.063 196.608 190.036 198.235 189.932C199.86 189.828 201.796 189.735 204.041 189.655" stroke="#3D5330" stroke-width="4" stroke-linecap="round" stroke-linejoin="round"/>
<path d="M77.7046 190.622C78.5347 190.623 78.8173 190.599 78.5524 190.549C78.5002 190.478 78.8527 190.456 79.6098 190.483C79.5963 190.544 78.5055 190.222 76.3374 189.516C76.5043 189.451 76.6711 189.387 76.8379 189.323" stroke="#3D5330" stroke-width="4" stroke-linecap="round" stroke-linejoin="round"/>
<path d="M80.5863 188.902C81.0003 188.95 78.9073 189.058 74.3073 189.226C74.2541 189.346 74.3595 189.244 74.6233 188.921C74.8871 188.598 75.6823 188.482 77.0088 188.571C78.3343 188.662 79.436 188.788 80.3141 188.948C81.1922 189.107 81.747 189.227 81.9785 189.307" stroke="#3D5330" stroke-width="4" stroke-linecap="round" stroke-linejoin="round"/>
<path d="M79.1502 189.621C79.0208 189.616 78.9504 189.613 78.939 189.613" stroke="#3D5330" stroke-width="4" stroke-linecap="round" stroke-linejoin="round"/>
<path d="M74.6073 101.896C74.3935 102.125 73.8794 102.175 73.0649 102.044C73.8804 101.66 75.1355 101.476 76.8301 101.491C78.5258 101.507 79.5728 101.523 79.9712 101.538" stroke="#3D5330" stroke-width="4" stroke-linecap="round" stroke-linejoin="round"/>
<path d="M78.3322 102.039C78.5866 102.072 77.2721 102.092 74.3887 102.1C74.8642 102.176 75.8278 102.197 77.2794 102.165C78.7311 102.132 79.6931 102.066 80.1655 101.967" stroke="#3D5330" stroke-width="4" stroke-linecap="round" stroke-linejoin="round"/>
<path d="M202.112 105.336C202.021 105.136 201.976 105.034 201.974 105.031C201.973 105.028 201.976 105.032 201.982 105.043C201.99 105.055 201.993 105.048 201.992 105.022C201.991 104.996 201.906 104.862 201.738 104.62C201.569 104.378 201.406 104.184 201.247 104.037" stroke="#3D5330" stroke-width="4" stroke-linecap="round" stroke-linejoin="round"/>
<path d="M78.961 20.2266C78.7452 19.8923 78.607 19.6342 78.5465 19.453C78.4839 19.2717 78.1664 19.0694 77.5938 18.8464C77.0203 18.6225 76.4733 18.1281 75.953 17.3625C76.1125 17.1666 75.0545 18.1413 72.779 20.2862C72.8082 20.2289 72.7493 20.2398 72.6023 20.319C72.5074 20.4231 72.8812 20.6799 73.7238 21.0903C74.5654 21.5018 75.102 21.7474 75.3335 21.8266" stroke="#3D5330" stroke-width="4" stroke-linecap="round" stroke-linejoin="round"/>
<path d="M82.826 22.2051C81.8207 22.4218 81.4301 22.5012 81.6544 22.4439C80.4488 22.5439 79.9493 22.6066 80.1558 22.6316C80.5375 22.7628 79.8414 22.7001 78.0675 22.4439C77.8892 22.5616 78.36 22.7076 79.4801 22.8826C80.6001 23.0576 81.2513 23.154 81.4338 23.1718" stroke="#3D5330" stroke-width="4" stroke-linecap="round" stroke-linejoin="round"/>
</svg>
