<svg width="407" height="405" viewBox="0 0 407 405" fill="none" xmlns="http://www.w3.org/2000/svg">
<path d="M37.7799 291.469C37.5418 291.407 37.3735 291.624 37.275 292.121C37.1775 292.617 37.1154 292.696 37.0888 292.357C37.0623 292.018 37.7837 293.918 39.2532 298.057C40.7227 302.195 42.4098 306.058 44.3145 309.646C46.2181 313.235 48.3261 316.394 50.6383 319.121C52.9517 321.848 55.7906 324.856 59.1548 328.144C62.5202 331.432 65.534 334.144 68.1961 336.282C70.8572 338.421 73.7967 340.744 77.0148 343.252C80.2329 345.76 83.0147 347.978 85.3602 349.908C87.7056 351.838 91.4125 354.695 96.4811 358.478C101.551 362.263 105.747 365.375 109.069 367.816C112.392 370.255 115.013 372.323 116.932 374.019C118.852 375.715 121.268 377.155 124.181 378.339C127.096 379.524 130.567 380.756 134.595 382.036C138.622 383.316 142.956 384.838 147.594 386.603C152.232 388.368 155.918 389.623 158.651 390.369C161.385 391.116 163.467 391.62 164.896 391.882C166.326 392.143 168.054 392.446 170.081 392.789C172.109 393.133 175.456 393.703 180.12 394.5C184.785 395.297 189.837 395.763 195.278 395.899C200.717 396.036 205.016 395.994 208.174 395.775C211.334 395.555 215.999 395.276 222.171 394.936C228.343 394.594 234.144 394.047 239.574 393.293C245.004 392.54 249.307 391.879 252.484 391.312C255.662 390.744 258.514 390.048 261.04 389.222C263.566 388.396 265.722 387.904 267.509 387.748C269.295 387.591 272.63 386.733 277.513 385.175C282.397 383.616 286.289 382.169 289.189 380.833C292.088 379.496 294.15 378.64 295.375 378.265C296.601 377.89 299.423 376.422 303.841 373.86C308.261 371.298 312.001 368.811 315.062 366.399C318.123 363.988 321.378 361.926 324.828 360.214C328.278 358.502 331.593 356.685 334.773 354.762C337.951 352.84 342.019 349.54 346.977 344.86C351.934 340.18 355.772 336.69 358.488 334.391C361.204 332.091 363.195 330.306 364.46 329.035C365.723 327.765 366.881 325.902 367.933 323.448C368.985 320.993 370.364 317.999 372.071 314.465C373.776 310.93 375.272 308.092 376.557 305.951C377.843 303.809 379.661 300.882 382.011 297.171C384.36 293.459 386.465 289.583 388.324 285.545C390.184 281.505 391.457 278.085 392.145 275.282C392.832 272.48 393.337 270.422 393.661 269.108C393.987 267.795 394.25 265.811 394.45 263.157C394.651 260.503 394.917 258.02 395.25 255.707C395.582 253.393 395.963 250.042 396.394 245.654C396.824 241.265 397.211 237.91 397.555 235.589C397.901 233.267 398.003 231.438 397.862 230.102C397.723 228.765 397.626 228.004 397.573 227.819C397.521 227.634 397.502 226.99 397.515 225.888C397.53 224.783 397.593 223.853 397.704 223.097C397.816 222.34 397.883 221.424 397.906 220.349C397.929 219.274 397.872 218.403 397.736 217.734C397.6 217.067 397.508 216.595 397.462 216.318C397.415 216.04 397.381 215.801 397.357 215.6C397.335 215.4 397.307 215.298 397.273 215.296C397.24 215.295 397.191 215.068 397.128 214.614C397.065 214.162 397.034 213.896 397.035 213.816C397.037 213.737 396.994 213.222 396.906 212.272C396.818 211.324 396.761 210.874 396.733 210.924C396.706 210.973 396.683 210.858 396.663 210.58C396.643 210.302 396.691 210.308 396.808 210.598C396.924 210.89 396.898 207.933 396.73 201.729" stroke="#FCFBF2" stroke-width="4" stroke-linecap="round" stroke-linejoin="round"/>
<path d="M16.4994 207.804C16.4551 207.982 16.226 207.851 15.8118 207.411C15.3966 206.972 14.9452 205.666 14.4579 203.494C13.9707 201.32 13.5599 199.767 13.2255 198.834C12.8911 197.901 12.6137 196.09 12.3933 193.4C12.1741 190.711 12.3827 187.323 13.0195 183.237C13.6574 179.151 14.1646 175.293 14.5411 171.663C14.9176 168.033 15.6291 164.452 16.6756 160.92C17.721 157.388 18.6882 154.512 19.5775 152.292C20.4656 150.073 21.62 146.889 23.0408 142.743C24.4627 138.597 26.5895 133.934 29.4211 128.754C32.2527 123.577 34.4796 119.595 36.102 116.808C37.7243 114.022 39.9093 110.631 42.6567 106.635C45.4042 102.639 48.7529 98.0918 52.7029 92.9942C56.6519 87.8966 59.7404 84.0994 61.9685 81.6026C64.1966 79.1048 66.2224 76.7404 68.0463 74.5096C69.8702 72.2788 72.91 69.1484 77.1657 65.1179C81.4214 61.0875 85.2253 57.6715 88.5773 54.87C91.9283 52.0696 94.724 50.009 96.9643 48.688C99.2046 47.3671 102.129 45.6962 105.738 43.6748C109.347 41.6546 114.262 38.9605 120.484 35.5928C126.705 32.225 131.435 29.6533 134.673 27.878C137.912 26.1016 141.177 24.6946 144.468 23.6562C147.76 22.6178 150.989 21.9222 154.154 21.5698C157.318 21.2174 160.69 20.3767 164.272 19.048C167.852 17.7204 171.009 16.6901 173.743 15.9564C176.477 15.2228 178.491 14.7673 179.783 14.59C181.075 14.4116 183.361 14.3029 186.64 14.2641C189.918 14.2254 192.536 14.1334 194.493 13.9882C196.451 13.843 199.097 13.3243 202.43 12.4322C205.764 11.5413 208.33 10.9002 210.126 10.509C211.923 10.1178 214.239 10.0814 217.074 10.3995C219.91 10.7175 222.461 10.8494 224.725 10.7951C226.99 10.7397 230.479 10.4455 235.193 9.91246C239.908 9.37942 244.535 9.11401 249.077 9.11622C253.618 9.11844 257.789 9.47483 261.59 10.1852C265.389 10.8955 268.73 11.7586 271.611 12.7748C274.492 13.7921 277.627 15.06 281.016 16.5782C284.406 18.0964 286.817 19.3021 288.25 20.1953C289.682 21.0874 291.479 21.9449 293.641 22.7683C295.801 23.5916 297.633 24.1886 299.135 24.5588C300.637 24.9289 303.394 26.0386 307.406 27.8882C311.418 29.7377 315.947 32.5264 320.992 36.2543C326.037 39.9811 329.778 42.9057 332.214 45.0279C334.652 47.1511 336.652 48.8797 338.214 50.2139C339.777 51.5493 341.303 53.1392 342.794 54.9832C344.284 56.8272 345.499 58.4456 346.437 59.8385C347.374 61.2315 349.193 63.0207 351.897 65.206C354.599 67.3913 357.117 69.6678 359.453 72.0349C361.788 74.4019 363.988 76.7366 366.051 79.0394C368.114 81.3433 370.043 83.5056 371.838 85.5258C373.632 87.5471 375.903 90.2807 378.652 93.7271C381.399 97.1736 383.725 99.9374 385.63 102.019C387.535 104.1 388.918 105.424 389.781 105.992C390.644 106.558 391.025 106.824 390.924 106.789C390.824 106.754 390.674 106.702 390.474 106.633" stroke="#FCFBF2" stroke-width="4" stroke-linecap="round" stroke-linejoin="round"/>
<path d="M347.596 113.174C347.67 113.144 347.643 113.13 347.514 113.131C347.385 113.131 347.329 113.13 347.345 113.128C347.362 113.125 347.365 113.125 347.355 113.128C347.346 113.13 347.291 113.137 347.189 113.149C347.087 113.16 346.667 113.225 345.93 113.344C345.193 113.462 344.748 113.551 344.593 113.61C344.436 113.668 344.465 113.906 344.679 114.323C344.892 114.739 344.997 114.919 344.995 114.861C344.992 114.804 345.156 115.392 345.486 116.625C345.817 117.857 353.618 117.532 368.889 115.649C384.16 113.766 391.207 113.78 390.028 115.689C388.849 117.597 381.904 118.47 369.193 118.306C356.482 118.142 350.243 118.025 350.476 117.955C350.709 117.885 352.327 117.602 355.33 117.105C358.333 116.61 360.25 116.318 361.081 116.228" stroke="#FCFBF2" stroke-width="4" stroke-linecap="round" stroke-linejoin="round"/>
<path d="M396.429 110.129C395.854 110.911 395.266 109.018 394.665 104.449C394.065 99.8809 393.518 96.2824 393.024 93.6538C392.53 91.0263 392.156 89.1673 391.901 88.0769C391.646 86.9875 391.55 84.1832 391.612 79.6641C391.673 75.1449 391.659 71.3406 391.572 68.251C391.485 65.1603 391.293 63.1573 390.999 62.2419C390.704 61.3266 390.465 60.9282 390.281 61.0468C390.098 61.1664 390.672 70.6406 392 89.4697C393.33 108.299 393.756 117.56 393.276 117.253C392.797 116.946 392.93 115.456 393.677 112.782C394.424 110.106 394.892 108.394 395.08 107.643" stroke="#FCFBF2" stroke-width="4" stroke-linecap="round" stroke-linejoin="round"/>
<path d="M37.5207 294.8C37.3402 294.467 37.1884 294.257 37.0655 294.172C36.9425 294.085 36.6874 293.799 36.2998 293.314C35.9133 292.829 35.5645 292.398 35.2533 292.024C34.9421 291.65 34.7754 291.51 34.7533 291.602C34.73 291.694 34.7406 291.735 34.7849 291.726C34.8292 291.719 34.5274 291.524 33.8795 291.141C33.2328 290.76 32.3541 290.232 31.2433 289.556C30.1326 288.881 29.6858 288.515 29.9028 288.459C30.1199 288.403 30.2191 288.376 30.2003 288.377C30.1815 288.377 30.4394 288.352 30.9743 288.302C31.5102 288.253 32.0136 288.099 32.4843 287.844C32.9538 287.589 34.6945 287.402 37.7066 287.283C40.7176 287.165 44.9822 287.403 50.5004 287.998C56.0196 288.593 60.9044 288.695 65.1545 288.302C69.4058 287.91 71.0858 287.886 70.1944 288.229C69.3029 288.574 66.1672 289.144 60.7875 289.94C55.4078 290.734 51.1083 291.31 47.8891 291.667C44.671 292.024 42.2438 292.176 40.607 292.124C38.9714 292.071 38.1209 292.013 38.0556 291.953C37.9903 291.892 37.5351 291.863 36.6901 291.868C35.8452 291.873 35.1559 291.747 34.6221 291.489C34.0883 291.232 33.6758 291.012 33.3846 290.829C33.0933 290.646 32.9787 290.556 33.0407 290.558C33.1016 290.56 33.1205 290.554 33.0973 290.54C33.0729 290.524 32.9804 290.378 32.8199 290.101C32.6582 289.823 32.3081 289.903 31.7699 290.343C31.2317 290.783 31.4123 294.964 32.3115 302.884C33.2107 310.804 33.796 316.959 34.0673 321.35C34.3386 325.742 34.5556 329.145 34.7184 331.56C34.8823 333.974 34.9505 335.896 34.9228 337.326C34.8951 338.756 34.7966 339.374 34.6272 339.183C34.4577 338.992 34.2706 338.187 34.0657 336.767C33.8608 335.349 33.6065 332.715 33.3031 328.865C33.0008 325.015 32.812 321.545 32.7367 318.456C32.6603 315.365 32.5712 312.141 32.4693 308.785C32.3685 305.428 32.3099 302.882 32.2933 301.148C32.2767 299.414 32.1931 297.601 32.0425 295.711C31.8918 293.819 31.8474 292.509 31.9094 291.78C31.9726 291.05 32.1471 290.593 32.4328 290.408C32.7196 290.224 33.0179 290.107 33.328 290.054C33.6392 290.002 34.3197 289.96 35.3695 289.928C36.4193 289.897 37.1541 289.882 37.5738 289.883C37.9924 289.885 38.8202 289.892 40.0571 289.903C41.2952 289.914 42.6357 289.838 44.0787 289.675C45.5216 289.513 46.6533 289.396 47.4738 289.325C48.2944 289.255 50.0585 289.087 52.7661 288.821C55.4737 288.554 57.7688 288.294 59.6514 288.041C61.5328 287.787 62.7504 287.617 63.3041 287.529" stroke="#FCFBF2" stroke-width="4" stroke-linecap="round" stroke-linejoin="round"/>
<path d="M30.7002 293.856C30.9073 293.954 31.024 294.014 31.0506 294.035C31.0772 294.056 31.0999 294.092 31.1187 294.142C31.1375 294.19 31.0872 293.997 30.9676 293.563C30.8492 293.129 31.9349 294.841 34.2249 298.701C36.5139 302.561 39.0566 306.34 41.8527 310.04C44.65 313.739 47.4008 317.041 50.105 319.947C52.8093 322.853 56.1512 325.512 60.1312 327.921C64.1112 330.329 66.2822 331.656 66.6444 331.904" stroke="#FCFBF2" stroke-width="4" stroke-linecap="round" stroke-linejoin="round"/>
<path d="M161.195 145.176C161.086 145.128 160.928 145.08 160.724 145.033C160.5 145.651 160.397 145.934 160.415 145.88C160.432 145.827 160.425 145.907 160.393 146.12C160.345 146.073 160.251 145.995 160.111 145.884C159.763 146.564 159.653 146.832 159.78 146.688C159.78 146.783 159.685 146.972 159.496 147.255C159.461 147.221 159.455 147.216 159.478 147.24C159.501 147.265 159.471 147.265 159.388 147.242C159.305 147.219 159.394 147.237 159.655 147.297C159.917 147.358 160.277 147.41 160.737 147.453C161.196 147.497 161.535 147.541 161.752 147.584C161.968 147.628 162.127 147.63 162.229 147.593C162.329 147.554 162.325 147.569 162.215 147.638C162.107 147.706 162.412 147.618 163.13 147.373C163.849 147.127 164.946 146.793 166.423 146.371C167.9 145.948 169.002 145.649 169.73 145.477C170.458 145.304 171.085 145.216 171.612 145.212C172.14 145.208 172.477 145.162 172.622 145.076C172.767 144.989 172.957 144.936 173.192 144.92C173.425 144.902 173.478 144.895 173.351 144.898C173.223 144.903 173.635 144.872 174.589 144.808C175.541 144.744 176.529 144.702 177.552 144.684C178.575 144.666 179.128 144.651 179.21 144.637C179.293 144.624 179.494 144.562 179.813 144.453C180.132 144.343 181.237 144.229 183.128 144.112C185.021 143.994 186.677 143.885 188.097 143.783C189.517 143.681 190.586 143.61 191.302 143.572C192.019 143.532 192.573 143.491 192.965 143.45C193.357 143.41 193.696 143.363 193.982 143.307C194.268 143.252 194.482 143.205 194.625 143.166C194.769 143.127 194.85 143.102 194.869 143.091C194.888 143.081 194.915 143.103 194.952 143.158C195.027 143.237 195.456 143.243 196.239 143.173C197.021 143.103 197.772 143.039 198.493 142.98C199.213 142.921 200.255 142.899 201.62 142.913C202.985 142.928 204.068 142.917 204.869 142.88C205.67 142.844 206.253 142.872 206.618 142.967C206.983 143.06 207.39 143.261 207.839 143.572C208.118 143.33 208.556 143.15 209.154 143.031C209.751 142.913 210.503 142.8 211.41 142.692C212.316 142.585 213.001 142.497 213.466 142.43C213.932 142.363 214.225 142.323 214.345 142.308C214.466 142.294 214.509 142.286 214.475 142.285C214.44 142.283 214.609 142.243 214.98 142.164C215.35 142.086 215.486 142.059 215.39 142.082C215.292 142.106 215.428 142.088 215.795 142.031C216.162 141.973 216.639 141.904 217.227 141.823C217.814 141.742 218.387 141.654 218.946 141.557C219.504 141.458 219.973 141.422 220.352 141.447C220.73 141.473 220.981 141.461 221.104 141.412C221.228 141.363 221.418 141.374 221.674 141.444C221.93 141.513 222.226 141.606 222.562 141.725C222.899 141.843 223.201 141.917 223.469 141.946C223.736 141.975 223.863 141.973 223.848 141.941C223.834 141.909 224.014 141.858 224.39 141.788C224.765 141.719 224.927 141.697 224.876 141.72C224.827 141.743 224.881 141.748 225.039 141.733C225.197 141.718 226.245 141.591 228.184 141.354C230.119 141.118 231.381 140.866 231.969 140.598C232.803 140.532 233.749 140.475 234.808 140.426C235.866 140.378 236.687 140.293 237.272 140.171C237.856 140.049 238.251 139.991 238.456 139.998C238.66 140.005 238.928 139.992 239.262 139.961C239.596 139.929 239.826 139.909 239.951 139.901C240.077 139.894 240.17 139.887 240.23 139.881C240.29 139.876 240.269 139.87 240.168 139.865C240.068 139.86 240.343 139.873 240.994 139.903C241.644 139.933 242.208 139.955 242.687 139.97C243.164 139.985 243.612 140.097 244.032 140.307C244.63 140.022 244.858 139.928 244.716 140.024C245.551 140.287 245.866 140.405 245.662 140.379C245.975 140.417 246.203 140.346 246.346 140.166C246.358 140.299 246.807 140.275 247.692 140.094C248.193 140.462 248.453 140.581 248.472 140.45C249.136 140.431 249.418 140.478 249.321 140.591H249.393C249.44 140.685 249.574 140.827 249.794 141.017C249.794 140.921 249.794 140.827 249.794 140.732C250.395 140.595 250.778 140.464 250.946 140.338C251.112 140.213 251.346 140.1 251.65 140C251.953 139.899 252.096 139.854 252.078 139.866C252.061 139.879 252.052 139.883 252.052 139.878C252.052 139.874 252.066 139.88 252.093 139.898C252.12 139.916 252.55 139.863 253.384 139.74" stroke="#FCFBF2" stroke-width="4" stroke-linecap="round" stroke-linejoin="round"/>
<path d="M256.359 140.874C256.349 141.023 256.352 141.089 256.366 141.072C256.38 141.054 256.389 141.036 256.392 141.017C256.396 140.998 256.397 140.985 256.397 140.977C256.396 140.97 256.392 140.981 256.384 141.007C256.376 141.033 256.355 141.127 256.321 141.291C256.288 141.454 256.247 141.647 256.198 141.868C256.15 142.089 256.094 142.214 256.029 142.245C256.123 142.408 255.967 142.986 255.562 143.979C255.157 144.972 254.721 145.818 254.255 146.516C253.787 147.213 253.482 147.731 253.339 148.069C253.197 148.405 253.062 148.699 252.936 148.95C252.808 149.2 252.626 149.543 252.389 149.978C252.152 150.413 252.07 150.63 252.143 150.628C252.217 150.628 251.928 151.254 251.278 152.507C250.628 153.759 249.945 155.134 249.23 156.632C248.513 158.132 248.006 159.241 247.707 159.96C247.407 160.68 247.215 161.2 247.133 161.519C247.051 161.838 246.976 162.113 246.906 162.342C246.836 162.572 246.744 162.814 246.629 163.069C246.512 163.324 246.41 163.587 246.321 163.858C246.234 164.13 246.21 164.176 246.251 163.996C246.292 163.816 246.123 164.242 245.743 165.274C245.362 166.308 245.023 167.18 244.725 167.889C244.426 168.598 244.201 169.134 244.051 169.497C243.9 169.859 243.764 170.127 243.644 170.301C243.523 170.474 243.407 170.77 243.296 171.189C243.185 171.608 242.945 172.131 242.579 172.758C242.212 173.385 241.922 173.937 241.707 174.414C241.492 174.89 241.341 175.255 241.253 175.509C241.166 175.763 241.13 175.893 241.147 175.9C241.163 175.908 241.068 176.149 240.86 176.625C240.65 177.101 240.465 177.569 240.303 178.029C240.141 178.489 240.01 178.835 239.909 179.066C239.807 179.299 239.721 179.527 239.649 179.749C239.577 179.973 239.481 180.264 239.361 180.622C239.243 180.981 239.235 181.024 239.338 180.75C239.442 180.476 239.253 180.998 238.77 182.314C238.288 183.631 237.866 184.787 237.502 185.784C237.139 186.779 236.868 187.572 236.69 188.164C236.511 188.756 236.402 189.134 236.365 189.299C236.326 189.464 236.257 189.848 236.159 190.449C236.061 191.05 235.905 191.525 235.69 191.874C235.475 192.222 235.287 192.572 235.125 192.925C234.964 193.276 234.826 193.594 234.712 193.879C234.599 194.164 234.489 194.46 234.383 194.767C234.277 195.073 234.237 195.153 234.265 195.009C234.292 194.865 234.043 195.637 233.518 197.326C232.992 199.015 232.53 200.44 232.132 201.602C231.733 202.763 231.424 203.604 231.204 204.123C230.983 204.643 230.632 205.663 230.149 207.182C229.666 208.703 229.112 210.412 228.488 212.312C227.863 214.21 227.143 216.216 226.327 218.329C225.512 220.442 224.721 222.187 223.955 223.564C223.188 224.941 222.552 226.334 222.046 227.743C221.54 229.152 220.396 232.409 218.614 237.513C216.834 242.616 215.462 246.461 214.5 249.046C213.537 251.631 212.874 253.505 212.508 254.666C212.144 255.828 211.842 256.73 211.603 257.372C211.363 258.014 211.209 258.409 211.143 258.556C211.075 258.702 211.035 258.82 211.023 258.908C211.011 258.997 210.995 259.07 210.977 259.126C210.957 259.184 210.949 259.205 210.953 259.191C210.957 259.177 210.889 259.377 210.749 259.793C210.61 260.208 210.466 260.555 210.319 260.832C210.173 261.111 210.043 261.435 209.93 261.804C209.817 262.174 209.72 262.439 209.638 262.597C209.557 262.755 209.483 262.968 209.415 263.234C209.348 263.499 209.338 263.51 209.387 263.269C209.434 263.028 209.256 263.532 208.85 264.78C208.445 266.028 207.966 267.679 207.413 269.73C206.862 271.781 206.363 273.483 205.915 274.835C205.468 276.187 205.156 277.106 204.978 277.592C204.8 278.08 204.632 278.578 204.474 279.088C204.314 279.599 204.153 280.066 203.99 280.488C203.827 280.91 203.652 281.304 203.465 281.67C203.278 282.036 203.111 282.308 202.963 282.485C202.816 282.662 202.745 282.8 202.749 282.9C202.755 283.001 202.685 283.226 202.542 283.577C202.398 283.927 202.187 284.395 201.91 284.981C201.633 285.567 201.4 286.259 201.211 287.056C201.022 287.854 200.816 288.566 200.595 289.193C200.373 289.819 200.154 290.378 199.937 290.867C199.72 291.356 199.508 291.859 199.302 292.377C199.097 292.895 198.902 293.287 198.719 293.55C198.536 293.814 198.436 293.955 198.422 293.972C198.408 293.989 198.426 294.037 198.477 294.117C198.528 294.195 198.458 294.492 198.266 295.005C198.073 295.518 197.909 295.913 197.773 296.191C197.635 296.47 197.514 296.676 197.409 296.81C197.305 296.945 197.208 297.07 197.118 297.186C197.029 297.301 196.953 297.402 196.887 297.488C196.822 297.574 196.779 297.624 196.758 297.636C196.687 298.045 196.577 298.281 196.427 298.344C196.485 298.271 196.438 298.46 196.286 298.911" stroke="#FCFBF2" stroke-width="4" stroke-linecap="round" stroke-linejoin="round"/>
<path d="M171.775 146.405C171.705 145.874 171.658 145.558 171.634 145.459C171.979 145.553 171.71 145.688 170.825 145.864C169.94 146.04 169.147 146.176 168.446 146.27C167.745 146.365 167.262 146.411 166.996 146.408C166.73 146.404 166.485 146.401 166.26 146.398C166.036 146.394 165.803 146.399 165.561 146.411C165.317 146.423 165.086 146.424 164.866 146.413C164.648 146.403 164.418 146.367 164.176 146.305C163.932 146.243 163.716 146.194 163.528 146.158C163.339 146.122 163.195 146.098 163.094 146.087C162.993 146.076 162.847 146.046 162.654 145.999C162.459 145.951 162.388 145.935 162.44 145.952C162.492 145.969 162.394 145.932 162.146 145.841C161.898 145.75 161.109 145.67 159.78 145.6C161.418 145.54 161.97 145.489 161.436 145.448C160.903 145.407 161.229 145.421 162.416 145.489C163.603 145.555 164.502 145.639 165.111 145.741C165.719 145.843 166.222 145.893 166.621 145.889C167.018 145.887 167.168 145.885 167.071 145.884C166.973 145.884 167.135 145.885 167.557 145.888C167.98 145.89 168.129 145.887 168.003 145.881C167.877 145.874 168.02 145.891 168.429 145.932C168.839 145.974 169.34 145.864 169.933 145.6C170.191 144.987 170.285 144.704 170.217 144.75C170.217 144.609 170.217 144.514 170.217 144.466C170.326 144.42 170.515 144.325 170.783 144.183C171.051 144.042 171.24 143.947 171.35 143.899" stroke="#FCFBF2" stroke-width="4" stroke-linecap="round" stroke-linejoin="round"/>
<path d="M246.755 139.93C246.74 139.835 246.724 139.79 246.705 139.795C246.685 139.8 246.673 139.795 246.668 139.782C246.664 139.769 246.657 139.763 246.647 139.765C246.636 139.769 246.55 139.835 246.389 139.965C246.229 140.096 246.057 140.305 245.874 140.592C245.83 140.654 245.848 140.756 245.929 140.899C246.01 141.043 246.072 141.128 246.114 141.155C246.155 141.181 246.401 141.362 246.854 141.697C247.307 142.033 247.532 142.168 247.527 142.104C248.076 142.249 248.298 142.301 248.193 142.26C248.088 142.218 248.066 142.203 248.128 142.216C248.189 142.228 248.451 142.26 248.912 142.312C249.373 142.365 249.535 142.391 249.399 142.389C249.262 142.385 249.25 142.377 249.364 142.363C249.477 142.351 249.466 142.34 249.329 142.33C249.193 142.321 249.354 142.309 249.813 142.292C250.271 142.276 250.954 142.165 251.861 141.958C252.768 141.752 253.453 141.544 253.917 141.335C254.381 141.125 254.705 140.946 254.889 140.798C255.073 140.648 255.244 140.534 255.402 140.457C255.561 140.378 255.593 140.357 255.499 140.394C255.405 140.43 255.401 140.426 255.487 140.382C255.572 140.338 255.599 140.333 255.567 140.367C255.534 140.403 255.521 140.408 255.53 140.382C255.539 140.357 255.739 140.285 256.13 140.167C256.521 140.051 256.877 139.951 257.198 139.868C257.519 139.785 257.667 139.751 257.643 139.765C257.62 139.78 257.699 139.76 257.881 139.707C258.061 139.654 258.43 139.573 258.987 139.465C259.543 139.357 259.757 139.319 259.628 139.351C259.5 139.385 259.601 139.371 259.932 139.312C260.263 139.251 260.416 139.228 260.389 139.243C260.364 139.258 260.345 139.263 260.334 139.258C260.323 139.253 260.348 139.249 260.409 139.247C260.469 139.246 260.572 139.223 260.72 139.18C260.867 139.138 261.033 139.094 261.218 139.047C261.404 139.001 261.594 138.973 261.789 138.964C261.984 138.954 262.136 138.947 262.244 138.943C262.352 138.938 262.405 138.936 262.404 138.937C262.514 138.937 262.829 138.89 263.349 138.795C263.349 138.748 263.349 138.701 263.349 138.653C263.406 138.66 263.24 138.804 262.852 139.084C262.465 139.364 261.888 139.85 261.123 140.542C260.358 141.234 259.714 141.86 259.191 142.418C258.67 142.976 257.98 143.749 257.123 144.739C256.266 145.729 255.334 146.71 254.328 147.681" stroke="#FCFBF2" stroke-width="4" stroke-linecap="round" stroke-linejoin="round"/>
</svg>
