<svg width="612" height="425" viewBox="0 0 612 425" fill="none" xmlns="http://www.w3.org/2000/svg">
<path d="M425.858 176.106C425.905 176.112 425.887 176.105 425.804 176.085C425.721 176.064 425.872 176.074 426.259 176.115C426.647 176.156 426.821 176.122 426.783 176.013C426.745 175.905 426.723 175.863 426.717 175.886C426.711 175.909 426.708 175.916 426.709 175.908C426.71 175.9 426.665 175.821 426.575 175.671C426.484 175.52 426.443 175.453 426.453 175.468C426.462 175.484 426.463 175.487 426.456 175.477C426.449 175.468 426.38 175.368 426.248 175.177C426.117 174.986 426.045 174.882 426.033 174.866C426.022 174.849 426.016 174.848 426.015 174.863C426.014 174.878 426.007 174.872 425.995 174.844C425.982 174.818 425.903 174.769 425.759 174.698C425.614 174.629 425.507 174.502 425.436 174.32C425.365 174.139 424.971 173.939 424.252 173.719C423.533 173.5 422.945 173.356 422.488 173.287C422.03 173.218 421.692 173.207 421.474 173.255C421.257 173.304 421.148 173.331 421.147 173.337C421.147 173.344 421.138 173.341 421.119 173.327C421.101 173.312 420.886 173.374 420.474 173.51C420.063 173.646 419.792 173.752 419.662 173.828C419.532 173.905 419.418 173.973 419.32 174.034C419.221 174.094 419.041 174.217 418.779 174.402C418.516 174.588 418.382 174.686 418.377 174.696C418.371 174.704 418.355 174.716 418.328 174.729C418.301 174.741 418.33 174.718 418.417 174.66C418.504 174.601 418.101 174.776 417.208 175.187C416.314 175.596 415.615 175.906 415.11 176.115C414.606 176.324 414.171 176.539 413.804 176.76C413.438 176.981 413.025 177.248 412.564 177.561C412.103 177.875 411.68 178.24 411.294 178.657C410.907 179.074 410.56 179.458 410.252 179.81C409.943 180.162 409.582 180.555 409.168 180.988C408.753 181.42 408.45 181.784 408.26 182.077C408.069 182.372 407.893 182.595 407.731 182.747C407.569 182.898 407.492 182.976 407.498 182.979C407.503 182.983 407.512 182.974 407.524 182.954C407.537 182.934 407.529 182.943 407.5 182.982C407.472 183.02 407.476 183.017 407.512 182.974C407.548 182.93 407.501 182.988 407.372 183.148C407.242 183.307 407.141 183.426 407.07 183.505C407 183.582 406.92 183.671 406.831 183.77C406.742 183.869 406.641 183.982 406.529 184.11C406.416 184.237 406.36 184.299 406.359 184.296C406.359 184.293 406.364 184.288 406.373 184.281C406.382 184.274 406.386 184.28 406.385 184.296C406.384 184.314 406.224 184.506 405.908 184.872C405.59 185.238 405.45 185.395 405.488 185.341C405.526 185.286 405.234 185.67 404.611 186.495C403.987 187.319 403.479 188.004 403.088 188.551C402.696 189.098 402.348 189.519 402.043 189.813C401.739 190.105 401.527 190.377 401.408 190.628C401.288 190.88 401.155 191.126 401.008 191.365C400.861 191.605 400.813 191.671 400.862 191.564C400.912 191.457 400.705 191.796 400.244 192.58C399.781 193.365 399.343 194.148 398.931 194.931C398.519 195.714 398.208 196.242 397.996 196.513C397.785 196.786 397.411 197.491 396.875 198.629C396.339 199.768 395.909 200.788 395.584 201.687C395.26 202.588 394.987 203.3 394.763 203.824C394.539 204.349 394.399 204.727 394.342 204.96C394.285 205.193 394.089 205.688 393.754 206.442C393.419 207.196 393.116 207.823 392.846 208.323C392.577 208.823 392.3 209.309 392.016 209.781C391.733 210.254 391.519 210.627 391.373 210.899C391.227 211.173 391.062 211.525 390.879 211.957C390.695 212.389 390.501 212.826 390.297 213.268C390.094 213.71 389.907 214.07 389.736 214.347C389.565 214.625 389.195 215.509 388.626 216.999C388.056 218.49 387.658 219.568 387.43 220.232C387.202 220.897 386.816 221.857 386.273 223.114C385.728 224.371 385.265 225.494 384.882 226.482C384.498 227.471 383.993 228.801 383.364 230.473C382.736 232.144 382.195 233.498 381.74 234.535C381.285 235.571 380.877 236.649 380.517 237.769M406.302 238.138C406.781 237.553 407.298 236.974 407.852 236.401C408.407 235.828 408.873 235.397 409.251 235.108C409.63 234.818 410.095 234.462 410.646 234.041C411.198 233.62 411.908 233.011 412.775 232.213C413.644 231.415 414.451 230.7 415.198 230.068C415.945 229.436 416.55 228.78 417.012 228.098C417.476 227.417 417.898 226.811 418.277 226.28C418.657 225.749 418.957 225.325 419.177 225.009C419.398 224.694 419.544 224.476 419.615 224.355C419.686 224.234 419.718 224.183 419.711 224.2C419.704 224.218 419.783 224.14 419.947 223.967C420.112 223.793 420.565 223.378 421.308 222.721C422.05 222.064 422.538 221.623 422.772 221.4C423.006 221.176 423.43 220.736 424.046 220.081C424.663 219.425 425.186 218.833 425.614 218.305C426.043 217.776 426.437 217.278 426.795 216.811C427.154 216.343 427.426 215.975 427.612 215.706C427.798 215.436 427.861 215.326 427.803 215.377C427.744 215.426 427.973 215.139 428.49 214.516C429.008 213.892 429.607 213.132 430.286 212.234C430.966 211.336 431.48 210.648 431.829 210.168C432.177 209.688 432.45 209.325 432.649 209.079C432.847 208.834 433.028 208.61 433.191 208.411C433.353 208.212 433.448 208.1 433.476 208.075C433.504 208.049 433.523 208.027 433.535 208.009C433.546 207.989 433.636 207.9 433.804 207.741C433.972 207.582 434.067 207.485 434.088 207.452C434.11 207.418 434.102 207.412 434.064 207.433C434.027 207.453 434.131 207.391 434.375 207.246C434.62 207.1 435.008 206.477 435.539 205.378C436.07 204.278 436.454 203.429 436.691 202.831C436.929 202.233 437.093 201.795 437.182 201.516C437.271 201.237 437.338 200.959 437.383 200.684C437.427 200.409 437.45 200.273 437.453 200.274C437.457 200.275 437.525 200.071 437.657 199.66C437.79 199.25 437.911 198.882 438.021 198.556C438.13 198.231 438.176 198.101 438.161 198.168C438.145 198.233 438.176 198.094 438.253 197.75C438.331 197.406 438.409 197.081 438.487 196.775C438.566 196.469 438.629 196.197 438.676 195.96C438.722 195.722 438.768 195.478 438.811 195.227C438.854 194.975 438.888 194.777 438.913 194.634C438.938 194.489 438.975 194.31 439.023 194.096C439.071 193.882 439.083 193.859 439.058 194.027C439.034 194.194 439.118 193.776 439.309 192.771C439.5 191.765 439.601 190.91 439.611 190.204C439.622 189.497 439.558 188.894 439.42 188.395C439.283 187.896 439.205 187.548 439.187 187.353C439.169 187.157 439.132 186.959 439.076 186.757C439.021 186.556 438.981 186.405 438.957 186.305C438.933 186.206 438.915 186.135 438.904 186.091C438.892 186.049 438.884 186.02 438.879 186.004C438.873 185.987 438.818 185.868 438.713 185.646C438.607 185.424 438.54 185.278 438.514 185.208C438.488 185.138 438.437 185.023 438.362 184.863C438.288 184.703 438.23 184.596 438.19 184.543C438.149 184.49 438.165 184.51 438.239 184.602C438.312 184.693 438.162 184.486 437.789 183.982C437.415 183.479 437.111 183.084 436.876 182.798C436.64 182.511 436.443 182.254 436.285 182.028C436.126 181.802 435.957 181.61 435.776 181.452C435.596 181.293 435.486 181.201 435.447 181.175C435.408 181.149 434.965 180.712 434.117 179.864C433.27 179.017 432.571 178.371 432.019 177.926C431.466 177.481 431.018 177.161 430.674 176.966C430.33 176.771 430.078 176.626 429.92 176.532C429.761 176.437 429.64 176.372 429.556 176.338C429.472 176.303 429.457 176.299 429.511 176.326C429.565 176.353 429.488 176.311 429.279 176.2C429.071 176.089 428.838 175.973 428.581 175.854C428.323 175.735 428.113 175.626 427.95 175.525C427.788 175.424 427.712 175.388 427.721 175.418C427.729 175.447 427.617 175.408 427.383 175.301C427.15 175.194 427.044 175.131 427.066 175.111C427.087 175.091 426.886 174.992 426.461 174.814C426.037 174.636 425.61 174.525 425.179 174.48C424.748 174.434 424.432 174.38 424.231 174.315C424.03 174.251 423.866 174.22 423.738 174.222C423.611 174.225 423.468 174.246 423.311 174.287C423.153 174.328 423.078 174.344 423.087 174.336C423.095 174.327 423.036 174.346 422.909 174.392C422.782 174.437 422.666 174.478 422.561 174.514C422.455 174.549 422.409 174.563 422.423 174.554C422.437 174.545 422.446 174.544 422.451 174.552C422.456 174.56 422.444 174.562 422.414 174.556C422.384 174.552 422.313 174.519 422.203 174.458C422.092 174.398 422.021 174.339 421.99 174.28" stroke="#3D5330" stroke-width="4" stroke-linecap="round" stroke-linejoin="round"/>
<path d="M428.157 173.626C428.158 173.655 428.159 173.692 428.16 173.738C428.161 173.782 428.141 173.69 428.1 173.462C428.06 173.234 428.033 173.132 428.019 173.154C428.005 173.176 428.003 173.19 428.011 173.195C428.021 173.2 428.018 173.187 428.002 173.158C427.987 173.13 427.945 173.033 427.876 172.869C427.808 172.704 427.769 172.613 427.758 172.594C427.747 172.575 427.756 172.594 427.784 172.651C427.813 172.708 427.76 172.627 427.625 172.406C427.49 172.186 427.343 171.916 427.186 171.598C427.027 171.279 426.881 170.995 426.746 170.745C426.612 170.494 426.53 170.33 426.501 170.251C426.472 170.173 426.441 170.114 426.409 170.076C426.378 170.038 426.292 169.879 426.15 169.599C426.009 169.318 425.786 168.841 425.483 168.167C425.179 167.493 424.885 166.839 424.6 166.204C424.314 165.569 424.088 164.983 423.923 164.446C423.757 163.909 423.598 163.376 423.446 162.847C423.295 162.318 423.153 161.711 423.02 161.025C422.888 160.338 422.766 159.302 422.657 157.917C422.547 156.532 422.645 154.456 422.951 151.689C423.257 148.923 423.688 146.389 424.244 144.089C424.801 141.789 425.235 140.121 425.546 139.083C425.859 138.047 426.085 137.379 426.223 137.08C426.361 136.781 426.619 136.237 426.995 135.448C427.372 134.659 427.606 134.079 427.697 133.708C427.789 133.337 428.145 132.559 428.765 131.373C429.386 130.188 429.946 129.327 430.446 128.79C430.946 128.252 431.225 127.97 431.283 127.942C431.343 127.915 431.59 128.475 432.025 129.622C432.462 130.769 432.848 131.652 433.183 132.272C433.519 132.892 433.859 133.499 434.202 134.091C434.546 134.684 434.825 135.177 435.039 135.57C435.253 135.964 435.432 136.298 435.575 136.572C435.718 136.846 435.915 137.239 436.166 137.749C436.416 138.26 436.701 139.017 437.02 140.021C437.34 141.025 437.596 141.795 437.789 142.332C437.981 142.868 438.363 144.019 438.935 145.784C439.506 147.549 439.867 149.411 440.016 151.369C440.165 153.328 440.258 154.749 440.296 155.632C440.335 156.515 440.289 157.454 440.157 158.448C440.026 159.442 439.711 160.707 439.212 162.241C438.713 163.775 438.238 165.107 437.786 166.235C437.334 167.365 436.934 168.355 436.586 169.207C436.239 170.058 435.664 171.027 434.863 172.114C434.063 173.201 433.29 173.991 432.544 174.484C431.8 174.979 431.446 175.212 431.481 175.185C431.517 175.158 431.573 175.117 431.65 175.063C431.726 175.008 431.803 174.96 431.882 174.92C431.961 174.879 432.034 174.828 432.102 174.767" stroke="#3D5330" stroke-width="4" stroke-linecap="round" stroke-linejoin="round"/>
<path d="M432.477 174.166C432.446 174.107 432.423 174.063 432.407 174.033C432.392 174.004 432.342 174.028 432.257 174.105C432.174 174.181 432.143 174.209 432.163 174.188C432.184 174.167 432.192 174.159 432.187 174.165C432.182 174.169 432.246 174.081 432.381 173.901C432.515 173.719 432.571 173.643 432.548 173.674C432.524 173.704 432.569 173.641 432.681 173.481C432.794 173.323 433.103 173.02 433.607 172.573C434.112 172.124 434.714 171.497 435.415 170.69C436.116 169.884 436.933 168.963 437.866 167.929C438.798 166.896 439.669 165.867 440.479 164.845C441.291 163.822 442.065 162.891 442.802 162.053C443.54 161.214 445.238 160.314 447.895 159.351C450.552 158.388 452.724 157.58 454.41 156.928C456.096 156.274 458.287 155.778 460.984 155.439C463.681 155.1 466.258 154.703 468.714 154.247C471.171 153.79 472.976 153.37 474.13 152.986C475.283 152.603 476.212 152.304 476.916 152.09C477.621 151.876 478.585 151.92 479.81 152.222C481.034 152.524 481.92 152.708 482.468 152.773C483.015 152.838 483.276 152.861 483.249 152.843C483.224 152.824 482.919 152.675 482.335 152.393C481.752 152.112 481.41 151.927 481.309 151.84" stroke="#3D5330" stroke-width="4" stroke-linecap="round" stroke-linejoin="round"/>
<path d="M432.044 176.342C432.089 176.46 432.463 176.65 433.164 176.911C433.866 177.172 434.459 177.359 434.943 177.473C435.428 177.587 435.746 177.649 435.897 177.656C436.049 177.664 436.457 177.74 437.123 177.883C437.788 178.026 438.814 178.19 440.199 178.374C441.585 178.558 442.674 178.704 443.465 178.812C444.257 178.92 445.221 178.932 446.359 178.848C447.497 178.763 448.805 178.578 450.285 178.295C451.765 178.011 452.96 177.73 453.87 177.452C454.781 177.175 455.959 176.631 457.404 175.819C458.849 175.006 460.388 174.32 462.02 173.759C463.653 173.197 464.932 172.798 465.858 172.562C466.784 172.327 467.77 171.777 468.818 170.913C469.866 170.049 470.701 169.289 471.324 168.631C471.947 167.975 472.556 167.198 473.152 166.3C473.748 165.403 474.28 164.612 474.75 163.93C475.22 163.247 475.573 162.735 475.809 162.393C476.046 162.053 476.4 161.575 476.871 160.961C477.344 160.346 477.719 159.753 477.996 159.181C478.273 158.608 478.535 158.044 478.783 157.488C479.031 156.932 479.146 156.614 479.128 156.534C479.11 156.453 479.177 156.212 479.33 155.811C479.483 155.408 479.598 155.153 479.676 155.045C479.753 154.936 479.856 154.761 479.984 154.52C480.112 154.277 480.193 154.137 480.227 154.099C480.261 154.061 480.259 154.076 480.22 154.147C480.182 154.218 480.207 154.16 480.295 153.973C480.382 153.787 480.485 153.585 480.604 153.368C480.722 153.151 480.903 152.91 481.146 152.646" stroke="#3D5330" stroke-width="4" stroke-linecap="round" stroke-linejoin="round"/>
<path d="M412.989 182.929C413.055 182.975 412.957 182.964 412.696 182.895C412.434 182.827 412.311 182.83 412.326 182.903C412.34 182.977 412.191 182.965 411.878 182.868C411.567 182.77 411.404 182.729 411.389 182.744C411.374 182.759 411.345 182.789 411.301 182.834C411.258 182.88 411.228 182.896 411.213 182.881C411.198 182.867 411.183 182.852 411.168 182.837C411.153 182.823 411.136 182.84 411.118 182.887C411.099 182.936 411.086 182.939 411.079 182.897C411.071 182.854 411.061 182.854 411.049 182.895C411.037 182.937 411.04 183.023 411.058 183.153C411.077 183.282 411.089 183.363 411.095 183.397C411.102 183.43 411.105 183.439 411.105 183.423C411.105 183.408 411.105 183.402 411.105 183.404C411.104 183.405 411.092 183.391 411.069 183.361C411.045 183.33 411.045 183.333 411.07 183.369C411.094 183.405 411.159 183.493 411.266 183.632C411.373 183.771 411.477 183.902 411.578 184.027C411.68 184.151 411.751 184.216 411.789 184.222C411.828 184.228 411.805 184.219 411.72 184.194C411.636 184.17 411.824 184.34 412.285 184.702C412.745 185.065 413.173 185.35 413.568 185.557C413.964 185.763 414.318 185.965 414.631 186.16C414.944 186.355 415.226 186.535 415.477 186.701C415.728 186.868 415.87 186.954 415.903 186.962C415.936 186.969 415.937 186.971 415.907 186.967C415.877 186.962 416.032 187.029 416.372 187.166C416.711 187.303 417.814 188.06 419.68 189.437" stroke="#3D5330" stroke-width="4" stroke-linecap="round" stroke-linejoin="round"/>
<path d="M412.63 212.56C412.503 212.407 412.358 212.248 412.194 212.082C412.03 211.914 411.946 211.834 411.943 211.841C411.941 211.848 411.946 211.851 411.958 211.849C411.969 211.848 411.955 211.834 411.914 211.81C411.873 211.785 411.831 211.757 411.785 211.727C411.74 211.697 411.727 211.687 411.746 211.696C411.763 211.704 411.728 211.666 411.641 211.581C411.552 211.497 411.563 211.494 411.673 211.573C411.782 211.654 412.219 211.932 412.984 212.408C413.748 212.884 414.37 213.248 414.85 213.498C415.332 213.749 415.673 213.953 415.874 214.111C416.075 214.27 416.285 214.451 416.506 214.655C416.725 214.859 417.175 215.201 417.854 215.681C418.534 216.16 419.117 216.584 419.604 216.953C420.09 217.322 420.445 217.622 420.668 217.852C420.891 218.082 420.995 218.187 420.979 218.165C420.963 218.143 420.987 218.152 421.051 218.191C421.114 218.229 421.197 218.28 421.3 218.346C421.402 218.411 421.439 218.437 421.41 218.423C421.382 218.41 421.38 218.41 421.404 218.425C421.428 218.44 421.417 218.43 421.368 218.398C421.32 218.364 421.325 218.366 421.382 218.405C421.44 218.444 421.551 218.524 421.716 218.644C421.88 218.765 421.879 218.765 421.712 218.644C421.544 218.524 421.302 218.347 420.984 218.112C420.667 217.879 420.238 217.578 419.697 217.209C419.155 216.84 418.891 216.657 418.904 216.658C418.917 216.661 418.292 216.287 417.03 215.535C415.767 214.782 414.662 214.11 413.715 213.517C412.769 212.924 411.508 212.158 409.93 211.218" stroke="#3D5330" stroke-width="4" stroke-linecap="round" stroke-linejoin="round"/>
<path d="M410.302 184.514C410.028 184.152 409.793 183.86 409.596 183.637C409.399 183.413 409.282 183.232 409.246 183.093C409.21 182.955 409.157 182.83 409.089 182.718C409.021 182.606 409.026 182.611 409.104 182.735C409.182 182.859 409.229 182.927 409.245 182.939C409.26 182.952 409.274 182.965 409.284 182.978C409.294 182.989 409.276 182.974 409.231 182.933C409.185 182.891 409.37 183.059 409.786 183.437C410.203 183.815 410.549 184.124 410.825 184.367C411.102 184.61 411.352 184.793 411.573 184.915C411.794 185.037 411.991 185.147 412.165 185.245C412.337 185.342 412.5 185.45 412.653 185.569C412.805 185.687 413.451 185.987 414.59 186.468C415.728 186.948 416.347 187.217 416.448 187.275" stroke="#3D5330" stroke-width="4" stroke-linecap="round" stroke-linejoin="round"/>
<path d="M390.697 224.147C390.614 224.117 390.626 224.137 390.734 224.209C390.842 224.281 390.683 224.202 390.256 223.974C389.831 223.746 389.709 223.656 389.89 223.702C390.07 223.748 390.699 224.211 391.776 225.091C392.853 225.972 393.567 226.632 393.917 227.07C394.268 227.509 394.629 227.875 395.002 228.169C395.374 228.463 396.038 229.031 396.993 229.874" stroke="#3D5330" stroke-width="4" stroke-linecap="round" stroke-linejoin="round"/>
<path d="M388.143 222.982C388.146 222.915 388.03 222.771 387.795 222.552C387.562 222.333 387.54 222.276 387.73 222.378C387.92 222.482 388.001 222.528 387.972 222.518C387.943 222.508 387.934 222.506 387.943 222.512C387.952 222.518 387.948 222.52 387.931 222.52C387.914 222.519 387.975 222.559 388.115 222.638C388.256 222.717 389.13 223.377 390.738 224.618C392.347 225.859 393.656 226.875 394.666 227.663C395.676 228.453 396.45 228.976 396.989 229.232C397.528 229.487 397.847 229.629 397.946 229.656" stroke="#3D5330" stroke-width="4" stroke-linecap="round" stroke-linejoin="round"/>
<path d="M394.944 227.632C395.107 227.661 394.848 227.578 394.168 227.381C393.486 227.185 392.491 226.852 391.183 226.382C389.874 225.913 388.903 225.54 388.272 225.264C387.64 224.987 387.26 224.801 387.131 224.707C387.004 224.611 386.875 224.546 386.744 224.513C386.612 224.479 386.551 224.32 386.561 224.034C386.571 223.749 386.596 223.577 386.634 223.517" stroke="#3D5330" stroke-width="4" stroke-linecap="round" stroke-linejoin="round"/>
<path d="M194.033 212.114C194.077 212.162 194.133 212.2 194.202 212.226C194.27 212.253 194.325 212.232 194.366 212.164C194.407 212.095 194.423 212.063 194.415 212.067C194.407 212.073 194.402 212.064 194.399 212.042C194.397 212.02 194.401 212.031 194.411 212.074C194.421 212.118 194.419 212.027 194.405 211.799C194.39 211.572 194.373 211.387 194.353 211.243C194.332 211.099 194.329 211.026 194.345 211.023C194.36 211.021 194.364 210.964 194.358 210.854C194.352 210.743 194.348 210.559 194.346 210.3C194.344 210.041 194.167 209.679 193.815 209.214C193.462 208.748 193.177 208.426 192.96 208.245C192.743 208.066 192.504 207.861 192.244 207.631C191.983 207.401 191.734 207.208 191.496 207.053C191.258 206.896 191.072 206.767 190.939 206.665C190.804 206.563 190.657 206.459 190.495 206.353C190.334 206.248 190.231 206.189 190.187 206.177C190.144 206.165 190.165 206.165 190.249 206.179C190.332 206.192 190.208 206.122 189.878 205.97C189.549 205.817 189.289 205.697 189.098 205.609C188.907 205.521 188.751 205.446 188.628 205.384C188.505 205.323 188.425 205.296 188.388 205.304C188.351 205.311 188.154 205.314 187.796 205.311C187.437 205.308 187.294 205.299 187.365 205.284C187.436 205.269 187.331 205.302 187.051 205.382C186.771 205.463 186.416 205.431 185.986 205.286C185.555 205.141 185.243 205.099 185.05 205.16C184.857 205.22 184.764 205.252 184.773 205.255C184.782 205.258 184.708 205.299 184.55 205.379C184.393 205.457 184.066 205.474 183.568 205.429C183.07 205.384 182.755 205.382 182.625 205.424C182.495 205.464 182.374 205.501 182.262 205.532C182.149 205.564 182.025 205.589 181.889 205.605C181.751 205.623 181.691 205.628 181.708 205.62C181.725 205.613 181.739 205.619 181.751 205.638C181.763 205.658 181.664 205.632 181.455 205.559C181.244 205.486 180.99 205.438 180.693 205.414C180.395 205.389 180.152 205.385 179.963 205.4C179.772 205.416 179.688 205.424 179.709 205.425C179.73 205.425 179.746 205.407 179.757 205.37C179.767 205.333 179.552 205.412 179.112 205.608C178.672 205.803 178.2 206.002 177.697 206.204C177.193 206.404 176.83 206.531 176.607 206.584C176.384 206.637 176.226 206.697 176.134 206.766C176.042 206.835 176.002 206.869 176.014 206.868C176.026 206.868 175.958 206.969 175.81 207.171C175.663 207.372 175.063 207.85 174.011 208.605C172.958 209.36 172.042 209.996 171.263 210.514C170.484 211.032 169.918 211.483 169.565 211.866C169.212 212.249 168.989 212.556 168.896 212.786C168.803 213.017 168.721 213.239 168.651 213.452C168.581 213.666 168.553 213.737 168.567 213.667C168.58 213.597 168.533 213.671 168.425 213.887C168.316 214.104 168.196 214.403 168.065 214.784C167.934 215.165 167.883 215.313 167.913 215.226C167.941 215.139 167.9 215.235 167.789 215.513C167.678 215.79 167.556 216.087 167.423 216.403C167.29 216.717 167.192 217.021 167.128 217.313C167.064 217.605 167.012 217.868 166.97 218.099C166.928 218.332 166.857 218.563 166.756 218.793C166.656 219.023 166.561 219.144 166.47 219.156C166.379 219.167 166.265 219.171 166.127 219.167C165.99 219.163 165.918 219.244 165.911 219.409C165.904 219.574 165.862 219.975 165.786 220.61C165.929 221.175 165.819 221.918 165.456 222.838C165.093 223.759 164.879 224.438 164.814 224.874C164.75 225.311 164.721 225.649 164.727 225.888C164.733 226.127 164.724 226.327 164.699 226.489C164.675 226.651 164.662 226.813 164.659 226.975C164.656 227.136 164.668 227.454 164.694 227.927C164.719 228.4 164.898 229.118 165.23 230.082C165.563 231.044 165.841 231.785 166.065 232.306C166.289 232.828 166.39 233.158 166.37 233.295C166.349 233.432 166.398 233.666 166.519 233.998C166.638 234.33 166.713 234.523 166.742 234.579C166.771 234.636 166.781 234.647 166.772 234.613C166.763 234.58 166.771 234.657 166.796 234.844C166.822 235.031 166.922 235.354 167.096 235.814C167.27 236.275 167.433 236.625 167.585 236.865C167.735 237.105 167.857 237.311 167.95 237.483C168.043 237.655 168.083 237.744 168.07 237.752C168.057 237.761 168.146 238.072 168.337 238.685M238.988 236.479C239.253 234.605 239.448 233.265 239.571 232.458C239.694 231.651 239.791 230.827 239.86 229.986C239.93 229.144 239.961 228.478 239.954 227.987C239.946 227.496 239.925 227.134 239.892 226.902C239.857 226.67 239.839 226.427 239.836 226.173C239.833 225.92 239.831 225.75 239.828 225.663C239.824 225.576 239.82 225.551 239.815 225.587C239.809 225.623 239.804 225.553 239.798 225.375C239.792 225.197 239.757 224.232 239.693 222.479C239.628 220.725 239.529 219.267 239.397 218.105C239.263 216.943 239.139 216.122 239.025 215.642C238.911 215.164 238.815 214.674 238.737 214.173C238.658 213.671 238.429 212.825 238.048 211.635C237.667 210.445 237.082 208.981 236.292 207.243C235.502 205.505 234.844 204.197 234.319 203.321C233.794 202.444 233.378 201.78 233.073 201.328C232.769 200.876 232.505 200.532 232.282 200.299C232.059 200.065 231.856 199.843 231.673 199.633C231.489 199.422 231.17 199.076 230.714 198.594C230.258 198.111 229.722 197.497 229.108 196.751C228.493 196.006 227.985 195.392 227.585 194.91C227.185 194.427 226.362 193.863 225.114 193.219C223.866 192.574 222.901 192.091 222.219 191.77C221.537 191.45 220.927 191.196 220.391 191.009C219.854 190.821 219.43 190.68 219.118 190.586C218.807 190.494 218.576 190.428 218.423 190.389C218.269 190.349 218.128 190.31 218 190.271C217.872 190.232 217.817 190.214 217.836 190.218C217.853 190.221 217.883 190.223 217.923 190.223C217.964 190.224 217.758 190.225 217.306 190.226C216.854 190.227 216.305 190.223 215.66 190.214C215.016 190.205 214.351 190.269 213.665 190.407C212.978 190.546 212.261 190.862 211.512 191.353C210.763 191.845 209.998 192.28 209.214 192.657C208.43 193.036 207.855 193.312 207.487 193.485C207.119 193.659 206.408 194.433 205.354 195.808C204.301 197.184 203.422 198.32 202.718 199.216C202.014 200.112 201.433 200.891 200.975 201.551C200.517 202.213 200.027 202.875 199.504 203.539C198.981 204.202 198.35 204.917 197.61 205.684C196.87 206.45 196.31 207.027 195.932 207.412C195.555 207.797 195.367 208.031 195.371 208.114C195.374 208.198 195.344 208.313 195.281 208.459C195.218 208.604 195.121 208.811 194.99 209.08C194.86 209.348 194.775 209.596 194.736 209.825C194.698 210.054 194.691 210.147 194.715 210.103C194.74 210.059 194.775 210.167 194.82 210.426C194.865 210.685 194.892 210.801 194.901 210.774C194.91 210.746 194.942 210.695 194.997 210.621C195.051 210.549 195.106 210.487 195.163 210.436" stroke="#3D5330" stroke-width="4" stroke-linecap="round" stroke-linejoin="round"/>
<path d="M194.177 204.852C194.153 205.133 194.134 205.326 194.117 205.432C194.101 205.537 194.108 205.557 194.138 205.491C194.167 205.427 194.183 205.391 194.186 205.384C194.188 205.377 194.197 205.362 194.211 205.34C194.224 205.318 194.239 205.258 194.255 205.16C194.271 205.061 194.273 204.904 194.261 204.689C194.249 204.473 194.235 204.357 194.22 204.341C194.206 204.324 194.216 204.347 194.251 204.409C194.286 204.471 194.062 203.861 193.578 202.577C193.094 201.293 192.465 199.839 191.693 198.215C190.921 196.591 190.102 195.06 189.235 193.623C188.367 192.185 187.64 190.867 187.052 189.667C186.466 188.469 186.172 187.53 186.171 186.849C186.171 186.168 186.165 185.745 186.152 185.58C186.14 185.414 186.236 185.755 186.442 186.605C186.648 187.454 187.006 188.646 187.517 190.179C188.028 191.712 188.479 193 188.868 194.044C189.258 195.087 189.673 196.171 190.113 197.295C190.553 198.419 190.97 199.418 191.362 200.292C191.754 201.166 192.095 201.905 192.383 202.509C192.672 203.112 192.909 203.565 193.095 203.869C193.281 204.171 193.459 204.417 193.631 204.605C193.802 204.794 193.861 204.853 193.81 204.783C193.759 204.713 193.839 204.809 194.052 205.071C194.264 205.331 194.458 205.575 194.634 205.8C194.81 206.027 194.87 206.105 194.816 206.034C194.762 205.963 194.68 205.656 194.569 205.112C194.458 204.568 194.387 204.222 194.356 204.074" stroke="#3D5330" stroke-width="4" stroke-linecap="round" stroke-linejoin="round"/>
<path d="M190.413 192.482C190.24 192.822 190.165 192.991 190.19 192.987C190.214 192.984 190.203 193.015 190.157 193.081C190.111 193.148 190.088 193.348 190.088 193.681C190.088 194.014 190.124 194.358 190.197 194.712C190.269 195.067 190.491 195.367 190.86 195.613C191.229 195.859 191.475 195.899 191.596 195.732C191.717 195.564 191.767 195.485 191.747 195.496C191.727 195.507 191.749 195.405 191.813 195.191C191.878 194.977 191.906 194.874 191.898 194.883C191.891 194.891 191.907 194.781 191.945 194.554C191.983 194.326 192.055 194.049 192.16 193.721C192.265 193.394 192.38 192.85 192.505 192.089C192.63 191.328 192.78 190.297 192.956 188.994C193.132 187.69 193.274 186.718 193.384 186.077C193.493 185.436 193.559 185.008 193.582 184.795C193.604 184.582 193.667 183.919 193.773 182.807C193.877 181.694 194.461 180.448 195.525 179.067C196.588 177.686 197.775 176.398 199.086 175.202C200.398 174.008 201.641 172.987 202.816 172.14C203.991 171.295 205.274 170.561 206.664 169.937C208.055 169.315 209.328 168.819 210.486 168.447C211.643 168.077 212.564 167.827 213.251 167.699C213.937 167.571 214.503 167.538 214.95 167.6C215.396 167.661 215.375 167.648 214.888 167.561C214.4 167.475 214.195 167.449 214.273 167.481C214.351 167.514 213.996 167.671 213.21 167.952C212.422 168.233 211.954 168.398 211.804 168.445" stroke="#3D5330" stroke-width="4" stroke-linecap="round" stroke-linejoin="round"/>
<path d="M190.835 195.976C190.759 195.956 190.67 195.956 190.57 195.973C190.468 195.991 190.424 196.02 190.438 196.061C190.452 196.101 190.659 196.151 191.059 196.209C191.458 196.268 191.766 196.235 191.981 196.111C192.196 195.987 192.245 195.963 192.129 196.041C192.028 196.114 192.945 195.568 194.88 194.402C196.829 193.232 198.517 192.285 199.944 191.561C201.371 190.837 203.086 189.663 205.089 188.039C207.092 186.415 208.588 185.149 209.575 184.242C210.563 183.335 211.243 182.734 211.617 182.437C211.99 182.139 212.643 181.617 213.575 180.87C214.506 180.121 215.209 179.42 215.685 178.764C216.161 178.108 216.567 177.43 216.902 176.731C217.238 176.031 217.495 175.328 217.674 174.621C217.852 173.915 217.969 173.395 218.024 173.061C218.078 172.728 218.089 172.477 218.056 172.309C218.022 172.14 217.969 171.913 217.897 171.628C217.824 171.343 217.767 171.115 217.727 170.944C217.686 170.773 217.552 170.458 217.324 169.998C217.097 169.539 216.959 169.254 216.912 169.142C216.865 169.031 216.781 168.864 216.661 168.643C216.54 168.422 216.409 168.228 216.268 168.06C216.126 167.891 216.01 167.739 215.919 167.605C215.827 167.47 215.789 167.406 215.806 167.411C215.823 167.416 215.827 167.418 215.819 167.415C215.81 167.413 215.775 167.314 215.713 167.118C215.651 166.922 215.623 166.834 215.628 166.854C215.634 166.872 215.641 166.886 215.648 166.895C215.655 166.903 215.648 166.916 215.627 166.935C215.606 166.954 215.778 166.799 216.144 166.468" stroke="#3D5330" stroke-width="4" stroke-linecap="round" stroke-linejoin="round"/>
<path d="M342.594 128.162C342.619 128.229 342.634 128.262 342.637 128.261C342.641 128.259 342.704 128.254 342.827 128.244C342.949 128.233 343.015 128.207 343.024 128.165C343.032 128.125 343.035 128.105 343.034 128.106C343.034 128.106 343.035 128.11 343.037 128.118C343.038 128.126 343.045 128.071 343.058 127.953C343.072 127.836 343.094 127.674 343.125 127.469C343.156 127.264 343.175 127.097 343.182 126.969C343.189 126.842 343.203 126.713 343.224 126.584C343.245 126.455 343.252 126.284 343.244 126.07C343.236 125.855 343.229 125.31 343.223 124.435C343.217 123.559 343.171 122.761 343.085 122.039C342.998 121.317 342.914 120.755 342.834 120.352C342.753 119.948 342.712 119.565 342.712 119.202C342.712 118.838 342.674 118.496 342.598 118.176C342.457 117.991 342.281 117.831 342.071 117.695C341.859 117.558 341.668 117.402 341.496 117.226C341.324 117.051 340.891 116.928 340.195 116.859C339.499 116.79 338.888 116.743 338.365 116.719C337.842 116.696 337.187 116.664 336.401 116.624C335.615 116.581 333.864 116.52 331.15 116.441C328.432 116.358 326.375 116.291 324.98 116.24C323.584 116.189 322.282 116.192 321.075 116.25C319.868 116.307 318.715 116.371 317.616 116.44C316.517 116.509 315.687 116.548 315.127 116.557C314.568 116.567 313.933 116.585 313.224 116.611C312.514 116.637 311.461 116.7 310.063 116.8C308.666 116.899 307.519 116.982 306.623 117.047C305.727 117.113 304.887 117.172 304.103 117.226C303.318 117.281 302.462 117.33 301.535 117.373C300.606 117.417 299.745 117.484 298.949 117.574C298.153 117.663 297.496 117.793 296.976 117.965C296.458 118.137 295.8 118.306 295.003 118.474C294.206 118.643 293.237 118.673 292.096 118.565C290.957 118.513 289.733 118.467 288.425 118.427C287.117 118.386 286.132 118.368 285.472 118.371C284.812 118.375 284.288 118.38 283.9 118.387C283.513 118.394 282.91 118.407 282.091 118.425C281.272 118.444 279.893 118.487 277.956 118.553C276.018 118.62 274.462 118.649 273.286 118.639C272.112 118.628 271.259 118.635 270.726 118.659C270.193 118.683 269.772 118.714 269.461 118.753C269.151 118.793 268.919 118.826 268.764 118.852C268.61 118.879 268.474 118.901 268.357 118.918C268.239 118.935 268.145 118.95 268.075 118.961C268.005 118.973 267.934 118.986 267.86 119.001C267.787 119.016 267.717 119.032 267.652 119.047C267.586 119.063 267.48 119.094 267.334 119.14C267.188 119.187 267.073 119.236 266.992 119.286C266.91 119.336 266.821 119.38 266.726 119.418C266.633 119.455 266.596 119.471 266.616 119.466C266.637 119.46 266.627 119.464 266.587 119.476C266.548 119.489 266.512 119.504 266.48 119.52C266.447 119.536 266.402 119.56 266.344 119.592C266.287 119.623 266.239 119.652 266.201 119.679C266.162 119.705 266.107 119.732 266.038 119.76C265.968 119.787 265.896 119.814 265.823 119.838C265.748 119.862 265.726 119.865 265.755 119.846C265.784 119.828 265.587 119.957 265.163 120.235C264.739 120.513 264.319 120.879 263.903 121.331C263.486 121.784 263.173 122.153 262.962 122.44C262.75 122.726 262.523 123.023 262.278 123.33C262.035 123.637 261.845 123.928 261.708 124.204C261.57 124.479 261.481 124.712 261.441 124.902C261.4 125.091 261.392 125.245 261.416 125.362C261.439 125.481 261.446 125.598 261.438 125.715C261.429 125.834 261.455 126.107 261.516 126.535C261.577 126.964 261.64 127.293 261.706 127.521C261.772 127.75 261.908 128.077 262.114 128.503C262.32 128.929 262.448 129.267 262.499 129.519C262.548 129.77 262.615 130.07 262.699 130.419C262.782 130.77 262.841 131.043 262.876 131.239C262.91 131.436 262.938 131.574 262.958 131.653C262.979 131.734 262.997 131.8 263.01 131.851C263.023 131.902 263.043 131.944 263.068 131.977C263.095 132.01 263.113 132.035 263.124 132.053C263.135 132.07 263.187 132.124 263.278 132.213C263.368 132.303 263.458 132.372 263.546 132.419C263.635 132.466 263.706 132.499 263.761 132.519C263.816 132.541 263.858 132.558 263.889 132.573C263.918 132.587 263.938 132.594 263.948 132.594C263.96 132.594 264.361 132.654 265.152 132.776C265.943 132.897 266.609 133.009 267.149 133.114C267.689 133.218 268.11 133.279 268.41 133.297C268.709 133.315 269.337 133.34 270.296 133.373C271.253 133.406 272.103 133.419 272.844 133.411C273.585 133.403 274.398 133.389 275.284 133.37C276.17 133.35 277.119 133.388 278.13 133.484C279.142 133.58 280.037 133.621 280.815 133.607C281.593 133.592 282.2 133.591 282.635 133.603C283.071 133.616 284.06 133.687 285.603 133.818C287.147 133.948 288.384 134.029 289.316 134.061C290.248 134.093 290.936 134.104 291.379 134.094C291.822 134.084 292.211 134.08 292.546 134.08C292.88 134.08 293.375 134.074 294.03 134.06C294.685 134.046 295.627 134.023 296.854 133.993C298.083 133.963 299.049 133.937 299.752 133.915C300.456 133.893 301.05 133.866 301.535 133.834C302.019 133.803 303.219 133.717 305.135 133.577C307.05 133.436 308.542 133.32 309.609 133.228C310.677 133.135 311.653 133.113 312.536 133.16C313.42 133.207 314.329 133.217 315.263 133.191C316.197 133.164 317.007 133.152 317.692 133.155C318.377 133.157 319.32 133.141 320.523 133.109C321.726 133.076 322.668 133.043 323.35 133.009C324.033 132.975 324.671 132.901 325.266 132.785C325.861 132.668 326.334 132.588 326.688 132.543C327.041 132.499 327.335 132.436 327.57 132.354C327.806 132.271 328.277 132.193 328.984 132.12C329.69 132.047 330.596 131.985 331.701 131.934C332.805 131.885 333.647 131.829 334.226 131.767C334.804 131.705 335.392 131.674 335.991 131.677C336.59 131.679 337.03 131.68 337.309 131.68C337.562 131.727 337.785 131.727 337.977 131.68C338.159 131.648 338.608 131.602 339.323 131.542C340.029 131.498 340.562 131.503 340.921 131.558C341.277 131.61 341.534 131.624 341.692 131.602C341.852 131.578 342.029 131.518 342.225 131.422C342.42 131.327 342.537 131.273 342.574 131.26C342.611 131.249 342.664 131.213 342.732 131.153C342.801 131.092 342.842 131.058 342.857 131.052C342.872 131.046 342.905 131.03 342.957 131.003C343.01 130.976 343.035 130.963 343.033 130.966C343.032 130.968 343.032 130.967 343.033 130.962C343.034 130.957 343.034 130.959 343.034 130.97C343.035 130.98 343.081 130.956 343.172 130.898C343.264 130.841 343.304 130.809 343.295 130.803C343.284 130.796 343.276 130.801 343.269 130.817C343.263 130.834 343.296 130.783 343.368 130.665C343.439 130.545 343.488 130.435 343.514 130.334C343.539 130.234 343.552 130.157 343.552 130.105C343.553 130.053 343.555 130.017 343.557 129.996C343.561 129.976 343.568 129.959 343.577 129.947C343.586 129.935 343.599 129.827 343.617 129.625C343.636 129.423 343.651 129.231 343.664 129.048C343.675 128.865 343.688 128.702 343.702 128.56C343.716 128.417 343.701 128.229 343.657 127.996C343.614 127.763 343.551 127.47 343.468 127.116C343.387 126.762 343.303 126.5 343.216 126.329C343.13 126.159 343.081 126.062 343.07 126.039" stroke="#3D5330" stroke-width="4" stroke-linecap="round" stroke-linejoin="round"/>
<path d="M337.92 133.439C337.961 133.606 337.939 133.497 337.855 133.112C337.77 132.728 337.733 132.515 337.745 132.474C337.757 132.433 337.994 132.629 338.456 133.063C338.918 133.497 339.366 133.898 339.801 134.268C340.235 134.636 340.728 135.13 341.277 135.751C341.826 136.37 342.259 136.889 342.578 137.307C342.897 137.725 343.383 138.243 344.034 138.863C344.684 139.482 345.242 140.079 345.708 140.653C346.172 141.226 346.519 141.737 346.749 142.186C346.979 142.636 347.331 143.187 347.806 143.84C348.282 144.491 348.739 145.024 349.179 145.442C349.619 145.858 350.032 146.357 350.417 146.937C350.803 147.517 351.129 148.017 351.396 148.436C351.662 148.855 351.958 149.244 352.284 149.602C352.608 149.959 352.845 150.227 352.997 150.408C353.147 150.588 353.174 150.68 353.078 150.684C352.981 150.686 352.936 150.683 352.941 150.675C352.947 150.668 352.946 150.669 352.937 150.681C352.928 150.692 352.842 150.65 352.679 150.558C352.516 150.464 352.305 150.336 352.043 150.174C351.782 150.011 351.551 149.866 351.349 149.738C351.148 149.608 350.96 149.468 350.784 149.315C350.609 149.161 350.256 149.007 349.726 148.854C349.196 148.701 348.783 148.59 348.487 148.522C348.192 148.454 347.863 148.438 347.501 148.475C347.138 148.51 346.876 148.553 346.713 148.603C346.55 148.655 346.401 148.712 346.265 148.775C346.13 148.838 345.719 148.982 345.034 149.204C344.347 149.427 343.834 149.585 343.494 149.678C343.154 149.772 342.886 149.868 342.691 149.966C342.494 150.064 342.254 150.208 341.971 150.398C341.687 150.589 341.475 150.729 341.335 150.817C341.196 150.906 340.796 151.071 340.138 151.314C339.48 151.556 338.925 151.787 338.475 152.008C338.024 152.228 337.701 152.397 337.506 152.515C337.312 152.633 336.933 152.752 336.368 152.872C335.805 152.991 335.309 152.997 334.88 152.891C334.435 152.809 334.061 152.751 333.759 152.719C333.455 152.688 333.216 152.659 333.041 152.632C332.864 152.606 332.585 152.483 332.203 152.265C331.821 152.047 331.53 151.833 331.331 151.623C331.133 151.412 330.989 151.261 330.901 151.17C330.812 151.081 330.686 150.958 330.521 150.803C330.357 150.647 330.233 150.53 330.147 150.45C330.062 150.37 329.987 150.284 329.921 150.194C329.857 150.103 329.619 149.862 329.21 149.472C328.801 149.081 328.442 148.749 328.135 148.476C327.826 148.204 327.336 147.873 326.665 147.484C325.993 147.095 325.468 146.819 325.089 146.653C324.711 146.488 324.442 146.364 324.282 146.28C324.122 146.198 323.798 146.077 323.309 145.917C322.821 145.757 322.202 145.674 321.452 145.668C320.704 145.661 320.116 145.673 319.688 145.703C319.261 145.733 318.741 145.865 318.129 146.097C317.516 146.33 316.93 146.572 316.37 146.823C315.809 147.075 315.406 147.256 315.162 147.364C314.917 147.473 314.63 147.624 314.302 147.817C313.973 148.009 313.534 148.297 312.985 148.68C312.435 149.063 312.012 149.369 311.713 149.598C311.416 149.826 311.205 150.002 311.08 150.125C310.956 150.248 310.868 150.337 310.816 150.392C310.763 150.447 310.643 150.565 310.456 150.747C310.27 150.93 310.134 151.062 310.05 151.143C309.967 151.223 309.874 151.303 309.77 151.384C309.666 151.464 309.532 151.575 309.365 151.715C309.2 151.856 308.991 152.009 308.74 152.175C308.489 152.34 308.142 152.494 307.699 152.636C307.257 152.78 306.922 152.87 306.696 152.908C306.469 152.945 306.091 153.003 305.562 153.081C305.033 153.159 304.314 153.121 303.405 152.967C302.497 152.812 301.722 152.654 301.078 152.493C300.435 152.332 299.732 152.049 298.969 151.643C298.206 151.237 297.591 150.893 297.124 150.611C296.657 150.329 296.223 149.978 295.822 149.56C295.422 149.142 294.941 148.678 294.379 148.167C293.817 147.656 293.345 147.258 292.963 146.975C292.58 146.692 292.258 146.466 291.995 146.298C291.733 146.129 291.379 145.981 290.933 145.854C290.486 145.729 289.914 145.637 289.217 145.579C288.52 145.521 287.969 145.493 287.563 145.495C287.157 145.498 286.608 145.552 285.914 145.657C285.221 145.762 284.638 145.857 284.165 145.941C283.691 146.024 283.115 146.232 282.435 146.564C281.756 146.897 281.274 147.138 280.988 147.287C280.701 147.437 280.292 147.73 279.76 148.167C279.229 148.604 278.724 149.047 278.247 149.498C277.77 149.947 277.382 150.37 277.082 150.767C276.782 151.165 276.432 151.48 276.032 151.713C275.633 151.946 275.169 152.105 274.642 152.189C274.115 152.274 273.676 152.356 273.324 152.435C272.972 152.514 272.391 152.576 271.582 152.623C270.773 152.67 269.948 152.635 269.107 152.518C268.266 152.402 267.542 152.273 266.934 152.131C266.326 151.99 265.692 151.816 265.032 151.611C264.371 151.405 263.6 151.205 262.719 151.013C261.839 150.819 261.169 150.666 260.71 150.555C260.25 150.443 259.707 150.41 259.081 150.454C258.455 150.498 257.867 150.548 257.317 150.604C256.765 150.661 256.338 150.72 256.033 150.783C255.728 150.845 255.506 150.897 255.367 150.939C255.227 150.983 255.1 151.017 254.985 151.04C254.869 151.065 254.676 151.096 254.403 151.133C254.13 151.169 253.98 151.179 253.954 151.162C253.929 151.145 254.118 150.894 254.521 150.409C254.926 149.922 255.272 149.513 255.561 149.18C255.848 148.849 256.092 148.563 256.291 148.323C256.489 148.083 256.637 147.895 256.735 147.76C256.833 147.624 256.961 147.404 257.119 147.1C257.278 146.797 257.462 146.39 257.671 145.878C257.879 145.367 258.186 144.844 258.592 144.309C258.998 143.775 259.431 143.265 259.892 142.778C260.354 142.292 260.724 141.875 261.002 141.528C261.279 141.182 261.593 140.769 261.943 140.291C262.293 139.811 262.601 139.407 262.867 139.077C263.132 138.746 263.355 138.475 263.534 138.265C263.715 138.055 263.833 137.906 263.887 137.817C263.942 137.727 263.985 137.659 264.015 137.612C264.044 137.565 264.222 137.358 264.55 136.99C264.877 136.622 265.209 136.31 265.544 136.052C265.88 135.795 266.208 135.66 266.527 135.646C266.847 135.633 267.033 135.621 267.086 135.61" stroke="#3D5330" stroke-width="4" stroke-linecap="round" stroke-linejoin="round"/>
<path d="M266.836 156.303C266.804 156.349 266.801 156.352 266.828 156.312C266.855 156.27 266.858 156.27 266.838 156.313C266.817 156.354 266.837 156.322 266.896 156.215C266.955 156.109 267.014 156.002 267.073 155.896C267.131 155.79 267.178 155.707 267.215 155.648C267.251 155.59 267.265 155.551 267.257 155.532C267.249 155.513 267.044 155.685 266.641 156.049C266.239 156.411 265.697 156.844 265.018 157.346C264.338 157.848 263.751 158.254 263.255 158.564C262.759 158.875 262.431 159.08 262.269 159.177C262.114 159.278 261.948 159.411 261.772 159.578C261.596 159.744 261.45 159.892 261.333 160.021C261.221 160.152 261.159 160.278 261.146 160.396C261.142 160.518 261.052 160.661 260.876 160.826C260.7 160.991 260.573 161.139 260.495 161.271C260.417 161.401 260.33 161.563 260.235 161.755C260.14 161.946 260.04 162.148 259.937 162.361C259.832 162.574 259.72 162.947 259.599 163.481C259.479 164.015 259.349 164.489 259.209 164.902C259.068 165.315 258.774 166.686 258.326 169.013C257.878 171.342 257.54 174.469 257.314 178.393C257.086 182.324 256.942 185.315 256.881 187.369C256.821 189.423 256.801 191.098 256.821 192.393C256.842 193.688 256.892 194.902 256.974 196.035C257.055 197.169 257.117 198.314 257.16 199.472C257.202 200.63 257.238 201.807 257.266 203.004C257.294 204.199 257.324 205.135 257.355 205.812C257.385 206.488 257.46 207.505 257.58 208.863C257.701 210.222 257.803 211.333 257.886 212.198C257.969 213.062 258.016 214.006 258.028 215.029C258.04 216.052 258.053 216.94 258.068 217.695C258.082 218.449 258.102 219.11 258.127 219.678C258.154 220.246 258.149 220.846 258.111 221.48C258.075 222.113 258.099 223.736 258.183 226.351C258.267 228.966 258.444 231.558 258.713 234.125C258.983 236.693 259.215 238.508 259.41 239.569C259.605 240.63 259.721 241.138 259.757 241.095C259.793 241.051 259.84 240.818 259.899 240.396C259.959 239.974 259.987 239.679 259.984 239.511" stroke="#3D5330" stroke-width="4" stroke-linecap="round" stroke-linejoin="round"/>
<path d="M341.243 152.997C341.057 152.945 340.968 152.923 340.977 152.931C340.985 152.94 340.981 152.944 340.962 152.944C340.943 152.944 340.923 152.935 340.902 152.916C340.883 152.897 340.857 152.895 340.825 152.911C340.794 152.926 340.759 153.002 340.72 153.139C340.682 153.276 340.67 153.353 340.686 153.369C340.701 153.384 340.705 153.382 340.697 153.364C340.689 153.345 340.669 153.361 340.635 153.411C340.603 153.462 340.873 153.793 341.445 154.406C342.019 155.02 342.817 155.762 343.84 156.631C344.863 157.501 345.533 158.109 345.851 158.455C346.169 158.801 346.645 159.402 347.282 160.257C347.918 161.113 348.435 161.832 348.832 162.414C349.23 162.996 349.552 163.517 349.796 163.977C350.04 164.436 350.284 165.059 350.529 165.846C350.773 166.633 350.988 168.114 351.174 170.289C351.36 172.462 351.472 174.529 351.51 176.487C351.547 178.445 351.53 180.046 351.459 181.289C351.389 182.532 351.354 183.457 351.353 184.064C351.352 184.673 351.329 186.774 351.284 190.367C351.239 193.96 351.229 196.679 351.255 198.523C351.279 200.368 351.314 201.737 351.358 202.631C351.402 203.523 351.443 204.158 351.479 204.537C351.514 204.916 351.535 205.441 351.54 206.114C351.545 206.786 351.55 207.818 351.555 209.208C351.558 210.598 351.575 212.118 351.604 213.766C351.634 215.415 351.657 216.706 351.674 217.639C351.691 218.571 351.69 219.386 351.673 220.082C351.654 220.779 351.587 221.556 351.471 222.413C351.355 223.27 351.313 224.037 351.345 224.714C351.378 225.389 351.398 226.399 351.406 227.742C351.415 229.087 351.417 230.103 351.411 230.791C351.407 231.479 351.405 231.802 351.405 231.759C351.405 231.716 351.399 231.672 351.387 231.628C351.376 231.585 351.36 231.534 351.34 231.477" stroke="#3D5330" stroke-width="4" stroke-linecap="round" stroke-linejoin="round"/>
<path d="M329.578 158.85C329.65 158.878 329.652 158.755 329.583 158.484C329.514 158.213 329.478 158.126 329.476 158.223C329.475 158.32 329.475 158.364 329.475 158.354C329.475 158.344 329.479 158.346 329.486 158.359C329.493 158.372 329.488 158.389 329.471 158.408C329.454 158.428 329.465 158.564 329.504 158.816C329.543 159.068 329.601 159.279 329.678 159.451C329.755 159.623 329.831 159.767 329.905 159.882C329.979 159.998 330.042 160.092 330.096 160.165C330.149 160.237 330.2 160.306 330.249 160.372C330.297 160.438 330.444 160.589 330.69 160.826C330.934 161.063 331.174 161.266 331.41 161.437C331.647 161.609 331.882 161.768 332.117 161.916C332.35 162.064 332.524 162.171 332.639 162.237C332.754 162.303 332.994 162.43 333.362 162.616C333.729 162.804 334.225 163.202 334.85 163.811C335.473 164.418 336.019 165.02 336.486 165.616C336.954 166.212 337.33 166.667 337.615 166.982C337.899 167.297 338.127 167.969 338.298 168.996C338.468 170.023 338.577 170.785 338.625 171.282C338.673 171.778 338.711 172.171 338.738 172.46C338.765 172.749 338.796 173.115 338.83 173.557C338.864 174.001 338.888 174.858 338.902 176.127C338.916 177.395 338.96 178.529 339.034 179.528C339.108 180.529 339.179 181.276 339.246 181.77C339.312 182.265 339.369 182.661 339.417 182.958C339.464 183.254 339.514 183.658 339.566 184.169C339.618 184.681 339.657 185.104 339.681 185.439C339.705 185.774 339.78 186.504 339.904 187.629C340.029 188.754 340.075 189.803 340.041 190.777C340.008 191.751 339.991 192.24 339.988 192.244C339.985 192.247 339.983 192.248 339.981 192.247C339.98 192.245 339.982 192.244 339.985 192.244C339.989 192.244 340.02 192.237 340.078 192.223C340.136 192.21 340.219 192.192 340.328 192.17" stroke="#3D5330" stroke-width="4" stroke-linecap="round" stroke-linejoin="round"/>
<path d="M340.746 199.189C340.762 199.179 340.75 199.114 340.707 198.994C341.227 198.819 341.375 198.717 341.152 198.69C340.924 198.611 340.824 198.595 340.852 198.641C340.879 198.69 340.889 198.712 340.88 198.706C340.87 198.7 340.87 198.708 340.88 198.728C340.889 198.749 340.886 198.743 340.872 198.71C340.859 198.677 340.854 199.168 340.859 200.184C340.864 201.199 340.923 202.175 341.035 203.112C341.147 204.049 341.133 204.477 340.993 204.396C340.851 204.317 340.806 204.288 340.857 204.308C340.908 204.329 340.92 204.326 340.892 204.297C340.862 204.27 340.859 204.241 340.88 204.21C340.901 204.179 340.799 204.023 340.573 203.741C340.464 203.477 340.401 203.291 340.382 203.183C340.363 203.074 340.349 202.99 340.338 202.93C340.328 202.869 340.318 202.78 340.308 202.662C340.296 202.543 340.274 202.404 340.24 202.243C340.205 202.081 340.173 201.927 340.142 201.781C340.112 201.634 340.094 201.545 340.089 201.515C340.084 201.486 340.082 201.469 340.083 201.464C340.084 201.459 340.087 201.45 340.093 201.437C340.098 201.423 340.101 201.406 340.102 201.387C340.102 201.368 340.102 201.359 340.102 201.359C340.101 201.359 340.1 201.355 340.098 201.348C340.096 201.341 340.093 201.327 340.09 201.306C340.085 201.286 340.075 201.211 340.059 201.083C340.044 200.955 340.032 200.872 340.026 200.835C340.02 200.797 340.018 200.784 340.02 200.798C340.021 200.811 340.023 200.815 340.024 200.81C340.024 200.805 340.022 200.814 340.016 200.835C340.009 200.855 340.033 200.802 340.086 200.674C340.138 200.548 340.173 200.472 340.189 200.448" stroke="#3D5330" stroke-width="4" stroke-linecap="round" stroke-linejoin="round"/>
<path d="M159.234 253.674C159.207 253.97 159.06 253.5 158.792 252.267C158.523 251.033 158.43 250.068 158.515 249.373C158.599 248.679 158.647 248.264 158.661 248.13C158.674 247.996 158.724 247.724 158.811 247.314C158.896 246.905 158.934 246.711 158.922 246.732C158.91 246.754 158.905 246.682 158.907 246.517C158.8 246.483 158.842 248.57 159.036 252.779C159.229 256.988 159.361 263.51 159.433 272.346C159.504 281.184 159.521 287.786 159.485 292.156C159.45 296.525 159.391 299.893 159.31 302.26C159.228 304.628 159.098 309.393 158.918 316.554C158.738 323.714 158.621 329.436 158.568 333.719C158.515 338.001 158.54 341.537 158.643 344.325C158.746 347.114 158.857 352.215 158.975 359.629C159.094 367.044 159.082 374.086 158.939 380.756C158.797 387.425 158.546 392.748 158.188 396.726C157.831 400.703 157.552 404.06 157.353 406.796C157.153 409.533 156.822 411.986 156.359 414.158C156.446 413.965 156.571 413.555 156.736 412.929C156.9 412.302 157.009 411.862 157.064 411.609" stroke="#3D5330" stroke-width="4" stroke-linecap="round" stroke-linejoin="round"/>
<path d="M451.638 244.619C451.294 244.785 451.277 246.668 451.589 250.269C451.901 253.87 452.083 259.01 452.136 265.689C452.188 272.368 452.342 278.18 452.597 283.126C452.852 288.073 453.053 292.546 453.2 296.546C453.346 300.547 453.431 304.153 453.454 307.364C453.476 310.575 453.517 314.453 453.577 318.999C453.637 323.545 453.732 328.583 453.86 334.112C453.987 339.642 454.1 344.642 454.197 349.114C454.293 353.585 454.318 360.762 454.27 370.648C454.222 380.534 454.195 387.932 454.188 392.843C454.18 397.755 454.175 401.463 454.173 403.966C454.17 406.469 454.229 408.962 454.35 411.446C454.329 411.526 454.393 411.365 454.541 410.961C454.689 410.559 454.86 410.124 455.056 409.657" stroke="#3D5330" stroke-width="4" stroke-linecap="round" stroke-linejoin="round"/>
<path d="M454.599 250.449C454.615 250.462 454.587 250.472 454.514 250.478C454.441 250.484 454.992 250.241 456.165 249.75C455.83 249.634 455.672 249.581 455.691 249.592C455.71 249.602 455.7 249.6 455.662 249.585C455.623 249.569 455.673 249.518 455.812 249.433C455.95 249.346 452.512 249.519 445.497 249.951C438.48 250.383 432.218 250.64 426.709 250.722C421.2 250.804 417.069 250.837 414.318 250.819C411.564 250.799 409.234 250.791 407.328 250.794C405.421 250.795 397.985 250.603 385.021 250.216C372.016 249.933 361.524 249.654 353.546 249.377C345.566 249.101 339.337 248.904 334.856 248.786C330.375 248.669 324.637 248.495 317.644 248.265C310.649 248.036 304.868 247.876 300.299 247.785C295.729 247.694 291.837 247.597 288.622 247.495C285.407 247.394 279.064 247.382 269.594 247.46C260.124 247.537 252.686 247.636 247.28 247.758C241.874 247.879 237.834 248.011 235.16 248.154C232.486 248.296 230.166 248.47 228.2 248.675C226.233 248.881 221.552 249.27 214.158 249.842C206.762 250.415 200.086 250.756 194.13 250.863C188.173 250.97 182.555 251.06 177.276 251.133C171.996 251.207 167.786 251.266 164.648 251.312C161.51 251.358 158.646 251.12 156.058 250.597C156.693 250.489 157.023 250.454 157.049 250.491C157.074 250.527 157.177 250.554 157.36 250.572" stroke="#3D5330" stroke-width="4" stroke-linecap="round" stroke-linejoin="round"/>
<path d="M470.603 412.576C470.661 412.47 470.868 412.342 471.226 412.192C471.583 412.043 472.257 411.655 473.249 411.03C472.826 409.846 470.503 409.617 466.28 410.342C462.058 411.067 458.342 411.662 455.134 412.128C451.925 412.593 449.415 412.87 447.605 412.958C445.794 413.046 443.383 413.174 440.37 413.344C437.359 413.514 431.921 413.73 424.055 413.991C416.189 414.254 404.786 414.621 389.844 415.092C374.902 415.565 363.694 415.832 356.219 415.894C348.744 415.956 343.347 415.991 340.027 415.999C336.709 416.006 334.37 416 333.01 415.98C331.65 415.961 328.846 415.957 324.598 415.971C320.35 415.984 314.016 415.911 305.595 415.75C297.174 415.59 290.71 415.466 286.204 415.379C281.698 415.291 278.433 415.253 276.409 415.264C274.386 415.274 266.031 415.228 251.344 415.124C236.658 415.021 222.695 415.033 209.456 415.161C196.215 415.29 185.9 415.403 178.51 415.498C171.119 415.595 163.509 415.862 155.68 416.3C147.85 416.738 143.301 416.979 142.031 417.024" stroke="#3D5330" stroke-width="4" stroke-linecap="round" stroke-linejoin="round"/>
<path d="M154.127 334.091C154.355 334.024 154.603 333.953 154.871 333.879C155.139 333.804 155.284 333.795 155.305 333.854C155.325 333.912 155.291 333.908 155.203 333.842C155.114 333.774 156.669 333.711 159.867 333.651C163.064 333.59 167.681 333.451 173.716 333.235C179.75 333.019 187.639 332.958 197.382 333.054C207.125 333.149 214.773 333.318 220.327 333.56C225.881 333.802 230.425 333.996 233.96 334.14C237.494 334.284 243.836 334.68 252.986 335.327C262.137 335.975 269.244 336.405 274.307 336.618C279.371 336.831 283.681 336.983 287.24 337.076C290.799 337.168 298.351 337.222 309.896 337.238C321.44 337.254 332.246 337.21 342.315 337.108C352.383 337.005 359.863 336.917 364.754 336.844C369.645 336.771 373.042 336.757 374.945 336.801C376.846 336.845 384.408 336.839 397.63 336.782C410.852 336.724 420.875 336.633 427.698 336.508C434.521 336.383 439.656 336.246 443.105 336.099C446.554 335.953 449.781 335.782 452.787 335.589C455.792 335.395 457.945 335.126 459.246 334.781C460.547 334.435 461.241 334.232 461.327 334.172" stroke="#3D5330" stroke-width="4" stroke-linecap="round" stroke-linejoin="round"/>
<path d="M418.748 287.659C418.202 287.186 417.971 286.994 418.057 287.084C418.142 287.175 418.091 287.15 417.905 287.01C417.719 286.87 417.636 286.817 417.656 286.851C417.678 286.884 417.528 286.774 417.206 286.519C416.886 286.264 416.691 286.094 416.622 286.008C416.553 285.923 416.348 285.73 416.008 285.43C415.666 285.131 415.508 284.99 415.534 285.007C415.56 285.025 415.574 285.062 415.576 285.12C415.086 284.885 414.902 284.809 415.023 284.892C414.669 284.722 414.307 284.677 413.938 284.758C413.569 284.838 413.188 285 412.798 285.243C412.407 285.485 412.096 285.711 411.865 285.921C411.634 286.13 411.457 286.312 411.334 286.468C411.211 286.622 411.11 286.752 411.03 286.858C410.95 286.963 410.925 287.002 410.953 286.974C410.981 286.947 410.977 286.967 410.941 287.035C410.904 287.104 410.758 287.355 410.502 287.79C410.245 288.226 410.12 288.462 410.125 288.497C410.129 288.533 410.039 288.848 409.855 289.443C409.671 290.038 409.543 290.482 409.469 290.775C409.395 291.067 409.389 291.373 409.452 291.694C409.516 292.016 409.574 292.271 409.628 292.461C409.683 292.651 409.725 292.75 409.754 292.756C409.784 292.763 409.806 292.809 409.822 292.895C409.838 292.981 410.036 293.357 410.417 294.023C410.797 294.689 411.191 295.208 411.598 295.578C412.005 295.947 412.366 296.257 412.681 296.509C412.996 296.761 413.276 296.979 413.522 297.162C413.766 297.345 413.871 297.425 413.838 297.403C413.804 297.38 413.815 297.385 413.871 297.417C413.926 297.45 414.021 297.499 414.157 297.564C414.294 297.627 414.452 297.676 414.631 297.709C414.811 297.743 415.006 297.753 415.215 297.741C415.424 297.729 415.521 297.718 415.506 297.708C415.491 297.698 415.477 297.706 415.464 297.731C415.45 297.755 415.487 297.732 415.572 297.663C415.657 297.594 415.76 297.509 415.88 297.408C416.001 297.307 416.072 297.25 416.094 297.236C416.117 297.221 416.191 297.167 416.317 297.075C416.444 296.982 416.569 296.891 416.693 296.802C416.817 296.713 416.918 296.655 416.998 296.628C417.077 296.602 417.103 296.606 417.078 296.641C417.052 296.677 417.062 296.687 417.107 296.673C417.152 296.658 417.235 296.606 417.356 296.515C417.478 296.425 417.596 296.324 417.711 296.21C417.825 296.097 417.879 296.035 417.874 296.023C417.869 296.012 417.88 295.989 417.907 295.954C417.935 295.92 418.05 295.794 418.252 295.576C418.455 295.357 418.567 295.278 418.59 295.34C418.612 295.401 418.607 295.415 418.575 295.381C418.544 295.348 418.606 295.319 418.76 295.295C418.914 295.271 419.118 295.083 419.373 294.731C419.628 294.38 419.773 293.676 419.809 292.618C419.846 291.561 419.779 290.494 419.608 289.417C419.24 289.269 418.912 288.813 418.622 288.05C418.118 287.772 417.91 287.655 417.999 287.697C418.088 287.739 418.129 287.757 418.122 287.752C418.115 287.747 418.072 287.737 417.994 287.722C417.915 287.709 417.812 287.691 417.684 287.667C417.557 287.643 417.501 287.615 417.516 287.582C417.531 287.549 417.544 287.543 417.554 287.563C417.564 287.584 417.491 287.57 417.335 287.521C417.179 287.472 416.996 287.348 416.784 287.148C416.574 286.947 416.484 286.861 416.516 286.889C416.549 286.918 416.518 286.925 416.425 286.911C416.331 286.896 416.232 286.884 416.127 286.877C416.023 286.87 415.976 286.874 415.987 286.888C415.997 286.903 416.014 286.89 416.037 286.848C416.059 286.808 416.017 286.832 415.911 286.921C415.805 287.011 415.677 287.123 415.527 287.257C415.378 287.391 415.326 287.455 415.372 287.448C415.418 287.441 415.394 287.465 415.3 287.521C415.206 287.576 415.046 287.975 414.823 288.719C414.6 289.463 414.479 290.119 414.46 290.688C414.442 291.257 414.487 291.811 414.597 292.351C414.288 292.456 414.174 292.488 414.256 292.447C414.196 292.469 414.137 292.491 414.077 292.514C414.042 292.485 413.99 292.309 413.921 291.986C413.853 291.663 413.837 291.548 413.872 291.639C413.907 291.731 413.92 291.787 413.909 291.807C413.898 291.828 413.909 291.419 413.942 290.581C413.976 289.744 414.237 288.826 414.724 287.827C414.809 287.533 414.299 288.211 413.192 289.861" stroke="#3D5330" stroke-width="4" stroke-linecap="round" stroke-linejoin="round"/>
<path d="M419.543 365.022C419.362 365.034 419.346 364.964 419.494 364.811C419.641 364.658 419.485 364.271 419.025 363.651C418.564 363.03 418.077 362.527 417.564 362.142C417.05 361.755 416.662 361.497 416.399 361.367C416.137 361.238 415.853 361.166 415.547 361.151C415.243 361.135 415.034 361.122 414.919 361.113C414.805 361.104 414.633 361.097 414.402 361.091C414.17 361.085 413.963 361.044 413.782 360.969C413.6 360.893 413.417 360.869 413.232 360.897C413.047 360.926 412.86 361.007 412.671 361.141C412.481 361.276 412.321 361.402 412.19 361.519C412.06 361.636 411.931 361.743 411.803 361.84C411.675 361.938 411.619 361.979 411.634 361.964C411.649 361.948 411.657 361.934 411.657 361.921C411.658 361.91 411.592 361.949 411.462 362.038C411.331 362.127 411.202 362.26 411.074 362.435C410.945 362.61 410.796 362.849 410.628 363.151C410.46 363.455 410.381 363.599 410.392 363.585C410.402 363.571 410.386 363.616 410.344 363.72C410.301 363.824 410.262 363.939 410.227 364.065C410.193 364.192 410.188 364.226 410.214 364.167C410.24 364.108 410.233 364.124 410.191 364.214C410.15 364.304 410.088 364.587 410.007 365.061C409.925 365.537 409.879 365.99 409.867 366.421C409.856 366.852 409.841 367.184 409.822 367.417C409.805 367.652 409.772 367.92 409.724 368.22C409.676 368.522 409.654 368.98 409.658 369.595C409.661 370.21 409.735 370.739 409.879 371.18C410.024 371.621 410.18 372.024 410.345 372.39C410.512 372.755 410.647 373.024 410.753 373.196C410.858 373.37 410.952 373.506 411.034 373.606C411.117 373.707 411.121 373.719 411.045 373.643C410.969 373.568 411.134 373.774 411.541 374.259C411.948 374.745 412.541 375.188 413.32 375.591C414.099 375.993 414.681 376.233 415.067 376.309C415.453 376.385 415.737 376.421 415.919 376.417C416.1 376.414 416.263 376.405 416.406 376.392C416.549 376.378 416.713 376.372 416.897 376.375C417.081 376.377 417.177 376.356 417.185 376.314C417.193 376.271 417.279 376.196 417.441 376.088C417.605 375.979 417.694 375.946 417.708 375.99C417.722 376.034 417.872 375.926 418.156 375.664C418.44 375.402 418.68 375.117 418.876 374.808C419.072 374.499 419.238 374.204 419.375 373.925C419.513 373.646 419.576 373.516 419.565 373.535C419.555 373.553 419.548 373.533 419.545 373.474C419.543 373.414 419.556 373.448 419.585 373.573C419.614 373.698 419.739 373.185 419.958 372.036C420.178 370.885 420.283 370.062 420.274 369.568C420.265 369.074 420.297 368.677 420.368 368.377C420.44 368.076 420.325 367.594 420.025 366.931C419.724 366.267 419.443 365.776 419.182 365.456C418.922 365.135 418.718 364.874 418.572 364.675C418.427 364.477 418.348 364.38 418.335 364.385C418.322 364.389 418.318 364.392 418.323 364.392C418.328 364.391 418.341 364.401 418.363 364.423C418.383 364.445 418.257 364.345 417.986 364.125C417.714 363.905 417.485 363.729 417.298 363.598C417.112 363.468 416.949 363.368 416.807 363.297C416.665 363.226 416.519 363.169 416.368 363.126C416.215 363.082 416.169 363.049 416.23 363.026C416.289 363.003 416.189 362.976 415.93 362.943C415.67 362.91 415.469 362.929 415.324 362.999C415.18 363.069 414.99 363.223 414.754 363.46C414.518 363.698 414.399 363.828 414.395 363.85C414.392 363.872 414.292 364.191 414.092 364.807C413.893 365.422 413.745 366.011 413.646 366.572C413.547 367.133 413.51 367.618 413.535 368.028C413.56 368.437 413.619 368.792 413.711 369.091C413.805 369.389 413.888 369.572 413.958 369.637C414.029 369.703 414.15 369.78 414.319 369.867C414.489 369.952 414.636 370.009 414.759 370.036C414.882 370.063 414.941 370.076 414.937 370.075C414.931 370.075 414.999 370.061 415.138 370.034C415.277 370.006 415.631 369.941 416.2 369.839C416.203 369.81 416.206 369.782 416.208 369.754C416.196 369.741 416.053 370.206 415.778 371.151C415.811 371.42 416.018 371.456 416.399 371.261C416.781 371.065 417.075 370.877 417.283 370.698C417.491 370.52 417.682 370.403 417.854 370.348C418.026 370.294 418.148 370.258 418.219 370.241C418.291 370.224 418.376 370.196 418.474 370.156" stroke="#3D5330" stroke-width="4" stroke-linecap="round" stroke-linejoin="round"/>
<path d="M204.199 362.374C204.235 362.39 204.238 362.394 204.21 362.387C204.183 362.38 204.124 362.337 204.035 362.258C203.946 362.18 203.551 361.915 202.849 361.465C202.149 361.016 201.645 360.698 201.34 360.511C201.034 360.326 200.795 360.22 200.623 360.196C200.453 360.171 200.293 360.157 200.144 360.156C199.996 360.153 199.8 360.158 199.559 360.172C199.318 360.186 199.171 360.157 199.118 360.084C199.065 360.011 198.723 360.033 198.093 360.152C197.464 360.271 196.938 360.465 196.515 360.734C196.092 361.003 195.724 361.237 195.411 361.436C195.097 361.634 194.867 361.865 194.723 362.128C194.579 362.391 194.43 362.722 194.276 363.122C194.123 363.522 193.978 363.881 193.84 364.198C193.703 364.516 193.611 364.811 193.564 365.086C193.517 365.361 193.465 365.61 193.406 365.832C193.347 366.055 193.302 366.387 193.271 366.827C193.239 367.267 193.225 367.597 193.23 367.818C193.235 368.039 193.247 368.208 193.266 368.324C193.285 368.44 193.301 368.54 193.315 368.621C193.329 368.703 193.36 368.869 193.409 369.119C193.458 369.367 193.497 369.564 193.526 369.709C193.554 369.853 193.598 370.002 193.659 370.157C193.718 370.311 193.745 370.351 193.74 370.276C193.733 370.201 193.809 370.462 193.967 371.059C194.123 371.657 194.578 372.199 195.331 372.683C196.083 373.168 196.841 373.507 197.605 373.7C198.368 373.894 199.254 373.932 200.262 373.813C201.271 373.694 202.029 373.505 202.536 373.245C203.043 372.986 203.441 372.811 203.728 372.719C204.015 372.626 204.304 372.285 204.596 371.697C204.887 371.108 205.118 370.539 205.289 369.989C205.46 369.439 205.556 369.034 205.576 368.774C205.595 368.514 205.603 368.332 205.6 368.227C205.596 368.121 205.607 368.126 205.632 368.244C205.656 368.361 205.662 368.149 205.652 367.61C205.641 367.069 205.565 366.56 205.425 366.08C205.283 365.601 205.18 365.212 205.115 364.914C205.052 364.617 205.014 364.425 205.001 364.339C204.989 364.252 204.959 364.151 204.912 364.036C204.864 363.921 204.817 363.81 204.771 363.703C204.725 363.597 204.699 363.555 204.693 363.577C204.688 363.599 204.691 363.611 204.704 363.613C204.716 363.615 204.713 363.602 204.695 363.572C204.677 363.541 204.68 363.55 204.704 363.598C204.728 363.648 204.631 363.529 204.413 363.241C204.195 362.955 203.973 362.761 203.747 362.659C203.521 362.557 203.331 362.479 203.177 362.425C203.023 362.372 202.984 362.348 203.06 362.354C203.137 362.359 202.88 362.245 202.292 362.012C201.703 361.778 200.192 361.854 197.756 362.24C197.863 362.146 197.701 362.373 197.269 362.92C196.838 363.468 196.585 364.013 196.508 364.555C196.432 365.097 196.425 365.516 196.486 365.812C196.547 366.109 196.623 366.375 196.713 366.607C196.803 366.84 196.831 366.93 196.798 366.879C196.764 366.828 196.805 366.868 196.921 367C197.037 367.132 197.174 367.275 197.331 367.428C197.489 367.58 197.612 367.717 197.699 367.839C197.787 367.961 197.901 368.048 198.042 368.101C198.182 368.154 198.304 368.2 198.408 368.238C198.512 368.275 198.62 368.296 198.733 368.301C198.846 368.306 198.891 368.303 198.867 368.292C198.842 368.281 198.902 368.28 199.046 368.288C199.19 368.296 199.59 368.211 200.248 368.034C200.905 367.858 201.348 367.693 201.576 367.541C201.805 367.389 201.942 367.214 201.989 367.017C202.036 366.819 202.052 366.628 202.037 366.444C202.022 366.26 202.02 366.169 202.032 366.172C202.042 366.174 202.048 366.172 202.048 366.168C202.048 366.164 202.012 366.071 201.94 365.889C201.356 366.074 201.106 366.164 201.189 366.159C201.273 366.154 201.298 366.148 201.264 366.14C201.231 366.132 201.189 366.176 201.138 366.272C201.088 366.368 201.023 366.473 200.945 366.586C200.865 366.701 200.838 366.759 200.865 366.76C200.892 366.761 200.883 366.749 200.838 366.726C200.795 366.703 200.773 366.977 200.771 367.548C200.768 368.117 200.966 368.889 201.364 369.864C201.418 370.07 201.698 370.071 202.203 369.868C202.709 369.665 203.096 369.469 203.364 369.278C203.632 369.087 203.818 368.92 203.922 368.776C204.026 368.631 204.078 368.552 204.077 368.54C204.076 368.527 204.065 368.546 204.044 368.598C204.023 368.651 204.036 368.597 204.083 368.438C204.129 368.278 204.158 368.19 204.169 368.174C204.179 368.157 204.195 368.096 204.215 367.989C204.236 367.882 204.3 367.673 204.408 367.36C204.515 367.048 204.556 366.901 204.533 366.92C204.509 366.939 204.499 366.93 204.502 366.895C204.505 366.861 204.513 366.855 204.527 366.878C204.541 366.901 204.534 366.824 204.506 366.648C204.478 366.472 204.394 366.354 204.255 366.295C204.116 366.235 203.962 366.171 203.792 366.102C203.622 366.033 203.48 366.02 203.366 366.062C203.253 366.104 203.234 366.1 203.311 366.05C203.389 366.001 203.085 366.081 202.399 366.291C201.715 366.503 201.126 366.81 200.633 367.212C200.141 367.614 199.825 367.957 199.685 368.244C199.546 368.531 199.445 368.791 199.381 369.023C199.316 369.255 199.289 369.342 199.3 369.286C199.31 369.228 199.317 369.217 199.321 369.252C199.326 369.289 199.312 369.285 199.28 369.24C199.248 369.197 199.24 369.195 199.255 369.235C199.27 369.276 199.341 369.373 199.469 369.527C199.596 369.682 199.763 369.76 199.969 369.763C200.175 369.767 200.357 369.752 200.513 369.719" stroke="#3D5330" stroke-width="4" stroke-linecap="round" stroke-linejoin="round"/>
<path d="M200.953 285.6C200.865 285.586 200.734 285.433 200.559 285.139C200.382 284.846 200.032 284.617 199.506 284.451C198.979 284.284 198.481 284.231 198.011 284.293C197.541 284.355 197.241 284.378 197.109 284.359C196.976 284.34 196.605 284.388 195.995 284.505C195.384 284.621 194.97 284.784 194.753 284.994C194.535 285.204 194.333 285.346 194.147 285.42C193.961 285.495 193.784 285.593 193.615 285.716C193.445 285.838 193.291 285.967 193.152 286.103C193.014 286.239 192.816 286.702 192.558 287.491C192.301 288.281 192.123 288.941 192.026 289.472C191.928 290.002 191.907 290.434 191.964 290.768C192.02 291.102 192.078 291.324 192.138 291.434C192.197 291.543 192.235 291.624 192.252 291.677C192.268 291.729 192.4 291.909 192.65 292.217C193.25 292.481 193.501 292.72 193.404 292.933C193.306 293.129 193.262 293.201 193.272 293.147C193.283 293.092 193.342 293.237 193.448 293.582C193.552 293.924 193.669 294.23 193.799 294.5C193.929 294.769 194.319 295.136 194.97 295.602C195.622 296.068 196.106 296.39 196.425 296.568C196.743 296.747 196.984 296.857 197.15 296.898C197.315 296.941 197.611 297 198.037 297.077C198.547 297.175 198.86 297.216 198.975 297.198C199.09 297.18 199.318 297.222 199.659 297.323C199.998 297.424 200.433 297.231 200.963 296.746C201.494 296.26 201.894 295.83 202.163 295.455C202.431 295.079 202.681 294.757 202.912 294.488C203.143 294.219 203.228 294.101 203.167 294.134C203.105 294.165 203.111 294.19 203.184 294.207C203.258 294.223 203.472 293.936 203.828 293.347C204.184 292.759 204.385 292.181 204.432 291.613C204.479 291.044 204.435 290.487 204.3 289.94C204.166 289.393 203.99 288.937 203.774 288.572C203.556 288.207 203.41 287.978 203.337 287.886C203.263 287.794 203.267 287.789 203.349 287.871C203.429 287.952 203.313 287.787 203 287.374C202.686 286.963 202.439 286.64 202.256 286.406C202.075 286.172 201.919 285.993 201.788 285.867C201.658 285.741 201.322 285.602 200.78 285.452C200.239 285.303 199.81 285.203 199.495 285.154C199.18 285.105 198.755 285.261 198.22 285.622C197.685 285.983 197.274 286.315 196.987 286.618C196.7 286.923 196.398 287.325 196.081 287.827C195.764 288.328 195.568 288.79 195.493 289.212C195.42 289.633 195.375 289.948 195.359 290.158C195.343 290.367 195.318 290.579 195.284 290.793C195.25 291.007 195.256 291.2 195.302 291.371C195.349 291.544 195.38 291.685 195.395 291.793C195.411 291.903 195.491 292.028 195.634 292.169C195.778 292.309 195.903 292.408 196.01 292.465C196.116 292.522 196.246 292.584 196.4 292.65C196.554 292.717 196.592 292.744 196.515 292.733C196.438 292.719 196.583 292.757 196.948 292.844C197.314 292.932 197.684 292.96 198.059 292.93C198.434 292.9 198.75 292.865 199.007 292.826C199.263 292.786 199.448 292.732 199.56 292.665C199.672 292.598 199.772 292.54 199.86 292.491C199.949 292.443 200.019 292.383 200.071 292.314C200.124 292.243 200.195 292.116 200.286 291.933C200.378 291.751 200.436 291.629 200.462 291.568C200.487 291.506 200.506 291.458 200.519 291.425C200.531 291.39 200.555 291.3 200.592 291.154C200.628 291.009 200.647 290.934 200.647 290.93C200.649 290.926 200.664 290.938 200.693 290.967C200.721 290.996 200.73 290.798 200.721 290.371C200.711 289.945 200.721 289.636 200.752 289.445C200.783 289.253 200.81 289.079 200.833 288.921C200.855 288.763 200.872 288.692 200.882 288.709C200.893 288.725 200.875 288.748 200.829 288.779C200.783 288.809 200.875 288.725 201.105 288.526C201.336 288.327 201.485 288.217 201.554 288.194" stroke="#3D5330" stroke-width="4" stroke-linecap="round" stroke-linejoin="round"/>
<path d="M257.642 230.592C257.541 230.908 257.511 231.036 257.551 230.975C257.497 231.336 257.475 231.45 257.484 231.315C257.383 231.562 257.33 231.825 257.326 232.106C257.373 231.727 257.404 231.554 257.416 231.586C257.416 231.317 257.416 231.204 257.416 231.247C257.416 230.921 257.416 230.789 257.416 230.852C257.416 230.552 257.416 230.42 257.416 230.457C257.437 230.276 257.484 229.973 257.557 229.548C257.629 229.123 257.707 228.769 257.789 228.487C257.872 228.205 257.919 228.004 257.928 227.884C257.938 227.765 257.942 227.614 257.939 227.431C257.935 227.247 257.934 227.108 257.934 227.014C257.933 226.921 257.931 226.857 257.93 226.822C257.928 226.787 257.93 226.771 257.936 226.773C257.942 226.774 257.932 226.67 257.906 226.461C257.878 226.252 257.843 225.97 257.801 225.613C257.757 225.258 257.717 225.013 257.679 224.878C257.64 224.744 257.623 224.597 257.63 224.438C257.636 224.278 257.642 224.199 257.65 224.2C257.657 224.203 257.65 224.232 257.627 224.288C257.604 224.344 257.579 223.901 257.551 222.956C257.695 223.28 257.748 223.427 257.711 223.397C257.763 223.573 257.828 223.848 257.906 224.221C257.984 224.595 258.035 225.058 258.057 225.611C258.079 226.163 258.087 226.588 258.081 226.884C258.074 227.18 258.056 227.438 258.026 227.656C257.997 227.875 257.998 227.919 258.028 227.789C258.058 227.66 258.017 228.169 257.906 229.317C257.793 230.466 257.749 231.517 257.774 232.47C257.799 233.425 257.8 233.921 257.778 233.958" stroke="#3D5330" stroke-width="4" stroke-linecap="round" stroke-linejoin="round"/>
<path d="M239.718 227.926C239.791 228.133 239.814 228.246 239.785 228.265C239.958 228.962 240.062 229.627 240.097 230.26C240.133 230.892 240.079 231.563 239.937 232.274C239.795 232.984 239.745 233.658 239.785 234.297C239.879 233.973 239.932 233.548 239.943 233.02C239.955 232.493 240.008 232.065 240.103 231.735C240.197 231.405 240.33 230.613 240.501 229.358C240.672 228.102 240.757 227.451 240.757 227.406" stroke="#3D5330" stroke-width="4" stroke-linecap="round" stroke-linejoin="round"/>
<path d="M164.537 233.642C164.426 233.573 164.462 233.595 164.643 233.708C164.825 233.822 165.051 233.979 165.323 234.178C165.594 234.376 165.817 234.536 165.992 234.659C166.166 234.781 166.435 234.936 166.799 235.125C167.163 235.314 167.461 235.501 167.695 235.685C167.928 235.868 168.072 235.997 168.126 236.071C168.179 236.144 168.257 236.21 168.36 236.27C168.462 236.329 168.634 236.481 168.876 236.726C169.118 236.97 169.286 237.157 169.381 237.285C169.476 237.413 169.559 237.522 169.629 237.612C169.7 237.703 169.767 237.796 169.831 237.889C169.893 237.984 169.924 238.034 169.921 238.038C169.918 238.043 169.913 238.04 169.905 238.032C169.897 238.024 169.906 238.053 169.932 238.119C169.957 238.185 170.028 238.258 170.143 238.341C170.183 238.365 170.151 238.31 170.046 238.173C169.94 238.037 169.827 237.896 169.704 237.75C169.582 237.605 169.511 237.524 169.489 237.505C169.468 237.487 169.42 237.445 169.345 237.379C169.27 237.312 169.212 237.257 169.171 237.214C169.13 237.172 169.127 237.161 169.16 237.182C169.194 237.205 169.12 237.138 168.937 236.979C168.754 236.822 168.451 236.599 168.029 236.31C167.607 236.021 167.33 235.708 167.198 235.369C167.067 235.03 167.001 234.831 167.001 234.771" stroke="#3D5330" stroke-width="4" stroke-linecap="round" stroke-linejoin="round"/>
<path d="M386.416 221.442C386.253 221.332 385.935 222.093 385.463 223.725C384.991 225.358 384.564 226.657 384.182 227.622C383.8 228.586 383.511 229.322 383.314 229.828C383.119 230.334 382.985 230.698 382.913 230.922C382.842 231.145 382.735 231.527 382.593 232.068C382.453 232.611 382.326 233.069 382.214 233.444C382.102 233.818 382.031 234.022 382 234.055C381.97 234.086 381.896 234.176 381.777 234.322C381.659 234.468 381.57 234.6 381.508 234.717C381.447 234.833 381.416 234.891 381.416 234.889C381.416 234.888 381.402 234.904 381.375 234.938C381.347 234.972 381.349 234.959 381.379 234.901C381.409 234.842 381.377 234.89 381.283 235.044C381.19 235.199 381.114 235.336 381.054 235.457C380.993 235.577 380.919 235.736 380.832 235.933C380.744 236.129 380.713 236.223 380.736 236.215C380.759 236.208 380.735 236.234 380.662 236.295C380.59 236.356 380.595 236.351 380.675 236.278C380.755 236.205 380.582 236.366 380.155 236.76C380.129 236.754 380.289 236.679 380.633 236.535C380.978 236.391 381.188 236.285 381.263 236.217" stroke="#3D5330" stroke-width="4" stroke-linecap="round" stroke-linejoin="round"/>
<path d="M415.462 228.74C415.168 228.834 415.07 228.872 415.169 228.853C414.992 229.08 414.901 229.182 414.898 229.158C414.596 229.3 413.966 230.014 413.006 231.298C412.048 232.582 411.253 233.645 410.621 234.487C409.989 235.33 409.462 235.927 409.04 236.277C408.618 236.627 408.125 237.104 407.563 237.707C407 238.31 406.575 238.792 406.287 239.152C405.998 239.513 405.737 239.852 405.502 240.169C405.267 240.488 405.088 240.723 404.965 240.876C404.841 241.029 404.72 241.176 404.601 241.317C404.483 241.457 404.343 241.663 404.183 241.932C404.235 241.587 404.312 241.341 404.414 241.193C404.517 241.046 404.568 240.961 404.568 240.939" stroke="#3D5330" stroke-width="4" stroke-linecap="round" stroke-linejoin="round"/>
<path d="M389.468 225.735C389.605 225.859 389.666 225.918 389.652 225.912C389.637 225.906 389.67 225.947 389.749 226.037C389.829 226.127 389.862 226.158 389.847 226.132C389.833 226.105 389.826 226.089 389.826 226.082C389.826 226.075 389.895 226.148 390.033 226.301C390.17 226.453 390.681 226.759 391.565 227.221C392.448 227.683 393.184 228.002 393.774 228.179C394.362 228.356 394.878 228.495 395.32 228.597C395.762 228.699 396.09 228.766 396.304 228.798C396.517 228.83 396.683 228.873 396.803 228.926C396.922 228.98 396.986 229.007 396.994 229.007C397.002 229.008 397.013 229.01 397.027 229.013C397.042 229.017 397.213 229.076 397.538 229.191" stroke="#3D5330" stroke-width="4" stroke-linecap="round" stroke-linejoin="round"/>
<path d="M350.657 209.424C350.727 209.573 350.75 209.664 350.725 209.695C350.886 209.681 351.067 210.571 351.269 212.362C351.472 214.155 351.589 215.8 351.62 217.296C351.65 218.792 351.651 219.833 351.622 220.422C351.593 221.01 351.562 221.82 351.528 222.853C351.493 223.885 351.434 224.881 351.35 225.841C351.267 226.8 351.185 227.512 351.105 227.974C351.024 228.437 350.991 228.759 351.005 228.941C351.019 229.124 351.026 229.255 351.026 229.337C351.026 229.417 351.027 229.461 351.028 229.469C351.029 229.476 351.015 229.594 350.984 229.822C350.952 230.051 350.94 230.133 350.949 230.069C350.958 230.005 350.963 230.073 350.964 230.272C350.966 230.472 350.955 230.574 350.931 230.578C350.907 230.584 350.922 230.754 350.976 231.089C351.03 231.423 351.089 231.681 351.154 231.861C351.218 232.042 351.293 232.314 351.377 232.677C351.461 233.041 351.515 233.308 351.54 233.476C351.564 233.645 351.572 233.77 351.565 233.852C351.559 233.934 351.557 233.97 351.56 233.96C351.563 233.949 351.562 233.972 351.557 234.026C351.554 234.081 351.554 234.095 351.559 234.066C351.562 234.038 351.565 234.173 351.568 234.472C351.571 234.771 351.562 235.041 351.541 235.283C351.52 235.524 351.501 235.692 351.483 235.788C351.466 235.884 351.459 235.974 351.46 236.056C351.463 236.138 351.466 236.2 351.47 236.242C351.473 236.282 351.474 236.272 351.472 236.21C351.47 236.147 351.47 236.227 351.471 236.449C351.471 236.672 351.471 236.994 351.471 237.415C351.565 237.315 351.627 237.238 351.657 237.181C351.686 237.124 351.724 237.046 351.772 236.945C351.82 236.843 351.87 236.736 351.922 236.624" stroke="#3D5330" stroke-width="4" stroke-linecap="round" stroke-linejoin="round"/>
<path d="M550.836 301.848C549.105 301.797 548.178 301.812 548.054 301.893C547.929 301.975 547.882 302.018 547.913 302.023C547.356 302.532 547.141 302.769 547.269 302.736C547.199 302.844 547.246 303.025 547.413 303.277C547.578 303.528 547.646 303.609 547.617 303.521C547.589 303.433 547.707 303.46 547.97 303.603C548.235 303.746 548.433 303.803 548.565 303.776C548.696 303.747 548.638 303.806 548.391 303.952C548.144 304.097 550.309 304.2 554.886 304.261C559.464 304.322 563.597 304.403 567.285 304.504C570.974 304.604 574.277 304.759 577.192 304.968C580.106 305.178 582.57 305.351 584.581 305.487C586.592 305.622 588.248 306.524 589.55 308.191C589.711 308.338 589.656 308.25 589.384 307.925C589.111 307.601 593.619 307.384 602.908 307.275" stroke="#3D5330" stroke-width="4" stroke-linecap="round" stroke-linejoin="round"/>
<path d="M70.9186 304.29C70.6239 304.426 70.1651 304.637 69.5421 304.923C68.92 305.209 68.3332 305.476 67.7819 305.724C67.2306 305.973 66.6523 306.126 66.0471 306.183C65.4418 306.24 65.067 306.28 64.9227 306.305C64.7776 306.33 64.7679 306.324 64.8935 306.288C65.0183 306.252 64.2763 306.406 62.6675 306.751C61.0578 307.096 58.9065 307.475 56.2137 307.889C53.5209 308.303 49.5789 308.582 44.388 308.725C39.1961 308.868 34.8011 308.984 31.203 309.071C27.6049 309.16 24.747 309.242 22.6293 309.319C20.5117 309.396 18.8215 309.33 17.5587 309.119C16.2959 308.909 15.2446 309.056 14.4048 309.56C13.5641 310.064 12.8863 310.466 12.3712 310.765C11.8562 311.065 11.185 311.361 10.3576 311.654C9.10452 311.698 8.61295 311.713 8.88285 311.701C9.15276 311.689 9.11471 311.776 8.7687 311.962C8.42269 312.147 8.0758 312.398 7.72803 312.714C8.0289 312.716 8.24792 312.717 8.38508 312.718C8.52224 312.719 8.71028 312.721 8.94921 312.722" stroke="#3D5330" stroke-width="4" stroke-linecap="round" stroke-linejoin="round"/>
<path d="M18.0486 150.464C17.9733 150.412 17.657 150.14 17.0995 149.65C17.0437 149.647 17.0163 149.642 17.0172 149.635C17.0172 149.627 17.0149 149.621 17.0105 149.619C17.0061 149.615 17.0304 149.614 17.0835 149.616C17.1366 149.619 17.2508 149.643 17.426 149.688C17.6012 149.733 17.9114 149.83 18.3565 149.98C18.8016 150.129 18.9848 150.176 18.9061 150.121C18.8273 150.067 18.9609 150.197 19.3069 150.51C19.6538 150.823 19.7631 150.924 19.6348 150.813C19.5064 150.702 19.7352 150.857 20.3211 151.276C20.9069 151.695 21.4423 151.999 21.9272 152.187C22.413 152.375 23.0254 152.685 23.7643 153.118C24.5032 153.552 25.0895 153.903 25.5231 154.172C25.9558 154.441 26.2284 154.579 26.3408 154.584C26.4523 154.589 26.9036 154.902 27.6947 155.523C28.485 156.146 29.4163 156.807 30.4889 157.507C31.5605 158.207 32.649 159.003 33.7543 159.893C34.8596 160.785 36.4989 161.934 38.6723 163.341C40.8456 164.748 42.8686 166.119 44.7411 167.457C46.6145 168.795 48.2419 169.881 49.6232 170.715C51.0055 171.549 52.1081 172.142 52.9311 172.491C53.7541 172.84 54.3302 173.094 54.6594 173.251C54.9886 173.41 55.1488 173.484 55.1399 173.474C55.1302 173.463 55.1819 173.484 55.2952 173.536C55.4085 173.588 55.7501 173.757 56.32 174.043C56.9465 174.359 57.2359 174.503 57.1881 174.476C57.1412 174.448 57.1407 174.464 57.1867 174.523C57.2327 174.583 57.4575 174.677 57.861 174.806C58.2637 174.935 58.5929 175.11 58.8486 175.331C59.1053 175.552 59.3867 175.803 59.6929 176.082C59.999 176.362 60.1557 176.513 60.1628 176.537C60.1698 176.561 60.1052 176.521 59.969 176.415C59.8336 176.309 60.2986 176.623 61.364 177.357" stroke="#3D5330" stroke-width="4" stroke-linecap="round" stroke-linejoin="round"/>
<path d="M534.825 159.262C533.898 158.763 533.299 158.763 533.028 159.262C532.75 159.294 532.31 159.497 531.706 159.872C532.201 160.052 532.426 160.117 532.382 160.067C532.338 160.017 532.453 159.914 532.727 159.758C533 159.602 533.044 159.704 532.86 160.063C532.674 160.422 535.248 159.512 540.582 157.332C545.917 155.151 550.049 153.5 552.98 152.379C555.911 151.259 558.395 150.076 560.433 148.831C562.471 147.586 564.022 146.667 565.086 146.076C566.15 145.485 567.082 144.895 567.884 144.305C568.686 143.716 569.298 143.207 569.721 142.776C570.143 142.346 570.733 141.892 571.489 141.415C572.245 140.937 573.049 140.572 573.9 140.318C574.752 140.064 575.226 139.898 575.322 139.82C575.417 139.743 575.898 139.469 576.766 138.999C577.632 138.529 578.245 138.148 578.605 137.854C578.965 137.561 579.314 137.259 579.653 136.947C579.992 136.635 580.151 136.487 580.132 136.504C580.112 136.521 580.082 136.537 580.044 136.553C580.005 136.569 580.236 136.458 580.735 136.22" stroke="#3D5330" stroke-width="4" stroke-linecap="round" stroke-linejoin="round"/>
<path d="M452.163 65.9403C452.578 65.4609 452.827 65.1748 452.909 65.082C452.992 64.9891 452.97 64.9592 452.841 64.9919C453.656 64.4029 453.995 64.064 453.858 63.9756C453.602 64.378 453.909 64.006 454.781 62.8598C455.652 61.7136 456.655 60.1545 457.79 58.1823C458.925 56.2109 460.265 54.2137 461.811 52.1911C463.357 50.1693 464.578 48.6522 465.474 47.6395C466.372 46.6277 467.514 45.4686 468.9 44.1623C470.288 42.8551 471.52 41.8565 472.597 41.1657C473.673 40.475 474.446 39.938 474.915 39.5551C475.384 39.1712 475.728 38.8271 475.949 38.5228C476.169 38.2186 476.367 37.9591 476.542 37.7442C476.718 37.5302 476.817 37.414 476.838 37.3954C476.859 37.3777 476.838 37.3899 476.773 37.4323C476.707 37.4748 476.808 37.3779 477.074 37.1418C477.341 36.9057 477.562 36.7135 477.738 36.565C477.915 36.4164 478.003 36.3333 478.001 36.3156C478 36.2979 478.015 36.266 478.047 36.22C478.08 36.1749 478.326 35.8352 478.784 35.2011C479.243 34.5687 479.467 34.2621 479.454 34.2816C479.442 34.3019 479.454 34.3051 479.491 34.291C479.491 34.2237 479.491 34.156 479.491 34.0879C479.65 34.0879 479.808 34.0879 479.965 34.0879" stroke="#3D5330" stroke-width="4" stroke-linecap="round" stroke-linejoin="round"/>
<path d="M173.119 76.1055C173.006 75.9393 172.939 75.8352 172.917 75.7936C172.895 75.7521 172.87 75.7149 172.844 75.6822C172.817 75.6495 172.831 75.6761 172.886 75.7619C172.942 75.8486 172.88 75.6984 172.699 75.3111C172.52 74.9237 172.243 74.471 171.87 73.9537C171.497 73.4354 171.125 72.904 170.755 72.3592C170.384 71.8135 170.185 71.5202 170.159 71.4795C170.132 71.4397 170.126 71.4256 170.14 71.4371C170.153 71.4486 170.154 71.4518 170.141 71.4465C170.13 71.4412 169.872 71.0417 169.369 70.2484C168.865 69.4542 168.176 68.5314 167.302 67.4799C166.429 66.4274 165.746 65.5999 165.255 64.9976C164.764 64.3962 164.368 63.9584 164.067 63.6843C163.766 63.4101 163.526 63.1135 163.346 62.7942C163.168 62.4741 162.679 61.7232 161.881 60.5416C161.083 59.36 160.251 58.3022 159.385 57.3682C158.521 56.4343 157.939 55.7092 157.639 55.1927C157.339 54.6762 157.126 54.3337 156.999 54.1656C156.87 53.9985 156.527 53.4812 155.967 52.6136C155.408 51.746 155.159 51.3207 155.22 51.3375C155.281 51.3534 155.091 50.9907 154.651 50.2496C154.21 49.5075 153.843 48.8959 153.55 48.4148C153.257 47.9336 153.094 47.7242 153.059 47.7861C153.025 47.848 153.021 47.8759 153.046 47.8697C153.071 47.8635 153.085 47.8687 153.09 47.8855C153.094 47.9015 153.1 47.908 153.107 47.9053C153.115 47.9026 153.113 47.9143 153.1 47.94C153.088 47.9656 153.044 47.912 152.968 47.7793C152.891 47.6475 152.669 47.0819 152.3 46.0825C152.448 46.0312 152.609 45.9169 152.783 45.7392C152.958 45.5623 153.091 45.4057 153.181 45.2695" stroke="#3D5330" stroke-width="4" stroke-linecap="round" stroke-linejoin="round"/>
<path d="M323.389 48.2519C323.389 48.3872 323.321 49.1103 323.186 50.421C323.174 50.4431 323.14 50.3995 323.084 50.2898C323.026 50.1792 322.952 49.9295 322.86 49.5403C322.768 49.1503 322.721 48.8368 322.717 48.5998C322.713 48.3627 322.709 48.2494 322.706 48.26C322.705 48.2706 322.705 48.317 322.706 48.3993C322.709 48.4815 322.703 48.4638 322.687 48.3462C322.671 48.2294 322.664 48.2265 322.667 48.3371C322.668 48.4476 322.617 48.1273 322.511 47.3765C322.406 46.6247 322.418 43.9678 322.546 39.406C322.675 34.845 322.712 30.5508 322.657 26.5232C322.602 22.4964 322.603 19.4497 322.66 17.3829C322.716 15.3169 322.748 13.9459 322.756 13.2702C322.764 12.5936 322.652 12.0054 322.421 11.5057C322.189 11.0051 321.992 9.79015 321.829 7.86035" stroke="#3D5330" stroke-width="4" stroke-linecap="round" stroke-linejoin="round"/>
<path d="M239.694 234.552C239.777 234.488 239.85 234.048 239.912 233.231C239.973 232.414 240.121 231.669 240.358 230.994C240.595 230.32 240.816 229.826 241.023 229.513C241.228 229.2 241.302 228.952 241.246 228.768C241.188 228.583 241.199 228.327 241.279 228C241.358 227.671 241.425 227.258 241.482 226.762C241.538 226.266 241.534 225.876 241.471 225.592C241.407 225.309 241.307 225.054 241.17 224.826C241.033 224.598 240.976 224.303 241 223.939C241.023 223.575 241.031 222.543 241.025 220.845C241.019 219.147 241.016 218.262 241.016 218.189" stroke="#3D5330" stroke-width="4" stroke-linecap="round" stroke-linejoin="round"/>
<path d="M352.525 202.713C352.636 202.794 352.543 203.307 352.244 204.25C351.945 205.194 351.809 207.123 351.833 210.037C351.857 212.95 351.866 215.195 351.86 216.771C351.855 218.347 351.853 219.661 351.855 220.712C351.857 221.764 351.858 222.98 351.857 224.362C351.856 225.744 351.856 227.073 351.856 228.349C351.857 229.623 351.857 231.034 351.856 232.58C351.856 234.127 351.856 235.819 351.856 237.656C351.856 239.492 351.856 240.447 351.856 240.519" stroke="#3D5330" stroke-width="4" stroke-linecap="round" stroke-linejoin="round"/>
<path d="M257.17 217.305C257.193 217.696 257.194 219.052 257.172 221.375C257.149 223.697 257.142 225.551 257.153 226.937C257.163 228.322 257.21 229.361 257.294 230.053C257.377 230.746 257.402 231.337 257.369 231.826C257.337 232.316 257.425 232.717 257.635 233.031C257.844 233.343 257.925 233.779 257.88 234.338C257.835 234.899 257.817 235.658 257.826 236.614C257.836 237.57 257.84 238.33 257.839 238.894C257.839 239.459 257.839 239.778 257.839 239.851" stroke="#3D5330" stroke-width="4" stroke-linecap="round" stroke-linejoin="round"/>
<path d="M164.691 229.02C164.744 229.157 164.746 229.663 164.697 230.539C164.649 231.413 164.788 232.273 165.114 233.119C165.442 233.965 165.768 234.619 166.094 235.078C166.42 235.538 166.958 236.247 167.709 237.205C168.461 238.163 169.048 238.89 169.468 239.386C169.888 239.883 170.321 240.412 170.765 240.974C171.21 241.537 171.538 241.953 171.749 242.224C171.959 242.495 172.121 242.697 172.234 242.829C172.348 242.961 172.667 243.052 173.193 243.102C173.718 243.152 174.056 243.176 174.207 243.176" stroke="#3D5330" stroke-width="4" stroke-linecap="round" stroke-linejoin="round"/>
<path d="M240.798 234.334C240.867 234.539 240.553 235.271 239.855 236.531C239.157 237.791 238.809 238.458 238.809 238.53" stroke="#3D5330" stroke-width="4" stroke-linecap="round" stroke-linejoin="round"/>
<path d="M388.146 218.189C388.043 218.434 387.8 219.077 387.415 220.118C387.032 221.159 386.625 221.968 386.193 222.543C385.762 223.118 385.358 223.792 384.982 224.565C384.605 225.339 384.321 225.943 384.129 226.377C383.937 226.812 383.809 227.154 383.745 227.401C383.682 227.65 383.559 227.883 383.376 228.101C383.194 228.319 383.051 228.6 382.946 228.944C382.843 229.289 382.716 229.795 382.567 230.461C382.418 231.127 382.135 232.135 381.717 233.486C381.299 234.836 380.979 235.777 380.755 236.308C380.531 236.839 380.377 237.253 380.293 237.552C380.21 237.85 380.173 238.125 380.183 238.377C380.191 238.63 380.17 238.839 380.119 239.004C380.067 239.17 379.99 239.391 379.888 239.665C379.785 239.939 379.734 240.151 379.734 240.302" stroke="#3D5330" stroke-width="4" stroke-linecap="round" stroke-linejoin="round"/>
<path d="M396.106 228.584C396.234 228.765 395.922 228.573 395.17 228.01C394.418 227.445 393.7 226.919 393.017 226.43C392.334 225.941 391.746 225.556 391.254 225.273C390.763 224.99 390.195 224.66 389.549 224.285C388.904 223.909 388.508 223.721 388.363 223.721" stroke="#3D5330" stroke-width="4" stroke-linecap="round" stroke-linejoin="round"/>
<path d="M404.735 241.839C404.567 241.427 404.776 240.911 405.363 240.29C405.949 239.669 406.466 239.032 406.914 238.378C407.362 237.725 407.682 237.211 407.872 236.838C408.062 236.464 408.275 236.271 408.51 236.258C408.747 236.247 409.088 235.895 409.534 235.202C409.98 234.51 410.379 233.951 410.73 233.527C411.081 233.102 411.296 232.854 411.374 232.781" stroke="#3D5330" stroke-width="4" stroke-linecap="round" stroke-linejoin="round"/>
<path d="M412.696 231.459C412.797 231.342 413.002 231.108 413.312 230.755C413.621 230.402 413.893 230.139 414.129 229.965C414.367 229.791 414.568 229.656 414.733 229.561C414.9 229.465 415.05 229.321 415.183 229.129C415.316 228.937 415.38 228.887 415.374 228.981C415.37 229.074 415.814 228.836 416.706 228.267C417.599 227.699 418.332 227.113 418.907 226.508C419.482 225.904 419.77 225.566 419.77 225.493" stroke="#3D5330" stroke-width="4" stroke-linecap="round" stroke-linejoin="round"/>
<path d="M388.346 216.418C388.3 216.391 388.387 215.969 388.606 215.151C388.826 214.333 389.047 213.517 389.271 212.701C389.496 211.887 389.782 211.161 390.129 210.524C390.476 209.887 390.773 209.346 391.018 208.9C391.263 208.455 391.523 207.895 391.799 207.223C392.073 206.55 392.347 205.948 392.62 205.416C392.893 204.885 393.061 204.481 393.126 204.205C393.191 203.929 393.233 203.705 393.251 203.535C393.269 203.365 393.384 203.121 393.595 202.803C393.805 202.485 394.013 202.178 394.218 201.88C394.424 201.582 394.561 201.294 394.631 201.017C394.701 200.741 394.833 200.502 395.028 200.302C395.223 200.102 395.359 199.958 395.436 199.869C395.513 199.778 395.731 199.513 396.089 199.072C396.446 198.631 396.753 198.286 397.01 198.036C397.266 197.786 397.431 197.549 397.505 197.325C397.578 197.102 397.754 196.851 398.032 196.575C398.311 196.297 398.482 196.069 398.544 195.891C398.608 195.714 398.676 195.626 398.747 195.626" stroke="#3D5330" stroke-width="4" stroke-linecap="round" stroke-linejoin="round"/>
<path d="M399.183 194.522C399.226 194.606 399.422 194.234 399.771 193.407C400.12 192.58 400.628 191.685 401.296 190.721C401.964 189.758 402.598 188.954 403.197 188.309C403.796 187.665 404.237 187.139 404.519 186.733C404.802 186.327 405.019 186.049 405.17 185.897" stroke="#3D5330" stroke-width="4" stroke-linecap="round" stroke-linejoin="round"/>
<path d="M256.986 188.758C257.012 188.717 257.009 189.264 256.977 190.398C256.945 191.532 257.06 192.827 257.321 194.285C257.582 195.743 257.823 196.873 258.044 197.674C258.266 198.475 258.363 199.576 258.333 200.98C258.304 202.383 258.294 203.746 258.302 205.071C258.31 206.395 258.313 207.517 258.31 208.436C258.307 209.355 258.307 210.739 258.31 212.588C258.313 214.437 258.318 215.945 258.324 217.111C258.329 218.276 258.29 220.084 258.205 222.534C258.119 224.985 258.079 226.85 258.084 228.131C258.089 229.412 258.091 230.383 258.091 231.044C258.091 231.707 258.091 233.007 258.091 234.946C258.091 236.884 258.091 237.929 258.091 238.079" stroke="#3D5330" stroke-width="4" stroke-linecap="round" stroke-linejoin="round"/>
<path d="M352.56 178.596C352.514 178.893 352.527 179.719 352.598 181.074C352.67 182.429 352.619 183.685 352.446 184.844C352.272 186.003 352.121 187.025 351.993 187.911C351.866 188.797 351.822 189.528 351.863 190.106C351.903 190.682 351.915 191.348 351.9 192.102C351.885 192.856 351.881 193.643 351.887 194.465C351.893 195.286 351.891 197.331 351.882 200.599C351.872 203.867 351.871 206.83 351.879 209.489C351.888 212.148 351.9 214.596 351.915 216.832C351.931 219.068 351.902 220.754 351.828 221.892C351.755 223.029 351.707 224.444 351.685 226.137C351.664 227.829 351.658 229.128 351.666 230.036C351.676 230.943 351.679 232.185 351.675 233.762C351.671 235.34 351.67 236.637 351.67 237.654C351.672 238.673 351.673 239.255 351.673 239.399" stroke="#3D5330" stroke-width="4" stroke-linecap="round" stroke-linejoin="round"/>
<path d="M256.986 240.285C256.986 240.23 256.986 239.107 256.986 236.916C256.986 234.723 256.985 233.022 256.983 231.812C256.982 230.601 256.986 229.654 256.997 228.97C257.006 228.287 257.007 227.383 256.998 226.26C256.988 225.137 256.937 223.894 256.844 222.531C256.751 221.169 256.736 220.081 256.8 219.269C256.864 218.456 256.801 217.552 256.613 216.557C256.424 215.561 256.326 213.967 256.317 211.775C256.308 209.582 256.307 207.938 256.314 206.844C256.32 205.75 256.322 204.943 256.32 204.423C256.317 203.902 256.316 202.957 256.317 201.587C256.318 200.217 256.318 198.604 256.318 196.748C256.317 194.891 256.317 193.927 256.317 193.854" stroke="#3D5330" stroke-width="4" stroke-linecap="round" stroke-linejoin="round"/>
<path d="M256.317 184.779C256.317 184.707 256.337 184.173 256.377 183.179C256.416 182.184 256.474 181.392 256.552 180.802" stroke="#3D5330" stroke-width="4" stroke-linecap="round" stroke-linejoin="round"/>
<path d="M167.597 213.936C167.645 213.955 167.597 214.173 167.452 214.589C167.307 215.006 167.161 215.344 167.014 215.602C166.866 215.86 166.723 216.118 166.584 216.377C166.445 216.636 166.328 216.839 166.234 216.987C166.138 217.135 166.07 217.281 166.029 217.423C165.988 217.566 165.924 217.775 165.837 218.051C165.75 218.326 165.65 218.551 165.537 218.727C165.423 218.903 165.319 219.188 165.222 219.58C165.126 219.972 165.027 220.329 164.927 220.652C164.827 220.976 164.744 221.254 164.678 221.485C164.611 221.718 164.586 221.971 164.601 222.245C164.616 222.52 164.621 223.01 164.615 223.717C164.61 224.423 164.608 225.115 164.61 225.794C164.613 226.474 164.615 227.091 164.615 227.644C164.617 228.196 164.617 228.628 164.614 228.94C164.611 229.25 164.611 229.704 164.613 230.302C164.615 230.899 164.624 231.366 164.642 231.703C164.66 232.039 164.742 232.561 164.888 233.269C165.034 233.975 165.159 234.53 165.261 234.932C165.361 235.334 165.44 235.628 165.495 235.813C165.55 235.998 165.645 236.223 165.78 236.488C165.913 236.754 166.012 236.961 166.077 237.109C166.142 237.257 166.227 237.373 166.334 237.458C166.442 237.543 166.558 237.655 166.684 237.793C166.808 237.932 166.96 238.107 167.139 238.318C167.318 238.528 167.5 238.702 167.686 238.839C167.872 238.976 168.108 239.233 168.396 239.61C168.683 239.987 168.98 240.301 169.287 240.552C169.593 240.804 169.872 241.062 170.124 241.326C170.376 241.592 170.73 241.874 171.186 242.174C171.643 242.474 171.885 242.624 171.912 242.624" stroke="#3D5330" stroke-width="4" stroke-linecap="round" stroke-linejoin="round"/>
<path d="M339.683 203.716C341.149 203.716 342.337 202.528 342.337 201.062C342.337 199.597 341.149 198.409 339.683 198.409C338.216 198.409 337.028 199.597 337.028 201.062C337.028 202.528 338.216 203.716 339.683 203.716Z" fill="#3D5330" stroke="#3D5330" stroke-width="0.1"/>
<path d="M339.247 205.922C340.713 205.922 341.902 204.734 341.902 203.268C341.902 201.803 340.713 200.615 339.247 200.615C337.781 200.615 336.592 201.803 336.592 203.268C336.592 204.734 337.781 205.922 339.247 205.922Z" fill="#3D5330" stroke="#3D5330" stroke-width="0.1"/>
<path d="M339.247 205.922C340.713 205.922 341.902 204.734 341.902 203.268C341.902 201.803 340.713 200.615 339.247 200.615C337.781 200.615 336.592 201.803 336.592 203.268C336.592 204.734 337.781 205.922 339.247 205.922Z" fill="#3D5330" stroke="#3D5330" stroke-width="0.1"/>
<path d="M339.916 205.487C341.382 205.487 342.571 204.299 342.571 202.834C342.571 201.369 341.382 200.181 339.916 200.181C338.45 200.181 337.261 201.369 337.261 202.834C337.261 204.299 338.45 205.487 339.916 205.487Z" fill="#3D5330" stroke="#3D5330" stroke-width="0.1"/>
<path d="M339.916 205.487C341.382 205.487 342.571 204.299 342.571 202.834C342.571 201.369 341.382 200.181 339.916 200.181C338.45 200.181 337.261 201.369 337.261 202.834C337.261 204.299 338.45 205.487 339.916 205.487Z" fill="#3D5330" stroke="#3D5330" stroke-width="0.1"/>
<path d="M351.64 171.663C351.837 171.813 351.759 172.314 351.406 173.165C351.052 174.016 350.768 175.196 350.555 176.706C350.343 178.214 350.249 179.58 350.274 180.803C350.299 182.027 350.314 182.917 350.322 183.475C350.329 184.033 350.311 184.692 350.268 185.453C350.226 186.215 350.28 186.864 350.429 187.4C350.58 187.935 350.691 188.481 350.762 189.038C350.835 189.596 350.888 190.048 350.922 190.394C350.956 190.74 350.98 191.046 350.992 191.312C351.004 191.577 351.098 191.864 351.273 192.174C351.449 192.484 351.508 193.232 351.452 194.42C351.396 195.608 351.38 196.569 351.406 197.304C351.431 198.04 351.472 198.739 351.531 199.401C351.589 200.065 351.738 201.168 351.978 202.712C352.217 204.255 352.328 205.947 352.31 207.788C352.292 209.629 352.285 211.525 352.289 213.476C352.292 215.426 352.294 216.901 352.293 217.9C352.291 218.899 352.293 219.719 352.299 220.357C352.305 220.997 352.31 222.372 352.317 224.484C352.322 226.596 352.305 228.249 352.266 229.444C352.227 230.639 352.25 231.563 352.334 232.214C352.418 232.865 352.52 233.382 352.639 233.764C352.76 234.145 352.804 234.628 352.772 235.213C352.739 235.796 352.726 236.36 352.733 236.904C352.741 237.447 352.744 237.874 352.743 238.184C352.743 238.496 352.743 238.724 352.743 238.869" stroke="#3D5330" stroke-width="4" stroke-linecap="round" stroke-linejoin="round"/>
</svg>
