<svg width="587" height="409" viewBox="0 0 587 409" fill="none" xmlns="http://www.w3.org/2000/svg">
<path d="M441.54 132.835C441.578 132.884 441.598 132.907 441.6 132.905C441.603 132.903 441.653 132.882 441.75 132.843C441.848 132.804 441.895 132.766 441.892 132.73C441.888 132.694 441.886 132.677 441.886 132.678C441.885 132.679 441.887 132.681 441.891 132.686C441.894 132.693 441.886 132.646 441.867 132.547C441.848 132.448 441.825 132.311 441.799 132.135C441.772 131.959 441.746 131.817 441.718 131.711C441.692 131.605 441.671 131.496 441.656 131.385C441.64 131.274 441.602 131.131 441.542 130.958C441.48 130.785 441.337 130.342 441.111 129.627C440.885 128.912 440.645 128.269 440.392 127.701C440.139 127.133 439.928 126.694 439.76 126.384C439.592 126.075 439.462 125.771 439.37 125.474C439.278 125.177 439.16 124.907 439.017 124.664C438.851 124.586 438.662 124.529 438.452 124.495C438.241 124.461 438.044 124.392 437.861 124.285C437.677 124.179 437.294 124.185 436.71 124.303C436.125 124.419 435.617 124.533 435.185 124.645C434.752 124.758 434.211 124.894 433.562 125.051C432.911 125.209 431.469 125.593 429.236 126.202C426.999 126.813 425.304 127.271 424.153 127.578C423.002 127.886 421.941 128.217 420.971 128.569C420 128.92 419.074 129.262 418.195 129.595C417.315 129.93 416.648 130.171 416.194 130.32C415.741 130.47 415.227 130.646 414.654 130.846C414.081 131.045 413.237 131.362 412.122 131.794C411.006 132.227 410.091 132.584 409.377 132.863C408.662 133.143 407.992 133.405 407.366 133.647C406.74 133.89 406.053 134.146 405.307 134.416C404.561 134.686 403.875 134.959 403.248 135.235C402.621 135.51 402.118 135.783 401.737 136.054C401.357 136.325 400.864 136.633 400.259 136.978C399.654 137.323 398.869 137.589 397.905 137.775C396.961 138.02 395.951 138.292 394.873 138.591C393.796 138.889 392.988 139.124 392.45 139.294C391.912 139.464 391.486 139.601 391.172 139.705C390.856 139.808 390.367 139.971 389.704 140.193C389.04 140.416 387.926 140.801 386.362 141.346C384.797 141.892 383.534 142.309 382.573 142.599C381.612 142.888 380.917 143.11 380.489 143.264C380.06 143.418 379.724 143.551 379.481 143.662C379.237 143.773 379.056 143.859 378.938 143.92C378.818 143.98 378.713 144.033 378.621 144.077C378.53 144.12 378.457 144.155 378.402 144.182C378.349 144.21 378.294 144.239 378.237 144.27C378.181 144.301 378.128 144.332 378.078 144.361C378.03 144.39 377.951 144.442 377.843 144.517C377.735 144.592 377.654 144.661 377.6 144.724C377.546 144.785 377.485 144.843 377.417 144.898C377.35 144.952 377.324 144.975 377.338 144.965C377.354 144.955 377.347 144.961 377.318 144.981C377.29 145.002 377.264 145.023 377.241 145.044C377.218 145.066 377.187 145.097 377.149 145.138C377.11 145.178 377.078 145.213 377.054 145.244C377.029 145.275 376.992 145.312 376.941 145.353C376.892 145.393 376.84 145.432 376.785 145.471C376.731 145.51 376.713 145.517 376.733 145.494C376.752 145.472 376.624 145.628 376.347 145.964C376.072 146.298 375.822 146.703 375.597 147.179C375.372 147.654 375.209 148.035 375.11 148.324C375.01 148.612 374.899 148.913 374.777 149.226C374.655 149.538 374.574 149.824 374.532 150.084C374.489 150.346 374.476 150.559 374.491 150.723C374.506 150.889 374.537 151.018 374.586 151.108C374.636 151.198 374.672 151.292 374.694 151.392C374.717 151.489 374.808 151.705 374.965 152.041C375.123 152.377 375.258 152.63 375.37 152.8C375.481 152.969 375.674 153.202 375.95 153.499C376.227 153.795 376.417 154.04 376.521 154.233C376.625 154.426 376.756 154.655 376.912 154.92C377.07 155.185 377.188 155.393 377.265 155.544C377.343 155.696 377.401 155.803 377.438 155.863C377.474 155.924 377.505 155.974 377.528 156.013C377.552 156.051 377.579 156.08 377.608 156.099C377.637 156.119 377.659 156.135 377.674 156.147C377.688 156.159 377.743 156.19 377.839 156.24C377.936 156.291 378.027 156.324 378.11 156.34C378.194 156.356 378.261 156.366 378.312 156.369C378.361 156.372 378.4 156.376 378.428 156.38C378.456 156.384 378.474 156.385 378.482 156.382C378.491 156.38 378.834 156.327 379.511 156.226C380.187 156.126 380.759 156.049 381.226 155.996C381.693 155.945 382.051 155.888 382.3 155.827C382.549 155.766 383.069 155.627 383.859 155.411C384.649 155.196 385.345 154.991 385.949 154.797C386.551 154.602 387.211 154.385 387.929 154.145C388.647 153.904 389.431 153.695 390.281 153.518C391.131 153.34 391.871 153.147 392.503 152.939C393.134 152.729 393.629 152.575 393.988 152.475C394.346 152.375 395.171 152.182 396.463 151.898C397.756 151.614 398.787 151.367 399.556 151.156C400.324 150.946 400.888 150.781 401.247 150.66C401.606 150.541 401.922 150.439 402.196 150.355C402.468 150.27 402.87 150.139 403.401 149.961C403.932 149.784 404.695 149.528 405.689 149.193C406.684 148.856 407.465 148.59 408.035 148.394C408.603 148.197 409.081 148.025 409.469 147.877C409.856 147.728 410.814 147.354 412.341 146.755C413.869 146.153 415.057 145.679 415.905 145.333C416.752 144.987 417.543 144.722 418.277 144.538C419.009 144.353 419.753 144.131 420.509 143.872C421.264 143.614 421.922 143.399 422.481 143.228C423.041 143.056 423.808 142.805 424.781 142.473C425.754 142.142 426.514 141.876 427.062 141.676C427.611 141.475 428.113 141.252 428.568 141.007C429.024 140.761 429.391 140.575 429.668 140.45C429.945 140.324 430.168 140.197 430.34 140.07C430.512 139.943 430.877 139.76 431.434 139.521C431.993 139.282 432.717 139.002 433.606 138.682C434.495 138.361 435.167 138.101 435.623 137.903C436.079 137.707 436.552 137.533 437.041 137.383C437.53 137.234 437.889 137.124 438.117 137.054C438.333 137.04 438.514 136.986 438.661 136.89C438.803 136.813 439.158 136.66 439.726 136.43C440.291 136.219 440.724 136.099 441.027 136.068C441.325 136.037 441.536 135.994 441.659 135.937C441.781 135.882 441.911 135.789 442.047 135.659C442.182 135.53 442.263 135.455 442.29 135.437C442.318 135.418 442.352 135.375 442.393 135.308C442.433 135.242 442.459 135.204 442.47 135.194C442.48 135.186 442.503 135.165 442.539 135.13C442.575 135.094 442.592 135.077 442.591 135.08C442.591 135.082 442.591 135.081 442.59 135.077C442.59 135.072 442.591 135.074 442.594 135.083C442.597 135.091 442.628 135.06 442.687 134.99C442.748 134.919 442.773 134.883 442.763 134.88C442.753 134.877 442.747 134.883 442.747 134.899C442.746 134.915 442.76 134.865 442.788 134.75C442.817 134.634 442.829 134.532 442.823 134.444C442.817 134.356 442.807 134.291 442.794 134.249C442.781 134.206 442.773 134.176 442.771 134.159C442.769 134.141 442.77 134.127 442.775 134.115C442.779 134.101 442.763 134.01 442.727 133.84C442.69 133.67 442.653 133.509 442.617 133.356C442.581 133.203 442.551 133.065 442.527 132.942C442.503 132.819 442.442 132.678 442.341 132.518C442.241 132.358 442.113 132.143 441.956 131.872C441.801 131.601 441.666 131.406 441.553 131.288C441.44 131.169 441.375 131.102 441.361 131.086" stroke="#FCFBF2" stroke-width="4" stroke-linecap="round" stroke-linejoin="round"/>
<path d="M439.039 138.506C439.115 138.634 439.07 138.551 438.903 138.257C438.737 137.964 438.653 137.799 438.652 137.763C438.651 137.726 438.895 137.826 439.382 138.063C439.869 138.299 440.336 138.515 440.783 138.709C441.231 138.901 441.756 139.183 442.359 139.556C442.961 139.927 443.446 140.243 443.813 140.504C444.179 140.762 444.705 141.065 445.39 141.413C446.074 141.76 446.677 142.111 447.2 142.467C447.721 142.822 448.133 143.154 448.436 143.462C448.738 143.77 449.163 144.132 449.713 144.551C450.261 144.968 450.765 145.295 451.226 145.53C451.685 145.764 452.146 146.069 452.608 146.445C453.069 146.821 453.462 147.147 453.787 147.423C454.111 147.697 454.448 147.942 454.797 148.159C455.147 148.374 455.406 148.536 455.575 148.645C455.743 148.755 455.788 148.824 455.708 148.852C455.628 148.879 455.59 148.889 455.594 148.881C455.598 148.872 455.598 148.874 455.593 148.885C455.588 148.897 455.507 148.885 455.35 148.85C455.194 148.815 454.988 148.764 454.735 148.697C454.482 148.63 454.257 148.569 454.06 148.516C453.863 148.461 453.672 148.394 453.487 148.315C453.301 148.235 452.973 148.2 452.502 148.21C452.031 148.219 451.666 148.233 451.409 148.253C451.15 148.272 450.877 148.342 450.591 148.463C450.304 148.584 450.101 148.685 449.98 148.768C449.86 148.851 449.753 148.935 449.659 149.021C449.565 149.107 449.265 149.328 448.761 149.685C448.258 150.041 447.88 150.301 447.626 150.463C447.372 150.626 447.177 150.772 447.042 150.902C446.908 151.03 446.75 151.208 446.568 151.435C446.385 151.663 446.248 151.831 446.156 151.937C446.065 152.042 445.78 152.28 445.303 152.652C444.825 153.022 444.431 153.352 444.122 153.641C443.813 153.928 443.598 154.132 443.478 154.253C443.359 154.373 443.087 154.544 442.664 154.767C442.24 154.988 441.846 155.089 441.484 155.071C441.11 155.083 440.796 155.115 440.541 155.166C440.286 155.215 440.084 155.252 439.934 155.275C439.783 155.297 439.524 155.269 439.157 155.188C438.79 155.106 438.499 155.004 438.283 154.882C438.068 154.76 437.913 154.673 437.818 154.622C437.723 154.571 437.589 154.503 437.415 154.417C437.242 154.331 437.11 154.266 437.021 154.223C436.93 154.179 436.847 154.128 436.771 154.07C436.695 154.012 436.441 153.875 436.008 153.659C435.576 153.444 435.2 153.264 434.878 153.119C434.558 152.973 434.075 152.826 433.429 152.678C432.782 152.531 432.284 152.438 431.933 152.398C431.582 152.359 431.331 152.326 431.18 152.298C431.029 152.271 430.733 152.253 430.294 152.245C429.855 152.239 429.328 152.328 428.716 152.513C428.104 152.697 427.627 152.855 427.285 152.988C426.944 153.122 426.553 153.361 426.112 153.706C425.671 154.051 425.254 154.397 424.86 154.744C424.466 155.092 424.183 155.342 424.011 155.493C423.839 155.645 423.644 155.841 423.424 156.082C423.204 156.323 422.918 156.67 422.567 157.122C422.216 157.574 421.948 157.932 421.763 158.195C421.577 158.457 421.449 158.655 421.379 158.786C421.309 158.918 421.26 159.013 421.23 159.071C421.201 159.13 421.134 159.258 421.028 159.455C420.921 159.651 420.843 159.793 420.796 159.88C420.748 159.967 420.692 160.056 420.628 160.149C420.563 160.24 420.482 160.366 420.382 160.524C420.282 160.681 420.15 160.858 419.987 161.057C419.825 161.255 419.581 161.468 419.256 161.697C418.931 161.926 418.68 162.086 418.504 162.174C418.329 162.262 418.035 162.405 417.623 162.603C417.211 162.801 416.615 162.952 415.835 163.056C415.054 163.159 414.381 163.227 413.815 163.258C413.25 163.288 412.605 163.234 411.879 163.095C411.154 162.957 410.565 162.832 410.113 162.72C409.661 162.607 409.218 162.429 408.785 162.189C408.352 161.949 407.842 161.691 407.254 161.415C406.666 161.139 406.181 160.934 405.798 160.8C405.414 160.664 405.094 160.561 404.837 160.49C404.58 160.418 404.254 160.387 403.857 160.396C403.461 160.406 402.971 160.475 402.387 160.605C401.804 160.735 401.348 160.852 401.017 160.956C400.686 161.061 400.251 161.244 399.712 161.506C399.173 161.767 398.721 161.992 398.356 162.18C397.991 162.368 397.573 162.684 397.103 163.129C396.633 163.573 396.3 163.893 396.104 164.087C395.908 164.282 395.648 164.626 395.325 165.118C395.001 165.61 394.702 166.101 394.426 166.589C394.151 167.077 393.941 167.523 393.797 167.924C393.652 168.325 393.447 168.671 393.18 168.964C392.912 169.255 392.574 169.502 392.166 169.705C391.757 169.908 391.419 170.086 391.151 170.24C390.884 170.393 390.426 170.591 389.778 170.835C389.13 171.078 388.448 171.258 387.732 171.376C387.016 171.493 386.392 171.572 385.86 171.611C385.328 171.649 384.767 171.667 384.176 171.666C383.585 171.665 382.906 171.697 382.138 171.763C381.372 171.827 380.786 171.872 380.383 171.897C379.98 171.921 379.529 172.031 379.028 172.227C378.528 172.422 378.061 172.613 377.626 172.798C377.191 172.983 376.857 173.139 376.623 173.267C376.391 173.396 376.223 173.495 376.12 173.565C376.017 173.636 375.921 173.696 375.834 173.745C375.746 173.794 375.596 173.868 375.383 173.966C375.169 174.065 375.049 174.112 375.024 174.105C374.999 174.098 375.09 173.845 375.297 173.345C375.503 172.845 375.682 172.422 375.832 172.077C375.984 171.732 376.111 171.436 376.212 171.191C376.313 170.944 376.387 170.752 376.432 170.616C376.477 170.48 376.526 170.268 376.58 169.98C376.632 169.691 376.679 169.312 376.72 168.841C376.761 168.37 376.879 167.864 377.074 167.324C377.271 166.783 377.496 166.255 377.749 165.741C378.002 165.226 378.199 164.792 378.338 164.438C378.477 164.084 378.629 163.667 378.793 163.186C378.958 162.705 379.107 162.297 379.24 161.959C379.372 161.622 379.486 161.345 379.58 161.128C379.673 160.909 379.731 160.757 379.754 160.67C379.776 160.583 379.794 160.517 379.806 160.471C379.818 160.425 379.911 160.21 380.085 159.826C380.259 159.443 380.451 159.103 380.66 158.806C380.869 158.511 381.102 158.318 381.359 158.226C381.617 158.134 381.766 158.078 381.807 158.055" stroke="#FCFBF2" stroke-width="4" stroke-linecap="round" stroke-linejoin="round"/>
<path d="M386.838 175.048C386.822 175.094 386.82 175.096 386.832 175.055C386.843 175.015 386.846 175.015 386.84 175.055C386.835 175.094 386.842 175.063 386.864 174.96C386.885 174.858 386.906 174.756 386.927 174.655C386.947 174.553 386.965 174.474 386.979 174.416C386.995 174.359 386.997 174.323 386.985 174.309C386.973 174.296 386.849 174.489 386.613 174.888C386.376 175.287 386.044 175.778 385.616 176.361C385.189 176.944 384.812 177.425 384.486 177.804C384.161 178.184 383.944 178.435 383.836 178.556C383.736 178.677 383.636 178.828 383.535 179.01C383.434 179.19 383.351 179.347 383.285 179.483C383.228 179.618 383.221 179.737 383.264 179.838C383.316 179.942 383.291 180.083 383.188 180.263C383.085 180.442 383.018 180.595 382.988 180.722C382.958 180.848 382.928 181.002 382.899 181.184C382.869 181.365 382.839 181.556 382.808 181.756C382.777 181.956 382.78 182.29 382.817 182.757C382.853 183.224 382.867 183.645 382.859 184.019C382.852 184.393 382.955 185.589 383.17 187.605C383.383 189.623 383.888 192.265 384.684 195.531C385.479 198.804 386.111 201.289 386.578 202.985C387.046 204.68 387.451 206.055 387.795 207.11C388.137 208.164 388.485 209.145 388.838 210.052C389.191 210.959 389.532 211.88 389.858 212.817C390.186 213.753 390.513 214.706 390.839 215.678C391.165 216.65 391.426 217.409 391.621 217.954C391.818 218.5 392.137 219.313 392.577 220.393C393.019 221.474 393.383 222.358 393.67 223.044C393.957 223.73 394.235 224.491 394.502 225.325C394.771 226.16 395.006 226.883 395.208 227.495C395.411 228.108 395.595 228.644 395.76 229.102C395.924 229.56 396.072 230.053 396.202 230.58C396.333 231.108 396.763 232.431 397.494 234.549C398.224 236.667 399.023 238.741 399.892 240.774C400.761 242.807 401.41 244.232 401.837 245.051C402.265 245.87 402.488 246.257 402.507 246.213C402.524 246.167 402.504 245.964 402.446 245.604C402.387 245.245 402.336 244.996 402.291 244.86" stroke="#FCFBF2" stroke-width="4" stroke-linecap="round" stroke-linejoin="round"/>
<path d="M446.72 153.496C446.554 153.501 446.477 153.506 446.486 153.511C446.496 153.516 446.493 153.52 446.478 153.524C446.461 153.53 446.442 153.528 446.422 153.517C446.401 153.506 446.379 153.511 446.358 153.531C446.335 153.552 446.326 153.623 446.329 153.745C446.333 153.867 446.343 153.934 446.359 153.942C446.376 153.95 446.378 153.947 446.367 153.934C446.356 153.921 446.343 153.939 446.329 153.989C446.315 154.038 446.62 154.242 447.242 154.599C447.865 154.955 448.704 155.36 449.758 155.812C450.813 156.265 451.514 156.592 451.861 156.795C452.207 156.997 452.748 157.368 453.484 157.908C454.219 158.446 454.823 158.903 455.295 159.278C455.767 159.653 456.161 159.998 456.477 160.312C456.792 160.627 457.149 161.075 457.547 161.657C457.946 162.239 458.496 163.396 459.197 165.129C459.9 166.86 460.514 168.522 461.039 170.115C461.565 171.707 461.957 173.02 462.212 174.056C462.469 175.09 462.675 175.856 462.828 176.354C462.981 176.851 463.494 178.575 464.366 181.526C465.238 184.478 465.918 186.706 466.405 188.208C466.892 189.711 467.266 190.822 467.529 191.542C467.791 192.261 467.984 192.771 468.108 193.071C468.234 193.371 468.384 193.796 468.558 194.346C468.733 194.895 468.997 195.738 469.352 196.874C469.707 198.01 470.105 199.249 470.545 200.59C470.987 201.931 471.333 202.981 471.583 203.739C471.832 204.499 472.037 205.166 472.199 205.74C472.36 206.314 472.502 206.967 472.623 207.698C472.746 208.428 472.906 209.066 473.104 209.611C473.301 210.157 473.573 210.978 473.919 212.075C474.267 213.172 474.525 214.004 474.694 214.568C474.865 215.132 474.944 215.397 474.934 215.362C474.923 215.326 474.907 215.291 474.887 215.258C474.867 215.226 474.841 215.189 474.81 215.147" stroke="#FCFBF2" stroke-width="4" stroke-linecap="round" stroke-linejoin="round"/>
<path d="M474.078 214.211C474.075 214.225 474.079 214.234 474.089 214.239C474.097 214.245 474.146 214.288 474.233 214.369C474.321 214.45 474.376 214.499 474.398 214.515C474.419 214.532 474.433 214.542 474.44 214.546C474.448 214.55 474.447 214.558 474.436 214.569C474.426 214.579 474.417 214.56 474.407 214.514C474.397 214.466 474.537 214.568 474.827 214.821C475.117 215.074 475.319 215.323 475.433 215.565C475.548 215.808 475.62 215.984 475.652 216.093C475.683 216.202 475.709 216.319 475.73 216.444C475.751 216.568 475.761 216.632 475.76 216.634C475.76 216.636 475.765 216.654 475.777 216.688C475.789 216.721 475.807 216.791 475.831 216.898C475.855 217.006 475.878 217.113 475.9 217.22C475.921 217.328 475.948 217.436 475.98 217.545C476.012 217.654 476.032 217.724 476.04 217.757C476.048 217.79 476.05 217.804 476.047 217.799C476.043 217.794 476.048 217.801 476.06 217.822C476.072 217.842 476.091 217.969 476.117 218.203C476.142 218.438 476.171 218.713 476.202 219.029C476.233 219.346 476.26 219.592 476.283 219.767C476.308 219.943 476.317 220.06 476.31 220.119C476.304 220.176 476.301 220.241 476.301 220.313C476.301 220.386 476.309 220.476 476.326 220.583C476.342 220.692 476.35 220.799 476.349 220.904C476.349 221.009 476.36 221.139 476.381 221.293C476.403 221.448 476.414 221.544 476.415 221.581C476.416 221.62 476.412 221.662 476.405 221.708C476.397 221.755 476.394 221.772 476.396 221.761C476.397 221.748 476.395 221.733 476.39 221.715C476.384 221.698 476.39 221.856 476.408 222.191C476.425 222.526 476.364 222.96 476.225 223.494C476.087 224.027 475.947 224.444 475.805 224.745C475.663 225.046 475.496 225.339 475.306 225.626C475.116 225.913 474.849 226.241 474.505 226.61C474.16 226.978 473.854 227.294 473.587 227.557C473.318 227.821 473.073 228.029 472.853 228.179C472.632 228.33 472.478 228.429 472.39 228.477C472.302 228.524 472.218 228.564 472.136 228.595C472.053 228.626 472.017 228.642 472.027 228.641C472.037 228.64 472.045 228.638 472.05 228.635C472.055 228.633 472.058 228.633 472.059 228.635C472.061 228.636 472.062 228.637 472.063 228.637C472.064 228.637 472.065 228.637 472.066 228.639C472.067 228.64 472.066 228.64 472.063 228.639C472.06 228.638 472.056 228.639 472.051 228.642C472.046 228.645 472.04 228.647 472.034 228.649C472.028 228.651 471.96 228.661 471.831 228.679C471.701 228.697 471.578 228.715 471.462 228.732C471.346 228.748 471.292 228.758 471.298 228.762C471.304 228.767 471.312 228.768 471.323 228.764C471.334 228.761 471.335 228.76 471.326 228.761C471.317 228.763 471.285 228.769 471.23 228.781C471.173 228.793 471.115 228.807 471.055 228.819C470.995 228.832 470.947 228.837 470.909 228.834" stroke="#FCFBF2" stroke-width="4" stroke-linecap="round" stroke-linejoin="round"/>
<path d="M471.646 229.109C471.655 229.103 471.649 229.103 471.627 229.109C471.603 229.115 471.662 229.122 471.802 229.131C471.942 229.138 472.07 229.126 472.186 229.095C472.3 229.062 472.395 229.039 472.47 229.024C472.546 229.009 472.574 229.004 472.553 229.008C472.533 229.012 472.525 229.013 472.529 229.012C472.532 229.012 472.537 229.013 472.543 229.018C472.548 229.025 472.539 229.018 472.515 228.997C472.493 228.976 472.339 229.002 472.053 229.075C471.766 229.147 471.508 229.246 471.281 229.371C471.053 229.496 470.825 229.62 470.598 229.744C470.371 229.866 470.146 229.979 469.922 230.083C469.698 230.186 469.49 230.287 469.298 230.384C469.105 230.482 468.764 230.647 468.276 230.881C467.788 231.114 467.377 231.299 467.044 231.435C466.712 231.572 466.362 231.729 465.994 231.908C465.625 232.087 465.229 232.247 464.807 232.388C464.384 232.529 464.068 232.624 463.86 232.672C463.652 232.721 463.404 232.803 463.117 232.919C462.831 233.035 461.925 233.357 460.398 233.885C458.873 234.412 457.696 234.809 456.868 235.075C456.04 235.341 455.414 235.551 454.988 235.703C454.563 235.854 453.919 236.082 453.055 236.39C452.191 236.698 451.264 237.036 450.275 237.404C449.286 237.772 448.556 238.014 448.083 238.13C447.61 238.247 447.221 238.387 446.915 238.549C446.61 238.713 446.132 238.917 445.481 239.161C444.829 239.403 444.322 239.598 443.96 239.744C443.597 239.891 443.116 240.099 442.515 240.367C441.915 240.634 441.422 240.851 441.035 241.019C440.649 241.187 440.336 241.314 440.096 241.401C439.856 241.488 439.686 241.545 439.586 241.573C439.486 241.601 439.081 241.709 438.372 241.895C437.662 242.081 436.831 242.321 435.88 242.614C434.913 242.861 434.076 243.112 433.366 243.366C432.643 243.575 432.064 243.746 431.63 243.879C431.196 244.012 430.918 244.106 430.797 244.163C430.675 244.219 430.271 244.369 429.584 244.611C428.896 244.852 428.231 245.075 427.59 245.279C426.949 245.484 426.388 245.669 425.908 245.837C425.426 246.006 425.013 246.147 424.669 246.261C424.323 246.376 423.994 246.496 423.681 246.621C423.367 246.745 422.999 246.861 422.574 246.97C422.149 247.079 421.788 247.193 421.492 247.31C421.195 247.426 420.786 247.589 420.264 247.799C419.743 248.008 419.23 248.147 418.726 248.216C418.222 248.286 417.804 248.37 417.473 248.467C417.142 248.563 416.802 248.655 416.452 248.742C416.104 248.827 415.788 248.91 415.505 248.99C415.222 249.07 414.758 249.228 414.113 249.464C413.468 249.7 412.904 249.933 412.422 250.161C411.94 250.39 411.577 250.557 411.333 250.662C411.089 250.766 410.94 250.824 410.888 250.837C410.835 250.85 410.697 250.926 410.473 251.062C410.249 251.198 409.995 251.316 409.713 251.418C409.432 251.521 409.243 251.595 409.145 251.64C409.048 251.684 408.934 251.722 408.802 251.755C408.672 251.788 408.542 251.81 408.413 251.821C408.282 251.831 408.185 251.846 408.121 251.868C408.057 251.888 408.004 251.897 407.962 251.894C407.92 251.891 407.868 251.892 407.806 251.898C407.744 251.9 407.688 251.898 407.636 251.891C407.586 251.879 407.553 251.869 407.537 251.859" stroke="#FCFBF2" stroke-width="4" stroke-linecap="round" stroke-linejoin="round"/>
<path d="M410.904 249.83C410.938 250.137 410.949 250.268 410.937 250.224C410.926 250.18 410.922 250.186 410.927 250.244C410.931 250.301 410.881 250.38 410.777 250.481C410.672 250.582 410.583 250.644 410.511 250.668C410.439 250.692 410.401 250.7 410.396 250.69C410.391 250.68 410.318 250.691 410.176 250.722C410.033 250.752 409.716 250.757 409.226 250.738C408.735 250.718 408.22 250.627 407.681 250.464C407.143 250.302 406.737 250.183 406.463 250.109C406.189 250.034 405.824 249.914 405.37 249.75C404.915 249.585 404.517 249.423 404.176 249.263C403.836 249.104 403.552 248.932 403.324 248.748C403.095 248.563 402.941 248.404 402.861 248.271C402.781 248.139 402.733 248.049 402.717 247.999C402.7 247.95 402.69 247.92 402.685 247.908C402.68 247.897 402.652 247.837 402.6 247.73C402.547 247.622 402.533 247.569 402.558 247.568C402.582 247.567 402.517 247.379 402.364 247.005C402.209 246.631 402.071 246.339 401.951 246.132C401.83 245.924 401.742 245.782 401.688 245.706C401.633 245.63 401.596 245.578 401.576 245.548C401.555 245.518 401.549 245.51 401.558 245.523C401.568 245.537 401.541 245.51 401.476 245.444C401.417 245.37 401.35 245.306 401.276 245.25" stroke="#FCFBF2" stroke-width="4" stroke-linecap="round" stroke-linejoin="round"/>
<path d="M438.682 161.24C438.747 161.244 438.717 161.144 438.593 160.939C438.468 160.735 438.417 160.673 438.439 160.752C438.463 160.832 438.473 160.868 438.472 160.86C438.469 160.853 438.472 160.853 438.482 160.862C438.491 160.871 438.491 160.885 438.482 160.905C438.473 160.926 438.517 161.035 438.613 161.232C438.708 161.428 438.809 161.586 438.915 161.707C439.021 161.828 439.119 161.926 439.208 162.002C439.298 162.078 439.374 162.139 439.436 162.183C439.498 162.229 439.558 162.274 439.614 162.316C439.671 162.357 439.828 162.444 440.087 162.575C440.347 162.707 440.595 162.813 440.831 162.893C441.067 162.973 441.299 163.043 441.527 163.104C441.756 163.167 441.925 163.211 442.035 163.237C442.145 163.261 442.374 163.303 442.721 163.364C443.068 163.424 443.574 163.624 444.237 163.963C444.901 164.303 445.499 164.657 446.031 165.027C446.562 165.396 446.984 165.673 447.296 165.858C447.609 166.044 447.964 166.535 448.363 167.332C448.762 168.129 449.044 168.725 449.208 169.119C449.373 169.513 449.504 169.825 449.599 170.055C449.694 170.285 449.811 170.577 449.951 170.931C450.091 171.284 450.327 171.979 450.66 173.013C450.992 174.048 451.314 174.964 451.628 175.764C451.941 176.562 452.188 177.155 452.368 177.543C452.548 177.932 452.694 178.242 452.807 178.472C452.921 178.702 453.064 179.019 453.236 179.424C453.408 179.829 453.546 180.166 453.65 180.434C453.755 180.702 454.001 181.28 454.387 182.168C454.774 183.057 455.076 183.905 455.295 184.712C455.514 185.517 455.623 185.921 455.622 185.925C455.621 185.929 455.62 185.93 455.618 185.928C455.617 185.927 455.618 185.926 455.62 185.925C455.623 185.924 455.647 185.91 455.691 185.884C455.734 185.859 455.798 185.823 455.882 185.778" stroke="#FCFBF2" stroke-width="4" stroke-linecap="round" stroke-linejoin="round"/>
<path d="M457.998 191.414C458.008 191.402 457.981 191.351 457.916 191.264C458.424 190.935 458.563 190.803 458.335 190.866C458.084 190.878 457.98 190.9 458.022 190.933C458.064 190.968 458.08 190.985 458.069 190.982C458.058 190.978 458.058 190.983 458.071 190.997C458.083 191.012 458.08 191.008 458.062 190.984C458.042 190.961 458.163 191.363 458.424 192.192C458.684 193.022 458.975 193.806 459.298 194.542C459.621 195.28 459.705 195.634 459.549 195.605C459.394 195.579 459.344 195.568 459.399 195.57C459.454 195.574 459.465 195.568 459.432 195.553C459.398 195.538 459.39 195.514 459.407 195.482C459.425 195.45 459.292 195.35 459.008 195.182C458.853 194.993 458.754 194.857 458.711 194.773C458.669 194.689 458.635 194.624 458.611 194.577C458.587 194.531 458.556 194.46 458.517 194.365C458.479 194.272 458.426 194.163 458.357 194.04C458.288 193.917 458.222 193.798 458.161 193.686C458.099 193.574 458.062 193.507 458.05 193.483C458.039 193.46 458.033 193.446 458.033 193.442C458.032 193.438 458.032 193.431 458.033 193.419C458.034 193.407 458.032 193.392 458.027 193.375C458.023 193.359 458.021 193.351 458.021 193.351C458.02 193.351 458.018 193.349 458.015 193.344C458.012 193.339 458.006 193.329 457.998 193.312C457.989 193.296 457.962 193.237 457.916 193.136C457.87 193.036 457.841 192.972 457.827 192.942C457.812 192.913 457.808 192.903 457.812 192.913C457.816 192.924 457.818 192.927 457.818 192.923C457.817 192.919 457.817 192.927 457.818 192.945C457.818 192.964 457.824 192.914 457.834 192.796C457.845 192.679 457.854 192.608 457.862 192.584" stroke="#FCFBF2" stroke-width="4" stroke-linecap="round" stroke-linejoin="round"/>
<path d="M188.737 185.398C188.722 185.464 188.717 185.499 188.721 185.5C188.725 185.501 188.778 185.528 188.88 185.582C188.982 185.637 189.047 185.651 189.076 185.624C189.103 185.595 189.116 185.579 189.115 185.579C189.114 185.579 189.113 185.583 189.111 185.59C189.108 185.598 189.141 185.558 189.211 185.472C189.282 185.385 189.383 185.268 189.512 185.12C189.642 184.973 189.743 184.85 189.814 184.752C189.885 184.654 189.962 184.559 190.045 184.467C190.128 184.375 190.222 184.242 190.325 184.068C190.428 183.893 190.701 183.456 191.145 182.756C191.589 182.056 191.961 181.397 192.261 180.779C192.563 180.16 192.785 179.669 192.927 179.308C193.069 178.945 193.233 178.619 193.419 178.33C193.606 178.04 193.75 177.749 193.854 177.456C193.818 177.249 193.744 177.041 193.633 176.832C193.521 176.624 193.444 176.405 193.401 176.175C193.358 175.946 193.08 175.625 192.565 175.212C192.05 174.8 191.591 174.45 191.187 174.162C190.785 173.874 190.284 173.513 189.687 173.076C189.088 172.636 187.735 171.687 185.63 170.229C183.521 168.763 181.927 167.653 180.849 166.896C179.769 166.138 178.736 165.471 177.749 164.897C176.763 164.323 175.816 163.782 174.91 163.273C174.002 162.764 173.323 162.369 172.874 162.09C172.425 161.811 171.913 161.5 171.337 161.156C170.761 160.812 169.894 160.32 168.735 159.681C167.576 159.043 166.625 158.52 165.88 158.113C165.136 157.705 164.439 157.321 163.789 156.962C163.139 156.603 162.435 156.202 161.677 155.761C160.919 155.319 160.201 154.93 159.523 154.593C158.845 154.256 158.257 154.023 157.758 153.894C157.258 153.763 156.648 153.562 155.928 153.291C155.208 153.02 154.425 152.545 153.579 151.864C152.703 151.239 151.755 150.573 150.737 149.87C149.719 149.168 148.947 148.649 148.422 148.312C147.897 147.977 147.478 147.713 147.167 147.52C146.856 147.326 146.371 147.026 145.712 146.622C145.052 146.216 143.936 145.543 142.364 144.602C140.793 143.662 139.544 142.886 138.617 142.276C137.689 141.665 137.008 141.232 136.573 140.977C136.139 140.724 135.788 140.533 135.521 140.405C135.255 140.277 135.053 140.184 134.917 140.126C134.782 140.068 134.663 140.015 134.561 139.969C134.459 139.923 134.377 139.886 134.314 139.86C134.253 139.833 134.189 139.807 134.123 139.781C134.057 139.755 133.994 139.732 133.935 139.711C133.875 139.691 133.774 139.661 133.634 139.622C133.494 139.584 133.379 139.564 133.288 139.562C133.198 139.56 133.105 139.55 133.011 139.53C132.917 139.512 132.879 139.505 132.899 139.511C132.917 139.518 132.908 139.516 132.871 139.507C132.833 139.496 132.797 139.488 132.763 139.484C132.728 139.482 132.68 139.478 132.618 139.473C132.556 139.468 132.503 139.467 132.459 139.469C132.416 139.47 132.359 139.463 132.29 139.449C132.22 139.436 132.15 139.419 132.079 139.401C132.007 139.382 131.987 139.373 132.02 139.373C132.053 139.373 131.83 139.376 131.352 139.379C130.873 139.383 130.353 139.458 129.79 139.604C129.228 139.751 128.79 139.884 128.475 140.004C128.161 140.123 127.828 140.243 127.477 140.363C127.127 140.481 126.827 140.615 126.577 140.764C126.327 140.913 126.137 141.053 126.008 141.182C125.878 141.313 125.793 141.43 125.751 141.536C125.709 141.642 125.655 141.74 125.589 141.828C125.522 141.918 125.402 142.149 125.231 142.522C125.059 142.893 124.941 143.187 124.877 143.404C124.811 143.618 124.752 143.947 124.697 144.392C124.643 144.837 124.571 145.173 124.483 145.398C124.393 145.623 124.292 145.896 124.179 146.217C124.067 146.538 123.974 146.787 123.9 146.961C123.827 147.135 123.779 147.259 123.754 147.333C123.729 147.407 123.709 147.468 123.693 147.515C123.677 147.563 123.672 147.606 123.675 147.645C123.679 147.685 123.681 147.716 123.681 147.736C123.681 147.756 123.694 147.825 123.721 147.942C123.746 148.06 123.782 148.161 123.829 148.244C123.874 148.327 123.914 148.39 123.947 148.434C123.98 148.479 124.005 148.514 124.021 148.54C124.037 148.566 124.049 148.583 124.058 148.589C124.067 148.594 124.354 148.847 124.92 149.35C125.486 149.853 125.956 150.285 126.332 150.644C126.707 151.004 127.009 151.268 127.238 151.435C127.466 151.603 127.952 151.946 128.696 152.464C129.439 152.981 130.106 153.427 130.698 153.8C131.29 154.174 131.943 154.581 132.656 155.02C133.369 155.458 134.102 155.975 134.856 156.57C135.61 157.165 136.299 157.657 136.924 158.045C137.548 158.433 138.03 158.744 138.37 158.977C138.708 159.21 139.457 159.774 140.616 160.669C141.774 161.565 142.714 162.263 143.437 162.767C144.161 163.27 144.701 163.631 145.057 163.85C145.413 164.071 145.724 164.266 145.989 164.438C146.255 164.61 146.651 164.858 147.179 165.183C147.706 165.508 148.464 165.974 149.454 166.579C150.443 167.185 151.223 167.658 151.793 168.002C152.363 168.345 152.848 168.628 153.248 168.853C153.649 169.077 154.645 169.624 156.237 170.495C157.83 171.365 159.073 172.037 159.967 172.511C160.862 172.986 161.648 173.469 162.325 173.959C163.002 174.45 163.717 174.925 164.472 175.384C165.227 175.841 165.876 176.245 166.419 176.598C166.961 176.951 167.717 177.424 168.688 178.015C169.659 178.605 170.424 179.062 170.982 179.386C171.541 179.709 172.086 179.977 172.618 180.188C173.15 180.401 173.566 180.58 173.869 180.726C174.173 180.872 174.439 180.972 174.667 181.028C174.896 181.083 175.31 181.263 175.909 181.568C176.508 181.872 177.258 182.287 178.16 182.814C179.062 183.341 179.759 183.728 180.249 183.976C180.741 184.222 181.223 184.5 181.697 184.809C182.171 185.117 182.519 185.343 182.74 185.487C182.91 185.658 183.085 185.773 183.267 185.832C183.431 185.899 183.812 186.092 184.41 186.411C184.991 186.739 185.405 187.019 185.652 187.251C185.898 187.479 186.089 187.626 186.224 187.69C186.361 187.753 186.532 187.797 186.736 187.82C186.942 187.844 187.062 187.861 187.097 187.871C187.132 187.88 187.192 187.879 187.278 187.865C187.363 187.852 187.413 187.848 187.428 187.851C187.443 187.854 187.478 187.857 187.533 187.862C187.589 187.867 187.615 187.871 187.613 187.873C187.61 187.874 187.611 187.872 187.615 187.868C187.618 187.865 187.617 187.868 187.612 187.876C187.607 187.884 187.656 187.888 187.758 187.889C187.86 187.891 187.909 187.886 187.904 187.876C187.899 187.865 187.89 187.865 187.876 187.876C187.862 187.885 187.914 187.861 188.032 187.804C188.15 187.746 188.244 187.683 188.315 187.615C188.386 187.549 188.435 187.495 188.461 187.454C188.488 187.414 188.508 187.385 188.521 187.369C188.535 187.356 188.548 187.346 188.562 187.34C188.576 187.335 188.641 187.257 188.759 187.106C188.877 186.954 188.987 186.808 189.09 186.669C189.194 186.53 189.289 186.407 189.375 186.301C189.46 186.193 189.54 186.039 189.613 185.836C189.686 185.634 189.78 185.371 189.897 185.046C190.015 184.722 190.084 184.47 190.103 184.29C190.122 184.109 190.134 184.006 190.137 183.983" stroke="#FCFBF2" stroke-width="4" stroke-linecap="round" stroke-linejoin="round"/>
<path d="M182.234 187.258C182.181 187.412 182.219 187.315 182.348 186.966C182.478 186.616 182.559 186.428 182.589 186.401C182.619 186.375 182.707 186.653 182.852 187.235C182.996 187.816 183.146 188.365 183.301 188.883C183.457 189.399 183.592 190.044 183.708 190.82C183.823 191.595 183.901 192.231 183.942 192.727C183.982 193.222 184.099 193.884 184.295 194.711C184.489 195.538 184.623 196.299 184.696 196.996C184.768 197.69 184.781 198.275 184.734 198.751C184.687 199.225 184.684 199.844 184.723 200.608C184.762 201.369 184.848 202.029 184.979 202.588C185.111 203.144 185.181 203.751 185.191 204.41C185.2 205.069 185.203 205.635 185.2 206.105C185.198 206.574 185.231 207.034 185.3 207.486C185.37 207.935 185.419 208.27 185.446 208.492C185.474 208.713 185.447 208.8 185.367 208.754C185.289 208.705 185.254 208.679 185.262 208.676C185.272 208.673 185.271 208.675 185.258 208.679C185.244 208.683 185.197 208.606 185.116 208.448C185.035 208.289 184.932 208.078 184.809 207.816C184.685 207.554 184.576 207.32 184.482 207.114C184.388 206.909 184.31 206.7 184.247 206.487C184.183 206.274 183.981 205.971 183.64 205.578C183.297 205.184 183.026 204.884 182.827 204.678C182.626 204.472 182.373 204.291 182.068 204.133C181.762 203.976 181.532 203.876 181.376 203.833C181.221 203.789 181.074 203.758 180.934 203.739C180.794 203.72 180.395 203.623 179.736 203.449C179.077 203.273 178.589 203.135 178.271 203.036C177.953 202.937 177.692 202.875 177.487 202.852C177.282 202.829 177.018 202.821 176.696 202.828C176.374 202.835 176.135 202.838 175.979 202.835C175.825 202.833 175.422 202.759 174.771 202.616C174.121 202.473 173.563 202.373 173.097 202.317C172.631 202.26 172.298 202.225 172.099 202.213C171.9 202.201 171.553 202.096 171.055 201.899C170.558 201.699 170.18 201.442 169.92 201.13C169.629 200.827 169.371 200.585 169.147 200.404C168.923 200.224 168.748 200.078 168.623 199.967C168.496 199.855 168.337 199.615 168.146 199.246C167.954 198.877 167.833 198.556 167.784 198.286C167.734 198.016 167.697 197.823 167.673 197.706C167.649 197.59 167.612 197.428 167.56 197.219C167.51 197.011 167.471 196.854 167.445 196.747C167.418 196.64 167.402 196.533 167.397 196.426C167.392 196.321 167.327 196.008 167.201 195.488C167.077 194.967 166.962 194.519 166.857 194.144C166.753 193.768 166.534 193.255 166.2 192.602C165.866 191.948 165.592 191.459 165.376 191.132C165.16 190.807 165.009 190.57 164.925 190.422C164.841 190.275 164.646 190.012 164.339 189.634C164.034 189.256 163.585 188.873 162.994 188.484C162.403 188.095 161.931 187.802 161.575 187.606C161.22 187.411 160.741 187.25 160.137 187.121C159.531 186.991 158.942 186.882 158.368 186.795C157.795 186.708 157.383 186.645 157.133 186.606C156.883 186.567 156.578 186.54 156.218 186.524C155.859 186.509 155.363 186.514 154.731 186.538C154.1 186.56 153.607 186.585 153.253 186.615C152.899 186.644 152.642 186.676 152.481 186.71C152.319 186.743 152.203 186.768 152.133 186.786C152.064 186.803 151.909 186.835 151.666 186.884C151.424 186.934 151.249 186.969 151.142 186.99C151.034 187.011 150.919 187.027 150.795 187.037C150.672 187.049 150.508 187.069 150.305 187.096C150.1 187.122 149.857 187.137 149.574 187.139C149.29 187.142 148.935 187.087 148.511 186.973C148.087 186.86 147.775 186.76 147.576 186.673C147.376 186.587 147.047 186.441 146.588 186.232C146.128 186.022 145.576 185.622 144.934 185.032C144.293 184.444 143.758 183.921 143.33 183.462C142.902 183.004 142.49 182.418 142.093 181.705C141.695 180.991 141.383 180.402 141.157 179.938C140.931 179.473 140.765 178.972 140.661 178.435C140.557 177.897 140.413 177.28 140.229 176.585C140.045 175.891 139.874 175.333 139.716 174.911C139.557 174.49 139.417 174.145 139.295 173.876C139.174 173.606 138.968 173.308 138.679 172.978C138.389 172.649 137.983 172.282 137.459 171.88C136.936 171.476 136.513 171.17 136.19 170.964C135.867 170.757 135.403 170.519 134.799 170.248C134.194 169.976 133.682 169.752 133.264 169.575C132.845 169.399 132.282 169.268 131.572 169.185C130.863 169.102 130.357 169.046 130.053 169.018C129.75 168.99 129.275 169.013 128.629 169.088C127.983 169.163 127.356 169.257 126.748 169.369C126.139 169.482 125.613 169.62 125.171 169.783C124.73 169.946 124.291 170.017 123.854 169.998C123.418 169.978 122.969 169.867 122.508 169.664C122.046 169.461 121.655 169.3 121.336 169.183C121.016 169.064 120.523 168.816 119.858 168.439C119.192 168.062 118.555 167.61 117.948 167.085C117.34 166.56 116.83 166.086 116.42 165.662C116.01 165.239 115.596 164.776 115.178 164.273C114.758 163.771 114.249 163.217 113.65 162.611C113.05 162.006 112.597 161.542 112.29 161.217C111.981 160.892 111.567 160.587 111.048 160.301C110.528 160.015 110.036 159.754 109.571 159.516C109.105 159.278 108.735 159.106 108.46 159C108.187 158.893 107.984 158.821 107.852 158.784C107.719 158.746 107.601 158.707 107.497 158.668C107.393 158.628 107.223 158.552 106.988 158.441C106.752 158.331 106.629 158.263 106.617 158.235C106.604 158.209 106.883 158.106 107.453 157.927C108.022 157.749 108.506 157.6 108.905 157.484C109.304 157.367 109.644 157.264 109.925 157.175C110.206 157.085 110.419 157.012 110.566 156.954C110.713 156.897 110.927 156.788 111.208 156.628C111.49 156.467 111.845 156.237 112.272 155.938C112.699 155.637 113.211 155.379 113.807 155.163C114.403 154.946 115.008 154.762 115.623 154.612C116.239 154.461 116.746 154.319 117.144 154.186C117.541 154.053 118.002 153.885 118.524 153.683C119.048 153.481 119.499 153.317 119.878 153.19C120.259 153.064 120.574 152.964 120.824 152.889C121.075 152.814 121.245 152.755 121.333 152.712C121.423 152.669 121.491 152.636 121.539 152.614C121.587 152.593 121.835 152.52 122.283 152.395C122.732 152.27 123.155 152.191 123.553 152.158C123.951 152.126 124.28 152.186 124.541 152.339C124.801 152.493 124.955 152.58 125.004 152.598" stroke="#FCFBF2" stroke-width="4" stroke-linecap="round" stroke-linejoin="round"/>
<path d="M114.207 168.934C114.157 168.953 114.154 168.953 114.197 168.935C114.239 168.916 114.241 168.918 114.203 168.941C114.166 168.964 114.198 168.949 114.299 168.894C114.401 168.84 114.502 168.785 114.603 168.73C114.703 168.675 114.783 168.634 114.842 168.606C114.901 168.578 114.932 168.554 114.935 168.534C114.939 168.516 114.688 168.548 114.182 168.631C113.677 168.714 113.026 168.78 112.23 168.829C111.433 168.88 110.759 168.902 110.207 168.896C109.654 168.889 109.289 168.882 109.111 168.876C108.937 168.877 108.737 168.899 108.513 168.941C108.288 168.984 108.095 169.025 107.935 169.066C107.779 169.115 107.671 169.188 107.609 169.287C107.553 169.395 107.412 169.47 107.188 169.511C106.963 169.551 106.786 169.603 106.656 169.667C106.527 169.731 106.376 169.815 106.202 169.919C106.029 170.022 105.847 170.132 105.655 170.249C105.464 170.365 105.183 170.605 104.815 170.968C104.446 171.33 104.1 171.64 103.777 171.897C103.455 172.157 102.519 173.094 100.969 174.71C99.4164 176.328 97.5431 178.637 95.3491 181.638C93.1504 184.641 91.5008 186.944 90.4004 188.546C89.2991 190.148 88.4244 191.47 87.7765 192.51C87.1285 193.549 86.5467 194.54 86.0311 195.484C85.5154 196.428 84.9779 197.371 84.4185 198.313C83.8591 199.256 83.2841 200.21 82.6935 201.176C82.1039 202.143 81.6481 202.904 81.3261 203.458C81.004 204.011 80.5429 204.86 79.9426 206.002C79.3413 207.145 78.8525 208.081 78.476 208.811C78.0994 209.541 77.6538 210.316 77.1392 211.136C76.6245 211.956 76.1799 212.669 75.8053 213.276C75.4307 213.884 75.1082 214.42 74.8377 214.885C74.5673 215.351 74.2555 215.826 73.9023 216.311C73.5491 216.796 72.7362 218.1 71.4637 220.224C70.1921 222.347 69.0051 224.499 67.9028 226.68C66.8015 228.861 66.0567 230.424 65.6685 231.368C65.2794 232.312 65.1106 232.777 65.1621 232.76C65.2127 232.743 65.3693 232.582 65.632 232.277C65.8957 231.971 66.0694 231.751 66.1531 231.616" stroke="#FCFBF2" stroke-width="4" stroke-linecap="round" stroke-linejoin="round"/>
<path d="M174.945 204.465C174.824 204.328 174.765 204.265 174.768 204.277C174.771 204.288 174.765 204.288 174.749 204.278C174.733 204.269 174.723 204.251 174.717 204.225C174.711 204.2 174.692 204.186 174.659 204.182C174.626 204.178 174.558 204.221 174.457 204.31C174.356 204.399 174.308 204.453 174.313 204.474C174.317 204.494 174.321 204.496 174.324 204.477C174.327 204.459 174.303 204.461 174.251 204.483C174.199 204.507 174.243 204.908 174.384 205.689C174.524 206.472 174.778 207.472 175.145 208.689C175.51 209.905 175.731 210.732 175.806 211.17C175.882 211.608 175.953 212.331 176.019 213.338C176.085 214.345 176.127 215.183 176.144 215.849C176.163 216.516 176.151 217.095 176.109 217.587C176.067 218.077 175.942 218.698 175.733 219.449C175.524 220.201 174.936 221.49 173.97 223.316C173.004 225.141 172.034 226.841 171.061 228.419C170.088 229.996 169.256 231.261 168.563 232.214C167.87 233.166 167.368 233.884 167.055 234.368C166.744 234.851 165.65 236.51 163.773 239.345C161.897 242.181 160.497 244.339 159.572 245.82C158.646 247.301 157.973 248.408 157.552 249.141C157.13 249.874 156.836 250.399 156.67 250.718C156.505 251.038 156.252 251.467 155.912 252.006C155.571 252.544 155.047 253.366 154.338 254.474C153.629 255.581 152.864 256.799 152.044 258.127C151.223 259.453 150.581 260.492 150.116 261.243C149.652 261.993 149.234 262.641 148.863 263.186C148.491 263.731 148.04 264.314 147.509 264.936C146.977 265.559 146.552 266.147 146.232 266.701C145.911 267.256 145.409 268.07 144.728 269.144C144.046 270.218 143.527 271.027 143.171 271.572C142.815 272.117 142.648 272.372 142.669 272.338C142.692 272.304 142.71 272.266 142.723 272.225C142.737 272.184 142.75 272.137 142.763 272.081" stroke="#FCFBF2" stroke-width="4" stroke-linecap="round" stroke-linejoin="round"/>
<path d="M143.034 270.795C143.02 270.803 143.015 270.812 143.018 270.823C143.02 270.834 143.017 270.907 143.011 271.04C143.005 271.171 143.002 271.252 143.003 271.282C143.005 271.312 143.007 271.332 143.009 271.34C143.01 271.35 143.003 271.355 142.987 271.354C142.971 271.352 142.979 271.33 143.012 271.288C143.045 271.246 143.058 271.438 143.05 271.864C143.042 272.29 142.976 272.637 142.852 272.907C142.728 273.176 142.631 273.362 142.561 273.467C142.491 273.571 142.41 273.677 142.319 273.783C142.228 273.889 142.182 273.943 142.18 273.944C142.178 273.945 142.167 273.962 142.147 273.996C142.127 274.03 142.081 274.095 142.007 274.192C141.933 274.289 141.858 274.383 141.782 274.477C141.707 274.572 141.635 274.672 141.566 274.777C141.496 274.881 141.45 274.949 141.429 274.979C141.406 275.008 141.396 275.02 141.398 275.014C141.4 275.007 141.397 275.016 141.389 275.04C141.381 275.065 141.286 275.171 141.106 275.36C140.926 275.548 140.714 275.768 140.468 276.02C140.223 276.27 140.035 276.468 139.902 276.612C139.77 276.757 139.678 276.848 139.625 276.884C139.571 276.919 139.514 276.963 139.453 277.015C139.391 277.065 139.321 277.136 139.241 277.228C139.161 277.319 139.077 277.401 138.989 277.475C138.899 277.55 138.797 277.652 138.681 277.779C138.566 277.906 138.492 277.983 138.46 278.011C138.429 278.04 138.391 278.067 138.347 278.093C138.302 278.12 138.285 278.129 138.297 278.123C138.309 278.115 138.32 278.102 138.33 278.085C138.342 278.068 138.212 278.186 137.941 278.438C137.669 278.691 137.259 278.948 136.711 279.209C136.161 279.47 135.709 279.646 135.353 279.738C134.999 279.832 134.633 279.9 134.254 279.942C133.877 279.985 133.41 279.99 132.853 279.959C132.298 279.928 131.813 279.893 131.4 279.853C130.987 279.814 130.639 279.754 130.355 279.673C130.071 279.592 129.877 279.531 129.774 279.491C129.671 279.451 129.577 279.407 129.493 279.359C129.408 279.311 129.37 279.291 129.379 279.299C129.386 279.306 129.393 279.311 129.399 279.314C129.404 279.316 129.406 279.319 129.406 279.321C129.406 279.323 129.406 279.325 129.406 279.326C129.407 279.327 129.407 279.329 129.406 279.331C129.406 279.333 129.406 279.332 129.405 279.329C129.403 279.326 129.399 279.323 129.393 279.32C129.387 279.317 129.382 279.314 129.376 279.311C129.37 279.308 129.313 279.257 129.205 279.159C129.098 279.062 128.996 278.97 128.9 278.883C128.805 278.796 128.757 278.757 128.757 278.766C128.758 278.775 128.763 278.783 128.773 278.79C128.784 278.795 128.786 278.795 128.779 278.79C128.771 278.784 128.742 278.761 128.691 278.722C128.642 278.683 128.59 278.643 128.537 278.601C128.484 278.559 128.445 278.521 128.42 278.487" stroke="#FCFBF2" stroke-width="4" stroke-linecap="round" stroke-linejoin="round"/>
<path d="M128.712 279.307C128.724 279.31 128.719 279.305 128.697 279.29C128.677 279.276 128.713 279.331 128.805 279.454C128.898 279.579 128.998 279.679 129.107 279.754C129.215 279.829 129.302 279.893 129.369 279.947C129.435 280 129.459 280.019 129.442 280.006C129.424 279.991 129.417 279.985 129.421 279.988C129.425 279.991 129.426 279.996 129.424 280.004C129.423 280.012 129.423 279.999 129.424 279.966C129.426 279.933 129.295 279.82 129.03 279.628C128.765 279.436 128.499 279.288 128.232 279.182C127.964 279.077 127.698 278.972 127.432 278.868C127.166 278.763 126.911 278.652 126.664 278.536C126.418 278.419 126.185 278.313 125.965 278.218C125.746 278.124 125.365 277.952 124.821 277.704C124.277 277.455 123.83 277.238 123.479 277.053C123.127 276.868 122.745 276.682 122.332 276.496C121.919 276.31 121.503 276.088 121.084 275.829C120.664 275.57 120.36 275.369 120.17 275.227C119.98 275.084 119.735 274.933 119.435 274.772C119.134 274.611 118.219 274.071 116.69 273.15C115.159 272.229 113.988 271.512 113.175 270.998C112.362 270.485 111.74 270.102 111.31 269.848C110.881 269.595 110.23 269.211 109.356 268.697C108.483 268.181 107.539 267.634 106.525 267.056C105.511 266.477 104.788 266.028 104.355 265.709C103.921 265.391 103.527 265.161 103.171 265.017C102.815 264.874 102.304 264.612 101.636 264.23C100.968 263.851 100.443 263.56 100.062 263.356C99.6802 263.152 99.1635 262.891 98.5117 262.571C97.8589 262.252 97.3247 261.988 96.9093 261.779C96.4929 261.57 96.1631 261.394 95.9198 261.252C95.6756 261.109 95.5059 261.006 95.4105 260.94C95.3162 260.876 94.9382 260.609 94.2766 260.139C93.6151 259.669 92.8226 259.134 91.8993 258.535C91.0023 257.893 90.1953 257.361 89.4782 256.936C88.7884 256.469 88.2334 256.098 87.8131 255.824C87.3918 255.551 87.1141 255.383 86.9798 255.32C86.8455 255.256 86.4325 255.018 85.7408 254.606C85.0491 254.194 84.3894 253.789 83.7619 253.389C83.1334 252.99 82.5773 252.646 82.0938 252.357C81.6093 252.068 81.1963 251.819 80.8548 251.607C80.5133 251.395 80.1786 251.2 79.8508 251.023C79.5229 250.846 79.1619 250.617 78.7679 250.333C78.3749 250.05 78.0237 249.825 77.7143 249.655C77.4049 249.486 76.9768 249.255 76.43 248.96C75.8823 248.666 75.4002 248.33 74.9838 247.951C74.5664 247.572 74.1996 247.276 73.8834 247.064C73.5663 246.851 73.2471 246.628 72.9261 246.394C72.606 246.159 72.3117 245.95 72.0432 245.766C71.7746 245.582 71.3115 245.3 70.6538 244.92C69.9952 244.54 69.3983 244.227 68.8632 243.981C68.3281 243.733 67.9297 243.544 67.668 243.411C67.4063 243.277 67.2516 243.193 67.2039 243.157C67.1553 243.121 66.9938 243.057 66.7194 242.965C66.445 242.871 66.1643 242.741 65.8773 242.574C65.5903 242.407 65.3938 242.298 65.2877 242.246C65.1807 242.196 65.0669 242.128 64.9462 242.041C64.8246 241.953 64.7137 241.857 64.6135 241.754C64.5123 241.651 64.4301 241.58 64.3669 241.54C64.3037 241.501 64.2584 241.463 64.2312 241.425C64.2039 241.387 64.166 241.343 64.1173 241.295C64.0716 241.244 64.0337 241.194 64.0035 241.144C63.9772 241.094 63.9631 241.06 63.9612 241.039" stroke="#FCFBF2" stroke-width="4" stroke-linecap="round" stroke-linejoin="round"/>
<path d="M68.0649 242.456C67.8295 242.704 67.7263 242.807 67.7555 242.766C67.7847 242.724 67.7769 242.726 67.7322 242.771C67.6864 242.815 67.5838 242.828 67.4242 242.812C67.2646 242.794 67.1494 242.763 67.0783 242.719C67.0063 242.675 66.9728 242.647 66.9776 242.636C66.9825 242.625 66.9212 242.571 66.7938 242.472C66.6663 242.373 66.4367 242.108 66.1049 241.678C65.7732 241.248 65.4852 240.746 65.241 240.173C64.9959 239.6 64.8076 239.171 64.6762 238.885C64.5449 238.6 64.3873 238.205 64.2034 237.702C64.0205 237.198 63.8755 236.746 63.7685 236.344C63.6615 235.943 63.6051 235.579 63.5992 235.253C63.5934 234.929 63.6177 234.685 63.6722 234.523C63.7276 234.362 63.77 234.256 63.7992 234.207C63.8293 234.158 63.8478 234.128 63.8546 234.115C63.8604 234.103 63.8906 234.037 63.9451 233.917C63.9986 233.797 64.0341 233.746 64.0516 233.766C64.0701 233.786 64.183 233.598 64.3902 233.201C64.5974 232.804 64.7458 232.482 64.8353 232.232C64.9258 231.982 64.9837 231.806 65.0089 231.705C65.0342 231.606 65.0523 231.538 65.063 231.5C65.0727 231.461 65.0756 231.449 65.0717 231.465C65.0668 231.483 65.0693 231.442 65.079 231.341C65.0975 231.238 65.1043 231.136 65.0994 231.034" stroke="#FCFBF2" stroke-width="4" stroke-linecap="round" stroke-linejoin="round"/>
<path d="M162.69 203.139C162.734 203.198 162.798 203.101 162.882 202.851C162.965 202.599 162.982 202.512 162.931 202.588C162.881 202.664 162.858 202.698 162.863 202.692C162.867 202.684 162.869 202.687 162.868 202.7C162.867 202.715 162.855 202.725 162.832 202.732C162.809 202.739 162.748 202.853 162.65 203.073C162.551 203.294 162.489 203.493 162.461 203.668C162.435 203.845 162.421 203.998 162.42 204.127C162.42 204.258 162.423 204.366 162.428 204.451C162.434 204.536 162.439 204.617 162.444 204.694C162.449 204.772 162.488 204.967 162.561 205.281C162.633 205.594 162.72 205.879 162.82 206.137C162.92 206.394 163.024 206.641 163.134 206.879C163.245 207.117 163.329 207.292 163.385 207.403C163.442 207.514 163.567 207.739 163.763 208.076C163.96 208.414 164.15 208.985 164.334 209.788C164.518 210.592 164.642 211.351 164.707 212.065C164.772 212.78 164.838 213.334 164.903 213.73C164.968 214.127 164.805 214.777 164.414 215.682C164.023 216.587 163.719 217.25 163.503 217.67C163.287 218.089 163.116 218.42 162.99 218.664C162.863 218.907 162.7 219.214 162.499 219.585C162.3 219.955 161.88 220.649 161.241 221.666C160.603 222.683 160.057 223.608 159.604 224.441C159.15 225.274 158.824 225.905 158.623 226.334C158.423 226.761 158.265 227.104 158.15 227.365C158.037 227.624 157.869 227.971 157.648 228.406C157.428 228.838 157.242 229.194 157.089 229.473C156.938 229.753 156.623 230.372 156.145 231.33C155.668 232.289 155.167 233.148 154.642 233.905C154.117 234.664 153.852 235.044 153.848 235.046C153.844 235.047 153.842 235.046 153.842 235.044C153.842 235.042 153.844 235.042 153.847 235.044C153.849 235.046 153.876 235.057 153.93 235.075C153.983 235.094 154.059 235.122 154.156 235.161" stroke="#FCFBF2" stroke-width="4" stroke-linecap="round" stroke-linejoin="round"/>
<path d="M150.893 240.958C150.911 240.959 150.935 240.9 150.963 240.782C151.543 240.951 151.736 240.963 151.542 240.819C151.374 240.625 151.291 240.556 151.293 240.613C151.291 240.67 151.287 240.694 151.283 240.683C151.278 240.672 151.274 240.678 151.271 240.699C151.267 240.72 151.268 240.713 151.275 240.68C151.281 240.647 151.026 241.035 150.509 241.845C149.992 242.655 149.539 243.46 149.147 244.259C148.754 245.061 148.518 245.389 148.438 245.243C148.357 245.098 148.334 245.049 148.368 245.096C148.401 245.142 148.413 245.146 148.403 245.108C148.393 245.07 148.407 245.045 148.443 245.035C148.48 245.024 148.473 244.843 148.424 244.491C148.473 244.226 148.518 244.045 148.559 243.949C148.599 243.854 148.631 243.78 148.654 243.726C148.678 243.672 148.715 243.596 148.767 243.496C148.818 243.397 148.872 243.274 148.927 243.128C148.984 242.981 149.037 242.843 149.088 242.711C149.137 242.579 149.168 242.499 149.18 242.473C149.191 242.447 149.199 242.432 149.201 242.429C149.204 242.426 149.212 242.421 149.223 242.413C149.235 242.404 149.246 242.393 149.255 242.378C149.266 242.363 149.271 242.356 149.27 242.356C149.27 242.355 149.271 242.352 149.273 242.346C149.275 242.339 149.28 242.325 149.288 242.306C149.295 242.287 149.326 242.223 149.378 242.113C149.432 242.003 149.465 241.931 149.479 241.898C149.493 241.865 149.498 241.854 149.493 241.866C149.488 241.878 149.486 241.881 149.489 241.877C149.492 241.875 149.486 241.88 149.471 241.894C149.456 241.908 149.502 241.877 149.609 241.803C149.715 241.728 149.781 241.685 149.807 241.675" stroke="#FCFBF2" stroke-width="4" stroke-linecap="round" stroke-linejoin="round"/>
<path d="M98.7934 208.962C98.8469 209.013 98.7695 208.859 98.5613 208.5C98.3522 208.141 98.2553 207.98 98.2709 208.017C98.2855 208.054 98.267 208.065 98.2155 208.049C98.1629 208.033 98.1755 208.031 98.2534 208.045C98.3322 208.059 98.0204 207.85 97.3179 207.419C96.6155 206.988 95.3366 206.664 93.4812 206.446C93.0814 206.733 92.934 206.839 93.039 206.763C92.9476 206.671 92.608 207.089 92.0204 208.019C91.4318 208.947 90.6248 210.104 89.5993 211.49C88.5739 212.875 87.5922 214.215 86.6543 215.508C85.7154 216.802 85.0184 217.773 84.5631 218.422C84.1077 219.071 83.8334 219.532 83.74 219.802C83.6456 220.071 83.5921 220.182 83.5794 220.135C83.5678 220.088 83.362 220.325 82.9621 220.846C82.5632 221.366 82.1892 221.856 81.8399 222.315C81.4906 222.775 81.2824 223.045 81.2153 223.125C81.1481 223.206 81.0698 223.318 80.9803 223.46C80.8908 223.602 80.6821 223.863 80.3542 224.245C80.0254 224.626 79.8381 224.89 79.7924 225.036C79.7476 225.182 79.5428 225.438 79.178 225.803C78.8131 226.167 78.5402 226.452 78.3593 226.655C78.1773 226.859 78.0562 226.999 77.9959 227.076C77.9346 227.154 77.9079 227.201 77.9157 227.217C77.9234 227.233 77.9278 227.229 77.9288 227.205C77.9298 227.181 77.8826 227.283 77.7872 227.511C77.7318 227.777 77.6904 227.93 77.6632 227.971C77.6359 228.012 77.5523 228.13 77.4122 228.325C77.2721 228.52 77.2088 228.618 77.2224 228.619C77.2361 228.62 77.1923 228.628 77.0911 228.642C76.9909 228.656 76.7462 228.922 76.357 229.439C75.9678 229.958 75.6872 230.404 75.515 230.777C75.3437 231.15 75.2314 231.415 75.1779 231.574C75.1253 231.733 75.1171 231.865 75.1531 231.969C75.1891 232.072 75.2022 232.122 75.1925 232.118C75.1827 232.113 75.1803 232.114 75.1852 232.12C75.1891 232.124 75.1881 232.099 75.1822 232.045C75.1764 231.99 75.1745 231.977 75.1764 232.005C75.1793 232.036 75.189 232.132 75.2056 232.294C75.2221 232.455 75.2387 232.61 75.2552 232.761C75.2718 232.912 75.2844 232.983 75.2932 232.976C75.3019 232.97 75.3121 232.967 75.3238 232.968C75.3365 232.969 75.4668 233.161 75.7149 233.544C75.964 233.927 76.1741 234.223 76.3453 234.431C76.5166 234.64 76.629 234.769 76.6825 234.818C76.735 234.867 76.7467 234.884 76.7175 234.868C76.6893 234.854 76.7724 234.931 76.967 235.098C77.1616 235.266 77.6354 235.673 78.3884 236.321C79.1425 236.968 79.7836 237.532 80.3119 238.014C80.8402 238.494 81.3121 238.89 81.7275 239.2C82.143 239.509 82.427 239.739 82.5798 239.89C82.7315 240.041 82.8712 240.174 82.9986 240.289C83.1261 240.405 83.2667 240.537 83.4204 240.685C83.5731 240.835 83.8465 241.031 84.2405 241.274C84.6336 241.517 85.3545 241.891 86.4033 242.396C87.4511 242.901 88.2839 243.337 88.9017 243.702C89.5195 244.068 90.4326 244.561 91.641 245.182C92.8503 245.803 93.8475 246.313 94.6327 246.712C95.4188 247.11 96.2818 247.557 97.2216 248.052C98.1615 248.549 98.9918 249.125 99.7127 249.78C100.434 250.436 101.438 251.087 102.725 251.733C104.013 252.378 105.09 252.915 105.954 253.343C106.819 253.77 107.76 254.269 108.775 254.839C109.79 255.409 110.509 255.826 110.932 256.089C111.355 256.352 111.642 256.525 111.793 256.608C111.949 256.694 112.074 256.764 112.168 256.819C112.269 256.878 112.555 257.074 113.027 257.405C113.503 257.74 113.966 258.045 114.414 258.318C114.864 258.59 115.228 258.785 115.506 258.904C115.784 259.023 115.969 259.121 116.059 259.199C116.15 259.277 116.244 259.352 116.344 259.423C116.444 259.494 116.542 259.563 116.637 259.631C116.732 259.699 116.779 259.729 116.776 259.721C116.773 259.716 116.76 259.697 116.736 259.666C116.712 259.635 117.086 259.848 117.857 260.305C118.629 260.761 119.299 261.173 119.868 261.541C120.437 261.908 120.859 262.172 121.135 262.333C121.411 262.494 121.611 262.611 121.733 262.685C121.856 262.758 121.984 262.841 122.118 262.934C122.253 263.026 122.371 263.102 122.475 263.161C122.578 263.219 122.708 263.292 122.866 263.38C123.023 263.469 123.1 263.507 123.096 263.496C123.092 263.483 123.113 263.486 123.159 263.506C123.204 263.525 123.21 263.533 123.178 263.531C123.145 263.528 123.312 263.637 123.679 263.858C124.044 264.079 124.481 264.327 124.989 264.604C125.497 264.882 125.9 265.135 126.199 265.364C126.497 265.594 126.778 265.761 127.042 265.865C127.307 265.969 127.52 266.055 127.682 266.125C127.843 266.194 127.928 266.231 127.935 266.236C127.943 266.24 127.918 266.251 127.86 266.269C127.802 266.288 127.877 266.333 128.083 266.405C128.289 266.477 128.444 266.507 128.547 266.493C128.65 266.479 128.805 266.452 129.012 266.412C129.221 266.371 129.353 266.336 129.411 266.31C129.468 266.285 129.432 266.291 129.303 266.327C129.173 266.364 129.435 266.244 130.087 265.968C130.737 265.692 131.264 265.504 131.666 265.404C132.067 265.304 132.393 265.234 132.643 265.196C132.893 265.157 133.026 265.13 133.042 265.114C133.057 265.099 133.065 265.091 133.064 265.091C133.063 265.091 133.046 265.108 133.013 265.143C132.981 265.178 133.131 265.099 133.464 264.908C133.797 264.717 134.052 264.574 134.228 264.479C134.405 264.386 134.512 264.332 134.549 264.319C134.586 264.306 134.644 264.262 134.723 264.186C134.802 264.111 134.996 263.941 135.305 263.675C135.615 263.409 135.753 263.291 135.721 263.321C135.688 263.352 135.659 263.368 135.635 263.37C135.937 263.072 136.098 262.914 136.118 262.899C136.138 262.882 136.13 262.88 136.096 262.893C136.028 262.972 136.059 262.965 136.188 262.872C136.318 262.78 136.461 262.641 136.619 262.456C136.775 262.271 137.04 261.927 137.414 261.424C137.788 260.921 138.04 260.58 138.17 260.404C138.3 260.227 138.393 260.102 138.447 260.026C138.501 259.949 138.567 259.857 138.647 259.748C138.727 259.638 138.795 259.545 138.85 259.47C138.905 259.395 138.957 259.324 139.006 259.258C139.056 259.193 139.115 259.106 139.183 258.999C139.251 258.892 139.311 258.789 139.362 258.692C139.414 258.594 139.444 258.525 139.453 258.484C139.462 258.443 139.489 258.386 139.536 258.313C139.584 258.24 139.647 258.14 139.727 258.012C139.807 257.884 140.124 257.348 140.679 256.403C141.233 255.459 141.643 254.719 141.907 254.184C142.172 253.649 142.341 253.22 142.415 252.894C142.489 252.568 142.54 252.348 142.567 252.237C142.594 252.127 142.609 252.056 142.612 252.025C142.615 251.995 142.62 251.976 142.625 251.968C142.631 251.96 142.656 251.906 142.698 251.805C142.741 251.703 142.824 251.499 142.946 251.193C143.069 250.887 143.111 250.766 143.073 250.831C143.036 250.894 143.028 250.892 143.052 250.825C143.075 250.758 143.123 250.617 143.196 250.402C143.269 250.19 143.322 250.067 143.355 250.035C143.388 250.005 143.394 250 143.373 250.02C143.351 250.039 143.408 249.971 143.543 249.815C143.679 249.66 143.958 249.182 144.381 248.383C144.804 247.583 145.17 246.877 145.479 246.267C145.787 245.657 146.028 245.207 146.202 244.914C146.377 244.622 146.485 244.402 146.526 244.256C146.566 244.11 146.59 244.025 146.596 244.002C146.603 243.98 146.616 243.932 146.634 243.858C146.653 243.784 146.687 243.663 146.738 243.494C146.788 243.325 146.835 243.17 146.88 243.031C146.925 242.892 146.951 242.827 146.957 242.837C146.963 242.845 146.965 242.85 146.963 242.851C146.961 242.851 146.955 242.871 146.945 242.911C146.935 242.951 146.933 242.97 146.936 242.967C146.94 242.965 146.952 242.932 146.97 242.867C146.989 242.803 147.037 242.642 147.112 242.385C147.186 242.127 147.216 242.003 147.199 242.011C147.184 242.018 147.175 241.989 147.174 241.923C147.173 241.856 147.184 241.793 147.206 241.736C147.228 241.677 147.229 241.672 147.211 241.722C147.192 241.771 147.204 241.645 147.247 241.344C147.291 241.042 147.338 240.796 147.387 240.607C147.437 240.419 147.454 240.141 147.438 239.776C147.422 239.411 147.382 239.114 147.317 238.884C147.253 238.654 147.211 238.53 147.192 238.513C147.173 238.494 147.121 238.419 147.034 238.289C146.949 238.158 146.917 238.112 146.939 238.151C146.962 238.189 146.89 238.055 146.725 237.748C146.559 237.442 146.422 237.216 146.313 237.07C146.204 236.925 146.115 236.807 146.046 236.714C145.977 236.622 145.925 236.546 145.889 236.487C145.852 236.428 145.719 236.261 145.492 235.987C145.263 235.713 144.984 235.391 144.654 235.019C144.324 234.648 143.917 234.242 143.434 233.801C142.95 233.359 142.172 232.711 141.097 231.858C140.023 231.004 139.229 230.401 138.713 230.05C138.196 229.7 137.399 229.12 136.321 228.309C135.243 227.499 134.256 226.84 133.361 226.332C132.466 225.823 131.697 225.312 131.054 224.8C130.411 224.287 129.384 223.61 127.973 222.768C126.563 221.927 125.448 221.144 124.63 220.42C123.812 219.696 122.378 218.752 120.328 217.588C118.277 216.423 116.695 215.492 115.583 214.796C114.472 214.1 113.62 213.558 113.027 213.17C112.433 212.781 112.056 212.536 111.896 212.433C111.734 212.331 111.461 212.168 111.075 211.946C110.69 211.723 110.08 211.468 109.245 211.182C108.412 210.896 107.685 210.642 107.065 210.42C106.446 210.196 105.885 210.058 105.381 210.006C104.877 209.954 104.463 209.891 104.14 209.816C103.817 209.74 103.579 209.687 103.424 209.656C103.268 209.626 103.178 209.596 103.152 209.566C103.128 209.535 103.046 209.485 102.907 209.418C102.768 209.35 102.789 209.33 102.969 209.359C103.149 209.389 101.02 208.729 96.5839 207.379C96.292 207.538 95.9992 207.601 95.7053 207.568C95.4115 207.534 95.1308 207.588 94.8633 207.731C94.5967 207.874 94.4799 207.937 94.513 207.919C94.5461 207.901 94.5116 207.919 94.4094 207.974C94.3073 208.03 94.2031 208.088 94.0971 208.15C93.991 208.21 93.8451 208.301 93.6593 208.42C93.4735 208.541 93.2896 208.654 93.1077 208.76C92.9257 208.867 92.7083 209.057 92.4553 209.329C92.2033 209.599 91.9742 209.863 91.768 210.123C91.5617 210.382 91.3978 210.569 91.2762 210.684C91.1555 210.799 91.0616 210.903 90.9945 210.996C90.9283 211.089 90.9089 211.122 90.9361 211.095C90.9634 211.067 90.7824 211.279 90.3932 211.733C90.0041 212.185 89.791 212.436 89.754 212.487" stroke="#FCFBF2" stroke-width="4" stroke-linecap="round" stroke-linejoin="round"/>
<path d="M104.583 210.817C104.656 210.852 104.791 210.487 104.99 209.723C104.538 209.679 104.322 209.676 104.34 209.714C103.856 209.89 102.242 210.809 99.4996 212.469C96.757 214.129 94.4492 215.437 92.5764 216.392C90.7035 217.347 88.8788 218.471 87.1023 219.765C85.3248 221.06 83.4174 222.237 81.3801 223.297C81.6983 223.171 82.858 222.75 84.8593 222.032C86.8605 221.314 88.8088 220.668 90.704 220.096C92.6002 219.524 94.3636 218.954 95.9942 218.387C97.6248 217.819 99.5848 217.045 101.874 216.062C104.163 215.079 107.044 214.345 110.515 213.86C110.771 213.967 110.128 214.421 108.587 215.222C107.047 216.024 105.736 216.75 104.654 217.4C103.572 218.051 101.327 219.745 97.9177 222.481C94.5086 225.218 91.766 227.428 89.6898 229.114C87.6136 230.798 86.034 232.077 84.9512 232.949C83.8683 233.822 82.8297 234.722 81.8354 235.649C81.851 235.699 81.8666 235.749 81.8821 235.798C81.5572 236.077 83.054 235.38 86.3726 233.708C89.6912 232.038 92.2583 230.766 94.0737 229.895C95.8882 229.023 97.3208 228.382 98.3716 227.969C99.4213 227.557 100.449 227.16 101.454 226.779C102.46 226.399 103.214 226.105 103.717 225.899C104.221 225.693 104.898 225.393 105.747 225C106.597 224.609 108.279 223.766 110.795 222.474C113.312 221.181 116.089 219.794 119.127 218.312C119.08 218.714 117.307 220.192 113.807 222.746C110.307 225.3 107.319 227.583 104.844 229.596C102.369 231.61 100.265 233.19 98.5335 234.336C96.8008 235.482 95.5238 236.331 94.7027 236.881C93.8825 237.433 93.3542 237.806 93.1178 237.999C92.8824 238.191 92.7145 238.381 92.6143 238.569C92.5141 238.756 92.4704 238.823 92.483 238.769C92.4956 238.716 92.5686 238.839 92.7019 239.139C92.8342 239.44 94.1632 239.029 96.6889 237.905C99.2136 236.78 101.289 235.828 102.916 235.048C104.543 234.269 106.13 233.536 107.676 232.85C109.223 232.164 111.079 231.404 113.243 230.572C115.407 229.738 117.544 228.813 119.653 227.796C121.763 226.78 123.768 225.849 125.67 225.006C125.435 225.725 125.305 226.053 125.281 225.991C125.256 225.928 125.174 225.981 125.036 226.15C124.898 226.317 124.799 226.416 124.739 226.447C124.679 226.477 124.683 226.522 124.753 226.581C124.821 226.64 123.364 227.62 120.383 229.522C117.402 231.423 114.793 233.112 112.557 234.589C110.321 236.066 108.233 237.602 106.293 239.198C104.352 240.794 102.781 242.077 101.581 243.045C100.38 244.013 99.2797 244.893 98.2796 245.684C98.1259 245.578 99.4826 245.009 102.35 243.976C105.217 242.943 107.706 241.978 109.816 241.08C111.926 240.183 113.551 239.451 114.69 238.885C115.829 238.319 117.451 237.54 119.554 236.549C121.657 235.558 123.419 234.728 124.84 234.057C126.263 233.386 127.53 232.901 128.642 232.6C129.754 232.3 131.391 232.093 133.554 231.981C133.569 232.372 133.535 232.542 133.455 232.489C133.329 232.724 132.607 233.361 131.288 234.4C129.968 235.439 128.767 236.216 127.684 236.732C126.602 237.247 124.896 238.185 122.566 239.545C120.236 240.906 118.324 242.069 116.83 243.035C115.335 244.002 112.253 246.459 107.583 250.407C108.339 250.457 111.383 249.166 116.716 246.533C122.047 243.899 126.558 241.586 130.247 239.595C133.936 237.605 137.147 235.874 139.879 234.402C140.16 234.999 138.775 236.49 135.724 238.875C132.673 241.258 130.266 243.117 128.503 244.451C126.741 245.784 125.42 246.781 124.541 247.442C123.662 248.102 122.674 248.973 121.577 250.055C120.48 251.137 119.542 252.267 118.763 253.445C118.789 253.463 118.847 253.525 118.938 253.63C119.066 253.744 120.09 253.268 122.01 252.2C123.93 251.133 126.123 250.08 128.589 249.043C131.056 248.005 133.289 247.021 135.291 246.09C137.292 245.158 138.907 244.34 140.137 243.636C141.367 242.933 142.689 242.213 144.102 241.476C144.254 241.523 143.394 242.32 141.521 243.866C139.648 245.411 137.547 246.888 135.219 248.298C132.892 249.706 131.068 250.89 129.748 251.847C128.428 252.804 126.933 253.904 125.265 255.146C123.596 256.387 121.714 257.998 119.618 259.979C119.828 259.984 120.038 259.956 120.249 259.892C120.46 259.829 120.549 259.811 120.516 259.838C120.482 259.865 120.612 259.787 120.906 259.602C121.199 259.417 122.707 258.738 125.43 257.565C128.152 256.392 130.274 255.518 131.795 254.945C133.318 254.372 134.6 253.919 135.641 253.585C136.682 253.252 137.606 252.949 138.412 252.676C138.614 253.11 137.98 253.941 136.511 255.169C135.042 256.396 133.849 257.412 132.932 258.215C132.015 259.017 131.398 259.62 131.082 260.022C130.766 260.425 130.522 260.741 130.352 260.971C130.183 261.202 130.069 261.359 130.009 261.442C129.95 261.524 129.903 261.592 129.868 261.644C130.339 261.668 130.534 261.674 130.454 261.661C130.374 261.648 130.395 261.642 130.52 261.644C130.644 261.647 130.755 261.68 130.854 261.744C130.953 261.809 131.75 261.818 133.245 261.774C134.738 261.729 136.052 261.647 137.188 261.529C138.323 261.411 138.973 261.355 139.138 261.359" stroke="#FCFBF2" stroke-width="4" stroke-linecap="round" stroke-linejoin="round"/>
<path d="M156.704 324.946C156.689 325.006 156.548 324.667 156.281 323.927C156.652 324.422 156.851 324.641 156.876 324.586C157.215 324.707 158.142 325.714 159.658 327.61C161.173 329.505 162.312 331.04 163.076 332.213C163.839 333.388 164.403 334.144 164.766 334.481C165.128 334.819 165.761 335.353 166.664 336.081C167.566 336.809 168.496 337.553 169.454 338.312C170.412 339.072 171.191 339.706 171.792 340.214C172.395 340.723 173.509 341.748 175.134 343.29C176.759 344.831 178.666 346.21 180.855 347.425C183.045 348.64 185.069 349.761 186.926 350.79C188.783 351.818 190.536 353.045 192.186 354.47C193.834 355.895 195.134 356.957 196.086 357.654C197.04 358.351 197.809 358.938 198.392 359.416C198.975 359.893 200.095 360.757 201.752 362.01C203.408 363.263 204.892 364.2 206.206 364.823C207.519 365.446 209.753 366.455 212.907 367.85C216.061 369.245 220.455 370.804 226.087 372.528C231.719 374.251 236.103 375.621 239.24 376.637C242.377 377.652 245.415 378.439 248.354 378.998C251.293 379.557 254.026 380.187 256.554 380.889C259.081 381.592 261.796 382.109 264.7 382.442C267.603 382.776 269.837 382.979 271.401 383.049C272.965 383.119 274.375 383.096 275.632 382.979C276.889 382.86 278.872 382.823 281.581 382.867C284.288 382.912 286.786 382.859 289.074 382.707C291.362 382.556 293.949 382.443 296.835 382.368C299.721 382.291 302.946 382.108 306.511 381.819C310.076 381.529 314.566 380.567 319.982 378.935C325.4 377.304 330.268 375.86 334.586 374.603C338.905 373.346 342.516 372.121 345.419 370.926C348.323 369.732 350.89 368.51 353.119 367.258C355.347 366.006 357.015 365.043 358.124 364.368C359.233 363.694 360.628 362.847 362.31 361.829C363.992 360.811 366.02 359.781 368.394 358.741C370.769 357.702 372.807 356.655 374.507 355.599C376.208 354.542 377.872 353.162 379.498 351.458C381.125 349.753 382.804 348.165 384.536 346.693C386.268 345.221 387.775 343.953 389.057 342.891C390.34 341.83 391.383 340.856 392.186 339.969C392.989 339.083 393.929 338.053 395.007 336.878C396.085 335.702 396.886 334.769 397.411 334.079C397.935 333.388 398.311 332.893 398.539 332.595C398.766 332.296 398.949 332.076 399.087 331.934C399.226 331.791 399.318 331.674 399.363 331.58C399.408 331.486 399.396 331.502 399.327 331.626C399.257 331.752 399.477 331.384 399.986 330.521C400.496 329.659 401.054 328.814 401.66 327.986C402.265 327.157 402.568 326.731 402.568 326.706C402.569 326.683 403.052 326.128 404.017 325.042C404.983 323.956 405.814 323.054 406.508 322.337C407.203 321.618 407.711 321.032 408.033 320.578C408.355 320.123 408.535 319.845 408.573 319.747C408.611 319.649 408.631 319.611 408.632 319.629C408.633 319.649 408.628 319.666 408.619 319.681C408.608 319.698 408.631 319.655 408.689 319.551C408.746 319.447 408.966 319.118 409.35 318.563C409.733 318.008 410.084 317.573 410.403 317.256C410.722 316.939 410.851 316.808 410.793 316.864C410.735 316.917 410.741 316.917 410.811 316.862C410.881 316.807 411.11 316.631 411.499 316.337" stroke="#FCFBF2" stroke-width="4" stroke-linecap="round" stroke-linejoin="round"/>
<path d="M150.926 110.083C150.842 110.056 150.773 109.992 150.719 109.891C150.666 109.791 150.56 109.529 150.401 109.104C150.242 108.68 150.183 108.486 150.221 108.521C150.261 108.557 150.271 108.589 150.249 108.616C150.229 108.643 150.654 107.26 151.525 104.466C152.395 101.671 153.46 98.5766 154.719 95.1822C155.978 91.7868 157.261 88.6973 158.568 85.9141C159.874 83.1319 162.787 78.8825 167.306 73.166C171.824 67.4495 175.431 62.8901 178.125 59.4879C180.818 56.0847 183.206 53.3074 185.289 51.1559C187.372 49.0044 189.214 47.3197 190.817 46.1012C192.418 44.8836 194.162 43.2697 196.049 41.2595C197.948 39.2562 199.489 37.5142 200.672 36.0334C201.861 34.5565 203.706 32.9982 206.207 31.3585C208.71 29.7198 210.747 28.3958 212.319 27.3869C213.89 26.3789 216.622 25.2501 220.513 24.0004C224.404 22.7516 227.639 21.8092 230.22 21.1736C232.8 20.539 235.492 19.4975 238.297 18.0488C241.1 16.6022 244.468 15.3111 248.402 14.1754C252.335 13.0407 255.618 12.2064 258.25 11.6732C260.88 11.1409 264.691 10.7753 269.681 10.5765C274.67 10.3786 278.499 10.2865 281.168 10.3001C283.836 10.3128 285.811 10.3391 287.091 10.379C288.372 10.419 289.765 10.543 291.272 10.7507C292.779 10.9593 295.468 11.2244 299.338 11.5461C303.208 11.8668 307.579 12.6051 312.449 13.7613C317.319 14.9174 323.105 16.5998 329.81 18.8078C336.513 21.0158 342.691 23.4103 348.344 25.9917C353.996 28.5721 358.243 30.5886 361.083 32.0411C363.922 33.4936 366.361 34.7508 368.401 35.8124C370.442 36.874 372.562 38.3679 374.763 40.2942C376.962 42.2205 378.63 43.7672 379.767 44.9341C380.903 46.101 382.597 47.4863 384.847 49.09C387.097 50.6936 389.3 52.7167 391.456 55.1597C393.612 57.6026 395.353 59.9842 396.678 62.3043C398.003 64.6254 399.004 66.4186 399.681 67.6839C400.358 68.9483 401.769 70.9278 403.914 73.6223C406.059 76.3177 408.179 79.4241 410.273 82.9414C412.368 86.4586 414.204 90.5941 415.781 95.3475C415.841 95.1671 416.085 94.7385 416.512 94.0619" stroke="#FCFBF2" stroke-width="4" stroke-linecap="round" stroke-linejoin="round"/>
<path d="M147.257 88.2959C147.264 88.1974 147.271 88.0988 147.278 88.0003C147.215 87.9623 147.151 87.9249 147.088 87.8878C147.175 87.9717 147.254 88.2287 147.326 88.6586C147.398 89.0895 147.424 89.2768 147.405 89.2212C147.384 89.1647 147.382 89.2149 147.398 89.3719C147.413 89.5298 147.541 90.1168 147.78 91.1326C148.02 92.1494 148.324 94.4295 148.692 97.9731C149.06 101.517 149.354 104.188 149.575 105.986C149.796 107.786 149.904 109.047 149.899 109.769C149.893 110.491 149.866 111.056 149.817 111.464C149.768 111.872 149.718 112.146 149.67 112.286C149.62 112.426 149.599 112.498 149.606 112.503C149.612 112.508 149.608 112.644 149.592 112.909C149.666 112.629 149.701 111.028 149.697 108.107C149.693 105.186 149.586 102.506 149.378 100.067C149.169 97.6272 148.96 95.7327 148.753 94.3845C148.545 93.0353 148.344 91.8524 148.149 90.8356C147.954 89.8188 147.847 89.1015 147.829 88.6832C147.812 88.266 147.756 87.8119 147.66 87.3206C147.565 86.8293 147.528 86.509 147.549 86.3599C147.571 86.2107 147.574 86.1383 147.56 86.1432C147.545 86.149 147.537 86.117 147.536 86.0468C147.534 85.9776 147.524 85.5288 147.507 84.7002C147.885 85.0404 148.243 85.6578 148.581 86.5527C148.918 87.4476 149.193 88.4406 149.406 89.5315C149.618 90.6214 149.748 91.2916 149.797 91.5421" stroke="#FCFBF2" stroke-width="4" stroke-linecap="round" stroke-linejoin="round"/>
<path d="M150.648 111.944C150.594 111.964 150.549 112.018 150.512 112.107C150.476 112.196 150.458 112.336 150.459 112.525C151.193 112.814 151.507 112.911 151.402 112.815C151.175 112.933 152.044 112.764 154.007 112.31C155.97 111.857 157.546 111.608 158.734 111.563C159.923 111.518 161.1 111.558 162.267 111.683C163.434 111.808 164.585 111.902 165.721 111.965C166.858 112.028 167.61 112.023 167.978 111.953C168.345 111.883 168.542 111.835 168.567 111.809C168.593 111.783 168.799 111.798 169.183 111.854C169.568 111.91 170.815 111.486 172.922 110.582C173.131 110.185 172.436 109.984 170.836 109.978C169.237 109.972 167.951 110.073 166.978 110.282C166.005 110.491 165.041 110.67 164.087 110.82C163.132 110.97 162.324 111.081 161.661 111.152C160.999 111.222 159.885 111.185 158.319 111.041C156.755 110.895 155.588 110.803 154.818 110.763C154.049 110.722 153.474 110.761 153.093 110.88C152.712 111 152.48 111.069 152.396 111.086C152.311 111.104 152.199 111.129 152.059 111.162C151.918 111.194 151.822 111.219 151.771 111.237C151.721 111.253 151.573 111.307 151.328 111.398C151.294 111.577 151.401 111.741 151.649 111.89C151.896 112.04 152.05 112.142 152.113 112.196" stroke="#FCFBF2" stroke-width="4" stroke-linecap="round" stroke-linejoin="round"/>
<path d="M401.835 316.8C402.06 316.772 401.347 316.723 399.696 316.653C398.045 316.584 396.697 316.535 395.653 316.507C394.61 316.478 393.935 316.486 393.628 316.53C393.32 316.575 393.072 316.658 392.882 316.779C392.692 316.901 392.457 317.029 392.177 317.164C392.759 317.646 394.051 317.712 396.053 317.361C398.055 317.011 399.518 316.644 400.445 316.26C401.371 315.876 402.598 315.826 404.127 316.112C405.654 316.398 407.191 316.458 408.737 316.293C408.147 316.417 407.865 316.447 407.89 316.383C407.895 316.372 406.315 316.515 403.15 316.811C399.985 317.108 395.391 317.441 389.366 317.809C390.812 317.379 392.62 317.074 394.791 316.896C396.961 316.718 399.145 316.39 401.344 315.914C403.543 315.437 405.519 315.174 407.271 315.124C409.024 315.074 410.35 315.104 411.251 315.213C412.153 315.321 412.686 315.381 412.849 315.392" stroke="#FCFBF2" stroke-width="4" stroke-linecap="round" stroke-linejoin="round"/>
<path d="M412.681 315.678C412.47 315.299 412.324 315.041 412.242 314.904C412.193 314.783 412.312 316.518 412.6 320.112C412.888 323.706 413.148 326.753 413.38 329.252C413.614 331.752 413.839 333.678 414.055 335.03C414.272 336.383 414.583 337.443 414.989 338.211C415.395 338.981 415.835 339.886 416.307 340.926" stroke="#FCFBF2" stroke-width="4" stroke-linecap="round" stroke-linejoin="round"/>
<path d="M411.396 314.993C411.357 315.927 411.364 316.299 411.416 316.109C411.667 316.803 411.994 319.322 412.397 323.666C412.8 328.011 413.131 331.707 413.392 334.753C413.654 337.8 414.283 340.758 415.279 343.626" stroke="#FCFBF2" stroke-width="4" stroke-linecap="round" stroke-linejoin="round"/>
</svg>
