<svg width="556" height="399" viewBox="0 0 556 399" fill="none" xmlns="http://www.w3.org/2000/svg">
<path d="M377.655 164.057C377.79 164.471 377.851 164.679 377.838 164.682C377.825 164.684 377.825 164.718 377.836 164.784C377.848 164.85 377.888 164.882 377.956 164.881C378.023 164.88 378.043 164.881 378.014 164.883C377.985 164.885 377.974 164.885 377.982 164.884C377.989 164.883 377.982 164.898 377.959 164.929C377.935 164.96 377.867 165.086 377.755 165.308C377.643 165.529 377.526 165.671 377.405 165.734C377.284 165.797 376.679 166.906 375.591 169.061C374.502 171.217 373.6 172.889 372.883 174.078C372.167 175.268 371.585 176.241 371.136 176.998C370.686 177.755 370.162 178.683 369.564 179.782C368.965 180.881 368.429 181.791 367.956 182.511C367.483 183.232 366.991 183.956 366.478 184.683C365.966 185.411 365.567 185.977 365.281 186.379C364.997 186.782 364.604 187.701 364.103 189.136C363.602 190.571 362.886 192.209 361.956 194.05C361.026 195.891 360.328 197.272 359.863 198.191C359.398 199.112 358.958 199.936 358.541 200.663C358.124 201.389 357.776 201.974 357.498 202.416C357.22 202.859 356.931 203.262 356.631 203.626C356.33 203.99 356.051 204.415 355.793 204.902C355.534 205.388 355.318 205.795 355.144 206.123C354.968 206.452 354.804 206.768 354.651 207.072C354.499 207.375 354.343 207.687 354.184 208.007C354.024 208.326 353.884 208.624 353.765 208.901C353.647 209.179 353.274 210.003 352.645 211.373C352.016 212.744 351.505 213.839 351.113 214.659C350.721 215.478 350.445 216.067 350.283 216.425C350.122 216.782 350.011 217.021 349.952 217.145C349.894 217.268 349.738 217.565 349.484 218.037C349.231 218.508 348.866 219.193 348.389 220.09C347.914 220.987 347.596 221.62 347.436 221.99C347.276 222.36 347.114 222.707 346.949 223.032C346.785 223.358 346.618 223.646 346.45 223.898C346.282 224.149 346.134 224.393 346.005 224.63C345.877 224.867 345.762 225.094 345.662 225.311C345.562 225.528 345.503 225.663 345.487 225.718C345.471 225.771 345.42 225.917 345.334 226.155C345.247 226.392 345.172 226.595 345.109 226.763C345.046 226.932 345.02 226.998 345.032 226.962C345.045 226.927 345.18 226.792 345.439 226.555C345.698 226.318 345.867 226.176 345.944 226.13" stroke="#3D5330" stroke-width="4" stroke-linecap="round" stroke-linejoin="round"/>
<path d="M376.924 164.371C377.052 164.792 377.12 164.967 377.129 164.897C377.139 164.827 377.276 164.671 377.542 164.429C377.684 164.161 377.756 164.045 377.757 164.081C377.754 164.117 377.744 164.136 377.728 164.137C377.711 164.137 377.759 164.125 377.87 164.1C377.98 164.074 378.424 163.845 379.201 163.415C379.976 162.985 380.555 162.636 380.936 162.368C381.317 162.101 381.627 161.905 381.866 161.779C382.105 161.653 382.304 161.552 382.463 161.475C382.622 161.399 382.742 161.345 382.822 161.313C382.901 161.28 382.956 161.259 382.985 161.25C383.014 161.241 383.048 161.217 383.088 161.179C383.127 161.142 383.12 161.128 383.066 161.14C383.011 161.152 383.053 161.15 383.194 161.134C383.334 161.119 383.505 161.092 383.705 161.053C383.906 161.015 384.063 160.972 384.177 160.922C384.291 160.874 384.331 160.856 384.296 160.868C384.261 160.882 384.254 160.886 384.275 160.879C384.295 160.873 384.295 160.873 384.275 160.88C384.255 160.887 384.318 160.849 384.462 160.767C384.606 160.684 384.729 160.617 384.831 160.564C384.934 160.51 385.005 160.483 385.046 160.481C385.087 160.479 385.073 160.477 385.005 160.475C384.938 160.473 385.099 160.392 385.488 160.232C385.875 160.072 386.198 159.971 386.456 159.929C386.714 159.886 386.939 159.86 387.13 159.851C387.322 159.842 387.419 159.834 387.422 159.826C387.426 159.819 387.42 159.813 387.405 159.808C387.389 159.803 387.533 159.806 387.836 159.819C388.139 159.832 388.421 159.853 388.685 159.882C388.948 159.912 389.074 159.933 389.061 159.946C389.049 159.96 389.047 159.965 389.055 159.961C389.064 159.957 389.061 159.952 389.048 159.945C389.034 159.938 389.035 159.937 389.051 159.941C389.066 159.944 389.065 159.948 389.048 159.955C389.029 159.961 389.146 159.976 389.398 160C389.651 160.024 389.886 160.061 390.104 160.109C390.323 160.156 390.459 160.179 390.514 160.177C390.568 160.175 390.708 160.207 390.933 160.272C391.159 160.338 391.865 160.37 393.051 160.37C394.238 160.371 395.363 160.371 396.429 160.369C397.494 160.368 398.633 160.331 399.847 160.257C401.06 160.184 402.064 160.14 402.858 160.126C403.65 160.114 404.449 160.148 405.255 160.228C406.06 160.309 406.838 160.336 407.588 160.312C408.336 160.287 409.488 160.319 411.042 160.408C412.596 160.497 413.819 160.545 414.71 160.552C415.6 160.56 417.084 160.505 419.162 160.388C421.242 160.27 422.835 160.2 423.94 160.179C425.045 160.157 425.98 160.126 426.746 160.084C427.512 160.044 429.141 160.093 431.631 160.234C434.121 160.375 436.194 160.501 437.851 160.613C439.506 160.724 440.732 160.751 441.528 160.694C442.323 160.637 443.07 160.616 443.768 160.63C444.465 160.644 445.125 160.71 445.748 160.828C446.37 160.946 447.34 160.98 448.657 160.931C449.973 160.881 451.221 160.901 452.401 160.99C453.578 161.079 454.504 161.185 455.178 161.306C455.851 161.427 456.786 161.509 457.983 161.552C459.175 161.594 461.211 161.667 464.09 161.772C466.969 161.876 469.207 161.921 470.802 161.907C472.398 161.892 473.997 161.96 475.598 162.109C477.194 162.256 478.576 162.382 479.743 162.486C480.911 162.592 481.817 162.579 482.46 162.448C483.104 162.318 484.162 162.284 485.634 162.348C487.106 162.412 488.301 162.505 489.22 162.627C490.14 162.749 490.858 162.769 491.373 162.687C491.888 162.603 492.462 162.638 493.094 162.791C493.727 162.945 494.246 163.05 494.651 163.106C495.056 163.163 495.41 163.239 495.712 163.334C496.014 163.429 496.319 163.506 496.627 163.566C496.934 163.627 497.179 163.676 497.361 163.713C497.543 163.751 497.706 163.776 497.852 163.787C497.998 163.799 498.07 163.81 498.069 163.822C498.069 163.834 498.623 163.82 499.728 163.782C500.833 163.743 501.667 163.702 502.23 163.658C502.791 163.615 503.208 163.598 503.479 163.604C503.749 163.612 503.955 163.63 504.095 163.658C504.235 163.687 504.343 163.704 504.419 163.708C504.493 163.711 504.558 163.717 504.614 163.725C504.668 163.732 504.693 163.735 504.69 163.735C504.687 163.735 504.678 163.733 504.664 163.729C504.65 163.725 504.715 163.739 504.86 163.769C505.006 163.798 505.1 163.823 505.144 163.844C505.188 163.865 505.212 163.872 505.215 163.866C505.219 163.859 505.21 163.855 505.187 163.853C505.165 163.852 505.454 163.914 506.053 164.04C506.652 164.166 507.212 164.274 507.732 164.365C508.252 164.456 508.7 164.52 509.074 164.556C509.45 164.591 509.731 164.622 509.916 164.649C510.101 164.674 510.157 164.673 510.085 164.647C510.015 164.621 510.133 164.608 510.44 164.609C510.747 164.61 511.006 164.635 511.219 164.685C511.431 164.734 511.572 164.761 511.641 164.766C511.712 164.77 511.746 164.774 511.744 164.778C511.742 164.781 511.728 164.78 511.702 164.773C511.676 164.768 511.772 164.792 511.991 164.847C512.21 164.903 512.365 164.947 512.456 164.98C512.547 165.013 512.641 165.048 512.738 165.087C512.834 165.125 512.897 165.152 512.927 165.168C512.958 165.186 512.975 165.195 512.978 165.196C512.98 165.198 512.972 165.193 512.954 165.181C512.937 165.17 512.979 165.198 513.081 165.267C513.182 165.336 513.258 165.387 513.307 165.42C513.358 165.452 513.378 165.464 513.368 165.457C513.359 165.449 513.362 165.451 513.377 165.462C513.393 165.472 513.445 165.506 513.534 165.562C513.622 165.619 513.705 165.67 513.782 165.716C513.861 165.761 513.906 165.781 513.917 165.775C513.928 165.769 513.92 165.765 513.894 165.761C513.868 165.757 513.893 165.777 513.968 165.822C514.043 165.866 514.173 165.918 514.359 165.977C514.546 166.036 514.635 166.067 514.626 166.07C514.618 166.072 514.664 166.1 514.764 166.154C514.866 166.208 514.903 166.228 514.876 166.212C514.849 166.197 514.877 166.2 514.959 166.221C515.041 166.243 515.097 166.258 515.126 166.266C515.155 166.275 515.168 166.277 515.165 166.272C515.162 166.268 515.207 166.282 515.3 166.314C515.392 166.345 515.404 166.348 515.335 166.323C515.267 166.298 515.332 166.314 515.528 166.372C515.725 166.429 515.859 166.471 515.929 166.498C516.001 166.526 516.114 166.503 516.269 166.432C516.424 166.36 516.516 166.309 516.544 166.279" stroke="#3D5330" stroke-width="4" stroke-linecap="round" stroke-linejoin="round"/>
<path d="M342.903 228.956C342.787 228.963 342.76 228.958 342.82 228.943C342.88 228.927 342.908 228.918 342.903 228.915C342.899 228.912 342.916 228.912 342.955 228.914C342.995 228.916 343.211 228.916 343.604 228.914C343.997 228.911 344.248 228.899 344.357 228.876C344.465 228.853 344.533 228.856 344.56 228.886C344.586 228.917 344.595 228.934 344.586 228.936C344.577 228.939 344.647 228.957 344.797 228.991C344.947 229.026 345.855 228.915 347.521 228.66C349.185 228.404 352.427 228.237 357.246 228.159C362.065 228.08 366.783 228.112 371.402 228.252C376.019 228.393 379.437 228.467 381.657 228.472C383.876 228.479 386.017 228.5 388.08 228.533C390.144 228.568 391.846 228.549 393.185 228.477C394.524 228.404 399.182 228.139 407.158 227.683C415.134 227.225 421.934 226.899 427.557 226.706C433.179 226.513 437.759 226.52 441.297 226.728C444.835 226.937 450.294 226.877 457.677 226.55C465.059 226.224 470.651 225.872 474.452 225.497C478.253 225.12 482.218 224.885 486.347 224.79C490.476 224.694 493.729 224.662 496.104 224.695C498.48 224.728 502.522 224.937 508.231 225.323C513.94 225.708 518.55 226.012 522.061 226.235C525.571 226.457 528.166 226.598 529.846 226.656C531.525 226.715 532.333 226.713 532.271 226.652C532.209 226.59 532.183 226.553 532.193 226.541C532.204 226.529 532.147 226.485 532.023 226.408C531.9 226.329 531.795 226.279 531.709 226.257" stroke="#3D5330" stroke-width="4" stroke-linecap="round" stroke-linejoin="round"/>
<path d="M529.141 225.104C529.189 225.135 529.216 225.151 529.222 225.151C529.228 225.151 529.232 225.151 529.232 225.151C529.232 225.151 529.251 225.153 529.288 225.158C529.324 225.163 529.31 225.161 529.247 225.152C529.183 225.144 529.401 225.237 529.902 225.429C530.403 225.622 531.086 225.804 531.95 225.977C532.814 226.149 533.52 226.289 534.067 226.395C534.614 226.501 535.166 226.617 535.723 226.745C536.279 226.872 536.849 226.972 537.433 227.044C538.016 227.116 538.501 227.169 538.885 227.204C539.271 227.239 539.663 227.251 540.062 227.242C540.46 227.232 540.667 227.232 540.682 227.24C540.698 227.248 540.869 227.237 541.198 227.207C541.527 227.178 541.75 227.163 541.866 227.162C541.982 227.162 542.108 227.145 542.244 227.112C542.379 227.08 542.547 227.042 542.748 226.998C542.949 226.952 543.066 226.93 543.098 226.931C543.13 226.932 543.142 226.932 543.134 226.932C543.127 226.932 543.12 226.934 543.112 226.937C543.105 226.941 543.154 226.932 543.259 226.912C543.364 226.893 543.42 226.886 543.429 226.892C543.437 226.898 543.436 226.899 543.427 226.896C543.418 226.894 543.498 226.883 543.669 226.861C543.838 226.84 544.024 226.797 544.226 226.732C544.429 226.668 544.534 226.634 544.543 226.629C544.552 226.623 544.555 226.619 544.553 226.616C544.552 226.614 544.608 226.574 544.722 226.495C544.835 226.417 544.885 226.374 544.871 226.366C544.858 226.359 544.943 226.263 545.127 226.077C545.311 225.892 545.374 225.839 545.316 225.917C545.258 225.996 545.236 226.022 545.252 225.997C545.266 225.972 545.326 225.878 545.431 225.714C545.536 225.549 545.589 225.469 545.589 225.473C545.589 225.477 545.584 225.468 545.573 225.445C545.562 225.424 545.606 225.334 545.704 225.175C545.801 225.016 545.832 224.963 545.8 225.014C545.766 225.066 545.795 225.093 545.888 225.094C545.982 225.096 546.027 224.792 546.023 224.182C546.019 223.571 546.001 223.091 545.967 222.743C545.932 222.394 545.885 222.129 545.826 221.946C545.766 221.763 545.717 221.597 545.679 221.448C545.641 221.298 545.625 221.244 545.631 221.283C545.636 221.322 545.638 221.341 545.638 221.34C545.638 221.338 545.638 221.34 545.638 221.346C545.639 221.352 545.641 221.356 545.644 221.358C545.647 221.36 545.647 221.355 545.643 221.342C545.639 221.328 545.63 221.297 545.617 221.247C545.602 221.199 545.555 221.064 545.476 220.842C545.395 220.619 545.352 220.501 545.345 220.487C545.337 220.473 545.334 220.468 545.336 220.472C545.339 220.475 545.335 220.458 545.325 220.418C545.314 220.378 545.325 220.391 545.356 220.456C545.389 220.519 545.339 220.353 545.205 219.957C545.073 219.561 544.97 219.239 544.896 218.989C544.823 218.739 544.731 218.471 544.619 218.186C544.505 217.9 544.383 217.576 544.251 217.212C544.118 216.848 544.021 216.585 543.959 216.423C543.896 216.26 543.832 216.102 543.767 215.949C543.703 215.795 543.65 215.664 543.608 215.554C543.566 215.446 543.534 215.374 543.512 215.34C543.49 215.305 543.489 215.317 543.507 215.376C543.526 215.434 543.427 215.244 543.211 214.805C542.996 214.367 542.721 213.905 542.387 213.421C542.052 212.937 541.784 212.575 541.581 212.335C541.379 212.094 541.231 211.917 541.138 211.803C541.046 211.691 540.989 211.623 540.968 211.599C540.948 211.575 540.765 211.306 540.421 210.793C540.076 210.28 539.773 209.804 539.511 209.367C539.25 208.928 538.802 208.239 538.169 207.299C537.537 206.359 537.088 205.691 536.824 205.296C536.56 204.901 536.203 204.267 535.753 203.394C535.304 202.521 534.853 201.695 534.399 200.917C533.947 200.138 533.552 199.458 533.213 198.875C532.875 198.292 532.476 197.755 532.017 197.264C531.559 196.772 531.013 196.133 530.379 195.344C529.745 194.557 529.287 193.923 529.003 193.442C528.719 192.961 528.484 192.542 528.298 192.184C528.113 191.827 527.833 191.251 527.459 190.455C527.086 189.658 526.724 188.896 526.374 188.169C526.024 187.443 525.82 186.99 525.761 186.809C525.702 186.628 525.527 186.318 525.238 185.879C524.947 185.44 524.685 185.082 524.452 184.804C524.219 184.527 523.872 184.008 523.413 183.248C522.955 182.489 522.533 181.821 522.147 181.244C521.761 180.668 521.426 180.216 521.14 179.889C520.854 179.562 520.608 179.251 520.402 178.958C520.197 178.665 520.036 178.428 519.92 178.247C519.805 178.065 519.708 177.917 519.631 177.804C519.553 177.69 519.504 177.613 519.483 177.573C519.461 177.532 519.42 177.46 519.359 177.358C519.298 177.254 519.163 177.06 518.954 176.774C518.745 176.489 518.425 175.8 517.995 174.708C517.565 173.616 517.221 172.754 516.964 172.123C516.706 171.492 516.464 171.046 516.237 170.782C516.011 170.518 515.81 170.26 515.635 170.008C515.459 169.757 515.285 169.518 515.112 169.291C514.939 169.064 514.664 168.727 514.285 168.28C513.907 167.833 513.604 167.45 513.376 167.13C513.147 166.811 512.966 166.563 512.831 166.387C512.696 166.21 512.591 166.074 512.516 165.976C512.44 165.877 512.393 165.817 512.375 165.796C512.357 165.773 512.312 165.695 512.238 165.562C512.164 165.427 512.123 165.357 512.115 165.351C512.107 165.345 512.08 165.301 512.032 165.219C511.985 165.137 511.944 165.064 511.911 165.003C511.88 164.941 511.852 164.89 511.83 164.851C511.809 164.814 511.798 164.796 511.798 164.797C511.798 164.798 511.771 164.738 511.715 164.618C511.659 164.498 511.644 164.448 511.669 164.47C511.693 164.491 511.73 164.523 511.781 164.565" stroke="#3D5330" stroke-width="4" stroke-linecap="round" stroke-linejoin="round"/>
<path d="M368.963 230.058C368.822 229.846 368.762 229.748 368.782 229.766C368.803 229.782 368.807 229.772 368.794 229.735C368.782 229.698 368.74 229.621 368.666 229.506C368.593 229.39 368.552 229.318 368.546 229.289C368.538 229.26 368.528 229.257 368.517 229.279C368.504 229.302 368.496 229.323 368.493 229.34C368.489 229.357 368.485 229.383 368.48 229.42C368.475 229.457 368.473 229.457 368.474 229.419C368.477 229.381 368.461 229.453 368.427 229.634C368.391 229.816 368.396 230.509 368.443 231.713C368.49 232.918 368.495 233.855 368.457 234.524C368.42 235.194 368.39 235.751 368.367 236.193C368.344 236.637 368.348 237.376 368.379 238.412C368.41 239.448 368.53 240.864 368.739 242.66C368.948 244.456 368.995 246.506 368.878 248.808C368.762 251.11 368.653 252.938 368.55 254.292C368.447 255.645 368.37 256.812 368.318 257.791C368.264 258.772 368.245 259.986 368.26 261.432C368.274 262.879 368.295 264.395 368.322 265.979C368.349 267.563 368.476 269.464 368.703 271.683C368.929 273.903 369.094 275.604 369.198 276.787C369.302 277.97 369.372 278.902 369.409 279.581C369.445 280.261 369.563 281.84 369.762 284.317C369.961 286.793 370.121 289.061 370.242 291.119C370.364 293.178 370.438 294.663 370.463 295.573C370.488 296.483 370.501 297.377 370.502 298.256C370.503 299.135 370.475 300.106 370.418 301.168C370.362 302.23 370.334 303.068 370.334 303.68C370.335 304.293 370.323 304.775 370.298 305.127C370.272 305.479 370.265 305.749 370.276 305.937C370.286 306.125 370.285 306.314 370.273 306.505C370.261 306.695 370.272 306.902 370.306 307.128C370.339 307.353 370.366 307.578 370.388 307.803C370.409 308.028 370.476 308.584 370.588 309.47C370.7 310.356 370.802 311.234 370.892 312.103C370.982 312.972 371.057 313.718 371.117 314.341C371.178 314.963 371.235 315.486 371.288 315.908C371.341 316.331 371.378 316.617 371.399 316.767C371.42 316.916 371.353 317.214 371.197 317.66C371.041 318.106 370.971 318.399 370.988 318.54C371.005 318.681 371.008 318.805 370.996 318.914C370.984 319.022 370.983 319.241 370.995 319.57C371.005 319.9 371.015 320.188 371.024 320.433C371.032 320.678 371.079 320.921 371.168 321.163C371.255 321.405 371.312 321.528 371.339 321.532C371.365 321.537 371.416 321.469 371.493 321.329C371.57 321.189 371.62 321.091 371.641 321.034" stroke="#3D5330" stroke-width="4" stroke-linecap="round" stroke-linejoin="round"/>
<path d="M527.515 227.053C527.515 226.956 527.505 226.786 527.484 226.542C527.461 226.298 527.45 226.198 527.45 226.241C527.45 226.286 527.45 226.313 527.45 226.324C527.45 226.335 527.453 226.358 527.457 226.392C527.461 226.427 527.457 226.42 527.446 226.37C527.433 226.321 527.441 226.757 527.469 227.678C527.496 228.598 527.528 229.294 527.563 229.766C527.6 230.237 527.616 230.624 527.61 230.927C527.603 231.23 527.604 231.528 527.611 231.819C527.618 232.11 527.605 232.296 527.571 232.377C527.536 232.457 527.595 233.384 527.749 235.156C527.902 236.929 528.011 239.136 528.075 241.777C528.138 244.417 528.156 246.696 528.13 248.614C528.104 250.532 528.111 252.362 528.152 254.106C528.192 255.849 528.233 257.903 528.274 260.267C528.314 262.63 528.321 264.374 528.293 265.498C528.266 266.621 528.266 267.513 528.293 268.175C528.32 268.836 528.365 269.818 528.428 271.122C528.49 272.426 528.575 274.128 528.683 276.23C528.793 278.33 528.908 280.138 529.028 281.651C529.148 283.164 529.263 284.668 529.373 286.164C529.484 287.66 529.544 288.773 529.555 289.504C529.567 290.235 529.599 291.771 529.654 294.112C529.707 296.453 529.784 298.288 529.885 299.617C529.984 300.947 530.054 301.907 530.092 302.497C530.131 303.086 530.162 303.502 530.184 303.744C530.207 303.986 530.222 304.157 530.227 304.257C530.233 304.356 530.236 304.548 530.236 304.83C530.237 305.114 530.377 306.56 530.656 309.17C530.936 311.78 531.157 313.755 531.318 315.095C531.48 316.434 531.583 317.42 531.628 318.051C531.673 318.681 531.682 319.146 531.653 319.447C531.623 319.747 531.612 319.993 531.618 320.186" stroke="#3D5330" stroke-width="4" stroke-linecap="round" stroke-linejoin="round"/>
<path d="M372.989 320.136C372.854 320.447 372.795 320.579 372.812 320.529C372.83 320.481 372.798 320.518 372.716 320.64C372.634 320.762 372.598 320.817 372.609 320.802C372.618 320.788 372.624 320.78 372.625 320.779C372.626 320.778 372.609 320.855 372.575 321.01C372.542 321.165 372.532 321.236 372.543 321.223C372.556 321.211 372.562 321.295 372.562 321.477C372.562 321.658 372.562 321.733 372.562 321.702C372.562 321.67 372.549 321.626 372.521 321.569C372.494 321.512 372.495 321.892 372.523 322.71C372.55 323.527 372.595 324.147 372.658 324.568C372.72 324.989 372.778 325.294 372.831 325.484C372.883 325.674 372.928 325.824 372.964 325.936C373.002 326.047 373.031 326.122 373.05 326.161C373.07 326.199 373.122 326.252 373.207 326.321C373.293 326.39 373.395 326.397 373.512 326.341C373.629 326.285 373.572 325.736 373.339 324.694C373.107 323.651 372.991 323.101 372.991 323.044" stroke="#3D5330" stroke-width="4" stroke-linecap="round" stroke-linejoin="round"/>
<path d="M371.362 320.265C371.332 320.298 371.331 320.3 371.358 320.271C371.385 320.243 371.31 320.325 371.131 320.517C370.953 320.711 370.874 320.805 370.895 320.798C370.915 320.79 370.909 320.78 370.877 320.767C370.845 320.753 370.78 320.887 370.682 321.168C370.586 321.449 370.533 321.726 370.524 322C370.515 322.273 370.525 322.492 370.553 322.656C370.581 322.822 370.604 322.938 370.623 323.005C370.641 323.072 370.676 323.306 370.726 323.708C370.776 324.11 370.856 324.409 370.966 324.605C371.075 324.801 371.172 324.943 371.256 325.031C371.34 325.119 371.429 325.213 371.523 325.313C371.619 325.41 371.712 325.507 371.802 325.603C371.893 325.7 371.947 325.738 371.964 325.716C371.981 325.695 371.967 325.686 371.922 325.69C371.877 325.693 372.164 325.823 372.783 326.081C373.402 326.338 373.998 326.531 374.571 326.66C375.144 326.789 375.554 326.86 375.801 326.875C376.047 326.889 376.357 326.913 376.731 326.945C377.104 326.977 377.454 326.995 377.781 327C378.109 327.005 378.727 326.978 379.635 326.92C380.543 326.863 381.33 326.835 381.994 326.837C382.657 326.84 383.159 326.803 383.499 326.727C383.839 326.651 384.798 326.564 386.378 326.464C387.957 326.364 389.264 326.293 390.299 326.251C391.333 326.208 392.312 326.11 393.237 325.956C394.162 325.803 395.97 325.628 398.661 325.432C401.353 325.235 403.569 325.096 405.307 325.015C407.044 324.933 408.388 324.886 409.339 324.871C410.29 324.856 411.123 324.833 411.836 324.803C412.55 324.773 413.377 324.68 414.318 324.525C415.257 324.37 415.996 324.259 416.536 324.193C417.075 324.128 418.284 324.017 420.163 323.859C422.043 323.702 423.689 323.617 425.102 323.605C426.516 323.592 428.005 323.64 429.569 323.749C431.133 323.857 432.455 323.907 433.536 323.9C434.616 323.893 435.625 323.87 436.561 323.833C437.498 323.796 438.938 323.678 440.881 323.48C442.825 323.281 444.541 323.146 446.03 323.075C447.518 323.004 448.598 322.972 449.269 322.979C449.941 322.987 450.443 322.994 450.774 323.001C451.105 323.008 451.827 322.992 452.941 322.95C454.055 322.908 455.001 322.88 455.78 322.867C456.558 322.853 457.302 322.828 458.012 322.79C458.721 322.751 459.647 322.701 460.791 322.639C461.935 322.577 462.998 322.397 463.98 322.099C464.961 321.8 465.451 321.619 465.451 321.556C465.451 321.493 465.451 321.439 465.451 321.393" stroke="#3D5330" stroke-width="4" stroke-linecap="round" stroke-linejoin="round"/>
<path d="M464.741 227.356C464.631 227.543 464.582 227.644 464.594 227.657C464.606 227.671 464.594 227.691 464.559 227.719C464.524 227.748 464.485 227.828 464.445 227.961C464.404 228.094 464.377 228.162 464.365 228.163C464.352 228.165 464.347 228.159 464.35 228.147C464.353 228.134 464.339 228.159 464.308 228.222C464.277 228.285 464.243 228.387 464.205 228.527C464.167 228.668 464.143 228.739 464.134 228.742C464.125 228.745 464.123 228.706 464.128 228.626C464.133 228.544 464.104 229.082 464.041 230.238C463.979 231.394 463.953 232.344 463.964 233.088C463.975 233.834 464.001 234.346 464.041 234.623C464.08 234.901 464.214 236.209 464.44 238.546C464.667 240.884 464.813 243.769 464.878 247.203C464.941 250.638 464.972 253.224 464.969 254.961C464.965 256.697 464.994 258.16 465.055 259.351C465.115 260.541 465.164 261.428 465.201 262.013C465.239 262.597 465.333 263.989 465.482 266.191C465.63 268.393 465.895 270.861 466.278 273.594C466.661 276.327 466.984 278.496 467.247 280.101C467.51 281.706 467.692 282.886 467.793 283.639C467.895 284.393 467.979 285.262 468.047 286.245C468.115 287.23 468.194 288.248 468.285 289.299C468.376 290.351 468.462 291.281 468.542 292.091C468.624 292.9 468.647 293.689 468.614 294.457C468.58 295.227 468.605 296.407 468.689 297.998C468.773 299.588 468.841 300.804 468.893 301.644C468.943 302.485 468.967 303.186 468.964 303.747C468.962 304.309 469.074 306.078 469.301 309.055C469.527 312.033 469.672 314.352 469.735 316.014C469.799 317.675 469.883 318.906 469.986 319.706C470.089 320.508 470.163 321.069 470.209 321.388C470.255 321.707 470.275 321.949 470.268 322.116C470.262 322.281 470.264 322.4 470.274 322.472C470.283 322.544 470.295 322.706 470.31 322.958C470.326 323.211 470.334 323.331 470.334 323.32C470.334 323.309 470.334 323.293 470.334 323.272" stroke="#3D5330" stroke-width="4" stroke-linecap="round" stroke-linejoin="round"/>
<path d="M387.171 270.636C387.088 270.744 387.043 270.781 387.036 270.746C387.03 270.712 387.022 270.697 387.012 270.704C387.001 270.712 386.996 270.723 386.996 270.737C386.996 270.753 386.996 270.753 386.997 270.737C386.998 270.724 387.063 270.853 387.192 271.125C387.321 271.397 387.398 271.527 387.423 271.515C387.447 271.501 387.451 271.498 387.434 271.507C387.417 271.516 387.468 271.571 387.587 271.671C387.706 271.771 387.89 271.879 388.14 271.996C388.391 272.114 388.45 272.147 388.318 272.095C388.185 272.043 388.406 272.13 388.981 272.355C389.558 272.582 390.24 272.768 391.03 272.914C391.819 273.061 392.632 273.178 393.469 273.266C394.304 273.354 394.996 273.439 395.544 273.52C396.091 273.6 396.721 273.636 397.434 273.627C398.146 273.619 399.396 273.697 401.185 273.863C403.131 274.03 404.95 274.111 406.642 274.105C408.335 274.099 409.853 274.096 411.196 274.096C412.54 274.096 413.96 274.152 415.454 274.262C416.948 274.372 418.181 274.482 419.154 274.59C420.127 274.699 421.453 274.723 423.132 274.664C424.812 274.606 426.072 274.593 426.914 274.625C427.756 274.658 429.08 274.517 430.885 274.202C432.69 273.887 434.165 273.67 435.311 273.552C436.457 273.433 437.306 273.377 437.858 273.383C438.411 273.39 439.592 273.361 441.402 273.295C443.213 273.229 444.621 273.166 445.626 273.105C446.631 273.045 447.38 272.996 447.873 272.958C448.366 272.919 448.774 272.825 449.098 272.676C449.421 272.527 449.601 272.38 449.638 272.235C449.675 272.09 449.686 271.961 449.672 271.847C449.657 271.732 449.638 271.645 449.614 271.586C449.589 271.526 449.577 271.486 449.577 271.465" stroke="#3D5330" stroke-width="4" stroke-linecap="round" stroke-linejoin="round"/>
<path d="M450.219 272.921C450.222 272.936 450.217 272.902 450.203 272.816C450.19 272.731 450.265 272.507 450.43 272.144C450.594 271.781 450.756 271.301 450.918 270.703C451.079 270.106 451.168 269.637 451.187 269.298C451.204 268.957 451.209 268.689 451.2 268.495C451.19 268.3 451.177 268.132 451.161 267.991C451.143 267.85 451.117 267.655 451.084 267.404C451.05 267.153 450.945 266.203 450.77 264.555C450.595 262.906 450.434 261.62 450.288 260.698C450.141 259.776 449.967 258.815 449.766 257.815C449.565 256.815 449.387 255.57 449.234 254.079C449.081 252.587 448.893 250.661 448.671 248.301C448.449 245.939 448.244 244.05 448.055 242.631C447.867 241.214 447.741 240.236 447.676 239.696C447.612 239.158 447.507 238.197 447.361 236.814C447.215 235.431 447.082 234.264 446.96 233.314C446.838 232.364 446.827 231.572 446.928 230.938C447.028 230.304 447.094 229.839 447.125 229.543C447.156 229.246 447.164 229.006 447.148 228.825" stroke="#3D5330" stroke-width="4" stroke-linecap="round" stroke-linejoin="round"/>
<path d="M385.146 232.765C385.19 232.829 385.175 232.513 385.101 231.818C385.027 231.122 384.934 230.581 384.821 230.197C384.707 229.812 384.626 229.614 384.578 229.603C384.53 229.593 384.459 229.703 384.366 229.933C384.273 230.164 384.223 230.402 384.215 230.647C384.207 230.892 384.174 231.184 384.116 231.522C384.057 231.859 384.003 233.108 383.955 235.271C383.905 237.433 383.949 239.502 384.084 241.478C384.22 243.453 384.396 245.309 384.614 247.047C384.832 248.786 385.013 250.504 385.156 252.204C385.3 253.904 385.4 255.215 385.455 256.137C385.512 257.06 385.608 258.693 385.744 261.037C385.88 263.382 386.008 265.177 386.129 266.423C386.25 267.67 386.376 268.733 386.506 269.611C386.636 270.488 386.752 271.155 386.853 271.612C386.954 272.069 387.088 272.491 387.255 272.878C387.424 273.265 387.511 273.449 387.518 273.431C387.525 273.414 387.578 273.346 387.676 273.227C387.775 273.109 387.848 272.96 387.896 272.782C387.944 272.605 387.979 272.495 388 272.453" stroke="#3D5330" stroke-width="4" stroke-linecap="round" stroke-linejoin="round"/>
<path d="M511.948 226.347C512.022 226.132 511.894 225.921 511.566 225.715C511.237 225.508 510.957 225.517 510.728 225.744C510.498 225.969 510.354 226.112 510.295 226.171" stroke="#3D5330" stroke-width="4" stroke-linecap="round" stroke-linejoin="round"/>
<path d="M512.805 226.258C512.775 226.258 512.723 226.228 512.649 226.169C512.576 226.11 512.539 226.087 512.539 226.102C512.539 226.117 512.519 226.132 512.479 226.147C512.441 226.161 512.421 226.292 512.421 226.539C512.421 226.785 512.421 226.864 512.421 226.777C512.421 226.691 512.415 226.694 512.404 226.786C512.393 226.878 512.417 226.89 512.475 226.821C512.534 226.752 512.622 227.455 512.738 228.929C512.854 230.404 512.982 232.859 513.123 236.293C513.264 239.728 513.396 242.42 513.518 244.369C513.641 246.318 513.722 248.868 513.762 252.018C513.802 255.168 513.839 257.732 513.875 259.708C513.911 261.684 513.95 264.129 513.992 267.042C514.032 269.955 514.102 272.302 514.201 274.083C514.299 275.865 514.355 277.231 514.366 278.183C514.378 279.134 514.511 281.398 514.766 284.975C515.021 288.551 515.241 291.356 515.424 293.388C515.608 295.419 515.703 298.109 515.71 301.46C515.717 304.812 515.703 307.298 515.669 308.92C515.635 310.541 515.588 311.74 515.527 312.514" stroke="#3D5330" stroke-width="4" stroke-linecap="round" stroke-linejoin="round"/>
<path d="M515.752 298.393C515.685 298.481 515.633 298.56 515.595 298.629C515.559 298.699 515.554 298.722 515.581 298.699C515.608 298.676 515.587 298.721 515.518 298.833C515.45 298.946 515.405 299.441 515.383 300.317C515.362 301.193 515.391 302.116 515.469 303.086C515.547 304.057 515.596 304.728 515.614 305.099C515.633 305.472 515.675 305.854 515.741 306.246C515.807 306.639 515.849 307.097 515.866 307.621C515.883 308.146 515.9 308.679 515.918 309.22C515.936 309.761 515.958 310.233 515.983 310.635C516.009 311.036 516.031 311.378 516.047 311.66C516.064 311.942 516.078 312.237 516.091 312.543C516.103 312.848 516.108 313.134 516.104 313.401C516.099 313.668 516.107 313.867 516.127 313.996C516.147 314.127 516.155 314.264 516.149 314.406C516.143 314.549 516.144 314.619 516.153 314.617C516.161 314.614 516.164 314.607 516.163 314.596C516.163 314.586 516.139 314.738 516.089 315.052C516.04 315.367 516.04 315.665 516.089 315.947C516.139 316.227 516.189 316.474 516.24 316.686C516.292 316.898 516.326 317.06 516.342 317.174C516.359 317.288 516.372 317.37 516.38 317.421C516.387 317.471 516.388 317.478 516.383 317.441C516.377 317.404 516.387 317.436 516.412 317.537C516.437 317.638 516.455 317.73 516.465 317.813C516.476 317.895 516.503 318.019 516.547 318.186C516.589 318.352 516.604 318.419 516.589 318.386C516.574 318.354 516.579 318.391 516.602 318.497C516.625 318.602 516.629 318.719 516.612 318.848C516.595 318.976 516.591 319.038 516.601 319.034C516.609 319.029 516.625 319.052 516.647 319.102C516.667 319.153 516.658 319.165 516.618 319.136C516.577 319.106 516.581 319.118 516.628 319.173C516.675 319.23 516.742 319.289 516.832 319.352C516.921 319.415 516.981 319.45 517.013 319.457C517.045 319.464 517.07 319.464 517.089 319.457C517.106 319.449 517.1 319.454 517.07 319.471C517.041 319.488 517.276 319.549 517.776 319.654C518.275 319.76 518.711 319.795 519.083 319.759C519.456 319.724 519.752 319.7 519.971 319.686C520.19 319.672 520.379 319.669 520.539 319.674C520.697 319.681 520.967 319.683 521.346 319.68C521.726 319.676 522.019 319.677 522.227 319.682C522.435 319.686 522.579 319.673 522.658 319.644C522.738 319.615 522.934 319.61 523.243 319.629C523.678 319.625 524.086 319.638 524.466 319.667C524.848 319.697 525.233 319.736 525.621 319.783C526.01 319.831 526.336 319.854 526.599 319.853C526.862 319.852 527.05 319.847 527.161 319.838C527.271 319.83 527.467 319.83 527.746 319.84C528.025 319.85 528.248 319.843 528.415 319.821C528.581 319.799 528.711 319.778 528.804 319.759C528.897 319.739 529.035 319.72 529.218 319.702C529.4 319.684 529.593 319.676 529.798 319.68C530.001 319.683 530.161 319.688 530.277 319.693C530.392 319.699 530.491 319.675 530.575 319.622C530.657 319.569 530.712 319.539 530.739 319.532C530.766 319.525 530.777 319.524 530.771 319.528C530.764 319.532 530.762 319.536 530.762 319.536C530.763 319.539 530.764 319.542 530.764 319.545C530.764 319.548 530.767 319.543 530.774 319.529C530.78 319.516 530.809 319.461 530.862 319.365C530.915 319.268 530.953 319.202 530.977 319.166C531 319.13 531.022 319.1 531.041 319.076" stroke="#3D5330" stroke-width="4" stroke-linecap="round" stroke-linejoin="round"/>
<path d="M530.586 303.136C530.476 302.988 530.43 302.926 530.448 302.948C530.466 302.97 530.47 302.975 530.463 302.963C530.454 302.95 530.447 302.937 530.441 302.922C530.434 302.908 530.407 302.868 530.361 302.803C530.314 302.739 530.28 302.767 530.259 302.886C530.24 303.005 530.233 303.058 530.239 303.044C530.246 303.031 530.248 303.032 530.245 303.05C530.242 303.067 530.239 303.054 530.235 303.009C530.23 302.964 530.285 303.601 530.402 304.92C530.517 306.241 530.634 307.837 530.752 309.71C530.87 311.582 530.953 312.953 531.002 313.824C531.051 314.694 531.079 315.287 531.086 315.603C531.093 315.917 531.084 316.285 531.061 316.706C531.038 317.126 531.004 317.777 530.96 318.658C530.916 319.538 530.906 319.924 530.929 319.815C530.952 319.708 530.96 319.666 530.951 319.69C530.942 319.715 530.934 319.695 530.926 319.633C530.918 319.571 530.93 319.436 530.962 319.23C530.995 319.024 531.021 318.899 531.041 318.854" stroke="#3D5330" stroke-width="4" stroke-linecap="round" stroke-linejoin="round"/>
<path d="M530.098 303.61C530.126 303.661 530.115 303.65 530.065 303.578C530.015 303.507 529.966 303.4 529.918 303.259C529.871 303.118 529.83 302.984 529.795 302.858C529.76 302.731 529.703 302.47 529.623 302.074C529.544 301.677 529.474 301.36 529.413 301.121C529.352 300.883 529.32 300.708 529.317 300.594C529.314 300.481 529.312 300.402 529.312 300.357" stroke="#3D5330" stroke-width="4" stroke-linecap="round" stroke-linejoin="round"/>
<path d="M336.272 277.008C336.06 276.822 335.968 276.742 335.996 276.767C336.024 276.793 336.015 276.777 335.969 276.718C335.924 276.66 335.848 276.556 335.741 276.407C335.634 276.258 335.601 276.21 335.644 276.263C335.687 276.316 335.69 276.325 335.654 276.288C335.618 276.251 335.588 276.214 335.563 276.176C335.537 276.137 335.481 276.079 335.396 276C335.309 275.922 335.266 275.883 335.265 275.883C335.263 275.883 335.276 275.894 335.304 275.916C335.331 275.938 335.242 275.858 335.037 275.678C334.832 275.499 334.653 275.371 334.501 275.294C334.349 275.218 334.196 275.13 334.043 275.03C333.889 274.931 333.714 274.805 333.516 274.65C333.318 274.496 333.254 274.444 333.323 274.495C333.392 274.546 333.361 274.523 333.231 274.426C333.102 274.329 332.978 274.258 332.862 274.211C332.745 274.165 332.478 274.023 332.06 273.784C331.643 273.546 331.309 273.322 331.057 273.112C330.806 272.903 330.581 272.74 330.383 272.624C330.185 272.509 330.016 272.413 329.876 272.338C329.736 272.262 329.714 272.247 329.807 272.291C329.901 272.336 329.681 272.267 329.147 272.085C328.613 271.902 328.116 271.73 327.655 271.57C327.195 271.408 326.583 271.235 325.82 271.051C325.057 270.867 324.164 270.732 323.141 270.646C322.119 270.561 321.39 270.483 320.954 270.411C320.519 270.339 319.774 270.276 318.718 270.222C317.663 270.168 316.808 270.136 316.153 270.126C315.498 270.118 314.97 270.122 314.57 270.141C314.168 270.159 313.843 270.186 313.596 270.222C313.348 270.258 313.148 270.298 312.996 270.341C312.843 270.384 312.749 270.415 312.715 270.434C312.68 270.453 312.681 270.445 312.717 270.409C312.755 270.373 312.526 270.471 312.03 270.701C311.535 270.932 310.863 271.17 310.011 271.416C309.16 271.663 308.459 271.847 307.908 271.969C307.357 272.091 306.837 272.243 306.348 272.425C305.858 272.607 305.42 272.847 305.035 273.145C304.649 273.443 304.213 273.753 303.726 274.075C303.239 274.397 302.86 274.673 302.59 274.903C302.319 275.131 302.128 275.298 302.019 275.405C301.91 275.51 301.837 275.573 301.801 275.592C301.765 275.611 301.72 275.64 301.666 275.681C301.613 275.72 301.369 275.905 300.934 276.234C300.5 276.563 300.055 276.885 299.597 277.2C299.14 277.514 298.78 277.782 298.515 278.003C298.25 278.222 298.043 278.388 297.893 278.498C297.743 278.609 297.659 278.73 297.639 278.861C297.62 278.992 297.51 279.235 297.311 279.59C297.112 279.944 296.85 280.317 296.524 280.71C296.197 281.101 295.898 281.501 295.624 281.909C295.352 282.316 295.147 282.613 295.007 282.8C294.867 282.985 294.726 283.169 294.586 283.351C294.445 283.533 294.177 283.972 293.784 284.667C293.391 285.362 293.073 285.953 292.83 286.441C292.588 286.928 292.384 287.41 292.22 287.885C292.055 288.359 291.994 288.574 292.037 288.53C292.079 288.486 291.95 288.853 291.65 289.63C291.35 290.407 290.994 291.22 290.583 292.07C290.171 292.92 289.866 293.648 289.667 294.254C289.469 294.86 289.344 295.753 289.294 296.932C289.243 298.113 289.197 299.032 289.156 299.69C289.114 300.349 289.135 300.792 289.219 301.018C289.302 301.245 289.452 302.263 289.67 304.071C289.887 305.879 290.086 307.331 290.266 308.425C290.447 309.518 290.635 310.425 290.829 311.148C291.024 311.869 291.241 312.487 291.479 313.002C291.717 313.518 291.979 313.997 292.266 314.439C292.553 314.882 292.894 315.402 293.289 315.999C293.685 316.595 294.247 317.377 294.975 318.344C295.703 319.312 296.286 320.064 296.724 320.598C297.161 321.133 297.687 321.602 298.302 322.007C298.917 322.411 299.375 322.762 299.676 323.058C300.144 323.384 300.689 323.835 301.313 324.409C301.938 324.982 302.449 325.436 302.847 325.772C303.246 326.107 303.558 326.336 303.782 326.459C304.006 326.582 304.407 326.789 304.984 327.078C305.561 327.366 306.086 327.572 306.56 327.695C307.032 327.817 307.856 328.052 309.029 328.399C310.203 328.747 311.132 329.028 311.817 329.242C312.502 329.455 313.038 329.593 313.426 329.658C313.816 329.723 314.05 329.768 314.128 329.793C314.206 329.82 314.311 329.835 314.442 329.84C314.573 329.846 314.677 329.863 314.753 329.892C314.827 329.921 315.047 329.966 315.414 330.027C315.779 330.088 316.093 330.133 316.356 330.162C316.619 330.191 316.87 330.248 317.11 330.332C317.35 330.416 318.095 330.537 319.343 330.695C320.591 330.854 321.54 330.926 322.19 330.91C322.839 330.895 323.284 330.873 323.525 330.845C323.766 330.817 324.348 330.793 325.271 330.775C326.194 330.757 327.382 330.528 328.836 330.09C330.289 329.651 331.392 329.289 332.143 329.003C332.894 328.717 333.838 328.317 334.977 327.803C336.116 327.29 337.02 326.843 337.688 326.462C338.356 326.083 338.862 325.748 339.204 325.457C339.548 325.167 340.045 324.74 340.695 324.176C341.346 323.613 342.066 323.047 342.856 322.479C343.647 321.91 344.397 321.206 345.106 320.369C345.815 319.532 346.432 318.576 346.956 317.499C347.48 316.423 347.89 315.604 348.185 315.042C348.479 314.482 348.69 314.036 348.818 313.703C348.947 313.371 349.098 313.076 349.271 312.817C349.443 312.558 349.642 311.996 349.867 311.132C350.09 310.267 350.22 309.533 350.256 308.929C350.292 308.325 350.321 307.469 350.345 306.358C350.368 305.249 350.26 303.98 350.022 302.552C349.784 301.123 349.443 299.609 348.999 298.01C348.555 296.409 348.163 295.138 347.824 294.195C347.485 293.252 347.207 292.543 346.99 292.07C346.774 291.598 346.606 291.268 346.486 291.08C346.366 290.893 345.962 290.174 345.273 288.925C344.584 287.676 344.07 286.722 343.731 286.064C343.393 285.404 343.107 284.934 342.874 284.652C342.639 284.371 342.457 284.175 342.328 284.064C342.198 283.954 342.128 283.891 342.118 283.877C342.11 283.862 342.086 283.843 342.049 283.819C342.012 283.794 341.952 283.734 341.87 283.64C341.789 283.545 341.751 283.503 341.758 283.513C341.765 283.523 341.736 283.482 341.671 283.389C341.606 283.296 341.302 282.951 340.76 282.354C340.218 281.756 339.675 281.124 339.13 280.457C338.587 279.79 338.157 279.208 337.84 278.713C337.525 278.216 336.185 277.105 333.822 275.379" stroke="#3D5330" stroke-width="4" stroke-linecap="round" stroke-linejoin="round"/>
<path d="M302.899 342.433C302.828 342.456 302.616 342.414 302.263 342.306C301.909 342.198 301.648 342.118 301.478 342.067C301.309 342.015 301.175 341.996 301.076 342.01C300.977 342.024 300.899 342.047 300.841 342.08C300.782 342.113 300.787 342.102 300.855 342.045C300.925 341.989 300.958 341.965 300.956 341.975C300.953 341.986 300.974 341.993 301.021 341.997C301.068 342 301.072 341.997 301.033 341.988C300.994 341.98 301.182 341.982 301.598 341.993C302.013 342.003 302.706 342.082 303.676 342.229C304.648 342.376 305.584 342.54 306.484 342.719C307.386 342.897 308.244 343.137 309.058 343.44C309.874 343.744 310.373 343.968 310.557 344.111C310.742 344.255 311.381 344.435 312.473 344.651C314.073 344.856 315.147 345.009 315.694 345.112C316.243 345.153 316.734 345.11 317.168 344.984C317.819 344.9 319.143 344.761 321.141 344.567C323.139 344.374 324.697 344.232 325.814 344.143C326.931 344.053 327.708 343.983 328.147 343.933C328.585 343.883 328.903 343.85 329.101 343.832C329.3 343.817 329.784 343.679 330.554 343.417C331.323 343.157 332.346 342.8 333.622 342.345C334.897 341.892 335.882 341.591 336.577 341.442C337.271 341.292 337.946 340.98 338.603 340.507C339.26 340.034 339.746 339.65 340.063 339.352C340.379 339.056 340.613 338.826 340.766 338.663C340.919 338.498 341.076 338.344 341.238 338.2C341.4 338.055 341.476 337.982 341.466 337.979C341.455 337.975 341.44 337.978 341.421 337.989C341.403 337.999 341.444 337.979 341.544 337.929C341.646 337.88 341.751 337.812 341.858 337.724C341.966 337.637 342.03 337.603 342.051 337.62C342.073 337.638 342.087 337.637 342.094 337.618C342.099 337.6 342.053 337.562 341.956 337.505C341.858 337.448 341.716 337.393 341.531 337.341C341.346 337.29 341.23 337.265 341.184 337.266" stroke="#3D5330" stroke-width="4" stroke-linecap="round" stroke-linejoin="round"/>
<path d="M305.923 342.759C305.922 342.746 305.882 342.685 305.801 342.579C305.72 342.472 305.668 342.416 305.646 342.409C305.624 342.403 305.617 342.417 305.626 342.449C305.634 342.48 305.598 342.416 305.515 342.254C305.433 342.093 305.232 341.942 304.914 341.799C304.595 341.657 304.332 341.575 304.124 341.554C303.915 341.533 303.755 341.516 303.641 341.504C303.527 341.494 303.427 341.468 303.341 341.426C303.254 341.384 303.137 341.345 302.988 341.308C302.838 341.273 302.732 341.238 302.67 341.206C302.608 341.173 302.493 341.133 302.327 341.086C302.159 341.041 301.994 340.963 301.83 340.852C301.666 340.743 301.488 340.61 301.294 340.455C301.101 340.3 300.935 340.148 300.796 339.999C300.656 339.851 300.6 339.782 300.626 339.794C300.652 339.806 300.645 339.822 300.605 339.84C300.567 339.858 300.589 339.81 300.672 339.698C300.798 339.592 300.884 339.551 300.931 339.573" stroke="#3D5330" stroke-width="4" stroke-linecap="round" stroke-linejoin="round"/>
<path d="M338.884 340.695C338.719 340.31 338.653 340.146 338.687 340.201C338.72 340.256 338.743 340.216 338.754 340.08C338.766 339.945 338.782 339.879 338.802 339.884C338.822 339.888 338.856 339.813 338.902 339.658C338.95 339.504 338.969 339.423 338.96 339.415C338.953 339.408 338.933 339.356 338.901 339.257C338.869 339.159 339.194 339.094 339.876 339.06C340.556 339.026 341.101 339.05 341.508 339.134C341.916 339.216 342.192 339.29 342.335 339.356C342.477 339.421 342.609 339.467 342.73 339.492C342.851 339.518 342.952 339.537 343.034 339.547C343.115 339.558 343.163 339.567 343.179 339.575C343.195 339.583 343.49 339.582 344.063 339.574C344.663 339.548 344.92 339.591 344.835 339.706C344.95 339.752 345.079 339.792 345.223 339.826C345.366 339.861 345.511 339.887 345.657 339.903C345.802 339.92 345.989 339.949 346.218 339.989C346.445 340.029 346.676 340.074 346.909 340.125C347.143 340.177 347.252 340.202 347.237 340.201C347.222 340.2 347.219 340.204 347.229 340.214C347.238 340.224 347.222 340.221 347.179 340.205C347.136 340.19 347.48 340.307 348.212 340.558C348.944 340.809 349.517 341.041 349.929 341.255C350.342 341.468 350.647 341.629 350.844 341.736C351.042 341.843 351.215 341.938 351.364 342.02C351.881 342.263 352.277 342.467 352.551 342.631C352.824 342.799 352.941 342.872 352.903 342.85C352.864 342.83 352.993 342.904 353.289 343.07C353.583 343.238 353.789 343.364 353.906 343.449C354.023 343.537 354.078 343.598 354.072 343.632C354.146 343.701 354.247 343.766 354.377 343.827C354.507 343.888 354.932 344.212 355.652 344.8C356.372 345.389 357.02 345.944 357.596 346.467C358.172 346.99 358.731 347.535 359.271 348.102C359.811 348.67 360.298 349.157 360.731 349.562C361.164 349.965 361.467 350.245 361.64 350.401C361.813 350.558 361.972 350.702 362.118 350.834C362.263 350.965 362.419 351.118 362.586 351.293C362.753 351.466 363.264 352.114 364.118 353.236C364.972 354.357 365.662 355.225 366.188 355.839C366.715 356.454 367.047 356.92 367.183 357.238C367.319 357.555 367.546 357.983 367.863 358.522C368.182 359.059 368.53 359.705 368.909 360.459C369.288 361.212 369.567 361.786 369.747 362.18C369.927 362.573 370.1 362.931 370.264 363.256C370.43 363.581 370.593 363.878 370.752 364.147C370.912 364.417 371.043 364.63 371.146 364.786C371.25 364.943 371.36 365.095 371.476 365.242C371.593 365.389 371.93 365.945 372.487 366.911C373.044 367.876 373.503 368.675 373.865 369.308C374.227 369.942 374.688 370.82 375.25 371.94C375.81 373.061 376.287 374.037 376.679 374.869C377.071 375.699 377.373 376.419 377.584 377.027C377.795 377.635 378.011 378.248 378.23 378.865C378.451 379.483 378.608 379.94 378.7 380.238C378.793 380.535 378.905 380.848 379.038 381.176C379.171 381.503 379.253 381.773 379.285 381.986C379.317 382.199 379.314 382.294 379.275 382.272C379.236 382.25 379.178 382.216 379.101 382.172" stroke="#3D5330" stroke-width="4" stroke-linecap="round" stroke-linejoin="round"/>
<path d="M301.493 341.241C301.569 341.202 301.502 341.058 301.294 340.81C301.085 340.562 300.922 340.375 300.806 340.249C300.69 340.125 300.598 340.034 300.53 339.978C300.462 339.922 300.339 339.874 300.16 339.836C299.979 339.796 299.741 339.895 299.445 340.132C299.424 340.344 299.054 340.538 298.336 340.714C297.893 340.866 297.506 341.001 297.174 341.119C296.842 341.238 296.607 341.329 296.468 341.392C296.33 341.456 296.194 341.527 296.06 341.604C295.928 341.682 295.824 341.748 295.749 341.803C295.676 341.859 295.594 341.91 295.505 341.959C295.415 342.008 295.361 342.043 295.343 342.063C295.325 342.084 295.224 342.16 295.039 342.291C294.854 342.424 294.699 342.542 294.573 342.644C294.447 342.748 294.277 342.874 294.064 343.022C293.852 343.171 293.747 343.242 293.749 343.234C293.751 343.227 293.661 343.271 293.479 343.366C293.296 343.462 293.211 343.512 293.225 343.517C293.238 343.523 293.023 343.66 292.58 343.93C292.137 344.2 291.79 344.419 291.538 344.587C291.287 344.756 291.091 344.897 290.948 345.011C290.807 345.125 290.598 345.264 290.321 345.427C290.045 345.589 289.425 345.975 288.462 346.585C287.498 347.196 286.573 347.97 285.687 348.908C284.8 349.846 284.131 350.634 283.681 351.272C283.232 351.911 282.764 352.696 282.278 353.629C281.793 354.562 281.291 355.473 280.773 356.363C280.256 357.254 279.688 358.061 279.069 358.785C278.45 359.508 277.824 360.234 277.189 360.961C276.556 361.688 276.009 362.473 275.549 363.317C275.09 364.162 274.64 365.165 274.197 366.326C273.754 367.488 273.286 369.579 272.792 372.6C272.299 375.621 271.928 377.935 271.677 379.54C271.425 381.144 271.236 382.412 271.112 383.343C270.986 384.273 270.88 385.205 270.795 386.137C270.71 387.068 270.747 387.494 270.907 387.415C271.066 387.335 271.211 387.045 271.343 386.544C271.475 386.042 271.567 385.714 271.617 385.559" stroke="#3D5330" stroke-width="4" stroke-linecap="round" stroke-linejoin="round"/>
<path d="M271.361 384.345C271.214 384.446 271.14 384.496 271.138 384.493C271.136 384.49 271.139 384.462 271.146 384.409C271.153 384.357 271.131 384.433 271.078 384.64C271.025 384.845 271.023 385.016 271.074 385.154C271.124 385.291 271.185 385.41 271.255 385.511C271.326 385.611 271.413 385.724 271.515 385.851C271.619 385.979 271.659 386.022 271.636 385.982C271.613 385.941 271.637 385.973 271.71 386.077C271.784 386.181 271.981 386.397 272.303 386.725C272.624 387.052 272.92 387.294 273.19 387.45C273.461 387.606 273.764 387.733 274.097 387.832C274.43 387.93 274.796 388.023 275.195 388.11C275.593 388.196 275.943 388.272 276.247 388.335C276.551 388.4 277.123 388.46 277.965 388.516C278.807 388.572 279.783 388.569 280.893 388.507C282.004 388.445 283.338 388.472 284.894 388.59C286.45 388.706 287.973 388.763 289.463 388.762C290.952 388.761 292.21 388.796 293.238 388.865C294.265 388.935 295.635 389.008 297.346 389.083C299.057 389.158 300.518 389.165 301.728 389.105C302.94 389.045 303.852 388.984 304.464 388.921C305.076 388.859 306.149 388.813 307.684 388.784C309.219 388.755 310.846 388.781 312.565 388.863C314.285 388.944 315.623 389.018 316.58 389.085C317.537 389.151 319.046 389.124 321.109 389.005C323.172 388.886 324.824 388.813 326.066 388.786C327.307 388.757 328.583 388.646 329.893 388.453C331.203 388.26 332.702 388.035 334.388 387.778C336.074 387.52 337.64 387.342 339.088 387.243C340.535 387.146 342.079 387.12 343.721 387.165C345.361 387.211 346.583 387.216 347.386 387.182C348.189 387.149 350.137 387.198 353.229 387.329C356.321 387.46 358.752 387.536 360.521 387.559C362.292 387.581 363.569 387.593 364.352 387.595C365.136 387.598 365.75 387.584 366.194 387.553C366.638 387.522 366.983 387.498 367.227 387.48C367.471 387.463 367.662 387.447 367.799 387.434C367.937 387.421 368.618 387.377 369.844 387.302C371.071 387.226 372.161 387.105 373.113 386.937C374.066 386.771 375.015 386.568 375.96 386.329C376.905 386.09 377.562 385.945 377.931 385.894C378.299 385.844 378.491 385.784 378.506 385.716C378.521 385.647 378.533 385.599 378.544 385.572C378.555 385.544 378.569 385.477 378.586 385.373C378.604 385.267 378.617 385.194 378.625 385.152C378.635 385.111 378.679 385.062 378.758 385.007C378.835 384.953 378.86 384.936 378.832 384.955C378.804 384.975 378.811 384.946 378.855 384.868" stroke="#3D5330" stroke-width="4" stroke-linecap="round" stroke-linejoin="round"/>
<path d="M86.7747 154.606C86.5172 154.373 86.399 154.26 86.4203 154.268C86.4416 154.276 86.4271 154.246 86.3767 154.18C86.3273 154.114 86.3056 154.096 86.3114 154.126C86.3172 154.155 86.2654 153.936 86.1559 153.471C86.0465 153.006 85.8131 152.337 85.4557 151.465C85.0984 150.594 84.6912 149.904 84.2341 149.395C83.778 148.885 83.4637 148.552 83.2914 148.395C83.119 148.239 82.9805 148.12 82.8759 148.035C82.7723 147.952 82.6052 147.837 82.3747 147.691C82.1433 147.546 81.9797 147.445 81.8838 147.389C81.7879 147.333 81.6238 147.213 81.3914 147.03C81.158 146.847 80.8079 146.57 80.3411 146.2C79.8753 145.828 79.5034 145.531 79.2255 145.308C78.9485 145.086 78.7088 144.91 78.5064 144.778C78.304 144.645 78.1994 144.585 78.1927 144.598C78.1849 144.61 77.9927 144.508 77.616 144.292C77.2393 144.076 76.8621 143.867 76.4844 143.666C76.1077 143.463 75.7886 143.295 75.5271 143.16C75.2657 143.027 75.0749 142.923 74.9548 142.848C74.8347 142.774 74.7669 142.737 74.7514 142.739C74.7359 142.74 74.7485 142.757 74.7892 142.789C74.8289 142.821 74.3738 142.512 73.4237 141.862C72.4728 141.212 71.5295 140.699 70.5941 140.324C69.6586 139.951 68.803 139.641 68.0273 139.395C67.2516 139.148 66.656 138.983 66.2406 138.898C65.8251 138.814 65.3637 138.717 64.8562 138.606C64.3478 138.496 63.3034 138.393 61.7229 138.298C60.1435 138.205 58.5538 138.277 56.954 138.518C55.3551 138.759 54.1233 138.977 53.2586 139.173C52.3938 139.368 51.2675 139.899 49.8797 140.766C48.492 141.632 47.39 142.308 46.5736 142.794C45.7572 143.281 45.2014 143.706 44.906 144.068C44.6097 144.43 44.1177 144.941 43.4301 145.6C42.7435 146.258 41.9979 146.994 41.1931 147.807C40.3884 148.62 39.7022 149.899 39.1347 151.645C38.5673 153.391 38.1291 155.007 37.8201 156.494C37.5102 157.979 37.2958 159.06 37.1766 159.737C37.0585 160.413 36.9423 161.456 36.828 162.866C36.7147 164.277 36.7021 165.613 36.7903 166.873C36.8774 168.133 37.0023 169.066 37.165 169.673C37.3267 170.281 37.4488 170.755 37.5311 171.096C37.6134 171.437 37.7102 171.757 37.8216 172.056C37.933 172.354 38.0356 172.662 38.1296 172.978C38.2235 173.295 38.3199 173.608 38.4186 173.918C38.5164 174.226 38.7387 174.775 39.0854 175.563C39.4311 176.351 39.7066 176.959 39.9119 177.387C40.1182 177.816 40.2828 178.176 40.4058 178.469C40.5288 178.761 40.5932 178.924 40.599 178.957C40.6058 178.99 40.6954 179.142 40.8678 179.413C41.0401 179.683 41.1733 179.916 41.2672 180.114C41.3621 180.311 41.3834 180.36 41.3311 180.259C41.2788 180.159 41.4875 180.461 41.9572 181.167C42.4269 181.874 43.0161 182.596 43.725 183.333C44.4349 184.072 45.0677 184.686 45.6236 185.176C46.1795 185.667 46.7242 186.081 47.2578 186.418C47.7904 186.755 48.2049 186.992 48.5012 187.128C48.7966 187.264 49.0867 187.401 49.3714 187.542C49.6561 187.682 50.0909 187.812 50.6758 187.931C51.2607 188.05 52.3763 188.328 54.0226 188.766C55.6699 189.204 57.5021 189.541 59.5193 189.777C61.5375 190.014 63.2119 190.09 64.5425 190.006C65.874 189.922 66.9407 189.844 67.7426 189.773C68.5454 189.701 69.7748 189.439 71.4307 188.988C73.0877 188.536 74.443 188.076 75.4966 187.609C76.5503 187.14 77.4993 186.684 78.3437 186.241C79.1882 185.797 80.1881 185.354 81.3434 184.912C82.4977 184.468 83.5073 183.913 84.3721 183.246C85.2369 182.578 85.9932 181.706 86.6411 180.629C87.289 179.554 87.7577 178.67 88.0472 177.976C88.3368 177.282 88.5498 176.742 88.6864 176.356C88.8229 175.969 89.0931 175.337 89.4969 174.461C89.9008 173.584 90.1889 172.118 90.3612 170.065C90.5327 168.012 90.5631 166.359 90.4527 165.106C90.3414 163.851 90.1816 162.897 89.9734 162.242C89.7662 161.588 89.6374 161.191 89.587 161.054C89.5367 160.916 89.4858 160.763 89.4345 160.597C89.3822 160.43 89.2984 160.218 89.1832 159.959C89.0679 159.7 88.9963 159.533 88.9682 159.46C88.9401 159.385 88.8699 159.216 88.7576 158.954C88.6452 158.693 88.4656 158.344 88.2186 157.907C87.9717 157.471 87.7611 157.085 87.5867 156.75C87.4134 156.415 87.0565 155.639 86.5162 154.422C85.9758 153.206 85.5337 152.239 85.1899 151.522C84.8471 150.806 84.4404 150.295 83.9697 149.99C83.4991 149.684 83.1054 149.429 82.7887 149.226C82.473 149.023 82.2765 148.888 82.199 148.822" stroke="#3D5330" stroke-width="4" stroke-linecap="round" stroke-linejoin="round"/>
<path d="M221.122 148.326C221.122 148.282 221.122 148.149 221.122 147.926C221.122 147.704 221.121 147.598 221.12 147.608C221.118 147.62 221.114 147.617 221.109 147.598C221.104 147.58 221.091 147.527 221.069 147.438C221.048 147.351 221.056 147.323 221.093 147.354C221.128 147.385 221.094 147.256 220.989 146.965C220.885 146.674 220.731 146.449 220.529 146.293C220.327 146.136 220.122 145.871 219.916 145.498C219.71 145.127 219.529 144.915 219.374 144.862C219.218 144.811 218.982 144.693 218.665 144.508C218.349 144.323 218.094 144.189 217.903 144.104C217.711 144.02 217.573 143.936 217.489 143.853C217.404 143.771 217.27 143.624 217.086 143.412C216.901 143.2 216.776 143.089 216.712 143.08C216.646 143.071 216.641 143.085 216.698 143.124C216.756 143.163 216.425 143.112 215.706 142.972C214.989 142.831 214.335 142.595 213.744 142.262C213.152 141.928 212.713 141.712 212.428 141.611C212.142 141.51 211.938 141.463 211.816 141.47C211.694 141.477 211.594 141.466 211.517 141.438C211.439 141.41 211.324 141.362 211.171 141.294C211.018 141.227 210.803 141.162 210.526 141.1C210.249 141.038 210.025 140.985 209.854 140.94C209.682 140.896 209.56 140.856 209.488 140.822C209.416 140.788 209.391 140.777 209.412 140.791C209.434 140.803 209.457 140.823 209.479 140.849C209.501 140.875 209.271 140.766 208.787 140.522C208.304 140.277 207.582 139.994 206.62 139.674C205.658 139.353 204.887 139.149 204.308 139.062C203.728 138.975 203.288 138.909 202.987 138.863C202.686 138.819 202.491 138.792 202.402 138.782C202.313 138.772 202.201 138.768 202.066 138.77C201.933 138.773 201.876 138.779 201.898 138.789C201.918 138.799 201.843 138.778 201.673 138.725C201.502 138.673 201.053 138.717 200.325 138.858C199.596 138.999 199.017 139.131 198.586 139.255C198.154 139.379 197.798 139.488 197.518 139.582C197.237 139.677 196.932 139.777 196.603 139.882C196.273 139.986 195.782 140.175 195.131 140.448C194.481 140.72 193.958 140.956 193.564 141.158C193.169 141.358 192.635 141.559 191.963 141.761C191.29 141.961 190.816 142.087 190.54 142.14C190.264 142.192 189.994 142.231 189.729 142.257C189.465 142.284 189.207 142.285 188.955 142.259C188.704 142.233 188.447 142.324 188.184 142.532C187.92 142.741 187.661 142.89 187.405 142.979C187.149 143.068 186.958 143.172 186.83 143.291C186.703 143.409 186.607 143.494 186.541 143.545C186.474 143.597 186.331 143.61 186.112 143.586C185.893 143.562 185.71 143.553 185.562 143.558C185.413 143.565 185.23 143.625 185.011 143.739C184.793 143.853 184.685 143.915 184.686 143.924C184.687 143.933 184.645 143.954 184.561 143.987C184.476 144.019 184.317 144.076 184.081 144.159C183.846 144.242 183.629 144.392 183.429 144.61C183.231 144.827 183.06 144.981 182.916 145.07C182.773 145.159 182.497 145.585 182.087 146.348C181.677 147.111 181.38 147.73 181.195 148.207C181.01 148.682 180.872 149.031 180.78 149.252C180.688 149.475 180.451 150.235 180.071 151.532C179.689 152.829 179.31 153.962 178.933 154.932C178.557 155.901 178.292 156.622 178.14 157.094C177.988 157.568 177.895 157.866 177.86 157.989C177.824 158.112 177.787 158.25 177.748 158.402C177.708 158.554 177.686 158.664 177.681 158.729C177.675 158.794 177.595 159.057 177.441 159.519C177.288 159.981 177.149 160.663 177.026 161.564C176.903 162.464 176.818 163.601 176.77 164.973C176.722 166.346 176.698 167.419 176.698 168.19C176.698 168.962 176.707 169.705 176.727 170.419C176.745 171.133 176.783 171.78 176.84 172.361C176.897 172.941 177.087 173.663 177.41 174.526C177.731 175.389 178.151 176.233 178.67 177.059C179.189 177.884 179.629 178.629 179.992 179.291C180.354 179.953 180.992 180.685 181.904 181.488C182.815 182.29 183.537 182.876 184.07 183.245C184.601 183.615 185.112 183.914 185.601 184.143C186.089 184.371 186.515 184.564 186.879 184.72C187.242 184.877 187.54 184.986 187.771 185.047C188.002 185.108 188.186 185.168 188.326 185.227C188.465 185.286 188.676 185.372 188.958 185.486C189.24 185.6 189.417 185.67 189.489 185.695C189.561 185.72 189.661 185.757 189.789 185.807C189.916 185.856 190.123 185.945 190.41 186.074C190.697 186.201 190.909 186.297 191.045 186.361C191.182 186.424 191.34 186.496 191.519 186.576C191.699 186.657 191.875 186.743 192.048 186.835C192.22 186.927 192.336 186.995 192.396 187.041C192.456 187.087 192.52 187.111 192.586 187.111C192.653 187.111 192.63 187.105 192.517 187.092C192.404 187.079 192.687 187.192 193.365 187.429C194.044 187.666 194.608 187.806 195.056 187.85C195.504 187.893 195.905 187.942 196.259 187.998C196.611 188.054 196.955 188.111 197.291 188.168C197.627 188.225 197.813 188.242 197.852 188.22C197.89 188.199 197.985 188.248 198.137 188.368C198.289 188.489 198.86 188.6 199.85 188.699C200.839 188.799 202.12 188.65 203.692 188.253C205.263 187.856 206.855 187.626 208.465 187.561C210.076 187.496 211.173 187.473 211.754 187.493C212.336 187.512 213.19 187.392 214.318 187.134C215.444 186.876 216.841 186.404 218.51 185.715C220.177 185.028 221.412 184.421 222.213 183.895C223.013 183.371 223.655 182.897 224.139 182.475C224.622 182.053 224.907 181.724 224.994 181.486C225.081 181.248 225.17 181.065 225.259 180.938C225.348 180.811 225.483 180.617 225.664 180.356C225.846 180.096 226.207 179.544 226.746 178.701C227.286 177.857 227.642 177.258 227.815 176.905C227.988 176.55 228.172 176.255 228.367 176.019C228.563 175.783 228.788 175.384 229.043 174.822C229.296 174.26 229.382 173.288 229.3 171.908C229.218 170.527 229.126 169.432 229.025 168.622C228.925 167.811 228.783 166.978 228.601 166.121C228.419 165.264 228.296 164.427 228.232 163.61C228.168 162.793 228.047 162.067 227.868 161.433C227.687 160.799 227.55 160.355 227.455 160.101C227.36 159.847 227.279 159.592 227.212 159.336C227.146 159.081 227.039 158.758 226.893 158.369C226.747 157.979 226.68 157.758 226.694 157.705C226.706 157.652 226.595 157.321 226.358 156.711C226.122 156.102 225.839 155.573 225.509 155.126C225.178 154.679 224.921 154.363 224.736 154.178C224.551 153.992 224.2 153.584 223.683 152.953C223.165 152.32 222.779 151.812 222.523 151.428C222.268 151.043 222.04 150.762 221.841 150.585C221.641 150.407 221.493 150.145 221.398 149.798C221.302 149.453 221.203 149.37 221.1 149.551C220.996 149.733 220.878 149.733 220.745 149.551C220.614 149.37 220.54 149.288 220.523 149.305C220.507 149.321 220.498 149.338 220.498 149.354C220.498 149.37 220.464 149.317 220.395 149.193C220.327 149.069 220.306 149.014 220.33 149.029C220.354 149.043 220.377 149.036 220.4 149.008C220.421 148.981 220.451 148.943 220.49 148.893C220.527 148.844 220.563 148.787 220.596 148.721" stroke="#3D5330" stroke-width="4" stroke-linecap="round" stroke-linejoin="round"/>
<path d="M230.37 157.492C230.366 157.493 230.12 157.559 229.632 157.691C229.144 157.823 228.745 157.938 228.434 158.038C228.123 158.138 227.946 158.183 227.902 158.175C227.857 158.167 227.774 158.177 227.651 158.204C227.528 158.231 227.424 158.245 227.34 158.247C227.256 158.25 227.207 158.259 227.193 158.273C227.18 158.288 227.347 158.287 227.696 158.272C228.044 158.255 228.284 158.228 228.413 158.189C228.544 158.149 228.658 158.129 228.756 158.127C228.854 158.125 228.87 158.121 228.804 158.116C228.737 158.113 228.955 158.048 229.456 157.922C229.959 157.797 230.637 157.796 231.491 157.918C232.346 158.039 233.219 158.217 234.11 158.452C235.001 158.686 235.657 158.854 236.077 158.956C236.497 159.057 236.88 159.126 237.226 159.165C237.572 159.205 237.851 159.243 238.064 159.28C238.277 159.317 238.386 159.34 238.39 159.35C238.395 159.359 238.447 159.368 238.547 159.375C238.647 159.382 238.805 159.409 239.023 159.456C239.24 159.502 239.664 159.506 240.296 159.468C240.926 159.432 241.519 159.393 242.075 159.352C242.631 159.311 243.107 159.274 243.503 159.242C243.9 159.21 244.311 159.214 244.736 159.253C245.16 159.294 245.507 159.317 245.775 159.32C246.043 159.325 246.274 159.328 246.468 159.329C246.662 159.331 246.732 159.33 246.68 159.326C246.627 159.322 246.712 159.315 246.937 159.305C247.161 159.294 247.679 159.337 248.491 159.435C249.304 159.533 249.722 159.521 249.745 159.399C249.768 159.276 249.824 158.869 249.913 158.179C250.003 157.488 250.055 156.935 250.07 156.521C250.086 156.105 250.105 155.731 250.127 155.399C250.149 155.067 250.199 154.494 250.277 153.68C250.355 152.867 250.458 151.66 250.586 150.06C250.714 148.46 250.77 147.24 250.755 146.397C250.738 145.556 250.676 144.881 250.567 144.373C250.46 143.866 250.372 142.751 250.304 141.029C250.236 139.306 250.19 137.975 250.166 137.034C250.142 136.092 250.107 135.389 250.062 134.925C250.016 134.461 249.974 134.091 249.937 133.814C249.899 133.538 249.909 133.386 249.967 133.36C250.026 133.333 249.951 132.376 249.741 130.486C249.53 128.597 249.39 127.157 249.318 126.167C249.247 125.177 249.181 124.476 249.119 124.064C249.057 123.653 249.027 123.32 249.029 123.065C249.03 122.811 249.034 122.716 249.042 122.781C249.05 122.844 248.992 122.417 248.868 121.498C248.743 120.578 248.696 119.273 248.728 117.582C249.946 115.531 250.463 114.21 250.277 113.617C250.086 113.006 249.713 112.016 249.157 110.646C248.61 109.188 248.297 108.085 248.217 107.337C248.136 106.589 247.915 104.936 247.551 102.376C247.189 99.8152 246.979 97.674 246.921 95.9517C246.863 94.2284 246.834 93.4229 246.834 93.5352C246.834 93.6475 246.834 93.7791 246.834 93.9301C246.834 94.0812 246.791 94.056 246.706 93.8546C246.62 93.6542 246.587 93.572 246.607 93.6079C246.627 93.6446 246.57 93.5855 246.437 93.4306C246.305 93.2757 246.261 92.9696 246.307 92.5127" stroke="#3D5330" stroke-width="4" stroke-linecap="round" stroke-linejoin="round"/>
<path d="M247.162 93.861C246.732 93.5773 246.554 93.4567 246.626 93.4993C246.699 93.5429 246.704 93.5164 246.642 93.4196C246.58 93.3218 246.541 93.2776 246.526 93.2873C246.511 93.297 246.496 93.2109 246.479 93.0289C246.463 92.8469 245.967 92.3231 244.992 91.4576C244.017 90.593 243.201 89.9062 242.544 89.397C241.887 88.8897 241.423 88.5443 241.154 88.3603C240.886 88.1764 240.63 87.9375 240.387 87.6442C240.144 87.3508 239.867 87.0659 239.555 86.789C239.242 86.5121 238.817 86.0502 238.281 85.4035C237.745 84.7558 237.289 84.1542 236.911 83.5985C236.533 83.0428 235.919 82.171 235.069 80.9831C234.219 79.7952 233.255 78.7948 232.179 77.9816C231.102 77.1674 230.221 76.4838 229.536 75.931C228.852 75.3791 228.322 74.9485 227.944 74.6387C227.566 74.3299 227.291 74.0958 227.119 73.9371C226.945 73.7793 226.839 73.6698 226.802 73.6088C226.766 73.5478 226.36 73.1988 225.587 72.5618C224.813 71.9248 224.152 71.3431 223.604 70.8164C223.056 70.2898 222.619 69.7598 222.295 69.2263C221.971 68.6939 221.525 67.9038 220.957 66.8563C220.389 65.8107 219.581 64.8399 218.536 63.9434C217.49 63.0469 216.439 62.1288 215.385 61.1897C214.331 60.2506 213.332 59.3849 212.387 58.592C211.442 57.7991 210.598 57.0019 209.855 56.2003C209.111 55.3977 208.681 54.8545 208.565 54.5709C208.449 54.2862 208.136 53.8035 207.626 53.1229C207.117 52.4433 206.64 51.8718 206.196 51.408C205.752 50.9433 205.409 50.5891 205.166 50.3451C204.923 50.1012 204.703 49.902 204.506 49.7481C204.309 49.5951 204.182 49.5006 204.127 49.4648C204.073 49.429 204.051 49.414 204.062 49.4198C204.073 49.4256 203.986 49.3712 203.799 49.256C203.613 49.1398 203.466 49.0559 203.357 49.0046C203.25 48.9533 202.97 48.7789 202.519 48.4817C202.069 48.1845 201.73 47.9327 201.504 47.7265C201.278 47.5203 201.181 47.4328 201.212 47.4638C201.242 47.4948 201.053 47.4091 200.647 47.2068C200.239 47.0044 199.998 46.8772 199.925 46.8249C199.85 46.7717 199.74 46.6803 199.593 46.5505C199.447 46.4208 199.297 46.3171 199.143 46.2396C198.989 46.1622 198.902 46.14 198.88 46.1729C198.858 46.2059 198.836 46.2386 198.813 46.2715C198.792 46.3044 198.748 46.2784 198.681 46.1932C198.614 46.108 198.562 46.0651 198.524 46.0641C198.486 46.0631 198.488 46.0698 198.533 46.0843C198.579 46.0988 198.575 46.0949 198.523 46.0726C198.471 46.0503 198.298 45.9677 198.006 45.8244C197.712 45.6821 197.559 45.6159 197.547 45.6255C197.534 45.6362 197.408 45.6115 197.168 45.5514C196.927 45.4924 196.861 45.473 196.967 45.4933C197.074 45.5127 197.036 45.5021 196.855 45.4614C196.673 45.4198 196.596 45.3893 196.624 45.3699C196.652 45.3496 196.563 45.3276 196.356 45.3043C196.149 45.2811 195.806 45.2647 195.326 45.2551C194.846 45.2463 194.407 45.2353 194.007 45.2217C193.607 45.2091 193.369 45.2126 193.293 45.232C193.219 45.2523 193.139 45.2532 193.054 45.2348C192.969 45.2155 192.884 45.2067 192.8 45.2086C192.714 45.2105 192.687 45.1942 192.718 45.1593C192.748 45.1245 191.773 45.1192 189.791 45.1434C187.81 45.1676 186.186 45.1879 184.919 45.2044C183.651 45.2208 182.804 45.1776 182.377 45.0749C181.949 44.9723 181.529 44.8937 181.116 44.8385C180.704 44.7843 180.365 44.7728 180.099 44.8048C179.835 44.8377 179.674 44.8629 179.617 44.8803C179.56 44.8987 179.397 44.9225 179.129 44.9516C178.86 44.9816 178.071 45.0222 176.763 45.0735C175.454 45.1258 174.451 45.1669 173.753 45.1969C173.055 45.2269 172.546 45.2909 172.228 45.3887C171.909 45.4855 171.601 45.5372 171.304 45.544C171.006 45.5498 170.853 45.541 170.845 45.5178C170.835 45.4945 170.854 45.4481 170.901 45.3784C170.949 45.3078 171.011 45.2455 171.087 45.1912" stroke="#3D5330" stroke-width="4" stroke-linecap="round" stroke-linejoin="round"/>
<path d="M175.984 159.415C176.149 159.168 176.223 159.057 176.208 159.082C176.192 159.107 176.264 159.057 176.423 158.933C176.582 158.808 176.638 158.762 176.591 158.795C176.545 158.827 176.572 158.82 176.671 158.776C176.77 158.731 176.817 158.716 176.812 158.729C176.807 158.743 176.818 158.75 176.843 158.751C176.869 158.752 176.89 158.756 176.907 158.763C176.924 158.77 176.83 158.775 176.625 158.78C176.421 158.784 176.32 158.794 176.323 158.809C176.326 158.825 176.242 158.822 176.073 158.802C175.903 158.78 175.822 158.775 175.829 158.784C175.837 158.793 175.774 158.819 175.641 158.863C175.509 158.905 175.024 158.919 174.186 158.902C173.347 158.885 171.95 158.864 169.995 158.841C168.039 158.817 166.494 158.809 165.36 158.816C164.226 158.824 163.377 158.766 162.813 158.641C162.25 158.515 161.464 158.398 160.457 158.289C159.45 158.182 158.251 158.217 156.861 158.394C155.469 158.571 154.314 158.721 153.395 158.843C152.476 158.965 151.225 159.066 149.642 159.147C148.059 159.228 146.344 159.308 144.497 159.389C142.651 159.469 141.229 159.505 140.234 159.497C139.237 159.49 138.485 159.526 137.977 159.605C137.468 159.686 136.836 159.799 136.081 159.945C135.326 160.09 134.21 160.261 132.736 160.459C131.262 160.656 129.693 160.806 128.031 160.906C126.367 161.007 125.014 161.081 123.973 161.128C122.931 161.177 121.897 161.2 120.871 161.197C119.844 161.195 118.014 161.454 115.381 161.973C112.748 162.492 110.741 162.926 109.359 163.273C107.977 163.62 106.429 163.809 104.716 163.841C103.003 163.874 101.712 163.862 100.842 163.805C99.9723 163.748 99.3636 163.747 99.016 163.803C98.6673 163.86 98.3579 163.902 98.0877 163.928C97.8176 163.954 97.5914 163.983 97.4094 164.014C97.2283 164.045 97.0714 164.069 96.9387 164.085C96.806 164.102 96.6709 164.122 96.5334 164.147C96.3959 164.173 96.2589 164.196 96.1224 164.218C95.9848 164.24 95.9427 164.247 95.996 164.239C96.0492 164.231 95.9877 164.236 95.8115 164.254C95.6352 164.271 95.3113 164.314 94.8397 164.383C94.3671 164.451 93.9439 164.502 93.5701 164.534C93.1972 164.565 92.8961 164.588 92.6666 164.603C92.4361 164.618 92.2807 164.63 92.2003 164.64C92.1189 164.649 92.026 164.662 91.9214 164.679C91.8178 164.695 91.6904 164.723 91.5394 164.762C91.3893 164.801 91.3287 164.818 91.3578 164.81C91.3868 164.803 91.4154 164.797 91.4435 164.792C91.4706 164.788 91.3302 164.824 91.0222 164.898C90.7142 164.974 90.5409 165.034 90.5022 165.08C90.4644 165.126 90.6475 165.155 91.0513 165.167C91.4551 165.178 91.7142 165.175 91.8284 165.157" stroke="#3D5330" stroke-width="4" stroke-linecap="round" stroke-linejoin="round"/>
<path d="M10.5052 16.1533C10.5227 16.3227 10.5304 16.3956 10.5285 16.3714C10.5256 16.3462 10.5309 16.3974 10.5445 16.5252C10.558 16.653 10.5638 16.7087 10.5619 16.6922C10.56 16.6748 10.5502 16.6593 10.5328 16.6458C10.5154 16.6322 10.5052 16.831 10.5023 17.2425C10.4994 17.6539 10.5057 17.9706 10.5212 18.1923C10.5454 18.4856 10.542 18.7987 10.5111 19.1318C10.4791 19.4638 10.4989 19.8834 10.5706 20.3907C10.6413 20.898 10.6849 21.3914 10.7014 21.8706C10.7169 22.3508 10.7188 22.9514 10.7072 23.6727C10.6955 24.393 10.6965 24.9362 10.71 25.3021C10.7246 25.6691 10.6679 26.2711 10.5401 27.1085C10.4123 27.9459 10.3053 29.1402 10.2191 30.6911C10.1319 32.2411 10.0588 33.4207 9.99975 34.2301C9.94067 35.0394 9.92952 35.7889 9.96632 36.4782C10.0031 37.1675 9.99975 38.0252 9.95617 39.0514C9.91259 40.0786 9.87576 41.298 9.84574 42.7095C9.81572 44.1201 9.83173 45.2154 9.89371 45.9957C9.95569 46.777 9.99634 47.5345 10.0157 48.2683C10.036 49.0021 10.0486 49.6271 10.0535 50.1431C10.0593 50.6591 10.1314 52.6536 10.2699 56.1262C10.4093 59.5989 10.5072 62.3178 10.5634 64.2831C10.6186 66.2484 10.7028 67.7513 10.8161 68.7921C10.9294 69.8309 11.0267 70.6859 11.1081 71.3568C11.1904 72.0277 11.34 73.9874 11.5569 77.2364C11.7729 80.4864 11.9196 83.1673 11.9971 85.2787C12.0755 87.3902 12.1762 89.1957 12.2992 90.6953C12.4222 92.194 12.5602 93.9615 12.7132 95.9974C12.8672 98.0324 12.9635 99.6503 13.0023 100.852C13.04 102.053 13.1117 103.46 13.2173 105.072C13.3219 106.685 13.4545 108.326 13.6153 109.995C13.776 111.664 13.9537 113.168 14.1484 114.507C14.343 115.846 14.4554 117.595 14.4854 119.753C14.5154 121.911 14.4995 123.531 14.4375 124.611C14.3755 125.691 14.3358 126.574 14.3184 127.258C14.3009 127.943 14.239 128.829 14.1324 129.917C14.0249 131.006 13.9547 132.16 13.9218 133.379C13.8889 134.599 13.8477 135.486 13.7983 136.04C13.7489 136.594 13.7378 137.044 13.7649 137.39C13.792 137.736 13.8327 137.977 13.8869 138.112C13.9412 138.248 13.9683 138.333 13.9683 138.368C13.9693 138.402 13.9678 138.417 13.9639 138.414C13.961 138.41 13.9605 138.409 13.9625 138.41C13.9644 138.412 13.9533 138.437 13.929 138.487C13.9048 138.536 13.869 138.598 13.8215 138.671C13.7731 138.745 13.7412 138.794 13.7257 138.819" stroke="#3D5330" stroke-width="4" stroke-linecap="round" stroke-linejoin="round"/>
<path d="M14.2996 138.215C14.4032 138.221 14.4177 138.114 14.3432 137.895C14.2686 137.677 14.2275 137.603 14.2197 137.675C14.2129 137.746 14.2091 137.779 14.2081 137.775C14.2062 137.77 14.2057 137.78 14.2066 137.804C14.2066 137.827 14.2032 137.82 14.1964 137.782C14.1897 137.744 14.1519 138.257 14.0831 139.323C14.0144 140.389 13.9417 141.506 13.8652 142.675C13.7887 143.843 13.7418 144.736 13.7244 145.352C13.7079 145.969 13.6425 146.664 13.5282 147.438C13.414 148.211 13.32 149.132 13.2464 150.199C13.1738 151.265 13.1438 152.056 13.1564 152.573C13.169 153.091 13.1646 153.469 13.1433 153.707C13.123 153.945 13.0373 154.475 12.8862 155.297C12.7351 156.119 12.6407 156.939 12.6029 157.757C12.5642 158.576 12.5458 159.263 12.5477 159.818C12.5497 160.374 12.5681 160.777 12.6029 161.029C12.6368 161.28 12.6838 161.47 12.7438 161.599C12.8029 161.729 12.8392 161.85 12.8528 161.963C12.8654 162.074 12.8741 162.131 12.8789 162.133C12.8838 162.134 12.8847 162.126 12.8818 162.111C12.8799 162.095 12.8988 162.128 12.9385 162.208C12.9772 162.289 13.0513 162.418 13.1607 162.597C13.2702 162.776 13.3423 162.907 13.3772 162.988C13.413 163.069 13.4271 163.115 13.4193 163.124C13.4106 163.134 13.4023 163.144 13.3946 163.153C13.3868 163.164 13.4125 163.242 13.4716 163.387C13.5307 163.532 13.5549 163.591 13.5442 163.561C13.5336 163.531 13.5505 163.544 13.595 163.599C13.6386 163.655 13.6861 163.765 13.7374 163.93C13.7897 164.096 13.8076 164.185 13.7912 164.199C13.7737 164.212 13.7641 164.23 13.7621 164.251C13.7592 164.273 13.8275 164.401 13.9669 164.636C14.1074 164.871 14.2158 165.051 14.2923 165.175C14.3688 165.299 14.4264 165.4 14.4652 165.48C14.5039 165.559 14.5165 165.591 14.5029 165.576C14.4884 165.56 14.4841 165.555 14.4899 165.561C14.4957 165.568 14.5301 165.621 14.593 165.72C14.656 165.818 14.6899 165.867 14.6947 165.866C14.7005 165.866 14.6937 165.861 14.6744 165.851C14.655 165.842 14.7 165.879 14.8094 165.962C14.9198 166.046 14.9964 166.099 15.039 166.122C15.0826 166.145 15.1426 166.172 15.2191 166.202C15.2966 166.232 15.3779 166.268 15.4631 166.311C15.5493 166.353 15.5919 166.37 15.591 166.36C15.589 166.351 15.6205 166.359 15.6854 166.383C15.7503 166.407 15.9231 166.461 16.204 166.544C16.4838 166.628 16.9816 166.741 17.6972 166.883C18.4119 167.024 18.9818 167.14 19.407 167.23C19.8311 167.32 20.3381 167.372 20.9279 167.388C21.5176 167.402 22.5993 167.386 24.173 167.337C25.7467 167.29 27.1693 167.222 28.4408 167.135C29.7113 167.048 30.7161 166.957 31.455 166.861C32.1929 166.765 32.8456 166.704 33.4131 166.679C33.9806 166.653 34.259 166.634 34.2484 166.623C34.2387 166.612 34.2285 166.601 34.2179 166.589C34.2082 166.579 34.2348 166.57 34.2977 166.563C34.3617 166.556 34.4488 166.547 34.5592 166.536C34.6696 166.524 34.7156 166.519 34.6972 166.521C34.6798 166.523 34.6531 166.526 34.6173 166.53" stroke="#3D5330" stroke-width="4" stroke-linecap="round" stroke-linejoin="round"/>
<path d="M12.051 18.7376C12.0461 18.8383 12.0529 18.7751 12.0713 18.5476C12.0897 18.3201 12.0965 18.166 12.0917 18.0856C12.0878 18.0062 12.0761 17.8503 12.0568 17.618C12.0384 17.3856 12.0263 17.2783 12.0205 17.2957C12.0156 17.3122 12.018 17.321 12.0277 17.3219C12.0364 17.3229 12.0393 17.319 12.0364 17.3102C12.0335 17.3025 12.0248 17.3096 12.0103 17.3319C11.9958 17.3541 11.9546 17.2782 11.8868 17.1039C11.818 16.9306 11.7832 16.7614 11.7822 16.5959C11.7803 16.4293 11.79 16.3203 11.8113 16.269C11.8316 16.2157 11.8461 16.2007 11.8548 16.2239C11.8626 16.2462 11.8718 16.1977 11.8825 16.0786C11.8921 15.9605 12.1865 15.6535 12.7656 15.1579C13.3448 14.6631 13.8202 14.3009 14.1921 14.0705C14.5649 13.841 14.8395 13.698 15.0158 13.6419C15.192 13.5867 15.3537 13.5319 15.5009 13.4777C15.6481 13.4235 16.1304 13.3037 16.9477 13.1179C17.766 12.9329 18.8129 12.8102 20.0883 12.7502C21.3637 12.6911 22.3466 12.6558 23.0371 12.6442C23.7266 12.6316 24.7212 12.5494 26.0208 12.3974C27.3204 12.2445 28.7604 12.1173 30.3408 12.0156C31.9213 11.9149 33.3947 11.8659 34.7611 11.8688C36.1276 11.8717 38.0716 11.7816 40.5934 11.5987C43.1151 11.4157 45.0142 11.2836 46.2906 11.2023C47.5669 11.12 48.5111 11.1156 49.1231 11.1892C49.8369 11.6461 50.4271 11.7778 50.8939 11.5841C51.3916 11.3828 52.2468 11.2269 53.4592 11.1165C54.6639 11.0042 56.0676 10.8765 57.6703 10.7332C59.274 10.588 60.5073 10.5266 61.3701 10.5489C62.231 10.5702 62.8605 10.5883 63.2586 10.6038C63.6556 10.6184 64.3746 10.5958 65.4157 10.5358C66.4567 10.4757 67.4479 10.4263 68.3892 10.3876C69.3305 10.3479 70.1735 10.313 70.9182 10.283C71.6619 10.252 72.4628 10.2268 73.3208 10.2075C74.1769 10.1862 75.0315 10.1985 75.8847 10.244C76.7369 10.2895 77.6288 10.2908 78.5604 10.2482C79.492 10.2037 80.3432 10.1631 81.1141 10.1263C81.884 10.0885 82.8781 10.1111 84.0963 10.1943C85.3136 10.2776 86.8819 10.2506 88.8013 10.1132C90.7255 9.97665 92.199 9.91479 93.2216 9.92738C94.2443 9.93996 95.1061 9.96388 95.8073 9.9997C96.5094 10.0355 97.0759 10.0885 97.5069 10.1582C97.9368 10.2269 99.2025 10.272 101.304 10.2933C103.405 10.3146 105.325 10.3093 107.062 10.2773C108.799 10.2463 110.097 10.2181 110.955 10.1929C111.814 10.1687 112.559 10.1577 113.191 10.1596C113.822 10.1606 114.319 10.1562 114.683 10.1465C115.046 10.1358 115.37 10.1266 115.656 10.1188C115.941 10.1111 116.345 10.1009 116.87 10.0883C117.396 10.0748 117.812 10.0695 118.119 10.0724C118.426 10.0743 118.745 10.0769 119.075 10.0798C119.406 10.0818 119.814 10.0968 120.297 10.1249C120.78 10.1529 121.401 10.1706 122.161 10.1784C122.921 10.1861 124.184 10.1967 125.95 10.2103C127.717 10.2239 129.092 10.2433 130.074 10.2684C131.057 10.2946 131.97 10.3043 132.811 10.2975C133.652 10.2907 134.381 10.319 134.999 10.3819C135.617 10.4448 136.373 10.4656 137.268 10.4443C138.163 10.423 138.83 10.4084 139.271 10.4007C139.711 10.392 140.091 10.38 140.413 10.3645C140.735 10.3481 141.349 10.3534 142.255 10.3805C143.16 10.4076 144.485 10.5198 146.23 10.7173C147.975 10.9138 149.411 11.045 150.54 11.1108C151.668 11.1767 152.512 11.2182 153.074 11.2356C153.634 11.253 154.117 11.2433 154.522 11.2065C154.926 11.1698 155.281 11.1587 155.587 11.1732C155.892 11.1887 156.202 11.2042 156.518 11.2197C156.835 11.2352 157.075 11.2559 157.238 11.2821C157.402 11.3082 157.593 11.3272 157.811 11.3388C158.028 11.3494 158.207 11.3618 158.348 11.3764C158.489 11.3919 158.592 11.398 158.659 11.3941C158.726 11.3902 158.797 11.3849 158.871 11.3781C158.945 11.3704 158.998 11.3651 159.031 11.3622C159.064 11.3593 159.145 11.3615 159.275 11.3693C159.405 11.377 159.472 11.3828 159.478 11.3866C159.483 11.3915 159.503 11.3972 159.536 11.404C159.57 11.4118 159.696 11.4175 159.914 11.4214C160.133 11.4253 160.276 11.423 160.343 11.4143C160.409 11.4046 160.429 11.4028 160.402 11.4086C160.375 11.4144 160.535 11.4162 160.883 11.4143C161.23 11.4114 161.763 11.3876 162.484 11.343C163.203 11.2995 163.556 11.2822 163.541 11.2909C163.526 11.3006 163.494 11.3165 163.447 11.3388C163.398 11.3601 163.357 11.3848 163.323 11.4129C163.289 11.44 163.256 11.467 163.223 11.4941" stroke="#3D5330" stroke-width="4" stroke-linecap="round" stroke-linejoin="round"/>
<path d="M163.567 11.4176C163.409 11.345 163.336 11.3057 163.346 11.2999C163.358 11.2951 163.358 11.2875 163.348 11.2768C163.337 11.2652 163.394 11.2326 163.518 11.1794C163.641 11.1251 163.698 11.1017 163.689 11.1084C163.68 11.1162 163.697 11.1189 163.74 11.117C163.782 11.114 163.757 11.1012 163.666 11.078C163.576 11.0538 163.872 11.0317 164.553 11.0124C165.234 10.993 165.714 10.9731 165.994 10.9528C166.274 10.9315 166.557 10.9429 166.844 10.9865C167.132 11.03 167.339 11.072 167.466 11.1127C167.593 11.1514 167.717 11.1983 167.838 11.2534C167.958 11.3077 168.014 11.3398 168.006 11.3495C167.998 11.3592 167.991 11.3694 167.983 11.38C167.974 11.3897 167.972 11.3862 167.976 11.3697C167.98 11.3523 168.113 11.4071 168.375 11.5339C168.638 11.6597 168.813 11.7644 168.901 11.8477C168.99 11.9299 169.095 12.0285 169.216 12.1437C169.337 12.2589 169.401 12.3335 169.408 12.3674C169.415 12.4013 169.421 12.4154 169.427 12.4096C169.432 12.4038 169.426 12.4029 169.409 12.4068C169.392 12.4116 169.422 12.4942 169.498 12.6549C169.575 12.8156 169.664 12.9773 169.765 13.1399C169.868 13.3016 169.954 13.4531 170.022 13.5945C170.09 13.7348 170.12 13.7931 170.113 13.7689C170.105 13.7447 170.134 13.7929 170.2 13.9139C170.266 14.0349 170.3 14.1042 170.304 14.1216C170.308 14.1381 170.31 14.12 170.309 14.0678C170.308 14.0155 170.352 14.1705 170.441 14.5326C170.531 14.8937 170.597 15.2324 170.64 15.549C170.682 15.8666 170.696 16.2331 170.682 16.6484C170.666 17.0638 170.634 17.3804 170.583 17.5982C170.532 17.8151 170.539 17.9543 170.605 18.0162C170.672 18.0782 170.697 18.148 170.682 18.2254C170.666 18.3019 170.628 18.3858 170.567 18.4768C170.505 18.5678 170.471 18.634 170.465 18.6757C170.46 18.7173 170.474 18.7813 170.509 18.8675C170.545 18.9536 170.567 19.0266 170.576 19.0866C170.585 19.1466 170.571 19.1471 170.534 19.088C170.497 19.0289 170.462 19.5196 170.428 20.5593C170.394 21.5981 170.413 22.5159 170.484 23.3127C170.556 24.1075 170.574 24.7536 170.538 25.2513C170.503 25.7489 170.481 26.1075 170.473 26.3273C170.464 26.5461 170.438 26.9273 170.396 27.4714C170.353 28.0155 170.312 28.6143 170.272 29.2678C170.233 29.9213 170.245 30.5104 170.31 31.0352C170.242 31.8861 170.161 32.6997 170.067 33.4762C169.973 34.2516 169.933 34.8743 169.95 35.3439C169.967 35.8124 169.986 36.1013 170.005 36.2107C170.024 36.3201 169.984 36.722 169.883 37.4161C169.781 38.1093 169.726 38.7493 169.717 39.3359C169.708 39.9226 169.696 40.3201 169.681 40.5282C169.666 40.7364 169.661 40.8685 169.668 40.9246C169.674 40.9817 169.677 40.9932 169.678 40.9594C169.679 40.9264 169.668 41.0412 169.646 41.3036C169.624 41.566 169.611 41.7563 169.608 41.8744C169.605 41.9925 169.609 42.0592 169.622 42.0747C169.634 42.0892 169.641 42.1082 169.642 42.1315C169.644 42.1557 169.645 42.1486 169.645 42.1109C169.645 42.0741 169.649 42.0882 169.658 42.1531C169.667 42.217 169.676 42.35 169.685 42.5523C169.695 42.7546 169.695 42.9092 169.685 43.0157C169.675 43.1212 169.687 43.2329 169.722 43.3511C169.756 43.4701 169.793 43.6437 169.834 43.8712C169.875 44.0987 169.918 44.2056 169.961 44.192C170.006 44.1785 170.072 44.1581 170.16 44.131" stroke="#3D5330" stroke-width="4" stroke-linecap="round" stroke-linejoin="round"/>
<path d="M169.097 38.0158C169.025 38.0255 168.945 37.822 168.859 37.4057C168.774 36.9894 168.731 36.8997 168.731 37.1369C168.731 37.3751 168.731 37.4682 168.731 37.4159C168.731 37.3627 168.728 37.4347 168.723 37.6322C168.717 37.8307 168.726 37.9004 168.75 37.8414C168.774 37.7833 168.82 38.6211 168.887 40.3551C168.952 42.088 169.057 43.9111 169.2 45.8241C169.345 47.7362 169.468 49.2131 169.569 50.2548C169.672 51.2974 169.72 52.2364 169.715 53.0719C169.708 53.9064 169.676 55.3357 169.62 57.36C169.563 59.3844 169.527 61.5724 169.513 63.9239C169.498 66.2755 169.523 68.3345 169.588 70.1003C169.654 71.8662 169.636 73.2169 169.535 74.153C169.434 75.0892 169.339 78.0417 169.25 83.0101C169.162 87.9775 169.162 91.9343 169.251 94.8803C169.339 97.8273 169.307 100.471 169.155 102.812C169.003 105.153 168.826 107.291 168.622 109.228C168.42 111.163 168.217 113.729 168.012 116.927C167.808 120.125 167.748 123.08 167.834 125.793C167.919 128.506 168.014 131.31 168.118 134.205C168.224 137.1 168.324 139.3 168.42 140.806C168.516 142.311 168.748 144.845 169.116 148.408C169.484 151.97 169.822 154.685 170.129 156.55C170.436 158.416 170.622 159.316 170.686 159.251C170.751 159.186 170.779 159.158 170.771 159.167C170.762 159.176 170.823 159.134 170.952 159.043C171.082 158.953 171.138 158.905 171.121 158.897C171.103 158.889 171.142 158.833 171.236 158.728C171.33 158.625 171.377 158.555 171.376 158.519C171.375 158.482 171.393 158.422 171.43 158.338" stroke="#3D5330" stroke-width="4" stroke-linecap="round" stroke-linejoin="round"/>
<path d="M183.118 62.8044C182.927 62.5788 182.833 62.4807 182.835 62.5098C182.836 62.5379 182.831 62.5379 182.817 62.5098C182.803 62.4817 182.742 62.374 182.634 62.1872C182.527 62.0003 182.472 61.9045 182.471 61.8996C182.47 61.8958 182.47 61.8891 182.47 61.8794C182.47 61.8697 182.468 61.8759 182.466 61.8982C182.463 61.9214 182.468 61.9938 182.483 62.1148C182.498 62.2368 182.51 62.3229 182.519 62.3733C182.528 62.4236 182.523 62.4515 182.505 62.4573C182.487 62.4631 182.517 62.4821 182.593 62.514C182.671 62.546 182.843 63.667 183.109 65.8772C183.375 68.0864 183.565 69.8283 183.677 71.1023C183.789 72.3754 183.882 74.1906 183.956 76.548C184.029 78.9054 184.083 80.7449 184.12 82.0664C184.157 83.3869 184.168 84.5926 184.152 85.6837C184.137 86.7748 184.1 87.9156 184.043 89.1064C183.987 90.2972 183.967 91.4115 183.982 92.4493C183.998 93.4862 184.001 94.816 183.994 96.4386C183.987 98.0612 183.962 99.584 183.92 101.007C183.878 102.429 183.848 103.466 183.831 104.119C183.814 104.771 183.81 105.24 183.821 105.525C183.831 105.808 183.849 105.99 183.875 106.069C183.9 106.15 183.927 106.33 183.957 106.61C183.987 106.89 184.006 107.028 184.014 107.022C184.022 107.015 184.026 107.016 184.026 107.025C184.027 107.033 184.027 107.032 184.026 107.023C184.025 107.014 184.047 107.142 184.092 107.407C184.139 107.671 184.166 107.813 184.172 107.831C184.18 107.849 184.199 107.859 184.229 107.859C184.259 107.859 184.274 107.865 184.274 107.879C184.274 107.893 184.274 107.908 184.274 107.922C184.274 107.936 184.344 107.84 184.485 107.635C184.624 107.429 184.678 107.33 184.646 107.34C184.613 107.349 184.611 107.292 184.639 107.171C184.667 107.049 184.695 106.913 184.723 106.763C184.75 106.614 184.778 106.456 184.806 106.287" stroke="#3D5330" stroke-width="4" stroke-linecap="round" stroke-linejoin="round"/>
<path d="M183.963 66.2542C183.722 65.9705 183.521 65.7082 183.36 65.4671C183.201 65.2251 183.122 65.1111 183.125 65.1246C183.128 65.1382 183.207 65.0821 183.363 64.9562C183.519 64.8303 183.593 64.7973 183.586 64.8573C183.578 64.9173 184.282 64.8582 185.699 64.68C187.115 64.5019 188.232 64.414 189.052 64.4159C189.87 64.4169 190.474 64.4579 190.865 64.5393C191.254 64.6206 191.545 64.7173 191.738 64.8296C191.93 64.9429 192.319 65.0445 192.903 65.1345C193.487 65.2246 194.087 65.3094 194.702 65.3887C195.318 65.4681 195.796 65.3829 196.136 65.1331C196.476 64.8833 196.655 64.7654 196.674 64.7789C196.693 64.7925 196.712 64.8066 196.73 64.8211C196.749 64.8356 196.76 64.8158 196.764 64.7616C196.767 64.7064 196.827 64.6265 196.945 64.5219C197.063 64.4173 197.128 64.3692 197.138 64.378C197.149 64.3857 197.214 64.4342 197.335 64.5233C197.456 64.6124 197.518 64.6632 197.522 64.6758C197.526 64.6893 197.563 64.6632 197.632 64.5974C197.702 64.5306 198.264 65.0611 199.317 66.1889C200.37 67.3168 201.292 68.2783 202.082 69.0731C202.872 69.8689 203.748 70.7615 204.711 71.7509C205.674 72.7403 206.488 73.6647 207.154 74.5244C207.821 75.3851 208.511 76.4482 209.226 77.7135C209.939 78.9779 210.779 80.321 211.746 81.7432C212.712 83.1653 213.556 84.3141 214.276 85.1893C214.998 86.0654 215.757 87.0146 216.553 88.0369C217.35 89.0602 218.064 90.0614 218.697 91.0402C219.329 92.018 219.8 92.7507 220.11 93.2386C220.419 93.7266 220.768 94.3409 221.157 95.0815C221.547 95.8231 222.066 96.6362 222.715 97.5211C223.364 98.4069 224.105 99.3693 224.94 100.408C225.775 101.447 226.575 102.544 227.341 103.7C228.107 104.854 228.735 105.76 229.225 106.417C229.715 107.074 229.964 107.414 229.972 107.434C229.98 107.453 229.972 107.465 229.95 107.469C229.929 107.474 229.881 107.476 229.808 107.477C229.735 107.478 229.646 107.47 229.539 107.451C229.432 107.433 229.367 107.422 229.344 107.418C229.323 107.414 229.261 107.397 229.157 107.367C229.054 107.338 228.938 107.295 228.808 107.238C228.678 107.181 228.566 107.124 228.473 107.068" stroke="#3D5330" stroke-width="4" stroke-linecap="round" stroke-linejoin="round"/>
<path d="M186.856 107.772C186.61 107.614 186.488 107.546 186.49 107.569C186.491 107.593 186.477 107.604 186.449 107.604C186.421 107.604 186.471 107.683 186.599 107.842C186.726 108.001 186.779 108.06 186.757 108.019C186.736 107.979 186.751 107.973 186.803 108C186.856 108.028 186.92 108.036 186.995 108.027C187.07 108.016 187.094 108.027 187.068 108.059C187.041 108.09 187.565 108.167 188.641 108.292C189.716 108.418 190.562 108.482 191.179 108.485C191.796 108.488 192.292 108.489 192.669 108.488C193.046 108.486 193.708 108.462 194.655 108.414C195.602 108.367 196.57 108.278 197.56 108.147C198.55 108.016 199.364 107.905 200.003 107.812C200.642 107.718 201.843 107.662 203.604 107.645C205.367 107.627 207.049 107.731 208.649 107.955C210.25 108.181 212.064 108.274 214.092 108.234C216.121 108.195 217.683 108.123 218.778 108.019C219.874 107.915 221.189 107.854 222.724 107.838C224.26 107.82 225.456 107.846 226.312 107.916C227.168 107.987 227.835 108.055 228.315 108.12C228.795 108.185 229.01 108.203 228.96 108.173C228.91 108.143 228.834 108.09 228.732 108.014C228.63 107.936 228.505 107.86 228.355 107.784C228.206 107.708 228.065 107.639 227.933 107.579C227.8 107.518 227.742 107.489 227.757 107.491C227.772 107.493 227.739 107.465 227.658 107.407C227.578 107.347 227.415 107.34 227.17 107.383C226.926 107.427 226.771 107.462 226.705 107.491" stroke="#3D5330" stroke-width="4" stroke-linecap="round" stroke-linejoin="round"/>
<path d="M185.368 107.437C185.353 107.4 185.34 107.412 185.329 107.473C185.316 107.533 185.263 107.67 185.169 107.885C185.074 108.101 185.023 108.207 185.015 108.202C185.007 108.197 185.024 108.186 185.066 108.169C185.106 108.151 185.102 108.156 185.053 108.185C185.003 108.213 184.908 108.253 184.768 108.306C184.627 108.36 184.516 108.395 184.437 108.413C184.357 108.429 184.324 108.432 184.337 108.42C184.349 108.408 184.373 108.411 184.409 108.43C184.445 108.449 184.338 108.424 184.088 108.354C183.838 108.286 183.71 108.285 183.705 108.353C183.699 108.421 184.578 108.34 186.343 108.112C188.107 107.884 188.886 107.769 188.68 107.767C188.475 107.763 187.89 107.735 186.926 107.684C185.963 107.631 185.488 107.612 185.502 107.625C185.516 107.64 185.537 107.662 185.565 107.69" stroke="#3D5330" stroke-width="4" stroke-linecap="round" stroke-linejoin="round"/>
<path d="M169.552 160.246C169.078 159.985 168.877 159.878 168.951 159.925C169.024 159.971 169.038 159.994 168.99 159.994C168.944 159.994 168.89 159.994 168.829 159.994C168.769 159.994 168.739 159.988 168.739 159.974C168.738 159.96 168.737 159.945 168.737 159.93C168.737 159.917 168.798 159.865 168.92 159.775C169.042 159.685 169.096 159.636 169.082 159.627C169.067 159.619 169.1 159.584 169.179 159.522C169.257 159.461 169.297 159.431 169.298 159.431C169.299 159.432 169.299 159.415 169.298 159.379C169.298 159.343 169.341 159.29 169.426 159.222C169.511 159.154 169.619 159.083 169.748 159.008C169.878 158.935 169.981 158.884 170.056 158.857C170.132 158.83 170.165 158.83 170.157 158.856C170.148 158.882 170.2 158.875 170.312 158.836C170.424 158.795 170.814 158.726 171.48 158.629C172.146 158.533 172.729 158.514 173.227 158.573C173.727 158.633 174.065 158.68 174.241 158.714C174.418 158.749 174.623 158.78 174.857 158.808C175.092 158.837 175.172 158.844 175.1 158.828C175.027 158.814 175.089 158.829 175.286 158.873C175.482 158.919 175.706 158.957 175.957 158.988C176.207 159.019 176.486 158.981 176.794 158.873C177.101 158.765 177.287 158.697 177.353 158.67" stroke="#3D5330" stroke-width="4" stroke-linecap="round" stroke-linejoin="round"/>
<path d="M13.1868 149.215C12.7433 149.073 12.5448 149.01 12.5913 149.026C12.6377 149.043 12.6402 149.032 12.5985 148.994C12.5579 148.957 12.4412 148.844 12.2485 148.656C12.0548 148.467 11.9894 148.396 12.0523 148.441C12.1153 148.488 12.1342 148.477 12.109 148.409C12.0848 148.342 12.0547 148.24 12.0189 148.103C11.9821 147.966 11.9787 147.908 12.0088 147.929C12.0388 147.948 12.1618 147.863 12.3777 147.673C12.5946 147.484 13.1878 147.401 14.1572 147.423C15.1256 147.445 16.323 147.4 17.7495 147.287C19.176 147.174 20.2998 147.124 21.121 147.134C21.9422 147.145 23.4108 147.29 25.5268 147.569C27.6428 147.847 29.5418 148.027 31.224 148.107C32.9061 148.186 34.227 148.256 35.1867 148.316C36.1464 148.377 37.2334 148.433 38.4478 148.483C39.6622 148.534 40.6989 148.615 41.5578 148.729C42.4178 148.842 43.0753 148.937 43.5305 149.013C43.9866 149.091 44.4185 149.183 44.8262 149.291" stroke="#3D5330" stroke-width="4" stroke-linecap="round" stroke-linejoin="round"/>
<path d="M79.6875 147.719C79.5074 147.507 79.3815 147.347 79.3098 147.238C79.2391 147.131 79.2028 147.075 79.2008 147.07C79.1979 147.065 79.2072 147.079 79.2285 147.111C79.2498 147.143 79.2619 147.16 79.2648 147.16C79.2677 147.161 79.2624 147.151 79.2488 147.131C79.2362 147.111 79.1578 147.013 79.0135 146.836C78.8701 146.658 78.8367 146.54 78.9132 146.483C78.9897 146.424 79.0198 146.399 79.0033 146.408C78.9878 146.416 79.0324 146.392 79.137 146.335C79.2406 146.279 80.0952 146.279 81.7008 146.335C83.3064 146.392 84.8399 146.397 86.3012 146.351C87.7616 146.305 88.7678 146.239 89.3198 146.15C89.8718 146.062 90.4291 146.042 90.9917 146.088C91.5534 146.136 91.9902 146.185 92.302 146.235C92.6138 146.285 93.7096 146.283 95.5893 146.23C97.469 146.177 99.3162 146.097 101.131 145.989C102.946 145.881 104.288 145.813 105.156 145.786C106.024 145.758 106.663 145.766 107.074 145.809C107.484 145.853 108.396 145.906 109.807 145.97C111.219 146.033 113.19 146.073 115.718 146.089C118.248 146.106 121.297 146.006 124.867 145.79C128.436 145.574 131.097 145.408 132.849 145.292C134.601 145.176 135.794 145.073 136.428 144.984C137.063 144.895 137.932 144.81 139.034 144.727C140.136 144.645 141.351 144.654 142.68 144.755C144.009 144.856 145.025 144.956 145.729 145.057C146.434 145.158 146.924 145.199 147.198 145.182C147.472 145.164 147.946 145.167 148.62 145.189C149.293 145.212 150.495 145.273 152.225 145.375C153.956 145.477 155.341 145.538 156.38 145.558C157.419 145.577 158.706 145.662 160.242 145.811C161.778 145.959 163.328 146.046 164.892 146.072C166.455 146.097 167.238 146.107 167.24 146.1C167.242 146.093 167.268 146.188 167.316 146.386C167.365 146.582 167.384 146.656 167.373 146.606C167.362 146.557 167.349 146.523 167.335 146.503" stroke="#3D5330" stroke-width="4" stroke-linecap="round" stroke-linejoin="round"/>
</svg>
