<svg width="180" height="125" viewBox="0 0 180 125" fill="none" xmlns="http://www.w3.org/2000/svg">
<path d="M125.252 51.7957C125.266 51.7975 125.261 51.7955 125.236 51.7895C125.212 51.7835 125.257 51.7865 125.37 51.7985C125.484 51.8104 125.536 51.8005 125.524 51.7685C125.513 51.7367 125.507 51.7242 125.505 51.7309C125.503 51.7377 125.502 51.7399 125.503 51.7376C125.503 51.7353 125.49 51.712 125.463 51.6678C125.436 51.6236 125.424 51.6036 125.427 51.6081C125.43 51.6127 125.43 51.6137 125.428 51.6108C125.426 51.6082 125.406 51.5788 125.367 51.5226C125.328 51.4664 125.307 51.4359 125.304 51.431C125.301 51.426 125.299 51.4257 125.298 51.4301C125.298 51.4345 125.296 51.4327 125.293 51.4247C125.289 51.4169 125.266 51.4026 125.223 51.3818C125.181 51.3613 125.149 51.3241 125.128 51.2705C125.107 51.2172 124.991 51.1584 124.78 51.0938C124.569 51.0293 124.396 50.9869 124.261 50.9666C124.126 50.9463 124.027 50.9432 123.963 50.9572C123.899 50.9715 123.867 50.9796 123.867 50.9814C123.867 50.9835 123.864 50.9825 123.859 50.9783C123.853 50.9741 123.79 50.9921 123.669 51.0322C123.548 51.0723 123.468 51.1035 123.43 51.1258C123.392 51.1485 123.358 51.1686 123.329 51.1862C123.3 51.2039 123.247 51.2401 123.17 51.2947C123.093 51.3494 123.054 51.3781 123.052 51.381C123.05 51.3836 123.045 51.3869 123.038 51.3908C123.03 51.3944 123.038 51.3876 123.064 51.3705C123.089 51.353 122.971 51.4047 122.708 51.5254C122.445 51.6458 122.24 51.7368 122.091 51.7985C121.943 51.8599 121.815 51.9231 121.707 51.9881C121.599 52.0532 121.478 52.1317 121.342 52.2238C121.207 52.3162 121.082 52.4236 120.969 52.5461C120.855 52.6686 120.753 52.7816 120.662 52.8851C120.571 52.9886 120.465 53.1042 120.343 53.2317C120.221 53.3589 120.132 53.4657 120.076 53.552C120.02 53.6386 119.969 53.7043 119.921 53.749C119.873 53.7935 119.85 53.8163 119.852 53.8173C119.854 53.8184 119.856 53.8159 119.86 53.8099C119.864 53.8039 119.861 53.8066 119.853 53.8181C119.845 53.8293 119.846 53.8285 119.857 53.8157C119.867 53.803 119.853 53.82 119.815 53.8669C119.777 53.9137 119.747 53.9487 119.727 53.9718C119.706 53.9947 119.682 54.0207 119.656 54.0499C119.63 54.079 119.6 54.1123 119.567 54.1498C119.534 54.1872 119.518 54.2055 119.517 54.2047C119.517 54.2037 119.519 54.2022 119.522 54.2001C119.524 54.1983 119.525 54.1998 119.525 54.2047C119.525 54.2099 119.478 54.2664 119.385 54.3741C119.291 54.4818 119.25 54.5277 119.261 54.5119C119.272 54.4957 119.186 54.6088 119.003 54.8513C118.82 55.0937 118.67 55.2953 118.555 55.4561C118.44 55.6171 118.338 55.7408 118.248 55.8271C118.159 55.9132 118.096 55.9932 118.061 56.0671C118.026 56.1412 117.987 56.2135 117.944 56.2837C117.9 56.3542 117.886 56.3737 117.901 56.3422C117.915 56.3107 117.854 56.4104 117.719 56.6411C117.583 56.8718 117.454 57.1023 117.333 57.3325C117.211 57.563 117.12 57.7181 117.058 57.798C116.995 57.8781 116.885 58.0855 116.728 58.4203C116.57 58.7553 116.444 59.0552 116.348 59.3197C116.253 59.5845 116.172 59.794 116.107 59.9483C116.041 60.1025 116 60.2138 115.983 60.2822C115.966 60.3509 115.909 60.4963 115.81 60.7182C115.711 60.9398 115.622 61.1242 115.543 61.2714C115.464 61.4184 115.382 61.5613 115.299 61.7002C115.216 61.8394 115.152 61.949 115.11 62.0291C115.067 62.1095 115.018 62.2132 114.964 62.3401C114.91 62.4673 114.853 62.5959 114.793 62.7257C114.733 62.8557 114.678 62.9616 114.628 63.0433C114.578 63.1249 114.469 63.3849 114.302 63.8232C114.134 64.2618 114.017 64.5788 113.95 64.7741C113.883 64.9695 113.769 65.2519 113.61 65.6216C113.449 65.9915 113.313 66.3217 113.2 66.6123C113.088 66.9031 112.939 67.2943 112.754 67.786C112.569 68.2776 112.41 68.6759 112.276 68.9807C112.143 69.2856 112.023 69.6027 111.917 69.932M119.5 70.0404C119.642 69.8684 119.794 69.6983 119.956 69.5297C120.12 69.3611 120.257 69.2343 120.368 69.1492C120.479 69.0639 120.616 68.9594 120.778 68.8355C120.941 68.7117 121.149 68.5325 121.404 68.2979C121.66 68.0633 121.897 67.8529 122.117 67.6669C122.337 67.4812 122.515 67.2881 122.651 67.0875C122.787 66.8872 122.911 66.709 123.023 66.5529C123.134 66.3966 123.223 66.272 123.287 66.1791C123.352 66.0863 123.395 66.0222 123.416 65.9868C123.437 65.9512 123.446 65.936 123.444 65.9412C123.442 65.9464 123.465 65.9235 123.514 65.8725C123.562 65.8215 123.696 65.6994 123.914 65.5061C124.132 65.3128 124.276 65.1833 124.345 65.1174C124.413 65.0516 124.538 64.9224 124.719 64.7296C124.901 64.5366 125.055 64.3624 125.181 64.2071C125.307 64.0516 125.423 63.9051 125.528 63.7678C125.633 63.6302 125.713 63.5219 125.768 63.4428C125.823 63.3634 125.842 63.3312 125.824 63.346C125.807 63.3606 125.874 63.2762 126.027 63.0928C126.179 62.9094 126.355 62.6857 126.555 62.4217C126.755 62.1577 126.906 61.9551 127.008 61.8141C127.111 61.6729 127.191 61.5662 127.25 61.4939C127.308 61.4215 127.361 61.3559 127.409 61.2971C127.457 61.2386 127.485 61.2057 127.493 61.1985C127.501 61.1909 127.507 61.1844 127.51 61.1789C127.514 61.1732 127.54 61.147 127.589 61.1001C127.639 61.0533 127.667 61.025 127.673 61.0151C127.679 61.0052 127.677 61.0033 127.666 61.0096C127.655 61.0155 127.685 60.9972 127.757 60.9546C127.829 60.9117 127.943 60.7286 128.1 60.4052C128.256 60.0816 128.369 59.8318 128.439 59.656C128.509 59.4802 128.557 59.3513 128.583 59.2693C128.609 59.1871 128.629 59.1056 128.642 59.0247C128.655 58.9438 128.662 58.9036 128.663 58.9041C128.664 58.9044 128.684 58.8442 128.723 58.7235C128.762 58.6028 128.797 58.4946 128.83 58.3989C128.862 58.3031 128.875 58.265 128.871 58.2845C128.866 58.3038 128.875 58.2628 128.898 58.1617C128.921 58.0605 128.944 57.9648 128.967 57.8748C128.99 57.7848 129.008 57.705 129.022 57.6353C129.036 57.5653 129.049 57.4934 129.062 57.4195C129.075 57.3454 129.085 57.2872 129.092 57.2451C129.099 57.2027 129.11 57.15 129.124 57.087C129.139 57.0241 129.142 57.0173 129.135 57.0667C129.128 57.1159 129.152 56.9927 129.208 56.6972C129.265 56.4015 129.294 56.1499 129.297 55.9423C129.301 55.7345 129.282 55.557 129.241 55.4101C129.201 55.2634 129.178 55.1612 129.172 55.1037C129.167 55.0462 129.156 54.9878 129.14 54.9285C129.124 54.8692 129.112 54.8248 129.105 54.7955C129.098 54.7663 129.093 54.7454 129.089 54.7327C129.086 54.7202 129.083 54.7116 129.082 54.707C129.08 54.702 129.064 54.6669 129.033 54.6016C129.002 54.5363 128.982 54.4934 128.975 54.4728C128.967 54.4523 128.952 54.4184 128.93 54.3714C128.908 54.3243 128.891 54.2929 128.879 54.2773C128.867 54.2617 128.872 54.2674 128.894 54.2945C128.915 54.3213 128.871 54.2605 128.761 54.1122C128.652 53.9642 128.562 53.8482 128.493 53.7639C128.424 53.6796 128.366 53.6041 128.319 53.5375C128.272 53.4712 128.223 53.4147 128.17 53.3682C128.116 53.3214 128.084 53.2942 128.073 53.2866C128.061 53.2791 127.931 53.1506 127.681 52.9011C127.432 52.6519 127.227 52.4619 127.064 52.3311C126.902 52.2002 126.77 52.1061 126.669 52.0486C126.568 51.9914 126.494 51.9488 126.447 51.921C126.4 51.8932 126.365 51.8742 126.34 51.864C126.315 51.8539 126.311 51.8527 126.327 51.8605C126.343 51.8683 126.32 51.856 126.258 51.8234C126.197 51.7907 126.129 51.7567 126.053 51.7216C125.977 51.6867 125.916 51.6545 125.868 51.6248C125.82 51.5952 125.798 51.5847 125.8 51.5933C125.803 51.6019 125.77 51.5904 125.701 51.5589C125.632 51.5277 125.601 51.5091 125.608 51.5031C125.614 51.4974 125.555 51.4683 125.43 51.4157C125.305 51.3634 125.179 51.3307 125.052 51.3174C124.926 51.3042 124.833 51.288 124.774 51.269C124.715 51.2503 124.666 51.2412 124.629 51.2417C124.591 51.2425 124.55 51.2489 124.503 51.2608C124.457 51.2728 124.435 51.2776 124.437 51.2752C124.44 51.2726 124.422 51.2781 124.385 51.2916C124.348 51.3049 124.314 51.3168 124.283 51.3275C124.251 51.3379 124.238 51.3418 124.242 51.3392C124.246 51.3366 124.249 51.3365 124.25 51.3389C124.252 51.3412 124.248 51.3416 124.239 51.34C124.23 51.3387 124.21 51.3291 124.177 51.3111C124.145 51.2934 124.124 51.276 124.115 51.2588" stroke="#3D5330" stroke-width="4" stroke-linecap="round" stroke-linejoin="round"/>
<path d="M125.928 51.0667C125.929 51.0753 125.929 51.0862 125.929 51.0995C125.93 51.1125 125.924 51.0854 125.912 51.0183C125.9 50.9515 125.892 50.9213 125.888 50.9278C125.884 50.9343 125.883 50.9384 125.886 50.9399C125.888 50.9412 125.887 50.9375 125.883 50.929C125.878 50.9206 125.866 50.8923 125.846 50.8439C125.826 50.7955 125.814 50.7686 125.811 50.7631C125.808 50.7577 125.81 50.7632 125.819 50.7799C125.827 50.7968 125.811 50.7728 125.772 50.7078C125.732 50.643 125.689 50.5637 125.643 50.4701C125.596 50.3765 125.553 50.2928 125.513 50.2192C125.474 50.1456 125.45 50.0973 125.441 50.0741C125.433 50.0509 125.424 50.0337 125.414 50.0226C125.405 50.0114 125.38 49.9646 125.338 49.8822C125.297 49.7997 125.231 49.6593 125.142 49.4611C125.053 49.2629 124.966 49.0704 124.882 48.8836C124.798 48.6969 124.732 48.5246 124.683 48.3667C124.634 48.2088 124.587 48.052 124.543 47.8965C124.498 47.7409 124.457 47.5622 124.418 47.3603C124.379 47.1585 124.343 46.8539 124.311 46.4465C124.278 46.0389 124.307 45.4283 124.397 44.6147C124.487 43.801 124.614 43.0559 124.778 42.3793C124.941 41.703 125.069 41.2122 125.161 40.907C125.252 40.6022 125.319 40.4058 125.36 40.3179C125.4 40.2299 125.476 40.07 125.586 39.8379C125.697 39.6059 125.766 39.4353 125.793 39.326C125.82 39.217 125.925 38.9881 126.107 38.6393C126.29 38.2907 126.455 38.0375 126.602 37.8796C126.749 37.7214 126.831 37.6384 126.848 37.6303C126.865 37.6222 126.938 37.7869 127.066 38.1243C127.194 38.4617 127.308 38.7215 127.407 38.9038C127.506 39.0862 127.605 39.2645 127.706 39.4388C127.807 39.6131 127.889 39.7581 127.952 39.8739C128.015 39.9896 128.068 40.0879 128.11 40.1685C128.152 40.2491 128.21 40.3645 128.284 40.5146C128.358 40.6649 128.441 40.8877 128.535 41.1829C128.629 41.4782 128.705 41.7047 128.761 41.8626C128.818 42.0202 128.93 42.3587 129.098 42.8779C129.266 43.3971 129.372 43.9446 129.416 44.5205C129.46 45.0967 129.488 45.5147 129.499 45.7743C129.51 46.0341 129.497 46.3103 129.458 46.6026C129.419 46.895 129.327 47.2668 129.18 47.7181C129.033 48.1694 128.893 48.5611 128.761 48.893C128.628 49.2251 128.51 49.5165 128.408 49.767C128.305 50.0172 128.136 50.3022 127.901 50.6219C127.665 50.9416 127.438 51.174 127.219 51.3191C127 51.4646 126.896 51.5333 126.906 51.5252C126.917 51.5171 126.933 51.5051 126.956 51.4893C126.978 51.4732 127.001 51.4591 127.024 51.4472C127.047 51.4352 127.069 51.4203 127.089 51.4023" stroke="#3D5330" stroke-width="4" stroke-linecap="round" stroke-linejoin="round"/>
<path d="M127.199 51.2254C127.19 51.2082 127.183 51.1952 127.179 51.1863C127.174 51.1777 127.159 51.1848 127.135 51.2075C127.11 51.2299 127.101 51.238 127.107 51.2321C127.113 51.2258 127.115 51.2234 127.114 51.225C127.112 51.2263 127.131 51.2004 127.171 51.1474C127.211 51.094 127.227 51.0718 127.22 51.0806C127.213 51.0897 127.226 51.0709 127.259 51.0241C127.293 50.9775 127.383 50.8884 127.532 50.7568C127.68 50.6249 127.857 50.4404 128.064 50.2032C128.27 49.9659 128.51 49.6952 128.784 49.3912C129.058 49.0871 129.315 48.7847 129.553 48.484C129.792 48.183 130.019 47.9093 130.236 47.6627C130.453 47.4161 130.953 47.1512 131.734 46.8682C132.515 46.5849 133.154 46.3473 133.65 46.1554C134.146 45.9631 134.791 45.8172 135.584 45.7176C136.377 45.6179 137.135 45.501 137.857 45.3668C138.58 45.2326 139.111 45.109 139.45 44.9961C139.789 44.8834 140.063 44.7956 140.27 44.7324C140.477 44.6694 140.761 44.6824 141.121 44.7713C141.481 44.8603 141.741 44.9143 141.902 44.9333C142.063 44.9525 142.14 44.9594 142.132 44.954C142.125 44.9485 142.035 44.9045 141.863 44.8217C141.692 44.739 141.591 44.6847 141.562 44.6589" stroke="#3D5330" stroke-width="4" stroke-linecap="round" stroke-linejoin="round"/>
<path d="M127.072 51.8654C127.085 51.9002 127.195 51.956 127.401 52.0328C127.608 52.1095 127.782 52.1646 127.924 52.1981C128.067 52.2317 128.161 52.2497 128.205 52.252C128.25 52.2544 128.37 52.2766 128.565 52.3187C128.761 52.3609 129.063 52.409 129.47 52.4631C129.878 52.5172 130.198 52.5601 130.431 52.5918C130.664 52.6236 130.948 52.6271 131.282 52.6024C131.617 52.5774 132.002 52.5232 132.437 52.4397C132.872 52.3562 133.223 52.2736 133.491 52.1919C133.759 52.1105 134.106 51.9504 134.531 51.7116C134.956 51.4726 135.408 51.2706 135.888 51.1057C136.369 50.9405 136.745 50.8231 137.017 50.7537C137.289 50.6845 137.58 50.5229 137.888 50.2687C138.196 50.0146 138.442 49.7909 138.625 49.5976C138.808 49.4046 138.987 49.1761 139.162 48.912C139.338 48.648 139.494 48.4155 139.632 48.2147C139.771 48.0139 139.874 47.8633 139.944 47.7629C140.013 47.6628 140.118 47.5223 140.256 47.3415C140.395 47.1607 140.506 46.9862 140.587 46.8179C140.668 46.6496 140.746 46.4836 140.819 46.32C140.891 46.1567 140.925 46.0631 140.92 46.0395C140.915 46.0158 140.935 45.9449 140.979 45.8268C141.024 45.7085 141.058 45.6334 141.081 45.6017C141.104 45.5697 141.134 45.5182 141.172 45.4471C141.21 45.3759 141.233 45.3347 141.243 45.3235C141.253 45.3121 141.253 45.3167 141.241 45.3375C141.23 45.3583 141.237 45.3413 141.263 45.2864C141.289 45.2316 141.319 45.1722 141.354 45.1085C141.389 45.0445 141.442 44.9737 141.513 44.8959" stroke="#3D5330" stroke-width="4" stroke-linecap="round" stroke-linejoin="round"/>
<path d="M121.467 53.8025C121.487 53.8163 121.458 53.8131 121.381 53.7928C121.304 53.7728 121.268 53.7735 121.272 53.7951C121.276 53.8167 121.232 53.8132 121.141 53.7846C121.049 53.756 121.001 53.7439 120.996 53.7483C120.992 53.7527 120.984 53.7615 120.971 53.7748C120.958 53.7883 120.949 53.7929 120.945 53.7885C120.94 53.7844 120.936 53.7801 120.932 53.7757C120.927 53.7715 120.922 53.7764 120.917 53.7904C120.911 53.8047 120.908 53.8057 120.906 53.7932C120.903 53.7807 120.9 53.7806 120.897 53.7928C120.893 53.805 120.894 53.8302 120.899 53.8684C120.905 53.9064 120.908 53.9304 120.91 53.9403C120.912 53.9502 120.913 53.9528 120.913 53.9481C120.913 53.9437 120.913 53.9418 120.913 53.9423C120.913 53.9428 120.909 53.9385 120.902 53.9297C120.895 53.9206 120.895 53.9214 120.903 53.9321C120.91 53.9427 120.929 53.9685 120.961 54.0093C120.992 54.0502 121.022 54.089 121.052 54.1256C121.082 54.1621 121.103 54.1812 121.114 54.183C121.126 54.1848 121.119 54.1821 121.094 54.1748C121.069 54.1678 121.125 54.2176 121.26 54.3243C121.395 54.4309 121.521 54.5146 121.638 54.5755C121.754 54.6363 121.858 54.6955 121.95 54.753C122.042 54.8103 122.125 54.8633 122.199 54.9122C122.273 54.9611 122.315 54.9866 122.324 54.9887C122.334 54.991 122.334 54.9915 122.325 54.9902C122.317 54.9889 122.362 55.0085 122.462 55.0488C122.562 55.0891 122.886 55.3118 123.435 55.7168" stroke="#3D5330" stroke-width="4" stroke-linecap="round" stroke-linejoin="round"/>
<path d="M121.361 62.5178C121.324 62.4728 121.282 62.4259 121.233 62.377C121.185 62.3278 121.16 62.3042 121.16 62.3063C121.159 62.3084 121.16 62.3092 121.164 62.3087C121.167 62.3082 121.163 62.3042 121.151 62.297C121.139 62.2897 121.126 62.2816 121.113 62.2728C121.1 62.2639 121.096 62.2608 121.101 62.2634C121.107 62.266 121.096 62.2549 121.071 62.2299C121.045 62.2049 121.048 62.2041 121.08 62.2275C121.112 62.2512 121.241 62.333 121.466 62.4729C121.69 62.6131 121.873 62.72 122.015 62.7936C122.156 62.8673 122.257 62.9274 122.316 62.974C122.375 63.0205 122.437 63.0738 122.501 63.1339C122.566 63.194 122.698 63.2945 122.898 63.4355C123.098 63.5765 123.27 63.7012 123.413 63.8097C123.556 63.9184 123.66 64.0066 123.726 64.0742C123.791 64.1419 123.822 64.1726 123.817 64.1663C123.812 64.1598 123.819 64.1623 123.838 64.1738C123.857 64.185 123.881 64.2002 123.912 64.2194C123.942 64.2387 123.952 64.2462 123.944 64.2421C123.936 64.2382 123.935 64.2384 123.942 64.2428C123.949 64.247 123.946 64.2443 123.932 64.2346C123.917 64.2248 123.919 64.2255 123.936 64.2369C123.953 64.2484 123.985 64.2719 124.034 64.3072C124.082 64.3426 124.082 64.3426 124.033 64.3072C123.983 64.2719 123.912 64.2197 123.819 64.1507C123.726 64.082 123.599 63.9935 123.44 63.885C123.281 63.7766 123.203 63.7226 123.207 63.7231C123.211 63.7239 123.027 63.6137 122.656 63.3926C122.284 63.1713 121.959 62.9735 121.681 62.7992C121.403 62.6249 121.031 62.3994 120.567 62.1229" stroke="#3D5330" stroke-width="4" stroke-linecap="round" stroke-linejoin="round"/>
<path d="M120.677 54.2688C120.597 54.1624 120.527 54.0764 120.47 54.0108C120.412 53.945 120.377 53.8917 120.366 53.8509C120.356 53.8103 120.34 53.7735 120.32 53.7405C120.3 53.7075 120.302 53.7091 120.325 53.7455C120.348 53.782 120.361 53.802 120.366 53.8057C120.371 53.8093 120.375 53.8131 120.378 53.817C120.381 53.8204 120.375 53.8159 120.362 53.8037C120.349 53.7914 120.403 53.8409 120.525 53.952C120.648 54.063 120.75 54.1542 120.831 54.2255C120.913 54.297 120.986 54.3508 121.051 54.3866C121.116 54.4225 121.174 54.4549 121.225 54.4838C121.276 54.5124 121.324 54.5441 121.369 54.579C121.413 54.6138 121.603 54.702 121.938 54.8435C122.273 54.9848 122.455 55.0639 122.485 55.0808" stroke="#3D5330" stroke-width="4" stroke-linecap="round" stroke-linejoin="round"/>
<path d="M114.911 65.9256C114.886 65.9168 114.89 65.9228 114.922 65.9439C114.953 65.965 114.907 65.9419 114.781 65.8748C114.656 65.8077 114.62 65.7811 114.673 65.7949C114.726 65.8084 114.911 65.9446 115.228 66.2034C115.545 66.4625 115.755 66.6565 115.858 66.7855C115.961 66.9145 116.067 67.0223 116.177 67.1086C116.286 67.195 116.482 67.3621 116.762 67.61" stroke="#3D5330" stroke-width="4" stroke-linecap="round" stroke-linejoin="round"/>
<path d="M114.16 65.5832C114.161 65.5634 114.127 65.5212 114.058 65.4566C113.989 65.3924 113.982 65.3754 114.038 65.4056C114.094 65.436 114.118 65.4497 114.109 65.4466C114.101 65.4437 114.098 65.4432 114.101 65.445C114.104 65.4466 114.103 65.4473 114.097 65.4473C114.092 65.4471 114.11 65.4587 114.152 65.4821C114.193 65.5052 114.45 65.6993 114.923 66.0642C115.396 66.4294 115.781 66.728 116.078 66.96C116.375 67.1923 116.603 67.3461 116.762 67.4213C116.92 67.4965 117.014 67.5381 117.043 67.5462" stroke="#3D5330" stroke-width="4" stroke-linecap="round" stroke-linejoin="round"/>
<path d="M116.16 66.9506C116.208 66.9592 116.132 66.9346 115.932 66.8769C115.732 66.8191 115.439 66.7212 115.054 66.5831C114.669 66.445 114.384 66.3353 114.198 66.2542C114.012 66.1727 113.9 66.1181 113.863 66.0902C113.825 66.0621 113.787 66.0431 113.749 66.0333C113.71 66.0234 113.692 65.9765 113.695 65.8925C113.698 65.8087 113.705 65.7579 113.716 65.7402" stroke="#3D5330" stroke-width="4" stroke-linecap="round" stroke-linejoin="round"/>
<path d="M57.0687 62.3863C57.0817 62.4006 57.0982 62.4116 57.1183 62.4194C57.1383 62.4272 57.1544 62.4211 57.1667 62.4011C57.1787 62.3808 57.1835 62.3713 57.1811 62.3726C57.1788 62.3742 57.1772 62.3717 57.1764 62.3652C57.1757 62.3587 57.1768 62.3618 57.18 62.3745C57.1828 62.3875 57.1822 62.3606 57.178 62.2938C57.1738 62.2269 57.1688 62.1724 57.1628 62.1303C57.1565 62.0879 57.1557 62.0663 57.1604 62.0655C57.1649 62.0647 57.1662 62.0481 57.1643 62.0156C57.1625 61.9831 57.1613 61.9289 57.1608 61.8529C57.1603 61.7767 57.1082 61.6701 57.0047 61.5333C56.9008 61.3965 56.817 61.3015 56.7532 61.2485C56.6892 61.1957 56.6189 61.1355 56.5424 61.0679C56.4659 61.0002 56.3926 60.9435 56.3226 60.8977C56.2526 60.8517 56.1979 60.8137 56.1586 60.7838C56.1191 60.7536 56.0756 60.723 56.0282 60.6921C55.9806 60.6611 55.9504 60.6438 55.9377 60.6401C55.9249 60.6365 55.9309 60.6367 55.9556 60.6406C55.9801 60.6445 55.9438 60.624 55.8467 60.5793C55.7499 60.5343 55.6734 60.4989 55.6171 60.4731C55.5612 60.4471 55.5151 60.4251 55.4789 60.4068C55.4428 60.3889 55.4192 60.3811 55.4083 60.3834C55.3976 60.3855 55.3396 60.3862 55.2342 60.3854C55.1287 60.3846 55.0866 60.382 55.1077 60.3776C55.1285 60.3732 55.0976 60.3828 55.0151 60.4065C54.9329 60.4301 54.8285 60.4206 54.702 60.378C54.5753 60.3353 54.4835 60.323 54.4268 60.3409C54.3698 60.3586 54.3426 60.368 54.3452 60.369C54.3478 60.3698 54.3259 60.3819 54.2796 60.4053C54.2335 60.4285 54.1372 60.4334 53.9907 60.4201C53.8442 60.4068 53.7518 60.4063 53.7135 60.4186C53.6752 60.4305 53.6396 60.4412 53.6065 60.4506C53.5735 60.4599 53.5369 60.4671 53.4968 60.472C53.4565 60.4772 53.4388 60.4786 53.4437 60.4763C53.4487 60.4742 53.4528 60.476 53.4562 60.4817C53.4599 60.4874 53.4309 60.4797 53.3692 60.4584C53.3072 60.4371 53.2325 60.4228 53.1451 60.4158C53.0576 60.4085 52.986 60.4071 52.9304 60.4115C52.8744 60.4162 52.8495 60.4187 52.8558 60.4189C52.862 60.4189 52.8667 60.4136 52.8698 60.4029C52.8727 60.392 52.8094 60.4153 52.6801 60.4728C52.5507 60.5303 52.412 60.5886 52.2639 60.648C52.1158 60.707 52.009 60.7444 51.9434 60.76C51.8778 60.7753 51.8315 60.7931 51.8044 60.8134C51.7773 60.8337 51.7655 60.8437 51.7689 60.8434C51.7725 60.8434 51.7526 60.8731 51.7091 60.9324C51.6657 60.9917 51.4892 61.1323 51.1798 61.3542C50.8703 61.5764 50.6009 61.7635 50.3716 61.9157C50.1426 62.0681 49.9761 62.2007 49.8723 62.3133C49.7684 62.4259 49.7028 62.5162 49.6755 62.5841C49.6482 62.652 49.6241 62.7173 49.6033 62.78C49.5827 62.8427 49.5745 62.8637 49.5787 62.8431C49.5826 62.8226 49.5687 62.8442 49.5369 62.9079C49.5049 62.9716 49.4696 63.0596 49.4311 63.1717C49.3926 63.2838 49.3776 63.3271 49.3862 63.3016C49.3945 63.2761 49.3824 63.3042 49.3499 63.3859C49.3174 63.4676 49.2814 63.5548 49.2421 63.6477C49.2031 63.7403 49.1742 63.8295 49.1555 63.9154C49.1367 64.0015 49.1212 64.0786 49.109 64.1468C49.0968 64.2152 49.0758 64.2832 49.0462 64.3508C49.0168 64.4184 48.9886 64.454 48.9618 64.4574C48.9353 64.4608 48.9017 64.4619 48.8611 64.4608C48.8208 64.4595 48.7996 64.4832 48.7975 64.5319C48.7954 64.5805 48.7831 64.6983 48.7608 64.885C48.8029 65.0512 48.7705 65.2697 48.6636 65.5405C48.5568 65.8113 48.494 66.0109 48.475 66.1394C48.456 66.2679 48.4474 66.3673 48.4492 66.4376C48.451 66.5078 48.4483 66.5667 48.441 66.6143C48.434 66.6619 48.4301 66.7095 48.4293 66.7571C48.4285 66.8047 48.4319 66.8981 48.4395 67.0372C48.447 67.1764 48.4996 67.3876 48.5972 67.6709C48.6951 67.9539 48.7769 68.172 48.8428 68.3252C48.9086 68.4787 48.9385 68.5757 48.9325 68.616C48.9263 68.6563 48.9409 68.7252 48.9763 68.8228C49.0114 68.9203 49.0333 68.9773 49.0419 68.9937C49.0505 69.0103 49.0534 69.0137 49.0508 69.0038C49.048 68.9939 49.0503 69.0166 49.0579 69.0717C49.0654 69.1266 49.0948 69.2216 49.1461 69.3569C49.1974 69.4924 49.2453 69.5954 49.2898 69.6659C49.334 69.7367 49.3698 69.7973 49.3971 69.8478C49.4245 69.8982 49.4363 69.9246 49.4327 69.9269C49.4288 69.9295 49.4549 70.021 49.5111 70.2013M70.2907 69.5524C70.3688 69.0014 70.4259 68.6072 70.4621 68.3697C70.4985 68.1325 70.5269 67.8902 70.5472 67.6428C70.5678 67.3952 70.577 67.1992 70.5749 67.0549C70.5726 66.9105 70.5664 66.804 70.5566 66.7356C70.5464 66.6675 70.5409 66.5961 70.5402 66.5214C70.5394 66.447 70.5386 66.397 70.5378 66.3713C70.5368 66.3458 70.5355 66.3383 70.5339 66.349C70.5324 66.3596 70.5307 66.3389 70.5288 66.2866C70.5273 66.2343 70.517 65.9503 70.498 65.4348C70.479 64.9189 70.45 64.4902 70.4109 64.1484C70.3716 63.8066 70.3352 63.5651 70.3016 63.4241C70.268 63.2834 70.2398 63.1393 70.2169 62.9918C70.1937 62.8443 70.1262 62.5955 70.0143 62.2454C69.9024 61.8955 69.7302 61.4649 69.4978 60.9535C69.2653 60.4424 69.072 60.0579 68.9176 59.8001C68.763 59.5424 68.6408 59.347 68.551 59.2141C68.4615 59.0809 68.3839 58.9799 68.3183 58.9113C68.2527 58.8426 68.193 58.7773 68.1391 58.7154C68.0853 58.6535 67.9913 58.5517 67.8573 58.4099C67.723 58.2679 67.5655 58.0872 67.3849 57.8679C67.204 57.6486 67.0547 57.4681 66.9371 57.3263C66.8194 57.1843 66.5771 57.0185 66.2101 56.8289C65.8431 56.6393 65.5593 56.4972 65.3586 56.4028C65.158 56.3086 64.9788 56.234 64.8211 56.1788C64.6631 56.1237 64.5383 56.0823 64.4466 56.0547C64.3553 56.0274 64.2871 56.008 64.2421 55.9966C64.1968 55.9849 64.1554 55.9733 64.1179 55.9618C64.0802 55.9504 64.064 55.9453 64.0695 55.9463C64.0747 55.9473 64.0833 55.9478 64.0953 55.9478C64.1073 55.9481 64.0467 55.9483 63.9137 55.9486C63.7807 55.9488 63.6194 55.9477 63.4296 55.9451C63.2401 55.9425 63.0446 55.9614 62.8428 56.002C62.6409 56.0429 62.4298 56.1357 62.2096 56.2803C61.9894 56.4249 61.7641 56.5527 61.5338 56.6638C61.3032 56.7751 61.1339 56.8563 61.0259 56.9073C60.9176 56.9583 60.7085 57.186 60.3985 57.5905C60.0888 57.9952 59.8303 58.3294 59.6231 58.5929C59.416 58.8564 59.2451 59.0853 59.1105 59.2796C58.9757 59.4742 58.8315 59.6691 58.678 59.8642C58.5241 60.0592 58.3384 60.2695 58.1208 60.4951C57.903 60.7206 57.7385 60.89 57.6274 61.0035C57.5162 61.1166 57.4612 61.1854 57.4622 61.2099C57.463 61.2346 57.4541 61.2684 57.4357 61.3113C57.4172 61.354 57.3887 61.4149 57.3502 61.494C57.3119 61.5728 57.2871 61.6458 57.2756 61.7131C57.2644 61.7805 57.2623 61.8078 57.2694 61.7948C57.2766 61.782 57.2869 61.8137 57.3002 61.89C57.3135 61.9662 57.3214 62.0002 57.324 61.9922C57.3266 61.9838 57.336 61.9689 57.3521 61.9473C57.368 61.926 57.3843 61.9078 57.4009 61.8927" stroke="#3D5330" stroke-width="4" stroke-linecap="round" stroke-linejoin="round"/>
<path d="M57.1106 60.2504C57.1038 60.3332 57.098 60.39 57.093 60.421C57.0883 60.4519 57.0904 60.4577 57.0993 60.4385C57.1078 60.4195 57.1125 60.4089 57.1133 60.4069C57.1141 60.4048 57.1166 60.4005 57.1207 60.394C57.1246 60.3875 57.1289 60.3698 57.1336 60.3409C57.1383 60.3121 57.1389 60.2659 57.1356 60.2024C57.1319 60.139 57.1279 60.1049 57.1235 60.1002C57.1193 60.0953 57.1223 60.1018 57.1324 60.12C57.1428 60.1385 57.0769 59.9589 56.9345 59.5812C56.7921 59.2038 56.6073 58.7761 56.3801 58.2983C56.1532 57.8207 55.9122 57.3706 55.6571 56.9479C55.402 56.5249 55.1881 56.1371 55.0152 55.7844C54.8427 55.4319 54.7563 55.1556 54.756 54.9556C54.756 54.7553 54.7542 54.6308 54.7506 54.5822C54.7469 54.5333 54.7753 54.6338 54.8357 54.8838C54.8963 55.1335 55.0017 55.4839 55.1519 55.935C55.3023 56.3858 55.4348 56.7646 55.5493 57.0715C55.6638 57.3785 55.7859 57.6973 55.9155 58.0279C56.0449 58.3586 56.1673 58.6524 56.2829 58.9094C56.3982 59.1664 56.4983 59.3837 56.5831 59.5613C56.668 59.7387 56.7377 59.872 56.7924 59.9612C56.847 60.0502 56.8996 60.1225 56.9501 60.1779C57.0004 60.2333 57.0179 60.2507 57.0028 60.2302C56.9877 60.2096 57.0114 60.2377 57.0739 60.3147C57.1363 60.3915 57.1935 60.463 57.2453 60.5294C57.2968 60.596 57.3146 60.6189 57.2988 60.598C57.2829 60.5772 57.2587 60.4868 57.2261 60.3268C57.1933 60.1669 57.1724 60.0652 57.1633 60.0217" stroke="#3D5330" stroke-width="4" stroke-linecap="round" stroke-linejoin="round"/>
<path d="M56.0039 56.6123C55.9528 56.7124 55.931 56.762 55.9383 56.761C55.9453 56.7599 55.942 56.7692 55.9285 56.7887C55.915 56.8082 55.9082 56.8669 55.9082 56.965C55.9082 57.0631 55.9189 57.1642 55.9402 57.2682C55.9616 57.3725 56.0266 57.4608 56.1354 57.5331C56.244 57.6057 56.316 57.6174 56.3517 57.5683C56.3874 57.5189 56.4022 57.4957 56.3962 57.4988C56.3902 57.502 56.3967 57.472 56.4157 57.409C56.4347 57.3461 56.4431 57.3159 56.4407 57.3185C56.4386 57.3209 56.4432 57.2886 56.4544 57.2217C56.4656 57.1549 56.4867 57.0732 56.5176 56.9767C56.5486 56.8805 56.5824 56.7205 56.6191 56.4968C56.6558 56.2731 56.7001 55.9697 56.7519 55.5865C56.8034 55.2031 56.8453 54.9171 56.8776 54.7285C56.9096 54.5399 56.929 54.4142 56.9358 54.3515C56.9423 54.2889 56.961 54.0939 56.992 53.7666C57.0227 53.4394 57.1945 53.0728 57.5073 52.6668C57.8199 52.2607 58.1691 51.8818 58.5548 51.5301C58.9405 51.1787 59.3062 50.8785 59.6518 50.6295C59.9975 50.3809 60.3747 50.1649 60.7836 49.9815C61.1925 49.7986 61.5672 49.6525 61.9076 49.5433C62.2478 49.4343 62.5189 49.361 62.7208 49.3232C62.9225 49.2855 63.0891 49.2758 63.2206 49.294C63.3517 49.3119 63.3456 49.3082 63.2022 49.2827C63.0588 49.2574 62.9986 49.2496 63.0215 49.2592C63.0444 49.2689 62.9401 49.315 62.7087 49.3977C62.4771 49.4805 62.3393 49.5287 62.2953 49.5425" stroke="#3D5330" stroke-width="4" stroke-linecap="round" stroke-linejoin="round"/>
<path d="M56.1282 57.64C56.1058 57.6343 56.0798 57.6341 56.0502 57.6393C56.0202 57.6445 56.0073 57.653 56.0115 57.665C56.0157 57.677 56.0766 57.6916 56.1942 57.7087C56.3116 57.7259 56.4019 57.7163 56.4652 57.6799C56.5284 57.6432 56.543 57.6363 56.5089 57.6592C56.4792 57.6808 56.7489 57.5201 57.3178 57.1773C57.8912 56.8331 58.3877 56.5546 58.8072 56.3415C59.2271 56.1285 59.7315 55.7832 60.3205 55.3056C60.9097 54.828 61.3496 54.4557 61.6401 54.1889C61.9305 53.9222 62.1307 53.7453 62.2405 53.6579C62.3503 53.5705 62.5423 53.4168 62.8164 53.197C63.0902 52.9769 63.2971 52.7706 63.4371 52.5778C63.5771 52.3848 63.6965 52.1854 63.7951 51.9797C63.8938 51.7739 63.9694 51.5671 64.0219 51.3593C64.0745 51.1514 64.1089 50.9985 64.125 50.9004C64.1409 50.8023 64.144 50.7286 64.1344 50.6792C64.1245 50.6295 64.1089 50.5627 64.0875 50.479C64.0662 50.3949 64.0495 50.3279 64.0376 50.2777C64.0256 50.2275 63.9862 50.1347 63.9193 49.9994C63.8524 49.8644 63.8119 49.7806 63.7979 49.7478C63.7841 49.7151 63.7595 49.6661 63.7241 49.601C63.6887 49.536 63.6501 49.4788 63.6085 49.4294C63.5669 49.3797 63.5326 49.3351 63.5058 49.2955C63.4788 49.256 63.4677 49.237 63.4726 49.2386C63.4776 49.2401 63.4789 49.2406 63.4766 49.2398C63.4739 49.2393 63.4635 49.2101 63.4453 49.1524C63.4271 49.0949 63.4188 49.069 63.4203 49.0747C63.4221 49.0802 63.4241 49.0842 63.4262 49.0868C63.4283 49.0892 63.4262 49.0931 63.4199 49.0985C63.4137 49.1043 63.4644 49.0585 63.5722 48.9612" stroke="#3D5330" stroke-width="4" stroke-linecap="round" stroke-linejoin="round"/>
<path d="M100.763 37.6946C100.77 37.7144 100.774 37.7241 100.775 37.7239C100.777 37.7234 100.795 37.7217 100.831 37.7188C100.867 37.7157 100.887 37.708 100.889 37.6958C100.891 37.6838 100.892 37.678 100.892 37.6782C100.892 37.6782 100.892 37.6794 100.893 37.6818C100.893 37.6841 100.895 37.668 100.899 37.6334C100.903 37.5988 100.91 37.5513 100.919 37.491C100.928 37.4306 100.933 37.3816 100.936 37.3439C100.938 37.3064 100.942 37.2687 100.948 37.2307C100.954 37.1927 100.956 37.1423 100.954 37.0793C100.952 37.0161 100.95 36.8558 100.948 36.5986C100.946 36.341 100.932 36.1062 100.907 35.8939C100.882 35.6817 100.857 35.5162 100.833 35.3976C100.809 35.279 100.797 35.1663 100.797 35.0594C100.797 34.9524 100.786 34.8518 100.764 34.7577C100.722 34.7033 100.671 34.6562 100.609 34.6161C100.547 34.576 100.49 34.5301 100.44 34.4784C100.389 34.4269 100.262 34.3908 100.057 34.3702C99.8523 34.35 99.6728 34.3363 99.5188 34.3293C99.3649 34.3225 99.1725 34.3131 98.9413 34.3012C98.71 34.2887 98.1951 34.2708 97.3969 34.2474C96.5973 34.2229 95.9925 34.2032 95.5823 34.1884C95.1715 34.1733 94.7887 34.1742 94.4337 34.1912C94.0787 34.2081 93.7395 34.2267 93.4163 34.247C93.093 34.2673 92.849 34.2788 92.6843 34.2817C92.5198 34.2845 92.3331 34.2897 92.1244 34.2973C91.9157 34.3051 91.6058 34.3237 91.1948 34.3531C90.7839 34.3822 90.4466 34.4064 90.1829 34.4257C89.9195 34.4449 89.6725 34.4625 89.4419 34.4784C89.211 34.4945 88.9592 34.5089 88.6865 34.5216C88.4134 34.5344 88.1599 34.554 87.9259 34.5806C87.692 34.6068 87.4986 34.6452 87.3458 34.6957C87.1933 34.7461 86.9998 34.7961 86.7652 34.8455C86.531 34.8949 86.246 34.9038 85.9102 34.8721C85.5753 34.8567 85.2154 34.8432 84.8308 34.8315C84.4458 34.8195 84.1563 34.8141 83.9621 34.8151C83.7679 34.8161 83.6139 34.8177 83.4999 34.8198C83.3859 34.8219 83.2085 34.8256 82.9677 34.831C82.7267 34.8365 82.3213 34.849 81.7516 34.8685C81.1816 34.8883 80.7238 34.8967 80.3781 34.8939C80.0328 34.8908 79.7817 34.8927 79.625 34.8997C79.4684 34.9067 79.3443 34.916 79.253 34.9274C79.1619 34.9391 79.0936 34.9489 79.048 34.9567C79.0027 34.9645 78.9628 34.9709 78.9282 34.9758C78.8936 34.981 78.8659 34.9853 78.8454 34.9887C78.8248 34.9921 78.8037 34.996 78.7821 35.0004C78.7605 35.0048 78.7401 35.0093 78.7209 35.014C78.7016 35.0187 78.6705 35.0278 78.6275 35.0413C78.5843 35.0551 78.5508 35.0695 78.5268 35.0843C78.5026 35.0989 78.4766 35.1117 78.4487 35.1229C78.4211 35.1338 78.4103 35.1386 78.4163 35.137C78.4223 35.1354 78.4195 35.1364 78.4077 35.14C78.3963 35.1439 78.3858 35.1483 78.3761 35.153C78.3665 35.1577 78.3532 35.1647 78.3363 35.174C78.3194 35.1834 78.3053 35.192 78.2941 35.1998C78.2827 35.2073 78.2667 35.2153 78.2461 35.2236C78.2256 35.2316 78.2045 35.2394 78.1829 35.2466C78.161 35.2537 78.1544 35.2544 78.163 35.2489C78.1715 35.2435 78.1135 35.2816 77.9888 35.3632C77.8642 35.4452 77.7407 35.5527 77.6183 35.6856C77.4957 35.8188 77.4035 35.9275 77.3415 36.0118C77.2793 36.096 77.2123 36.1833 77.1405 36.2735C77.0689 36.3638 77.0129 36.4496 76.9726 36.5307C76.932 36.6116 76.9058 36.68 76.8941 36.7359C76.8822 36.7916 76.8797 36.8367 76.8867 36.8713C76.8935 36.9062 76.8957 36.9408 76.8933 36.9751C76.8907 37.01 76.8984 37.0903 76.9164 37.2162C76.9341 37.3424 76.9527 37.4391 76.9722 37.5062C76.9915 37.5736 77.0314 37.6698 77.0921 37.7949C77.1527 37.9203 77.1904 38.0199 77.2053 38.0938C77.2199 38.1676 77.2395 38.2559 77.2642 38.3587C77.2887 38.4617 77.306 38.5421 77.3162 38.5999C77.3263 38.6576 77.3344 38.6982 77.3404 38.7216C77.3466 38.7453 77.3517 38.7646 77.3556 38.7797C77.3595 38.7948 77.3652 38.8072 77.3728 38.8168C77.3806 38.8264 77.386 38.8339 77.3892 38.8391C77.3925 38.8443 77.4076 38.86 77.4344 38.8862C77.461 38.9128 77.4873 38.9329 77.5133 38.9467C77.5393 38.9605 77.5604 38.9704 77.5766 38.9763C77.5927 38.9826 77.6052 38.9878 77.614 38.992C77.6226 38.9961 77.6285 38.9983 77.6316 38.9983C77.635 38.9983 77.753 39.0161 77.9857 39.0517C78.2184 39.0873 78.4141 39.1205 78.5729 39.1512C78.7319 39.1818 78.8555 39.1999 78.9438 39.2051C79.0317 39.2103 79.2167 39.2176 79.4986 39.2273C79.7802 39.2371 80.03 39.2409 80.2481 39.2386C80.466 39.2363 80.7052 39.2322 80.9657 39.2265C81.2262 39.2208 81.5053 39.2319 81.8027 39.26C82.1002 39.2884 82.3635 39.3005 82.5926 39.2963C82.8213 39.2919 82.9997 39.2915 83.1278 39.2952C83.2558 39.2988 83.5468 39.3198 84.0008 39.3583C84.4547 39.3966 84.8187 39.4204 85.0927 39.4298C85.3668 39.4392 85.569 39.4424 85.6994 39.4395C85.8298 39.4366 85.9442 39.4352 86.0426 39.4352C86.141 39.4355 86.2865 39.4336 86.4791 39.4294C86.672 39.4252 86.9489 39.4187 87.3099 39.4099C87.6711 39.401 87.9552 39.3933 88.1621 39.3868C88.3691 39.3803 88.5438 39.3724 88.6865 39.363C88.8288 39.3539 89.1818 39.3287 89.7452 39.2874C90.3087 39.246 90.7474 39.2118 91.0613 39.1848C91.3755 39.1575 91.6624 39.1508 91.9222 39.1649C92.1822 39.1787 92.4495 39.1816 92.7241 39.1738C92.9989 39.166 93.2371 39.1625 93.4385 39.1632C93.64 39.1638 93.9176 39.1593 94.2713 39.1496C94.625 39.14 94.9022 39.1303 95.1028 39.1204C95.3035 39.1105 95.4913 39.0885 95.6662 39.0545C95.8411 39.0201 95.9805 38.9964 96.0843 38.9834C96.1882 38.9704 96.2747 38.9518 96.3439 38.9276C96.4132 38.9034 96.5518 38.8805 96.7597 38.8589C96.9674 38.8373 97.2338 38.8191 97.5589 38.8043C97.8837 38.7897 98.1313 38.7734 98.3015 38.7552C98.4714 38.7367 98.6445 38.7278 98.8207 38.7286C98.9969 38.7291 99.1262 38.7294 99.2084 38.7294C99.2828 38.7432 99.3483 38.7432 99.4048 38.7294C99.4584 38.7201 99.5903 38.7065 99.8006 38.6889C100.008 38.6758 100.165 38.6774 100.271 38.6935C100.375 38.7089 100.451 38.7131 100.498 38.7064C100.544 38.6994 100.597 38.6818 100.654 38.6537C100.712 38.6256 100.746 38.6097 100.757 38.6061C100.768 38.6027 100.783 38.5921 100.803 38.5744C100.824 38.5565 100.836 38.5466 100.84 38.5448C100.844 38.543 100.854 38.5382 100.87 38.5304C100.885 38.5224 100.892 38.5187 100.892 38.5195C100.892 38.52 100.892 38.5196 100.892 38.5183C100.892 38.5168 100.892 38.5175 100.892 38.5206C100.892 38.5235 100.906 38.5165 100.933 38.4996C100.96 38.4827 100.972 38.4733 100.969 38.4715C100.966 38.4694 100.963 38.4708 100.961 38.4758C100.96 38.4807 100.969 38.4657 100.99 38.4309C101.011 38.3958 101.026 38.3634 101.033 38.3337C101.041 38.3041 101.044 38.2816 101.044 38.2663C101.045 38.2509 101.045 38.2403 101.046 38.2343C101.047 38.2283 101.049 38.2234 101.052 38.2198C101.055 38.2162 101.058 38.1846 101.064 38.125C101.069 38.0657 101.074 38.0091 101.077 37.9553C101.081 37.9014 101.084 37.8536 101.089 37.8117C101.093 37.7698 101.088 37.7145 101.075 37.6459C101.063 37.5774 101.044 37.4912 101.02 37.3871C100.996 37.2831 100.971 37.2059 100.946 37.1557C100.92 37.1055 100.906 37.0771 100.903 37.0703" stroke="#3D5330" stroke-width="4" stroke-linecap="round" stroke-linejoin="round"/>
<path d="M99.3881 39.2467C99.4001 39.2959 99.3937 39.2638 99.369 39.1507C99.344 39.0375 99.3332 38.975 99.3366 38.963C99.3402 38.9508 99.41 39.0086 99.5458 39.1363C99.6817 39.2638 99.8135 39.3818 99.9413 39.4906C100.069 39.5988 100.214 39.7442 100.375 39.9268C100.537 40.1089 100.664 40.2615 100.758 40.3845C100.852 40.5073 100.995 40.6598 101.186 40.8421C101.378 41.0242 101.542 41.1997 101.679 41.3685C101.815 41.5371 101.917 41.6874 101.985 41.8196C102.052 41.9517 102.156 42.1138 102.296 42.3058C102.436 42.4972 102.57 42.6543 102.7 42.777C102.829 42.8996 102.95 43.0462 103.064 43.2169C103.177 43.3875 103.273 43.5344 103.352 43.6577C103.43 43.781 103.517 43.8954 103.613 44.0008C103.708 44.1056 103.778 44.1845 103.822 44.2376C103.867 44.2906 103.875 44.3177 103.846 44.3187C103.818 44.3195 103.804 44.3187 103.806 44.3164C103.808 44.314 103.807 44.3146 103.805 44.318C103.802 44.3211 103.777 44.309 103.729 44.2817C103.681 44.2541 103.619 44.2165 103.542 44.1689C103.465 44.121 103.397 44.0782 103.338 44.0405C103.279 44.0025 103.223 43.9611 103.172 43.9161C103.12 43.8708 103.016 43.8256 102.86 43.7806C102.705 43.7356 102.583 43.7031 102.496 43.6831C102.409 43.663 102.313 43.6584 102.206 43.6691C102.099 43.6795 102.022 43.6921 101.974 43.7069C101.926 43.722 101.882 43.7388 101.843 43.7573C101.803 43.776 101.682 43.8181 101.48 43.8837C101.278 43.9492 101.127 43.9956 101.027 44.023C100.927 44.0505 100.849 44.0788 100.791 44.1076C100.733 44.1365 100.663 44.1789 100.58 44.2348C100.496 44.291 100.434 44.3321 100.393 44.3581C100.352 44.3841 100.234 44.4327 100.04 44.504C99.8468 44.5753 99.6838 44.6434 99.5513 44.7082C99.4186 44.7729 99.3236 44.8227 99.2663 44.8575C99.2093 44.8921 99.0978 44.9271 98.9317 44.9625C98.7659 44.9974 98.62 44.9992 98.4941 44.968C98.3631 44.9438 98.2532 44.9269 98.1642 44.9173C98.0749 44.9081 98.0045 44.8997 97.953 44.8919C97.9012 44.8841 97.8191 44.848 97.7066 44.7838C97.5942 44.7198 97.5087 44.6569 97.4501 44.595C97.3918 44.5331 97.3496 44.4887 97.3236 44.4619C97.2976 44.4356 97.2604 44.3996 97.212 44.3538C97.1638 44.308 97.1271 44.2735 97.1019 44.2501C97.0769 44.2264 97.0548 44.2012 97.0355 44.1747C97.0165 44.1479 96.9467 44.0772 96.8262 43.9625C96.706 43.8475 96.6006 43.7498 96.51 43.6694C96.4192 43.5893 96.2751 43.492 96.0778 43.3776C95.8803 43.2634 95.7258 43.182 95.6144 43.1333C95.503 43.0847 95.4239 43.0481 95.377 43.0237C95.3299 42.9995 95.2345 42.9639 95.0909 42.9168C94.9472 42.8697 94.7651 42.8453 94.5447 42.8434C94.3245 42.8416 94.1515 42.8451 94.0258 42.8539C93.9001 42.8628 93.7472 42.9014 93.5671 42.9699C93.387 43.0383 93.2145 43.1094 93.0498 43.1832C92.8848 43.2574 92.7664 43.3105 92.6945 43.3425C92.6224 43.3745 92.5381 43.4188 92.4415 43.4755C92.3447 43.5322 92.2156 43.6169 92.0542 43.7295C91.8926 43.8422 91.7679 43.9321 91.6802 43.9995C91.5928 44.0666 91.5307 44.1183 91.494 44.1544C91.4576 44.1906 91.4317 44.2168 91.4163 44.2329C91.4007 44.249 91.3654 44.2838 91.3105 44.3374C91.2556 44.3912 91.2158 44.43 91.1911 44.4537C91.1666 44.4774 91.1391 44.501 91.1087 44.5247C91.0782 44.5484 91.0385 44.5809 90.9896 44.6222C90.9409 44.6636 90.8796 44.7087 90.8057 44.7573C90.7318 44.806 90.6298 44.8512 90.4996 44.8931C90.3695 44.9352 90.2711 44.9619 90.2045 44.9731C90.1379 44.984 90.0267 45.0009 89.8711 45.0238C89.7154 45.0469 89.504 45.0357 89.2367 44.9902C88.9696 44.9447 88.7415 44.8983 88.5523 44.851C88.3631 44.8036 88.1563 44.7202 87.9319 44.6008C87.7075 44.4814 87.5267 44.3803 87.3893 44.2973C87.2518 44.2143 87.1242 44.1112 87.0063 43.9882C86.8886 43.8654 86.7472 43.7289 86.5819 43.5786C86.4166 43.4282 86.2777 43.3113 86.1653 43.2281C86.0529 43.1449 85.958 43.0784 85.8807 43.0287C85.8037 42.979 85.6996 42.9356 85.5684 42.8984C85.4369 42.8615 85.2687 42.8344 85.0636 42.8172C84.8587 42.8003 84.6966 42.7921 84.5771 42.7927C84.4579 42.7934 84.2963 42.8093 84.0922 42.8403C83.8884 42.8713 83.7169 42.8991 83.5777 42.9238C83.4384 42.9483 83.2688 43.0094 83.069 43.1072C82.8693 43.205 82.7275 43.2759 82.6434 43.3198C82.5591 43.3638 82.4387 43.4501 82.2823 43.5786C82.1259 43.7071 81.9775 43.8375 81.8372 43.9699C81.6969 44.102 81.5827 44.2265 81.4945 44.3433C81.4062 44.4604 81.3033 44.5531 81.1856 44.6215C81.0682 44.6901 80.932 44.7369 80.7769 44.7616C80.622 44.7866 80.4928 44.8107 80.3892 44.8338C80.2856 44.857 80.1149 44.8754 79.877 44.8891C79.6391 44.9029 79.3964 44.8927 79.1489 44.8584C78.9016 44.824 78.6886 44.7861 78.5098 44.7444C78.331 44.7028 78.1445 44.6518 77.9503 44.5915C77.7559 44.5309 77.5292 44.4722 77.2702 44.4155C77.0112 44.3585 76.8142 44.3136 76.6791 44.2808C76.544 44.248 76.3844 44.2382 76.2001 44.2512C76.0161 44.2642 75.8431 44.2789 75.6812 44.2953C75.5191 44.3119 75.3933 44.3295 75.3037 44.348C75.2139 44.3662 75.1486 44.3815 75.1077 44.394C75.0666 44.4067 75.0291 44.4167 74.9953 44.4237C74.9615 44.431 74.9045 44.44 74.8243 44.451C74.7439 44.4616 74.6999 44.4645 74.6923 44.4595C74.6848 44.4546 74.7403 44.3808 74.859 44.238C74.978 44.0949 75.0799 43.9744 75.1647 43.8766C75.2493 43.7791 75.3209 43.6951 75.3795 43.6246C75.4378 43.5538 75.4814 43.4985 75.5102 43.4587C75.5389 43.4189 75.5765 43.3543 75.6231 43.2648C75.6699 43.1756 75.724 43.0558 75.7855 42.9055C75.8466 42.7551 75.937 42.6013 76.0564 42.4439C76.1756 42.2868 76.303 42.1367 76.4386 41.9936C76.5745 41.8506 76.6833 41.728 76.765 41.626C76.8467 41.5241 76.939 41.4028 77.0418 41.262C77.1449 41.121 77.2355 41.002 77.3135 40.905C77.3916 40.8077 77.4571 40.7281 77.5099 40.6662C77.563 40.6045 77.5976 40.5606 77.6138 40.5343C77.6299 40.5081 77.6424 40.488 77.6513 40.4742C77.6598 40.4604 77.7123 40.3994 77.8086 40.2912C77.9049 40.183 78.0024 40.0911 78.101 40.0154C78.1999 39.9397 78.2963 39.8999 78.3903 39.896C78.4842 39.8921 78.539 39.8886 78.5547 39.8854" stroke="#3D5330" stroke-width="4" stroke-linecap="round" stroke-linejoin="round"/>
<path d="M78.4814 45.9715C78.4717 45.9851 78.471 45.9859 78.479 45.9739C78.4868 45.9617 78.4877 45.9618 78.4817 45.9743C78.4757 45.9865 78.4815 45.9769 78.4989 45.9454C78.5164 45.9142 78.5337 45.883 78.5508 45.8518C78.568 45.8206 78.5819 45.7963 78.5926 45.7788C78.6033 45.7617 78.6075 45.7503 78.6051 45.7445C78.6028 45.7391 78.5424 45.7898 78.424 45.8967C78.3055 46.0033 78.1464 46.1305 77.9465 46.2783C77.7466 46.4258 77.5738 46.5452 77.428 46.6365C77.2823 46.728 77.1856 46.7881 77.138 46.8167C77.0924 46.8463 77.0437 46.8856 76.9919 46.9345C76.9401 46.9834 76.8971 47.0269 76.8627 47.0648C76.8299 47.1036 76.8116 47.1405 76.8077 47.1753C76.8066 47.211 76.7802 47.2531 76.7284 47.3018C76.6766 47.3501 76.6393 47.3937 76.6164 47.4325C76.5932 47.4709 76.5677 47.5184 76.5398 47.5749C76.5117 47.6311 76.4825 47.6905 76.452 47.7532C76.4213 47.8159 76.3882 47.9257 76.3528 48.0825C76.3174 48.2396 76.2792 48.3789 76.238 48.5004C76.1967 48.6221 76.1101 49.0252 75.9784 49.7095C75.8465 50.3947 75.7472 51.3144 75.6805 52.4686C75.6137 53.6245 75.5712 54.5045 75.5533 55.1085C75.5356 55.7125 75.5297 56.2051 75.5357 56.5862C75.5417 56.967 75.5567 57.3241 75.5806 57.6573C75.6046 57.9908 75.6228 58.3277 75.6353 58.6682C75.6478 59.0087 75.6582 59.3549 75.6665 59.7069C75.6748 60.0586 75.6835 60.3339 75.6927 60.5329C75.7015 60.7316 75.7236 61.0308 75.759 61.4303C75.7944 61.8299 75.8244 62.1568 75.8488 62.4112C75.8733 62.6654 75.8872 62.9429 75.8906 63.2439C75.8942 63.5446 75.8981 63.8059 75.9023 64.0278C75.9065 64.2497 75.9123 64.4441 75.9199 64.6111C75.9277 64.7781 75.9261 64.9547 75.9152 65.141C75.9045 65.3272 75.9116 65.8048 75.9363 66.5737C75.961 67.3429 76.0129 68.1051 76.092 68.8602C76.1714 69.6156 76.2397 70.1494 76.297 70.4616C76.3545 70.7734 76.3886 70.923 76.3993 70.9102C76.4097 70.8972 76.4236 70.8287 76.4411 70.7047C76.4585 70.5806 76.4668 70.4938 76.4661 70.4444" stroke="#3D5330" stroke-width="4" stroke-linecap="round" stroke-linejoin="round"/>
<path d="M100.366 44.9993C100.311 44.984 100.285 44.9775 100.287 44.9798C100.29 44.9824 100.289 44.9837 100.283 44.9837C100.277 44.9837 100.272 44.981 100.266 44.9755C100.26 44.9698 100.252 44.9693 100.243 44.974C100.234 44.9784 100.224 45.0007 100.212 45.0411C100.201 45.0814 100.197 45.1039 100.202 45.1086C100.206 45.113 100.207 45.1125 100.205 45.1071C100.203 45.1016 100.197 45.1063 100.187 45.1211C100.177 45.1359 100.257 45.2335 100.425 45.4137C100.594 45.5942 100.829 45.8124 101.13 46.0681C101.43 46.324 101.628 46.5029 101.721 46.6046C101.814 46.7063 101.955 46.883 102.142 47.1345C102.329 47.3863 102.481 47.5978 102.598 47.7689C102.715 47.9401 102.809 48.0933 102.881 48.2286C102.953 48.3636 103.025 48.5468 103.097 48.7783C103.169 49.0098 103.232 49.4453 103.287 50.085C103.341 50.7244 103.374 51.3321 103.385 51.908C103.396 52.4839 103.391 52.9548 103.37 53.3205C103.35 53.686 103.34 53.958 103.339 54.1367C103.339 54.3156 103.332 54.9336 103.319 55.9904C103.306 57.0473 103.303 57.847 103.31 58.3894C103.318 58.932 103.328 59.3346 103.341 59.5974C103.354 59.8598 103.366 60.0467 103.376 60.1581C103.387 60.2694 103.393 60.424 103.394 60.622C103.396 60.8197 103.397 61.123 103.399 61.5319C103.4 61.9408 103.404 62.3877 103.413 62.8726C103.422 63.3575 103.429 63.7371 103.434 64.0115C103.439 64.2857 103.439 64.5253 103.433 64.7302C103.428 64.9352 103.408 65.1637 103.374 65.4157C103.34 65.6678 103.328 65.8934 103.337 66.0924C103.347 66.2911 103.353 66.588 103.355 66.9831C103.357 67.3785 103.358 67.6774 103.356 67.8798C103.355 68.0822 103.354 68.1771 103.354 68.1647C103.354 68.1519 103.353 68.139 103.349 68.126C103.346 68.1132 103.341 68.0984 103.335 68.0815" stroke="#3D5330" stroke-width="4" stroke-linecap="round" stroke-linejoin="round"/>
<path d="M96.9347 46.7208C96.9558 46.7289 96.9562 46.6929 96.9359 46.6131C96.9156 46.5335 96.9052 46.5078 96.9047 46.5362C96.9044 46.5648 96.9043 46.5777 96.9043 46.5749C96.9043 46.572 96.9053 46.5725 96.9074 46.5764C96.9095 46.5803 96.9081 46.5852 96.9031 46.5909C96.8982 46.5966 96.9014 46.6365 96.9129 46.7106C96.9243 46.7847 96.9414 46.8471 96.964 46.8975C96.9867 46.9482 97.0089 46.9905 97.0308 47.0243C97.0524 47.0584 97.0711 47.0861 97.087 47.1075C97.1026 47.1285 97.1176 47.1488 97.1319 47.1683C97.1462 47.1878 97.1894 47.2323 97.2615 47.3018C97.3334 47.3715 97.404 47.4314 97.4735 47.4816C97.543 47.5321 97.6122 47.5791 97.6812 47.6225C97.7499 47.666 97.8012 47.6974 97.835 47.7169C97.8686 47.7365 97.9394 47.7736 98.0474 47.8285C98.1554 47.8836 98.3013 48.0007 98.4851 48.1797C98.6685 48.3584 98.829 48.5354 98.9664 48.7107C99.1039 48.886 99.2145 49.02 99.2983 49.1126C99.3821 49.2052 99.4491 49.4027 99.4993 49.7049C99.5493 50.0069 99.5813 50.231 99.5954 50.3772C99.6097 50.5231 99.6208 50.6387 99.6286 50.7237C99.6366 50.8088 99.6457 50.9163 99.6559 51.0464C99.6658 51.177 99.6728 51.4289 99.677 51.8022C99.6812 52.1752 99.694 52.5086 99.7156 52.8026C99.7375 53.0968 99.7583 53.3166 99.7781 53.462C99.7976 53.6076 99.8144 53.7241 99.8285 53.8112C99.8423 53.8983 99.8568 54.0171 99.8722 54.1675C99.8875 54.3181 99.8989 54.4426 99.9061 54.5409C99.9132 54.6395 99.935 54.8542 99.9717 55.185C100.008 55.5159 100.022 55.8246 100.012 56.111C100.002 56.3976 99.9971 56.5415 99.9963 56.5425C99.9956 56.5435 99.9949 56.5438 99.9944 56.5433C99.9941 56.5427 99.9945 56.5425 99.9956 56.5425C99.9966 56.5425 100.006 56.5405 100.023 56.5363C100.04 56.5324 100.064 56.5272 100.096 56.5207" stroke="#3D5330" stroke-width="4" stroke-linecap="round" stroke-linejoin="round"/>
<path d="M100.219 58.5848C100.224 58.5819 100.221 58.5628 100.208 58.5274C100.361 58.4759 100.404 58.4462 100.339 58.4381C100.272 58.4149 100.242 58.4101 100.251 58.4236C100.259 58.4382 100.261 58.4446 100.259 58.4428C100.256 58.4412 100.256 58.4433 100.259 58.4493C100.261 58.4556 100.261 58.4538 100.257 58.4439C100.253 58.4343 100.251 58.5788 100.253 58.8774C100.254 59.176 100.271 59.4631 100.305 59.7386C100.338 60.0143 100.333 60.1402 100.292 60.1163C100.25 60.0931 100.237 60.0845 100.252 60.0905C100.267 60.0967 100.271 60.0956 100.262 60.0873C100.254 60.0793 100.253 60.0707 100.259 60.0616C100.265 60.0525 100.235 60.0066 100.169 59.9239C100.137 59.8461 100.118 59.7914 100.112 59.7596C100.107 59.7276 100.103 59.7027 100.1 59.685C100.097 59.6673 100.094 59.6411 100.091 59.6063C100.087 59.5714 100.081 59.5303 100.071 59.483C100.061 59.4354 100.051 59.3901 100.042 59.3472C100.033 59.304 100.028 59.278 100.026 59.2691C100.025 59.2605 100.024 59.2555 100.025 59.2539C100.025 59.2526 100.026 59.25 100.027 59.2461C100.029 59.2419 100.03 59.237 100.03 59.2313C100.03 59.2259 100.03 59.2231 100.03 59.2231C100.03 59.2231 100.029 59.2221 100.029 59.22C100.028 59.2179 100.028 59.2137 100.027 59.2075C100.025 59.2015 100.022 59.1797 100.018 59.142C100.013 59.1042 100.01 59.0799 100.008 59.069C100.006 59.0578 100.005 59.0541 100.006 59.058C100.006 59.0619 100.007 59.0631 100.007 59.0616C100.007 59.0603 100.007 59.0627 100.005 59.069C100.003 59.075 100.01 59.0592 100.025 59.0217C100.041 58.9845 100.051 58.9623 100.056 58.9551" stroke="#3D5330" stroke-width="4" stroke-linecap="round" stroke-linejoin="round"/>
<path d="M46.8334 74.6101C46.8256 74.6969 46.7823 74.5589 46.7034 74.1961C46.6243 73.8332 46.5971 73.5495 46.6218 73.345C46.6465 73.1408 46.6609 73.0189 46.6648 72.9794C46.6687 72.9401 46.6834 72.8601 46.7089 72.7394C46.7341 72.619 46.7451 72.5619 46.7417 72.5682C46.738 72.5747 46.7366 72.5536 46.7374 72.505C46.7056 72.4949 46.7182 73.1087 46.7752 74.3467C46.832 75.5846 46.8709 77.503 46.892 80.1019C46.9128 82.701 46.9179 84.6431 46.9072 85.9281C46.8968 87.2131 46.8796 88.2038 46.8557 88.9001C46.8317 89.5965 46.7933 90.9978 46.7405 93.104C46.6874 95.21 46.653 96.8928 46.6374 98.1526C46.6218 99.4121 46.6292 100.452 46.6597 101.272C46.6899 102.092 46.7224 103.593 46.7573 105.773C46.7922 107.954 46.7887 110.025 46.7467 111.987C46.7048 113.949 46.6312 115.514 46.5258 116.684C46.4206 117.854 46.3388 118.841 46.2802 119.646C46.2214 120.451 46.1239 121.172 45.9878 121.811C46.0133 121.754 46.0503 121.634 46.0987 121.45C46.1468 121.265 46.179 121.136 46.1951 121.061" stroke="#3D5330" stroke-width="4" stroke-linecap="round" stroke-linejoin="round"/>
<path d="M132.835 71.9469C132.733 71.9955 132.729 72.5495 132.82 73.6087C132.912 74.6677 132.966 76.1794 132.981 78.1438C132.996 80.1083 133.042 81.8178 133.117 83.2724C133.192 84.7273 133.251 86.043 133.294 87.2195C133.337 88.3963 133.362 89.4569 133.369 90.4011C133.375 91.3456 133.387 92.4864 133.405 93.8234C133.423 95.1605 133.45 96.6421 133.488 98.2684C133.526 99.8947 133.559 101.365 133.587 102.681C133.616 103.996 133.623 106.107 133.609 109.014C133.595 111.922 133.587 114.098 133.585 115.542C133.582 116.987 133.581 118.077 133.58 118.814C133.58 119.55 133.597 120.283 133.632 121.013C133.626 121.037 133.645 120.99 133.688 120.871C133.732 120.753 133.782 120.625 133.84 120.487" stroke="#3D5330" stroke-width="4" stroke-linecap="round" stroke-linejoin="round"/>
<path d="M133.706 73.6614C133.71 73.6653 133.702 73.6682 133.681 73.67C133.659 73.6718 133.821 73.6005 134.166 73.4559C134.068 73.4218 134.021 73.4062 134.027 73.4094C134.032 73.4125 134.029 73.4119 134.018 73.4075C134.007 73.4028 134.021 73.3878 134.062 73.3626C134.103 73.3371 133.092 73.3879 131.028 73.5151C128.965 73.642 127.123 73.7176 125.503 73.7418C123.882 73.766 122.667 73.7755 121.858 73.7703C121.048 73.7646 120.363 73.7621 119.802 73.7629C119.241 73.7634 117.054 73.7068 113.241 73.5931C109.416 73.5099 106.331 73.4276 103.984 73.3462C101.637 73.2651 99.8048 73.2071 98.487 73.1726C97.169 73.138 95.4815 73.0868 93.4246 73.0192C91.3674 72.9518 89.6669 72.9047 88.3231 72.8779C86.979 72.8511 85.8342 72.8228 84.8886 72.7928C83.9431 72.7629 82.0776 72.7595 79.2921 72.7824C76.5069 72.805 74.3193 72.8342 72.7293 72.8701C71.1393 72.9057 69.951 72.9445 69.1645 72.9864C68.3782 73.0283 67.6959 73.0794 67.1176 73.1398C66.539 73.2004 65.1623 73.3148 62.9874 73.4831C60.8123 73.6517 58.8488 73.7517 57.0969 73.7832C55.345 73.8146 53.6927 73.8412 52.1399 73.8628C50.5868 73.8844 49.3488 73.902 48.4259 73.9155C47.5027 73.929 46.6605 73.8589 45.8992 73.7052C46.086 73.6734 46.1832 73.663 46.1908 73.6739C46.1981 73.6846 46.2285 73.6925 46.2822 73.6977" stroke="#3D5330" stroke-width="4" stroke-linecap="round" stroke-linejoin="round"/>
<path d="M138.413 121.346C138.43 121.315 138.491 121.277 138.596 121.233C138.701 121.189 138.899 121.075 139.191 120.891C139.066 120.543 138.383 120.476 137.141 120.689C135.899 120.902 134.807 121.077 133.863 121.214C132.919 121.351 132.181 121.432 131.648 121.458C131.116 121.484 130.407 121.522 129.521 121.572C128.635 121.622 127.035 121.685 124.722 121.762C122.409 121.839 119.055 121.947 114.66 122.086C110.265 122.225 106.969 122.303 104.77 122.322C102.572 122.34 100.984 122.35 100.008 122.353C99.032 122.355 98.344 122.353 97.9439 122.347C97.5442 122.341 96.7195 122.34 95.4699 122.344C94.2206 122.348 92.3576 122.327 89.8808 122.28C87.404 122.232 85.503 122.196 84.1777 122.17C82.8524 122.145 81.8921 122.133 81.2968 122.136C80.7016 122.139 78.2442 122.126 73.9247 122.095C69.6052 122.065 65.4985 122.069 61.6046 122.106C57.7104 122.144 54.6765 122.177 52.5029 122.205C50.3291 122.234 48.0909 122.312 45.7883 122.441C43.4854 122.57 42.1472 122.641 41.7737 122.654" stroke="#3D5330" stroke-width="4" stroke-linecap="round" stroke-linejoin="round"/>
<path d="M45.3315 98.2622C45.3984 98.2425 45.4713 98.2217 45.5502 98.1998C45.629 98.1777 45.6716 98.1752 45.6778 98.1924C45.6838 98.2096 45.6738 98.2084 45.6478 98.1889C45.6217 98.1691 46.079 98.1504 47.0197 98.1327C47.96 98.1147 49.3178 98.074 51.0928 98.0106C52.8676 97.9468 55.1878 97.929 58.0534 97.9571C60.919 97.9852 63.1686 98.0348 64.8021 98.1061C66.4355 98.1774 67.772 98.2342 68.8116 98.2766C69.8511 98.319 71.7165 98.4354 74.4077 98.6258C77.0992 98.8162 79.1894 98.9429 80.6785 99.0055C82.1677 99.068 83.4357 99.1128 84.4822 99.1401C85.529 99.1672 87.7502 99.1831 91.1458 99.1878C94.541 99.1925 97.7193 99.1797 100.681 99.1495C103.642 99.1193 105.842 99.0934 107.281 99.0718C108.719 99.0505 109.718 99.0464 110.278 99.0594C110.837 99.0724 113.061 99.0705 116.95 99.0536C120.839 99.0366 123.787 99.0098 125.793 98.9732C127.8 98.9362 129.311 98.8961 130.325 98.8529C131.339 98.8098 132.288 98.7597 133.173 98.7027C134.056 98.6457 134.69 98.5666 135.072 98.4651C135.455 98.3634 135.659 98.3037 135.684 98.286" stroke="#3D5330" stroke-width="4" stroke-linecap="round" stroke-linejoin="round"/>
<path d="M123.161 84.6057C123 84.4665 122.933 84.4102 122.958 84.4367C122.983 84.4633 122.968 84.456 122.913 84.4149C122.858 84.3738 122.834 84.3582 122.84 84.368C122.846 84.3779 122.802 84.3454 122.708 84.2705C122.614 84.1956 122.556 84.1455 122.536 84.1203C122.516 84.095 122.455 84.0384 122.355 83.9502C122.255 83.8623 122.208 83.8208 122.216 83.8257C122.223 83.8309 122.228 83.842 122.228 83.8589C122.084 83.7899 122.03 83.7676 122.066 83.7918C121.961 83.7419 121.855 83.7287 121.747 83.7524C121.638 83.776 121.526 83.8236 121.411 83.8952C121.296 83.9664 121.205 84.0329 121.137 84.0946C121.069 84.1559 121.017 84.2096 120.981 84.2553C120.944 84.3009 120.915 84.3391 120.891 84.37C120.868 84.401 120.86 84.4124 120.869 84.4043C120.877 84.3963 120.876 84.4023 120.865 84.4223C120.854 84.4424 120.811 84.5163 120.736 84.6443C120.66 84.7725 120.623 84.8419 120.625 84.8523C120.626 84.8627 120.6 84.9554 120.546 85.1305C120.492 85.3056 120.454 85.4361 120.432 85.5222C120.41 85.608 120.409 85.6982 120.427 85.7927C120.446 85.8871 120.463 85.9622 120.479 86.0181C120.495 86.0741 120.507 86.103 120.516 86.1048C120.525 86.1069 120.531 86.1205 120.536 86.1458C120.541 86.171 120.599 86.2815 120.711 86.4774C120.823 86.6735 120.939 86.826 121.058 86.9347C121.178 87.0435 121.284 87.1347 121.377 87.2086C121.47 87.2827 121.552 87.3468 121.624 87.4006C121.696 87.4545 121.727 87.4781 121.717 87.4716C121.707 87.4648 121.71 87.4663 121.727 87.4759C121.743 87.4855 121.771 87.4999 121.811 87.5189C121.851 87.5376 121.898 87.5518 121.95 87.5617C122.003 87.5716 122.06 87.5747 122.122 87.5711C122.184 87.5674 122.212 87.5642 122.208 87.5613C122.203 87.5585 122.199 87.5607 122.195 87.568C122.191 87.575 122.202 87.5684 122.227 87.5481C122.252 87.5278 122.282 87.5028 122.318 87.4731C122.353 87.4435 122.374 87.4266 122.381 87.4225C122.387 87.418 122.409 87.4023 122.446 87.3752C122.483 87.3479 122.52 87.3212 122.557 87.2949C122.593 87.2686 122.623 87.2515 122.646 87.2437C122.67 87.2359 122.677 87.2372 122.67 87.2476C122.662 87.2581 122.665 87.2611 122.678 87.257C122.692 87.2526 122.716 87.2371 122.752 87.2106C122.788 87.1841 122.822 87.1542 122.856 87.1209C122.89 87.0876 122.906 87.0692 122.904 87.0658C122.903 87.0624 122.906 87.0557 122.914 87.0455C122.922 87.0354 122.956 86.9983 123.015 86.9343C123.075 86.8698 123.108 86.8467 123.115 86.8649C123.121 86.8828 123.12 86.8869 123.11 86.877C123.101 86.8671 123.119 86.8586 123.165 86.8516C123.21 86.8445 123.27 86.7893 123.345 86.6858C123.42 86.5825 123.463 86.3753 123.473 86.0642C123.484 85.7534 123.464 85.4395 123.414 85.1227C123.306 85.0792 123.209 84.9453 123.124 84.7208C122.976 84.6391 122.915 84.6046 122.941 84.6171C122.967 84.6293 122.979 84.6346 122.977 84.6331C122.975 84.6315 122.962 84.6285 122.939 84.6244C122.916 84.6205 122.886 84.615 122.848 84.608C122.811 84.601 122.794 84.5927 122.799 84.583C122.803 84.5734 122.807 84.5716 122.81 84.5776C122.813 84.5836 122.791 84.5794 122.746 84.5651C122.7 84.5508 122.646 84.5143 122.584 84.4555C122.522 84.3964 122.495 84.3711 122.505 84.3794C122.514 84.3877 122.505 84.3898 122.478 84.3857C122.45 84.3812 122.421 84.3779 122.39 84.3759C122.36 84.3738 122.346 84.3748 122.349 84.379C122.352 84.3834 122.357 84.3795 122.364 84.3673C122.37 84.3553 122.358 84.3625 122.327 84.3888C122.295 84.4151 122.258 84.448 122.214 84.4875C122.17 84.527 122.155 84.5458 122.168 84.5437C122.182 84.5416 122.175 84.5487 122.147 84.5651C122.119 84.5813 122.072 84.6987 122.007 84.9175C121.941 85.1363 121.905 85.3292 121.9 85.4965C121.895 85.664 121.908 85.8271 121.94 85.9857C121.849 86.0167 121.816 86.0261 121.84 86.0138C121.822 86.0203 121.805 86.027 121.787 86.0338C121.777 86.0252 121.762 85.9734 121.742 85.8785C121.721 85.7835 121.717 85.7495 121.727 85.7763C121.737 85.8033 121.741 85.8198 121.738 85.8258C121.735 85.8318 121.738 85.7116 121.748 85.4652C121.758 85.2189 121.834 84.9489 121.978 84.6552C122.003 84.5686 121.853 84.768 121.527 85.2534" stroke="#3D5330" stroke-width="4" stroke-linecap="round" stroke-linejoin="round"/>
<path d="M123.395 107.359C123.342 107.363 123.337 107.342 123.38 107.297C123.424 107.252 123.378 107.139 123.243 106.956C123.107 106.774 122.964 106.626 122.813 106.512C122.662 106.399 122.548 106.323 122.47 106.284C122.393 106.246 122.309 106.225 122.22 106.221C122.13 106.216 122.069 106.212 122.035 106.21C122.001 106.207 121.951 106.205 121.883 106.203C121.815 106.201 121.754 106.189 121.7 106.167C121.647 106.145 121.593 106.138 121.539 106.146C121.484 106.155 121.429 106.179 121.374 106.218C121.318 106.258 121.271 106.295 121.232 106.329C121.194 106.364 121.156 106.395 121.118 106.424C121.081 106.452 121.064 106.464 121.069 106.46C121.073 106.455 121.075 106.451 121.075 106.448C121.076 106.444 121.056 106.456 121.018 106.482C120.98 106.508 120.942 106.547 120.904 106.599C120.866 106.65 120.822 106.72 120.773 106.809C120.723 106.898 120.7 106.941 120.703 106.937C120.706 106.933 120.702 106.946 120.689 106.977C120.677 107.007 120.665 107.041 120.655 107.078C120.645 107.115 120.643 107.125 120.651 107.108C120.659 107.091 120.657 107.095 120.644 107.122C120.632 107.148 120.614 107.231 120.59 107.371C120.566 107.511 120.552 107.644 120.549 107.771C120.546 107.898 120.541 107.995 120.536 108.064C120.531 108.133 120.521 108.212 120.507 108.3C120.493 108.389 120.486 108.524 120.487 108.704C120.488 108.885 120.51 109.041 120.553 109.171C120.595 109.3 120.641 109.419 120.69 109.526C120.739 109.634 120.779 109.713 120.81 109.764C120.84 109.815 120.868 109.855 120.892 109.884C120.917 109.914 120.918 109.918 120.895 109.895C120.873 109.873 120.922 109.933 121.041 110.076C121.161 110.219 121.336 110.35 121.565 110.468C121.794 110.586 121.965 110.657 122.078 110.679C122.192 110.701 122.275 110.712 122.329 110.711C122.382 110.71 122.43 110.708 122.472 110.704C122.514 110.7 122.563 110.698 122.617 110.699C122.671 110.699 122.699 110.693 122.701 110.681C122.704 110.668 122.729 110.646 122.777 110.614C122.825 110.582 122.851 110.572 122.855 110.585C122.859 110.598 122.903 110.566 122.987 110.489C123.07 110.412 123.141 110.329 123.199 110.238C123.256 110.147 123.305 110.06 123.346 109.978C123.386 109.896 123.405 109.858 123.401 109.863C123.398 109.869 123.396 109.863 123.396 109.845C123.395 109.828 123.399 109.838 123.407 109.875C123.416 109.911 123.452 109.76 123.517 109.422C123.582 109.084 123.613 108.842 123.61 108.697C123.607 108.551 123.617 108.434 123.638 108.346C123.659 108.258 123.625 108.116 123.536 107.921C123.448 107.726 123.365 107.581 123.289 107.487C123.212 107.393 123.152 107.316 123.109 107.258C123.067 107.199 123.043 107.171 123.04 107.172C123.036 107.173 123.034 107.174 123.036 107.174C123.038 107.174 123.041 107.177 123.048 107.183C123.054 107.19 123.017 107.16 122.937 107.096C122.857 107.031 122.79 106.979 122.735 106.941C122.68 106.902 122.632 106.873 122.59 106.852C122.549 106.831 122.505 106.815 122.461 106.802C122.416 106.789 122.403 106.779 122.42 106.773C122.438 106.766 122.408 106.758 122.332 106.748C122.256 106.738 122.196 106.744 122.154 106.764C122.112 106.785 122.056 106.83 121.986 106.9C121.917 106.97 121.882 107.008 121.881 107.015C121.88 107.021 121.85 107.115 121.792 107.296C121.733 107.477 121.689 107.65 121.661 107.815C121.631 107.98 121.621 108.123 121.628 108.244C121.635 108.364 121.652 108.468 121.68 108.556C121.707 108.644 121.732 108.698 121.752 108.717C121.773 108.736 121.809 108.759 121.859 108.784C121.909 108.81 121.952 108.826 121.988 108.834C122.024 108.842 122.041 108.846 122.04 108.846C122.039 108.846 122.058 108.842 122.099 108.834C122.14 108.825 122.244 108.806 122.412 108.776C122.413 108.768 122.413 108.76 122.414 108.751C122.41 108.747 122.368 108.884 122.288 109.162C122.297 109.241 122.358 109.252 122.47 109.194C122.582 109.137 122.669 109.082 122.73 109.029C122.791 108.976 122.847 108.942 122.898 108.926C122.949 108.91 122.984 108.9 123.006 108.894C123.027 108.889 123.052 108.881 123.081 108.869" stroke="#3D5330" stroke-width="4" stroke-linecap="round" stroke-linejoin="round"/>
<path d="M60.0586 106.581C60.069 106.585 60.0701 106.587 60.0618 106.584C60.0537 106.582 60.0365 106.57 60.0102 106.547C59.9842 106.523 59.868 106.446 59.6616 106.313C59.4554 106.181 59.3075 106.088 59.2177 106.033C59.1276 105.978 59.0573 105.947 59.0069 105.94C58.9566 105.933 58.9096 105.929 58.8659 105.928C58.8222 105.927 58.7648 105.929 58.6938 105.933C58.623 105.937 58.5798 105.928 58.5641 105.907C58.5485 105.886 58.4481 105.892 58.2627 105.927C58.0777 105.962 57.923 106.019 57.7985 106.098C57.6741 106.177 57.5659 106.246 57.4737 106.305C57.3813 106.363 57.3139 106.431 57.2715 106.508C57.2291 106.586 57.1852 106.683 57.1399 106.801C57.0949 106.918 57.0522 107.024 57.0119 107.117C56.9715 107.211 56.9444 107.298 56.9306 107.378C56.9169 107.459 56.9014 107.532 56.8842 107.598C56.8668 107.663 56.8535 107.761 56.8444 107.89C56.835 108.02 56.831 108.117 56.8323 108.182C56.8338 108.247 56.8373 108.296 56.8428 108.331C56.8485 108.365 56.8533 108.394 56.8573 108.418C56.8614 108.442 56.8707 108.491 56.885 108.564C56.8993 108.637 56.9107 108.695 56.9193 108.738C56.9277 108.78 56.9407 108.824 56.9584 108.87C56.9758 108.915 56.9837 108.927 56.9822 108.905C56.9804 108.883 57.0026 108.96 57.0489 109.135C57.095 109.311 57.2288 109.47 57.4503 109.613C57.6715 109.755 57.8944 109.855 58.1191 109.912C58.3434 109.969 58.604 109.98 58.9007 109.945C59.1974 109.91 59.4203 109.854 59.5694 109.778C59.7186 109.702 59.8354 109.65 59.92 109.623C60.0044 109.596 60.0895 109.496 60.1754 109.323C60.261 109.15 60.3289 108.982 60.3792 108.82C60.4294 108.659 60.4575 108.539 60.4635 108.463C60.4692 108.387 60.4716 108.333 60.4705 108.302C60.4695 108.271 60.4726 108.273 60.4799 108.307C60.4869 108.341 60.4889 108.279 60.4857 108.121C60.4826 107.962 60.4604 107.812 60.419 107.671C60.3773 107.53 60.347 107.415 60.328 107.328C60.3093 107.24 60.2981 107.184 60.2944 107.158C60.2908 107.133 60.2821 107.103 60.2683 107.07C60.2542 107.036 60.2404 107.003 60.2269 106.972C60.2134 106.94 60.2057 106.928 60.2039 106.935C60.2023 106.941 60.2033 106.944 60.207 106.945C60.2106 106.946 60.2097 106.942 60.2042 106.933C60.199 106.924 60.1999 106.926 60.207 106.941C60.214 106.955 60.1855 106.92 60.1215 106.836C60.0575 106.751 59.9921 106.694 59.9255 106.664C59.8591 106.635 59.8033 106.612 59.758 106.596C59.7127 106.58 59.7013 106.573 59.7237 106.575C59.746 106.576 59.6707 106.543 59.4976 106.474C59.3245 106.405 58.8798 106.428 58.1636 106.541C58.1951 106.514 58.1473 106.58 58.0203 106.741C57.8935 106.902 57.819 107.063 57.7966 107.222C57.7742 107.381 57.772 107.505 57.7899 107.592C57.8079 107.679 57.8302 107.757 57.8567 107.826C57.8833 107.894 57.8916 107.921 57.8817 107.906C57.8718 107.891 57.8839 107.902 57.918 107.941C57.9521 107.98 57.9923 108.022 58.0386 108.067C58.085 108.112 58.121 108.152 58.1468 108.188C58.1726 108.224 58.2061 108.249 58.2475 108.265C58.2889 108.281 58.3248 108.294 58.3553 108.305C58.3857 108.316 58.4176 108.322 58.4509 108.324C58.4842 108.325 58.4974 108.325 58.4903 108.321C58.483 108.318 58.5006 108.318 58.543 108.32C58.5852 108.322 58.703 108.298 58.8964 108.246C59.0898 108.193 59.22 108.145 59.2872 108.1C59.3543 108.056 59.3948 108.004 59.4086 107.946C59.4224 107.888 59.4271 107.832 59.4226 107.778C59.4182 107.724 59.4177 107.697 59.4211 107.698C59.4242 107.698 59.4258 107.698 59.4258 107.697C59.4258 107.695 59.4152 107.668 59.3941 107.615C59.2224 107.669 59.1487 107.695 59.1732 107.694C59.1979 107.692 59.2053 107.691 59.1954 107.688C59.1855 107.686 59.1732 107.699 59.1583 107.727C59.1435 107.755 59.1245 107.786 59.1013 107.819C59.0779 107.853 59.0701 107.87 59.0779 107.871C59.0857 107.871 59.0831 107.868 59.0701 107.861C59.0574 107.854 59.0507 107.935 59.0502 108.102C59.0494 108.27 59.1076 108.497 59.2247 108.784C59.2406 108.844 59.3228 108.845 59.4714 108.785C59.6203 108.725 59.7342 108.667 59.8131 108.611C59.8917 108.555 59.9463 108.506 59.977 108.464C60.0077 108.421 60.023 108.398 60.0227 108.394C60.0224 108.39 60.0192 108.396 60.013 108.411C60.0067 108.427 60.0105 108.411 60.0243 108.364C60.0381 108.317 60.0465 108.291 60.0496 108.286C60.0528 108.282 60.0573 108.263 60.0633 108.232C60.0693 108.201 60.0882 108.139 60.1199 108.047C60.1514 107.955 60.1636 107.912 60.1566 107.918C60.1496 107.923 60.1466 107.921 60.1476 107.91C60.1484 107.9 60.1509 107.898 60.1551 107.905C60.1592 107.912 60.1571 107.89 60.1488 107.838C60.1405 107.786 60.1159 107.751 60.075 107.734C60.0342 107.716 59.9887 107.697 59.9388 107.677C59.8888 107.657 59.847 107.653 59.8134 107.665C59.7801 107.678 59.7748 107.677 59.7974 107.662C59.8203 107.647 59.7309 107.671 59.5292 107.733C59.3278 107.795 59.1546 107.885 59.0096 108.004C58.8649 108.122 58.772 108.223 58.7308 108.307C58.69 108.392 58.6602 108.468 58.6414 108.536C58.6224 108.604 58.6145 108.63 58.6176 108.613C58.6205 108.597 58.6226 108.593 58.6239 108.604C58.6252 108.614 58.6211 108.613 58.6118 108.6C58.6024 108.587 58.5999 108.587 58.6043 108.599C58.6088 108.611 58.6297 108.639 58.6672 108.684C58.7047 108.73 58.7537 108.753 58.8144 108.754C58.875 108.755 58.9284 108.751 58.9745 108.741" stroke="#3D5330" stroke-width="4" stroke-linecap="round" stroke-linejoin="round"/>
<path d="M59.1037 83.9998C59.0779 83.9959 59.0393 83.9507 58.9877 83.8643C58.9359 83.7782 58.8327 83.7108 58.6781 83.6619C58.5233 83.6127 58.3767 83.5972 58.2385 83.6154C58.1003 83.6339 58.0118 83.6404 57.9731 83.6349C57.934 83.6292 57.8248 83.6436 57.6455 83.6779C57.4659 83.712 57.3441 83.7599 57.2801 83.8218C57.2161 83.8835 57.1567 83.9252 57.102 83.9471C57.0474 83.9689 56.9952 83.9979 56.9455 84.0341C56.8955 84.07 56.8501 84.1079 56.8092 84.148C56.7686 84.1878 56.7105 84.3239 56.6347 84.5562C56.559 84.7885 56.5068 84.9826 56.4782 85.1387C56.4493 85.2945 56.4432 85.4216 56.4598 85.5199C56.4765 85.6183 56.4935 85.6835 56.511 85.7158C56.5284 85.7478 56.5396 85.7716 56.5445 85.7872C56.5492 85.8026 56.5883 85.8555 56.6617 85.946C56.8381 86.0238 56.912 86.094 56.8834 86.1567C56.8545 86.2144 56.8416 86.2354 56.8448 86.2195C56.8479 86.2034 56.8651 86.246 56.8963 86.3475C56.927 86.4481 56.9615 86.5382 56.9998 86.6175C57.0378 86.6966 57.1525 86.8047 57.3441 86.9418C57.5357 87.0786 57.6783 87.1733 57.772 87.2258C57.8654 87.2784 57.9365 87.3107 57.9852 87.3229C58.0338 87.3354 58.1208 87.353 58.246 87.3756C58.3961 87.4045 58.4881 87.4163 58.522 87.4111C58.5558 87.4059 58.6228 87.4182 58.723 87.4478C58.823 87.4775 58.9509 87.4209 59.1068 87.2781C59.263 87.1352 59.3806 87.0087 59.4597 86.8984C59.5386 86.7879 59.612 86.6931 59.6799 86.614C59.7479 86.5349 59.7728 86.5002 59.7549 86.5098C59.7367 86.5191 59.7384 86.5264 59.76 86.5313C59.7816 86.536 59.8447 86.4516 59.9493 86.2784C60.0539 86.1054 60.1131 85.9355 60.1269 85.7685C60.1407 85.6012 60.1279 85.4372 60.0883 85.2765C60.0487 85.1154 59.9971 84.9813 59.9333 84.8742C59.8693 84.7667 59.8265 84.6995 59.8049 84.6724C59.7832 84.6454 59.7844 84.6438 59.8084 84.6677C59.8321 84.6917 59.7978 84.643 59.7057 84.5218C59.6136 84.4008 59.5407 84.3059 59.4871 84.237C59.4337 84.1683 59.3878 84.1155 59.3492 84.0786C59.311 84.0414 59.2122 84.0007 59.0529 83.9564C58.8936 83.9125 58.7677 83.8833 58.675 83.8687C58.5824 83.8544 58.4573 83.9002 58.2998 84.0064C58.1426 84.1125 58.0217 84.2102 57.9371 84.2995C57.8528 84.3889 57.764 84.5074 57.6709 84.6549C57.5774 84.8024 57.5198 84.9381 57.4979 85.0622C57.4763 85.186 57.4632 85.2788 57.4585 85.3405C57.4538 85.4021 57.4464 85.4644 57.4362 85.5274C57.4263 85.5903 57.4282 85.6469 57.4417 85.6974C57.4555 85.7481 57.4646 85.7895 57.469 85.8215C57.4737 85.8538 57.4971 85.8906 57.5393 85.9319C57.5817 85.9733 57.6186 86.0024 57.6498 86.019C57.681 86.0359 57.7193 86.0541 57.7646 86.0736C57.8099 86.0931 57.8212 86.1012 57.7985 86.0978C57.7759 86.0939 57.8183 86.1048 57.9258 86.1306C58.0333 86.1563 58.1422 86.1647 58.2526 86.1559C58.3629 86.147 58.4559 86.1368 58.5313 86.1251C58.6068 86.1134 58.6611 86.0976 58.6941 86.0779C58.7269 86.0581 58.7563 86.0411 58.7824 86.0268C58.8084 86.0125 58.8291 85.9951 58.8444 85.9745C58.8598 85.9537 58.8809 85.9163 58.9077 85.8625C58.9345 85.8089 58.9517 85.7732 58.9592 85.7552C58.9668 85.737 58.9724 85.7229 58.976 85.713C58.9797 85.7029 58.9868 85.6764 58.9975 85.6335C59.0082 85.5908 59.0136 85.5689 59.0139 85.5676C59.0144 85.5663 59.0188 85.5698 59.0272 85.5784C59.0355 85.587 59.0382 85.5286 59.0354 85.4032C59.0325 85.2779 59.0356 85.1871 59.0447 85.1309C59.0538 85.0744 59.0618 85.0231 59.0685 84.9768C59.0751 84.9302 59.0799 84.9094 59.083 84.9144C59.0861 84.9191 59.0809 84.9259 59.0674 84.935C59.0538 84.9439 59.0809 84.9191 59.1486 84.8605C59.2162 84.802 59.2602 84.7695 59.2805 84.763" stroke="#3D5330" stroke-width="4" stroke-linecap="round" stroke-linejoin="round"/>
<path d="M75.777 67.8211C75.7473 67.9139 75.7385 67.9515 75.7504 67.9338C75.7346 68.04 75.7279 68.0733 75.7305 68.0338C75.7009 68.1063 75.6854 68.1838 75.6841 68.2663C75.6981 68.155 75.707 68.104 75.7106 68.1133C75.7106 68.0342 75.7106 68.0011 75.7106 68.0139C75.7106 67.9179 75.7106 67.8791 75.7106 67.8976C75.7106 67.8094 75.7106 67.7706 75.7106 67.7812C75.7169 67.7282 75.7307 67.6392 75.752 67.514C75.7733 67.3889 75.7961 67.2848 75.8203 67.2019C75.8448 67.1189 75.8585 67.0598 75.8613 67.0247C75.8642 66.9896 75.8652 66.9451 75.8644 66.8912C75.8634 66.8371 75.8629 66.7963 75.8629 66.7687C75.8626 66.7414 75.8622 66.7225 75.8617 66.7121C75.8612 66.702 75.8618 66.6972 75.8637 66.6977C75.8655 66.6983 75.8625 66.6677 75.8547 66.606C75.8466 66.5446 75.8363 66.4615 75.8238 66.3567C75.8111 66.2521 75.7991 66.1801 75.7879 66.1406C75.7765 66.101 75.7717 66.0578 75.7735 66.011C75.7753 65.9639 75.7772 65.9407 75.7793 65.9412C75.7817 65.942 75.7795 65.9505 75.7727 65.9669C75.7659 65.9836 75.7585 65.853 75.7504 65.5752C75.7926 65.6704 75.8082 65.7136 75.7973 65.7047C75.8126 65.7568 75.8318 65.8376 75.8547 65.9474C75.8778 66.0572 75.8927 66.1934 75.8992 66.356C75.9057 66.5185 75.908 66.6434 75.9062 66.7305C75.9041 66.8177 75.8988 66.8934 75.8902 66.9576C75.8816 67.0219 75.8818 67.0348 75.8906 66.9966C75.8995 66.9586 75.8875 67.1085 75.8547 67.4461C75.8216 67.784 75.8087 68.0932 75.816 68.3736C75.8233 68.6542 75.8237 68.8001 75.8172 68.811" stroke="#3D5330" stroke-width="4" stroke-linecap="round" stroke-linejoin="round"/>
<path d="M70.5054 67.0373C70.527 67.0982 70.5336 67.1314 70.5253 67.1368C70.576 67.3421 70.6066 67.5377 70.617 67.7236C70.6274 67.9096 70.6117 68.1071 70.5698 68.316C70.5281 68.5248 70.5133 68.7231 70.5253 68.911C70.5529 68.8158 70.5684 68.6907 70.5717 68.5356C70.5751 68.3806 70.5907 68.2546 70.6186 68.1575C70.6464 68.0605 70.6855 67.8275 70.7357 67.4583C70.786 67.089 70.8111 66.8977 70.8111 66.8844" stroke="#3D5330" stroke-width="4" stroke-linecap="round" stroke-linejoin="round"/>
<path d="M48.3932 68.7182C48.3607 68.6979 48.3711 68.7044 48.4245 68.7377C48.4778 68.7713 48.5445 68.8173 48.6244 68.8758C48.7043 68.9341 48.7699 68.9813 48.8211 69.0175C48.8724 69.0534 48.9515 69.099 49.0585 69.1544C49.1655 69.21 49.2533 69.265 49.322 69.3191C49.3907 69.3729 49.433 69.4108 49.4489 69.4326C49.4645 69.4542 49.4874 69.4737 49.5176 69.4911C49.5475 69.5086 49.5982 69.5533 49.6695 69.6253C49.7405 69.6971 49.79 69.752 49.8178 69.7897C49.846 69.8274 49.8703 69.8594 49.8909 69.886C49.9117 69.9128 49.9315 69.9399 49.9502 69.9675C49.9687 69.9954 49.9775 70.0099 49.9767 70.0112C49.976 70.0125 49.9744 70.0119 49.9721 70.0093C49.9697 70.007 49.9723 70.0155 49.9799 70.0351C49.9874 70.0543 50.0081 70.076 50.0419 70.1002C50.0539 70.1075 50.0444 70.0911 50.0134 70.0511C49.9825 70.011 49.949 69.9695 49.9131 69.9266C49.8772 69.8839 49.8561 69.8599 49.8499 69.8544C49.8436 69.8492 49.8294 69.8368 49.8073 69.8173C49.7852 69.7978 49.7681 69.7816 49.7562 69.7689C49.7442 69.7564 49.7432 69.7533 49.753 69.7596C49.7629 69.7663 49.7411 69.7464 49.6875 69.6998C49.6336 69.6535 49.5446 69.5879 49.4204 69.5028C49.2963 69.418 49.2148 69.3258 49.176 69.2262C49.1372 69.1266 49.1178 69.0679 49.1178 69.0503" stroke="#3D5330" stroke-width="4" stroke-linecap="round" stroke-linejoin="round"/>
<path d="M113.652 65.13C113.604 65.0975 113.51 65.3213 113.371 65.8015C113.232 66.2817 113.107 66.6637 112.995 66.9475C112.882 67.2313 112.797 67.4476 112.739 67.5964C112.682 67.7452 112.642 67.8525 112.621 67.9183C112.6 67.9839 112.569 68.0962 112.527 68.2554C112.486 68.4149 112.449 68.5498 112.416 68.6601C112.383 68.7701 112.362 68.8299 112.353 68.8396C112.344 68.8489 112.322 68.8752 112.287 68.9183C112.253 68.9613 112.226 68.9999 112.208 69.0343C112.19 69.0686 112.181 69.0855 112.181 69.0849C112.181 69.0847 112.177 69.0895 112.169 69.0994C112.161 69.1093 112.161 69.1056 112.17 69.0885C112.179 69.0713 112.17 69.0853 112.142 69.1306C112.115 69.1761 112.092 69.2166 112.074 69.2519C112.056 69.2873 112.035 69.3341 112.009 69.3921C111.983 69.4498 111.974 69.4775 111.981 69.4751C111.988 69.4728 111.981 69.4806 111.959 69.4986C111.938 69.5165 111.939 69.5148 111.963 69.4935C111.987 69.4722 111.936 69.5194 111.81 69.6352C111.803 69.6336 111.849 69.6116 111.951 69.5692C112.052 69.5268 112.114 69.4955 112.136 69.4755" stroke="#3D5330" stroke-width="4" stroke-linecap="round" stroke-linejoin="round"/>
<path d="M122.195 67.2765C122.108 67.3041 122.08 67.3151 122.108 67.3096C122.056 67.3765 122.03 67.4064 122.029 67.3994C121.94 67.4413 121.755 67.6511 121.472 68.0288C121.191 68.4065 120.957 68.7191 120.771 68.9668C120.585 69.2147 120.43 69.3902 120.306 69.4932C120.182 69.5962 120.037 69.7364 119.871 69.9138C119.706 70.0912 119.581 70.2329 119.496 70.3387C119.411 70.4449 119.334 70.5446 119.265 70.6379C119.196 70.7316 119.144 70.8009 119.107 70.8459C119.071 70.8909 119.035 70.9341 119 70.9754C118.966 71.0168 118.925 71.0772 118.877 71.1565C118.893 71.0551 118.915 70.9826 118.945 70.9391C118.976 70.8957 118.991 70.8708 118.991 70.8643" stroke="#3D5330" stroke-width="4" stroke-linecap="round" stroke-linejoin="round"/>
<path d="M114.549 66.3927C114.59 66.4291 114.608 66.4464 114.604 66.4446C114.599 66.4428 114.609 66.455 114.632 66.4813C114.655 66.5078 114.665 66.5171 114.661 66.5093C114.657 66.5015 114.655 66.4966 114.655 66.4945C114.655 66.4927 114.675 66.5142 114.716 66.5589C114.756 66.6037 114.906 66.6939 115.166 66.8297C115.426 66.9655 115.642 67.0594 115.816 67.1114C115.989 67.1635 116.14 67.2044 116.271 67.2343C116.4 67.2645 116.497 67.2842 116.56 67.2936C116.623 67.303 116.672 67.3155 116.707 67.3311C116.742 67.347 116.761 67.3549 116.763 67.3549C116.765 67.3552 116.769 67.3558 116.773 67.3568C116.777 67.3579 116.827 67.3753 116.923 67.4091" stroke="#3D5330" stroke-width="4" stroke-linecap="round" stroke-linejoin="round"/>
<path d="M103.135 61.5953C103.155 61.6393 103.162 61.6659 103.154 61.675C103.202 61.6711 103.255 61.9326 103.315 62.4596C103.374 62.9869 103.408 63.4706 103.418 63.9107C103.426 64.3506 103.427 64.657 103.418 64.83C103.41 65.003 103.401 65.2414 103.391 65.5452C103.38 65.8488 103.363 66.1416 103.338 66.4239C103.314 66.7061 103.29 66.9153 103.266 67.0514C103.242 67.1874 103.233 67.2822 103.237 67.3358C103.241 67.3894 103.243 67.4281 103.243 67.452C103.243 67.4757 103.243 67.4887 103.243 67.4911C103.244 67.4932 103.24 67.5278 103.231 67.5949C103.221 67.662 103.218 67.6861 103.22 67.6674C103.223 67.6487 103.224 67.6686 103.225 67.7271C103.225 67.7859 103.222 67.8159 103.215 67.8172C103.208 67.8188 103.212 67.8689 103.228 67.9675C103.244 68.0658 103.262 68.1415 103.281 68.1946C103.3 68.2476 103.321 68.3276 103.346 68.4345C103.371 68.5417 103.387 68.62 103.394 68.6694C103.401 68.7191 103.404 68.756 103.402 68.7802C103.4 68.8042 103.399 68.8147 103.4 68.8119C103.401 68.8087 103.401 68.8153 103.399 68.8314C103.398 68.8475 103.398 68.8514 103.4 68.8431C103.401 68.8348 103.402 68.8745 103.402 68.9625C103.403 69.0504 103.401 69.1299 103.395 69.2009C103.388 69.2719 103.383 69.3214 103.377 69.3495C103.372 69.3779 103.37 69.4042 103.371 69.4284C103.372 69.4526 103.372 69.4707 103.373 69.483C103.374 69.4949 103.375 69.4918 103.374 69.4736C103.374 69.4552 103.374 69.4785 103.374 69.5438C103.374 69.6094 103.374 69.7041 103.374 69.8279C103.401 69.7988 103.42 69.7759 103.429 69.7592C103.437 69.7426 103.448 69.7194 103.462 69.6898C103.477 69.6599 103.491 69.6284 103.507 69.5954" stroke="#3D5330" stroke-width="4" stroke-linecap="round" stroke-linejoin="round"/>
<path d="M162.011 88.7788C161.502 88.7637 161.229 88.7681 161.192 88.792C161.156 88.816 161.142 88.8287 161.151 88.8302C160.987 88.9798 160.924 89.0497 160.962 89.0398C160.941 89.0718 160.955 89.1248 161.004 89.199C161.053 89.2728 161.073 89.2968 161.064 89.2708C161.056 89.2448 161.09 89.2529 161.168 89.295C161.246 89.3369 161.304 89.3537 161.343 89.3457C161.381 89.3373 161.364 89.3547 161.292 89.3976C161.219 89.4402 161.856 89.4705 163.202 89.4885C164.548 89.5064 165.764 89.5303 166.849 89.5599C167.934 89.5893 168.905 89.6348 169.762 89.6964C170.62 89.7581 171.344 89.809 171.936 89.849C172.527 89.8888 173.014 90.1539 173.397 90.6443C173.445 90.6877 173.428 90.6616 173.348 90.5661C173.268 90.4707 174.594 90.4069 177.326 90.375" stroke="#3D5330" stroke-width="4" stroke-linecap="round" stroke-linejoin="round"/>
<path d="M20.8584 89.4971C20.7717 89.5371 20.6368 89.5992 20.4535 89.6832C20.2706 89.7672 20.098 89.8458 19.9359 89.9189C19.7737 89.992 19.6036 90.037 19.4256 90.0539C19.2476 90.0705 19.1373 90.0825 19.0949 90.0898C19.0522 90.0971 19.0494 90.0954 19.0863 90.0847C19.123 90.0741 18.9048 90.1194 18.4316 90.2209C17.9582 90.3223 17.3255 90.434 16.5334 90.5557C15.7414 90.6774 14.582 90.7593 13.0553 90.8015C11.5283 90.8436 10.2356 90.8775 9.17735 90.9033C8.11907 90.9293 7.27852 90.9536 6.65568 90.9763C6.03285 90.9989 5.53572 90.9793 5.16431 90.9174C4.7929 90.8555 4.48371 90.8987 4.23671 91.047C3.98945 91.1952 3.79008 91.3134 3.6386 91.4016C3.48712 91.4898 3.2897 91.5769 3.04635 91.663C2.6778 91.6757 2.53322 91.6804 2.6126 91.6767C2.69199 91.6733 2.6808 91.699 2.57903 91.7536C2.47726 91.808 2.37524 91.8817 2.27295 91.9748C2.36144 91.9753 2.42586 91.9757 2.4662 91.9759C2.50654 91.9762 2.56185 91.9766 2.63212 91.9772" stroke="#3D5330" stroke-width="4" stroke-linecap="round" stroke-linejoin="round"/>
<path d="M5.30863 44.254C5.28651 44.2386 5.19346 44.1589 5.02949 44.0148C5.01309 44.0137 5.00502 44.0122 5.00528 44.0101C5.00528 44.0077 5.00463 44.0062 5.00332 44.0054C5.00202 44.0044 5.00918 44.0041 5.02479 44.0047C5.04041 44.0054 5.074 44.0124 5.12553 44.0257C5.17706 44.039 5.26829 44.0676 5.3992 44.1115C5.53012 44.1555 5.584 44.1694 5.56083 44.1533C5.53767 44.1374 5.57697 44.1755 5.67874 44.2676C5.78076 44.3597 5.8129 44.3893 5.77516 44.3565C5.73742 44.324 5.80471 44.3695 5.97701 44.4928C6.14931 44.6161 6.30678 44.7054 6.44941 44.7608C6.5923 44.816 6.77241 44.9072 6.98973 45.0347C7.20706 45.1622 7.37949 45.2654 7.50702 45.3445C7.63429 45.4238 7.71446 45.4643 7.74751 45.4659C7.78031 45.4672 7.91305 45.5592 8.14574 45.7421C8.37816 45.9252 8.65209 46.1197 8.96754 46.3255C9.28273 46.5315 9.60288 46.7654 9.92796 47.0274C10.253 47.2896 10.7352 47.6276 11.3744 48.0415C12.0137 48.4551 12.6086 48.8586 13.1594 49.2519C13.7104 49.6454 14.189 49.9648 14.5953 50.2101C15.0018 50.4556 15.3262 50.6298 15.5682 50.7326C15.8103 50.8353 15.9797 50.9099 16.0765 50.9562C16.1733 51.0027 16.2204 51.0246 16.2178 51.0217C16.215 51.0186 16.2302 51.0246 16.2635 51.04C16.2968 51.0553 16.3973 51.1051 16.5649 51.1891C16.7492 51.2819 16.8343 51.3243 16.8202 51.3162C16.8065 51.3082 16.8063 51.3129 16.8199 51.3303C16.8334 51.3478 16.8995 51.3754 17.0182 51.4134C17.1366 51.4514 17.2334 51.5029 17.3087 51.5679C17.3841 51.633 17.4669 51.7066 17.5569 51.7888C17.647 51.871 17.6931 51.9156 17.6952 51.9227C17.6972 51.9297 17.6782 51.9177 17.6382 51.8868C17.5983 51.8555 17.7351 51.9479 18.0485 52.1638" stroke="#3D5330" stroke-width="4" stroke-linecap="round" stroke-linejoin="round"/>
<path d="M157.301 46.8417C157.029 46.695 156.853 46.695 156.773 46.8417C156.691 46.8511 156.562 46.9109 156.384 47.0212C156.53 47.074 156.596 47.0931 156.583 47.0786C156.57 47.0637 156.604 47.0334 156.684 46.9876C156.765 46.9418 156.778 46.9718 156.723 47.0774C156.669 47.183 157.426 46.9152 158.995 46.274C160.564 45.6325 161.779 45.147 162.641 44.8174C163.503 44.4878 164.234 44.14 164.833 43.7737C165.433 43.4075 165.889 43.1374 166.202 42.9636C166.515 42.7896 166.789 42.616 167.025 42.4427C167.26 42.2695 167.441 42.1196 167.565 41.9929C167.689 41.8665 167.862 41.733 168.085 41.5925C168.307 41.4521 168.544 41.3446 168.794 41.2699C169.045 41.1952 169.184 41.1465 169.212 41.1236C169.24 41.1007 169.382 41.0201 169.637 40.882C169.892 40.7439 170.072 40.6316 170.178 40.5453C170.284 40.4592 170.386 40.3703 170.486 40.2784C170.586 40.1866 170.633 40.1432 170.627 40.1481C170.621 40.1531 170.612 40.1578 170.601 40.1625C170.59 40.1672 170.657 40.1345 170.804 40.0646" stroke="#3D5330" stroke-width="4" stroke-linecap="round" stroke-linejoin="round"/>
<path d="M132.989 19.3941C133.111 19.2531 133.184 19.169 133.209 19.1417C133.233 19.1143 133.226 19.1056 133.189 19.1152C133.428 18.9419 133.528 18.8423 133.488 18.8163C133.412 18.9346 133.503 18.8252 133.759 18.4881C134.016 18.151 134.311 17.6924 134.644 17.1123C134.978 16.5325 135.372 15.9451 135.827 15.3502C136.281 14.7556 136.641 14.3094 136.904 14.0115C137.168 13.7139 137.504 13.373 137.912 12.9888C138.32 12.6044 138.682 12.3106 138.999 12.1075C139.316 11.9043 139.543 11.7464 139.681 11.6337C139.819 11.5209 139.92 11.4196 139.985 11.3302C140.05 11.2407 140.108 11.1644 140.16 11.1011C140.211 11.0382 140.24 11.004 140.247 10.9986C140.253 10.9933 140.246 10.9969 140.227 11.0094C140.208 11.0219 140.238 10.9934 140.316 10.924C140.394 10.8545 140.459 10.798 140.511 10.7543C140.563 10.7106 140.589 10.6862 140.589 10.681C140.588 10.6758 140.593 10.6664 140.602 10.6529C140.612 10.6396 140.684 10.5397 140.819 10.3532C140.954 10.1672 141.02 10.077 141.016 10.0827C141.012 10.0887 141.016 10.0896 141.027 10.0855C141.027 10.0657 141.027 10.0458 141.027 10.0258C141.074 10.0258 141.12 10.0258 141.166 10.0258" stroke="#3D5330" stroke-width="4" stroke-linecap="round" stroke-linejoin="round"/>
<path d="M50.9171 22.3841C50.8841 22.3352 50.8643 22.3046 50.8578 22.2924C50.8513 22.2802 50.8441 22.2692 50.8363 22.2596C50.8285 22.25 50.8327 22.2578 50.8488 22.283C50.8652 22.3085 50.8469 22.2644 50.7938 22.1504C50.7409 22.0365 50.6596 21.9034 50.5498 21.7512C50.4402 21.5988 50.3309 21.4425 50.2218 21.2822C50.1128 21.1217 50.0543 21.0355 50.0465 21.0235C50.0387 21.0118 50.0369 21.0077 50.0411 21.011C50.045 21.0144 50.0451 21.0154 50.0414 21.0138C50.0381 21.0122 49.9623 20.8948 49.8142 20.6614C49.6661 20.4278 49.4635 20.1564 49.2064 19.8472C48.9495 19.5376 48.7488 19.2942 48.6043 19.1171C48.4599 18.9402 48.3434 18.8114 48.2549 18.7308C48.1664 18.6502 48.0958 18.5629 48.0429 18.469C47.9904 18.3749 47.8467 18.154 47.6119 17.8065C47.3772 17.459 47.1325 17.1478 46.878 16.8731C46.6237 16.5984 46.4524 16.3852 46.3642 16.2333C46.2762 16.0814 46.2135 15.9806 46.176 15.9312C46.1383 15.882 46.0371 15.7299 45.8726 15.4747C45.7082 15.2195 45.6349 15.0945 45.6529 15.0994C45.6708 15.1041 45.615 14.9974 45.4854 14.7794C45.3558 14.5612 45.2479 14.3813 45.1617 14.2398C45.0756 14.0983 45.0274 14.0367 45.0173 14.0549C45.0074 14.0731 45.0061 14.0813 45.0134 14.0794C45.0206 14.0776 45.0249 14.0792 45.0262 14.0841C45.0275 14.0888 45.0292 14.0907 45.0313 14.0899C45.0337 14.0891 45.033 14.0926 45.0294 14.1001C45.0257 14.1077 45.0127 14.0919 44.9903 14.0529C44.9679 14.0141 44.9025 13.8477 44.7939 13.5538C44.8374 13.5387 44.8848 13.5051 44.9361 13.4528C44.9876 13.4008 45.0266 13.3548 45.0532 13.3147" stroke="#3D5330" stroke-width="4" stroke-linecap="round" stroke-linejoin="round"/>
<path d="M95.1145 14.1918C95.1145 14.2316 95.0946 14.4442 95.0548 14.8297C95.0514 14.8362 95.0414 14.8234 95.0247 14.7911C95.0078 14.7586 94.9859 14.6852 94.9591 14.5707C94.932 14.456 94.918 14.3638 94.917 14.2941C94.9157 14.2244 94.9146 14.191 94.9138 14.1941C94.9133 14.1973 94.9133 14.2109 94.9138 14.2351C94.9146 14.2593 94.9127 14.2541 94.908 14.2195C94.9033 14.1851 94.9013 14.1843 94.9021 14.2168C94.9026 14.2493 94.8874 14.1551 94.8564 13.9343C94.8255 13.7132 94.8288 12.9317 94.8666 11.59C94.9046 10.2486 94.9155 8.98556 94.8994 7.80096C94.8832 6.61662 94.8835 5.72054 94.9002 5.11263C94.9165 4.50498 94.9259 4.10175 94.9283 3.90302C94.9306 3.70402 94.8978 3.53101 94.8299 3.38404C94.7617 3.23681 94.7037 2.87948 94.6558 2.31189" stroke="#3D5330" stroke-width="4" stroke-linecap="round" stroke-linejoin="round"/>
<path d="M70.4983 68.9859C70.5228 68.9671 70.5441 68.8376 70.5623 68.5972C70.5803 68.3571 70.624 68.1378 70.6935 67.9394C70.7632 67.7411 70.8284 67.596 70.8891 67.5039C70.9495 67.4118 70.9713 67.3387 70.9547 67.2846C70.9378 67.2303 70.941 67.155 70.9644 67.0588C70.9876 66.962 71.0075 66.8406 71.0242 66.6947C71.0406 66.5488 71.0395 66.434 71.021 66.3505C71.0023 66.2673 70.9728 66.1923 70.9324 66.1254C70.8921 66.0583 70.8754 65.9713 70.8825 65.8644C70.8892 65.7572 70.8917 65.4539 70.8899 64.9545C70.888 64.455 70.8871 64.1947 70.8871 64.1733" stroke="#3D5330" stroke-width="4" stroke-linecap="round" stroke-linejoin="round"/>
<path d="M103.684 59.6215C103.717 59.6454 103.689 59.7961 103.601 60.0737C103.513 60.3512 103.473 60.9186 103.481 61.7757C103.488 62.6325 103.49 63.2927 103.488 63.7562C103.487 64.2198 103.486 64.6061 103.487 64.9154C103.488 65.2247 103.488 65.5825 103.488 65.9888C103.487 66.3954 103.487 66.7863 103.487 67.1614C103.487 67.5362 103.487 67.9511 103.487 68.406C103.487 68.861 103.487 69.3586 103.487 69.8989C103.487 70.4389 103.487 70.7196 103.487 70.741" stroke="#3D5330" stroke-width="4" stroke-linecap="round" stroke-linejoin="round"/>
<path d="M75.6384 63.9131C75.6452 64.0281 75.6453 64.427 75.6388 65.1101C75.632 65.7932 75.6302 66.3386 75.6333 66.7462C75.6362 67.1536 75.65 67.459 75.6747 67.6627C75.6991 67.8664 75.7066 68.0402 75.6969 68.184C75.6873 68.3282 75.7133 68.4462 75.775 68.5383C75.8364 68.6301 75.8605 68.7583 75.8472 68.923C75.834 69.0879 75.8286 69.311 75.8312 69.5922C75.8341 69.8734 75.8354 70.0969 75.8351 70.2629C75.8351 70.4291 75.8351 70.5229 75.8351 70.5442" stroke="#3D5330" stroke-width="4" stroke-linecap="round" stroke-linejoin="round"/>
<path d="M48.4386 67.3588C48.4542 67.3991 48.4548 67.548 48.4405 67.8055C48.4262 68.0628 48.4671 68.3158 48.5631 68.5645C48.6594 68.8134 48.7555 69.0055 48.8512 69.1408C48.947 69.2761 49.1054 69.4846 49.3264 69.7663C49.5476 70.048 49.72 70.2618 49.8437 70.4078C49.9673 70.5539 50.0944 70.7096 50.2251 70.8748C50.356 71.0402 50.4524 71.1627 50.5144 71.2423C50.5763 71.3222 50.624 71.3815 50.6573 71.4203C50.6906 71.4593 50.7846 71.4861 50.9392 71.5007C51.0938 71.5152 51.1932 71.5225 51.2374 71.5225" stroke="#3D5330" stroke-width="4" stroke-linecap="round" stroke-linejoin="round"/>
<path d="M70.823 68.9219C70.8433 68.9822 70.7508 69.1976 70.5454 69.568C70.3403 69.9387 70.2378 70.1347 70.2378 70.156" stroke="#3D5330" stroke-width="4" stroke-linecap="round" stroke-linejoin="round"/>
<path d="M114.161 64.1733C114.13 64.2454 114.059 64.4344 113.946 64.7406C113.833 65.0468 113.713 65.2846 113.586 65.4539C113.459 65.623 113.341 65.8212 113.23 66.0485C113.119 66.2761 113.036 66.4538 112.979 66.5815C112.923 66.7095 112.885 66.8099 112.866 66.8827C112.848 66.9558 112.811 67.0244 112.758 67.0884C112.704 67.1526 112.662 67.2354 112.631 67.3365C112.601 67.438 112.564 67.5867 112.52 67.7825C112.476 67.9784 112.393 68.275 112.27 68.6722C112.147 69.0694 112.053 69.3461 111.987 69.5025C111.921 69.6585 111.876 69.7804 111.851 69.8681C111.826 69.9557 111.816 70.0367 111.818 70.1108C111.821 70.1852 111.815 70.2467 111.8 70.2953C111.785 70.3442 111.762 70.409 111.732 70.4896C111.702 70.5703 111.687 70.6327 111.687 70.6769" stroke="#3D5330" stroke-width="4" stroke-linecap="round" stroke-linejoin="round"/>
<path d="M116.502 67.2308C116.54 67.2839 116.448 67.2275 116.227 67.0618C116.005 66.8959 115.794 66.741 115.593 66.5972C115.392 66.4536 115.22 66.3401 115.075 66.2569C114.93 66.1737 114.763 66.0768 114.573 65.9663C114.384 65.8557 114.267 65.8004 114.225 65.8004" stroke="#3D5330" stroke-width="4" stroke-linecap="round" stroke-linejoin="round"/>
<path d="M119.04 71.1291C118.991 71.0079 119.052 70.856 119.225 70.6734C119.397 70.4908 119.549 70.3034 119.681 70.1112C119.813 69.9189 119.907 69.7679 119.963 69.6581C120.018 69.5481 120.081 69.4912 120.15 69.4876C120.22 69.4842 120.32 69.3807 120.451 69.177C120.582 68.9734 120.7 68.8091 120.803 68.6843C120.906 68.5594 120.97 68.4863 120.992 68.465" stroke="#3D5330" stroke-width="4" stroke-linecap="round" stroke-linejoin="round"/>
<path d="M121.381 68.0764C121.411 68.042 121.471 67.973 121.562 67.8692C121.653 67.7654 121.733 67.688 121.803 67.637C121.873 67.5858 121.932 67.5461 121.98 67.518C122.029 67.4899 122.073 67.4476 122.113 67.3912C122.152 67.3344 122.171 67.32 122.169 67.3475C122.168 67.3748 122.298 67.3048 122.561 67.1376C122.823 66.9706 123.039 66.7981 123.208 66.6202C123.377 66.4425 123.462 66.343 123.462 66.3217" stroke="#3D5330" stroke-width="4" stroke-linecap="round" stroke-linejoin="round"/>
<path d="M114.219 63.6525C114.206 63.6444 114.231 63.5202 114.296 63.2799C114.36 63.0392 114.426 62.799 114.491 62.5592C114.558 62.3196 114.642 62.1062 114.744 61.9189C114.846 61.7316 114.933 61.5724 115.005 61.4413C115.077 61.3102 115.154 61.1458 115.235 60.9481C115.315 60.7501 115.396 60.573 115.476 60.4166C115.557 60.2603 115.606 60.1416 115.625 60.0604C115.644 59.979 115.657 59.9133 115.662 59.8634C115.667 59.8134 115.701 59.7416 115.763 59.648C115.825 59.5546 115.886 59.4641 115.947 59.3765C116.007 59.2888 116.047 59.2042 116.068 59.1228C116.088 59.0414 116.127 58.9713 116.185 58.9125C116.242 58.8537 116.282 58.8112 116.305 58.7849C116.327 58.7584 116.391 58.6803 116.497 58.5508C116.602 58.421 116.692 58.3194 116.768 58.246C116.843 58.1724 116.891 58.1027 116.913 58.0369C116.935 57.9711 116.986 57.8975 117.068 57.8161C117.15 57.7344 117.2 57.6674 117.219 57.6151C117.238 57.5631 117.257 57.5371 117.279 57.5371" stroke="#3D5330" stroke-width="4" stroke-linecap="round" stroke-linejoin="round"/>
<path d="M117.406 57.2124C117.419 57.2371 117.477 57.1278 117.579 56.8846C117.682 56.6414 117.832 56.378 118.028 56.0945C118.225 55.8112 118.411 55.5748 118.587 55.3852C118.763 55.1956 118.893 55.0409 118.976 54.9216C119.059 54.8022 119.123 54.7203 119.167 54.6758" stroke="#3D5330" stroke-width="4" stroke-linecap="round" stroke-linejoin="round"/>
<path d="M75.5841 55.517C75.5916 55.505 75.5907 55.6658 75.5814 55.9993C75.572 56.3328 75.6057 56.7138 75.6825 57.1425C75.7592 57.5714 75.8302 57.9037 75.8952 58.1394C75.9606 58.3748 75.9889 58.6989 75.9804 59.1117C75.9718 59.5243 75.9686 59.9254 75.971 60.315C75.9736 60.7044 75.9744 61.0343 75.9733 61.3046C75.9725 61.5749 75.9725 61.9819 75.9733 62.5258C75.9744 63.0697 75.9758 63.5132 75.9776 63.856C75.9792 64.1989 75.9675 64.7305 75.9425 65.4511C75.9172 66.1719 75.9054 66.7206 75.907 67.0973C75.9085 67.4739 75.9092 67.7596 75.9089 67.9541C75.9089 68.149 75.9089 68.5314 75.9089 69.1016C75.9089 69.6718 75.9089 69.979 75.9089 70.0233" stroke="#3D5330" stroke-width="4" stroke-linecap="round" stroke-linejoin="round"/>
<path d="M103.694 52.5283C103.68 52.6157 103.684 52.8586 103.705 53.2572C103.726 53.6557 103.711 54.0253 103.66 54.3661C103.609 54.7068 103.565 55.0075 103.527 55.2682C103.49 55.5286 103.477 55.7437 103.489 55.9136C103.501 56.0832 103.504 56.2789 103.5 56.5008C103.495 56.7224 103.494 56.954 103.496 57.1957C103.498 57.4373 103.497 58.0387 103.494 58.9999C103.491 59.9611 103.491 60.8326 103.494 61.6145C103.496 62.3967 103.5 63.1166 103.504 63.7742C103.509 64.4318 103.5 64.9279 103.479 65.2624C103.457 65.5969 103.443 66.0131 103.437 66.5109C103.43 67.0086 103.428 67.3908 103.431 67.6577C103.434 67.9246 103.435 68.2899 103.433 68.7537C103.432 69.2178 103.432 69.5993 103.432 69.8985C103.433 70.1981 103.433 70.3693 103.433 70.4117" stroke="#3D5330" stroke-width="4" stroke-linecap="round" stroke-linejoin="round"/>
<path d="M75.5839 70.6723C75.5839 70.6562 75.5839 70.3258 75.5839 69.6812C75.5839 69.0364 75.5837 68.5361 75.5832 68.1802C75.5826 67.8241 75.5839 67.5455 75.5871 67.3444C75.5899 67.1433 75.5901 66.8776 75.5875 66.5473C75.5846 66.2169 75.5695 65.8513 75.5422 65.4505C75.5148 65.0499 75.5106 64.7301 75.5293 64.491C75.548 64.2519 75.5297 63.9861 75.4742 63.6935C75.4188 63.4006 75.3898 62.9317 75.3872 62.2869C75.3846 61.642 75.3843 61.1586 75.3864 60.8365C75.3882 60.5148 75.3887 60.2774 75.388 60.1245C75.3872 59.9715 75.3869 59.6935 75.3872 59.2906C75.3874 58.8876 75.3876 58.4132 75.3876 57.8672C75.3873 57.3212 75.3872 57.0376 75.3872 57.0162" stroke="#3D5330" stroke-width="4" stroke-linecap="round" stroke-linejoin="round"/>
<path d="M75.3875 54.3469C75.3875 54.3256 75.3933 54.1687 75.405 53.8763C75.4165 53.5837 75.4336 53.3506 75.4566 53.1771" stroke="#3D5330" stroke-width="4" stroke-linecap="round" stroke-linejoin="round"/>
<path d="M49.293 62.9224C49.3073 62.9281 49.2931 62.9922 49.2505 63.1147C49.2078 63.2372 49.1648 63.3365 49.1216 63.4125C49.0782 63.4884 49.036 63.5644 48.9951 63.6403C48.9543 63.7166 48.9199 63.7764 48.8921 63.8198C48.864 63.8635 48.8439 63.9062 48.8319 63.9481C48.82 63.99 48.8011 64.0516 48.7753 64.1327C48.7498 64.2136 48.7204 64.28 48.6871 64.3317C48.6538 64.3835 48.6229 64.4671 48.5946 64.5825C48.5662 64.6978 48.5373 64.8029 48.5079 64.8979C48.4785 64.9931 48.454 65.0747 48.4345 65.1429C48.415 65.2113 48.4074 65.2858 48.4119 65.3664C48.4163 65.4471 48.4177 65.5914 48.4162 65.7992C48.4146 66.0068 48.4141 66.2104 48.4146 66.4102C48.4154 66.6102 48.4159 66.7916 48.4162 66.9541C48.4167 67.1167 48.4165 67.2438 48.4158 67.3354C48.415 67.4267 48.4149 67.5602 48.4154 67.736C48.4159 67.9116 48.4188 68.049 48.424 68.1481C48.4292 68.247 48.4532 68.4004 48.4962 68.6085C48.5394 68.8163 48.576 68.9794 48.6059 69.0978C48.6356 69.2161 48.6586 69.3025 48.675 69.3569C48.6911 69.4112 48.719 69.4775 48.7585 69.5555C48.7978 69.6335 48.827 69.6944 48.846 69.7381C48.865 69.7815 48.8903 69.8157 48.9217 69.8407C48.9532 69.8657 48.9875 69.8985 49.0244 69.9394C49.0611 69.9802 49.1058 70.0316 49.1583 70.0935C49.2109 70.1554 49.2645 70.2066 49.3192 70.2469C49.3738 70.2872 49.4434 70.3628 49.528 70.4736C49.6126 70.5844 49.7 70.6767 49.79 70.7506C49.8801 70.8248 49.9622 70.9007 50.0363 70.9785C50.1105 71.0565 50.2146 71.1396 50.3487 71.2278C50.483 71.316 50.5542 71.3601 50.5622 71.3601" stroke="#3D5330" stroke-width="4" stroke-linecap="round" stroke-linejoin="round"/>
<path d="M99.9066 59.9163C100.338 59.9163 100.687 59.5669 100.687 59.136C100.687 58.705 100.338 58.3556 99.9066 58.3556C99.4753 58.3556 99.1257 58.705 99.1257 59.136C99.1257 59.5669 99.4753 59.9163 99.9066 59.9163Z" fill="#3D5330" stroke="#3D5330" stroke-width="0.1"/>
<path d="M99.7786 60.5653C100.21 60.5653 100.559 60.2159 100.559 59.7849C100.559 59.3539 100.21 59.0045 99.7786 59.0045C99.3474 59.0045 98.9978 59.3539 98.9978 59.7849C98.9978 60.2159 99.3474 60.5653 99.7786 60.5653Z" fill="#3D5330" stroke="#3D5330" stroke-width="0.1"/>
<path d="M99.7786 60.5653C100.21 60.5653 100.559 60.2159 100.559 59.7849C100.559 59.3539 100.21 59.0045 99.7786 59.0045C99.3474 59.0045 98.9978 59.3539 98.9978 59.7849C98.9978 60.2159 99.3474 60.5653 99.7786 60.5653Z" fill="#3D5330" stroke="#3D5330" stroke-width="0.1"/>
<path d="M99.9754 60.4373C100.407 60.4373 100.756 60.0879 100.756 59.657C100.756 59.226 100.407 58.8766 99.9754 58.8766C99.5442 58.8766 99.1946 59.226 99.1946 59.657C99.1946 60.0879 99.5442 60.4373 99.9754 60.4373Z" fill="#3D5330" stroke="#3D5330" stroke-width="0.1"/>
<path d="M99.9754 60.4373C100.407 60.4373 100.756 60.0879 100.756 59.657C100.756 59.226 100.407 58.8766 99.9754 58.8766C99.5442 58.8766 99.1946 59.226 99.1946 59.657C99.1946 60.0879 99.5442 60.4373 99.9754 60.4373Z" fill="#3D5330" stroke="#3D5330" stroke-width="0.1"/>
<path d="M103.423 50.4891C103.481 50.5334 103.458 50.6806 103.355 50.9309C103.25 51.1811 103.167 51.5282 103.104 51.9722C103.042 52.416 103.014 52.8177 103.022 53.1775C103.029 53.5372 103.034 53.7992 103.036 53.9634C103.038 54.1272 103.033 54.3211 103.02 54.5451C103.008 54.7691 103.023 54.9599 103.067 55.1175C103.111 55.2749 103.144 55.4355 103.165 55.5994C103.187 55.7635 103.202 55.8964 103.212 55.9981C103.222 56.1001 103.229 56.1901 103.233 56.2682C103.236 56.3462 103.264 56.4307 103.316 56.5218C103.367 56.6128 103.385 56.833 103.368 57.1824C103.352 57.5317 103.347 57.8144 103.355 58.0306C103.362 58.247 103.374 58.4527 103.391 58.6475C103.408 58.8426 103.452 59.1671 103.523 59.621C103.593 60.075 103.626 60.5727 103.62 61.1142C103.615 61.6556 103.613 62.2132 103.614 62.787C103.615 63.3606 103.616 63.7943 103.615 64.0883C103.615 64.3822 103.616 64.6231 103.617 64.8109C103.619 64.999 103.621 65.4035 103.622 66.0247C103.624 66.6459 103.619 67.1322 103.608 67.4836C103.596 67.835 103.603 68.1067 103.627 68.2984C103.652 68.4898 103.682 68.6417 103.717 68.7541C103.753 68.8662 103.766 69.0082 103.756 69.1802C103.747 69.3519 103.743 69.5177 103.745 69.6776C103.747 69.8374 103.748 69.9629 103.748 70.0542C103.748 70.1458 103.748 70.2128 103.748 70.2555" stroke="#3D5330" stroke-width="4" stroke-linecap="round" stroke-linejoin="round"/>
</svg>
