<svg width="97" height="97" viewBox="0 0 97 97" fill="none" xmlns="http://www.w3.org/2000/svg">
<path d="M9.00397 69.8086C8.94723 69.7937 8.90713 69.8458 8.88364 69.9647C8.86042 70.0836 8.84561 70.1025 8.83928 70.0213C8.83295 69.9401 9.00488 70.3951 9.35511 71.3864C9.70534 72.3775 10.1074 73.3027 10.5614 74.1621C11.0151 75.0218 11.5174 75.7782 12.0685 76.4314C12.6199 77.0846 13.2965 77.8049 14.0983 78.5924C14.9003 79.3799 15.6186 80.0296 16.2531 80.5416C16.8873 81.0539 17.5878 81.6104 18.3548 82.211C19.1218 82.8116 19.7848 83.343 20.3438 83.805C20.9027 84.2674 21.7862 84.9516 22.9942 85.8578C24.2024 86.7642 25.2024 87.5097 25.9942 88.0941C26.7863 88.6783 27.411 89.1735 27.8683 89.5799C28.3257 89.986 28.9016 90.3308 29.596 90.6145C30.2906 90.8983 31.1179 91.1935 32.0778 91.5C33.0377 91.8066 34.0704 92.1712 35.176 92.5937C36.2813 93.0165 37.1597 93.3172 37.811 93.4958C38.4626 93.6747 38.9588 93.7954 39.2996 93.858C39.6403 93.9207 40.0521 93.9932 40.5351 94.0755C41.0186 94.1578 41.8162 94.2943 42.9279 94.4852C44.0395 94.676 45.2437 94.7877 46.5403 94.8203C47.8367 94.853 48.8612 94.843 49.614 94.7905C50.3669 94.7379 51.4788 94.6709 52.9497 94.5895C54.4208 94.5077 55.8034 94.3766 57.0974 94.1961C58.3914 94.0156 59.417 93.8575 60.1742 93.7216C60.9317 93.5857 61.6114 93.4188 62.2134 93.2211C62.8155 93.0231 63.3293 92.9054 63.755 92.868C64.1807 92.8303 64.9755 92.6248 66.1394 92.2517C67.3033 91.8785 68.2309 91.5318 68.9221 91.2117C69.6131 90.8916 70.1045 90.6866 70.3964 90.5967C70.6886 90.507 71.3612 90.1553 72.4142 89.5417C73.4675 88.928 74.3589 88.3324 75.0884 87.7549C75.8179 87.1773 76.5937 86.6836 77.4159 86.2735C78.2382 85.8634 79.0283 85.4281 79.786 84.9676C80.5435 84.5074 81.513 83.7168 82.6946 82.596C83.8762 81.4751 84.7907 80.6393 85.4381 80.0886C86.0855 79.5378 86.5599 79.1103 86.8613 78.8058C87.1624 78.5017 87.4384 78.0556 87.6891 77.4677C87.9398 76.8798 88.2686 76.1627 88.6753 75.3162C89.0817 74.4696 89.4381 73.7899 89.7445 73.2771C90.0509 72.7641 90.4842 72.0631 91.0442 71.1742C91.6043 70.2851 92.1059 69.3569 92.549 68.3897C92.9921 67.4223 93.2956 66.603 93.4595 65.9318C93.6232 65.2605 93.7436 64.7676 93.821 64.4531C93.8986 64.1386 93.9612 63.6634 94.009 63.0278C94.0568 62.3921 94.1203 61.7973 94.1995 61.2434C94.2786 60.6892 94.3695 59.8866 94.4722 58.8355C94.5746 57.7845 94.6668 56.981 94.7489 56.4249C94.8313 55.8689 94.8557 55.4308 94.8222 55.1107C94.7889 54.7906 94.7659 54.6084 94.7533 54.5641C94.7409 54.5197 94.7363 54.3656 94.7395 54.1015C94.7429 53.8369 94.7579 53.6141 94.7845 53.4331C94.8112 53.2518 94.8272 53.0324 94.8325 52.7749C94.838 52.5175 94.8245 52.3087 94.7921 52.1487C94.7596 51.9889 94.7378 51.8758 94.7267 51.8095C94.7157 51.7428 94.7073 51.6856 94.7018 51.6375C94.6965 51.5895 94.6898 51.5651 94.6817 51.5646C94.6737 51.5644 94.6622 51.51 94.6472 51.4014C94.6322 51.2931 94.6248 51.2294 94.625 51.2103C94.6255 51.1912 94.6153 51.068 94.5941 50.8405C94.5733 50.6133 94.5596 50.5057 94.553 50.5176C94.5466 50.5293 94.5411 50.5018 94.5363 50.4352C94.5316 50.3686 94.5431 50.37 94.5708 50.4395C94.5985 50.5094 94.5923 49.8012 94.5522 48.3152" stroke="#3D5330" stroke-width="4" stroke-linecap="round" stroke-linejoin="round"/>
<path d="M3.93227 49.7703C3.92172 49.813 3.86711 49.7817 3.7684 49.6763C3.66943 49.5709 3.56186 49.2582 3.44573 48.7379C3.3296 48.2175 3.23171 47.8455 3.152 47.622C3.0723 47.3985 3.0062 46.9647 2.95367 46.3205C2.90142 45.6764 2.95115 44.865 3.10291 43.8864C3.25493 42.9078 3.37581 41.9837 3.46554 41.1142C3.55528 40.245 3.72486 39.3873 3.97427 38.5412C4.22341 37.6953 4.45393 37.0066 4.66586 36.4749C4.87753 35.9433 5.15266 35.1809 5.49127 34.1877C5.83015 33.1948 6.33704 32.078 7.01189 30.8375C7.68675 29.5974 8.21749 28.6437 8.60414 27.9761C8.99078 27.3089 9.51152 26.4968 10.1663 25.5397C10.8211 24.5826 11.6192 23.4936 12.5606 22.2726C13.5018 21.0517 14.2379 20.1423 14.7689 19.5443C15.2999 18.9461 15.7827 18.3798 16.2174 17.8455C16.6521 17.3112 17.3766 16.5614 18.3908 15.5961C19.4051 14.6308 20.3117 13.8126 21.1105 13.1417C21.9092 12.471 22.5755 11.9774 23.1094 11.661C23.6433 11.3447 24.3403 10.9445 25.2005 10.4604C26.0606 9.9765 27.232 9.33125 28.7147 8.52466C30.1975 7.71806 31.3247 7.10212 32.0964 6.67692C32.8684 6.25146 33.6466 5.91446 34.431 5.66577C35.2156 5.41707 35.9851 5.25047 36.7394 5.16607C37.4934 5.08167 38.2972 4.88032 39.1507 4.56208C40.004 4.24411 40.7564 3.99733 41.4081 3.82163C42.0597 3.64592 42.5395 3.53683 42.8475 3.49436C43.1555 3.45163 43.7002 3.4256 44.4817 3.41631C45.2629 3.40702 45.8868 3.38499 46.3535 3.35022C46.8201 3.31545 47.4506 3.19122 48.245 2.97756C49.0397 2.76416 49.6511 2.61063 50.0791 2.51694C50.5075 2.42325 51.0595 2.41452 51.7351 2.49069C52.411 2.56687 53.0188 2.59847 53.5586 2.58546C54.0983 2.57219 54.9299 2.50172 56.0534 2.37406C57.177 2.24639 58.2799 2.18282 59.3623 2.18335C60.4446 2.18388 61.4387 2.26924 62.3445 2.43937C63.25 2.6095 64.0461 2.81621 64.7329 3.05959C65.4193 3.30325 66.1665 3.60692 66.9744 3.97053C67.7822 4.33415 68.3569 4.62294 68.6984 4.83686C69.0397 5.05052 69.4679 5.25589 69.9831 5.4531C70.498 5.6503 70.9345 5.79329 71.2927 5.88194C71.6506 5.97058 72.3076 6.23637 73.2638 6.67935C74.22 7.12233 75.2993 7.79023 76.5018 8.68309C77.7042 9.57568 78.5957 10.2761 79.1764 10.7844C79.7573 11.293 80.2339 11.7069 80.6063 12.0265C80.9787 12.3463 81.3425 12.7271 81.6978 13.1688C82.053 13.6104 82.3424 13.998 82.566 14.3317C82.7892 14.6653 83.223 15.0938 83.8672 15.6172C84.5112 16.1406 85.1115 16.6858 85.6681 17.2528C86.2247 17.8197 86.7489 18.3789 87.2406 18.9304C87.7323 19.4822 88.192 20.0001 88.6198 20.4839C89.0474 20.968 89.5887 21.6227 90.2437 22.4482C90.8985 23.2736 91.4529 23.9356 91.9069 24.434C92.3608 24.9325 92.6906 25.2497 92.8962 25.3856C93.1018 25.5212 93.1926 25.5849 93.1686 25.5767C93.1448 25.5682 93.1091 25.5557 93.0613 25.5393" stroke="#3D5330" stroke-width="4" stroke-linecap="round" stroke-linejoin="round"/>
<path d="M82.8424 27.1058C82.8601 27.0987 82.8536 27.0953 82.823 27.0955C82.7921 27.0955 82.7787 27.0953 82.7826 27.0948C82.7866 27.0942 82.7874 27.0942 82.785 27.0948C82.7829 27.0953 82.7697 27.097 82.7454 27.0999C82.7211 27.1026 82.6211 27.1181 82.4453 27.1465C82.2698 27.1749 82.1635 27.1962 82.1266 27.2102C82.0894 27.2243 82.0962 27.2812 82.1472 27.381C82.1979 27.4808 82.2229 27.5238 82.2224 27.51C82.2219 27.4962 82.261 27.637 82.3396 27.9324C82.4185 28.2276 84.2777 28.1496 87.9172 27.6987C91.5568 27.2477 93.2361 27.251 92.9553 27.7083C92.6742 28.1653 91.019 28.3742 87.9897 28.3349C84.9601 28.2956 83.4732 28.2677 83.5289 28.2509C83.5843 28.2342 83.9699 28.1663 84.6856 28.0474C85.4014 27.9288 85.8582 27.8588 86.0562 27.8373" stroke="#3D5330" stroke-width="4" stroke-linecap="round" stroke-linejoin="round"/>
<path d="M94.4804 26.3765C94.3434 26.5639 94.2033 26.1105 94.06 25.0161C93.9169 23.9221 93.7865 23.0602 93.6688 22.4307C93.5511 21.8014 93.462 21.3561 93.4012 21.095C93.3405 20.8341 93.3176 20.1624 93.3323 19.0801C93.3469 17.9977 93.3437 17.0865 93.3229 16.3466C93.302 15.6063 93.2564 15.1266 93.1862 14.9073C93.116 14.6881 93.059 14.5927 93.0152 14.6211C92.9717 14.6498 93.1083 16.9189 93.425 21.4286C93.7419 25.9382 93.8433 28.1564 93.729 28.0828C93.6148 28.0093 93.6466 27.6524 93.8244 27.0119C94.0026 26.3712 94.1141 25.961 94.159 25.7813" stroke="#3D5330" stroke-width="4" stroke-linecap="round" stroke-linejoin="round"/>
<path d="M8.94225 70.6065C8.89924 70.5266 8.86306 70.4763 8.83376 70.4559C8.80447 70.4352 8.74366 70.3668 8.65128 70.2505C8.55917 70.1343 8.47604 70.0312 8.40187 69.9415C8.32771 69.8521 8.28798 69.8184 8.2827 69.8404C8.27716 69.8625 8.27968 69.8724 8.29024 69.8703C8.3008 69.8684 8.22886 69.8217 8.07447 69.7301C7.92033 69.6388 7.7109 69.5123 7.44618 69.3504C7.18146 69.1887 7.07497 69.1012 7.1267 69.0876C7.17843 69.0744 7.20208 69.0678 7.19759 69.0681C7.19311 69.0681 7.25458 69.0622 7.38205 69.0502C7.50979 69.0383 7.62977 69.0016 7.74194 68.9403C7.85384 68.8792 8.2687 68.8346 8.98657 68.8062C9.70418 68.7778 10.7206 68.8348 12.0357 68.9773C13.3511 69.1198 14.5153 69.1442 15.5282 69.0502C16.5414 68.9563 16.9418 68.9503 16.7294 69.0326C16.5169 69.1152 15.7696 69.2517 14.4874 69.4423C13.2053 69.6326 12.1806 69.7705 11.4134 69.856C10.6464 69.9415 10.0679 69.9779 9.67782 69.9654C9.28801 69.9527 9.08531 69.939 9.06974 69.9244C9.05417 69.9098 8.94569 69.903 8.74431 69.9041C8.54294 69.9054 8.37865 69.8753 8.25144 69.8134C8.12422 69.7518 8.02591 69.6991 7.9565 69.6553C7.88709 69.6115 7.85976 69.5899 7.87454 69.5904C7.88906 69.591 7.89357 69.5895 7.88802 69.5861C7.88222 69.5824 7.86018 69.5473 7.82191 69.4809C7.78338 69.4143 7.69995 69.4337 7.57168 69.539C7.44342 69.6444 7.48646 70.6456 7.70076 72.5425C7.91507 74.4395 8.05455 75.9137 8.11922 76.9652C8.18388 78.0171 8.23559 78.8322 8.27439 79.4106C8.31345 79.9889 8.3297 80.4493 8.3231 80.7916C8.3165 81.134 8.29302 81.2822 8.25264 81.2363C8.21226 81.1907 8.16766 80.9978 8.11883 80.6578C8.07 80.3181 8.00939 79.6872 7.93708 78.7652C7.86502 77.8431 7.82005 77.0121 7.8021 76.2721C7.78389 75.5319 7.76264 74.7597 7.73836 73.9558C7.71434 73.1519 7.70037 72.5422 7.69641 72.1268C7.69245 71.7115 7.67253 71.2774 7.63663 70.8246C7.60074 70.3715 7.59015 70.0577 7.60493 69.883C7.61997 69.7084 7.66157 69.5989 7.72966 69.5546C7.79802 69.5105 7.86912 69.4823 7.94302 69.4698C8.01718 69.4573 8.17936 69.4472 8.42956 69.4395C8.67976 69.4321 8.85489 69.4285 8.95492 69.4288C9.05468 69.4293 9.25196 69.4309 9.54676 69.4336C9.84183 69.4362 10.1613 69.4181 10.5052 69.379C10.8491 69.34 11.1188 69.312 11.3144 69.2951C11.5099 69.2783 11.9304 69.238 12.5757 69.1743C13.221 69.1104 13.768 69.0481 14.2166 68.9876C14.6651 68.9268 14.9552 68.886 15.0872 68.8651" stroke="#3D5330" stroke-width="4" stroke-linecap="round" stroke-linejoin="round"/>
<path d="M7.31665 70.3803C7.366 70.4039 7.39382 70.4183 7.40016 70.4234C7.40649 70.4284 7.41191 70.4369 7.4164 70.4488C7.42088 70.4605 7.4089 70.4143 7.38039 70.3102C7.35215 70.2062 7.61091 70.6164 8.1567 71.5408C8.70223 72.4653 9.30822 73.3705 9.97462 74.2565C10.6413 75.1424 11.2969 75.9333 11.9414 76.6293C12.5859 77.3254 13.3824 77.9621 14.3309 78.5391C15.2795 79.1159 15.7969 79.4338 15.8832 79.493" stroke="#3D5330" stroke-width="4" stroke-linecap="round" stroke-linejoin="round"/>
<path d="M38.4176 34.7706C38.3915 34.7592 38.354 34.7477 38.3052 34.7363C38.2519 34.8844 38.2273 34.9521 38.2316 34.9394C38.2358 34.9266 38.2341 34.9457 38.2264 34.9967C38.2151 34.9856 38.1926 34.9668 38.1591 34.9402C38.0763 35.1032 38.05 35.1674 38.0804 35.1329C38.0804 35.1554 38.0578 35.2007 38.0127 35.2687C38.0042 35.2604 38.0028 35.2592 38.0083 35.2651C38.0138 35.2709 38.0067 35.271 37.9869 35.2655C37.9671 35.2599 37.9884 35.2643 38.0506 35.2786C38.1129 35.2932 38.1988 35.3057 38.3084 35.316C38.4179 35.3266 38.4985 35.3371 38.5502 35.3475C38.6017 35.3578 38.6396 35.3585 38.6639 35.3494C38.6879 35.3402 38.6868 35.3438 38.6607 35.3602C38.6348 35.3767 38.7076 35.3556 38.8788 35.297C39.0501 35.238 39.3117 35.158 39.6635 35.0569C40.0155 34.9555 40.2783 34.8841 40.4517 34.8426C40.6251 34.8012 40.7746 34.7802 40.9002 34.7794C41.0261 34.7783 41.1064 34.7674 41.1409 34.7467C41.1755 34.7257 41.2208 34.7133 41.2767 34.7093C41.3324 34.705 41.3451 34.7033 41.3147 34.7041C41.2841 34.7052 41.3824 34.698 41.6097 34.6826C41.8366 34.6672 42.0721 34.6572 42.3159 34.6527C42.5598 34.6485 42.6915 34.6448 42.711 34.6416C42.7308 34.6385 42.7787 34.6237 42.8547 34.5974C42.9307 34.5711 43.1941 34.5439 43.6449 34.5158C44.0959 34.4876 44.4907 34.4614 44.829 34.4369C45.1676 34.4125 45.4223 34.3957 45.5931 34.3864C45.7638 34.3768 45.8959 34.3672 45.9893 34.3573C46.0828 34.3478 46.1635 34.3364 46.2316 34.3231C46.2997 34.3099 46.3508 34.2986 46.3848 34.2893C46.4191 34.28 46.4385 34.274 46.443 34.2713C46.4475 34.2689 46.4541 34.2743 46.4628 34.2873C46.4808 34.3064 46.5831 34.3076 46.7697 34.2909C46.956 34.2741 47.135 34.2588 47.3068 34.2447C47.4784 34.2306 47.7268 34.2253 48.0519 34.2287C48.3774 34.2322 48.6354 34.2295 48.8263 34.2208C49.0173 34.212 49.1563 34.2189 49.2431 34.2415C49.3302 34.2638 49.4272 34.3121 49.5341 34.3864C49.6006 34.3285 49.7052 34.2854 49.8477 34.257C49.9899 34.2286 50.1691 34.2015 50.3853 34.1758C50.6011 34.15 50.7645 34.1291 50.8754 34.1129C50.9862 34.097 51.0561 34.0873 51.0848 34.0838C51.1136 34.0804 51.1239 34.0785 51.1157 34.0783C51.1075 34.0778 51.1476 34.0681 51.236 34.0492C51.3242 34.0306 51.3568 34.0241 51.3338 34.0297C51.3106 34.0353 51.3428 34.0311 51.4304 34.0173C51.5178 34.0035 51.6315 33.9869 51.7717 33.9676C51.9116 33.9482 52.0481 33.927 52.1814 33.9039C52.3144 33.8803 52.4261 33.8715 52.5163 33.8776C52.6066 33.8837 52.6664 33.8809 52.6957 33.8692C52.7252 33.8575 52.7705 33.8601 52.8315 33.8768C52.8924 33.8932 52.963 33.9157 53.0432 33.9441C53.1235 33.9724 53.1955 33.9901 53.2594 33.997C53.323 34.0039 53.3531 34.0036 53.3497 33.9959C53.3462 33.9882 53.3893 33.9759 53.4787 33.9592C53.5682 33.9428 53.6069 33.9373 53.5947 33.9429C53.5828 33.9485 53.5958 33.9495 53.6335 33.9461C53.671 33.9424 53.9208 33.9121 54.3829 33.8553C54.8443 33.7988 55.145 33.7384 55.2852 33.6741C55.4839 33.6585 55.7094 33.6448 55.9617 33.6331C56.2138 33.6214 56.4095 33.6011 56.5488 33.5719C56.6882 33.5427 56.7822 33.5289 56.8311 33.5305C56.8796 33.5321 56.9437 33.5291 57.0231 33.5216C57.1028 33.5139 57.1575 33.5092 57.1874 33.5073C57.2175 33.5055 57.2396 33.5039 57.2539 33.5026C57.2681 33.5012 57.2632 33.4999 57.2392 33.4986C57.2152 33.4975 57.2808 33.5006 57.436 33.5077C57.5909 33.5149 57.7254 33.5202 57.8394 33.5237C57.9531 33.5274 58.06 33.5543 58.1601 33.6044C58.3026 33.5362 58.357 33.5137 58.3232 33.5368C58.5222 33.5997 58.5972 33.628 58.5484 33.6216C58.6231 33.6309 58.6775 33.6139 58.7115 33.5706C58.7144 33.6025 58.8213 33.5968 59.0322 33.5535C59.1518 33.6416 59.2138 33.6701 59.2183 33.6388C59.3764 33.6342 59.4438 33.6455 59.4206 33.6726H59.4376C59.449 33.6951 59.4809 33.7291 59.5334 33.7744C59.5334 33.7516 59.5334 33.729 59.5334 33.7064C59.6764 33.6735 59.7679 33.642 59.8077 33.612C59.8473 33.582 59.9033 33.555 59.9756 33.5309C60.0479 33.5067 60.082 33.4961 60.0777 33.499C60.0735 33.5019 60.0714 33.5029 60.0714 33.5018C60.0714 33.5007 60.0747 33.5023 60.0813 33.5066C60.0877 33.5108 60.1902 33.4982 60.3889 33.4688" stroke="#3D5330" stroke-width="4" stroke-linecap="round" stroke-linejoin="round"/>
<path d="M61.0978 33.7402C61.0954 33.7758 61.0959 33.7916 61.0993 33.7877C61.1028 33.7834 61.1049 33.779 61.1057 33.7744C61.1065 33.7699 61.1068 33.7668 61.1068 33.7649C61.1066 33.7633 61.1055 33.7657 61.1037 33.7721C61.1018 33.7782 61.0968 33.8009 61.0886 33.8402C61.0807 33.8792 61.0709 33.9253 61.0593 33.9784C61.048 34.0312 61.0346 34.0612 61.019 34.0687C61.0414 34.1077 61.0043 34.2462 60.9077 34.484C60.8111 34.7218 60.7073 34.9243 60.5962 35.0915C60.4848 35.2584 60.4121 35.3824 60.378 35.4634C60.344 35.544 60.3119 35.6144 60.2818 35.6744C60.2515 35.7344 60.2081 35.8165 60.1516 35.9208C60.0951 36.0248 60.0756 36.0768 60.093 36.0765C60.1104 36.0765 60.0416 36.2264 59.8867 36.5263C59.7318 36.8262 59.5691 37.1556 59.3986 37.5144C59.2279 37.8735 59.1068 38.1392 59.0356 38.3115C58.9641 38.484 58.9185 38.6085 58.899 38.6849C58.8794 38.7613 58.8614 38.8271 58.8447 38.882C58.8281 38.937 58.8061 38.995 58.7786 39.056C58.7509 39.117 58.7265 39.1801 58.7054 39.2451C58.6846 39.3102 58.679 39.3212 58.6888 39.2782C58.6985 39.2349 58.6582 39.3369 58.5676 39.5843C58.4769 39.8319 58.396 40.0407 58.325 40.2105C58.2537 40.3804 58.2001 40.5087 58.1642 40.5955C58.1283 40.6823 58.096 40.7466 58.0672 40.7883C58.0385 40.8297 58.0109 40.9005 57.9845 41.0008C57.9578 41.1012 57.9008 41.2265 57.8135 41.3767C57.7261 41.5269 57.6568 41.659 57.6056 41.7732C57.5544 41.8873 57.5184 41.9747 57.4976 42.0355C57.4767 42.0963 57.4682 42.1275 57.4722 42.1291C57.4762 42.131 57.4533 42.1888 57.4037 42.3027C57.3538 42.4168 57.3096 42.529 57.2711 42.6391C57.2326 42.7493 57.2013 42.8321 57.1773 42.8875C57.153 42.9433 57.1323 42.9978 57.1151 43.0511C57.098 43.1047 57.0751 43.1745 57.0466 43.2602C57.0184 43.3462 57.0165 43.3564 57.0411 43.2908C57.0659 43.2253 57.0208 43.3501 56.9057 43.6654C56.7909 43.9807 56.6902 44.2578 56.6036 44.4964C56.5171 44.7347 56.4525 44.9247 56.41 45.0664C56.3673 45.2082 56.3415 45.2989 56.3325 45.3384C56.3232 45.3779 56.3069 45.4697 56.2834 45.6139C56.2602 45.7577 56.2229 45.8715 56.1717 45.9551C56.1205 46.0385 56.0756 46.1223 56.0371 46.2067C55.9986 46.2908 55.9658 46.367 55.9386 46.4352C55.9117 46.5034 55.8855 46.5743 55.8602 46.6479C55.8349 46.7211 55.8255 46.7405 55.8321 46.706C55.8384 46.6715 55.779 46.8564 55.6539 47.2609C55.5286 47.6654 55.4185 48.0067 55.3237 48.2849C55.2287 48.563 55.155 48.7644 55.1024 48.8889C55.0499 49.0133 54.9661 49.2576 54.851 49.6214C54.736 49.9856 54.604 50.3951 54.4552 50.85C54.3063 51.3047 54.1346 51.785 53.9401 52.2912C53.7459 52.7973 53.5574 53.2153 53.3748 53.5449C53.1921 53.8748 53.0406 54.2084 52.9199 54.5458C52.7993 54.8834 52.5267 55.6634 52.102 56.8859C51.6776 58.1082 51.3507 59.0289 51.1214 59.6481C50.892 60.2673 50.7338 60.716 50.6467 60.9942C50.5599 61.2724 50.488 61.4884 50.431 61.6423C50.3737 61.796 50.3371 61.8905 50.3213 61.9258C50.3052 61.9609 50.2957 61.989 50.2928 62.0102C50.2899 62.0314 50.2862 62.0489 50.2817 62.0624C50.277 62.0762 50.2751 62.0813 50.2762 62.0779C50.277 62.0744 50.2608 62.1225 50.2275 62.222C50.1943 62.3215 50.1601 62.4045 50.125 62.4708C50.0901 62.5377 50.0592 62.6153 50.0323 62.7037C50.0054 62.7924 49.9822 62.8557 49.9626 62.8936C49.9434 62.9316 49.9257 62.9824 49.9096 63.0461C49.8935 63.1096 49.8912 63.1124 49.9029 63.0545C49.9142 62.9969 49.8716 63.1175 49.775 63.4164C49.6784 63.7155 49.5642 64.1107 49.4325 64.602C49.3011 65.0933 49.1821 65.5008 49.0755 65.8247C48.9688 66.1485 48.8944 66.3686 48.8522 66.4851C48.8097 66.6019 48.7696 66.7213 48.7319 66.8434C48.6939 66.9657 48.6555 67.0775 48.6167 67.1786C48.5779 67.2797 48.5361 67.3741 48.4915 67.4617C48.4469 67.5495 48.4071 67.6146 48.372 67.6568C48.3369 67.6993 48.3199 67.7325 48.3209 67.7564C48.3222 67.7805 48.3057 67.8345 48.2714 67.9184C48.2371 68.0023 48.187 68.1144 48.121 68.2548C48.055 68.3952 47.9994 68.5608 47.9543 68.7517C47.9092 68.9428 47.8602 69.1134 47.8074 69.2636C47.7547 69.4136 47.7024 69.5472 47.6507 69.6646C47.5989 69.7816 47.5486 69.9021 47.4995 70.026C47.4504 70.1503 47.404 70.244 47.3605 70.3071C47.3167 70.3703 47.2931 70.404 47.2896 70.4082C47.2862 70.4122 47.2905 70.4237 47.3027 70.4428C47.3148 70.4617 47.2981 70.5326 47.2524 70.6555C47.2065 70.7784 47.1673 70.8731 47.1348 70.9397C47.1021 71.0063 47.0732 71.0557 47.0481 71.0878C47.0233 71.1202 47.0002 71.1502 46.9788 71.1778C46.9577 71.2054 46.9394 71.2296 46.9239 71.2503C46.9083 71.271 46.898 71.2828 46.893 71.2857C46.8761 71.3837 46.8498 71.4401 46.8142 71.4552C46.8279 71.4377 46.8167 71.483 46.7805 71.591" stroke="#3D5330" stroke-width="4" stroke-linecap="round" stroke-linejoin="round"/>
<path d="M40.939 35.0648C40.9224 34.9377 40.9112 34.8622 40.9054 34.8383C40.9877 34.8608 40.9234 34.8932 40.7125 34.9354C40.5017 34.9776 40.3127 35.01 40.1456 35.0326C39.9786 35.0554 39.8634 35.0664 39.8001 35.0656C39.7367 35.0648 39.6783 35.064 39.6247 35.0632C39.5714 35.0624 39.5158 35.0635 39.458 35.0664C39.3999 35.0693 39.3447 35.0694 39.2925 35.0668C39.2405 35.0644 39.1856 35.0558 39.1278 35.0409C39.0698 35.0261 39.0183 35.0143 38.9734 35.0058C38.9286 34.9971 38.8941 34.9914 38.8701 34.9887C38.8461 34.9861 38.8111 34.9791 38.7652 34.9676C38.7187 34.9562 38.7017 34.9525 38.7141 34.9565C38.7265 34.9605 38.7032 34.9516 38.644 34.9298C38.5849 34.9081 38.397 34.8888 38.0803 34.8721C38.4707 34.8578 38.6022 34.8457 38.475 34.8358C38.3478 34.826 38.4256 34.8293 38.7086 34.8455C38.9915 34.8614 39.2056 34.8815 39.3507 34.9059C39.4956 34.9303 39.6155 34.9422 39.7106 34.9414C39.8053 34.9409 39.8411 34.9405 39.8178 34.9402C39.7946 34.9402 39.8333 34.9405 39.9338 34.941C40.0346 34.9415 40.07 34.941 40.0399 34.9394C40.0101 34.9378 40.044 34.9419 40.1417 34.9517C40.2393 34.9618 40.3588 34.9353 40.5 34.8721C40.5614 34.7253 40.584 34.6575 40.5677 34.6687C40.5677 34.6347 40.5677 34.612 40.5677 34.6006C40.5938 34.5895 40.6388 34.5669 40.7026 34.5329C40.7665 34.4989 40.8115 34.4763 40.8377 34.4648" stroke="#3D5330" stroke-width="4" stroke-linecap="round" stroke-linejoin="round"/>
<path d="M58.8087 33.514C58.8053 33.4912 58.8013 33.4804 58.7968 33.4818C58.7921 33.4828 58.7892 33.4817 58.7881 33.4786C58.7871 33.4754 58.7853 33.474 58.7829 33.4746C58.7803 33.4754 58.7598 33.4913 58.7216 33.5224C58.6833 33.5537 58.6424 33.6037 58.5989 33.6725C58.5883 33.6873 58.5927 33.7119 58.6119 33.7461C58.6312 33.7807 58.6459 33.801 58.6559 33.8074C58.6657 33.8138 58.7245 33.8571 58.8324 33.9372C58.9404 34.0177 58.9938 34.0501 58.9928 34.0347C59.1237 34.0695 59.1766 34.082 59.1515 34.0721C59.1265 34.0621 59.1213 34.0585 59.1361 34.0615C59.1506 34.0644 59.2129 34.072 59.3229 34.0845C59.4327 34.0972 59.4714 34.1034 59.4389 34.1029C59.4062 34.1021 59.4034 34.1 59.4306 34.0968C59.4575 34.0939 59.4548 34.0913 59.4223 34.0889C59.3898 34.0867 59.4282 34.0837 59.5375 34.0797C59.6468 34.076 59.8095 34.0494 60.0256 33.9997C60.2418 33.9504 60.4052 33.9006 60.5158 33.8504C60.6263 33.8003 60.7035 33.7574 60.7473 33.7218C60.7912 33.686 60.8319 33.6588 60.8697 33.6402C60.9074 33.6214 60.915 33.6163 60.8926 33.625C60.8702 33.6338 60.8693 33.6329 60.8899 33.6223C60.9102 33.6117 60.9165 33.6105 60.9088 33.6187C60.9009 33.6272 60.898 33.6284 60.9001 33.6223C60.9023 33.6162 60.9499 33.599 61.043 33.5709C61.1362 33.543 61.2211 33.5192 61.2976 33.4993C61.3742 33.4794 61.4095 33.4711 61.4037 33.4746C61.3982 33.478 61.4171 33.4734 61.4603 33.4607C61.5034 33.4479 61.5913 33.4286 61.724 33.4026C61.8565 33.3768 61.9074 33.3677 61.8768 33.3754C61.8462 33.3834 61.8703 33.3802 61.9493 33.3659C62.0282 33.3513 62.0645 33.3459 62.0581 33.3496C62.0521 33.353 62.0477 33.3542 62.045 33.3532C62.0424 33.3518 62.0484 33.3509 62.0629 33.3504C62.0771 33.3501 62.1018 33.3448 62.1369 33.3344C62.172 33.3243 62.2116 33.3138 62.2556 33.3026C62.3 33.2915 62.3454 33.2848 62.3918 33.2827C62.4383 33.2803 62.4744 33.2786 62.5003 33.2776C62.5259 33.2765 62.5386 33.276 62.5383 33.2763C62.5645 33.2763 62.6395 33.2649 62.7636 33.2421C62.7636 33.2309 62.7636 33.2197 62.7636 33.2083C62.7771 33.2098 62.7376 33.2442 62.6452 33.3114C62.5528 33.3785 62.4154 33.4949 62.2331 33.6605C62.0507 33.8264 61.8972 33.9762 61.7727 34.11C61.6484 34.2435 61.4841 34.4287 61.2798 34.6657C61.0755 34.903 60.8534 35.1379 60.6135 35.3704" stroke="#3D5330" stroke-width="4" stroke-linecap="round" stroke-linejoin="round"/>
</svg>
