<svg width="146" height="105" viewBox="0 0 146 105" fill="none" xmlns="http://www.w3.org/2000/svg">
<path d="M99.1685 43.1726C99.2041 43.2816 99.2201 43.3365 99.2165 43.3373C99.2132 43.3378 99.2131 43.3467 99.2161 43.3641C99.2192 43.3814 99.2296 43.3899 99.2474 43.3896C99.2652 43.3894 99.2703 43.3895 99.2627 43.39C99.255 43.3905 99.2523 43.3906 99.2543 43.3904C99.2563 43.3901 99.2543 43.3941 99.2482 43.4022C99.2421 43.4104 99.2243 43.4436 99.1948 43.502C99.1653 43.56 99.1346 43.5974 99.1028 43.614C99.0711 43.6306 98.9123 43.9224 98.6264 44.4895C98.3406 45.0569 98.1036 45.4969 97.9154 45.8098C97.7275 46.1229 97.5745 46.3791 97.4566 46.5783C97.3386 46.7775 97.201 47.0217 97.0438 47.3109C96.8867 47.6001 96.7459 47.8395 96.6216 48.029C96.4975 48.2188 96.3682 48.4093 96.2337 48.6007C96.0991 48.7922 95.9943 48.941 95.9193 49.047C95.8446 49.153 95.7415 49.3948 95.61 49.7724C95.4783 50.15 95.2903 50.5811 95.0462 51.0656C94.8018 51.5502 94.6186 51.9134 94.4966 52.1554C94.3745 52.3977 94.2588 52.6146 94.1495 52.8059C94.0399 52.997 93.9486 53.1508 93.8756 53.2672C93.8026 53.3836 93.7267 53.4897 93.6479 53.5855C93.5688 53.6813 93.4954 53.7933 93.4278 53.9214C93.3599 54.0493 93.303 54.1565 93.2572 54.2428C93.2112 54.3292 93.1681 54.4123 93.1279 54.4923C93.088 54.5723 93.0471 54.6544 93.0051 54.7384C92.9632 54.8225 92.9265 54.901 92.8953 54.9738C92.8642 55.0469 92.7662 55.2638 92.6012 55.6243C92.4359 55.9851 92.3017 56.2733 92.1988 56.4891C92.096 56.7046 92.0234 56.8596 91.981 56.9538C91.9385 57.0476 91.9095 57.1107 91.894 57.1433C91.8787 57.1757 91.8378 57.2539 91.7712 57.378C91.7045 57.502 91.6087 57.6822 91.4836 57.9184C91.3587 58.1543 91.2753 58.3209 91.2333 58.4182C91.1914 58.5156 91.1488 58.6069 91.1055 58.6925C91.0623 58.7781 91.0186 58.8541 90.9743 58.9204C90.9303 58.9864 90.8914 59.0505 90.8576 59.113C90.8238 59.1754 90.7938 59.2351 90.7676 59.2922C90.7411 59.3492 90.7258 59.3849 90.7214 59.3992C90.7174 59.4132 90.704 59.4516 90.6814 59.5142C90.6585 59.5767 90.6388 59.63 90.6223 59.6743C90.6057 59.7187 90.599 59.7361 90.602 59.7267C90.6053 59.7175 90.6409 59.6818 90.7088 59.6197C90.777 59.5572 90.8213 59.5199 90.8416 59.5077" stroke="#3D5330" stroke-width="4" stroke-linecap="round" stroke-linejoin="round"/>
<path d="M98.9766 43.2556C99.0101 43.3664 99.0281 43.4124 99.0303 43.3938C99.0329 43.3755 99.069 43.3345 99.1387 43.2708C99.1761 43.2002 99.1949 43.1696 99.1951 43.179C99.1944 43.1887 99.1918 43.1937 99.1875 43.194C99.1832 43.194 99.1956 43.1907 99.2249 43.1841C99.2539 43.1772 99.3703 43.1171 99.5743 43.004C99.778 42.8906 99.9299 42.7988 100.03 42.7285C100.13 42.6582 100.211 42.6065 100.274 42.5734C100.337 42.5402 100.389 42.5136 100.431 42.4935C100.473 42.4734 100.504 42.4591 100.525 42.4507C100.546 42.442 100.56 42.4365 100.568 42.4342C100.576 42.4317 100.585 42.4255 100.595 42.4156C100.605 42.4056 100.604 42.4022 100.589 42.4052C100.575 42.4083 100.586 42.4078 100.623 42.4037C100.66 42.3997 100.705 42.3925 100.757 42.3823C100.81 42.3723 100.851 42.3609 100.881 42.3479C100.911 42.3352 100.922 42.3304 100.912 42.3338C100.903 42.3373 100.901 42.3382 100.907 42.3365C100.912 42.3349 100.912 42.3351 100.907 42.3368C100.902 42.3386 100.918 42.3286 100.956 42.307C100.994 42.2853 101.026 42.2675 101.053 42.2535C101.08 42.2395 101.099 42.2322 101.109 42.2317C101.12 42.2312 101.116 42.2307 101.099 42.2302C101.081 42.2297 101.123 42.2084 101.225 42.1664C101.327 42.1241 101.412 42.0975 101.48 42.0865C101.547 42.0753 101.606 42.0684 101.657 42.0659C101.707 42.0636 101.732 42.0614 101.733 42.0594C101.734 42.0576 101.733 42.0561 101.729 42.0548C101.725 42.0533 101.762 42.0542 101.842 42.0575C101.921 42.0611 101.996 42.0667 102.065 42.0743C102.134 42.0819 102.167 42.0875 102.164 42.0911C102.16 42.0947 102.16 42.0959 102.162 42.0949C102.164 42.0939 102.164 42.0925 102.16 42.0907C102.157 42.0889 102.157 42.0886 102.161 42.0896C102.165 42.0904 102.165 42.0916 102.16 42.0934C102.155 42.0949 102.186 42.0989 102.252 42.1053C102.318 42.1116 102.38 42.1212 102.437 42.1339C102.495 42.1464 102.531 42.1523 102.545 42.1518C102.559 42.1513 102.596 42.1597 102.655 42.1767C102.714 42.1941 102.9 42.2027 103.211 42.2027C103.523 42.2029 103.818 42.2028 104.098 42.2023C104.378 42.202 104.677 42.1923 104.996 42.1729C105.314 42.1535 105.578 42.1421 105.786 42.1385C105.994 42.1352 106.204 42.1441 106.416 42.1653C106.627 42.1864 106.832 42.1937 107.028 42.1874C107.225 42.1807 107.527 42.1892 107.935 42.2127C108.344 42.2361 108.665 42.2487 108.899 42.2504C109.132 42.2525 109.522 42.2381 110.068 42.2072C110.614 42.1762 111.032 42.1578 111.322 42.1522C111.612 42.1466 111.858 42.1383 112.059 42.1274C112.26 42.1167 112.688 42.1298 113.342 42.1668C113.996 42.2039 114.54 42.2372 114.975 42.2665C115.41 42.2958 115.732 42.303 115.941 42.2879C116.15 42.2729 116.346 42.2672 116.529 42.2711C116.712 42.2746 116.885 42.2919 117.049 42.323C117.212 42.3541 117.467 42.3632 117.813 42.3502C118.159 42.3372 118.486 42.3424 118.796 42.3659C119.105 42.3893 119.348 42.417 119.525 42.4488C119.702 42.4806 119.947 42.5023 120.262 42.5137C120.575 42.5247 121.109 42.544 121.865 42.5715C122.621 42.599 123.209 42.6109 123.628 42.607C124.047 42.6032 124.467 42.6209 124.887 42.6601C125.307 42.6988 125.669 42.732 125.976 42.7595C126.282 42.7873 126.52 42.7839 126.689 42.7495C126.858 42.7151 127.136 42.7064 127.523 42.7232C127.909 42.74 128.223 42.7644 128.464 42.7965C128.706 42.8286 128.894 42.8339 129.03 42.8122C129.165 42.7903 129.316 42.7995 129.482 42.8397C129.648 42.8802 129.784 42.9079 129.891 42.9227C129.997 42.9377 130.09 42.9577 130.169 42.9827C130.248 43.0076 130.328 43.028 130.409 43.0438C130.49 43.0596 130.554 43.0725 130.602 43.0824C130.65 43.0923 130.693 43.0988 130.731 43.1019C130.769 43.1049 130.788 43.108 130.788 43.111C130.788 43.1141 130.933 43.1106 131.224 43.1004C131.514 43.0902 131.733 43.0793 131.881 43.0678C132.028 43.0566 132.137 43.052 132.209 43.0537C132.28 43.0558 132.333 43.0604 132.37 43.0678C132.407 43.0755 132.436 43.0799 132.455 43.0809C132.475 43.0819 132.492 43.0834 132.506 43.0855C132.521 43.0873 132.527 43.0882 132.527 43.0882C132.526 43.0882 132.523 43.0876 132.52 43.0866C132.516 43.0856 132.533 43.089 132.571 43.0969C132.609 43.1046 132.634 43.1112 132.646 43.1168C132.657 43.1224 132.664 43.1243 132.664 43.1225C132.665 43.1207 132.663 43.1196 132.657 43.1191C132.651 43.1188 132.727 43.1353 132.884 43.1684C133.042 43.2015 133.189 43.23 133.325 43.254C133.462 43.2779 133.579 43.2946 133.678 43.3041C133.777 43.3135 133.85 43.3216 133.899 43.3285C133.947 43.3351 133.962 43.335 133.943 43.3281C133.925 43.3213 133.956 43.3179 134.036 43.3182C134.117 43.3184 134.185 43.325 134.241 43.338C134.297 43.351 134.334 43.3582 134.352 43.3595C134.37 43.3605 134.379 43.3615 134.379 43.3625C134.378 43.3635 134.375 43.3631 134.368 43.3614C134.361 43.3598 134.386 43.3663 134.444 43.3809C134.501 43.3954 134.542 43.407 134.566 43.4157C134.59 43.4243 134.614 43.4337 134.64 43.4439C134.665 43.4539 134.682 43.461 134.689 43.4653C134.698 43.4699 134.702 43.4723 134.703 43.4726C134.703 43.4731 134.701 43.4718 134.697 43.4687C134.692 43.4657 134.703 43.4732 134.73 43.4913C134.757 43.5094 134.776 43.5228 134.789 43.5314C134.803 43.5398 134.808 43.5431 134.805 43.5413C134.803 43.5393 134.804 43.5397 134.808 43.5425C134.812 43.5453 134.826 43.5541 134.849 43.5689C134.872 43.5839 134.894 43.5974 134.914 43.6093C134.935 43.6213 134.947 43.6265 134.95 43.625C134.952 43.6235 134.95 43.6222 134.943 43.6212C134.937 43.6202 134.943 43.6255 134.963 43.6372C134.983 43.649 135.017 43.6627 135.066 43.6782C135.115 43.6937 135.138 43.7019 135.136 43.7026C135.133 43.7032 135.146 43.7105 135.172 43.7248C135.199 43.739 135.208 43.7441 135.201 43.7401C135.194 43.736 135.201 43.7368 135.223 43.7424C135.245 43.748 135.259 43.7519 135.267 43.7542C135.275 43.7565 135.278 43.757 135.277 43.7557C135.276 43.7547 135.288 43.7584 135.313 43.7668C135.337 43.775 135.34 43.7758 135.322 43.7692C135.304 43.7625 135.321 43.7668 135.373 43.7821C135.424 43.7972 135.459 43.8082 135.478 43.8154C135.497 43.8225 135.526 43.8167 135.567 43.7978C135.608 43.779 135.632 43.7656 135.639 43.7577" stroke="#3D5330" stroke-width="4" stroke-linecap="round" stroke-linejoin="round"/>
<path d="M90.043 60.2514C90.0128 60.2532 90.0055 60.252 90.0213 60.248C90.0371 60.2439 90.0443 60.2415 90.043 60.2407C90.042 60.2399 90.0466 60.2398 90.0567 60.2403C90.0672 60.2408 90.124 60.2408 90.2273 60.2403C90.3305 60.2396 90.3964 60.2363 90.4248 60.2304C90.4533 60.2243 90.4711 60.2251 90.4783 60.233C90.4851 60.2412 90.4874 60.2456 90.4851 60.2461C90.4826 60.2469 90.501 60.2516 90.5404 60.2606C90.5798 60.2697 90.8182 60.2407 91.2556 60.1734C91.6927 60.1062 92.544 60.0622 93.8094 60.0416C95.0747 60.0209 96.3138 60.0292 97.5265 60.0661C98.739 60.1033 99.6367 60.1226 100.22 60.1242C100.802 60.1259 101.364 60.1313 101.906 60.1402C102.448 60.1494 102.895 60.1444 103.247 60.1253C103.598 60.1062 104.821 60.0365 106.916 59.9163C109.01 59.7958 110.796 59.7101 112.272 59.6594C113.749 59.6085 114.951 59.6104 115.88 59.6652C116.809 59.72 118.243 59.7043 120.182 59.6182C122.12 59.5323 123.588 59.4399 124.586 59.3411C125.585 59.242 126.626 59.18 127.71 59.1551C128.794 59.1298 129.648 59.1215 130.272 59.1301C130.896 59.1388 131.957 59.1939 133.456 59.2953C134.956 59.3967 136.166 59.4767 137.088 59.5352C138.01 59.5938 138.691 59.6308 139.132 59.6461C139.573 59.6616 139.786 59.6613 139.769 59.645C139.753 59.6287 139.746 59.6189 139.749 59.6159C139.752 59.6128 139.737 59.6012 139.704 59.5808C139.672 59.5601 139.644 59.5469 139.622 59.541" stroke="#3D5330" stroke-width="4" stroke-linecap="round" stroke-linejoin="round"/>
<path d="M138.947 59.2379C138.96 59.2461 138.967 59.2502 138.969 59.2502C138.97 59.2502 138.971 59.2502 138.971 59.2502C138.971 59.2502 138.976 59.2508 138.986 59.2521C138.995 59.2534 138.992 59.2529 138.975 59.2506C138.958 59.2486 139.016 59.2729 139.147 59.3236C139.279 59.3743 139.458 59.4223 139.685 59.4676C139.912 59.513 140.097 59.5497 140.241 59.5777C140.384 59.6055 140.529 59.6362 140.676 59.6698C140.822 59.7032 140.971 59.7294 141.125 59.7485C141.278 59.7674 141.405 59.7814 141.506 59.7905C141.607 59.7997 141.71 59.8031 141.815 59.8005C141.919 59.798 141.974 59.7978 141.978 59.8001C141.982 59.8022 142.027 59.7992 142.113 59.7913C142.2 59.7836 142.258 59.7798 142.289 59.7795C142.319 59.7795 142.352 59.7751 142.388 59.7665C142.423 59.7581 142.468 59.748 142.52 59.7363C142.573 59.7243 142.604 59.7184 142.612 59.7187C142.621 59.7189 142.624 59.7191 142.622 59.7191C142.62 59.7191 142.618 59.7195 142.616 59.7203C142.614 59.7213 142.627 59.7191 142.654 59.7137C142.682 59.7086 142.697 59.7069 142.699 59.7084C142.701 59.71 142.701 59.7103 142.699 59.7095C142.696 59.709 142.717 59.706 142.762 59.7004C142.807 59.6948 142.855 59.6834 142.909 59.6663C142.962 59.6495 142.989 59.6405 142.992 59.6392C142.994 59.6377 142.995 59.6365 142.994 59.6357C142.994 59.6352 143.009 59.6247 143.039 59.604C143.068 59.5834 143.081 59.5721 143.078 59.5701C143.074 59.5683 143.097 59.5429 143.145 59.494C143.193 59.4454 143.21 59.4313 143.195 59.4519C143.179 59.4726 143.174 59.4797 143.178 59.473C143.182 59.4664 143.197 59.4415 143.225 59.3985C143.252 59.3552 143.266 59.334 143.266 59.335C143.266 59.3361 143.265 59.3336 143.262 59.3278C143.259 59.3222 143.271 59.2985 143.296 59.2567C143.322 59.2149 143.33 59.2008 143.322 59.2143C143.313 59.2281 143.32 59.2351 143.345 59.2353C143.37 59.2358 143.381 59.1558 143.38 58.9953C143.379 58.8346 143.374 58.7083 143.366 58.6165C143.356 58.5248 143.344 58.455 143.328 58.4068C143.313 58.3587 143.3 58.315 143.29 58.2757C143.28 58.2365 143.276 58.2221 143.277 58.2325C143.279 58.2427 143.279 58.2477 143.279 58.2475C143.279 58.2469 143.279 58.2474 143.279 58.2489C143.28 58.2505 143.28 58.2515 143.281 58.252C143.282 58.2528 143.281 58.2514 143.28 58.2478C143.279 58.2443 143.277 58.236 143.274 58.223C143.27 58.2103 143.257 58.1747 143.237 58.1164C143.215 58.0578 143.204 58.0266 143.202 58.0231C143.2 58.0193 143.199 58.0179 143.2 58.0189C143.201 58.0199 143.2 58.0152 143.197 58.0048C143.194 57.9943 143.197 57.9976 143.205 58.0147C143.214 58.0315 143.201 57.9878 143.166 57.8836C143.131 57.7794 143.104 57.6944 143.084 57.6287C143.065 57.563 143.041 57.4925 143.012 57.4174C142.982 57.3422 142.95 57.2568 142.915 57.161C142.88 57.0652 142.855 56.996 142.838 56.9535C142.822 56.9107 142.805 56.8691 142.788 56.8288C142.771 56.7883 142.757 56.7537 142.746 56.7249C142.735 56.6964 142.727 56.6775 142.721 56.6684C142.715 56.6592 142.715 56.6623 142.72 56.6779C142.725 56.6932 142.699 56.6432 142.642 56.5278C142.585 56.4124 142.513 56.2909 142.426 56.1635C142.338 56.0361 142.267 55.9408 142.214 55.8777C142.161 55.8142 142.122 55.7676 142.098 55.7378C142.073 55.7083 142.059 55.6903 142.053 55.684C142.048 55.6776 142 55.6068 141.909 55.4718C141.819 55.3368 141.739 55.2117 141.67 55.0966C141.602 54.9812 141.484 54.7997 141.318 54.5523C141.152 54.305 141.034 54.1293 140.965 54.0254C140.895 53.9214 140.802 53.7546 140.684 53.5248C140.566 53.2949 140.447 53.0777 140.328 52.8729C140.209 52.668 140.105 52.4889 140.016 52.3356C139.928 52.1822 139.823 52.0409 139.703 51.9117C139.582 51.7823 139.439 51.6139 139.272 51.4065C139.106 51.1994 138.986 51.0325 138.911 50.9058C138.837 50.7792 138.775 50.6689 138.726 50.5749C138.677 50.4809 138.604 50.3292 138.506 50.1198C138.408 49.9101 138.313 49.7096 138.221 49.5183C138.129 49.3272 138.075 49.2079 138.06 49.1602C138.044 49.1126 137.998 49.031 137.922 48.9156C137.846 48.8002 137.777 48.7059 137.716 48.6328C137.655 48.5597 137.564 48.4231 137.443 48.2231C137.323 48.0234 137.212 47.8476 137.111 47.6958C137.009 47.5442 136.921 47.4253 136.846 47.3392C136.771 47.2531 136.707 47.1715 136.653 47.0943C136.599 47.0171 136.556 46.9547 136.526 46.907C136.496 46.8592 136.47 46.8203 136.45 46.7905C136.43 46.7607 136.417 46.7404 136.411 46.7297C136.405 46.719 136.395 46.7002 136.379 46.6731C136.363 46.6459 136.327 46.5947 136.272 46.5196C136.217 46.4444 136.133 46.2631 136.02 45.9757C135.908 45.6884 135.817 45.4616 135.75 45.2955C135.682 45.1296 135.618 45.012 135.559 44.9427C135.499 44.8732 135.447 44.8053 135.401 44.7391C135.355 44.6728 135.309 44.6099 135.263 44.5503C135.218 44.4907 135.146 44.402 135.046 44.2843C134.947 44.1666 134.867 44.0657 134.807 43.9817C134.747 43.8976 134.7 43.8324 134.664 43.786C134.629 43.7396 134.601 43.7036 134.582 43.6779C134.562 43.6519 134.549 43.6361 134.545 43.6305C134.54 43.6246 134.528 43.6041 134.509 43.5689C134.489 43.5335 134.478 43.515 134.476 43.5135C134.474 43.512 134.467 43.5004 134.455 43.4788C134.442 43.4571 134.432 43.4381 134.423 43.4218C134.415 43.4055 134.407 43.3922 134.402 43.382C134.396 43.3721 134.393 43.3673 134.393 43.3676C134.393 43.3678 134.386 43.3521 134.371 43.3205C134.357 43.2889 134.353 43.2759 134.359 43.2815C134.366 43.2871 134.375 43.2955 134.389 43.3067" stroke="#3D5330" stroke-width="4" stroke-linecap="round" stroke-linejoin="round"/>
<path d="M96.886 60.5415C96.8491 60.4857 96.8334 60.4601 96.8387 60.4647C96.8441 60.469 96.8451 60.4663 96.8418 60.4566C96.8387 60.4467 96.8275 60.4265 96.8082 60.3962C96.7889 60.3659 96.7783 60.3469 96.7766 60.3393C96.7745 60.3316 96.772 60.3307 96.7689 60.3366C96.7656 60.3427 96.7636 60.3481 96.7628 60.3527C96.7618 60.357 96.7607 60.364 96.7594 60.3737C96.7579 60.3834 96.7573 60.3833 96.7579 60.3733C96.7586 60.3634 96.7544 60.3822 96.7453 60.4299C96.7359 60.4778 96.7373 60.6601 96.7495 60.9771C96.7619 61.2943 96.7632 61.5409 96.7533 61.7169C96.7436 61.8932 96.7357 62.0397 96.7296 62.1561C96.7235 62.2728 96.7246 62.4673 96.7327 62.74C96.7408 63.0126 96.7724 63.3852 96.8273 63.8578C96.8822 64.3306 96.8944 64.8699 96.8639 65.4758C96.8334 66.0816 96.8046 66.5627 96.7777 66.9188C96.7507 67.275 96.7304 67.5819 96.7167 67.8398C96.7027 68.0979 96.6976 68.4172 96.7014 68.7979C96.7052 69.1787 96.7107 69.5776 96.7178 69.9944C96.7249 70.4112 96.7583 70.9116 96.8178 71.4955C96.8773 72.0797 96.9206 72.5274 96.9478 72.8387C96.975 73.1501 96.9935 73.3952 97.0031 73.574C97.0128 73.7529 97.0437 74.1683 97.0958 74.8202C97.1482 75.4719 97.1903 76.0686 97.2221 76.6103C97.2541 77.1522 97.2734 77.5428 97.2801 77.7823C97.2867 78.0218 97.2901 78.2571 97.2904 78.4885C97.2906 78.7198 97.2832 78.9753 97.2682 79.2547C97.2535 79.5342 97.2461 79.7546 97.2461 79.9159C97.2464 80.0771 97.2432 80.204 97.2366 80.2965C97.23 80.3893 97.2281 80.4603 97.2309 80.5097C97.2337 80.5591 97.2334 80.609 97.2301 80.6592C97.227 80.7091 97.23 80.7637 97.2389 80.8231C97.2475 80.8825 97.2546 80.9416 97.2602 81.0007C97.2658 81.0598 97.2834 81.2062 97.3129 81.4395C97.3424 81.6726 97.3689 81.9036 97.3926 82.1324C97.4162 82.3611 97.4359 82.5575 97.4517 82.7213C97.4677 82.8851 97.4827 83.0225 97.4967 83.1336C97.5107 83.2449 97.5204 83.3203 97.5257 83.3598C97.5313 83.399 97.5136 83.4774 97.4727 83.5948C97.4317 83.712 97.4134 83.7892 97.4178 83.8264C97.4223 83.8633 97.4231 83.8961 97.4201 83.9246C97.4167 83.9532 97.4166 84.0107 97.4197 84.0973C97.4225 84.1842 97.425 84.2599 97.4273 84.3243C97.4293 84.3888 97.4419 84.4529 97.4651 84.5166C97.4879 84.5803 97.503 84.6126 97.5101 84.6137C97.5169 84.6149 97.5304 84.5971 97.5505 84.5602C97.5708 84.5235 97.5838 84.4976 97.5894 84.4826" stroke="#3D5330" stroke-width="4" stroke-linecap="round" stroke-linejoin="round"/>
<path d="M138.52 59.7507C138.52 59.7252 138.517 59.6805 138.512 59.6163C138.506 59.5521 138.503 59.5257 138.503 59.5372C138.503 59.5489 138.503 59.5561 138.503 59.5589C138.503 59.5617 138.504 59.5677 138.505 59.5769C138.506 59.5861 138.505 59.5841 138.502 59.5711C138.498 59.5581 138.501 59.6728 138.508 59.9151C138.515 60.1574 138.523 60.3406 138.533 60.4646C138.542 60.5887 138.546 60.6905 138.545 60.7703C138.543 60.85 138.543 60.9282 138.545 61.0049C138.547 61.0816 138.543 61.1305 138.535 61.1517C138.525 61.1728 138.541 61.4167 138.581 61.8832C138.622 62.3496 138.65 62.9304 138.667 63.6254C138.683 64.3202 138.688 64.9199 138.681 65.4246C138.675 65.9293 138.676 66.4111 138.687 66.8699C138.698 67.3287 138.709 67.8692 138.719 68.4913C138.73 69.1132 138.732 69.5721 138.724 69.8679C138.717 70.1634 138.717 70.3982 138.724 70.5722C138.731 70.7462 138.743 71.0048 138.76 71.348C138.776 71.6909 138.798 72.1388 138.827 72.692C138.855 73.2448 138.886 73.7204 138.917 74.1186C138.949 74.5168 138.979 74.9127 139.008 75.3063C139.037 75.6999 139.053 75.9929 139.056 76.1853C139.059 76.3776 139.067 76.7817 139.082 77.3978C139.096 78.0138 139.116 78.4967 139.142 78.8465C139.168 79.1966 139.187 79.4492 139.197 79.6044C139.207 79.7595 139.215 79.8689 139.221 79.9326C139.227 79.9963 139.231 80.0413 139.232 80.0675C139.234 80.0938 139.235 80.1441 139.235 80.2185C139.235 80.2931 139.272 80.6738 139.345 81.3604C139.418 82.0472 139.476 82.567 139.519 82.9196C139.561 83.2722 139.588 83.5315 139.6 83.6976C139.612 83.8635 139.614 83.9859 139.606 84.0648C139.599 84.1438 139.596 84.2087 139.597 84.2594" stroke="#3D5330" stroke-width="4" stroke-linecap="round" stroke-linejoin="round"/>
<path d="M97.943 84.2461C97.9074 84.3281 97.8919 84.3626 97.8965 84.3497C97.9013 84.3369 97.8929 84.3466 97.8713 84.3787C97.8497 84.411 97.8403 84.4253 97.8431 84.4215C97.8456 84.4177 97.847 84.4156 97.8473 84.4153C97.8475 84.4151 97.8432 84.4354 97.8343 84.4762C97.8256 84.5169 97.8229 84.5356 97.8259 84.5323C97.8292 84.529 97.8309 84.5512 97.8309 84.5991C97.8309 84.6468 97.8309 84.6665 97.8309 84.6584C97.8309 84.65 97.8273 84.6382 97.8202 84.6232C97.8131 84.6082 97.8132 84.7084 97.8206 84.9236C97.8277 85.1387 97.8395 85.3016 97.856 85.4124C97.8723 85.5232 97.8874 85.6036 97.9014 85.6535C97.9152 85.7034 97.9269 85.7431 97.9365 85.7724C97.9464 85.8017 97.9539 85.8214 97.959 85.8316C97.9641 85.8416 97.9779 85.8556 98.0002 85.8737C98.0229 85.892 98.0496 85.8938 98.0803 85.879C98.1111 85.8642 98.096 85.7198 98.0349 85.4456C97.9739 85.1713 97.9434 85.0266 97.9434 85.0115" stroke="#3D5330" stroke-width="4" stroke-linecap="round" stroke-linejoin="round"/>
<path d="M97.5158 84.28C97.508 84.2887 97.5076 84.2893 97.5147 84.2816C97.5218 84.2742 97.502 84.2959 97.4552 84.3466C97.4084 84.3975 97.3877 84.4221 97.393 84.4204C97.3983 84.4183 97.3968 84.4155 97.3884 84.4122C97.38 84.4087 97.363 84.4439 97.3373 84.5178C97.3119 84.5916 97.298 84.6646 97.2957 84.7367C97.2934 84.8086 97.296 84.8661 97.3034 84.9094C97.3107 84.953 97.3168 84.9836 97.3217 85.0011C97.3265 85.0187 97.3355 85.0804 97.3488 85.1862C97.362 85.2919 97.383 85.3706 97.4117 85.4223C97.4404 85.4738 97.4659 85.5111 97.488 85.5343C97.5099 85.5574 97.5332 85.5822 97.5582 85.6084C97.5833 85.6342 97.6078 85.6596 97.6314 85.6848C97.6553 85.7103 97.6694 85.7203 97.6738 85.7147C97.6783 85.7091 97.6746 85.7068 97.6627 85.7078C97.651 85.7086 97.7264 85.7428 97.8889 85.8106C98.0514 85.8784 98.2079 85.9292 98.3584 85.9631C98.509 85.9969 98.6167 86.0158 98.6815 86.0196C98.7461 86.0234 98.8275 86.0296 98.9256 86.038C99.0235 86.0464 99.1155 86.0513 99.2014 86.0525C99.2874 86.0538 99.4496 86.0467 99.6882 86.0314C99.9267 86.0164 100.133 86.0092 100.308 86.0097C100.482 86.0105 100.614 86.0007 100.703 85.9806C100.792 85.9607 101.044 85.9377 101.459 85.9115C101.874 85.8852 102.217 85.8665 102.488 85.8553C102.76 85.8441 103.017 85.8182 103.26 85.7777C103.503 85.7374 103.978 85.6915 104.684 85.6398C105.391 85.5881 105.973 85.5515 106.429 85.5301C106.886 85.5087 107.239 85.4961 107.488 85.4923C107.738 85.4882 107.957 85.4822 108.144 85.4743C108.331 85.4664 108.549 85.4421 108.795 85.4013C109.042 85.3603 109.236 85.3311 109.378 85.3138C109.52 85.2967 109.837 85.2674 110.33 85.2259C110.824 85.1846 111.256 85.1623 111.627 85.159C111.999 85.1557 112.39 85.1683 112.8 85.1969C113.211 85.2254 113.558 85.2387 113.842 85.2366C114.126 85.2348 114.391 85.2289 114.636 85.219C114.882 85.2093 115.261 85.1784 115.771 85.1262C116.281 85.0739 116.732 85.0384 117.123 85.0195C117.514 85.0009 117.797 84.9925 117.973 84.9943C118.15 84.9964 118.282 84.9982 118.369 85C118.455 85.0021 118.645 84.9976 118.938 84.9867C119.23 84.9757 119.479 84.9684 119.683 84.9648C119.887 84.9613 120.083 84.9545 120.269 84.9446C120.455 84.9344 120.699 84.9212 120.999 84.9049C121.299 84.8885 121.578 84.8412 121.836 84.7628C122.094 84.684 122.223 84.6364 122.223 84.6198C122.223 84.6033 122.223 84.589 122.223 84.577" stroke="#3D5330" stroke-width="4" stroke-linecap="round" stroke-linejoin="round"/>
<path d="M122.036 59.8306C122.007 59.8797 121.995 59.9061 121.998 59.9097C122.001 59.9133 121.998 59.9187 121.989 59.9261C121.979 59.9335 121.969 59.9546 121.959 59.9895C121.948 60.0247 121.941 60.0425 121.938 60.0427C121.934 60.0432 121.933 60.0418 121.934 60.0385C121.935 60.0352 121.931 60.0418 121.923 60.0584C121.915 60.075 121.906 60.1017 121.896 60.1386C121.886 60.1756 121.88 60.1944 121.877 60.1952C121.875 60.1959 121.874 60.1857 121.875 60.1646C121.877 60.1432 121.869 60.2846 121.853 60.5888C121.836 60.893 121.83 61.143 121.832 61.3389C121.835 61.5351 121.842 61.6698 121.853 61.7429C121.863 61.816 121.898 62.1601 121.958 62.7751C122.017 63.3904 122.055 64.1498 122.072 65.0535C122.089 65.9574 122.097 66.6379 122.096 67.0949C122.095 67.5517 122.103 67.9368 122.119 68.2502C122.135 68.5633 122.147 68.7968 122.157 68.9506C122.167 69.1043 122.192 69.4708 122.231 70.0502C122.27 70.6298 122.34 71.2791 122.44 71.9984C122.541 72.7176 122.626 73.2884 122.694 73.7108C122.764 74.1332 122.811 74.4435 122.838 74.6417C122.865 74.8402 122.887 75.0688 122.905 75.3276C122.922 75.5867 122.943 75.8546 122.967 76.1313C122.991 76.408 123.014 76.6529 123.035 76.8659C123.056 77.0789 123.062 77.2864 123.053 77.4887C123.044 77.6913 123.051 78.0018 123.073 78.4204C123.095 78.839 123.113 79.1589 123.127 79.38C123.14 79.6011 123.146 79.7856 123.145 79.9334C123.145 80.0811 123.174 80.5467 123.234 81.3301C123.293 82.1138 123.331 82.7242 123.348 83.1614C123.365 83.5986 123.387 83.9225 123.414 84.1332C123.441 84.3442 123.46 84.4918 123.472 84.5758C123.484 84.6596 123.49 84.7235 123.488 84.7673C123.486 84.8108 123.487 84.842 123.489 84.8609C123.492 84.88 123.495 84.9226 123.499 84.9889C123.503 85.0554 123.505 85.0871 123.505 85.084C123.505 85.0812 123.505 85.077 123.505 85.0714" stroke="#3D5330" stroke-width="4" stroke-linecap="round" stroke-linejoin="round"/>
<path d="M101.667 71.2198C101.645 71.2484 101.634 71.2581 101.632 71.249C101.63 71.2398 101.628 71.2361 101.625 71.2379C101.623 71.2399 101.621 71.2428 101.621 71.2466C101.621 71.2507 101.621 71.2507 101.621 71.2466C101.622 71.2431 101.639 71.2771 101.673 71.3487C101.706 71.4203 101.727 71.4544 101.733 71.4511C101.74 71.4476 101.741 71.4469 101.736 71.4492C101.732 71.4515 101.745 71.4659 101.776 71.4924C101.808 71.5186 101.856 71.5471 101.922 71.5779C101.988 71.6088 102.003 71.6175 101.968 71.604C101.933 71.5902 101.991 71.613 102.143 71.6723C102.294 71.732 102.473 71.781 102.68 71.8195C102.888 71.858 103.101 71.8888 103.321 71.9119C103.54 71.9351 103.722 71.9574 103.866 71.9788C104.01 72 104.175 72.0094 104.362 72.0071C104.549 72.0048 104.877 72.0255 105.347 72.0691C105.858 72.1131 106.336 72.1344 106.78 72.1329C107.225 72.1313 107.623 72.1305 107.976 72.1305C108.329 72.1305 108.702 72.1451 109.094 72.1741C109.486 72.2032 109.81 72.232 110.065 72.2605C110.321 72.289 110.669 72.2955 111.11 72.28C111.551 72.2647 111.882 72.2612 112.103 72.2697C112.324 72.2783 112.672 72.2412 113.146 72.1584C113.62 72.0754 114.007 72.0183 114.308 71.9872C114.609 71.9559 114.832 71.9411 114.977 71.9429C115.122 71.9447 115.432 71.9369 115.908 71.9196C116.383 71.9023 116.753 71.8856 117.017 71.8696C117.281 71.8538 117.478 71.8409 117.607 71.831C117.736 71.8208 117.844 71.796 117.929 71.7568C118.013 71.7176 118.061 71.6788 118.07 71.6406C118.08 71.6027 118.083 71.5687 118.079 71.5387C118.075 71.5083 118.07 71.4853 118.064 71.4698C118.058 71.4543 118.054 71.4437 118.054 71.4381" stroke="#3D5330" stroke-width="4" stroke-linecap="round" stroke-linejoin="round"/>
<path d="M118.223 71.821C118.224 71.8251 118.222 71.816 118.219 71.7936C118.215 71.7711 118.235 71.7121 118.278 71.6166C118.321 71.521 118.364 71.3947 118.407 71.2375C118.449 71.0803 118.472 70.957 118.477 70.8676C118.482 70.7779 118.483 70.7075 118.481 70.6562C118.478 70.605 118.475 70.5609 118.47 70.5237C118.466 70.4867 118.459 70.4352 118.45 70.3693C118.441 70.3033 118.414 70.0533 118.368 69.6194C118.322 69.1855 118.279 68.8472 118.241 68.6044C118.203 68.3619 118.157 68.1091 118.104 67.8459C118.051 67.5827 118.005 67.255 117.964 66.8626C117.924 66.47 117.875 65.9632 117.816 65.342C117.758 64.7206 117.704 64.2233 117.655 63.8501C117.605 63.4771 117.572 63.2197 117.555 63.0777C117.538 62.9361 117.511 62.6833 117.472 62.3192C117.434 61.9552 117.399 61.6481 117.367 61.3982C117.335 61.1483 117.332 60.9399 117.359 60.773C117.385 60.6061 117.402 60.4837 117.411 60.4058C117.419 60.3275 117.421 60.2646 117.417 60.2169" stroke="#3D5330" stroke-width="4" stroke-linecap="round" stroke-linejoin="round"/>
<path d="M101.136 61.2538C101.147 61.2706 101.143 61.1875 101.124 61.0046C101.104 60.8214 101.08 60.6792 101.05 60.5781C101.02 60.4767 100.999 60.4246 100.986 60.4218C100.974 60.419 100.955 60.4479 100.931 60.5086C100.906 60.5695 100.893 60.6321 100.891 60.6966C100.889 60.761 100.88 60.8377 100.865 60.9267C100.85 61.0153 100.836 61.3442 100.823 61.9134C100.81 62.4823 100.821 63.0267 100.857 63.5467C100.892 64.0664 100.939 64.5549 100.996 65.0122C101.053 65.4698 101.101 65.9221 101.138 66.3693C101.176 66.8166 101.202 67.1617 101.217 67.4045C101.232 67.6473 101.257 68.0771 101.293 68.6939C101.328 69.311 101.362 69.7834 101.394 70.1113C101.426 70.4394 101.459 70.7191 101.493 70.9502C101.527 71.181 101.557 71.3565 101.584 71.4767C101.61 71.597 101.645 71.7081 101.689 71.81C101.734 71.9117 101.757 71.9601 101.758 71.9555C101.76 71.951 101.774 71.9331 101.8 71.9017C101.826 71.8706 101.845 71.8316 101.858 71.7847C101.87 71.7381 101.88 71.7093 101.885 71.698" stroke="#3D5330" stroke-width="4" stroke-linecap="round" stroke-linejoin="round"/>
<path d="M134.432 59.5647C134.452 59.5081 134.418 59.4527 134.332 59.3984C134.246 59.3439 134.172 59.3465 134.112 59.4061C134.052 59.4654 134.014 59.5029 133.998 59.5184" stroke="#3D5330" stroke-width="4" stroke-linecap="round" stroke-linejoin="round"/>
<path d="M134.657 59.5414C134.649 59.5414 134.636 59.5336 134.616 59.518C134.597 59.5025 134.587 59.4966 134.587 59.5004C134.587 59.5045 134.582 59.5084 134.572 59.5122C134.562 59.5161 134.557 59.5505 134.557 59.6154C134.557 59.6801 134.557 59.7011 134.557 59.6781C134.557 59.6555 134.555 59.6563 134.552 59.6805C134.549 59.7047 134.555 59.7077 134.571 59.6896C134.586 59.6715 134.609 59.8564 134.64 60.2445C134.67 60.6325 134.704 61.2785 134.741 62.1824C134.778 63.0863 134.812 63.7947 134.844 64.3075C134.877 64.8204 134.898 65.4914 134.909 66.3204C134.919 67.1494 134.929 67.824 134.938 68.3442C134.948 68.8642 134.958 69.5075 134.969 70.2741C134.98 71.0407 134.998 71.6583 135.024 72.1271C135.05 72.5959 135.064 72.9555 135.067 73.2059C135.07 73.4561 135.105 74.0519 135.172 74.9933C135.239 75.9344 135.297 76.6724 135.345 77.2072C135.393 77.7417 135.418 78.4497 135.42 79.3315C135.422 80.2135 135.418 80.8679 135.409 81.2946C135.401 81.7213 135.388 82.0367 135.372 82.2405" stroke="#3D5330" stroke-width="4" stroke-linecap="round" stroke-linejoin="round"/>
<path d="M135.431 78.5244C135.414 78.5476 135.4 78.5684 135.39 78.5867C135.381 78.6051 135.379 78.6112 135.386 78.6051C135.394 78.599 135.388 78.6107 135.37 78.6403C135.352 78.6701 135.34 78.8003 135.335 79.0308C135.329 79.2614 135.336 79.5043 135.357 79.7596C135.378 80.0151 135.39 80.1917 135.395 80.2893C135.4 80.3874 135.411 80.488 135.428 80.5912C135.446 80.6946 135.457 80.8152 135.461 80.953C135.466 81.0911 135.47 81.2314 135.475 81.3738C135.48 81.5162 135.485 81.6403 135.492 81.746C135.499 81.8518 135.505 81.9416 135.509 82.0158C135.513 82.0902 135.517 82.1677 135.52 82.2482C135.524 82.3284 135.525 82.4037 135.524 82.4741C135.522 82.5444 135.525 82.5966 135.53 82.6307C135.535 82.6651 135.537 82.701 135.536 82.7385C135.534 82.7762 135.534 82.7947 135.537 82.7939C135.539 82.7931 135.54 82.7914 135.539 82.7886C135.539 82.7858 135.533 82.8258 135.52 82.9086C135.507 82.9914 135.507 83.0698 135.52 83.1439C135.533 83.2178 135.546 83.2827 135.56 83.3385C135.573 83.3943 135.582 83.437 135.586 83.4669C135.591 83.4969 135.594 83.5185 135.596 83.5318C135.598 83.545 135.599 83.5469 135.597 83.5372C135.595 83.5275 135.598 83.5359 135.605 83.5624C135.611 83.5891 135.616 83.6133 135.619 83.635C135.622 83.6566 135.629 83.6894 135.64 83.7332C135.651 83.777 135.655 83.7946 135.651 83.7859C135.647 83.7775 135.648 83.7872 135.655 83.815C135.661 83.8427 135.662 83.8736 135.657 83.9075C135.653 83.9411 135.652 83.9574 135.654 83.9564C135.656 83.9551 135.661 83.9611 135.666 83.9743C135.672 83.9878 135.669 83.9908 135.659 83.9832C135.648 83.9753 135.649 83.9785 135.661 83.9931C135.674 84.0078 135.691 84.0235 135.715 84.0401C135.738 84.0566 135.754 84.0658 135.763 84.0676C135.771 84.0697 135.778 84.0697 135.782 84.0676C135.787 84.0656 135.785 84.0669 135.777 84.0714C135.77 84.0758 135.832 84.0918 135.963 84.1196C136.094 84.1473 136.208 84.1565 136.306 84.1471C136.404 84.1379 136.482 84.1315 136.539 84.128C136.597 84.1244 136.646 84.1234 136.688 84.1249C136.73 84.1267 136.801 84.1272 136.9 84.1265C137 84.1255 137.077 84.1256 137.132 84.1269C137.186 84.1279 137.224 84.1245 137.245 84.1169C137.266 84.1092 137.317 84.108 137.399 84.113C137.513 84.112 137.62 84.1154 137.72 84.123C137.82 84.1309 137.921 84.1411 138.023 84.1535C138.125 84.166 138.211 84.1722 138.28 84.1719C138.349 84.1717 138.398 84.1704 138.427 84.1681C138.456 84.1658 138.508 84.1659 138.581 84.1685C138.654 84.171 138.713 84.1694 138.756 84.1635C138.8 84.1577 138.834 84.1522 138.859 84.1471C138.883 84.142 138.919 84.137 138.967 84.1322C139.015 84.1273 139.066 84.1255 139.12 84.1265C139.173 84.1272 139.215 84.1284 139.245 84.1299C139.276 84.1315 139.302 84.1252 139.324 84.1112C139.345 84.0972 139.36 84.0893 139.367 84.0875C139.374 84.0857 139.377 84.0853 139.375 84.0864C139.373 84.0874 139.373 84.0886 139.373 84.0886C139.373 84.0894 139.373 84.0902 139.373 84.0909C139.373 84.0917 139.374 84.0903 139.376 84.0867C139.377 84.0832 139.385 84.0688 139.399 84.0435C139.413 84.0181 139.423 84.0006 139.429 83.9912C139.435 83.9818 139.441 83.9739 139.446 83.9675" stroke="#3D5330" stroke-width="4" stroke-linecap="round" stroke-linejoin="round"/>
<path d="M139.327 79.7725C139.298 79.7338 139.286 79.7174 139.291 79.7232C139.295 79.7288 139.296 79.7301 139.294 79.727C139.292 79.7237 139.29 79.7201 139.289 79.7163C139.287 79.7125 139.28 79.702 139.268 79.685C139.255 79.6682 139.246 79.6754 139.241 79.7067C139.236 79.738 139.234 79.752 139.236 79.7484C139.237 79.7448 139.238 79.7453 139.237 79.7499C139.236 79.7545 139.235 79.751 139.234 79.7393C139.233 79.7273 139.248 79.8949 139.278 80.2422C139.309 80.5897 139.339 81.0098 139.37 81.5025C139.401 81.9953 139.423 82.3561 139.436 82.5852C139.449 82.8142 139.456 82.9702 139.458 83.0533C139.46 83.1361 139.458 83.2329 139.451 83.3437C139.445 83.4543 139.437 83.6255 139.425 83.8573C139.413 84.0889 139.411 84.1905 139.417 84.1619C139.423 84.1337 139.425 84.1226 139.423 84.129C139.42 84.1354 139.418 84.1303 139.416 84.1138C139.414 84.0975 139.417 84.0622 139.426 84.0079C139.434 83.9536 139.441 83.9206 139.446 83.9089" stroke="#3D5330" stroke-width="4" stroke-linecap="round" stroke-linejoin="round"/>
<path d="M139.199 79.8975C139.206 79.9108 139.203 79.908 139.19 79.8891C139.177 79.8703 139.164 79.8423 139.151 79.8051C139.139 79.7679 139.128 79.7328 139.119 79.6996C139.11 79.6663 139.095 79.5975 139.074 79.4933C139.053 79.3888 139.035 79.3052 139.019 79.2426C139.002 79.1799 138.994 79.1336 138.993 79.1038C138.993 79.074 138.992 79.0532 138.992 79.0415" stroke="#3D5330" stroke-width="4" stroke-linecap="round" stroke-linejoin="round"/>
<path d="M88.3014 72.8969C88.2457 72.8479 88.2215 72.8268 88.2289 72.8334C88.2363 72.8403 88.234 72.836 88.222 72.8204C88.2101 72.8052 88.1901 72.7779 88.1621 72.7386C88.1339 72.6994 88.1254 72.6867 88.1366 72.7007C88.1478 72.7147 88.1487 72.7169 88.1392 72.7073C88.1298 72.6976 88.1218 72.6878 88.1152 72.6779C88.1084 72.6677 88.0937 72.6522 88.0714 72.6316C88.0487 72.611 88.0373 72.6006 88.037 72.6006C88.0365 72.6006 88.04 72.6036 88.0473 72.6095C88.0545 72.6151 88.0311 72.5942 87.9771 72.5468C87.9232 72.4997 87.8763 72.466 87.8364 72.4458C87.7965 72.4257 87.7564 72.4026 87.7162 72.3763C87.6758 72.3503 87.6296 72.317 87.5778 72.2762C87.5259 72.2357 87.509 72.2221 87.527 72.2354C87.5451 72.2489 87.5371 72.2428 87.503 72.2174C87.4689 72.1919 87.4366 72.173 87.4061 72.1608C87.3753 72.1486 87.3052 72.1112 87.1956 72.0485C87.086 71.9858 86.9981 71.9268 86.932 71.8715C86.8661 71.8165 86.8071 71.7737 86.755 71.7431C86.7031 71.7128 86.6588 71.6877 86.6219 71.6678C86.5853 71.6479 86.5793 71.6439 86.604 71.6556C86.6286 71.6673 86.5708 71.6492 86.4304 71.6013C86.2903 71.5531 86.1597 71.5079 86.0387 71.4656C85.9179 71.4231 85.7573 71.3776 85.5569 71.3292C85.3565 71.2808 85.1221 71.2453 84.8535 71.2226C84.585 71.2002 84.3935 71.1796 84.2791 71.1607C84.1649 71.1419 83.9692 71.1253 83.692 71.111C83.4148 71.0967 83.1903 71.0884 83.0184 71.0858C82.8465 71.0835 82.7079 71.0848 82.6026 71.0896C82.4971 71.0945 82.4119 71.1016 82.347 71.111C82.2819 71.1204 82.2295 71.1309 82.1895 71.1424C82.1493 71.1536 82.1247 71.1617 82.1155 71.1668C82.1064 71.1719 82.1066 71.1697 82.1163 71.1603C82.1262 71.1508 82.0661 71.1765 81.9359 71.2372C81.8059 71.2978 81.6292 71.3604 81.4057 71.4252C81.1821 71.4901 80.998 71.5387 80.8533 71.5708C80.7086 71.6029 80.5721 71.6429 80.4437 71.6908C80.315 71.7387 80.2 71.8018 80.0988 71.8803C79.9976 71.9587 79.8831 72.0403 79.7552 72.1249C79.6272 72.2097 79.5278 72.2824 79.4569 72.3427C79.3857 72.4029 79.3357 72.4469 79.307 72.475C79.2782 72.5027 79.2591 72.5191 79.2497 72.5242C79.2403 72.5291 79.2285 72.5368 79.2143 72.5475C79.2003 72.558 79.1362 72.6066 79.022 72.6932C78.9081 72.7798 78.7911 72.8644 78.6711 72.9472C78.5511 73.03 78.4564 73.1005 78.3869 73.1586C78.3173 73.2164 78.2628 73.2599 78.2237 73.2889C78.1842 73.3182 78.162 73.35 78.1569 73.3844C78.1518 73.4188 78.1231 73.4828 78.0707 73.5763C78.0186 73.6695 77.9497 73.7677 77.864 73.8709C77.7783 73.9738 77.6996 74.0791 77.6278 74.1866C77.5564 74.2936 77.5023 74.3717 77.4657 74.4209C77.4289 74.4698 77.392 74.5182 77.3551 74.5661C77.318 74.614 77.2478 74.7294 77.1446 74.9123C77.0413 75.0952 76.9578 75.2509 76.894 75.3793C76.8304 75.5074 76.777 75.6341 76.7337 75.7592C76.6905 75.884 76.6745 75.9405 76.6857 75.9288C76.6969 75.9173 76.6631 76.0139 76.5842 76.2185C76.5054 76.4228 76.4119 76.6368 76.3039 76.8605C76.1958 77.0842 76.1157 77.2758 76.0636 77.4353C76.0114 77.5948 75.9787 77.8297 75.9655 78.14C75.952 78.4508 75.94 78.6927 75.9293 78.8657C75.9184 79.0392 75.9238 79.1557 75.9457 79.2154C75.9676 79.275 76.0071 79.5428 76.0643 80.0187C76.1213 80.4946 76.1734 80.8765 76.2207 81.1644C76.2683 81.452 76.3176 81.6909 76.3687 81.8809C76.4198 82.0707 76.4767 82.2333 76.5392 82.3689C76.6018 82.5047 76.6707 82.6308 76.746 82.7472C76.8212 82.8636 76.9107 83.0004 77.0145 83.1576C77.1185 83.3146 77.2661 83.5203 77.4573 83.7748C77.6486 84.0296 77.8017 84.2273 77.9166 84.3679C78.0313 84.5085 78.1694 84.6321 78.3308 84.7386C78.4923 84.8451 78.6126 84.9373 78.6917 85.0153C78.8145 85.1012 78.9578 85.2196 79.1216 85.3707C79.2856 85.5215 79.4199 85.6411 79.5244 85.7295C79.6292 85.8177 79.711 85.878 79.77 85.9103C79.8288 85.9427 79.9339 85.9969 80.0855 86.0731C80.2371 86.149 80.375 86.2032 80.4993 86.2356C80.6234 86.2677 80.8396 86.3294 81.1478 86.4208C81.456 86.5123 81.7 86.5862 81.8798 86.6425C82.0596 86.6986 82.2004 86.7351 82.3024 86.7522C82.4046 86.7692 82.4661 86.7811 82.4867 86.7877C82.5073 86.7946 82.5347 86.7987 82.5691 86.7999C82.6036 86.8015 82.6308 86.8061 82.6507 86.8137C82.6703 86.8214 82.7281 86.8332 82.8242 86.8493C82.9201 86.8653 83.0026 86.8772 83.0718 86.8848C83.1407 86.8925 83.2067 86.9074 83.2698 86.9295C83.3328 86.9514 83.5282 86.9833 83.856 87.0251C84.1838 87.0668 84.433 87.0857 84.6037 87.0816C84.774 87.0775 84.8909 87.0718 84.9542 87.0644C85.0175 87.057 85.1704 87.0509 85.4127 87.046C85.6551 87.0412 85.9671 86.9811 86.3488 86.8657C86.7305 86.7503 87.02 86.655 87.2173 86.5798C87.4144 86.5044 87.6624 86.3991 87.9615 86.2638C88.2605 86.1288 88.4978 86.0112 88.6733 85.9111C88.8487 85.8112 88.9815 85.7231 89.0715 85.6467C89.1618 85.5702 89.2922 85.4578 89.4629 85.3096C89.6338 85.1613 89.8229 85.0124 90.0304 84.8628C90.2379 84.713 90.4349 84.5279 90.6213 84.3075C90.8074 84.0874 90.9693 83.8357 91.1069 83.5524C91.2447 83.2691 91.3523 83.0536 91.4296 82.9058C91.5069 82.7583 91.5623 82.6409 91.5959 82.5535C91.6297 82.4661 91.6694 82.3884 91.7149 82.3203C91.7602 82.2521 91.8123 82.1042 91.8713 81.8767C91.93 81.6492 91.9641 81.4559 91.9735 81.297C91.9829 81.1382 91.9907 80.9128 91.9968 80.6205C92.0029 80.3286 91.9747 79.9947 91.9121 79.6189C91.8496 79.2428 91.76 78.8444 91.6436 78.4235C91.5268 78.0024 91.424 77.6678 91.335 77.4196C91.246 77.1715 91.173 76.9851 91.116 76.8605C91.0591 76.7362 91.015 76.6493 90.9837 76.5999C90.9521 76.5507 90.846 76.3616 90.6652 76.0327C90.4841 75.7041 90.3491 75.4531 90.2601 75.2799C90.1713 75.1064 90.0963 74.9826 90.035 74.9085C89.9735 74.8343 89.9257 74.7827 89.8916 74.7537C89.8575 74.7246 89.8392 74.7083 89.8367 74.7044C89.8344 74.7006 89.8283 74.6955 89.8184 74.6891C89.8087 74.6825 89.7931 74.6668 89.7714 74.6421C89.7501 74.6171 89.7403 74.606 89.7421 74.6085C89.7439 74.6113 89.7362 74.6005 89.7192 74.5761C89.7022 74.5516 89.6224 74.4607 89.48 74.3035C89.3376 74.1463 89.195 73.98 89.052 73.8045C88.9094 73.6289 88.7965 73.4759 88.7133 73.3454C88.6304 73.2147 88.2787 72.9223 87.6583 72.468" stroke="#3D5330" stroke-width="4" stroke-linecap="round" stroke-linejoin="round"/>
<path d="M79.5383 90.1137C79.5198 90.1198 79.4641 90.1086 79.3712 90.0804C79.2784 90.0518 79.2098 90.0309 79.1653 90.0174C79.1208 90.0036 79.0856 89.9986 79.0596 90.0024C79.0337 90.006 79.0131 90.0121 78.9978 90.0207C78.9823 90.0297 78.9836 90.0266 79.0016 90.0116C79.0199 89.9968 79.0287 89.9907 79.028 89.9932C79.0272 89.996 79.0329 89.998 79.0451 89.999C79.0576 89.9998 79.0586 89.999 79.0482 89.9967C79.038 89.9946 79.0874 89.9951 79.1965 89.9979C79.3056 90.0007 79.4876 90.0214 79.7424 90.0601C79.9975 90.0988 80.2432 90.1418 80.4797 90.189C80.7165 90.2358 80.9418 90.2991 81.1556 90.3788C81.3698 90.4588 81.501 90.5177 81.5493 90.5554C81.5979 90.5931 81.7656 90.6405 82.0524 90.6975C82.4725 90.7513 82.7544 90.7917 82.8981 90.8187C83.0423 90.8294 83.1713 90.8182 83.2852 90.785C83.4561 90.7629 83.8039 90.7264 84.3285 90.6754C84.8531 90.6245 85.2621 90.5873 85.5556 90.5638C85.8488 90.5401 86.053 90.5217 86.1682 90.5084C86.2831 90.4954 86.3667 90.4866 86.4188 90.482C86.4709 90.4779 86.5981 90.4415 86.8002 90.3728C87.0021 90.3042 87.2707 90.2102 87.6058 90.0907C87.9407 89.9715 88.1994 89.8922 88.3817 89.853C88.564 89.8135 88.7414 89.7314 88.9138 89.6069C89.0862 89.4825 89.214 89.3813 89.2972 89.3031C89.3801 89.2251 89.4416 89.1646 89.4818 89.1215C89.522 89.0782 89.5633 89.0376 89.6057 88.9997C89.6482 88.9617 89.6682 88.9423 89.6656 88.9415C89.6628 88.9405 89.6589 88.9414 89.6538 88.9442C89.649 88.9468 89.6598 88.9416 89.6862 88.9286C89.7129 88.9156 89.7404 88.8976 89.7686 88.8746C89.7968 88.8517 89.8137 88.8426 89.8193 88.8472C89.8249 88.8518 89.8286 88.8516 89.8304 88.8467C89.8319 88.8419 89.8199 88.832 89.7942 88.817C89.7685 88.802 89.7314 88.7875 89.6828 88.7738C89.634 88.7603 89.6036 88.7537 89.5916 88.7539" stroke="#3D5330" stroke-width="4" stroke-linecap="round" stroke-linejoin="round"/>
<path d="M80.3322 90.1997C80.332 90.1961 80.3213 90.1803 80.3002 90.1523C80.2788 90.1242 80.2652 90.1094 80.2594 90.1076C80.2535 90.106 80.2517 90.1095 80.254 90.1179C80.2563 90.1263 80.2466 90.1092 80.225 90.0667C80.2034 90.0244 80.1508 89.9845 80.0671 89.9471C79.9834 89.9096 79.9143 89.8881 79.8596 89.8825C79.8049 89.8769 79.7627 89.8725 79.733 89.8695C79.703 89.8667 79.6766 89.8598 79.654 89.8489C79.6314 89.8379 79.6005 89.8276 79.5613 89.8179C79.5219 89.8085 79.4941 89.7995 79.4778 89.7908C79.4615 89.7822 79.4315 89.7717 79.3878 89.7595C79.3438 89.7475 79.3003 89.7269 79.2573 89.6979C79.2143 89.6691 79.1674 89.6342 79.1166 89.5932C79.0659 89.5525 79.0224 89.5125 78.9857 89.4732C78.9491 89.4343 78.9342 89.4162 78.9411 89.4193C78.948 89.4226 78.9462 89.4267 78.9358 89.4315C78.9256 89.4361 78.9314 89.4237 78.9533 89.3941C78.9864 89.3663 79.009 89.3554 79.0212 89.3613" stroke="#3D5330" stroke-width="4" stroke-linecap="round" stroke-linejoin="round"/>
<path d="M88.9871 89.6562C88.9439 89.5551 88.9267 89.5117 88.9356 89.5262C88.9443 89.5408 88.9501 89.5302 88.9532 89.4945C88.9562 89.4589 88.9604 89.4417 88.9658 89.4429C88.9711 89.4439 88.9799 89.4241 88.9921 89.3833C89.0045 89.3428 89.0096 89.3215 89.0073 89.3195C89.0053 89.3177 89.0001 89.3039 88.9917 89.2779C88.9833 89.2521 89.0686 89.2348 89.2476 89.2259C89.4264 89.217 89.5693 89.2235 89.6764 89.2454C89.7835 89.2671 89.8558 89.2865 89.8934 89.3038C89.9308 89.3211 89.9654 89.3331 89.9972 89.3397C90.029 89.3466 90.0555 89.3515 90.0769 89.3543C90.0983 89.3571 90.111 89.3595 90.115 89.3616C90.1194 89.3636 90.1968 89.3635 90.3473 89.3612C90.5048 89.3543 90.5723 89.3658 90.5499 89.3959C90.5802 89.4081 90.6141 89.4187 90.6517 89.4276C90.6894 89.4368 90.7274 89.4435 90.7658 89.4479C90.8039 89.4525 90.853 89.46 90.913 89.4704C90.9728 89.4809 91.0333 89.4929 91.0946 89.5064C91.1559 89.5199 91.1846 89.5265 91.1808 89.5262C91.1767 89.526 91.176 89.5271 91.1785 89.5297C91.1811 89.5322 91.1767 89.5314 91.1655 89.5274C91.1541 89.5233 91.2445 89.5543 91.4367 89.6203C91.629 89.6863 91.7793 89.7474 91.8876 89.8037C91.9959 89.8598 92.0761 89.9019 92.1279 89.9302C92.1798 89.9585 92.2253 89.9834 92.2645 90.0051C92.4003 90.069 92.5042 90.1226 92.5761 90.1656C92.6478 90.21 92.6786 90.2291 92.6684 90.2233C92.6583 90.2182 92.6921 90.2376 92.7699 90.2814C92.8472 90.3255 92.9012 90.3587 92.932 90.3811C92.9625 90.4041 92.977 90.4201 92.9755 90.4293C92.9948 90.4474 93.0215 90.4645 93.0556 90.4805C93.0897 90.4966 93.2013 90.5819 93.3905 90.7365C93.5794 90.8914 93.7496 91.0376 93.9009 91.1752C94.0522 91.3128 94.1988 91.4562 94.3407 91.6055C94.4826 91.7551 94.6103 91.8831 94.724 91.9896C94.8377 92.0959 94.9173 92.1694 94.9628 92.2105C95.0081 92.2517 95.0499 92.2897 95.0883 92.3244C95.1264 92.359 95.1674 92.3992 95.2111 92.4451C95.2551 92.4907 95.3893 92.6612 95.6135 92.9565C95.8378 93.2515 96.019 93.4799 96.1571 93.6417C96.2954 93.8034 96.3825 93.9261 96.4184 94.0096C96.454 94.0932 96.5135 94.2058 96.5969 94.3475C96.6806 94.4889 96.7721 94.6588 96.8715 94.8573C96.971 95.0555 97.0443 95.2064 97.0916 95.3101C97.1389 95.4136 97.1842 95.5079 97.2274 95.5933C97.2709 95.6789 97.3136 95.7571 97.3556 95.8279C97.3976 95.899 97.432 95.9551 97.459 95.9961C97.4862 96.0373 97.515 96.0774 97.5456 96.1161C97.5763 96.1546 97.6648 96.301 97.811 96.5552C97.9573 96.8092 98.0779 97.0195 98.173 97.1861C98.2679 97.353 98.389 97.5838 98.5365 97.8786C98.6838 98.1736 98.8089 98.4306 98.9119 98.6494C99.0149 98.868 99.0941 99.0573 99.1495 99.2173C99.205 99.3773 99.2615 99.5385 99.3192 99.7011C99.3772 99.8636 99.4183 99.984 99.4425 100.062C99.4669 100.14 99.4965 100.223 99.5313 100.309C99.5662 100.395 99.5878 100.466 99.5962 100.522C99.6046 100.578 99.6037 100.603 99.5935 100.598C99.5833 100.592 99.5681 100.583 99.5477 100.571" stroke="#3D5330" stroke-width="4" stroke-linecap="round" stroke-linejoin="round"/>
<path d="M79.1689 89.8003C79.1887 89.7898 79.1713 89.752 79.1166 89.6867C79.0617 89.6215 79.0189 89.5723 78.9884 89.5392C78.9579 89.5064 78.9338 89.4825 78.916 89.4678C78.8982 89.453 78.8657 89.4405 78.8187 89.4303C78.7714 89.4199 78.7088 89.4459 78.631 89.5083C78.6254 89.5641 78.5284 89.6152 78.34 89.6615C78.2235 89.7015 78.1218 89.7371 78.0348 89.7682C77.9476 89.7993 77.8858 89.8232 77.8495 89.84C77.8131 89.8568 77.7774 89.8754 77.7423 89.8958C77.7074 89.9162 77.6802 89.9336 77.6606 89.9482C77.6413 89.9627 77.62 89.9763 77.5966 89.989C77.5729 90.002 77.5587 90.0112 77.5538 90.0165C77.5493 90.0219 77.5227 90.0419 77.4741 90.0765C77.4256 90.1114 77.3847 90.1425 77.3517 90.1695C77.3186 90.1967 77.2741 90.2298 77.2182 90.2688C77.1625 90.3081 77.1349 90.3267 77.1354 90.3246C77.1359 90.3228 77.1122 90.3344 77.0644 90.3593C77.0164 90.3845 76.9941 90.3978 76.9977 90.3991C77.0013 90.4006 76.9448 90.4368 76.8283 90.5077C76.7121 90.5788 76.621 90.6364 76.5548 90.6807C76.489 90.7251 76.4374 90.7623 76.4 90.7923C76.3628 90.8224 76.3079 90.8589 76.2352 90.9017C76.1627 90.9445 76 91.0461 75.747 91.2066C75.4939 91.3673 75.2511 91.5711 75.0184 91.8177C74.7855 92.0646 74.6099 92.2719 74.4916 92.4398C74.3736 92.608 74.2508 92.8147 74.1231 93.0601C73.9957 93.3057 73.864 93.5455 73.728 93.7797C73.5922 94.0141 73.443 94.2265 73.2806 94.4171C73.1181 94.6074 72.9535 94.7982 72.787 94.9896C72.6207 95.1809 72.4771 95.3876 72.3563 95.6097C72.2358 95.8319 72.1174 96.0958 72.0012 96.4016C71.885 96.7073 71.762 97.2576 71.6324 98.0525C71.5029 98.8476 71.4053 99.4564 71.3394 99.8788C71.2733 100.301 71.2238 100.635 71.191 100.88C71.1579 101.124 71.1302 101.37 71.1079 101.615C71.0855 101.86 71.0953 101.972 71.1372 101.951C71.1789 101.93 71.2171 101.854 71.2517 101.722C71.2865 101.59 71.3105 101.504 71.3238 101.463" stroke="#3D5330" stroke-width="4" stroke-linecap="round" stroke-linejoin="round"/>
<path d="M71.2568 101.143C71.2182 101.17 71.1986 101.183 71.198 101.182C71.1975 101.182 71.1983 101.174 71.2004 101.16C71.2021 101.146 71.1962 101.167 71.1824 101.221C71.1684 101.275 71.168 101.32 71.1813 101.356C71.1945 101.392 71.2104 101.424 71.2289 101.45C71.2475 101.477 71.2703 101.506 71.2972 101.54C71.3244 101.573 71.335 101.585 71.3289 101.574C71.3228 101.563 71.3293 101.572 71.3484 101.599C71.3677 101.627 71.4195 101.683 71.504 101.77C71.5884 101.856 71.6661 101.919 71.737 101.96C71.8082 102.001 71.8876 102.035 71.9751 102.061C72.0625 102.087 72.1587 102.111 72.2634 102.134C72.3679 102.157 72.46 102.177 72.5396 102.193C72.6194 102.211 72.7698 102.226 72.9908 102.241C73.2118 102.256 73.4681 102.255 73.7598 102.239C74.0515 102.222 74.4017 102.23 74.8103 102.26C75.219 102.291 75.6189 102.306 76.01 102.306C76.4011 102.306 76.7315 102.315 77.0013 102.333C77.2711 102.351 77.6307 102.37 78.08 102.39C78.5294 102.41 78.913 102.412 79.2308 102.396C79.549 102.38 79.7884 102.364 79.9491 102.348C80.1098 102.331 80.3917 102.319 80.7947 102.312C81.1978 102.304 81.625 102.311 82.0764 102.332C82.528 102.354 82.8795 102.373 83.1307 102.391C83.382 102.408 83.7784 102.401 84.32 102.37C84.8617 102.338 85.2955 102.319 85.6215 102.312C85.9475 102.304 86.2826 102.275 86.6266 102.224C86.9707 102.174 87.3641 102.114 87.8068 102.047C88.2495 101.979 88.661 101.932 89.0412 101.906C89.4211 101.88 89.8266 101.874 90.2576 101.886C90.6884 101.897 91.0092 101.899 91.22 101.89C91.431 101.881 91.9425 101.894 92.7545 101.929C93.5665 101.963 94.2047 101.983 94.6693 101.989C95.1342 101.995 95.4695 101.998 95.6752 101.999C95.8812 101.999 96.0424 101.996 96.1589 101.988C96.2756 101.979 96.366 101.973 96.4301 101.968C96.4942 101.964 96.5443 101.96 96.5804 101.956C96.6165 101.953 96.7955 101.941 97.1174 101.921C97.4396 101.902 97.7257 101.87 97.9757 101.826C98.2259 101.782 98.4751 101.728 98.7233 101.665C98.9715 101.602 99.144 101.564 99.2409 101.551C99.3375 101.538 99.3879 101.522 99.392 101.504C99.3958 101.486 99.3991 101.473 99.4019 101.466C99.4047 101.459 99.4084 101.441 99.4129 101.414C99.4175 101.386 99.421 101.367 99.4233 101.356C99.4258 101.345 99.4374 101.332 99.458 101.318C99.4783 101.303 99.4848 101.299 99.4774 101.304C99.47 101.309 99.4721 101.302 99.4835 101.281" stroke="#3D5330" stroke-width="4" stroke-linecap="round" stroke-linejoin="round"/>
<path d="M22.7864 40.6859C22.7187 40.6245 22.6877 40.5949 22.6933 40.5969C22.6989 40.5989 22.6951 40.5912 22.6818 40.5736C22.6689 40.5563 22.6632 40.5515 22.6647 40.5594C22.6662 40.567 22.6526 40.5096 22.6239 40.3871C22.5951 40.2648 22.5338 40.0888 22.44 39.8593C22.3462 39.63 22.2392 39.4484 22.1192 39.3144C21.9994 39.1804 21.9169 39.0927 21.8717 39.0514C21.8264 39.0104 21.79 38.9789 21.7626 38.9567C21.7354 38.9348 21.6915 38.9046 21.631 38.8661C21.5702 38.8279 21.5272 38.8014 21.502 38.7866C21.4769 38.7718 21.4338 38.7404 21.3727 38.6922C21.3115 38.6441 21.2195 38.5712 21.0969 38.4736C20.9746 38.3758 20.877 38.2976 20.804 38.239C20.7313 38.1806 20.6683 38.1341 20.6152 38.0995C20.562 38.0646 20.5346 38.0488 20.5328 38.0521C20.5308 38.0554 20.4803 38.0285 20.3814 37.9715C20.2825 37.9147 20.1834 37.8598 20.0842 37.8068C19.9853 37.7536 19.9015 37.7092 19.8328 37.6738C19.7642 37.6386 19.7141 37.6113 19.6826 37.5917C19.651 37.572 19.6332 37.5625 19.6292 37.563C19.6251 37.5633 19.6284 37.5676 19.6391 37.576C19.6495 37.5844 19.53 37.5031 19.2805 37.3322C19.0308 37.161 18.7831 37.026 18.5375 36.9275C18.2918 36.8291 18.0672 36.7475 17.8635 36.6828C17.6598 36.6179 17.5034 36.5744 17.3943 36.5522C17.2852 36.53 17.164 36.5044 17.0308 36.4753C16.8973 36.4463 16.623 36.4193 16.208 36.3943C15.7933 36.3696 15.3758 36.3888 14.9557 36.452C14.5359 36.5154 14.2124 36.573 13.9853 36.6244C13.7583 36.6759 13.4625 36.8156 13.0981 37.0436C12.7337 37.2716 12.4443 37.4496 12.2299 37.5775C12.0156 37.7056 11.8696 37.8173 11.7921 37.9126C11.7142 38.0079 11.5851 38.1423 11.4045 38.3158C11.2242 38.4891 11.0284 38.6827 10.8171 38.8967C10.6058 39.1105 10.4256 39.4471 10.2766 39.9067C10.1276 40.366 10.0125 40.7914 9.93137 41.1827C9.85 41.5736 9.79368 41.858 9.7624 42.036C9.73137 42.2139 9.70086 42.4884 9.67086 42.8596C9.6411 43.2308 9.6378 43.5823 9.66094 43.914C9.68382 44.2454 9.71663 44.491 9.75935 44.6508C9.80182 44.8108 9.83386 44.9356 9.85548 45.0253C9.87709 45.1149 9.90251 45.1992 9.93176 45.2779C9.961 45.3564 9.98796 45.4373 10.0126 45.5206C10.0373 45.6039 10.0626 45.6863 10.0885 45.7678C10.1142 45.8491 10.1726 45.9934 10.2636 46.2007C10.3544 46.4081 10.4267 46.5682 10.4807 46.6808C10.5348 46.7936 10.578 46.8886 10.6103 46.9655C10.6426 47.0425 10.6596 47.0852 10.6611 47.0939C10.6629 47.1026 10.6864 47.1425 10.7316 47.2139C10.7769 47.285 10.8119 47.3464 10.8365 47.3984C10.8615 47.4504 10.8671 47.4632 10.8533 47.4367C10.8396 47.4102 10.8944 47.4898 11.0177 47.6755C11.1411 47.8615 11.2958 48.0515 11.4819 48.2457C11.6683 48.4401 11.8345 48.6017 11.9805 48.7306C12.1264 48.8598 12.2695 48.9687 12.4096 49.0574C12.5495 49.146 12.6583 49.2083 12.7361 49.2442C12.8137 49.2799 12.8898 49.3162 12.9646 49.3531C13.0394 49.3901 13.1535 49.4242 13.3071 49.4556C13.4607 49.4869 13.7537 49.5601 14.186 49.6753C14.6185 49.7904 15.0997 49.8791 15.6294 49.9413C16.1593 50.0037 16.599 50.0238 16.9484 50.0017C17.298 49.9795 17.5781 49.959 17.7887 49.9402C17.9995 49.9213 18.3223 49.8525 18.7572 49.7338C19.1923 49.6148 19.5482 49.4938 19.8248 49.3708C20.1015 49.2475 20.3507 49.1274 20.5725 49.0107C20.7942 48.894 21.0568 48.7775 21.3601 48.661C21.6633 48.5444 21.9284 48.3983 22.1554 48.2227C22.3825 48.0469 22.5811 47.8174 22.7513 47.5341C22.9214 47.251 23.0445 47.0183 23.1205 46.8359C23.1965 46.6532 23.2525 46.5111 23.2883 46.4094C23.3242 46.3075 23.3951 46.1413 23.5012 45.9108C23.6072 45.6799 23.6829 45.2943 23.7281 44.7539C23.7731 44.2138 23.7812 43.7788 23.7522 43.4489C23.7229 43.1187 23.681 42.8675 23.6263 42.6953C23.5719 42.5231 23.5381 42.4188 23.5248 42.3827C23.5116 42.3462 23.4983 42.3061 23.4848 42.2623C23.471 42.2185 23.449 42.1626 23.4188 42.0945C23.3885 42.0263 23.3697 41.9825 23.3623 41.9631C23.355 41.9435 23.3365 41.8991 23.307 41.83C23.2775 41.7613 23.2304 41.6694 23.1655 41.5545C23.1007 41.4396 23.0454 41.3382 22.9996 41.25C22.9541 41.1619 22.8604 40.9576 22.7185 40.6374C22.5766 40.3174 22.4605 40.063 22.3702 39.8742C22.2802 39.6857 22.1734 39.5513 22.0498 39.4711C21.9262 39.3906 21.8228 39.3235 21.7397 39.27C21.6568 39.2165 21.6052 39.1812 21.5848 39.1638" stroke="#3D5330" stroke-width="4" stroke-linecap="round" stroke-linejoin="round"/>
<path d="M58.0644 39.0331C58.0644 39.0217 58.0644 38.9866 58.0644 38.928C58.0644 38.8694 58.0643 38.8415 58.0641 38.8443C58.0635 38.8474 58.0625 38.8465 58.061 38.8417C58.0597 38.8368 58.0563 38.8228 58.0507 38.7996C58.0451 38.7767 58.0471 38.7693 58.0568 38.7775C58.0662 38.7857 58.0572 38.7515 58.0297 38.6751C58.0023 38.5984 57.962 38.5393 57.9088 38.4981C57.8557 38.4568 57.802 38.3872 57.7478 38.2891C57.6937 38.1912 57.6463 38.1355 57.6056 38.1217C57.5646 38.1082 57.5026 38.0771 57.4194 38.0284C57.3363 37.9797 57.2695 37.9444 57.2192 37.9222C57.1688 37.9001 57.1326 37.878 57.1104 37.8561C57.0883 37.8344 57.0531 37.7957 57.0048 37.7399C56.9562 37.6841 56.9234 37.6551 56.9064 37.6528C56.8891 37.6502 56.8879 37.6541 56.9029 37.6643C56.9179 37.6744 56.8311 37.6611 56.6424 37.6241C56.454 37.5872 56.2822 37.5249 56.1271 37.4373C55.9717 37.3496 55.8565 37.2926 55.7815 37.2661C55.7065 37.2396 55.653 37.2272 55.6209 37.229C55.5889 37.2308 55.5627 37.228 55.5423 37.2206C55.522 37.2132 55.4917 37.2006 55.4516 37.1827C55.4114 37.1649 55.3549 37.1478 55.2822 37.1315C55.2095 37.1152 55.1506 37.1013 55.1056 37.0895C55.0606 37.0778 55.0285 37.0675 55.0095 37.0586C54.9906 37.0494 54.984 37.0466 54.9896 37.0502C54.9955 37.0535 55.0013 37.0586 55.0072 37.0655C55.013 37.0723 54.9525 37.0436 54.8256 36.9794C54.6987 36.915 54.509 36.8406 54.2565 36.7563C54.0037 36.6719 53.8013 36.6183 53.6492 36.5953C53.4972 36.5724 53.3816 36.555 53.3025 36.543C53.2234 36.5313 53.1722 36.5242 53.1488 36.5216C53.1254 36.5191 53.096 36.518 53.0607 36.5185C53.0256 36.5193 53.0108 36.5209 53.0164 36.5235C53.0218 36.526 53.0021 36.5205 52.9573 36.5067C52.9125 36.4929 52.7946 36.5046 52.6033 36.5415C52.4121 36.5787 52.2599 36.6136 52.1467 36.6462C52.0333 36.6788 51.9399 36.7075 51.8664 36.7322C51.7926 36.7572 51.7125 36.7834 51.6261 36.8109C51.5394 36.8385 51.4106 36.8881 51.2397 36.9599C51.0688 37.0315 50.9316 37.0938 50.8281 37.1468C50.7243 37.1996 50.5842 37.2524 50.4077 37.3054C50.231 37.3582 50.1064 37.3914 50.0339 37.4052C49.9615 37.4189 49.8905 37.4293 49.8211 37.4361C49.7517 37.4433 49.6839 37.4434 49.6178 37.4365C49.5519 37.4296 49.4844 37.4536 49.4152 37.5084C49.3461 37.5634 49.2779 37.6026 49.2108 37.626C49.1436 37.6494 49.0933 37.6769 49.0597 37.7082C49.0264 37.7393 49.0011 37.7616 48.9838 37.7751C48.9663 37.7886 48.9288 37.7922 48.8713 37.7858C48.8138 37.7795 48.7656 37.777 48.7267 37.7785C48.6878 37.7803 48.6396 37.7961 48.5822 37.8259C48.5249 37.856 48.4965 37.8723 48.4967 37.8748C48.497 37.8771 48.486 37.8826 48.4639 37.8913C48.4418 37.8997 48.3998 37.9148 48.338 37.9367C48.2762 37.9583 48.2192 37.9979 48.1668 38.0552C48.1146 38.1125 48.0698 38.1529 48.0321 38.1764C47.9945 38.1998 47.9219 38.3119 47.8143 38.5126C47.7068 38.7134 47.6287 38.8764 47.5801 39.0018C47.5315 39.1269 47.4952 39.2186 47.471 39.2769C47.4469 39.3355 47.3848 39.5355 47.2849 39.8769C47.1847 40.2181 47.0851 40.5163 46.9862 40.7716C46.8873 41.0266 46.8179 41.2163 46.7779 41.3406C46.738 41.4652 46.7135 41.5437 46.7043 41.576C46.6949 41.6084 46.6851 41.6446 46.6749 41.6849C46.6645 41.7249 46.6587 41.7536 46.6574 41.7709C46.6559 41.788 46.6349 41.8573 46.5945 41.9788C46.554 42.1003 46.5177 42.2796 46.4854 42.5168C46.4531 42.7538 46.4307 43.0528 46.4182 43.4141C46.4055 43.7754 46.3992 44.0575 46.3992 44.2606C46.3992 44.4636 46.4017 44.6591 46.4068 44.8472C46.4116 45.0349 46.4215 45.2053 46.4365 45.3582C46.4516 45.5108 46.5014 45.7007 46.5861 45.9279C46.6705 46.1549 46.7809 46.3771 46.9172 46.5944C47.0532 46.8117 47.1689 47.0075 47.2643 47.1818C47.3594 47.356 47.5267 47.5488 47.7663 47.76C48.0056 47.9712 48.1951 48.1253 48.335 48.2224C48.4746 48.3197 48.6086 48.3985 48.737 48.4586C48.8652 48.5187 48.9771 48.5694 49.0727 48.6107C49.1681 48.6519 49.2461 48.6805 49.3069 48.6966C49.3674 48.7126 49.416 48.7284 49.4526 48.744C49.4892 48.7595 49.5445 48.7822 49.6185 48.812C49.6925 48.8421 49.7391 48.8604 49.7581 48.867C49.777 48.8737 49.8032 48.8835 49.8367 48.8965C49.87 48.9095 49.9245 48.9329 50 48.9668C50.0753 49.0004 50.1308 49.0256 50.1667 49.0425C50.2025 49.059 50.244 49.0779 50.291 49.0991C50.3383 49.1202 50.3846 49.1429 50.4299 49.1671C50.4751 49.1913 50.5057 49.2093 50.5214 49.2213C50.5372 49.2335 50.5538 49.2397 50.5714 49.2397C50.5889 49.2397 50.5828 49.2381 50.5531 49.2347C50.5236 49.2314 50.5978 49.261 50.7758 49.3234C50.9541 49.3858 51.1021 49.4227 51.2198 49.4342C51.3376 49.4454 51.4429 49.4583 51.5357 49.4731C51.6282 49.4879 51.7186 49.5029 51.8069 49.5179C51.8949 49.5329 51.9439 49.5375 51.9541 49.5316C51.964 49.526 51.989 49.539 52.0289 49.5706C52.0688 49.6025 52.2187 49.6315 52.4786 49.6578C52.7385 49.684 53.0748 49.6448 53.4875 49.5404C53.9002 49.4359 54.318 49.3752 54.7409 49.3582C55.1641 49.3411 55.4519 49.3351 55.6045 49.3402C55.7573 49.3453 55.9818 49.3138 56.2778 49.2458C56.5735 49.178 56.9405 49.0536 57.3786 48.8725C57.8165 48.6916 58.1406 48.5319 58.3509 48.3936C58.5612 48.2555 58.7298 48.1309 58.8567 48.0198C58.9836 47.9087 59.0585 47.822 59.0814 47.7596C59.1042 47.6969 59.1274 47.6488 59.1508 47.6152C59.1742 47.5818 59.2096 47.5308 59.2572 47.4622C59.305 47.3937 59.3997 47.2485 59.5414 47.0266C59.683 46.8045 59.7766 46.6469 59.8221 46.5539C59.8674 46.4606 59.9157 46.383 59.9671 46.3208C60.0184 46.2587 60.0775 46.1536 60.1444 46.0058C60.2111 45.8578 60.2336 45.6022 60.2119 45.2389C60.1903 44.8756 60.1663 44.5874 60.1399 44.3741C60.1134 44.1609 60.0763 43.9415 60.0285 43.716C59.9807 43.4905 59.9484 43.2703 59.9316 43.0553C59.9148 42.8402 59.8829 42.6493 59.8359 42.4824C59.7886 42.3155 59.7525 42.1987 59.7275 42.132C59.7026 42.065 59.6814 41.9979 59.6638 41.9306C59.6463 41.8634 59.6183 41.7785 59.5799 41.6761C59.5415 41.5734 59.5241 41.5152 59.5277 41.5015C59.531 41.4874 59.5016 41.4002 59.4395 41.2397C59.3775 41.0794 59.3031 40.9404 59.2164 40.8227C59.1297 40.705 59.062 40.6219 59.0135 40.5732C58.9649 40.5243 58.8727 40.4168 58.7369 40.2507C58.6011 40.0843 58.4997 39.9506 58.4325 39.8494C58.3654 39.7483 58.3056 39.6744 58.2533 39.6277C58.2009 39.5809 58.1621 39.5118 58.1369 39.4206C58.1117 39.3297 58.0857 39.308 58.0587 39.3557C58.0315 39.4033 58.0005 39.4033 57.9656 39.3557C57.9311 39.308 57.9116 39.2864 57.9073 39.2907C57.903 39.2951 57.9008 39.2994 57.9008 39.3037C57.9008 39.308 57.8918 39.2939 57.8737 39.2613C57.8559 39.2286 57.8502 39.2142 57.8565 39.2181C57.8629 39.2219 57.869 39.2201 57.8749 39.2127C57.8805 39.2056 57.8883 39.1955 57.8985 39.1825C57.9084 39.1695 57.9177 39.1544 57.9263 39.1371" stroke="#3D5330" stroke-width="4" stroke-linecap="round" stroke-linejoin="round"/>
<path d="M60.4928 41.4453C60.4918 41.4456 60.4272 41.463 60.2991 41.4977C60.1709 41.5323 60.066 41.5628 59.9844 41.589C59.9028 41.6152 59.8562 41.6272 59.8448 41.6249C59.8331 41.6229 59.8111 41.6254 59.7788 41.6326C59.7465 41.6397 59.7193 41.6435 59.6972 41.644C59.675 41.6448 59.6622 41.647 59.6586 41.6509C59.6551 41.6547 59.6991 41.6546 59.7906 41.6505C59.8822 41.6461 59.945 41.6389 59.979 41.6287C60.0134 41.6183 60.0434 41.6128 60.0691 41.6123C60.0948 41.6118 60.0989 41.6109 60.0816 41.6096C60.0641 41.6086 60.1212 41.5915 60.2529 41.5584C60.3849 41.5255 60.563 41.5252 60.7873 41.5573C61.0116 41.5891 61.2409 41.636 61.4751 41.6979C61.709 41.7595 61.8812 41.8038 61.9915 41.8305C62.1016 41.857 62.2022 41.8753 62.2933 41.8855C62.384 41.8959 62.4574 41.906 62.5133 41.9157C62.5693 41.9254 62.5978 41.9316 62.5988 41.9341C62.6 41.9367 62.6138 41.9389 62.64 41.9409C62.6662 41.9427 62.7079 41.9498 62.7651 41.962C62.8221 41.9742 62.9334 41.9753 63.0992 41.9654C63.2648 41.9557 63.4205 41.9456 63.5665 41.9349C63.7125 41.9239 63.8375 41.9142 63.9415 41.9058C64.0457 41.8974 64.1537 41.8984 64.2653 41.9088C64.3767 41.9195 64.4676 41.9254 64.538 41.9265C64.6085 41.9277 64.6691 41.9284 64.72 41.9287C64.7708 41.9292 64.7894 41.929 64.7757 41.928C64.7617 41.9269 64.7842 41.9251 64.8432 41.9223C64.9019 41.9195 65.038 41.9309 65.2513 41.9566C65.4647 41.9823 65.5744 41.9792 65.5805 41.9471C65.5866 41.9147 65.6014 41.8077 65.6248 41.626C65.6482 41.4441 65.6619 41.2987 65.666 41.1897C65.67 41.0804 65.675 40.982 65.6808 40.8946C65.6867 40.8072 65.6998 40.6564 65.7201 40.4422C65.7407 40.2282 65.7678 39.9105 65.8014 39.4894C65.8349 39.0685 65.8497 38.7473 65.8456 38.5256C65.8413 38.3042 65.8249 38.1267 65.7964 37.993C65.7682 37.8595 65.7452 37.566 65.7274 37.1128C65.7096 36.6596 65.6975 36.3091 65.6911 36.0615C65.6848 35.8136 65.6756 35.6287 65.6637 35.5066C65.6517 35.3846 65.6408 35.2872 65.6309 35.2143C65.621 35.1415 65.6236 35.1015 65.6389 35.0946C65.6544 35.0878 65.6346 34.8358 65.5794 34.3384C65.5242 33.8414 65.4872 33.4625 65.4684 33.2019C65.4498 32.9412 65.4324 32.7568 65.4161 32.6485C65.3998 32.5402 65.392 32.4526 65.3925 32.3856C65.3927 32.3186 65.3939 32.2936 65.3959 32.3107C65.3979 32.3275 65.3827 32.215 65.3501 31.9732C65.3173 31.7312 65.3051 31.3876 65.3135 30.9425C65.6334 30.4029 65.769 30.0552 65.7201 29.8993C65.67 29.7385 65.572 29.4779 65.426 29.1174C65.2826 28.7337 65.2003 28.4434 65.1792 28.2465C65.1581 28.0498 65.0999 27.6146 65.0045 26.941C64.9094 26.2672 64.8543 25.7037 64.839 25.2505C64.8237 24.797 64.8161 24.585 64.8161 24.6145C64.8161 24.6441 64.8161 24.6787 64.8161 24.7185C64.8161 24.7582 64.8049 24.7516 64.7825 24.6986C64.7599 24.6459 64.7513 24.6242 64.7566 24.6337C64.7617 24.6433 64.7468 24.6278 64.712 24.587C64.6771 24.5462 64.6657 24.4657 64.6776 24.3455" stroke="#3D5330" stroke-width="4" stroke-linecap="round" stroke-linejoin="round"/>
<path d="M64.9024 24.6999C64.7895 24.6253 64.7426 24.5936 64.7617 24.6048C64.7807 24.6162 64.7821 24.6093 64.7659 24.5838C64.7496 24.558 64.7394 24.5464 64.7353 24.549C64.7315 24.5515 64.7275 24.5289 64.7231 24.481C64.7188 24.4331 64.5886 24.2952 64.3325 24.0675C64.0765 23.84 63.8622 23.6592 63.6898 23.5252C63.5171 23.3917 63.3955 23.3008 63.3248 23.2524C63.2543 23.204 63.1872 23.1411 63.1234 23.0639C63.0595 22.9867 62.9867 22.9118 62.9048 22.8389C62.8226 22.766 62.7112 22.6445 62.5703 22.4743C62.4297 22.3038 62.3098 22.1455 62.2106 21.9993C62.1114 21.8531 61.9502 21.6236 61.7269 21.311C61.5036 20.9984 61.2506 20.7352 60.9678 20.5212C60.6851 20.3069 60.4538 20.127 60.274 19.9815C60.0945 19.8363 59.9551 19.723 59.8559 19.6414C59.7568 19.5602 59.6845 19.4986 59.6393 19.4568C59.5935 19.4153 59.5658 19.3865 59.5561 19.3704C59.5464 19.3544 59.44 19.2625 59.2369 19.0949C59.0337 18.9273 58.8601 18.7742 58.7162 18.6356C58.5723 18.497 58.4577 18.3575 58.3725 18.2171C58.2873 18.077 58.1702 17.8691 58.0212 17.5934C57.8719 17.3183 57.66 17.0628 57.3853 16.8269C57.1107 16.591 56.8349 16.3494 56.558 16.1022C56.2813 15.8551 56.0189 15.6273 55.7707 15.4186C55.5228 15.21 55.3011 15.0002 55.1058 14.7892C54.9105 14.578 54.7976 14.4351 54.7671 14.3604C54.7366 14.2855 54.6545 14.1585 54.5207 13.9794C54.3869 13.8006 54.2617 13.6501 54.145 13.5281C54.0285 13.4058 53.9384 13.3126 53.8745 13.2484C53.8107 13.1842 53.753 13.1318 53.7014 13.0913C53.6495 13.051 53.6163 13.0262 53.6018 13.0167C53.5876 13.0073 53.5819 13.0034 53.5847 13.0049C53.5877 13.0064 53.5647 12.9921 53.5156 12.9618C53.4668 12.9312 53.4281 12.9091 53.3996 12.8956C53.3714 12.8821 53.2981 12.8362 53.1796 12.758C53.0613 12.6798 52.9724 12.6136 52.9129 12.5593C52.8537 12.505 52.8281 12.482 52.8363 12.4902C52.8441 12.4983 52.7947 12.4758 52.6879 12.4225C52.5808 12.3693 52.5176 12.3358 52.4983 12.322C52.4787 12.308 52.4497 12.284 52.4113 12.2498C52.3729 12.2157 52.3335 12.1884 52.2931 12.168C52.2527 12.1476 52.2296 12.1418 52.224 12.1505C52.2182 12.1591 52.2123 12.1677 52.2065 12.1764C52.2009 12.1851 52.1893 12.1782 52.1718 12.1558C52.1542 12.1334 52.1405 12.1221 52.1306 12.1218C52.1204 12.1216 52.1212 12.1233 52.1329 12.1271C52.1448 12.131 52.1439 12.1299 52.1302 12.1241C52.1165 12.1182 52.0712 12.0965 51.9944 12.0587C51.9174 12.0213 51.8772 12.0039 51.8739 12.0064C51.8706 12.0092 51.8374 12.0027 51.7743 11.9869C51.7113 11.9714 51.6937 11.9663 51.7217 11.9716C51.7497 11.9767 51.7399 11.9739 51.6923 11.9632C51.6445 11.9523 51.6243 11.9442 51.6317 11.9391C51.639 11.9338 51.6155 11.928 51.5611 11.9219C51.5069 11.9158 51.4168 11.9115 51.2907 11.9089C51.1648 11.9066 51.0493 11.9037 50.9443 11.9001C50.8393 11.8968 50.7768 11.8977 50.757 11.9028C50.7374 11.9082 50.7165 11.9084 50.6941 11.9036C50.6717 11.8985 50.6494 11.8962 50.6273 11.8967C50.6049 11.8972 50.5978 11.8929 50.606 11.8837C50.6138 11.8745 50.3577 11.8732 49.8374 11.8795C49.3171 11.8859 48.8906 11.8912 48.558 11.8956C48.2251 11.8999 48.0026 11.8885 47.8905 11.8615C47.7781 11.8345 47.6677 11.8138 47.5594 11.7993C47.4511 11.785 47.3621 11.782 47.2924 11.7904C47.223 11.7991 47.1808 11.8057 47.1657 11.8103C47.1507 11.8151 47.108 11.8214 47.0376 11.829C46.9669 11.8369 46.7598 11.8476 46.4162 11.8611C46.0727 11.8749 45.8092 11.8857 45.6259 11.8936C45.4425 11.9015 45.309 11.9184 45.2253 11.9441C45.1417 11.9696 45.0608 11.9832 44.9827 11.9849C44.9047 11.9865 44.8645 11.9842 44.8622 11.978C44.8597 11.9719 44.8646 11.9597 44.8771 11.9414C44.8896 11.9228 44.9058 11.9064 44.9259 11.8921" stroke="#3D5330" stroke-width="4" stroke-linecap="round" stroke-linejoin="round"/>
<path d="M46.2119 41.9512C46.2551 41.8862 46.2747 41.8571 46.2707 41.8637C46.2666 41.8703 46.2854 41.8572 46.3271 41.8243C46.3688 41.7915 46.3836 41.7794 46.3714 41.788C46.3592 41.7964 46.3661 41.7948 46.3923 41.7831C46.4183 41.7714 46.4306 41.7673 46.4293 41.7709C46.4281 41.7744 46.4307 41.7763 46.4373 41.7766C46.4442 41.7768 46.4498 41.7779 46.4541 41.7796C46.4587 41.7814 46.434 41.7829 46.3801 41.7842C46.3265 41.7852 46.3 41.7878 46.3008 41.7919C46.3016 41.7959 46.2797 41.7952 46.2352 41.7899C46.1907 41.7843 46.1693 41.7828 46.1711 41.7853C46.1731 41.7876 46.1567 41.7945 46.1219 41.8059C46.0871 41.8172 45.9597 41.8206 45.7397 41.8163C45.5195 41.8117 45.1526 41.8064 44.6392 41.8003C44.1255 41.7939 43.7198 41.7917 43.422 41.7937C43.1243 41.7958 42.9014 41.7804 42.7534 41.7475C42.6054 41.7144 42.3991 41.6836 42.1347 41.6551C41.8702 41.6268 41.5554 41.6359 41.1902 41.6825C40.8248 41.7291 40.5214 41.7685 40.2801 41.8006C40.0388 41.8327 39.7104 41.8595 39.2948 41.8809C38.8791 41.902 38.4287 41.9232 37.9438 41.9443C37.4588 41.9655 37.0857 41.975 36.8242 41.973C36.5626 41.9709 36.365 41.9804 36.2315 42.0013C36.098 42.0225 35.9321 42.0522 35.7337 42.0907C35.5354 42.1289 35.2425 42.174 34.8552 42.226C34.4682 42.278 34.0564 42.3172 33.6198 42.3437C33.1829 42.3702 32.8278 42.3896 32.5544 42.4021C32.2808 42.4149 32.0092 42.4209 31.7396 42.4201C31.4701 42.4196 30.9896 42.4877 30.2982 42.6246C29.6067 42.7611 29.0796 42.8751 28.7167 42.9666C28.3538 43.0578 27.9474 43.1076 27.4976 43.1161C27.0478 43.1247 26.7087 43.1215 26.4803 43.1064C26.2519 43.0914 26.0921 43.0913 26.0008 43.1061C25.9093 43.1211 25.828 43.132 25.7571 43.1389C25.6861 43.1458 25.6268 43.1533 25.5789 43.1615C25.5314 43.1696 25.4902 43.1759 25.4554 43.1802C25.4205 43.1846 25.385 43.19 25.3489 43.1967C25.3128 43.2033 25.2769 43.2095 25.241 43.2153C25.2049 43.2209 25.1938 43.2228 25.2078 43.2207C25.2218 43.2187 25.2056 43.22 25.1594 43.2246C25.1131 43.2291 25.028 43.2404 24.9042 43.2585C24.7801 43.2766 24.669 43.2899 24.5708 43.2983C24.4729 43.3064 24.3938 43.3126 24.3335 43.3166C24.273 43.3205 24.2322 43.3236 24.2111 43.3262C24.1897 43.3287 24.1653 43.3322 24.1379 43.3365C24.1107 43.3408 24.0772 43.3481 24.0375 43.3583C23.9981 43.3687 23.9822 43.373 23.9899 43.3709C23.9975 43.3692 24.005 43.3676 24.0124 43.3663C24.0195 43.3653 23.9826 43.3746 23.9017 43.3942C23.8209 43.414 23.7754 43.43 23.7652 43.4419C23.7553 43.4542 23.8033 43.4618 23.9094 43.4649C24.0154 43.468 24.0834 43.4671 24.1135 43.4623" stroke="#3D5330" stroke-width="4" stroke-linecap="round" stroke-linejoin="round"/>
<path d="M2.75858 4.25073C2.76316 4.29532 2.76519 4.31448 2.76468 4.30811C2.76392 4.30149 2.76532 4.31497 2.76888 4.3486C2.77244 4.38223 2.77396 4.39688 2.77346 4.39255C2.77295 4.38796 2.7704 4.38389 2.76582 4.38032C2.76124 4.37676 2.75857 4.42907 2.75781 4.53735C2.75705 4.64562 2.7587 4.72895 2.76277 4.7873C2.76913 4.86449 2.76824 4.9469 2.7601 5.03454C2.75171 5.12192 2.75692 5.23234 2.77574 5.36584C2.7943 5.49934 2.80575 5.62916 2.81008 5.75527C2.81415 5.88164 2.81465 6.03971 2.8116 6.22951C2.80855 6.41906 2.8088 6.56201 2.81236 6.65832C2.81617 6.75487 2.80129 6.9133 2.76773 7.13367C2.73416 7.35405 2.70607 7.66832 2.68344 8.07646C2.66055 8.48435 2.64135 8.79479 2.62584 9.00777C2.61033 9.22076 2.6074 9.41799 2.61706 9.59938C2.62673 9.78078 2.62584 10.0065 2.6144 10.2765C2.60295 10.5469 2.59328 10.8678 2.5854 11.2392C2.57752 11.6104 2.58172 11.8987 2.59799 12.104C2.61427 12.3096 2.62494 12.5089 2.63003 12.702C2.63537 12.8952 2.63868 13.0596 2.63995 13.1954C2.64147 13.3312 2.66041 13.8561 2.69678 14.7699C2.7334 15.6838 2.75909 16.3993 2.77384 16.9165C2.78833 17.4336 2.81045 17.8292 2.8402 18.103C2.86996 18.3764 2.89552 18.6014 2.91688 18.778C2.9385 18.9545 2.97778 19.4702 3.03474 20.3252C3.09145 21.1805 3.12998 21.886 3.15032 22.4416C3.17092 22.9973 3.19736 23.4724 3.22965 23.867C3.26195 24.2614 3.29819 24.7266 3.33837 25.2623C3.3788 25.7979 3.4041 26.2236 3.41428 26.5398C3.42419 26.856 3.44301 27.2261 3.47073 27.6503C3.4982 28.0748 3.53303 28.5067 3.57524 28.9459C3.61746 29.3851 3.66412 29.7809 3.71523 30.1332C3.76635 30.4855 3.79584 30.9458 3.80373 31.5139C3.81161 32.0818 3.80742 32.5079 3.79114 32.7922C3.77487 33.0765 3.76444 33.3088 3.75986 33.4889C3.75529 33.669 3.73902 33.9023 3.71104 34.1886C3.68282 34.475 3.66437 34.7787 3.65573 35.0997C3.64708 35.4207 3.63628 35.6541 3.62331 35.7998C3.61034 35.9455 3.60741 36.064 3.61453 36.1552C3.62165 36.2461 3.63234 36.3095 3.64658 36.3451C3.66082 36.3808 3.66794 36.4032 3.66794 36.4124C3.66819 36.4213 3.66781 36.4254 3.6668 36.4246C3.66603 36.4236 3.6659 36.4232 3.66641 36.4234C3.66692 36.4239 3.66399 36.4307 3.65764 36.4437C3.65128 36.4567 3.64187 36.4729 3.62941 36.4923C3.61669 36.5116 3.60831 36.5246 3.60424 36.5312" stroke="#3D5330" stroke-width="4" stroke-linecap="round" stroke-linejoin="round"/>
<path d="M3.75497 36.3721C3.78218 36.3736 3.786 36.3456 3.76642 36.288C3.74684 36.2305 3.73603 36.2112 3.734 36.23C3.73222 36.2486 3.7312 36.2573 3.73095 36.2563C3.73044 36.255 3.73031 36.2576 3.73056 36.264C3.73056 36.2701 3.72967 36.2682 3.72789 36.2583C3.72611 36.2481 3.71619 36.3833 3.69813 36.6638C3.68008 36.9443 3.66101 37.2382 3.64092 37.5457C3.62083 37.8532 3.6085 38.0881 3.60393 38.2504C3.5996 38.4127 3.58243 38.5956 3.55243 38.7992C3.52242 39.0027 3.49775 39.2449 3.47843 39.5257C3.45936 39.8062 3.45148 40.0145 3.45478 40.1505C3.45809 40.2868 3.45695 40.3863 3.45135 40.449C3.44601 40.5117 3.4235 40.6511 3.38383 40.8674C3.34416 41.0837 3.31937 41.2995 3.30945 41.5147C3.29928 41.7303 3.29445 41.9111 3.29496 42.0571C3.29547 42.2033 3.3003 42.3096 3.30945 42.3758C3.31835 42.4418 3.33068 42.4918 3.34644 42.5259C3.36196 42.5601 3.3715 42.5919 3.37506 42.6215C3.37836 42.6508 3.38065 42.6657 3.38193 42.6662C3.3832 42.6665 3.38345 42.6645 3.38268 42.6605C3.38217 42.6564 3.38713 42.665 3.39756 42.6861C3.40773 42.7073 3.42719 42.7413 3.45593 42.7885C3.48466 42.8356 3.5036 42.8699 3.51276 42.8913C3.52216 42.9127 3.52586 42.9247 3.52383 42.9272C3.52154 42.9297 3.51936 42.9323 3.51733 42.9348C3.5153 42.9377 3.52204 42.9581 3.53755 42.9963C3.55306 43.0345 3.55943 43.0499 3.55663 43.0422C3.55383 43.0343 3.55827 43.0377 3.56997 43.0522C3.58141 43.0667 3.59388 43.0957 3.60736 43.1393C3.62109 43.1828 3.62579 43.2064 3.62147 43.21C3.61689 43.2136 3.61435 43.2182 3.61384 43.2238C3.61308 43.2294 3.631 43.2631 3.66762 43.325C3.7045 43.3869 3.73298 43.4342 3.75307 43.4668C3.77316 43.4995 3.78828 43.5262 3.79845 43.5471C3.80862 43.568 3.81193 43.5763 3.80837 43.5723C3.80456 43.5682 3.80342 43.5669 3.80495 43.5684C3.80647 43.5702 3.8155 43.5842 3.83202 43.6101C3.84855 43.6361 3.85746 43.6489 3.85873 43.6487C3.86025 43.6487 3.85847 43.6474 3.85339 43.6449C3.8483 43.6423 3.86012 43.6521 3.88885 43.674C3.91784 43.6961 3.93794 43.7101 3.94913 43.7159C3.96057 43.7221 3.97634 43.7291 3.99643 43.737C4.01677 43.7449 4.03813 43.7545 4.06051 43.7657C4.08314 43.7769 4.09433 43.7812 4.09408 43.7786C4.09357 43.7764 4.10184 43.7784 4.11887 43.7848C4.13591 43.7912 4.1813 43.8053 4.25505 43.8272C4.32854 43.8493 4.45924 43.8791 4.64716 43.9163C4.83483 43.9535 4.98449 43.9839 5.09612 44.0076C5.2075 44.0313 5.34063 44.0451 5.49549 44.0492C5.65036 44.053 5.93441 44.0486 6.34764 44.0359C6.76086 44.0234 7.13442 44.0056 7.46831 43.9827C7.80194 43.9598 8.06578 43.9357 8.2598 43.9105C8.45358 43.8853 8.62497 43.8693 8.77399 43.8627C8.923 43.8558 8.99612 43.8508 8.99332 43.8478C8.99078 43.845 8.98811 43.8421 8.98531 43.839C8.98277 43.8362 8.98976 43.8339 9.00629 43.8321C9.02307 43.8303 9.04595 43.828 9.07494 43.8249C9.10393 43.8219 9.11601 43.8206 9.11118 43.8211C9.1066 43.8216 9.09961 43.8223 9.09021 43.8233" stroke="#3D5330" stroke-width="4" stroke-linecap="round" stroke-linejoin="round"/>
<path d="M3.16462 4.93084C3.16335 4.95734 3.16514 4.9407 3.16997 4.88083C3.1748 4.82096 3.17658 4.78041 3.17531 4.75926C3.17429 4.73837 3.17123 4.69735 3.16615 4.6362C3.16132 4.57506 3.15814 4.54681 3.15661 4.55139C3.15534 4.55573 3.15598 4.55804 3.15852 4.5583C3.16081 4.55855 3.16157 4.55751 3.16081 4.55522C3.16004 4.55318 3.15776 4.55505 3.15395 4.56091C3.15013 4.56677 3.13932 4.54678 3.12152 4.50092C3.10346 4.45532 3.09431 4.41079 3.09406 4.36722C3.09355 4.3234 3.09609 4.2947 3.10168 4.2812C3.10702 4.26719 3.11084 4.26324 3.11313 4.26935C3.11516 4.27521 3.11758 4.26243 3.12038 4.2311C3.12292 4.20002 3.20023 4.11924 3.35229 3.9888C3.50436 3.85861 3.62922 3.76329 3.72687 3.70265C3.82477 3.64227 3.89687 3.60463 3.94315 3.58985C3.98943 3.57533 4.0319 3.56092 4.07055 3.54666C4.1092 3.53239 4.23584 3.50087 4.45047 3.45196C4.66534 3.4033 4.94023 3.371 5.27514 3.35521C5.61004 3.33967 5.86815 3.33037 6.04947 3.32731C6.23052 3.324 6.49169 3.30237 6.83295 3.26237C7.17422 3.22212 7.55235 3.18864 7.96736 3.16189C8.38237 3.13539 8.76928 3.1225 9.12809 3.12326C9.4869 3.12403 9.99739 3.10032 10.6596 3.05217C11.3218 3.00402 11.8204 2.96926 12.1556 2.94786C12.4908 2.92621 12.7387 2.92505 12.8994 2.94441C13.0868 3.06466 13.2418 3.0993 13.3644 3.04835C13.4951 2.99535 13.7196 2.95433 14.038 2.92528C14.3544 2.89573 14.723 2.86213 15.1438 2.82443C15.5649 2.78621 15.8888 2.77005 16.1153 2.77591C16.3414 2.78152 16.5067 2.7863 16.6112 2.79037C16.7155 2.79419 16.9043 2.78826 17.1777 2.77246C17.451 2.75666 17.7113 2.74365 17.9585 2.73346C18.2056 2.72302 18.427 2.71384 18.6226 2.70594C18.8179 2.69778 19.0282 2.69116 19.2535 2.68606C19.4783 2.68046 19.7027 2.6837 19.9267 2.69567C20.1505 2.70765 20.3847 2.708 20.6293 2.69679C20.874 2.68507 21.0975 2.67438 21.2999 2.6647C21.5021 2.65476 21.7631 2.6607 22.083 2.68261C22.4027 2.70452 22.8145 2.69742 23.3185 2.66125C23.8238 2.62532 24.2107 2.60905 24.4792 2.61236C24.7478 2.61567 24.9741 2.62196 25.1582 2.63139C25.3426 2.64082 25.4913 2.65475 25.6045 2.6731C25.7174 2.69118 26.0497 2.70304 26.6016 2.70864C27.1534 2.71425 27.6574 2.71285 28.1136 2.70444C28.5698 2.69629 28.9106 2.68886 29.1359 2.68224C29.3614 2.67587 29.5571 2.67296 29.7229 2.67347C29.8887 2.67372 30.0193 2.67256 30.1147 2.67002C30.21 2.66721 30.2952 2.66478 30.3702 2.66274C30.445 2.6607 30.5513 2.65803 30.6891 2.65472C30.8272 2.65115 30.9365 2.64975 31.0171 2.65052C31.0978 2.65103 31.1814 2.65171 31.2681 2.65248C31.3551 2.65299 31.462 2.65694 31.5889 2.66433C31.7158 2.67171 31.8789 2.67638 32.0783 2.67841C32.2779 2.68045 32.6097 2.68324 33.0735 2.68681C33.5373 2.69038 33.8983 2.69549 34.1564 2.70211C34.4145 2.70899 34.6541 2.71155 34.875 2.70976C35.0958 2.70798 35.2873 2.71541 35.4495 2.73197C35.6117 2.74853 35.8103 2.75399 36.0453 2.74839C36.2803 2.74278 36.4556 2.73895 36.5713 2.73691C36.6868 2.73462 36.7867 2.73147 36.8711 2.7274C36.9558 2.72307 37.117 2.72446 37.3548 2.73159C37.5926 2.73873 37.9406 2.76826 38.3988 2.82023C38.8568 2.87195 39.234 2.90647 39.5306 2.92379C39.8266 2.94112 40.0483 2.95205 40.1958 2.95663C40.343 2.96122 40.4698 2.95866 40.5761 2.94898C40.6821 2.9393 40.7753 2.93639 40.8557 2.94021C40.9358 2.94429 41.0173 2.94836 41.1002 2.95243C41.1833 2.95651 41.2464 2.96198 41.2894 2.96885C41.3324 2.97573 41.3824 2.98073 41.4397 2.98378C41.4966 2.98658 41.5437 2.98985 41.5808 2.99367C41.6177 2.99775 41.6449 2.99936 41.6624 2.99834C41.68 2.99732 41.6985 2.99592 41.7181 2.99414C41.7374 2.9921 41.7514 2.9907 41.7601 2.98994C41.7687 2.98918 41.7901 2.98977 41.8242 2.99181C41.8582 2.99384 41.876 2.99536 41.8776 2.99638C41.8788 2.99765 41.8839 2.99917 41.8928 3.00095C41.9017 3.00299 41.9348 3.0045 41.992 3.00552C42.0495 3.00654 42.087 3.00595 42.1045 3.00365C42.1221 3.00111 42.1273 3.00063 42.1202 3.00216C42.113 3.00369 42.1551 3.00416 42.2464 3.00365C42.3375 3.00289 42.4776 2.99662 42.6668 2.9849C42.8557 2.97344 42.9483 2.96889 42.9445 2.97119C42.9404 2.97373 42.9321 2.97792 42.9197 2.98378C42.9069 2.98939 42.8961 2.99589 42.8872 3.00328C42.8783 3.01042 42.8696 3.01751 42.8609 3.02465" stroke="#3D5330" stroke-width="4" stroke-linecap="round" stroke-linejoin="round"/>
<path d="M42.9513 3.00445C42.9099 2.98534 42.8905 2.97501 42.8933 2.97348C42.8964 2.9722 42.8965 2.97021 42.8937 2.96741C42.8909 2.96435 42.9058 2.95577 42.9383 2.94175C42.9706 2.92749 42.9856 2.92131 42.9834 2.92309C42.9811 2.92513 42.9855 2.92584 42.9967 2.92533C43.0076 2.92457 43.0012 2.92119 42.9772 2.91507C42.9536 2.9087 43.0313 2.90291 43.2103 2.89781C43.3891 2.89272 43.5152 2.88749 43.5887 2.88214C43.6622 2.87653 43.7366 2.87954 43.8118 2.891C43.8874 2.90246 43.9418 2.91351 43.9751 2.92421C44.0084 2.93441 44.041 2.94673 44.0728 2.96125C44.1043 2.97552 44.119 2.98399 44.117 2.98654C44.115 2.98909 44.1129 2.99176 44.1109 2.99456C44.1086 2.99711 44.108 2.99619 44.109 2.99186C44.11 2.98727 44.145 3.00168 44.2139 3.03505C44.2828 3.06817 44.3288 3.09571 44.352 3.11762C44.3754 3.13928 44.403 3.16521 44.4347 3.19553C44.4665 3.22585 44.4833 3.24548 44.4851 3.2544C44.4869 3.26332 44.4885 3.26703 44.49 3.2655C44.4913 3.26397 44.4898 3.26374 44.4855 3.26476C44.4809 3.26603 44.4887 3.28777 44.5087 3.33007C44.5288 3.37236 44.5522 3.4149 44.5789 3.4577C44.6059 3.50025 44.6284 3.54011 44.6464 3.57731C44.6642 3.61425 44.6721 3.62958 44.6701 3.62321C44.6681 3.61684 44.6757 3.62952 44.693 3.66137C44.7103 3.69322 44.7194 3.71146 44.7204 3.71604C44.7215 3.72038 44.7218 3.71562 44.7216 3.70186C44.7213 3.6881 44.7329 3.72889 44.7563 3.82418C44.7799 3.91921 44.7974 4.00836 44.8085 4.09167C44.8197 4.17523 44.8234 4.27169 44.8196 4.38099C44.8155 4.49028 44.8069 4.57361 44.7937 4.63094C44.7802 4.688 44.7821 4.72463 44.7994 4.74093C44.8169 4.75724 44.8237 4.7756 44.8196 4.79598C44.8155 4.81611 44.8055 4.83818 44.7895 4.86213C44.7732 4.88608 44.7643 4.90352 44.7628 4.91447C44.7612 4.92543 44.7651 4.94227 44.7742 4.96495C44.7836 4.98762 44.7895 5.00681 44.7918 5.0226C44.7941 5.0384 44.7904 5.03852 44.7807 5.02298C44.771 5.00744 44.7618 5.13655 44.7529 5.41017C44.744 5.68354 44.7489 5.92506 44.7677 6.13473C44.7865 6.3439 44.7913 6.51394 44.7819 6.64489C44.7727 6.77584 44.767 6.87022 44.7647 6.92805C44.7624 6.98563 44.7557 7.08595 44.7445 7.22913C44.7333 7.37231 44.7225 7.52991 44.712 7.70187C44.7016 7.87384 44.7049 8.02889 44.722 8.16697C44.7042 8.39091 44.6829 8.60501 44.6583 8.80934C44.6333 9.01341 44.623 9.17727 44.6274 9.30084C44.6319 9.42414 44.6368 9.50016 44.6419 9.52895C44.6469 9.55774 44.6363 9.6635 44.6098 9.84617C44.5831 10.0286 44.5686 10.197 44.5663 10.3514C44.5638 10.5058 44.5606 10.6104 44.5568 10.6651C44.5527 10.7199 44.5516 10.7547 44.5534 10.7695C44.5549 10.7845 44.5558 10.7875 44.556 10.7786C44.5563 10.7699 44.5535 10.8002 44.5476 10.8692C44.5418 10.9382 44.5385 10.9883 44.5377 11.0194C44.5367 11.0505 44.5379 11.068 44.5412 11.0721C44.5445 11.0759 44.5462 11.0809 44.5465 11.087C44.547 11.0934 44.5473 11.0916 44.5473 11.0816C44.5473 11.072 44.5484 11.0757 44.5507 11.0927C44.553 11.1096 44.5554 11.1445 44.5579 11.1978C44.5605 11.251 44.5605 11.2917 44.5579 11.3197C44.5551 11.3475 44.5583 11.3769 44.5675 11.408C44.5764 11.4393 44.5862 11.485 44.5968 11.5449C44.6078 11.6047 44.619 11.6329 44.6304 11.6293C44.6421 11.6257 44.6595 11.6204 44.6827 11.6133" stroke="#3D5330" stroke-width="4" stroke-linecap="round" stroke-linejoin="round"/>
<path d="M44.4033 10.004C44.3842 10.0066 44.3633 9.95302 44.3407 9.84347C44.3183 9.73392 44.3071 9.71033 44.3071 9.77275C44.3071 9.83542 44.3071 9.85993 44.3071 9.84617C44.3071 9.83216 44.3064 9.85111 44.3048 9.90308C44.3033 9.95531 44.3057 9.97367 44.3121 9.95813C44.3184 9.94285 44.3304 10.1633 44.3479 10.6196C44.3652 11.0757 44.3927 11.5554 44.4303 12.0589C44.4682 12.562 44.5005 12.9507 44.5272 13.2248C44.5542 13.4992 44.5669 13.7463 44.5654 13.9662C44.5636 14.1858 44.5553 14.5619 44.5406 15.0946C44.5256 15.6273 44.5162 16.2031 44.5123 16.822C44.5085 17.4408 44.5151 17.9826 44.5322 18.4473C44.5495 18.912 44.5448 19.2675 44.5181 19.5138C44.4916 19.7602 44.4667 20.5371 44.4433 21.8446C44.4202 23.1518 44.4203 24.1931 44.4437 24.9684C44.4668 25.7439 44.4584 26.4396 44.4185 27.0557C44.3786 27.6717 44.3319 28.2345 44.2785 28.744C44.2254 29.2533 44.172 29.9287 44.1183 30.7702C44.0647 31.6117 44.049 32.3893 44.0714 33.1032C44.0938 33.8173 44.1187 34.5553 44.1462 35.317C44.1739 36.0788 44.2003 36.6578 44.2255 37.054C44.2507 37.4501 44.3116 38.1169 44.4082 39.0545C44.5048 39.992 44.5935 40.7063 44.6741 41.1973C44.7547 41.6882 44.8035 41.9251 44.8206 41.908C44.8376 41.891 44.845 41.8836 44.8427 41.8859C44.8404 41.8882 44.8563 41.8773 44.8904 41.8534C44.9244 41.8297 44.9392 41.8169 44.9346 41.8148C44.93 41.8128 44.9401 41.798 44.9647 41.7705C44.9897 41.7432 45.002 41.7249 45.0017 41.7155C45.0015 41.7058 45.0062 41.6899 45.0159 41.6677" stroke="#3D5330" stroke-width="4" stroke-linecap="round" stroke-linejoin="round"/>
<path d="M48.0848 16.5274C48.0347 16.4681 48.0099 16.4422 48.0104 16.4499C48.0109 16.4573 48.0094 16.4573 48.0058 16.4499C48.002 16.4425 47.986 16.4142 47.9578 16.365C47.9295 16.3158 47.9153 16.2906 47.915 16.2893C47.9148 16.2883 47.9147 16.2865 47.9147 16.284C47.9147 16.2815 47.9143 16.2831 47.9135 16.2889C47.9128 16.2951 47.9143 16.3141 47.9181 16.346C47.9219 16.3781 47.9251 16.4007 47.9276 16.414C47.9299 16.4272 47.9286 16.4345 47.9238 16.4361C47.9192 16.4376 47.927 16.4426 47.9471 16.451C47.9674 16.4594 48.0126 16.7544 48.0825 17.336C48.1524 17.9174 48.2021 18.3758 48.2316 18.7111C48.2611 19.0461 48.2856 19.5238 48.3049 20.1442C48.324 20.7645 48.3383 21.2486 48.348 21.5964C48.3576 21.9439 48.3604 22.2612 48.3564 22.5483C48.3523 22.8354 48.3428 23.1356 48.3278 23.449C48.313 23.7624 48.3077 24.0556 48.3118 24.3287C48.3158 24.6016 48.3168 24.9515 48.3148 25.3785C48.313 25.8055 48.3065 26.2063 48.2954 26.5808C48.2844 26.955 48.2767 27.2279 48.2721 27.3997C48.2675 27.5714 48.2666 27.6947 48.2694 27.7696C48.2722 27.8442 48.2769 27.892 48.2835 27.9129C48.2901 27.934 48.2974 27.9815 48.3053 28.0551C48.3131 28.129 48.3181 28.1651 48.3201 28.1636C48.3222 28.1618 48.3232 28.1621 48.3232 28.1644C48.3234 28.1665 48.3234 28.1663 48.3232 28.164C48.3229 28.1614 48.3288 28.1951 48.3407 28.2649C48.3529 28.3345 48.3599 28.3717 48.3617 28.3765C48.3637 28.3813 48.3687 28.3838 48.3766 28.3838C48.3845 28.3838 48.3884 28.3855 48.3884 28.3891C48.3884 28.3929 48.3884 28.3967 48.3884 28.4006C48.3884 28.4041 48.4069 28.3789 48.4437 28.3249C48.4803 28.2706 48.4945 28.2447 48.4861 28.2473C48.4774 28.2496 48.4768 28.2348 48.4842 28.203C48.4915 28.1709 48.4989 28.1351 48.5063 28.0956C48.5134 28.0563 48.5207 28.0146 48.528 27.9703" stroke="#3D5330" stroke-width="4" stroke-linecap="round" stroke-linejoin="round"/>
<path d="M48.3068 17.4353C48.2435 17.3606 48.1907 17.2916 48.1485 17.2282C48.1065 17.1645 48.0859 17.1345 48.0867 17.138C48.0875 17.1416 48.1083 17.1268 48.1492 17.0937C48.1902 17.0606 48.2096 17.0519 48.2076 17.0677C48.2056 17.0835 48.3906 17.0679 48.7626 17.021C49.1344 16.9742 49.4278 16.951 49.643 16.9515C49.8579 16.9518 50.0165 16.9626 50.119 16.984C50.2212 17.0054 50.2977 17.0309 50.3483 17.0604C50.3989 17.0902 50.5008 17.117 50.6542 17.1406C50.8075 17.1643 50.9651 17.1867 51.1268 17.2075C51.2885 17.2284 51.414 17.206 51.5033 17.1403C51.5925 17.0745 51.6396 17.0435 51.6444 17.0471C51.6495 17.0506 51.6545 17.0544 51.6593 17.0582C51.6641 17.062 51.667 17.0568 51.6681 17.0425C51.6688 17.028 51.6847 17.0069 51.7157 16.9794C51.7468 16.9519 51.7637 16.9393 51.7665 16.9415C51.7693 16.9436 51.7864 16.9564 51.818 16.9798C51.8497 17.0032 51.8661 17.0166 51.8672 17.0199C51.8682 17.0235 51.8778 17.0166 51.8962 16.9993C51.9145 16.9817 52.062 17.1213 52.3386 17.4181C52.615 17.7149 52.857 17.9679 53.0645 18.1771C53.272 18.3865 53.5022 18.6214 53.7549 18.8818C54.0077 19.1422 54.2216 19.3854 54.3965 19.6117C54.5715 19.8382 54.7528 20.1179 54.9404 20.4509C55.1279 20.7836 55.3485 21.1371 55.6022 21.5113C55.856 21.8856 56.0775 22.1879 56.2667 22.4182C56.4562 22.6488 56.6554 22.8985 56.8644 23.1676C57.0737 23.4369 57.2614 23.7003 57.4275 23.9579C57.5935 24.2152 57.7172 24.4081 57.7986 24.5365C57.8797 24.6649 57.9714 24.8265 58.0736 25.0214C58.1758 25.2166 58.3121 25.4306 58.4825 25.6634C58.6529 25.8965 58.8477 26.1498 59.0669 26.4232C59.2861 26.6965 59.4963 26.9853 59.6974 27.2895C59.8986 27.5932 60.0635 27.8315 60.1921 28.0045C60.3208 28.1775 60.3862 28.2667 60.3882 28.2721C60.3902 28.2772 60.3883 28.2802 60.3825 28.2812C60.3769 28.2825 60.3644 28.2832 60.3451 28.2835C60.326 28.2837 60.3025 28.2815 60.2745 28.2766C60.2463 28.2718 60.2293 28.2689 60.2234 28.2679C60.2178 28.2669 60.2014 28.2623 60.1742 28.2544C60.1473 28.2468 60.1167 28.2355 60.0827 28.2205C60.0483 28.2054 60.019 28.1905 59.9946 28.1757" stroke="#3D5330" stroke-width="4" stroke-linecap="round" stroke-linejoin="round"/>
<path d="M49.0663 28.3611C49.0017 28.3193 48.9697 28.3015 48.9702 28.3076C48.9704 28.3137 48.9669 28.3168 48.9595 28.3168C48.9521 28.3168 48.9652 28.3377 48.9988 28.3794C49.0324 28.4212 49.0462 28.4367 49.0404 28.426C49.0348 28.4156 49.0388 28.4139 49.0526 28.4211C49.0663 28.4282 49.0831 28.4305 49.1029 28.428C49.1225 28.4252 49.1289 28.428 49.122 28.4364C49.1149 28.4445 49.2526 28.465 49.5351 28.4978C49.8174 28.531 50.0395 28.5479 50.2015 28.5487C50.3635 28.5495 50.4939 28.5497 50.5928 28.5494C50.6918 28.5489 50.8656 28.5424 51.1143 28.5299C51.363 28.5175 51.6173 28.4941 51.8772 28.4597C52.137 28.4253 52.3509 28.3959 52.5187 28.3714C52.6866 28.3467 53.0018 28.3321 53.4643 28.3275C53.9272 28.3229 54.3687 28.3501 54.7891 28.4092C55.2094 28.4686 55.6859 28.4931 56.2183 28.4826C56.7511 28.4722 57.1613 28.4533 57.4489 28.426C57.7365 28.3985 58.0818 28.3826 58.4849 28.3782C58.8882 28.3736 59.2023 28.3805 59.4271 28.3989C59.6518 28.4175 59.8272 28.4353 59.953 28.4524C60.0792 28.4697 60.1356 28.4744 60.1224 28.4665C60.1095 28.4586 60.0895 28.4446 60.0625 28.4245C60.0358 28.4041 60.0029 28.384 59.9637 28.3641C59.9246 28.344 59.8876 28.326 59.8527 28.3102C59.8179 28.2942 59.8025 28.2864 59.8066 28.2869C59.8104 28.2874 59.8017 28.2801 59.7806 28.2648C59.7595 28.2492 59.7168 28.2472 59.6525 28.2586C59.5884 28.2701 59.5477 28.2795 59.5304 28.2869" stroke="#3D5330" stroke-width="4" stroke-linecap="round" stroke-linejoin="round"/>
<path d="M48.6755 28.2728C48.6717 28.2631 48.6683 28.2663 48.6652 28.2823C48.6619 28.2981 48.6479 28.3343 48.6233 28.3908C48.5983 28.4476 48.5849 28.4754 48.5828 28.4741C48.5808 28.4729 48.5852 28.47 48.5962 28.4654C48.6069 28.4608 48.6057 28.4622 48.5928 28.4696C48.5798 28.477 48.5549 28.4877 48.518 28.5017C48.4809 28.5157 48.4519 28.525 48.431 28.5296C48.4102 28.5339 48.4014 28.5346 48.4047 28.5315C48.408 28.5285 48.4144 28.5293 48.4238 28.5341C48.4332 28.5392 48.4051 28.5326 48.3395 28.5143C48.2739 28.4962 48.2403 28.4961 48.2388 28.5139C48.2373 28.5317 48.4682 28.5106 48.9315 28.4505C49.3948 28.3906 49.5994 28.3603 49.5452 28.3596C49.4913 28.3586 49.3378 28.3512 49.0848 28.3377C48.8318 28.324 48.7071 28.3189 48.7106 28.3224C48.7144 28.3263 48.72 28.3319 48.7274 28.3393" stroke="#3D5330" stroke-width="4" stroke-linecap="round" stroke-linejoin="round"/>
<path d="M44.5226 42.1698C44.398 42.1013 44.3453 42.0731 44.3647 42.0854C44.384 42.0976 44.3874 42.1037 44.375 42.1037C44.3628 42.1037 44.3487 42.1037 44.3326 42.1037C44.3169 42.1037 44.309 42.1019 44.309 42.0983C44.3087 42.0945 44.3086 42.0907 44.3086 42.0869C44.3086 42.0833 44.3246 42.0697 44.3567 42.046C44.3887 42.0223 44.4028 42.0093 44.399 42.007C44.3952 42.005 44.4037 41.9958 44.4246 41.9795C44.4452 41.9634 44.4556 41.9554 44.4558 41.9554C44.4561 41.9557 44.4561 41.9511 44.4558 41.9417C44.4558 41.9323 44.467 41.9185 44.4894 41.9004C44.5118 41.8825 44.54 41.8638 44.5741 41.8442C44.6082 41.8248 44.6351 41.8116 44.655 41.8044C44.6748 41.7973 44.6836 41.7972 44.6813 41.8041C44.679 41.811 44.6926 41.8092 44.7221 41.7988C44.7516 41.7881 44.8538 41.7699 45.0288 41.7445C45.2037 41.719 45.3567 41.714 45.4876 41.7295C45.6188 41.7453 45.7076 41.7577 45.7539 41.7667C45.8002 41.7758 45.8541 41.7841 45.9156 41.7915C45.9772 41.7991 45.9984 41.8009 45.9793 41.7968C45.9602 41.793 45.9765 41.7969 46.0281 41.8086C46.0798 41.8206 46.1385 41.8307 46.2044 41.8389C46.27 41.847 46.3432 41.8369 46.4241 41.8086C46.5047 41.7801 46.5536 41.7623 46.5709 41.7552" stroke="#3D5330" stroke-width="4" stroke-linecap="round" stroke-linejoin="round"/>
<path d="M3.46261 39.267C3.34615 39.2296 3.29402 39.213 3.30622 39.2173C3.31843 39.2216 3.31907 39.2188 3.30813 39.2089C3.29745 39.199 3.26681 39.1693 3.2162 39.1199C3.16535 39.0702 3.14818 39.0513 3.16471 39.0633C3.18124 39.0755 3.18619 39.0727 3.17958 39.0549C3.17323 39.0373 3.16534 39.0104 3.15593 38.9742C3.14627 38.9383 3.14538 38.9231 3.15326 38.9284C3.16115 38.9335 3.19344 38.9111 3.25015 38.8612C3.30711 38.8115 3.46287 38.7895 3.71742 38.7954C3.97171 38.8013 4.28614 38.7893 4.66072 38.7595C5.0353 38.7299 5.3304 38.7166 5.54604 38.7194C5.76168 38.7222 6.14733 38.7603 6.70296 38.8336C7.2586 38.907 7.75727 38.9542 8.19898 38.9754C8.64069 38.9963 8.98754 39.0146 9.23955 39.0304C9.49156 39.0465 9.777 39.0611 10.0959 39.0744C10.4148 39.0876 10.687 39.1091 10.9126 39.1389C11.1384 39.1687 11.311 39.1937 11.4305 39.2138C11.5503 39.2342 11.6637 39.2586 11.7708 39.2869" stroke="#3D5330" stroke-width="4" stroke-linecap="round" stroke-linejoin="round"/>
<path d="M20.925 38.8734C20.8777 38.8176 20.8446 38.7754 20.8258 38.7469C20.8072 38.7186 20.7977 38.7038 20.7972 38.7026C20.7964 38.7013 20.7989 38.7049 20.8044 38.7133C20.81 38.722 20.8132 38.7263 20.814 38.7263C20.8147 38.7265 20.8133 38.724 20.8098 38.7186C20.8065 38.7135 20.7859 38.6876 20.748 38.641C20.7104 38.5941 20.7016 38.5632 20.7217 38.5482C20.7418 38.5326 20.7496 38.526 20.7453 38.5283C20.7413 38.5306 20.753 38.5242 20.7804 38.5092C20.8076 38.4944 21.032 38.4944 21.4537 38.5092C21.8753 38.5242 22.278 38.5256 22.6617 38.5134C23.0452 38.5014 23.3094 38.4838 23.4543 38.4606C23.5993 38.4375 23.7456 38.432 23.8934 38.4442C24.0409 38.4567 24.1555 38.4696 24.2374 38.4828C24.3193 38.4961 24.607 38.4956 25.1006 38.4816C25.5942 38.4676 26.0793 38.4465 26.5558 38.4182C27.0324 38.3897 27.3847 38.3719 27.6128 38.3647C27.8407 38.3573 28.0085 38.3594 28.1163 38.3709C28.2241 38.3824 28.4634 38.3964 28.8342 38.4132C29.2049 38.4298 29.7223 38.4403 30.3863 38.4446C31.0505 38.4489 31.8513 38.4227 32.7886 38.3658C33.7259 38.309 34.4246 38.2653 34.8846 38.2348C35.3446 38.2042 35.6579 38.1772 35.8245 38.1538C35.9913 38.1303 36.2194 38.1078 36.5088 38.0861C36.7982 38.0645 37.1173 38.0669 37.4662 38.0934C37.8151 38.1199 38.082 38.1464 38.2669 38.1729C38.452 38.1994 38.5805 38.2103 38.6525 38.2057C38.7245 38.2012 38.8489 38.2018 39.0259 38.2077C39.2027 38.2136 39.5182 38.2298 39.9727 38.2566C40.4271 38.2833 40.7907 38.2994 41.0636 38.3047C41.3364 38.3098 41.6745 38.332 42.0778 38.3713C42.4812 38.4102 42.8882 38.4331 43.2988 38.44C43.7093 38.4466 43.9147 38.4491 43.9153 38.4473C43.916 38.4455 43.9228 38.4706 43.9355 38.5226C43.9482 38.5743 43.9531 38.5936 43.9503 38.5806C43.9473 38.5676 43.944 38.5586 43.9404 38.5535" stroke="#3D5330" stroke-width="4" stroke-linecap="round" stroke-linejoin="round"/>
</svg>
