<svg width="159" height="111" viewBox="0 0 159 111" fill="none" xmlns="http://www.w3.org/2000/svg">
<path d="M119.599 36.0506C119.61 36.0639 119.615 36.0702 119.615 36.0696C119.616 36.0688 119.63 36.0632 119.656 36.0526C119.683 36.042 119.695 36.0317 119.695 36.022C119.693 36.0122 119.693 36.0075 119.693 36.0078C119.693 36.0081 119.693 36.0088 119.694 36.0101C119.695 36.012 119.693 35.9993 119.688 35.9723C119.683 35.9454 119.676 35.9082 119.669 35.8605C119.662 35.8127 119.655 35.7743 119.647 35.7454C119.64 35.7166 119.635 35.687 119.631 35.6569C119.626 35.6267 119.616 35.5881 119.6 35.541C119.583 35.4942 119.544 35.3739 119.483 35.18C119.422 34.9858 119.357 34.8114 119.288 34.6572C119.22 34.503 119.163 34.3838 119.117 34.2997C119.071 34.2158 119.036 34.1335 119.011 34.0528C118.986 33.9721 118.955 33.899 118.916 33.8331C118.871 33.8116 118.82 33.7962 118.763 33.787C118.706 33.778 118.652 33.759 118.603 33.7302C118.553 33.7013 118.449 33.703 118.291 33.735C118.132 33.7665 117.995 33.7974 117.878 33.8278C117.76 33.8585 117.614 33.8952 117.438 33.9381C117.262 33.981 116.871 34.0851 116.267 34.2505C115.66 34.4161 115.201 34.5405 114.89 34.6239C114.578 34.7075 114.291 34.7971 114.028 34.8926C113.765 34.9879 113.514 35.0808 113.276 35.1713C113.037 35.262 112.857 35.3275 112.734 35.368C112.611 35.4087 112.472 35.4563 112.317 35.5106C112.161 35.5648 111.933 35.6506 111.631 35.7681C111.329 35.8856 111.081 35.9823 110.887 36.0582C110.694 36.1341 110.512 36.2051 110.343 36.271C110.173 36.3368 109.987 36.4064 109.785 36.4797C109.583 36.5529 109.397 36.627 109.227 36.7019C109.057 36.7765 108.921 36.8506 108.818 36.9242C108.715 36.9977 108.581 37.0813 108.417 37.1749C108.254 37.2686 108.041 37.3406 107.78 37.3912C107.524 37.4576 107.25 37.5314 106.958 37.6127C106.667 37.6936 106.448 37.7572 106.302 37.8035C106.157 37.8496 106.041 37.8866 105.956 37.9149C105.871 37.943 105.738 37.9872 105.558 38.0475C105.379 38.1081 105.077 38.2123 104.653 38.3602C104.229 38.5084 103.887 38.6217 103.627 38.7003C103.367 38.7789 103.178 38.8391 103.062 38.8809C102.946 38.9227 102.855 38.9587 102.789 38.9888C102.723 39.019 102.674 39.0424 102.642 39.0588C102.61 39.0752 102.581 39.0894 102.556 39.1016C102.532 39.1133 102.512 39.1227 102.497 39.1301C102.483 39.1375 102.468 39.1455 102.452 39.1539C102.437 39.1624 102.423 39.1706 102.409 39.1785C102.396 39.1865 102.375 39.2006 102.346 39.221C102.316 39.2414 102.294 39.2601 102.28 39.277C102.265 39.2937 102.249 39.3094 102.23 39.3243C102.212 39.3391 102.205 39.3451 102.209 39.3425C102.213 39.3398 102.211 39.3414 102.203 39.3469C102.196 39.3525 102.189 39.3582 102.182 39.364C102.176 39.3698 102.168 39.3783 102.158 39.3894C102.147 39.4002 102.138 39.4098 102.132 39.4182C102.125 39.4267 102.115 39.4366 102.101 39.4477C102.088 39.4585 102.074 39.4693 102.059 39.4799C102.044 39.4904 102.04 39.4924 102.045 39.4861C102.05 39.48 102.015 39.5226 101.941 39.6136C101.866 39.7043 101.798 39.8143 101.737 39.9434C101.676 40.0722 101.632 40.1757 101.605 40.254C101.578 40.3323 101.548 40.414 101.515 40.4989C101.482 40.5836 101.46 40.6612 101.449 40.7318C101.437 40.8027 101.434 40.8606 101.438 40.9053C101.442 40.9502 101.45 40.9851 101.463 41.0097C101.477 41.0341 101.487 41.0597 101.493 41.0866C101.499 41.1131 101.524 41.1718 101.566 41.2628C101.609 41.3541 101.645 41.4227 101.676 41.4688C101.706 41.5148 101.758 41.578 101.833 41.6585C101.908 41.7389 101.959 41.8053 101.988 41.8577C102.016 41.9101 102.051 41.9723 102.094 42.0443C102.136 42.1162 102.168 42.1726 102.189 42.2136C102.21 42.2549 102.226 42.2839 102.236 42.3003C102.246 42.3167 102.254 42.3302 102.26 42.3408C102.267 42.3511 102.274 42.3589 102.282 42.3642C102.29 42.3698 102.296 42.374 102.3 42.3772C102.304 42.3804 102.318 42.3888 102.345 42.4026C102.371 42.4163 102.395 42.4253 102.418 42.4295C102.441 42.434 102.459 42.4367 102.473 42.4375C102.486 42.4382 102.497 42.4393 102.504 42.4404C102.512 42.4417 102.516 42.4419 102.519 42.4411C102.521 42.4403 102.614 42.4262 102.798 42.3987C102.981 42.3714 103.136 42.3506 103.262 42.3363C103.389 42.3223 103.485 42.307 103.553 42.2904C103.62 42.2737 103.761 42.2361 103.975 42.1776C104.189 42.1191 104.378 42.0636 104.541 42.011C104.704 41.958 104.883 41.8989 105.078 41.8338C105.272 41.7685 105.485 41.7119 105.715 41.6637C105.945 41.6156 106.145 41.5632 106.316 41.5066C106.488 41.4497 106.622 41.4078 106.719 41.3808C106.816 41.3535 107.039 41.3013 107.389 41.224C107.74 41.147 108.019 41.0798 108.227 41.0227C108.435 40.9658 108.588 40.921 108.685 40.8882C108.782 40.8557 108.868 40.828 108.942 40.8053C109.016 40.7823 109.125 40.7467 109.269 40.6985C109.412 40.6504 109.619 40.5808 109.888 40.4898C110.158 40.3985 110.369 40.3264 110.524 40.2732C110.678 40.2197 110.807 40.1729 110.912 40.1327C111.017 40.0925 111.276 39.991 111.69 39.8283C112.104 39.665 112.426 39.5364 112.655 39.4425C112.885 39.3485 113.099 39.2766 113.298 39.2266C113.496 39.1763 113.698 39.1161 113.903 39.046C114.107 38.9759 114.285 38.9176 114.437 38.871C114.588 38.8245 114.796 38.7562 115.06 38.6662C115.323 38.5763 115.529 38.5042 115.678 38.45C115.826 38.3955 115.962 38.3349 116.085 38.2682C116.209 38.2015 116.308 38.1512 116.384 38.117C116.458 38.0829 116.519 38.0485 116.565 38.0142C116.612 37.9795 116.711 37.9298 116.862 37.8649C117.013 37.8001 117.209 37.7243 117.45 37.6373C117.691 37.5502 117.873 37.4798 117.996 37.426C118.12 37.3726 118.248 37.3255 118.381 37.2848C118.513 37.2443 118.61 37.2145 118.672 37.1955C118.73 37.1918 118.78 37.177 118.819 37.1511C118.858 37.1302 118.954 37.0885 119.108 37.0261C119.261 36.9689 119.378 36.9362 119.46 36.928C119.541 36.9196 119.598 36.9077 119.631 36.8924C119.665 36.8773 119.7 36.8522 119.736 36.817C119.773 36.7818 119.795 36.7616 119.802 36.7566C119.81 36.7515 119.819 36.7399 119.83 36.7217C119.841 36.7037 119.848 36.6933 119.851 36.6907C119.854 36.6886 119.86 36.6828 119.87 36.6732C119.879 36.6634 119.884 36.6591 119.884 36.6599C119.884 36.6604 119.884 36.66 119.883 36.6589C119.883 36.6576 119.884 36.6583 119.885 36.6606C119.885 36.6628 119.894 36.6543 119.91 36.6353C119.926 36.6162 119.933 36.6062 119.931 36.6054C119.928 36.6046 119.926 36.6064 119.926 36.6106C119.926 36.6149 119.93 36.6014 119.937 36.5701C119.945 36.5387 119.948 36.511 119.947 36.4872C119.945 36.4634 119.943 36.4457 119.939 36.4343C119.935 36.4227 119.933 36.4145 119.932 36.4097C119.932 36.4049 119.932 36.4011 119.934 36.3979C119.935 36.3942 119.93 36.3693 119.921 36.3233C119.911 36.2772 119.901 36.2334 119.891 36.1919C119.881 36.1504 119.873 36.1128 119.866 36.0795C119.86 36.0462 119.843 36.0078 119.816 35.9644C119.789 35.921 119.754 35.8626 119.712 35.789C119.67 35.7155 119.633 35.6627 119.603 35.6307C119.572 35.5984 119.555 35.5801 119.551 35.5759" stroke="#3D5330" stroke-width="4" stroke-linecap="round" stroke-linejoin="round"/>
<path d="M118.922 37.5896C118.942 37.6242 118.93 37.6018 118.885 37.5221C118.84 37.4425 118.817 37.3978 118.817 37.388C118.817 37.378 118.883 37.4049 119.015 37.4692C119.147 37.5335 119.273 37.5921 119.394 37.6448C119.515 37.6969 119.658 37.7733 119.821 37.8744C119.984 37.9752 120.116 38.0611 120.215 38.1317C120.314 38.2019 120.457 38.284 120.642 38.3784C120.828 38.4726 120.991 38.5681 121.132 38.6646C121.274 38.7609 121.385 38.8509 121.467 38.9346C121.549 39.0182 121.664 39.1166 121.813 39.2301C121.961 39.3433 122.098 39.432 122.223 39.4957C122.347 39.5592 122.472 39.642 122.597 39.7441C122.722 39.8463 122.829 39.9347 122.917 40.0096C123.005 40.084 123.096 40.1505 123.19 40.2092C123.285 40.2677 123.355 40.3117 123.401 40.3414C123.447 40.371 123.459 40.3897 123.437 40.3974C123.415 40.4048 123.405 40.4074 123.406 40.4053C123.407 40.4029 123.407 40.4033 123.406 40.4065C123.404 40.4096 123.383 40.4065 123.34 40.397C123.298 40.3874 123.242 40.3736 123.173 40.3553C123.105 40.3371 123.044 40.3206 122.991 40.3061C122.937 40.2913 122.885 40.2731 122.835 40.2516C122.785 40.2299 122.696 40.2205 122.569 40.2232C122.441 40.2255 122.342 40.2294 122.272 40.235C122.202 40.24 122.129 40.2589 122.051 40.2918C121.973 40.3246 121.918 40.3522 121.885 40.3747C121.853 40.3972 121.824 40.42 121.798 40.4433C121.773 40.4666 121.692 40.5267 121.555 40.6235C121.419 40.7201 121.317 40.7905 121.248 40.8347C121.179 40.8789 121.126 40.9185 121.09 40.9537C121.053 40.9886 121.011 41.0368 120.961 41.0984C120.912 41.1603 120.875 41.2058 120.85 41.2347C120.825 41.2632 120.748 41.3278 120.619 41.4286C120.489 41.5292 120.383 41.6187 120.299 41.697C120.215 41.7751 120.157 41.8305 120.124 41.8633C120.092 41.8958 120.018 41.9423 119.904 42.0026C119.789 42.0626 119.682 42.0902 119.584 42.0851C119.483 42.0886 119.398 42.0972 119.329 42.1109C119.26 42.1244 119.205 42.1342 119.164 42.1406C119.123 42.1466 119.053 42.1389 118.954 42.1169C118.855 42.0947 118.776 42.0671 118.717 42.034C118.659 42.0009 118.617 41.9773 118.591 41.9633C118.565 41.9495 118.529 41.9309 118.482 41.9076C118.435 41.8844 118.399 41.8668 118.375 41.8549C118.351 41.843 118.328 41.8293 118.308 41.8137C118.287 41.7978 118.218 41.7605 118.101 41.702C117.984 41.6436 117.882 41.5948 117.795 41.5554C117.708 41.5159 117.577 41.476 117.402 41.4358C117.227 41.3958 117.092 41.3705 116.997 41.3596C116.902 41.3491 116.834 41.3401 116.793 41.3327C116.752 41.3253 116.672 41.3205 116.553 41.3184C116.434 41.3165 116.292 41.3408 116.126 41.391C115.96 41.441 115.831 41.4839 115.738 41.5199C115.646 41.5561 115.54 41.6212 115.42 41.7148C115.301 41.8085 115.188 41.9024 115.081 41.9966C114.974 42.091 114.898 42.1588 114.851 42.1999C114.805 42.2409 114.752 42.2941 114.692 42.3597C114.633 42.4251 114.555 42.5191 114.46 42.6419C114.365 42.7646 114.292 42.8617 114.242 42.9331C114.192 43.0043 114.157 43.0578 114.138 43.0935C114.119 43.1293 114.106 43.155 114.098 43.1709C114.09 43.1867 114.072 43.2215 114.043 43.2749C114.014 43.3281 113.993 43.3666 113.98 43.3904C113.967 43.414 113.952 43.4381 113.935 43.4633C113.917 43.4881 113.895 43.5221 113.868 43.565C113.841 43.6076 113.806 43.6558 113.761 43.7097C113.717 43.7635 113.651 43.8214 113.563 43.8836C113.475 43.9457 113.407 43.9889 113.36 44.013C113.312 44.0368 113.233 44.0756 113.121 44.1293C113.009 44.183 112.848 44.224 112.637 44.2523C112.425 44.2804 112.243 44.2987 112.09 44.3072C111.936 44.3154 111.762 44.3005 111.565 44.263C111.369 44.2254 111.209 44.1915 111.087 44.161C110.964 44.1304 110.844 44.0822 110.727 44.0169C110.61 43.9518 110.471 43.8819 110.312 43.807C110.153 43.7321 110.022 43.6765 109.918 43.64C109.814 43.6032 109.727 43.5752 109.658 43.5559C109.588 43.5363 109.5 43.5279 109.392 43.5305C109.285 43.5332 109.152 43.5519 108.994 43.5871C108.836 43.6223 108.712 43.6541 108.623 43.6824C108.533 43.7107 108.415 43.7605 108.269 43.8316C108.123 43.9025 108.001 43.9635 107.902 44.0146C107.803 44.0656 107.69 44.1514 107.563 44.2721C107.435 44.3927 107.345 44.4795 107.292 44.5321C107.239 44.585 107.169 44.6783 107.081 44.8119C106.993 44.9455 106.912 45.0786 106.838 45.2111C106.763 45.3437 106.706 45.4645 106.667 45.5735C106.628 45.6822 106.572 45.7762 106.5 45.8556C106.428 45.9347 106.336 46.0017 106.225 46.0567C106.115 46.1118 106.023 46.1603 105.951 46.2021C105.878 46.2436 105.754 46.2974 105.579 46.3635C105.403 46.4294 105.218 46.4784 105.024 46.5104C104.83 46.5421 104.661 46.5634 104.517 46.5739C104.373 46.5843 104.221 46.5893 104.061 46.589C103.901 46.5888 103.717 46.5975 103.509 46.6152C103.302 46.6327 103.143 46.6448 103.034 46.6516C102.925 46.6583 102.802 46.6882 102.667 46.7414C102.531 46.7943 102.405 46.8459 102.287 46.8962C102.169 46.9464 102.079 46.9888 102.015 47.0235C101.952 47.0584 101.907 47.0854 101.879 47.1045C101.851 47.1235 101.825 47.1398 101.802 47.1533C101.778 47.1665 101.737 47.1865 101.679 47.2132C101.621 47.2402 101.589 47.2528 101.582 47.251C101.575 47.2491 101.6 47.1803 101.656 47.0446C101.712 46.9089 101.76 46.7941 101.801 46.7005C101.842 46.6068 101.877 46.5267 101.904 46.46C101.931 46.3931 101.951 46.341 101.964 46.304C101.976 46.2672 101.989 46.2097 102.004 46.1314C102.018 46.053 102.03 45.9501 102.042 45.8223C102.053 45.6945 102.085 45.5573 102.138 45.4107C102.191 45.2639 102.252 45.1206 102.32 44.9809C102.389 44.8412 102.442 44.7233 102.48 44.6273C102.518 44.5312 102.559 44.418 102.603 44.2876C102.648 44.1572 102.688 44.0462 102.724 43.9547C102.76 43.8631 102.791 43.7879 102.816 43.7289C102.842 43.6697 102.857 43.6283 102.863 43.6047C102.869 43.5812 102.874 43.5631 102.878 43.5507C102.881 43.5382 102.906 43.4799 102.953 43.3757C103 43.2717 103.052 43.1794 103.109 43.099C103.165 43.0188 103.229 42.9663 103.298 42.9414C103.368 42.9166 103.408 42.9012 103.42 42.8951" stroke="#3D5330" stroke-width="4" stroke-linecap="round" stroke-linejoin="round"/>
<path d="M104.782 47.5069C104.778 47.5193 104.777 47.5199 104.78 47.5088C104.784 47.498 104.784 47.498 104.783 47.5088C104.781 47.5194 104.783 47.5108 104.789 47.4831C104.795 47.4553 104.801 47.4276 104.806 47.4001C104.812 47.3726 104.816 47.351 104.82 47.3354C104.825 47.3198 104.825 47.31 104.822 47.3063C104.819 47.3026 104.785 47.355 104.721 47.4635C104.657 47.5717 104.567 47.705 104.451 47.8632C104.335 48.0215 104.233 48.1519 104.145 48.2549C104.057 48.358 103.998 48.4261 103.969 48.4589C103.942 48.4917 103.915 48.5327 103.887 48.582C103.86 48.6309 103.838 48.6737 103.82 48.7104C103.804 48.7472 103.802 48.7794 103.814 48.8069C103.828 48.835 103.821 48.8734 103.793 48.922C103.765 48.9707 103.747 49.0122 103.739 49.0466C103.731 49.081 103.723 49.1228 103.715 49.172C103.707 49.2212 103.699 49.273 103.691 49.3272C103.682 49.3817 103.683 49.4724 103.693 49.5991C103.703 49.7258 103.707 49.8399 103.704 49.9415C103.702 50.0431 103.73 50.3675 103.789 50.9146C103.846 51.4623 103.983 52.1793 104.199 53.0659C104.414 53.9541 104.585 54.6284 104.712 55.0887C104.838 55.5488 104.948 55.9219 105.041 56.2082C105.134 56.4944 105.228 56.7607 105.324 57.0067C105.42 57.2528 105.512 57.5028 105.6 57.757C105.689 58.011 105.778 58.2699 105.866 58.5337C105.954 58.7974 106.025 59.0033 106.078 59.1512C106.131 59.2994 106.217 59.52 106.337 59.8132C106.456 60.1066 106.555 60.3464 106.633 60.5326C106.711 60.7189 106.786 60.9253 106.858 61.1517C106.931 61.3782 106.995 61.5745 107.049 61.7406C107.104 61.907 107.154 62.0525 107.199 62.1768C107.243 62.3012 107.283 62.4348 107.319 62.5779C107.354 62.7211 107.471 63.0802 107.668 63.6551C107.866 64.2298 108.083 64.7928 108.318 65.3445C108.554 65.8961 108.729 66.2829 108.845 66.5052C108.961 66.7274 109.021 66.8326 109.026 66.8204C109.031 66.808 109.026 66.753 109.01 66.6553C108.994 66.5577 108.98 66.4903 108.968 66.4532" stroke="#3D5330" stroke-width="4" stroke-linecap="round" stroke-linejoin="round"/>
<path d="M121.002 41.6577C120.958 41.659 120.936 41.6605 120.939 41.6618C120.942 41.6631 120.941 41.6642 120.937 41.6653C120.932 41.6669 120.927 41.6662 120.922 41.6633C120.916 41.6604 120.91 41.6617 120.904 41.6672C120.898 41.6728 120.896 41.6921 120.896 41.7251C120.897 41.7585 120.9 41.7764 120.905 41.7788C120.909 41.7809 120.91 41.7801 120.907 41.7767C120.904 41.773 120.9 41.7779 120.896 41.7914C120.893 41.8049 120.975 41.8601 121.144 41.9569C121.313 42.0537 121.54 42.1636 121.825 42.2863C122.111 42.4091 122.301 42.4979 122.395 42.553C122.489 42.6077 122.635 42.7085 122.835 42.8551C123.034 43.0011 123.197 43.125 123.325 43.2269C123.453 43.3288 123.56 43.4223 123.645 43.5075C123.731 43.5929 123.827 43.7146 123.935 43.8726C124.043 44.0305 124.192 44.3446 124.382 44.8147C124.572 45.2846 124.739 45.7357 124.881 46.168C125.024 46.6001 125.129 46.9565 125.199 47.2375C125.268 47.5182 125.324 47.726 125.366 47.8612C125.407 47.9962 125.546 48.4641 125.782 49.2649C126.018 50.066 126.202 50.6706 126.334 51.0783C126.466 51.4862 126.568 51.7878 126.639 51.983C126.71 52.1783 126.762 52.3166 126.796 52.3981C126.83 52.4796 126.87 52.5949 126.918 52.7442C126.965 52.8931 127.037 53.1218 127.133 53.4303C127.229 53.7385 127.337 54.0747 127.456 54.4387C127.576 54.8028 127.669 55.0876 127.737 55.2935C127.804 55.4996 127.86 55.6806 127.904 55.8364C127.948 55.9923 127.986 56.1693 128.019 56.3678C128.052 56.5659 128.095 56.739 128.149 56.8869C128.202 57.035 128.276 57.258 128.37 57.5556C128.464 57.8535 128.534 58.0791 128.58 58.2323C128.626 58.3854 128.647 58.4573 128.645 58.4477C128.642 58.4379 128.637 58.4284 128.632 58.4194C128.626 58.4107 128.619 58.4008 128.611 58.3894" stroke="#3D5330" stroke-width="4" stroke-linecap="round" stroke-linejoin="round"/>
<path d="M128.413 58.1354C128.412 58.1391 128.413 58.1416 128.415 58.1429C128.418 58.1445 128.431 58.1562 128.454 58.1782C128.478 58.2002 128.493 58.2134 128.499 58.2179C128.505 58.2224 128.509 58.2252 128.511 58.2263C128.513 58.2273 128.512 58.2295 128.509 58.2327C128.507 58.2353 128.504 58.2302 128.502 58.2175C128.499 58.2046 128.537 58.2323 128.615 58.3009C128.694 58.3696 128.749 58.4371 128.779 58.503C128.81 58.5688 128.83 58.6165 128.839 58.6462C128.847 58.6758 128.854 58.7074 128.86 58.7413C128.866 58.7752 128.868 58.7925 128.868 58.793C128.868 58.7936 128.87 58.7983 128.873 58.8076C128.876 58.8166 128.881 58.8356 128.887 58.8647C128.894 58.8938 128.9 58.923 128.906 58.9521C128.912 58.9812 128.919 59.0107 128.928 59.0403C128.936 59.0699 128.942 59.0889 128.944 59.0977C128.946 59.1067 128.947 59.1106 128.946 59.1093C128.945 59.1077 128.946 59.1097 128.949 59.1153C128.953 59.1209 128.958 59.1553 128.965 59.2188C128.972 59.2825 128.979 59.3573 128.988 59.443C128.996 59.529 129.004 59.5957 129.01 59.6433C129.016 59.691 129.019 59.7228 129.017 59.7387C129.015 59.7543 129.015 59.7718 129.015 59.7914C129.015 59.8112 129.017 59.8357 129.021 59.8648C129.026 59.8942 129.028 59.9233 129.028 59.9518C129.028 59.9804 129.031 60.0156 129.036 60.0574C129.042 60.0995 129.045 60.1255 129.045 60.1355C129.046 60.1461 129.045 60.1576 129.043 60.17C129.041 60.1827 129.04 60.1875 129.04 60.1844C129.041 60.1809 129.04 60.1767 129.039 60.172C129.037 60.1672 129.039 60.2103 129.043 60.301C129.048 60.392 129.032 60.5099 128.994 60.6546C128.957 60.7994 128.919 60.9126 128.88 60.9943C128.842 61.0758 128.797 61.1555 128.745 61.2333C128.694 61.3113 128.621 61.4003 128.528 61.5003C128.435 61.6003 128.352 61.686 128.279 61.7574C128.207 61.8291 128.14 61.8855 128.081 61.9262C128.021 61.9672 127.979 61.994 127.955 62.007C127.931 62.02 127.909 62.0307 127.886 62.0392C127.864 62.0476 127.854 62.0518 127.857 62.0516C127.86 62.0513 127.862 62.0508 127.863 62.05C127.864 62.0495 127.865 62.0495 127.865 62.05C127.866 62.0503 127.866 62.0504 127.867 62.0504C127.867 62.0504 127.867 62.0507 127.867 62.0512C127.868 62.0514 127.867 62.0514 127.867 62.0512C127.866 62.0509 127.865 62.0512 127.863 62.052C127.862 62.0528 127.86 62.0534 127.859 62.0539C127.857 62.0544 127.839 62.0571 127.804 62.0618C127.768 62.0669 127.735 62.0717 127.704 62.0762C127.672 62.0807 127.658 62.0835 127.66 62.0845C127.661 62.0858 127.663 62.086 127.666 62.0849C127.669 62.0841 127.669 62.0839 127.667 62.0841C127.665 62.0847 127.656 62.0864 127.641 62.0896C127.626 62.093 127.61 62.0966 127.593 62.1C127.577 62.1035 127.564 62.1047 127.554 62.1039" stroke="#3D5330" stroke-width="4" stroke-linecap="round" stroke-linejoin="round"/>
<path d="M127.754 62.1784C127.756 62.1769 127.755 62.1769 127.749 62.1784C127.742 62.18 127.758 62.1821 127.796 62.1844C127.834 62.1863 127.869 62.183 127.9 62.1746C127.931 62.1658 127.957 62.1593 127.977 62.1554C127.998 62.1514 128.005 62.1501 128 62.1511C127.994 62.1522 127.992 62.1525 127.993 62.1523C127.994 62.152 127.995 62.1525 127.997 62.1538C127.998 62.1557 127.996 62.1538 127.989 62.1482C127.983 62.1424 127.941 62.1495 127.864 62.1693C127.786 62.1889 127.717 62.2157 127.655 62.2496C127.593 62.2834 127.532 62.3171 127.47 62.3507C127.408 62.384 127.347 62.4147 127.287 62.4427C127.226 62.4708 127.17 62.4981 127.118 62.5245C127.065 62.551 126.973 62.5959 126.841 62.6594C126.709 62.7226 126.597 62.7727 126.507 62.8098C126.417 62.8468 126.323 62.8896 126.223 62.938C126.123 62.9867 126.016 63.0302 125.901 63.0683C125.787 63.1066 125.701 63.1323 125.645 63.1456C125.588 63.1588 125.521 63.1811 125.444 63.2126C125.366 63.2441 125.121 63.3315 124.707 63.4746C124.294 63.6177 123.975 63.7254 123.751 63.7976C123.527 63.8699 123.357 63.9267 123.242 63.968C123.127 64.009 122.952 64.071 122.718 64.1544C122.484 64.238 122.233 64.3297 121.965 64.4297C121.697 64.5295 121.499 64.5951 121.371 64.6266C121.243 64.6583 121.138 64.6964 121.055 64.7405C120.972 64.785 120.843 64.8403 120.666 64.9064C120.49 64.9723 120.353 65.025 120.255 65.0647C120.156 65.1047 120.026 65.1611 119.863 65.2339C119.701 65.3064 119.567 65.3653 119.462 65.4108C119.358 65.4563 119.273 65.4909 119.208 65.5145C119.143 65.538 119.097 65.5535 119.07 65.5612C119.043 65.5688 118.933 65.598 118.741 65.6486C118.549 65.6991 118.323 65.7641 118.066 65.8437C117.804 65.9106 117.577 65.9787 117.385 66.0477C117.189 66.1044 117.032 66.1508 116.915 66.1871C116.797 66.223 116.722 66.2487 116.689 66.264C116.656 66.2793 116.546 66.3199 116.36 66.3855C116.174 66.4511 115.994 66.5116 115.82 66.5669C115.647 66.6224 115.495 66.6729 115.365 66.7184C115.234 66.7642 115.122 66.8025 115.029 66.8335C114.936 66.8647 114.846 66.8973 114.761 66.9312C114.677 66.9648 114.577 66.9963 114.462 67.0259C114.347 67.0556 114.249 67.0864 114.169 67.1182C114.088 67.1496 113.977 67.1938 113.836 67.2507C113.695 67.3076 113.556 67.3453 113.419 67.3641C113.283 67.3831 113.17 67.4059 113.08 67.4321C112.99 67.4583 112.898 67.4831 112.804 67.5067C112.709 67.53 112.624 67.5524 112.547 67.5741C112.47 67.5958 112.345 67.6386 112.17 67.7026C111.995 67.7669 111.842 67.83 111.712 67.8919C111.581 67.9541 111.483 67.9994 111.417 68.0277C111.351 68.056 111.311 68.0718 111.296 68.0752C111.282 68.0789 111.245 68.0994 111.184 68.1364C111.123 68.1732 111.054 68.2054 110.978 68.2331C110.902 68.2609 110.851 68.281 110.824 68.2932C110.798 68.3051 110.767 68.3154 110.731 68.3244C110.696 68.3334 110.661 68.3395 110.626 68.3424C110.591 68.3451 110.564 68.3492 110.547 68.355C110.529 68.3606 110.515 68.363 110.504 68.3622C110.492 68.3614 110.478 68.3618 110.461 68.3634C110.445 68.3639 110.43 68.3633 110.416 68.3614C110.402 68.3582 110.393 68.3553 110.389 68.3527" stroke="#3D5330" stroke-width="4" stroke-linecap="round" stroke-linejoin="round"/>
<path d="M111.301 67.8022C111.31 67.8856 111.313 67.9213 111.31 67.9094C111.307 67.8972 111.306 67.899 111.307 67.9146C111.308 67.9302 111.294 67.9517 111.266 67.9789C111.238 68.0065 111.214 68.0234 111.194 68.0297C111.175 68.0363 111.164 68.0384 111.163 68.0357C111.162 68.0331 111.142 68.036 111.103 68.0444C111.065 68.0526 110.979 68.054 110.846 68.0487C110.713 68.0434 110.574 68.0187 110.428 67.9745C110.282 67.9303 110.172 67.8981 110.098 67.878C110.023 67.8576 109.925 67.8252 109.802 67.7805C109.678 67.7358 109.571 67.6917 109.478 67.6484C109.386 67.6052 109.309 67.5586 109.247 67.5086C109.186 67.4584 109.144 67.4152 109.122 67.3792C109.101 67.3435 109.088 67.3189 109.083 67.3054C109.079 67.2921 109.076 67.2839 109.074 67.2808C109.073 67.2776 109.065 67.2614 109.051 67.2323C109.037 67.2032 109.033 67.1886 109.04 67.1883C109.047 67.1881 109.029 67.1372 108.987 67.0356C108.945 66.934 108.908 66.855 108.875 66.7986C108.843 66.7423 108.819 66.7038 108.804 66.6832C108.79 66.6625 108.779 66.6483 108.774 66.6403C108.768 66.6321 108.767 66.6298 108.769 66.6335C108.772 66.6372 108.764 66.63 108.747 66.612C108.731 66.5919 108.713 66.5744 108.693 66.5593" stroke="#3D5330" stroke-width="4" stroke-linecap="round" stroke-linejoin="round"/>
<path d="M118.825 43.7594C118.842 43.7605 118.834 43.7332 118.801 43.6777C118.767 43.6224 118.753 43.6055 118.759 43.6269C118.766 43.6486 118.768 43.6585 118.768 43.6564C118.767 43.6542 118.768 43.6544 118.771 43.6567C118.773 43.6591 118.773 43.663 118.771 43.6686C118.768 43.6741 118.78 43.7037 118.806 43.7571C118.832 43.8103 118.859 43.8534 118.888 43.8862C118.917 43.919 118.943 43.9456 118.968 43.9662C118.992 43.9868 119.012 44.0033 119.029 44.0154C119.046 44.0279 119.062 44.0399 119.077 44.0513C119.093 44.0626 119.135 44.0861 119.205 44.1218C119.276 44.1575 119.343 44.1863 119.407 44.208C119.471 44.2297 119.534 44.2487 119.596 44.2654C119.658 44.2823 119.703 44.2944 119.733 44.3012C119.763 44.3079 119.825 44.3193 119.919 44.3357C120.013 44.3521 120.15 44.4064 120.33 44.4985C120.509 44.5906 120.671 44.6868 120.816 44.787C120.959 44.8873 121.074 44.9625 121.158 45.0128C121.243 45.063 121.339 45.1963 121.447 45.4127C121.555 45.6291 121.632 45.7909 121.676 45.8978C121.721 46.0046 121.756 46.0894 121.782 46.1518C121.808 46.2142 121.839 46.2933 121.877 46.3894C121.915 46.4854 121.979 46.6739 122.069 46.9546C122.159 47.2353 122.247 47.4841 122.331 47.701C122.416 47.9177 122.483 48.0786 122.532 48.1839C122.581 48.2895 122.62 48.3736 122.651 48.436C122.682 48.4984 122.72 48.5845 122.767 48.6943C122.814 48.8044 122.851 48.8957 122.879 48.9685C122.908 49.0413 122.974 49.1982 123.079 49.4392C123.184 49.6805 123.266 49.9106 123.325 50.1294C123.384 50.3479 123.414 50.4578 123.413 50.4588C123.413 50.4599 123.413 50.4601 123.412 50.4596C123.412 50.4593 123.412 50.4591 123.413 50.4588C123.414 50.4586 123.42 50.4547 123.432 50.4476C123.444 50.4407 123.461 50.4311 123.484 50.4187" stroke="#3D5330" stroke-width="4" stroke-linecap="round" stroke-linejoin="round"/>
<path d="M124.057 51.9485C124.06 51.9451 124.052 51.9314 124.035 51.9076C124.172 51.8185 124.21 51.7825 124.148 51.7997C124.08 51.8029 124.052 51.8089 124.064 51.8179C124.075 51.8274 124.079 51.8319 124.076 51.8311C124.073 51.83 124.073 51.8314 124.077 51.8354C124.08 51.8393 124.079 51.8382 124.074 51.8319C124.069 51.8255 124.102 51.9347 124.172 52.1595C124.243 52.385 124.322 52.5975 124.409 52.7973C124.497 52.9975 124.519 53.0937 124.477 53.0858C124.435 53.0789 124.422 53.0758 124.436 53.0763C124.451 53.0773 124.454 53.0759 124.445 53.0716C124.436 53.0677 124.434 53.0612 124.439 53.0525C124.443 53.0437 124.407 53.0166 124.33 52.9711C124.288 52.9197 124.262 52.8828 124.25 52.86C124.239 52.8373 124.229 52.8196 124.223 52.8069C124.216 52.7942 124.208 52.7751 124.198 52.7494C124.187 52.724 124.173 52.6946 124.154 52.6612C124.135 52.6276 124.118 52.5955 124.101 52.5651C124.084 52.5347 124.074 52.5164 124.071 52.5101C124.068 52.5037 124.066 52.4999 124.066 52.4988C124.066 52.4978 124.066 52.4958 124.066 52.4926C124.067 52.4892 124.066 52.4851 124.065 52.4806C124.064 52.4764 124.063 52.4742 124.063 52.4742C124.063 52.4742 124.062 52.4736 124.062 52.4723C124.061 52.471 124.059 52.4681 124.057 52.4636C124.054 52.4591 124.047 52.4432 124.035 52.4159C124.022 52.3887 124.014 52.3711 124.011 52.3632C124.007 52.3553 124.005 52.3526 124.007 52.3553C124.008 52.3582 124.008 52.359 124.008 52.358C124.008 52.3569 124.008 52.3589 124.008 52.364C124.008 52.369 124.01 52.3555 124.013 52.3235C124.015 52.2917 124.018 52.2725 124.02 52.2659" stroke="#3D5330" stroke-width="4" stroke-linecap="round" stroke-linejoin="round"/>
<path d="M51.1225 50.3158C51.1185 50.3337 51.1171 50.343 51.1181 50.3433C51.1192 50.3435 51.1336 50.3509 51.1612 50.3657C51.1889 50.3806 51.2066 50.3844 51.2142 50.377C51.2216 50.369 51.2251 50.365 51.2249 50.365C51.2246 50.365 51.2242 50.366 51.2237 50.3679C51.2229 50.37 51.232 50.3593 51.251 50.3357C51.2702 50.3122 51.2973 50.2803 51.3324 50.2404C51.3677 50.2004 51.395 50.1671 51.4142 50.1404C51.4334 50.1137 51.4543 50.0879 51.4767 50.0631C51.4993 50.0382 51.5246 50.0021 51.5526 49.9547C51.5805 49.9074 51.6546 49.7887 51.7747 49.5988C51.8949 49.4088 51.9957 49.23 52.0771 49.0622C52.1588 48.8942 52.2189 48.761 52.2574 48.6629C52.2959 48.5644 52.3403 48.476 52.3906 48.3974C52.4412 48.3188 52.4805 48.2398 52.5084 48.1602C52.4986 48.1041 52.4787 48.0477 52.4487 47.991C52.4184 47.9344 52.3975 47.875 52.3859 47.8126C52.3743 47.7504 52.2988 47.6633 52.1594 47.5514C52.0199 47.4394 51.8956 47.3444 51.7862 47.2663C51.6771 47.1883 51.5416 47.0901 51.3798 46.9716C51.2175 46.8523 50.8512 46.5946 50.2809 46.1988C49.7096 45.8012 49.2779 45.4998 48.9859 45.2945C48.6934 45.0886 48.4135 44.9077 48.1463 44.7519C47.8791 44.5961 47.6227 44.4492 47.3771 44.3111C47.1312 44.173 46.9474 44.0659 46.8256 43.99C46.7041 43.9143 46.5654 43.8299 46.4094 43.7365C46.2534 43.6431 46.0184 43.5097 45.7045 43.3364C45.3907 43.1631 45.1329 43.0212 44.9313 42.9106C44.7297 42.8001 44.5409 42.6959 44.3649 42.5983C44.1888 42.5009 43.9982 42.3922 43.7929 42.2723C43.5873 42.1525 43.3928 42.0469 43.2094 41.9553C43.0257 41.8641 42.8663 41.8008 42.7311 41.7656C42.5959 41.7302 42.4307 41.6756 42.2354 41.6021C42.0404 41.5285 41.8284 41.3996 41.5994 41.2149C41.3619 41.0451 41.1053 40.8645 40.8293 40.6735C40.5537 40.483 40.3447 40.3422 40.2024 40.2509C40.0601 40.1599 39.9468 40.0882 39.8624 40.0358C39.7781 39.9832 39.6467 39.9018 39.4683 39.792C39.2897 39.682 38.9874 39.4993 38.5615 39.244C38.1359 38.9887 37.7975 38.7783 37.5464 38.6127C37.2953 38.4468 37.1108 38.3293 36.993 38.2602C36.8752 38.1915 36.7802 38.1397 36.708 38.105C36.6358 38.0701 36.5812 38.0449 36.5443 38.0293C36.5077 38.0134 36.4755 37.9991 36.4479 37.9864C36.4202 37.974 36.3979 37.9641 36.3811 37.957C36.3645 37.9496 36.3472 37.9425 36.3293 37.9357C36.3114 37.9285 36.2944 37.9222 36.2783 37.9167C36.2619 37.9111 36.2348 37.903 36.1969 37.8925C36.1589 37.8821 36.1277 37.8767 36.1032 37.8762C36.0787 37.8757 36.0536 37.8728 36.0281 37.8675C36.0025 37.8624 35.9924 37.8606 35.9976 37.8622C36.0026 37.8641 36.0001 37.8637 35.9901 37.8611C35.9798 37.8582 35.9701 37.8561 35.9609 37.8551C35.9514 37.8543 35.9383 37.8533 35.9217 37.852C35.9049 37.8506 35.8905 37.8503 35.8786 37.8508C35.8668 37.8511 35.8515 37.8493 35.8328 37.8456C35.8138 37.8419 35.7947 37.8374 35.7755 37.8324C35.756 37.8274 35.7507 37.8248 35.7596 37.8248C35.7686 37.8248 35.7083 37.8255 35.5786 37.8266C35.449 37.8276 35.308 37.8479 35.1556 37.8876C35.0033 37.9273 34.8846 37.9634 34.7995 37.9959C34.7144 38.0285 34.6242 38.0611 34.5291 38.0936C34.4342 38.1256 34.3529 38.1618 34.2852 38.2023C34.2175 38.2428 34.1661 38.2807 34.131 38.3159C34.096 38.3513 34.0728 38.3832 34.0615 38.4118C34.0501 38.4406 34.0355 38.4671 34.0176 38.4912C33.9994 38.5156 33.9671 38.5783 33.9207 38.6794C33.8741 38.7802 33.8421 38.86 33.8247 38.9187C33.807 38.9769 33.7908 39.0662 33.7761 39.1869C33.7613 39.3078 33.7419 39.3988 33.7179 39.4599C33.6937 39.521 33.6663 39.5951 33.6357 39.6822C33.6054 39.7695 33.5802 39.8369 33.5602 39.8843C33.5404 39.9314 33.5273 39.9649 33.5207 39.985C33.5138 40.0051 33.5083 40.0217 33.5041 40.0346C33.4999 40.0476 33.4983 40.0593 33.4993 40.0699C33.5004 40.0808 33.5009 40.089 33.5009 40.0945C33.5009 40.0998 33.5045 40.1185 33.5116 40.1505C33.5184 40.1825 33.5282 40.2098 33.5409 40.2323C33.5532 40.2548 33.5639 40.2719 33.5729 40.2838C33.5818 40.296 33.5885 40.3056 33.593 40.3127C33.5972 40.3198 33.6005 40.3243 33.6029 40.3259C33.6053 40.3272 33.6832 40.3961 33.8365 40.5326C33.9896 40.6692 34.1171 40.7861 34.2188 40.8838C34.3205 40.9814 34.4023 41.053 34.4643 41.0985C34.5262 41.144 34.6578 41.237 34.8592 41.3775C35.0605 41.518 35.2413 41.6389 35.4015 41.7402C35.562 41.8418 35.7388 41.9522 35.932 42.0712C36.1249 42.1903 36.3235 42.3305 36.5277 42.4919C36.732 42.6535 36.9187 42.7869 37.0879 42.8922C37.257 42.9975 37.3876 43.0819 37.4796 43.1451C37.5713 43.2083 37.7741 43.3615 38.088 43.6044C38.4016 43.8475 38.6563 44.0372 38.8521 44.1737C39.0481 44.3102 39.1944 44.4083 39.2908 44.4678C39.3873 44.5276 39.4715 44.5807 39.5434 44.6273C39.6154 44.6739 39.7228 44.7413 39.8656 44.8294C40.0084 44.9178 40.2139 45.0441 40.4819 45.2084C40.7499 45.3727 40.9611 45.5013 41.1155 45.5944C41.27 45.6876 41.4013 45.7646 41.5097 45.8254C41.6182 45.8863 41.8881 46.0348 42.3192 46.2711C42.7506 46.5073 43.0874 46.6897 43.3296 46.8183C43.5721 46.9472 43.785 47.0782 43.9684 47.2113C44.1516 47.3446 44.3454 47.4735 44.5499 47.5979C44.7544 47.7219 44.9302 47.8317 45.0772 47.9275C45.224 48.0232 45.4289 48.1515 45.6919 48.3121C45.9549 48.4722 46.162 48.5961 46.3133 48.684C46.4646 48.7718 46.6123 48.8444 46.7564 48.9018C46.9003 48.9595 47.0132 49.0082 47.0952 49.0479C47.1774 49.0873 47.2495 49.1146 47.3114 49.1297C47.3734 49.1447 47.4855 49.1936 47.6478 49.2761C47.8099 49.3587 48.0131 49.4713 48.2574 49.6145C48.5019 49.7573 48.6906 49.8626 48.8234 49.9298C48.9565 49.9967 49.0872 50.072 49.2156 50.1559C49.3439 50.2395 49.4381 50.3008 49.4982 50.34C49.5441 50.3863 49.5916 50.4175 49.6409 50.4334C49.6852 50.4516 49.7884 50.504 49.9504 50.5905C50.1078 50.6797 50.2199 50.7556 50.2868 50.8186C50.3535 50.8805 50.4052 50.9203 50.4418 50.9378C50.479 50.955 50.5252 50.9667 50.5805 50.973C50.6362 50.9796 50.6687 50.9841 50.6782 50.9868C50.6877 50.9894 50.704 50.9889 50.7272 50.9852C50.7504 50.9818 50.764 50.9806 50.7679 50.9814C50.7719 50.9822 50.7813 50.9831 50.7964 50.9845C50.8114 50.9858 50.8186 50.9868 50.8181 50.9874C50.8173 50.9876 50.8175 50.9871 50.8185 50.986C50.8193 50.9852 50.819 50.986 50.8177 50.9881C50.8164 50.9903 50.8296 50.9914 50.8572 50.9916C50.8849 50.9922 50.8981 50.9911 50.8968 50.9881C50.8955 50.9852 50.8929 50.9852 50.8893 50.9881C50.8856 50.9908 50.8997 50.9842 50.9316 50.9686C50.9635 50.953 50.989 50.9359 51.0082 50.9174C51.0275 50.8994 51.0407 50.8849 51.0478 50.8738C51.0551 50.8627 51.0606 50.855 51.064 50.8508C51.0677 50.8471 51.0714 50.8444 51.0751 50.8428C51.0787 50.8415 51.0965 50.8203 51.1284 50.7793C51.1603 50.738 51.1902 50.6985 51.2182 50.6607C51.2464 50.6228 51.272 50.5895 51.2952 50.5607C51.3184 50.5316 51.3399 50.4896 51.3597 50.4345C51.3794 50.3798 51.4051 50.3083 51.4367 50.2202C51.4686 50.1324 51.4872 50.064 51.4925 50.015C51.4977 49.9658 51.5008 49.938 51.5016 49.9317" stroke="#3D5330" stroke-width="4" stroke-linecap="round" stroke-linejoin="round"/>
<path d="M49.3613 50.8205C49.3468 50.8623 49.3571 50.8359 49.3922 50.7412C49.4275 50.6463 49.4492 50.5951 49.4574 50.588C49.4656 50.5808 49.4893 50.6563 49.5285 50.8143C49.5678 50.972 49.6084 51.121 49.6503 51.2615C49.6925 51.4015 49.7292 51.5766 49.7606 51.7872C49.7917 51.9976 49.8128 52.1701 49.8238 52.3048C49.8346 52.4392 49.8665 52.6187 49.9195 52.8433C49.9722 53.0677 50.0084 53.2743 50.0282 53.4632C50.0477 53.6516 50.0511 53.8104 50.0385 53.9395C50.0258 54.0683 50.0248 54.2363 50.0353 54.4435C50.0461 54.6501 50.0693 54.8292 50.1049 54.9808C50.1405 55.1319 50.1596 55.2967 50.1622 55.4755C50.1646 55.6544 50.1654 55.8078 50.1646 55.9356C50.164 56.0628 50.1732 56.1876 50.1919 56.3101C50.2108 56.4321 50.224 56.5231 50.2314 56.5832C50.2388 56.6432 50.2316 56.667 50.21 56.6543C50.1887 56.641 50.1792 56.6339 50.1816 56.6331C50.1842 56.6324 50.1838 56.6328 50.1804 56.6341C50.1767 56.6352 50.1639 56.6142 50.142 56.5713C50.1199 56.5282 50.0921 56.471 50.0586 56.3998C50.0252 56.3287 49.9956 56.2652 49.9701 56.2094C49.9448 56.1535 49.9236 56.0969 49.9064 56.0392C49.8893 55.9813 49.8345 55.899 49.742 55.7924C49.6493 55.6855 49.5759 55.604 49.5218 55.5482C49.4675 55.4924 49.399 55.443 49.3163 55.4002C49.2335 55.3576 49.1711 55.3304 49.1289 55.3188C49.087 55.3069 49.0471 55.2984 49.0091 55.2934C48.9712 55.2881 48.863 55.2619 48.6846 55.2145C48.5062 55.1669 48.3739 55.1295 48.2877 55.1025C48.2018 55.0755 48.131 55.0589 48.0754 55.0525C48.0198 55.0464 47.9484 55.0443 47.8612 55.0461C47.774 55.048 47.7093 55.0487 47.6671 55.0479C47.6252 55.0473 47.5161 55.0275 47.3398 54.9886C47.1637 54.9497 47.0126 54.9227 46.8864 54.9074C46.7602 54.892 46.67 54.8825 46.616 54.8791C46.5622 54.8759 46.468 54.8475 46.3333 54.7938C46.1987 54.7396 46.0962 54.6701 46.0258 54.5851C45.947 54.5031 45.8772 54.4375 45.8163 54.3883C45.7557 54.3393 45.7084 54.2998 45.6744 54.2697C45.6401 54.2393 45.5971 54.174 45.5451 54.074C45.4932 53.9737 45.4605 53.8868 45.4471 53.8135C45.4337 53.7402 45.4237 53.6877 45.4171 53.656C45.4107 53.6245 45.4006 53.5805 45.3866 53.5238C45.3729 53.4675 45.3625 53.4249 45.3554 53.3958C45.348 53.3666 45.3437 53.3376 45.3424 53.3087C45.341 53.2802 45.3234 53.1952 45.2894 53.0539C45.2557 52.9127 45.2245 52.7911 45.1961 52.6892C45.1679 52.5874 45.1086 52.448 45.0182 52.2707C44.9278 52.0934 44.8534 51.9605 44.7949 51.8719C44.7364 51.7835 44.6956 51.7192 44.6727 51.6793C44.6501 51.6393 44.5972 51.568 44.5142 51.4654C44.4315 51.3627 44.31 51.2588 44.1497 51.1532C43.9898 51.0476 43.8617 50.9682 43.7655 50.915C43.6693 50.8621 43.5394 50.8182 43.3757 50.7833C43.2118 50.7481 43.0521 50.7185 42.8966 50.6947C42.7414 50.6712 42.6299 50.6541 42.5622 50.6436C42.4945 50.633 42.4119 50.6255 42.3144 50.6213C42.2171 50.6173 42.0829 50.6186 41.9116 50.625C41.7405 50.631 41.6071 50.638 41.5111 50.6459C41.4155 50.6538 41.3458 50.6624 41.302 50.6717C41.2583 50.6807 41.2269 50.6876 41.2079 50.6924C41.1892 50.6969 41.1471 50.7057 41.0814 50.7189C41.0158 50.7324 40.9685 50.7421 40.9395 50.7476C40.9103 50.7534 40.8789 50.7577 40.8455 50.7606C40.812 50.7638 40.7677 50.7691 40.7126 50.7765C40.6573 50.7836 40.5913 50.7875 40.5146 50.7883C40.4376 50.7891 40.3417 50.7741 40.2268 50.7432C40.1119 50.7125 40.0275 50.6853 39.9734 50.6618C39.9194 50.6385 39.8302 50.5986 39.7058 50.542C39.5812 50.4851 39.4319 50.3766 39.2579 50.2165C39.0843 50.0567 38.9395 49.9147 38.8235 49.7904C38.7075 49.666 38.5958 49.507 38.4883 49.3133C38.3805 49.1196 38.296 48.9598 38.2349 48.8339C38.1735 48.7077 38.1287 48.5718 38.1005 48.426C38.0723 48.28 38.0333 48.1126 37.9835 47.9239C37.9337 47.7356 37.8873 47.5841 37.8444 47.4695C37.8014 47.3552 37.7635 47.2616 37.7305 47.1886C37.6976 47.1155 37.642 47.0344 37.5637 46.945C37.4852 46.8556 37.375 46.7562 37.2332 46.647C37.0914 46.5374 36.9768 46.4544 36.8893 46.3983C36.8018 46.3423 36.6763 46.2775 36.5126 46.204C36.3487 46.1302 36.2101 46.0693 36.0967 46.0215C35.9834 45.9736 35.8307 45.9382 35.6386 45.9155C35.4465 45.893 35.3093 45.878 35.2271 45.8703C35.1449 45.8626 35.0163 45.8689 34.8413 45.8893C34.6663 45.9097 34.4965 45.935 34.3317 45.9655C34.1668 45.9961 34.0245 46.0337 33.9048 46.0778C33.7852 46.122 33.6662 46.1415 33.5479 46.1362C33.4298 46.1309 33.3083 46.1007 33.1834 46.0457C33.0582 45.9904 32.9524 45.9468 32.866 45.9151C32.7793 45.8828 32.6458 45.8155 32.4655 45.7132C32.285 45.6108 32.1126 45.4882 31.9481 45.3456C31.7834 45.2032 31.6454 45.0745 31.5342 44.9594C31.4233 44.8446 31.3111 44.719 31.1978 44.5825C31.0842 44.4462 30.9463 44.2959 30.784 44.1316C30.6216 43.9673 30.4988 43.8412 30.4155 43.7531C30.332 43.665 30.2199 43.582 30.0791 43.5045C29.9384 43.427 29.8051 43.3561 29.6791 43.2916C29.5529 43.227 29.4526 43.1803 29.3783 43.1515C29.3042 43.1224 29.2493 43.1028 29.2134 43.0927C29.1776 43.0824 29.1456 43.0719 29.1174 43.0613C29.0892 43.0505 29.0432 43.0299 28.9794 42.9997C28.9156 42.9698 28.8822 42.9513 28.879 42.9439C28.8756 42.9368 28.9511 42.9089 29.1055 42.8602C29.2597 42.8118 29.3908 42.7716 29.4988 42.7399C29.6069 42.7081 29.699 42.6802 29.7752 42.6562C29.8511 42.6318 29.9089 42.6119 29.9487 42.5963C29.9885 42.5807 30.0465 42.5511 30.1226 42.5077C30.199 42.4641 30.2951 42.4016 30.4108 42.3204C30.5265 42.2389 30.6651 42.1688 30.8266 42.1101C30.9879 42.0511 31.1518 42.0013 31.3184 41.9605C31.4852 41.9195 31.6225 41.881 31.7303 41.845C31.8381 41.8088 31.9627 41.7632 32.1042 41.7084C32.246 41.6536 32.3683 41.6091 32.4711 41.5747C32.5741 41.5406 32.6595 41.5133 32.7272 41.4929C32.7952 41.4726 32.8412 41.4565 32.8652 41.4449C32.8894 41.4332 32.908 41.4244 32.9209 41.4183C32.9338 41.4125 33.001 41.3927 33.1225 41.3588C33.244 41.325 33.3587 41.3035 33.4664 41.2945C33.5742 41.2858 33.6634 41.3022 33.734 41.3437C33.8044 41.3855 33.8462 41.409 33.8594 41.4141" stroke="#3D5330" stroke-width="4" stroke-linecap="round" stroke-linejoin="round"/>
<path d="M30.9349 45.8474C30.9215 45.8527 30.9205 45.8528 30.9321 45.8478C30.9435 45.8427 30.944 45.8432 30.9337 45.8493C30.9237 45.8557 30.9324 45.8515 30.9598 45.8367C30.9875 45.8219 31.0149 45.807 31.042 45.7921C31.0692 45.7773 31.0908 45.7661 31.1069 45.7584C31.1229 45.7508 31.1314 45.7443 31.1322 45.7391C31.1332 45.734 31.0652 45.7427 30.9282 45.7652C30.7914 45.7877 30.6151 45.8056 30.3993 45.8191C30.1834 45.8328 30.0008 45.839 29.8514 45.8371C29.7017 45.8352 29.6027 45.8335 29.5545 45.8319C29.5073 45.8321 29.4533 45.8379 29.3925 45.8493C29.3316 45.861 29.2794 45.8723 29.2359 45.8834C29.1937 45.8966 29.1644 45.9166 29.1478 45.9433C29.1325 45.9727 29.0944 45.993 29.0335 46.0041C28.9726 46.015 28.9247 46.0291 28.8896 46.0466C28.8546 46.0638 28.8136 46.0865 28.7667 46.1148C28.7198 46.1428 28.6704 46.1728 28.6185 46.2045C28.5665 46.236 28.4906 46.301 28.3908 46.3994C28.2909 46.4979 28.1972 46.5819 28.1097 46.6517C28.0225 46.7221 27.769 46.9766 27.3492 47.4152C26.9286 47.8541 26.4211 48.4809 25.8269 49.2952C25.2313 50.1103 24.7845 50.7353 24.4864 51.17C24.1881 51.6049 23.9512 51.9635 23.7757 52.2458C23.6002 52.5278 23.4426 52.7968 23.3029 53.0529C23.1632 53.3093 23.0176 53.5652 22.8661 53.8208C22.7146 54.0767 22.5588 54.3357 22.3989 54.5979C22.2392 54.8603 22.1157 55.0667 22.0285 55.217C21.9412 55.3672 21.8163 55.5975 21.6537 55.9076C21.4909 56.2177 21.3584 56.4717 21.2565 56.6699C21.1545 56.868 21.0338 57.0783 20.8944 57.3008C20.755 57.5233 20.6345 57.7169 20.5331 57.8818C20.4316 58.0466 20.3442 58.1921 20.271 58.3183C20.1977 58.4448 20.1133 58.5738 20.0176 58.7053C19.9219 58.8371 19.7017 59.191 19.357 59.7672C19.0126 60.3434 18.6911 60.9275 18.3925 61.5193C18.0942 62.1114 17.8925 62.5355 17.7873 62.7916C17.6819 63.048 17.6362 63.174 17.6502 63.1695C17.6639 63.165 17.7063 63.1213 17.7774 63.0385C17.8489 62.9554 17.8959 62.8956 17.9186 62.8591" stroke="#3D5330" stroke-width="4" stroke-linecap="round" stroke-linejoin="round"/>
<path d="M47.3867 55.4904C47.354 55.4531 47.338 55.4361 47.3388 55.4393C47.3396 55.4422 47.3379 55.4423 47.3337 55.4397C47.3295 55.437 47.3266 55.4322 47.325 55.4253C47.3234 55.4185 47.3182 55.4146 47.3092 55.4135C47.3002 55.4125 47.2821 55.4241 47.2546 55.4484C47.2272 55.4725 47.2142 55.4872 47.2155 55.4928C47.2166 55.4983 47.2176 55.4988 47.2187 55.4937C47.2195 55.4887 47.2129 55.4892 47.1989 55.4953C47.1847 55.5016 47.1967 55.6107 47.2349 55.8226C47.2728 56.035 47.3415 56.3064 47.4408 56.6366C47.5399 56.9668 47.5996 57.1912 47.6199 57.31C47.6404 57.429 47.6597 57.6252 47.6776 57.8985C47.6955 58.1718 47.7068 58.399 47.7116 58.58C47.7166 58.761 47.7134 58.9181 47.7021 59.0514C47.6908 59.1845 47.6568 59.353 47.6001 59.557C47.5435 59.761 47.3843 60.1108 47.1226 60.6063C46.8609 61.1016 46.5983 61.5631 46.3348 61.9912C46.0712 62.4193 45.8457 62.7626 45.658 63.0211C45.4704 63.2796 45.3343 63.4745 45.2497 63.6057C45.1654 63.737 44.869 64.1872 44.3607 64.9565C43.8526 65.7262 43.4732 66.312 43.2226 66.7139C42.972 67.1158 42.7896 67.4162 42.6755 67.6151C42.5612 67.8141 42.4816 67.9567 42.4368 68.0432C42.392 68.1299 42.3234 68.2465 42.2312 68.3925C42.139 68.5386 41.9969 68.7619 41.8051 69.0624C41.613 69.363 41.4058 69.6934 41.1837 70.0538C40.9612 70.4138 40.7872 70.6957 40.6615 70.8994C40.5358 71.1031 40.4226 71.279 40.3219 71.4269C40.2213 71.5748 40.099 71.733 39.9551 71.9018C39.8112 72.0709 39.6959 72.2305 39.6092 72.3808C39.5222 72.5314 39.3865 72.7524 39.202 73.0439C39.0173 73.3352 38.8767 73.5549 38.7803 73.7027C38.6838 73.8506 38.6385 73.9199 38.6443 73.9107C38.6504 73.9014 38.6552 73.8912 38.6589 73.88C38.6626 73.8689 38.6662 73.856 38.6696 73.8409" stroke="#3D5330" stroke-width="4" stroke-linecap="round" stroke-linejoin="round"/>
<path d="M38.7432 73.4918C38.7395 73.4939 38.738 73.4965 38.7388 73.4994C38.7394 73.5026 38.7387 73.5223 38.7368 73.5583C38.7353 73.594 38.7346 73.6158 38.7349 73.624C38.7354 73.6322 38.7359 73.6375 38.7365 73.6399C38.7367 73.6425 38.7347 73.6438 38.7305 73.6435C38.726 73.643 38.7283 73.6371 38.7372 73.6257C38.7462 73.6143 38.7496 73.6665 38.7475 73.7821C38.7454 73.8974 38.7275 73.9917 38.6938 74.065C38.6603 74.138 38.6341 74.1886 38.6151 74.2169C38.5961 74.2452 38.5742 74.2739 38.5495 74.3028C38.525 74.3316 38.5125 74.3461 38.5119 74.3464C38.5114 74.3466 38.5084 74.3514 38.5028 74.3607C38.4976 74.3697 38.4849 74.3873 38.4649 74.4138C38.4449 74.44 38.4246 74.4657 38.404 74.4911C38.3837 74.5168 38.3642 74.5439 38.3455 74.5725C38.3265 74.6008 38.3141 74.6191 38.3084 74.6273C38.3023 74.6353 38.2995 74.6384 38.3001 74.6368C38.3006 74.635 38.2998 74.6374 38.2977 74.644C38.2953 74.6506 38.2697 74.6795 38.221 74.7308C38.1722 74.7819 38.1146 74.8416 38.0482 74.9099C37.9818 74.9779 37.9307 75.0313 37.8949 75.0705C37.859 75.1099 37.834 75.1345 37.8198 75.1443C37.8053 75.1538 37.7897 75.1658 37.7731 75.1798C37.7565 75.1935 37.7374 75.2129 37.7158 75.2377C37.6942 75.2623 37.6714 75.2847 37.6474 75.3048C37.6232 75.3251 37.5954 75.3527 37.564 75.3873C37.5329 75.4217 37.513 75.4426 37.5043 75.4503C37.4959 75.458 37.4856 75.4654 37.4735 75.4726C37.4614 75.4797 37.4569 75.4824 37.46 75.4805C37.4632 75.4784 37.4662 75.475 37.4691 75.4703C37.4723 75.4658 37.4371 75.4976 37.3636 75.5662C37.2901 75.6347 37.179 75.7045 37.0304 75.7754C36.8815 75.8461 36.7589 75.8939 36.6627 75.919C36.5668 75.9444 36.4676 75.9629 36.3651 75.9743C36.2628 75.9859 36.1363 75.9874 35.9856 75.9789C35.8351 75.9704 35.7039 75.9609 35.5919 75.95C35.4801 75.9395 35.3858 75.9232 35.3088 75.9012C35.2319 75.8792 35.1794 75.8628 35.1515 75.852C35.1236 75.8411 35.0981 75.8292 35.0752 75.8159C35.0523 75.803 35.042 75.7976 35.0444 75.7997C35.0465 75.8018 35.0483 75.8031 35.0499 75.8039C35.0512 75.8045 35.0519 75.8051 35.0519 75.8059C35.0519 75.8064 35.0519 75.807 35.0519 75.8072C35.0522 75.8075 35.0522 75.8079 35.0519 75.8084C35.0519 75.8089 35.0518 75.8088 35.0515 75.808C35.051 75.8072 35.0499 75.8063 35.0483 75.8055C35.0467 75.8047 35.0452 75.8039 35.0436 75.8032C35.042 75.8021 35.0266 75.7883 34.9973 75.7619C34.9683 75.7354 34.9408 75.7104 34.9147 75.6869C34.8889 75.6633 34.876 75.6527 34.876 75.6551C34.8762 75.6575 34.8777 75.6597 34.8803 75.6615C34.8832 75.6631 34.8838 75.6631 34.8819 75.6615C34.8798 75.6599 34.8719 75.6539 34.8582 75.6433C34.8448 75.6327 34.8308 75.6217 34.8163 75.6104C34.8021 75.599 34.7915 75.5886 34.7847 75.5793" stroke="#3D5330" stroke-width="4" stroke-linecap="round" stroke-linejoin="round"/>
<path d="M34.8636 75.8021C34.8668 75.8031 34.8655 75.8016 34.8597 75.7976C34.8542 75.7936 34.8639 75.8086 34.889 75.8422C34.914 75.876 34.9413 75.9032 34.9708 75.9236C35 75.9439 35.0236 75.9613 35.0415 75.9759C35.0595 75.9902 35.066 75.9955 35.0613 75.9918C35.0565 75.9878 35.0547 75.9861 35.0558 75.9869C35.0568 75.9877 35.0571 75.9893 35.0566 75.9914C35.0563 75.9935 35.0563 75.9901 35.0566 75.9811C35.0571 75.9721 35.0215 75.9414 34.9498 75.8893C34.8781 75.8371 34.8061 75.7969 34.7336 75.7683C34.6611 75.7398 34.5889 75.7114 34.517 75.6831C34.445 75.6545 34.3757 75.6245 34.309 75.593C34.2424 75.5612 34.1793 75.5324 34.1197 75.5067C34.0604 75.4811 33.9571 75.4345 33.8098 75.367C33.6625 75.2996 33.5412 75.2408 33.4461 75.1905C33.351 75.1402 33.2474 75.0899 33.1354 75.0394C33.0237 74.9888 32.911 74.9285 32.7974 74.8584C32.6838 74.788 32.6014 74.7335 32.55 74.6948C32.4986 74.6562 32.4322 74.615 32.3507 74.5714C32.2693 74.5277 32.0215 74.3811 31.6072 74.1313C31.1927 73.8813 30.8754 73.6865 30.6553 73.5471C30.435 73.4079 30.2666 73.3039 30.1501 73.2351C30.0339 73.1663 29.8575 73.0623 29.6208 72.9226C29.3842 72.7826 29.1286 72.6342 28.854 72.4773C28.5794 72.3201 28.3834 72.1983 28.2661 72.1118C28.1486 72.0256 28.0417 71.9629 27.9456 71.924C27.8491 71.8852 27.7105 71.8139 27.5297 71.7105C27.3487 71.6076 27.2065 71.5284 27.1032 71.4731C26.9999 71.4178 26.8599 71.3469 26.6834 71.2602C26.5065 71.1737 26.3619 71.102 26.2493 71.0451C26.1365 70.9885 26.0472 70.9407 25.9813 70.9021C25.9152 70.8634 25.8692 70.8353 25.8434 70.8176C25.8178 70.8001 25.7154 70.7277 25.5362 70.6002C25.357 70.4727 25.1424 70.3275 24.8923 70.1648C24.6493 69.9907 24.4307 69.8461 24.2365 69.7307C24.0496 69.604 23.8993 69.5033 23.7854 69.429C23.6713 69.3549 23.5961 69.3094 23.5597 69.2922C23.5234 69.275 23.4115 69.2103 23.2241 69.0984C23.0368 68.9868 22.8581 68.8767 22.6881 68.7682C22.5179 68.66 22.3672 68.5666 22.2363 68.488C22.105 68.4097 21.9932 68.342 21.9007 68.2846C21.8082 68.2272 21.7175 68.1742 21.6287 68.1261C21.5399 68.0782 21.4421 68.0159 21.3354 67.9389C21.2289 67.8621 21.1338 67.8008 21.05 67.7548C20.9662 67.709 20.8502 67.6461 20.7021 67.5662C20.5538 67.4863 20.4232 67.3951 20.3104 67.2924C20.1973 67.1895 20.098 67.1093 20.0123 67.0516C19.9264 66.9939 19.84 66.9333 19.753 66.8698C19.6663 66.8061 19.5866 66.7492 19.5139 66.6995C19.4411 66.6495 19.3157 66.5729 19.1375 66.4697C18.9591 66.3668 18.7975 66.2818 18.6525 66.2149C18.5076 66.1477 18.3997 66.0962 18.3288 66.0602C18.2579 66.024 18.216 66.001 18.2031 65.9914C18.1899 65.9816 18.1461 65.9642 18.0718 65.9391C17.9975 65.9137 17.9215 65.8784 17.8437 65.8331C17.766 65.7879 17.7128 65.7582 17.684 65.7442C17.655 65.7304 17.6242 65.7119 17.5915 65.6884C17.5586 65.6646 17.5285 65.6385 17.5014 65.6105C17.474 65.5827 17.4517 65.5634 17.4346 65.5525C17.4175 65.542 17.4052 65.5315 17.3978 65.5211C17.3905 65.5108 17.3802 65.4991 17.367 65.4859C17.3546 65.4721 17.3443 65.4585 17.3362 65.445C17.3291 65.4315 17.3252 65.4221 17.3247 65.4165" stroke="#3D5330" stroke-width="4" stroke-linecap="round" stroke-linejoin="round"/>
<path d="M18.4364 65.801C18.3726 65.8682 18.3447 65.8962 18.3526 65.8851C18.3605 65.8737 18.3584 65.8743 18.3463 65.8864C18.3339 65.8983 18.3061 65.902 18.2629 65.8975C18.2196 65.8927 18.1884 65.8844 18.1692 65.8725C18.1497 65.8603 18.1406 65.8527 18.1419 65.8498C18.1432 65.8469 18.1266 65.8321 18.0921 65.8054C18.0576 65.7784 17.9954 65.7066 17.9055 65.5899C17.8156 65.473 17.7376 65.3368 17.6715 65.1815C17.6051 65.0259 17.5541 64.9094 17.5185 64.8319C17.4829 64.7544 17.4403 64.6473 17.3904 64.5108C17.3409 64.374 17.3016 64.2513 17.2726 64.1423C17.2437 64.0333 17.2284 63.9345 17.2268 63.8462C17.2252 63.7581 17.2318 63.6921 17.2466 63.6481C17.2616 63.6042 17.273 63.5755 17.2809 63.5623C17.2891 63.5491 17.2941 63.5407 17.296 63.5373C17.2975 63.5341 17.3057 63.5162 17.3205 63.4834C17.335 63.4509 17.3446 63.4373 17.3493 63.4425C17.3543 63.4481 17.3849 63.397 17.441 63.2893C17.4972 63.1816 17.5374 63.0941 17.5616 63.0263C17.5861 62.9583 17.6018 62.9106 17.6086 62.8833C17.6155 62.8563 17.6204 62.8378 17.6233 62.8275C17.6259 62.8169 17.6267 62.8137 17.6256 62.8182C17.6243 62.823 17.625 62.8117 17.6276 62.7845C17.6326 62.7565 17.6345 62.7287 17.6331 62.7012" stroke="#3D5330" stroke-width="4" stroke-linecap="round" stroke-linejoin="round"/>
<path d="M44.0676 55.1306C44.0794 55.1464 44.0967 55.1203 44.1194 55.0523C44.142 54.984 44.1465 54.9603 44.1328 54.981C44.1191 55.0016 44.1129 55.0109 44.1142 55.0091C44.1155 55.0069 44.1161 55.0077 44.1158 55.0114C44.1155 55.0153 44.1123 55.0182 44.1059 55.0201C44.0996 55.022 44.0831 55.0527 44.0565 55.1125C44.0299 55.1726 44.0129 55.2265 44.0055 55.2741C43.9984 55.322 43.9947 55.3635 43.9945 55.3987C43.9945 55.4342 43.9951 55.4635 43.9964 55.4865C43.998 55.5095 43.9995 55.5315 44.0008 55.5524C44.0021 55.5736 44.0126 55.6267 44.0324 55.7119C44.0522 55.7968 44.0756 55.8742 44.1028 55.944C44.1296 56.0139 44.158 56.081 44.1878 56.1455C44.2178 56.2101 44.2405 56.2576 44.2557 56.2878C44.271 56.3179 44.3052 56.3788 44.3581 56.4703C44.4114 56.5621 44.4629 56.717 44.5127 56.935C44.5625 57.1533 44.5962 57.3593 44.6139 57.5529C44.6315 57.7469 44.6492 57.8974 44.6669 58.0048C44.6845 58.1125 44.6404 58.2891 44.5344 58.5346C44.4285 58.7801 44.3463 58.96 44.2878 59.0741C44.2293 59.1878 44.1829 59.2777 44.1486 59.3438C44.1144 59.4099 44.0701 59.4932 44.0158 59.5938C43.9618 59.6943 43.8482 59.8827 43.6751 60.1586C43.5022 60.4346 43.3543 60.6856 43.2315 60.9118C43.1087 61.1378 43.0202 61.3089 42.9659 61.4253C42.9116 61.5412 42.8689 61.6345 42.8378 61.7051C42.807 61.7755 42.7617 61.8697 42.7018 61.9877C42.6423 62.1051 42.5918 62.2017 42.5504 62.2774C42.5093 62.3533 42.4241 62.5213 42.2947 62.7814C42.1655 63.0417 42.0298 63.2747 41.8875 63.4803C41.7452 63.6861 41.6735 63.7892 41.6725 63.7898C41.6714 63.79 41.6709 63.7899 41.6709 63.7894C41.6709 63.7888 41.6713 63.7888 41.6721 63.7894C41.6726 63.7899 41.6801 63.7927 41.6946 63.7977C41.7091 63.8027 41.7295 63.8106 41.7559 63.8212" stroke="#3D5330" stroke-width="4" stroke-linecap="round" stroke-linejoin="round"/>
<path d="M40.872 65.3942C40.8771 65.3945 40.8834 65.3786 40.891 65.3465C41.0481 65.3923 41.1004 65.3956 41.048 65.3564C41.0024 65.3038 40.9798 65.2853 40.9804 65.3006C40.9798 65.3162 40.9789 65.3225 40.9776 65.3196C40.9763 65.3167 40.9752 65.3183 40.9744 65.3241C40.9734 65.3296 40.9738 65.3278 40.9756 65.3188C40.9772 65.3098 40.908 65.4152 40.7681 65.6351C40.6281 65.8549 40.5052 66.0733 40.3993 66.2902C40.2928 66.5077 40.2288 66.5967 40.2072 66.557C40.1853 66.5179 40.179 66.5046 40.1882 66.5173C40.1971 66.5298 40.2003 66.5307 40.1977 66.5204C40.195 66.5101 40.1986 66.5036 40.2083 66.5007C40.2184 66.4977 40.2166 66.4485 40.2032 66.353C40.2166 66.281 40.2289 66.2321 40.24 66.2061C40.2508 66.1802 40.2593 66.16 40.2657 66.1455C40.272 66.1309 40.2821 66.1101 40.2961 66.0831C40.3101 66.0561 40.3246 66.0228 40.3396 65.9831C40.3549 65.9434 40.3694 65.9058 40.3831 65.8701C40.3965 65.8341 40.4048 65.8125 40.408 65.8054C40.4111 65.7983 40.4131 65.7942 40.4139 65.7934C40.4147 65.7926 40.4167 65.7912 40.4198 65.7891C40.423 65.7867 40.4259 65.7836 40.4285 65.7796C40.4314 65.7757 40.4327 65.7736 40.4325 65.7736C40.4325 65.7734 40.4327 65.7725 40.4333 65.7709C40.4338 65.7691 40.4351 65.7654 40.4372 65.7601C40.4393 65.755 40.4475 65.7376 40.4617 65.7077C40.4762 65.6778 40.4853 65.6584 40.489 65.6494C40.493 65.6404 40.4943 65.6375 40.493 65.6407C40.4914 65.6439 40.491 65.6449 40.4918 65.6438C40.4926 65.643 40.491 65.6445 40.487 65.6483C40.4828 65.652 40.4952 65.6437 40.5242 65.6236C40.5529 65.6033 40.5708 65.5917 40.578 65.5888" stroke="#3D5330" stroke-width="4" stroke-linecap="round" stroke-linejoin="round"/>
<path d="M26.7597 56.7107C26.7742 56.7248 26.7533 56.683 26.6969 56.5854C26.6402 56.488 26.614 56.4443 26.6182 56.4544C26.6221 56.4644 26.6171 56.4673 26.6032 56.4631C26.5889 56.4586 26.5924 56.4582 26.6134 56.4619C26.6348 56.4656 26.5503 56.4089 26.3601 56.292C26.1698 56.1751 25.8234 56.0871 25.3208 56.0281C25.2125 56.1059 25.1726 56.1346 25.201 56.1139C25.1763 56.089 25.0843 56.2026 24.9251 56.4548C24.7657 56.7066 24.5471 57.0207 24.2693 57.3969C23.9916 57.7729 23.7257 58.1364 23.4716 58.4875C23.2173 58.8385 23.0285 59.1021 22.9052 59.2783C22.7818 59.4545 22.7075 59.5794 22.6822 59.6526C22.6567 59.7257 22.6422 59.7558 22.6387 59.7431C22.6356 59.7304 22.5798 59.7947 22.4715 59.9359C22.3635 60.0772 22.2621 60.2101 22.1675 60.3347C22.0729 60.4596 22.0165 60.533 21.9984 60.5547C21.9802 60.5766 21.9589 60.6069 21.9347 60.6455C21.9105 60.6839 21.8539 60.7548 21.7651 60.8585C21.6761 60.9619 21.6253 61.0335 21.6129 61.0732C21.6008 61.1129 21.5453 61.1824 21.4465 61.2813C21.3477 61.3803 21.2738 61.4574 21.2248 61.5127C21.1755 61.568 21.1427 61.6059 21.1263 61.6268C21.1097 61.648 21.1025 61.6608 21.1046 61.665C21.1067 61.6695 21.1079 61.6685 21.1081 61.6619C21.1084 61.6553 21.0956 61.6829 21.0698 61.7448C21.0548 61.8171 21.0436 61.8587 21.0362 61.8698C21.0288 61.8809 21.0062 61.9128 20.9682 61.9657C20.9303 62.0186 20.9131 62.0453 20.9168 62.0456C20.9205 62.0458 20.9087 62.048 20.8812 62.052C20.8541 62.0557 20.7878 62.1277 20.6824 62.2682C20.577 62.409 20.501 62.53 20.4543 62.6313C20.4079 62.7324 20.3775 62.8045 20.363 62.8476C20.3488 62.8907 20.3465 62.9264 20.3563 62.9548C20.366 62.9828 20.3696 62.9963 20.367 62.9953C20.3643 62.9939 20.3637 62.9941 20.365 62.9956C20.366 62.997 20.3658 62.9901 20.3642 62.9753C20.3626 62.9605 20.3621 62.957 20.3626 62.9646C20.3634 62.9728 20.366 62.999 20.3705 63.0429C20.375 63.0866 20.3795 63.1288 20.384 63.1698C20.3884 63.2106 20.3919 63.23 20.3942 63.2282C20.3966 63.2263 20.3994 63.2256 20.4025 63.2258C20.406 63.2261 20.4413 63.2782 20.5085 63.3822C20.5759 63.4862 20.6329 63.5665 20.6792 63.6231C20.7256 63.6797 20.7561 63.7147 20.7706 63.7279C20.7848 63.7414 20.7879 63.7459 20.78 63.7417C20.7724 63.7377 20.7949 63.7586 20.8476 63.8041C20.9003 63.8496 21.0287 63.9601 21.2327 64.1358C21.4369 64.3115 21.6106 64.4646 21.7537 64.5953C21.8968 64.7257 22.0246 64.833 22.1371 64.9171C22.2496 65.001 22.3266 65.0635 22.368 65.1045C22.4091 65.1455 22.4469 65.1816 22.4814 65.2128C22.5159 65.2443 22.554 65.2801 22.5957 65.3204C22.637 65.3608 22.7111 65.4141 22.8178 65.4802C22.9243 65.5461 23.1195 65.6476 23.4036 65.7846C23.6875 65.9217 23.913 66.0398 24.0804 66.1391C24.2477 66.2383 24.4951 66.3722 24.8224 66.5408C25.1499 66.7093 25.42 66.8476 25.6327 66.9558C25.8456 67.064 26.0794 67.1853 26.334 67.3197C26.5885 67.4544 26.8135 67.6107 27.0087 67.7885C27.204 67.9665 27.476 68.1432 27.8246 68.3186C28.1736 68.4938 28.4651 68.6395 28.6994 68.7556C28.9337 68.8715 29.1884 69.0068 29.4635 69.1616C29.7384 69.3163 29.9332 69.4294 30.0478 69.5009C30.1622 69.5723 30.2399 69.6192 30.281 69.6417C30.3232 69.665 30.357 69.6841 30.3826 69.6989C30.4097 69.715 30.4872 69.768 30.615 69.858C30.7442 69.949 30.8695 70.0316 30.991 70.1056C31.1127 70.1794 31.2113 70.2324 31.2867 70.2647C31.362 70.297 31.412 70.3238 31.4365 70.3449C31.461 70.3661 31.4867 70.3863 31.5136 70.4056C31.5407 70.4249 31.5672 70.4437 31.593 70.462C31.6188 70.4805 31.6314 70.4887 31.6306 70.4866C31.6298 70.485 31.6262 70.4799 31.6199 70.4715C31.6133 70.4633 31.7145 70.5211 31.9235 70.6449C32.1325 70.7687 32.314 70.8806 32.4682 70.9803C32.6224 71.0801 32.7367 71.1518 32.8113 71.1954C32.8862 71.2391 32.9402 71.2708 32.9734 71.291C33.0066 71.3108 33.0414 71.3333 33.0777 71.3584C33.1141 71.3835 33.1463 71.4041 33.1742 71.42C33.2021 71.4359 33.2374 71.4557 33.2801 71.4795C33.3228 71.5036 33.3436 71.5141 33.3426 71.5109C33.3415 71.5074 33.3472 71.5083 33.3596 71.5136C33.3717 71.5189 33.3734 71.5212 33.3647 71.5204C33.3558 71.5196 33.401 71.5493 33.5003 71.6093C33.5994 71.6691 33.7177 71.7365 33.8553 71.8116C33.9929 71.887 34.1021 71.9558 34.183 72.018C34.2636 72.0804 34.3398 72.1258 34.4115 72.1538C34.4832 72.1821 34.5409 72.2056 34.5846 72.2244C34.6284 72.2432 34.6513 72.2533 34.6534 72.2546C34.6555 72.2557 34.6487 72.2587 34.6328 72.2637C34.6173 72.2687 34.6375 72.2809 34.6933 72.3005C34.7492 72.3201 34.7911 72.3281 34.819 72.3244C34.847 72.3207 34.889 72.3134 34.9451 72.3023C35.0015 72.2912 35.0375 72.2819 35.053 72.2747C35.0686 72.2679 35.0588 72.2694 35.0238 72.2792C34.9887 72.2893 35.0595 72.2568 35.2361 72.1819C35.4124 72.1071 35.5549 72.0561 35.6638 72.0288C35.7726 72.0016 35.8609 71.9828 35.9286 71.9725C35.9964 71.9619 36.0323 71.9544 36.0365 71.9502C36.0408 71.9459 36.0427 71.9438 36.0425 71.9438C36.0422 71.9438 36.0376 71.9486 36.0286 71.9581C36.0199 71.9674 36.0607 71.946 36.1508 71.8942C36.2412 71.8423 36.3102 71.8036 36.3579 71.7779C36.4059 71.7525 36.4349 71.738 36.4449 71.7343C36.4549 71.7309 36.4706 71.7189 36.4919 71.6983C36.5133 71.6779 36.5658 71.6317 36.6496 71.5597C36.7335 71.4875 36.771 71.4554 36.7623 71.4636C36.7533 71.4718 36.7456 71.4763 36.739 71.4768C36.8207 71.3958 36.8643 71.3531 36.8698 71.3489C36.8751 71.3444 36.8731 71.3439 36.8639 71.3473C36.8455 71.3688 36.8538 71.3669 36.8888 71.3417C36.9239 71.3166 36.9627 71.279 37.0054 71.2288C37.0478 71.1785 37.1197 71.0851 37.2209 70.9486C37.3221 70.812 37.3903 70.7197 37.4256 70.6718C37.4609 70.624 37.486 70.5898 37.5007 70.5691C37.5152 70.5485 37.5333 70.5234 37.5549 70.4938C37.5765 70.4639 37.5948 70.4388 37.6098 70.4184C37.6246 70.398 37.6387 70.3788 37.6521 70.3608C37.6656 70.3431 37.6815 70.3196 37.7 70.2905C37.7184 70.2614 37.7346 70.2336 37.7486 70.2072C37.7625 70.1807 37.7707 70.1619 37.7731 70.1508C37.7755 70.1397 37.783 70.1243 37.7956 70.1045C37.8085 70.0846 37.8258 70.0574 37.8474 70.0227C37.869 69.988 37.9549 69.8425 38.1051 69.5861C38.2553 69.3298 38.3663 69.1289 38.438 68.9837C38.5097 68.8387 38.5555 68.7221 38.5755 68.6337C38.5956 68.5451 38.6093 68.4856 38.6167 68.4554C38.624 68.4255 38.6281 68.4064 38.6289 68.3979C38.6297 68.3897 38.6309 68.3845 38.6325 68.3824C38.634 68.3803 38.6406 68.3655 38.6522 68.338C38.6638 68.3105 38.6862 68.2552 38.7194 68.1721C38.7526 68.0891 38.7641 68.0562 38.7538 68.0737C38.7435 68.0909 38.7416 68.0904 38.7479 68.0722C38.7542 68.0539 38.7673 68.0156 38.787 67.9574C38.8068 67.8998 38.8212 67.8666 38.8301 67.8578C38.8391 67.8496 38.8407 67.8483 38.8349 67.8536C38.8291 67.8589 38.8445 67.8403 38.8811 67.798C38.9177 67.7559 38.9934 67.6264 39.108 67.4094C39.2226 67.1922 39.3217 67.0007 39.4053 66.8351C39.4888 66.6697 39.5542 66.5475 39.6013 66.4681C39.6488 66.3887 39.678 66.3291 39.6891 66.2894C39.6999 66.2497 39.7062 66.2268 39.7081 66.2204C39.7099 66.2144 39.7133 66.2013 39.7183 66.1815C39.7233 66.1614 39.7327 66.1284 39.7464 66.0827C39.7599 66.0366 39.7726 65.9947 39.7848 65.9569C39.7971 65.9191 39.8041 65.9016 39.8057 65.9042C39.8073 65.9066 39.8078 65.9078 39.8073 65.9081C39.8068 65.9081 39.8052 65.9135 39.8025 65.9244C39.7999 65.9352 39.7991 65.9403 39.8002 65.9395C39.8012 65.9389 39.8043 65.93 39.8093 65.9125C39.8145 65.8951 39.8273 65.8514 39.8476 65.7815C39.8679 65.7117 39.8758 65.6779 39.8713 65.68C39.8671 65.6821 39.8649 65.6742 39.8646 65.6562C39.8643 65.6379 39.8672 65.621 39.8733 65.6054C39.8791 65.5895 39.8795 65.5882 39.8745 65.6017C39.8695 65.6149 39.8728 65.5808 39.8844 65.499C39.8962 65.417 39.9089 65.3504 39.9223 65.299C39.9358 65.248 39.9404 65.1727 39.9361 65.0735C39.9317 64.9745 39.9207 64.8939 39.9033 64.8315C39.886 64.769 39.8746 64.7355 39.8694 64.7307C39.8643 64.7257 39.8501 64.7053 39.8267 64.6699C39.8035 64.6344 39.7949 64.6221 39.801 64.6327C39.807 64.643 39.7877 64.6065 39.7429 64.5232C39.6981 64.4401 39.6609 64.3787 39.6314 64.3393C39.6019 64.2999 39.5778 64.2677 39.559 64.2426C39.5403 64.2174 39.5261 64.1968 39.5163 64.181C39.5063 64.1648 39.4705 64.1197 39.4088 64.0453C39.3469 63.971 39.2713 63.8834 39.1819 63.7826C39.0926 63.6818 38.9824 63.5716 38.8515 63.452C38.7205 63.3321 38.5095 63.1563 38.2186 62.9245C37.9276 62.6928 37.7123 62.5293 37.5727 62.4341C37.4327 62.3391 37.2168 62.1816 36.9248 61.9615C36.6328 61.7416 36.3656 61.5627 36.1231 61.4249C35.8807 61.2868 35.6723 61.1482 35.4981 61.0091C35.324 60.8699 35.0458 60.6861 34.6637 60.4578C34.2816 60.2294 33.9797 60.017 33.758 59.8204C33.5364 59.6239 33.148 59.3676 32.5927 59.0517C32.0372 58.7356 31.6088 58.483 31.3076 58.2941C31.0066 58.1052 30.7758 57.9582 30.615 57.8529C30.4543 57.7473 30.3522 57.6807 30.3087 57.6529C30.2649 57.6251 30.1909 57.581 30.0865 57.5207C29.9822 57.4601 29.8169 57.391 29.5908 57.3132C29.365 57.2357 29.1681 57.1668 29.0003 57.1064C28.8327 57.0458 28.6806 57.0083 28.5441 56.994C28.4076 56.98 28.2956 56.9629 28.2081 56.9425C28.1206 56.9219 28.0559 56.9075 28.014 56.8993C27.9718 56.8911 27.9473 56.8829 27.9405 56.8747C27.9339 56.8662 27.9117 56.8528 27.8741 56.8346C27.8364 56.816 27.8419 56.8107 27.8907 56.8187C27.9394 56.8266 27.3629 56.6475 26.1612 56.2813C26.0822 56.3245 26.0029 56.3415 25.9233 56.3325C25.8437 56.3232 25.7676 56.338 25.6952 56.3769C25.623 56.4155 25.5913 56.4326 25.6003 56.4278C25.6093 56.4228 25.5999 56.4277 25.5722 56.4428C25.5446 56.4578 25.5164 56.4738 25.4876 56.4904C25.4589 56.5068 25.4194 56.5313 25.3691 56.5639C25.3187 56.5967 25.2689 56.6273 25.2196 56.6559C25.1704 56.685 25.1114 56.7365 25.0429 56.8103C24.9747 56.8836 24.9126 56.9554 24.8568 57.0258C24.8009 57.0962 24.7565 57.1469 24.7235 57.1781C24.6909 57.2093 24.6654 57.2377 24.6472 57.2628C24.6293 57.2882 24.6241 57.2972 24.6314 57.2897C24.6388 57.2821 24.5898 57.3398 24.4844 57.4628C24.379 57.5855 24.3213 57.6537 24.3112 57.6674" stroke="#3D5330" stroke-width="4" stroke-linecap="round" stroke-linejoin="round"/>
<path d="M28.328 57.2143C28.3478 57.2239 28.3846 57.1249 28.4383 56.9175C28.3161 56.9056 28.2574 56.9046 28.2624 56.915C28.1312 56.9628 27.6941 57.2122 26.9512 57.6627C26.2083 58.1133 25.5832 58.4683 25.0759 58.7275C24.5686 58.9865 24.0744 59.2916 23.5932 59.6429C23.1117 59.9943 22.595 60.3137 22.0432 60.6013C22.1294 60.5672 22.4435 60.4529 22.9856 60.2582C23.5277 60.0632 24.0554 59.8879 24.5688 59.7326C25.0824 59.5773 25.56 59.4227 26.0017 59.2687C26.4434 59.1148 26.9743 58.9045 27.5944 58.6378C28.2145 58.3711 28.9946 58.172 29.9349 58.0402C30.0042 58.0693 29.8302 58.1925 29.4127 58.4099C28.9956 58.6274 28.6405 58.8245 28.3474 59.0009C28.0544 59.1777 27.4461 59.6374 26.5227 60.38C25.5993 61.1227 24.8564 61.7226 24.294 62.18C23.7317 62.6372 23.3038 62.9842 23.0105 63.221C22.7172 63.4578 22.4359 63.702 22.1665 63.9536C22.1708 63.9671 22.175 63.9806 22.1792 63.9941C22.0912 64.0698 22.4966 63.8807 23.3955 63.427C24.2944 62.9735 24.9898 62.6285 25.4815 62.392C25.973 62.1555 26.361 61.9813 26.6457 61.8694C26.93 61.7575 27.2083 61.6498 27.4805 61.5464C27.753 61.4432 27.9574 61.3635 28.0936 61.3074C28.2301 61.2516 28.4134 61.1703 28.6435 61.0637C28.8735 60.9573 29.3293 60.7287 30.0108 60.3779C30.6926 60.0271 31.4448 59.6507 32.2676 59.2486C32.2549 59.3576 31.7746 59.7586 30.8267 60.4517C29.8785 61.1449 29.0692 61.7647 28.3988 62.311C27.7284 62.8573 27.1586 63.2862 26.6895 63.5973C26.2202 63.9084 25.8743 64.1386 25.6519 64.2881C25.4297 64.4378 25.2866 64.539 25.2226 64.5913C25.1588 64.6435 25.1134 64.6951 25.0862 64.7462C25.0591 64.797 25.0472 64.815 25.0506 64.8004C25.0541 64.7859 25.0738 64.8193 25.1099 64.9008C25.1458 64.9826 25.5057 64.871 26.1899 64.566C26.8737 64.2607 27.436 64.0021 27.8766 63.7905C28.3172 63.5791 28.747 63.3803 29.1661 63.194C29.5851 63.0078 30.0876 62.8016 30.6737 62.5757C31.2601 62.3495 31.8389 62.0984 32.4103 61.8225C32.9816 61.5466 33.5249 61.2941 34.0401 61.0652C33.9763 61.2602 33.9411 61.3494 33.9345 61.3324C33.9277 61.3155 33.9056 61.3299 33.8681 61.3757C33.8307 61.4209 33.804 61.4478 33.7879 61.4563C33.7715 61.4645 33.7727 61.4766 33.7914 61.4927C33.8099 61.5086 33.4154 61.7747 32.6079 62.2909C31.8005 62.8068 31.0938 63.2651 30.4879 63.6659C29.8824 64.0667 29.3168 64.4836 28.7913 64.9167C28.2656 65.3501 27.8401 65.6982 27.5149 65.9609C27.1897 66.2237 26.8917 66.4623 26.6207 66.6771C26.5791 66.6483 26.9466 66.4938 27.7232 66.2136C28.4999 65.9332 29.174 65.6712 29.7456 65.4275C30.3172 65.1841 30.7573 64.9855 31.0659 64.8318C31.3745 64.6781 31.8136 64.4668 32.3834 64.198C32.9529 63.9289 33.4301 63.7035 33.8152 63.5215C34.2004 63.3395 34.5437 63.2077 34.8449 63.1262C35.1461 63.0447 35.5897 62.9886 36.1755 62.9582C36.1794 63.0643 36.1705 63.1103 36.1486 63.096C36.1146 63.1597 35.9189 63.3327 35.5616 63.6147C35.2042 63.8968 34.8789 64.1076 34.5856 64.2476C34.2923 64.3873 33.8302 64.6418 33.1993 65.0109C32.5681 65.3802 32.0502 65.6959 31.6454 65.958C31.2406 66.2205 30.4057 66.8875 29.1408 67.959C29.3455 67.9725 30.1701 67.6219 31.6145 66.9073C33.0587 66.1925 34.2804 65.5649 35.2797 65.0246C36.279 64.4844 37.1487 64.0146 37.8887 63.6151C37.9649 63.7773 37.5897 64.182 36.7633 64.8291C35.9369 65.476 35.2849 65.9804 34.8074 66.3423C34.3301 66.7042 33.9724 66.9748 33.7341 67.1542C33.4961 67.3333 33.2285 67.5698 32.9313 67.8634C32.634 68.1571 32.38 68.4637 32.1691 68.7833C32.176 68.7883 32.1918 68.8051 32.2166 68.8337C32.2511 68.8646 32.5285 68.7352 33.0487 68.4455C33.5686 68.1558 34.1626 67.8702 34.8307 67.5887C35.4987 67.3069 36.1038 67.0399 36.6459 66.7872C37.188 66.5343 37.6256 66.3122 37.9587 66.1212C38.2918 65.9304 38.6498 65.735 39.0327 65.535C39.0738 65.5477 38.8407 65.764 38.3334 66.1836C37.8261 66.6029 37.2571 67.0038 36.6265 67.3864C35.9961 67.7687 35.5022 68.0898 35.1445 68.3496C34.7869 68.6094 34.3821 68.9078 33.9302 69.2448C33.4782 69.5819 32.9684 70.0191 32.4008 70.5567C32.4574 70.558 32.5144 70.5503 32.5716 70.5331C32.6287 70.5159 32.6529 70.5109 32.6439 70.5183C32.6347 70.5257 32.6698 70.5044 32.7494 70.4544C32.829 70.4041 33.2375 70.2198 33.9749 69.9016C34.7122 69.583 35.287 69.346 35.6991 69.1904C36.1116 69.0348 36.4588 68.9119 36.7408 68.8215C37.0227 68.731 37.273 68.6487 37.4914 68.5746C37.546 68.6923 37.3743 68.9179 36.9764 69.2512C36.5784 69.5843 36.2553 69.8599 36.0071 70.0779C35.7586 70.2956 35.5915 70.4591 35.5059 70.5683C35.4202 70.6776 35.3543 70.7634 35.3082 70.8259C35.2623 70.8886 35.2314 70.9311 35.2153 70.9536C35.1992 70.976 35.1864 70.9944 35.177 71.0084C35.3045 71.015 35.3575 71.0167 35.3359 71.0132C35.314 71.0095 35.3199 71.0079 35.3537 71.0084C35.3871 71.0092 35.4173 71.0183 35.4442 71.0357C35.4711 71.0532 35.6869 71.0558 36.0917 71.0437C36.4962 71.0315 36.8522 71.0094 37.1598 70.9774C37.4673 70.9454 37.6433 70.93 37.6879 70.9311" stroke="#3D5330" stroke-width="4" stroke-linecap="round" stroke-linejoin="round"/>
<path d="M42.4457 88.1881C42.4417 88.2046 42.4035 88.1124 42.3311 87.9116C42.4317 88.046 42.4855 88.1056 42.4923 88.0905C42.584 88.1233 42.8352 88.3968 43.2458 88.9111C43.6561 89.4254 43.9647 89.842 44.1716 90.1606C44.3784 90.4794 44.531 90.6845 44.6293 90.776C44.7276 90.8678 44.899 91.0126 45.1436 91.2103C45.3879 91.4079 45.6398 91.6097 45.8994 91.8158C46.1587 92.0219 46.3698 92.1939 46.5327 92.332C46.6958 92.4701 46.9975 92.7483 47.4379 93.1666C47.878 93.5849 48.3945 93.959 48.9875 94.289C49.5807 94.6186 50.1288 94.9229 50.6319 95.202C51.135 95.4811 51.6099 95.8141 52.0565 96.2009C52.503 96.5877 52.8552 96.8758 53.1132 97.065C53.3714 97.2541 53.5796 97.4136 53.7378 97.5432C53.8956 97.6726 54.1989 97.9072 54.6477 98.2472C55.0963 98.5872 55.4984 98.8416 55.8542 99.0107C56.2099 99.1797 56.815 99.4535 57.6694 99.8321C58.5237 100.211 59.7137 100.634 61.2393 101.102C62.7649 101.569 63.9525 101.941 64.8021 102.217C65.6518 102.492 66.4746 102.706 67.2708 102.858C68.0669 103.009 68.8073 103.18 69.4919 103.371C70.1763 103.562 70.9118 103.702 71.6985 103.792C72.4849 103.883 73.0899 103.938 73.5137 103.957C73.9372 103.976 74.3192 103.97 74.6597 103.938C75.0001 103.906 75.5372 103.896 76.2709 103.908C77.0043 103.92 77.6809 103.905 78.3007 103.864C78.9203 103.823 79.621 103.792 80.4029 103.772C81.1846 103.751 82.0582 103.702 83.0238 103.623C83.9893 103.544 85.2056 103.284 86.6727 102.841C88.1401 102.398 89.4587 102.006 90.6285 101.665C91.7983 101.324 92.7764 100.991 93.5628 100.667C94.3494 100.343 95.0446 100.011 95.6483 99.6714C96.2518 99.3317 96.7038 99.0703 97.0042 98.8872C97.3044 98.7042 97.6823 98.4744 98.1379 98.198C98.5936 97.9218 99.1429 97.6424 99.7859 97.3601C100.429 97.0781 100.981 96.7938 101.442 96.5073C101.902 96.2205 102.353 95.8459 102.794 95.3834C103.234 94.9207 103.689 94.4896 104.158 94.0901C104.627 93.6906 105.036 93.3467 105.383 93.0583C105.731 92.7704 106.013 92.5061 106.23 92.2654C106.448 92.0249 106.703 91.7453 106.995 91.4265C107.287 91.1074 107.504 90.8542 107.646 90.6669C107.788 90.4793 107.89 90.345 107.951 90.2641C108.013 90.1831 108.062 90.1233 108.1 90.0846C108.137 90.046 108.162 90.0141 108.175 89.9887C108.187 89.9633 108.183 89.9674 108.165 90.0013C108.146 90.0354 108.205 89.9355 108.343 89.7013C108.481 89.4675 108.633 89.2381 108.797 89.0132C108.961 88.7884 109.043 88.6726 109.043 88.666C109.043 88.6596 109.174 88.509 109.435 88.2143C109.697 87.9196 109.922 87.6748 110.11 87.4801C110.298 87.2851 110.436 87.1261 110.523 87.0028C110.61 86.8793 110.659 86.804 110.669 86.7773C110.68 86.7508 110.685 86.7403 110.685 86.7453C110.685 86.7506 110.684 86.7552 110.682 86.7594C110.679 86.7639 110.685 86.7522 110.7 86.7242C110.716 86.6959 110.776 86.6065 110.88 86.456C110.983 86.3055 111.079 86.1872 111.165 86.1012C111.251 86.0152 111.286 85.9797 111.27 85.9948C111.255 86.0094 111.256 86.0092 111.275 85.9944C111.294 85.9793 111.356 85.9317 111.462 85.8518" stroke="#3D5330" stroke-width="4" stroke-linecap="round" stroke-linejoin="round"/>
<path d="M40.8811 29.8756C40.8581 29.8685 40.8394 29.8511 40.8249 29.8236C40.8104 29.7963 40.7817 29.7252 40.7387 29.6101C40.6958 29.4951 40.6796 29.4422 40.6901 29.4517C40.7009 29.4615 40.7034 29.4702 40.6976 29.4776C40.6921 29.485 40.8073 29.1095 41.0431 28.3513C41.279 27.5928 41.5674 26.7529 41.9084 25.8317C42.2494 24.9102 42.5969 24.0718 42.9508 23.3164C43.3048 22.5614 44.0938 21.4081 45.3179 19.8567C46.5417 18.3053 47.5185 17.0679 48.2482 16.1445C48.9777 15.2209 49.6245 14.4672 50.1887 13.8833C50.753 13.2994 51.2521 12.8422 51.6861 12.5114C52.1199 12.181 52.5923 11.743 53.1033 11.1975C53.6177 10.6538 54.0351 10.181 54.3555 9.77912C54.6776 9.3783 55.1774 8.95538 55.8549 8.51038C56.5327 8.06564 57.0846 7.70633 57.5104 7.43251C57.936 7.15894 58.6759 6.85261 59.73 6.51343C60.7839 6.17452 61.6602 5.91878 62.3591 5.74628C63.058 5.57404 63.7874 5.29137 64.5471 4.89822C65.3063 4.5056 66.2187 4.15521 67.2841 3.84699C68.3496 3.53904 69.2388 3.31263 69.9516 3.16791C70.6642 3.02346 71.6963 2.92424 73.048 2.87027C74.3994 2.81656 75.4365 2.79158 76.1594 2.79528C76.8822 2.79872 77.4171 2.80585 77.7639 2.81669C78.1107 2.82754 78.4882 2.8612 78.8964 2.91755C79.3046 2.97417 80.0329 3.04611 81.0812 3.13342C82.1295 3.22046 83.3133 3.42083 84.6326 3.7346C85.9515 4.04838 87.519 4.50496 89.335 5.1042C91.1507 5.70345 92.8242 6.3533 94.3553 7.05387C95.8864 7.75418 97.0366 8.30142 97.8058 8.69563C98.5748 9.08983 99.2356 9.43103 99.7883 9.71915C100.341 10.0073 100.915 10.4127 101.511 10.9355C102.107 11.4583 102.559 11.878 102.867 12.1947C103.175 12.5114 103.633 12.8874 104.243 13.3226C104.852 13.7578 105.449 14.3069 106.033 14.9699C106.617 15.6329 107.089 16.2792 107.448 16.9089C107.806 17.5388 108.078 18.0255 108.261 18.3689C108.444 18.712 108.827 19.2492 109.407 19.9805C109.989 20.712 110.563 21.5551 111.13 22.5096C111.697 23.4642 112.195 24.5866 112.622 25.8766C112.638 25.8276 112.704 25.7113 112.82 25.5277" stroke="#3D5330" stroke-width="4" stroke-linecap="round" stroke-linejoin="round"/>
<path d="M39.8874 23.9629C39.8893 23.9362 39.8911 23.9094 39.8929 23.8827C39.8758 23.8724 39.8587 23.8622 39.8416 23.8522C39.865 23.8749 39.8865 23.9447 39.906 24.0613C39.9255 24.1783 39.9326 24.2291 39.9273 24.214C39.9218 24.1987 39.9211 24.2123 39.9254 24.2549C39.9296 24.2978 39.9641 24.4571 40.0289 24.7328C40.094 25.0087 40.1764 25.6275 40.276 26.5892C40.3756 27.5509 40.4553 28.2758 40.5151 28.764C40.575 29.2524 40.6042 29.5945 40.6029 29.7906C40.6013 29.9866 40.5939 30.1399 40.5808 30.2505C40.5673 30.3614 40.554 30.4357 40.5408 30.4735C40.5274 30.5116 40.5216 30.5313 40.5234 30.5326C40.5253 30.534 40.5241 30.5707 40.5199 30.6427C40.5399 30.5668 40.5494 30.1323 40.5483 29.3394C40.547 28.5467 40.5182 27.8195 40.4618 27.1576C40.4051 26.4954 40.3487 25.9812 40.2926 25.6153C40.2362 25.2492 40.1816 24.9281 40.1289 24.6522C40.076 24.3762 40.0471 24.1815 40.0424 24.068C40.0376 23.9548 40.0223 23.8316 39.9965 23.6982C39.9707 23.5649 39.9607 23.478 39.9665 23.4375C39.9723 23.397 39.9732 23.3774 39.9692 23.3787C39.9653 23.3803 39.9632 23.3716 39.9629 23.3525C39.9624 23.3337 39.9597 23.2119 39.955 22.9871C40.0575 23.0794 40.1545 23.2469 40.2459 23.4898C40.3371 23.7327 40.4116 24.0022 40.4693 24.2982C40.5267 24.594 40.562 24.7759 40.5752 24.8439" stroke="#3D5330" stroke-width="4" stroke-linecap="round" stroke-linejoin="round"/>
<path d="M40.8056 30.3807C40.7911 30.386 40.7789 30.4007 40.7689 30.4247C40.7591 30.4491 40.7544 30.487 40.7546 30.5383C40.9534 30.6169 41.0385 30.6432 41.01 30.617C40.9486 30.649 41.1838 30.6033 41.7156 30.48C42.2474 30.3569 42.6742 30.2894 42.996 30.2773C43.318 30.2651 43.637 30.276 43.953 30.3098C44.269 30.3437 44.5809 30.3692 44.8887 30.3864C45.1965 30.4033 45.4002 30.4021 45.4998 30.3831C45.5994 30.364 45.6526 30.3511 45.6595 30.3439C45.6666 30.3371 45.7222 30.3411 45.8263 30.3561C45.9307 30.3715 46.2683 30.2564 46.8391 30.0109C46.8957 29.9032 46.7074 29.8486 46.2742 29.847C45.8409 29.8454 45.4925 29.8729 45.229 29.9295C44.9655 29.9862 44.7045 30.0348 44.4459 30.0755C44.1874 30.1163 43.9684 30.1463 43.7889 30.1657C43.6095 30.1847 43.3077 30.1746 42.8837 30.1354C42.46 30.096 42.1439 30.071 41.9354 30.0601C41.7269 30.049 41.5712 30.0595 41.4682 30.0918C41.3649 30.1244 41.3019 30.1431 41.2792 30.1478C41.2563 30.1526 41.2258 30.1594 41.1879 30.1684C41.1497 30.1771 41.1237 30.184 41.11 30.1887C41.0963 30.1932 41.0563 30.2077 40.9899 30.2323C40.9806 30.281 41.0096 30.3255 41.0768 30.366C41.1438 30.4068 41.1857 30.4344 41.2025 30.449" stroke="#3D5330" stroke-width="4" stroke-linecap="round" stroke-linejoin="round"/>
<path d="M108.844 85.9774C108.905 85.9699 108.712 85.9567 108.265 85.9376C107.818 85.9188 107.453 85.9056 107.17 85.8979C106.887 85.89 106.705 85.8921 106.621 85.9043C106.538 85.9165 106.471 85.9389 106.419 85.9717C106.368 86.0048 106.304 86.0397 106.228 86.0762C106.386 86.2071 106.736 86.2249 107.278 86.1297C107.82 86.0347 108.217 85.9351 108.468 85.8309C108.719 85.7266 109.051 85.7132 109.465 85.7907C109.879 85.8683 110.295 85.8847 110.714 85.84C110.554 85.8736 110.478 85.8817 110.485 85.8642C110.486 85.8613 110.058 85.9 109.201 85.9805C108.343 86.0611 107.099 86.1514 105.467 86.2512C105.859 86.1345 106.348 86.0519 106.936 86.0035C107.524 85.9551 108.116 85.8663 108.711 85.7369C109.307 85.6075 109.842 85.5361 110.317 85.5226C110.792 85.5091 111.151 85.5172 111.395 85.5468C111.639 85.5762 111.784 85.5922 111.828 85.5954" stroke="#3D5330" stroke-width="4" stroke-linecap="round" stroke-linejoin="round"/>
<path d="M111.782 85.673C111.725 85.5701 111.686 85.5 111.663 85.4629C111.65 85.4299 111.682 85.9009 111.76 86.8761C111.838 87.8516 111.909 88.6785 111.972 89.3568C112.035 90.0352 112.096 90.5579 112.154 90.9249C112.213 91.2921 112.297 91.5798 112.407 91.7883C112.517 91.9971 112.636 92.2428 112.764 92.525" stroke="#3D5330" stroke-width="4" stroke-linecap="round" stroke-linejoin="round"/>
<path d="M111.434 85.4872C111.423 85.7406 111.425 85.8416 111.44 85.7901C111.507 85.9784 111.596 86.6621 111.705 87.841C111.814 89.0201 111.904 90.0231 111.975 90.8499C112.046 91.6769 112.216 92.4796 112.486 93.2579" stroke="#3D5330" stroke-width="4" stroke-linecap="round" stroke-linejoin="round"/>
</svg>
